<svg width="96" height="264" xmlns="http://www.w3.org/2000/svg" style="shape-rendering:geometricPrecision;text-rendering:geometricPrecision;image-rendering:optimizeQuality;fill-rule:evenodd;clip-rule:evenodd" viewBox="0 0 96 264"><path fill="#030202" d="M30.5-.5h4q1.5 4 3 0h4q1.5 4 3 0h4q1.5 4 3 0h5q.481 2.322 3 2a60.7 60.7 0 0 0 2 16 43.4 43.4 0 0 1-2 8 43.4 43.4 0 0 1 2 8q-3.918 16.903 0 33.5a326 326 0 0 0-2 47.5h22v27h-6v28h-5a38.2 38.2 0 0 1 2 11 63.1 63.1 0 0 1 18 1.5q3.488 2.708 5 6.5v16q-2.34 4.362-7 6.5-7.984.749-16 .5v6a145 145 0 0 0-17 .5 20.5 20.5 0 0 0 2.5 3.5q.75 20.994.5 42h-30v-14h-6v-5h6q-.25-11.511.5-23a20.5 20.5 0 0 0 2.5-3.5 32.5 32.5 0 0 0-8-.5v5h-24v-53h13v-5h-3a292 292 0 0 0 2-23h-6v-4h-3v-7h3v-16h22q.25-21.006-.5-42-1.632-2.68-1.5-6 3.94-16.346 0-33a43.4 43.4 0 0 1 2-8 43.4 43.4 0 0 1-2-8 60.7 60.7 0 0 0 2-16q2.518.322 3-2" style="opacity:1"/><path fill="#393a3a" d="M42.5 9.5q1.63.18 2 2l-1 2q-1.393-1.783-1-4" style="opacity:1"/><path fill="#3a3b3c" d="M35.5 22.5h3v6h-3z" style="opacity:1"/><path fill="#434443" d="M42.5 22.5q1.79.705 2 3l-1 3a9.86 9.86 0 0 1-1-6" style="opacity:1"/><path fill="#3a3b3c" d="M48.5 22.5h3v6h-3z" style="opacity:1"/><path fill="#2d2f2d" d="M29.5 32.5a197 197 0 0 1 28 1l-14 1q-7.576-.01-14-2" style="opacity:1"/><path fill="#353637" d="M35.5 37.5h3v23h-3z" style="opacity:1"/><path fill="#424242" d="M42.5 37.5q1.985 5.157 2 11.5l-1 11.5a133 133 0 0 1-1-23" style="opacity:1"/><path fill="#353637" d="M48.5 37.5h3v23h-3z" style="opacity:1"/><path fill="#3f4040" d="M29.5 64.5h28v4h-28z" style="opacity:1"/><path fill="#363638" d="M35.5 72.5h3v46h-3z" style="opacity:1"/><path fill="#434343" d="M42.5 72.5q1.996 10.955 2 23l-1 23a530 530 0 0 1-1-46" style="opacity:1"/><path fill="#363638" d="M48.5 72.5h3v46h-3z" style="opacity:1"/><path fill="#3d3d3d" d="M13.5 122.5h60v10a8.4 8.4 0 0 1-4-.5q6.81-6.045-2-8.5-2.017 1.27-3 3.5-21 1-42 0-3.198-6.266-8-.5a44 44 0 0 0 3 5.5 8.4 8.4 0 0 1-4 .5z" style="opacity:1"/><path d="M24.5 123.5q19.026-.498 38 1l-19 1q-10.056-.005-19-2" style="opacity:1"/><path fill="#212321" d="M18.5 125.5a1412 1412 0 0 0 25 43 680 680 0 0 0 24.5-43 11.4 11.4 0 0 1 2.5 2q-12.15 20.805-23.5 42a33.8 33.8 0 0 0-1.5 8.5 181.3 181.3 0 0 1 0 37.5h-4a178.2 178.2 0 0 1 0-37 71 71 0 0 0-1.5-9 529 529 0 0 0-23.5-42 31 31 0 0 0 2-2" style="opacity:1"/><path fill="#3a3b3c" d="M35.5 131.5h3v12h-3z" style="opacity:1"/><path fill="#434443" d="M42.5 131.5q1.94 2.322 2 6l-1 6a36.9 36.9 0 0 1-1-12" style="opacity:1"/><path fill="#3a3b3c" d="M48.5 131.5h3v12h-3z" style="opacity:1"/><path fill="#1c1d1b" d="M64.5 144.5h5v18h-5z" style="opacity:1"/><path fill="#424141" d="M48.5 155.5h-10q-1.336-1.142-2-3 7-2 14 0-.664 1.858-2 3" style="opacity:1"/><path fill="#2a2b29" d="M38.5 155.5h10a35 35 0 0 1-5 9 35 35 0 0 1-5-9" style="opacity:1"/><path fill="#3f403f" d="M24.5 151.5q2.217-.393 4 1a27 27 0 0 0 3.5 6q2.006 5.288 1.5 11h5v4h-14z" style="opacity:1"/><path fill="#3a3b3b" d="M57.5 153.5q1.473 5.193 1 11h-5q.75-5.993 4-11" style="opacity:1"/><path fill="#3b3c3b" d="M49.5 168.5h13v6a98.4 98.4 0 0 1-14-.5q-1.248-2.863 1-5.5" style="opacity:1"/><path fill="#222422" d="M6.5 215.5q20-1 0-2v-21q6-.5 0-1v-15h11v40q-5.807.473-11-1" style="opacity:1"/><path fill="#424242" d="M23.5 182.5h16v3h-16z" style="opacity:1"/><path fill="#3e3e3e" d="M47.5 182.5a73 73 0 0 1 17 1q-8.249 2.675-17 2z" style="opacity:1"/><path fill="#3f3f3f" d="M23.5 186.5h16v23h-16z" style="opacity:1"/><path fill="#3b3b3b" d="M47.5 186.5h12v3h-9v3h10v15q2.217-.393 4 1a73 73 0 0 1-17 1z" style="opacity:1"/><path fill="#3b3c3b" d="M63.5 186.5q1.983-.255 3.5 1 .747 4.975.5 10 3.735-.303 7 1.5 1.58 2.082.5 4.5-6.1 1.446-12.5 1a86.8 86.8 0 0 1 1-18" style="opacity:1"/><path fill="#6a6a6a" d="M69.5 189.5h17v14h-8q.07-8.93-9-9z" style="opacity:1"/><path fill="#0b0c0c" d="M25.5 190.5h11v6h-11z" style="opacity:1"/><path fill="#0c0d0c" d="M49.5 197.5h9v6h-9z" style="opacity:1"/><path fill="#0d0e0c" d="M25.5 199.5h11v5h-11z" style="opacity:1"/><path fill="#5a5a5a" d="M6.5 213.5q20 1 0 2z" style="opacity:1"/><path fill="#414241" d="M49.5 246.5q-1.236-5.718-1.5-12-4.5-10-9 0-.266 5.784-1.5 11-.25-11.011.5-22 3.396-2.124 3.5-6h4q.104 3.876 3.5 6 .75 11.489.5 23" style="opacity:1"/><path fill="#1c1c1b" d="M49.5 246.5v2q-6 8-12 0v-3q1.234-5.216 1.5-11 4.5-10 9 0 .264 6.282 1.5 12" style="opacity:1"/><path fill="#88231f" d="M42.5 245.5q4.761.678 1 3-3.03-.95-1-3" style="opacity:1"/><path fill="#424242" d="M37.5 248.5q6 8 12 0v6h-12z" style="opacity:1"/></svg>