<svg width="90" height="267" xmlns="http://www.w3.org/2000/svg" style="shape-rendering:geometricPrecision;text-rendering:geometricPrecision;image-rendering:optimizeQuality;fill-rule:evenodd;clip-rule:evenodd" viewBox="0 0 90 267"><path fill="#010000" d="M41.5-.5h7q-.5 24.52 1 49 5.189 4.856 12 7.5l2 3a163 163 0 0 0 22 10q3.266 6.935-4 6a121.5 121.5 0 0 0-30-13.5 170 170 0 0 0-1 26 129 129 0 0 1 11 2q.001 12.025 1 24h19v34h-19q.25 31.505-.5 63a34.5 34.5 0 0 1-5.5 6q-1.5 24.98-1 50h-22q.5-25.02-1-50a58 58 0 0 1-5.5-7q-.75-30.996-.5-62h-19v-34h19q.999-11.975 1-24a129 129 0 0 1 11-2 170 170 0 0 0-1-26A121.2 121.2 0 0 0 7.5 75q-7.267.935-4-6a290 290 0 0 0 21-9 13.9 13.9 0 0 0 3-4 137 137 0 0 0 14-7.5z" style="opacity:1"/><path fill="#262a1b" d="M23.5 120.5h-9v20q-1.487-10.22-1-21 5.313-.469 10 1" style="opacity:1"/><path fill="#465722" d="M23.5 120.5q1.486 9.719 1 20h-10v-20z" style="opacity:1"/><path fill="#455622" d="M65.5 119.5q4.915-.426 9.5 1 .75 9.987.5 20h-10z" style="opacity:1"/><path fill="#4e4e4e" d="M42.5 121.5q2.217-.393 4 1l-2 1q-1.82-.37-2-2" style="opacity:1"/><path fill="#272928" d="M41.5 127.5h6v14h-6z" style="opacity:1"/><path fill="#2c2d2d" d="M46.5 174.5q-1.936-.356-3 1v24a730 730 0 0 1-1-54h4z" style="opacity:1"/><path fill="#979897" d="M43.5 175.5q1.985 5.41 2 12-.015 6.59-2 12z" style="opacity:1"/><path fill="#616161" d="M43.5 175.5q1.064-1.356 3-1v26q-1.936.356-3-1 1.985-5.41 2-12-.015-6.59-2-12" style="opacity:1"/><path fill="#461400" d="M42.5 217.5h4v40h-4z" style="opacity:1"/></svg>