<svg width="40" height="266" xmlns="http://www.w3.org/2000/svg" style="shape-rendering:geometricPrecision;text-rendering:geometricPrecision;image-rendering:optimizeQuality;fill-rule:evenodd;clip-rule:evenodd" viewBox="0 0 40 266"><path fill="#030202" d="M13.5-.5h13v39h3v8q1.763-.329 3 1a127 127 0 0 1 4 12h3v4q-2 1.5 0 3v4q-2 1 0 2v4q-2 1 0 2v4q-2 1.5 0 3v3q-2 1.5 0 3v4q-.974.456-2 1a650 650 0 0 0-1.5 36l-4 10a5340 5340 0 0 1-4.5 123h-16a6647 6647 0 0 1-4.5-123 108 108 0 0 1-4-11 615 615 0 0 0-1.5-35 44 44 0 0 0-2-1v-4q2-1.5 0-3v-3q2-1.5 0-3v-4q2-1 0-2v-4q2-1 0-2v-4q2-1.5 0-3v-4q1.763.329 3-1l4-11q1.237-1.329 3-1v-8h4z" style="opacity:.999"/><path fill="#616161" d="M13.5 56.5q6.4-.446 12.5 1 1.24 37.359-.5 74.5-6.383 1.194-12.5-.5a947 947 0 0 1 .5-75" style="opacity:1"/><path fill="#080808" d="M20.5 58.5q5.88-1.13 4 4-4.468 1.284-4-4" style="opacity:1"/><path fill="#080809" d="M14.5 58.5h4q-.052 8.285-5 2 .544-1.026 1-2" style="opacity:1"/><path fill="#080809" d="M14.5 64.5h4q-.052 8.285-5 2 .544-1.025 1-2" style="opacity:1"/><path fill="#0d0d0d" d="M20.5 64.5q5.457-1.145 4.5 4-5.505 2.265-4.5-4" style="opacity:1"/><path fill="#0b0b0c" d="M14.5 70.5q5.116-.175 4 5-6.652.866-4-5" style="opacity:1"/><path fill="#060707" d="M21.5 70.5q5.492-.225 3 4.5-5.69.73-3-4.5" style="opacity:1"/><path fill="#0b0b0c" d="M14.5 76.5q5.116-.175 4 5-6.652.866-4-5" style="opacity:1"/><path fill="#060707" d="M21.5 76.5q5.492-.225 3 4.5-5.69.73-3-4.5" style="opacity:1"/><path fill="#0c0c0c" d="M14.5 83.5h4q.735 3.672-2.5 5-3.915-1.5-1.5-5" style="opacity:1"/><path fill="#080809" d="M21.5 83.5q5.492-.225 3 4.5-5.69.73-3-4.5" style="opacity:1"/><path fill="#0c0c0c" d="M14.5 89.5h4q.735 3.672-2.5 5-3.915-1.5-1.5-5" style="opacity:1"/><path fill="#080809" d="M21.5 89.5q5.492-.225 3 4.5-5.69.73-3-4.5m-6 6q3.876.822 3 5-7.476.534-3-5" style="opacity:1"/><path fill="#0b0b0b" d="M21.5 95.5q5.492-.225 3 4.5a8.4 8.4 0 0 1-4 .5q-.2-2.687 1-5" style="opacity:1"/><path fill="#080809" d="M15.5 101.5q3.876.822 3 5-7.476.534-3-5" style="opacity:1"/><path fill="#09090a" d="M21.5 101.5q4.896.339 3 4.5a8.4 8.4 0 0 1-4 .5q-.2-2.687 1-5" style="opacity:1"/><path fill="#0b0b0c" d="M14.5 107.5q5.116-.175 4 5-6.652.867-4-5" style="opacity:1"/><path fill="#060707" d="M21.5 107.5q5.492-.225 3 4.5-5.69.73-3-4.5" style="opacity:1"/><path fill="#0b0b0c" d="M14.5 113.5q5.116-.175 4 5-6.652.867-4-5" style="opacity:1"/><path fill="#060707" d="M21.5 113.5q5.492-.225 3 4.5-5.69.73-3-4.5" style="opacity:1"/><path fill="#0c0c0c" d="M14.5 120.5h4q.735 3.672-2.5 5-3.915-1.5-1.5-5" style="opacity:1"/><path fill="#090909" d="M21.5 120.5q5.492-.225 3 4.5-5.69.73-3-4.5" style="opacity:1"/><path fill="#0c0c0c" d="M14.5 126.5h4q.735 3.672-2.5 5-3.915-1.5-1.5-5" style="opacity:1"/><path fill="#090909" d="M21.5 126.5q5.492-.225 3 4.5-5.69.73-3-4.5" style="opacity:1"/><path fill="#2c2d2f" d="M14.5 142.5h10v38h-9v-3h3v-11h-3q-2.19-1.707-1-24" style="opacity:1"/><path fill="#050505" d="M20.5 166.5h3a50.4 50.4 0 0 1-.5 10 3.65 3.65 0 0 1-1.5 1 31.1 31.1 0 0 1-1-11" style="opacity:1"/><path fill="#3b3b3b" d="M15.5 186.5h8v35h-8z" style="opacity:1"/><path fill="#606060" d="M18.5 228.5q2.853 4.256 2 10a91 91 0 0 1-1 19 211 211 0 0 1-1-29" style="opacity:1"/><path fill="#2d2e2e" d="M18.5 228.5q1.063-1.356 3-1 .473 5.807-1 11 .853-5.744-2-10" style="opacity:1"/></svg>