<svg version="1.1" width="128" height= "128" fill="none" stroke="none" stroke-linecap="square" stroke-miterlimit="10" xmlns:xlink="http://www.w3.org/1999/xlink" xmlns="http://www.w3.org/2000/svg"><g transform="rotate(90 100 50)"><path fill="#000000" fill-opacity="0.0" d="m0 0l201.8189 0l0 100.0l-201.8189 0z" fill-rule="evenodd"/><path fill="#323743" d="m48.87139 46.195538l32.692917 0l0 7.905514l-32.692917 0z" fill-rule="evenodd"/><path stroke="#000000" stroke-width="3.0" stroke-linejoin="round" stroke-linecap="butt" d="m48.87139 46.195538l32.692917 0l0 7.905514l-32.692917 0z" fill-rule="evenodd"/><path fill="#323743" d="m53.262466 41.74672l40.850395 0l0 16.503937l-40.850395 0z" fill-rule="evenodd"/><path stroke="#000000" stroke-width="3.0" stroke-linejoin="round" stroke-linecap="butt" d="m53.262466 41.74672l40.850395 0l0 16.503937l-40.850395 0z" fill-rule="evenodd"/><path fill="#272b34" d="m54.24672 44.329395l39.338585 0l0 11.338585l-39.338585 0z" fill-rule="evenodd"/><path stroke="#000000" stroke-width="1.0" stroke-linejoin="round" stroke-linecap="butt" d="m54.24672 44.329395l39.338585 0l0 11.338585l-39.338585 0z" fill-rule="evenodd"/><path fill="#000000" fill-opacity="0.0" d="m56.28241 45.88714l3.4216385 0l0 8.377953l-3.4216385 0z" fill-rule="evenodd"/><path stroke="#000000" stroke-width="3.0" stroke-linejoin="round" stroke-linecap="butt" d="m56.28241 45.88714l3.4216385 0l0 8.377953l-3.4216385 0z" fill-rule="evenodd"/><path fill="#000000" fill-opacity="0.0" d="m62.595577 45.88714l3.4216423 0l0 8.377953l-3.4216423 0z" fill-rule="evenodd"/><path stroke="#000000" stroke-width="3.0" stroke-linejoin="round" stroke-linecap="butt" d="m62.595577 45.88714l3.4216423 0l0 8.377953l-3.4216423 0z" fill-rule="evenodd"/><path fill="#000000" fill-opacity="0.0" d="m68.81932 45.88714l3.4216385 0l0 8.377953l-3.4216385 0z" fill-rule="evenodd"/><path stroke="#000000" stroke-width="3.0" stroke-linejoin="round" stroke-linecap="butt" d="m68.81932 45.88714l3.4216385 0l0 8.377953l-3.4216385 0z" fill-rule="evenodd"/><path fill="#000000" fill-opacity="0.0" d="m75.132484 45.88714l3.421646 0l0 8.377953l-3.421646 0z" fill-rule="evenodd"/><path stroke="#000000" stroke-width="3.0" stroke-linejoin="round" stroke-linecap="butt" d="m75.132484 45.88714l3.421646 0l0 8.377953l-3.421646 0z" fill-rule="evenodd"/><path fill="#000000" fill-opacity="0.0" d="m81.357544 45.732285l3.4216385 0l0 8.377953l-3.4216385 0z" fill-rule="evenodd"/><path stroke="#000000" stroke-width="3.0" stroke-linejoin="round" stroke-linecap="butt" d="m81.357544 45.732285l3.4216385 0l0 8.377953l-3.4216385 0z" fill-rule="evenodd"/><path fill="#000000" fill-opacity="0.0" d="m87.67071 45.732285l3.421646 0l0 8.377953l-3.421646 0z" fill-rule="evenodd"/><path stroke="#000000" stroke-width="3.0" stroke-linejoin="round" stroke-linecap="butt" d="m87.67071 45.732285l3.421646 0l0 8.377953l-3.421646 0z" fill-rule="evenodd"/><path fill="#323743" d="m128.44373 42.157482l24.503937 0l0 15.685036l-24.503937 0z" fill-rule="evenodd"/><path stroke="#000000" stroke-width="3.0" stroke-linejoin="round" stroke-linecap="butt" d="m128.44373 42.157482l24.503937 0l0 15.685036l-24.503937 0z" fill-rule="evenodd"/><path fill="#272b34" d="m129.53978 42.929134l23.307083 0.6416092l0 12.858513l-23.307083 0.6416092z" fill-rule="evenodd"/><path stroke="#000000" stroke-width="3.0" stroke-linejoin="round" stroke-linecap="butt" d="m129.53978 42.929134l23.307083 0.6416092l0 12.858513l-23.307083 0.6416092z" fill-rule="evenodd"/><path fill="#323743" d="m94.114174 41.74803l35.11811 0l0 16.503937l-35.11811 0z" fill-rule="evenodd"/><path stroke="#000000" stroke-width="3.0" stroke-linejoin="round" stroke-linecap="butt" d="m94.114174 41.74803l35.11811 0l0 16.503937l-35.11811 0z" fill-rule="evenodd"/><path fill="#323743" d="m94.11419 44.330708l35.11811 0l0 11.338585l-35.11811 0z" fill-rule="evenodd"/><path stroke="#000000" stroke-width="3.0" stroke-linejoin="round" stroke-linecap="butt" d="m94.11419 44.330708l35.11811 0l0 11.338585l-35.11811 0z" fill-rule="evenodd"/><path fill="#444a58" d="m95.69423 46.559055l31.968506 0.8740158l0 5.0866165l-31.968506 0.874012z" fill-rule="evenodd"/></g></svg>