<?xml version="1.0" encoding="UTF-8" standalone="no"?>
<svg
   width="160"
   height="160"
   viewBox="0 0 42.333 42.333"
   version="1.1"
   id="svg51"
   xml:space="preserve"
   xmlns="http://www.w3.org/2000/svg"
   xmlns:svg="http://www.w3.org/2000/svg"><defs
     id="defs13"><clipPath
       id="a"><path
         d="M 0,258.9 H 38.1 V 297 H 0 Z"
         fill="#4d2600"
         stroke-width="0.529"
         id="path1" /></clipPath><clipPath
       id="c"><path
         d="m -4.763,273.187 v -5.82 h 28.575 v 5.82 z"
         fill="#4d2600"
         stroke-width="3.532"
         id="path2" /></clipPath><clipPath
       id="b"><path
         d="m 43.392,296.47 h -12.7 v -38.1 h 12.7 z"
         fill="#4d2600"
         stroke-width="6.024"
         id="path3" /></clipPath><clipPath
       id="d"><path
         d="m -1.587,297 h -5.821 v -38.1 h 5.82 z"
         fill="#4d2600"
         stroke-width="4.078"
         id="path4" /></clipPath><clipPath
       id="e"><path
         d="m -45.534,209.35 29.33,16.933 v 33.867 l -29.33,16.933 -29.33,-16.933 v -33.867 z"
         fill-opacity="0.506"
         stroke="#ffffff"
         stroke-width="2.117"
         stroke-opacity="0.502"
         id="path5" /></clipPath><clipPath
       id="f"><path
         d="M 0,258.9 H 38.1 V 297 H 0 Z"
         fill="#4d2600"
         stroke-width="0.529"
         id="path6" /></clipPath><clipPath
       id="g"><path
         d="m 43.392,296.47 h -12.7 v -38.1 h 12.7 z"
         fill="#4d2600"
         stroke-width="6.024"
         id="path7" /></clipPath><clipPath
       id="h"><path
         d="m -4.763,273.187 v -5.82 h 28.575 v 5.82 z"
         fill="#4d2600"
         stroke-width="3.532"
         id="path8" /></clipPath><clipPath
       id="i"><path
         d="m -1.587,297 h -5.821 v -38.1 h 5.82 z"
         fill="#4d2600"
         stroke-width="4.078"
         id="path9" /></clipPath><clipPath
       id="j"><path
         d="M 39.158,6.35 V -1.058 H 31.75 L 30.692,0 38.1,7.408 Z"
         fill="#272727"
         stroke-width="1.968"
         id="path10" /></clipPath><clipPath
       id="k"><path
         d="m -45.534,209.35 29.33,16.933 v 33.867 l -29.33,16.933 -29.33,-16.933 v -33.867 z"
         fill-opacity="0.506"
         stroke="#ffffff"
         stroke-width="2.117"
         stroke-opacity="0.502"
         id="path11" /></clipPath><clipPath
       id="l"><path
         d="M 0,0 10.054,10.054 H 32.28 L 42.333,0 Z"
         fill="#595959"
         stroke-width="0.286"
         id="path12" /></clipPath><clipPath
       id="m"><path
         fill="#2b2b2b"
         stroke-width="3.757"
         stroke-linecap="round"
         stroke-miterlimit="10"
         d="M 17.462,3.704 H 24.87 V 5.821 H 17.462 Z"
         id="path13" /></clipPath></defs><path
     transform="translate(2.116,-256.784)"
     d="M 0,258.9 H 38.1 V 297 H 0 Z"
     clip-path="url(#a)"
     fill="#4d2600"
     stroke="#191919"
     stroke-width="3.969"
     id="path14" /><path
     clip-path="url(#b)"
     d="m 43.392,296.47 h -12.7 v -38.1 h 12.7 z"
     transform="rotate(90,163.581,135.006)"
     fill="#c91400"
     stroke="#191919"
     stroke-width="3.969"
     id="path15" /><path
     d="m -4.763,273.187 v -5.82 h 28.575 v 5.82 z"
     clip-path="url(#c)"
     transform="matrix(-1.33333,0,0,-1,33.866,307.583)"
     fill="#d19200"
     stroke="#191919"
     stroke-width="3.437"
     id="path16" /><path
     clip-path="url(#d)"
     d="m -1.587,297 h -5.821 v -38.1 h 5.82 z"
     transform="rotate(90,128.656,170.46)"
     fill="#763800"
     stroke="#191919"
     stroke-width="3.969"
     id="path17" /><path
     transform="translate(9.524,-256.784)"
     d="m -1.587,297 h -5.821 v -38.1 h 5.82 z"
     clip-path="url(#d)"
     fill="#763800"
     stroke="#191919"
     stroke-width="3.969"
     id="path18" /><path
     transform="translate(-3.176,-256.254)"
     d="m 43.392,296.47 h -12.7 v -38.1 h 12.7 z"
     clip-path="url(#b)"
     fill="#763800"
     stroke="#191919"
     stroke-width="3.969"
     id="path19" /><path
     clip-path="url(#e)"
     d="m -45.534,209.35 29.33,16.933 v 33.867 l -29.33,16.933 -29.33,-16.933 v -33.867 z"
     transform="matrix(-0.2216701,-0.12797613,0.12797613,-0.2216701,-23.49123,72.647764)"
     fill-opacity="0.502"
     stroke="#ffffff"
     stroke-width="4.011"
     id="path20" /><path
     d="m 17.729,20.23 a 4.332,4.332 0 0 0 -4.332,4.331 4.332,4.332 0 0 0 4.332,4.332 4.332,4.332 0 0 0 4.332,-4.332 4.332,4.332 0 0 0 -4.332,-4.332 z m -1.954,1.454 4.362,2.501 c 0,0 0.184,0.14 0.268,0.224 0.386,0.386 0.579,0.892 0.579,1.398 a 1.976,1.976 0 0 1 -3.473,1.29 l -2.251,-3.053 1.033,0.494 -1.513,-1.822 1.57,0.792 -1.579,-1.794 1.778,1.019 z m 2.025,1.582 a 0.4165,0.4165 0 1 0 0,0.833 0.4165,0.4165 0 0 0 0,-0.833 z m -1.2,0.522 a 0.176,0.176 0 1 0 0,0.352 0.176,0.176 0 0 0 0,-0.352 z m 2.234,0.568 -0.1,0.664 -0.507,-0.44 0.178,0.647 -0.642,-0.195 0.427,0.518 -0.667,0.083 0.6,0.3 -0.575,0.346 0.671,0.03 -0.385,0.55 0.626,-0.245 -0.128,0.66 0.471,-0.479 0.152,0.655 0.236,-0.63 0.404,0.537 -0.04,-0.67 0.588,0.325 -0.31,-0.597 0.67,0.058 -0.526,-0.418 0.635,-0.22 -0.65,-0.168 0.49,-0.459 -0.662,0.11 0.262,-0.618 -0.56,0.37 -0.012,-0.671 -0.362,0.566 z m -1.853,0.407 a 0.2515,0.2515 0 1 0 0,0.503 0.2515,0.2515 0 0 0 0,-0.503 z"
     fill="#fefefe"
     id="path21" /><g
     id="g33"><path
       transform="translate(2.117,-256.783)"
       d="M 0,258.9 H 38.1 V 297 H 0 Z"
       clip-path="url(#f)"
       fill="#4d2600"
       stroke="#191919"
       stroke-width="3.969"
       id="path22" /><path
       clip-path="url(#g)"
       d="m 43.392,296.47 h -12.7 v -38.1 h 12.7 z"
       transform="rotate(90,163.581,135.007)"
       fill="#c91400"
       stroke="#191919"
       stroke-width="3.969"
       id="path23"
       style="fill:#0a0cf2;fill-opacity:1" /><path
       d="m -4.763,273.187 v -5.82 h 28.575 v 5.82 z"
       clip-path="url(#h)"
       transform="matrix(-1.33333,0,0,-1,33.867,307.584)"
       fill="#d19200"
       stroke="#191919"
       stroke-width="3.437"
       id="path24" /><path
       clip-path="url(#i)"
       d="m -1.587,297 h -5.821 v -38.1 h 5.82 z"
       transform="rotate(90,128.656,170.46)"
       fill="#763800"
       stroke="#191919"
       stroke-width="3.969"
       id="path25" /><path
       transform="translate(9.525,-256.783)"
       d="m -1.587,297 h -5.821 v -38.1 h 5.82 z"
       clip-path="url(#i)"
       fill="#763800"
       stroke="#191919"
       stroke-width="3.969"
       id="path26" /><path
       transform="translate(-3.175,-256.253)"
       d="m 43.392,296.47 h -12.7 v -38.1 h 12.7 z"
       clip-path="url(#g)"
       fill="#763800"
       stroke="#191919"
       stroke-width="3.969"
       id="path27" /><path
       transform="translate(1.588,2.646)"
       clip-path="url(#j)"
       d="M 39.158,6.35 V -1.058 H 31.75 L 30.692,0 38.1,7.408 Z"
       fill="#dea217"
       stroke="#191919"
       stroke-width="3.175"
       id="path28" /><path
       d="M 39.158,6.35 V -1.058 H 31.75 L 30.692,0 38.1,7.408 Z"
       clip-path="url(#j)"
       transform="rotate(90,19.05,20.638)"
       fill="#dea217"
       stroke="#191919"
       stroke-width="3.175"
       id="path29" /><path
       d="M 39.158,6.35 V -1.058 H 31.75 L 30.692,0 38.1,7.408 Z"
       clip-path="url(#j)"
       transform="rotate(180,20.373,19.844)"
       fill="#dea217"
       stroke="#191919"
       stroke-width="3.175"
       id="path30" /><path
       transform="rotate(-90,21.696,19.05)"
       clip-path="url(#j)"
       d="M 39.158,6.35 V -1.058 H 31.75 L 30.692,0 38.1,7.408 Z"
       fill="#dea217"
       stroke="#191919"
       stroke-width="3.175"
       id="path31" /><path
       clip-path="url(#k)"
       d="m -45.534,209.35 29.33,16.933 v 33.867 l -29.33,16.933 -29.33,-16.933 v -33.867 z"
       transform="matrix(-0.2216701,-0.12797613,0.12797613,-0.2216701,-23.49123,72.647764)"
       fill-opacity="0.502"
       stroke="#ffffff"
       stroke-width="4.011"
       id="path32" /><path
       d="m 17.73,20.23 a 4.332,4.332 0 0 0 -4.333,4.332 4.332,4.332 0 0 0 4.332,4.332 4.332,4.332 0 0 0 4.332,-4.332 4.332,4.332 0 0 0 -4.332,-4.332 z m -1.954,1.455 4.362,2.5 c 0,0 0.183,0.14 0.267,0.225 0.386,0.386 0.58,0.892 0.58,1.398 a 1.976,1.976 0 0 1 -3.473,1.29 l -2.252,-3.053 1.034,0.493 -1.513,-1.822 1.57,0.792 -1.58,-1.794 1.779,1.02 z m 2.025,1.582 a 0.4165,0.4165 0 1 0 0,0.833 0.4165,0.4165 0 0 0 0,-0.833 z m -1.2,0.521 a 0.176,0.176 0 1 0 0,0.352 0.176,0.176 0 0 0 0,-0.352 z m 2.233,0.569 -0.1,0.664 -0.507,-0.44 0.179,0.647 -0.643,-0.196 0.427,0.519 -0.667,0.082 0.601,0.3 -0.575,0.347 0.67,0.03 -0.384,0.55 0.625,-0.245 -0.128,0.659 0.472,-0.478 0.151,0.654 0.236,-0.629 0.405,0.536 -0.04,-0.67 0.587,0.325 -0.31,-0.596 0.67,0.058 -0.525,-0.419 0.634,-0.219 -0.65,-0.169 0.491,-0.458 -0.662,0.11 0.262,-0.618 -0.56,0.37 -0.013,-0.672 -0.361,0.566 z m -1.853,0.406 a 0.2515,0.2515 0 1 0 0,0.503 0.2515,0.2515 0 0 0 0,-0.503 z"
       fill="#fefefe"
       id="path33" /></g><g
     stroke="#000000"
     id="g50"><g
       id="g37"><path
         d="M 0,0 10.054,10.054 H 32.28 L 42.333,0 Z"
         clip-path="url(#l)"
         fill="#595959"
         stroke-width="2.117"
         id="path34" /><circle
         transform="matrix(0,1,1,0,0,0)"
         cx="2.6459999"
         cy="6.5359998"
         fill="#363636"
         stroke-width="0.367"
         stroke-linecap="round"
         id="ellipse34"
         r="0.52899998" /><circle
         cy="11.113"
         cx="6.8790002"
         transform="matrix(0,1,1,0,0,0)"
         fill="#363636"
         stroke-width="0.367"
         stroke-linecap="round"
         id="ellipse35"
         r="0.52899998" /><circle
         cy="-35.797001"
         cx="2.6459999"
         transform="rotate(90)"
         fill="#363636"
         stroke-width="0.367"
         stroke-linecap="round"
         id="ellipse36"
         r="0.52899998" /><circle
         transform="rotate(90)"
         cx="6.8790002"
         cy="-31.221001"
         fill="#363636"
         stroke-width="0.367"
         stroke-linecap="round"
         id="ellipse37"
         r="0.52899998" /></g><g
       transform="rotate(90,21.167,21.167)"
       id="g41"><path
         clip-path="url(#l)"
         d="M 0,0 10.054,10.054 H 32.28 L 42.333,0 Z"
         fill="#595959"
         stroke-width="2.117"
         id="path37" /><circle
         cy="6.5359998"
         cx="2.6459999"
         transform="matrix(0,1,1,0,0,0)"
         fill="#363636"
         stroke-width="0.367"
         stroke-linecap="round"
         id="ellipse38"
         r="0.52899998" /><circle
         transform="matrix(0,1,1,0,0,0)"
         cx="6.8790002"
         cy="11.113"
         fill="#363636"
         stroke-width="0.367"
         stroke-linecap="round"
         id="ellipse39"
         r="0.52899998" /><circle
         transform="rotate(90)"
         cx="2.6459999"
         cy="-35.797001"
         fill="#363636"
         stroke-width="0.367"
         stroke-linecap="round"
         id="ellipse40"
         r="0.52899998" /><circle
         cy="-31.221001"
         cx="6.8790002"
         transform="rotate(90)"
         fill="#363636"
         stroke-width="0.367"
         stroke-linecap="round"
         id="ellipse41"
         r="0.52899998" /></g><g
       transform="rotate(180,21.167,21.167)"
       id="g45"><path
         d="M 0,0 10.054,10.054 H 32.28 L 42.333,0 Z"
         clip-path="url(#l)"
         fill="#595959"
         stroke-width="2.117"
         id="path41" /><circle
         transform="matrix(0,1,1,0,0,0)"
         cx="2.6459999"
         cy="6.5359998"
         fill="#363636"
         stroke-width="0.367"
         stroke-linecap="round"
         id="ellipse42"
         r="0.52899998" /><circle
         cy="11.113"
         cx="6.8790002"
         transform="matrix(0,1,1,0,0,0)"
         fill="#363636"
         stroke-width="0.367"
         stroke-linecap="round"
         id="ellipse43"
         r="0.52899998" /><circle
         cy="-35.797001"
         cx="2.6459999"
         transform="rotate(90)"
         fill="#363636"
         stroke-width="0.367"
         stroke-linecap="round"
         id="ellipse44"
         r="0.52899998" /><circle
         transform="rotate(90)"
         cx="6.8790002"
         cy="-31.221001"
         fill="#363636"
         stroke-width="0.367"
         stroke-linecap="round"
         id="ellipse45"
         r="0.52899998" /></g><g
       transform="rotate(-90,21.167,21.167)"
       id="g49"><path
         clip-path="url(#l)"
         d="M 0,0 10.054,10.054 H 32.28 L 42.333,0 Z"
         fill="#595959"
         stroke-width="2.117"
         id="path45" /><circle
         cy="6.5359998"
         cx="2.6459999"
         transform="matrix(0,1,1,0,0,0)"
         fill="#363636"
         stroke-width="0.367"
         stroke-linecap="round"
         id="ellipse46"
         r="0.52899998" /><circle
         transform="matrix(0,1,1,0,0,0)"
         cx="6.8790002"
         cy="11.113"
         fill="#363636"
         stroke-width="0.367"
         stroke-linecap="round"
         id="ellipse47"
         r="0.52899998" /><circle
         transform="rotate(90)"
         cx="2.6459999"
         cy="-35.797001"
         fill="#363636"
         stroke-width="0.367"
         stroke-linecap="round"
         id="ellipse48"
         r="0.52899998" /><circle
         cy="-31.221001"
         cx="6.8790002"
         transform="rotate(90)"
         fill="#363636"
         stroke-width="0.367"
         stroke-linecap="round"
         id="ellipse49"
         r="0.52899998" /></g></g><rect
     y="3.704"
     x="17.462"
     height="2.1170001"
     width="7.408"
     clip-path="url(#m)"
     rx="1.058"
     ry="1.058"
     fill="#2b2b2b"
     stroke="#000000"
     stroke-width="1.058"
     stroke-linecap="round"
     stroke-miterlimit="10"
     id="rect50" /><rect
     ry="1.058"
     rx="1.058"
     clip-path="url(#m)"
     width="7.408"
     height="2.1170001"
     x="17.462"
     y="3.704"
     transform="translate(0,32.808)"
     fill="#2b2b2b"
     stroke="#000000"
     stroke-width="1.058"
     stroke-linecap="round"
     stroke-miterlimit="10"
     id="rect51" /><rect
     style="fill:#261300;fill-opacity:1;stroke-width:0.264581;paint-order:stroke markers fill"
     id="rect52"
     width="9.4859295"
     height="9.4859295"
     x="13.131574"
     y="19.788048" /><path
     d="m 14.238636,20.407713 a 1.1695735,1.1695735 0 0 0 -1.172139,1.17214 v 5.860779 a 1.1695735,1.1695735 0 0 0 1.172139,1.17214 h 7.032841 a 1.1695735,1.1695735 0 0 0 1.172138,-1.17214 v -5.860779 a 1.1695735,1.1695735 0 0 0 -1.172138,-1.17214 z m 2.34428,1.17214 h 2.344281 v 1.758249 h 1.758249 v 2.344281 h -1.758249 v 1.758249 h -2.344281 v -1.758249 h -1.75825 v -2.344281 h 1.75825 z"
     fill="#ffffff"
     id="path1-8"
     style="stroke-width:0.0802011" /></svg>
