<?xml version="1.0" encoding="UTF-8" standalone="no"?>
<svg
   width="160"
   height="160"
   viewBox="0 0 42.333 42.333"
   version="1.1"
   id="svg37"
   xml:space="preserve"
   xmlns="http://www.w3.org/2000/svg"
   xmlns:svg="http://www.w3.org/2000/svg"><defs
     id="defs8"><linearGradient
       id="swatch44"><stop
         style="stop-color:#000000;stop-opacity:1;"
         offset="0"
         id="stop44" /></linearGradient><clipPath
       id="a"><path
         d="M 0,258.9 H 38.1 V 297 H 0 Z"
         fill="#4d2600"
         stroke-width="0.529"
         id="path1" /></clipPath><clipPath
       id="c"><path
         d="m -4.763,273.187 v -5.82 h 28.575 v 5.82 z"
         fill="#4d2600"
         stroke-width="3.532"
         id="path2" /></clipPath><clipPath
       id="b"><path
         d="m 43.392,296.47 h -12.7 v -38.1 h 12.7 z"
         fill="#4d2600"
         stroke-width="6.024"
         id="path3" /></clipPath><clipPath
       id="d"><path
         d="m -1.587,297 h -5.821 v -38.1 h 5.82 z"
         fill="#4d2600"
         stroke-width="4.078"
         id="path4" /></clipPath><clipPath
       id="e"><path
         d="m -45.534,209.35 29.33,16.933 v 33.867 l -29.33,16.933 -29.33,-16.933 v -33.867 z"
         fill-opacity="0.506"
         stroke="#ffffff"
         stroke-width="2.117"
         stroke-opacity="0.502"
         id="path5" /></clipPath><clipPath
       id="f"><path
         d="M 0,0 10.054,10.054 H 32.28 L 42.333,0 Z"
         fill="#595959"
         stroke-width="0.286"
         id="path6" /></clipPath><clipPath
       id="g"><path
         fill="#595959"
         stroke-width="1.588"
         stroke-linecap="round"
         stroke-miterlimit="10"
         d="m 8.467,8.467 h 25.4 v 25.4 h -25.4 z"
         id="path7" /></clipPath><clipPath
       id="h"><path
         fill="#2b2b2b"
         stroke-width="3.757"
         stroke-linecap="round"
         stroke-miterlimit="10"
         d="M 17.462,3.704 H 24.87 V 5.821 H 17.462 Z"
         id="path8" /></clipPath></defs><path
     transform="translate(2.116,-256.784)"
     d="M 0,258.9 H 38.1 V 297 H 0 Z"
     clip-path="url(#a)"
     fill="#4d2600"
     stroke="#191919"
     stroke-width="3.969"
     id="path9" /><path
     clip-path="url(#b)"
     d="m 43.392,296.47 h -12.7 v -38.1 h 12.7 z"
     transform="rotate(90,163.581,135.006)"
     fill="#c91400"
     stroke="#191919"
     stroke-width="3.969"
     id="path10" /><path
     d="m -4.763,273.187 v -5.82 h 28.575 v 5.82 z"
     clip-path="url(#c)"
     transform="matrix(-1.33333,0,0,-1,33.866,307.583)"
     fill="#d19200"
     stroke="#191919"
     stroke-width="3.437"
     id="path11" /><path
     clip-path="url(#d)"
     d="m -1.587,297 h -5.821 v -38.1 h 5.82 z"
     transform="rotate(90,128.656,170.46)"
     fill="#763800"
     stroke="#191919"
     stroke-width="3.969"
     id="path12" /><path
     transform="translate(9.524,-256.784)"
     d="m -1.587,297 h -5.821 v -38.1 h 5.82 z"
     clip-path="url(#d)"
     fill="#763800"
     stroke="#191919"
     stroke-width="3.969"
     id="path13" /><path
     transform="translate(-3.176,-256.254)"
     d="m 43.392,296.47 h -12.7 v -38.1 h 12.7 z"
     clip-path="url(#b)"
     fill="#763800"
     stroke="#191919"
     stroke-width="3.969"
     id="path14" /><path
     clip-path="url(#e)"
     d="m -45.534,209.35 29.33,16.933 v 33.867 l -29.33,16.933 -29.33,-16.933 v -33.867 z"
     transform="matrix(-0.2216701,-0.12797613,0.12797613,-0.2216701,-23.49123,72.647764)"
     fill-opacity="0.502"
     stroke="#ffffff"
     stroke-width="4.011"
     id="path15" /><path
     d="m 17.729,20.23 a 4.332,4.332 0 0 0 -4.332,4.331 4.332,4.332 0 0 0 4.332,4.332 4.332,4.332 0 0 0 4.332,-4.332 4.332,4.332 0 0 0 -4.332,-4.332 z m -1.954,1.454 4.362,2.501 c 0,0 0.184,0.14 0.268,0.224 0.386,0.386 0.579,0.892 0.579,1.398 a 1.976,1.976 0 0 1 -3.473,1.29 l -2.251,-3.053 1.033,0.494 -1.513,-1.822 1.57,0.792 -1.579,-1.794 1.778,1.019 z m 2.025,1.582 a 0.4165,0.4165 0 1 0 0,0.833 0.4165,0.4165 0 0 0 0,-0.833 z m -1.2,0.522 a 0.176,0.176 0 1 0 0,0.352 0.176,0.176 0 0 0 0,-0.352 z m 2.234,0.568 -0.1,0.664 -0.507,-0.44 0.178,0.647 -0.642,-0.195 0.427,0.518 -0.667,0.083 0.6,0.3 -0.575,0.346 0.671,0.03 -0.385,0.55 0.626,-0.245 -0.128,0.66 0.471,-0.479 0.152,0.655 0.236,-0.63 0.404,0.537 -0.04,-0.67 0.588,0.325 -0.31,-0.597 0.67,0.058 -0.526,-0.418 0.635,-0.22 -0.65,-0.168 0.49,-0.459 -0.662,0.11 0.262,-0.618 -0.56,0.37 -0.012,-0.671 -0.362,0.566 z m -1.853,0.407 a 0.2515,0.2515 0 1 0 0,0.503 0.2515,0.2515 0 0 0 0,-0.503 z"
     fill="#fefefe"
     id="path16" /><g
     stroke="#000000"
     id="g20"><path
       clip-path="url(#f)"
       d="M 0,0 10.054,10.054 H 32.28 L 42.333,0 Z"
       fill="#595959"
       stroke-width="2.117"
       id="path17" /><circle
       cy="6.5359998"
       cx="2.6459999"
       transform="matrix(0,1,1,0,0,0)"
       fill="#363636"
       stroke-width="0.367"
       stroke-linecap="round"
       id="ellipse17"
       r="0.52899998" /><circle
       transform="matrix(0,1,1,0,0,0)"
       cx="6.8790002"
       cy="11.113"
       fill="#363636"
       stroke-width="0.367"
       stroke-linecap="round"
       id="ellipse18"
       r="0.52899998" /><circle
       transform="rotate(90)"
       cx="2.6459999"
       cy="-35.797001"
       fill="#363636"
       stroke-width="0.367"
       stroke-linecap="round"
       id="ellipse19"
       r="0.52899998" /><circle
       cy="-31.221001"
       cx="6.8790002"
       transform="rotate(90)"
       fill="#363636"
       stroke-width="0.367"
       stroke-linecap="round"
       id="ellipse20"
       r="0.52899998" /></g><g
     transform="rotate(90,21.167,21.167)"
     stroke="#000000"
     id="g24"><path
       d="M 0,0 10.054,10.054 H 32.28 L 42.333,0 Z"
       clip-path="url(#f)"
       fill="#595959"
       stroke-width="2.117"
       id="path20" /><circle
       transform="matrix(0,1,1,0,0,0)"
       cx="2.6459999"
       cy="6.5359998"
       fill="#363636"
       stroke-width="0.367"
       stroke-linecap="round"
       id="ellipse21"
       r="0.52899998" /><circle
       cy="11.113"
       cx="6.8790002"
       transform="matrix(0,1,1,0,0,0)"
       fill="#363636"
       stroke-width="0.367"
       stroke-linecap="round"
       id="ellipse22"
       r="0.52899998" /><circle
       cy="-35.797001"
       cx="2.6459999"
       transform="rotate(90)"
       fill="#363636"
       stroke-width="0.367"
       stroke-linecap="round"
       id="ellipse23"
       r="0.52899998" /><circle
       transform="rotate(90)"
       cx="6.8790002"
       cy="-31.221001"
       fill="#363636"
       stroke-width="0.367"
       stroke-linecap="round"
       id="ellipse24"
       r="0.52899998" /></g><g
     transform="rotate(180,21.167,21.167)"
     stroke="#000000"
     id="g28"><path
       clip-path="url(#f)"
       d="M 0,0 10.054,10.054 H 32.28 L 42.333,0 Z"
       fill="#595959"
       stroke-width="2.117"
       id="path24" /><circle
       cy="6.5359998"
       cx="2.6459999"
       transform="matrix(0,1,1,0,0,0)"
       fill="#363636"
       stroke-width="0.367"
       stroke-linecap="round"
       id="ellipse25"
       r="0.52899998" /><circle
       transform="matrix(0,1,1,0,0,0)"
       cx="6.8790002"
       cy="11.113"
       fill="#363636"
       stroke-width="0.367"
       stroke-linecap="round"
       id="ellipse26"
       r="0.52899998" /><circle
       transform="rotate(90)"
       cx="2.6459999"
       cy="-35.797001"
       fill="#363636"
       stroke-width="0.367"
       stroke-linecap="round"
       id="ellipse27"
       r="0.52899998" /><circle
       cy="-31.221001"
       cx="6.8790002"
       transform="rotate(90)"
       fill="#363636"
       stroke-width="0.367"
       stroke-linecap="round"
       id="ellipse28"
       r="0.52899998" /></g><g
     transform="rotate(-90,21.167,21.167)"
     stroke="#000000"
     id="g32"><path
       d="M 0,0 10.054,10.054 H 32.28 L 42.333,0 Z"
       clip-path="url(#f)"
       fill="#595959"
       stroke-width="2.117"
       id="path28" /><circle
       transform="matrix(0,1,1,0,0,0)"
       cx="2.6459999"
       cy="6.5359998"
       fill="#363636"
       stroke-width="0.367"
       stroke-linecap="round"
       id="ellipse29"
       r="0.52899998" /><circle
       cy="11.113"
       cx="6.8790002"
       transform="matrix(0,1,1,0,0,0)"
       fill="#363636"
       stroke-width="0.367"
       stroke-linecap="round"
       id="ellipse30"
       r="0.52899998" /><circle
       cy="-35.797001"
       cx="2.6459999"
       transform="rotate(90)"
       fill="#363636"
       stroke-width="0.367"
       stroke-linecap="round"
       id="ellipse31"
       r="0.52899998" /><circle
       transform="rotate(90)"
       cx="6.8790002"
       cy="-31.221001"
       fill="#363636"
       stroke-width="0.367"
       stroke-linecap="round"
       id="ellipse32"
       r="0.52899998" /></g><path
     clip-path="url(#g)"
     fill="#646464"
     stroke="#000000"
     stroke-width="3.175"
     stroke-linecap="round"
     stroke-miterlimit="10"
     d="m 8.467,8.467 h 25.4 v 25.4 h -25.4 z"
     id="path32" /><circle
     cx="11.112"
     cy="11.113"
     fill="#363636"
     stroke="#000000"
     stroke-width="0.367"
     stroke-linecap="round"
     id="ellipse33"
     r="0.52899998" /><circle
     cy="11.113"
     cx="31.221001"
     fill="#363636"
     stroke="#000000"
     stroke-width="0.367"
     stroke-linecap="round"
     id="ellipse34"
     r="0.52899998" /><circle
     cy="31.221001"
     cx="11.112"
     fill="#363636"
     stroke="#000000"
     stroke-width="0.367"
     stroke-linecap="round"
     id="ellipse35"
     r="0.52899998" /><circle
     cx="31.221001"
     cy="31.221001"
     fill="#363636"
     stroke="#000000"
     stroke-width="0.367"
     stroke-linecap="round"
     id="ellipse36"
     r="0.52899998" /><rect
     y="3.704"
     x="17.462"
     height="2.1170001"
     width="7.408"
     clip-path="url(#h)"
     rx="1.058"
     ry="1.058"
     fill="#2b2b2b"
     stroke="#000000"
     stroke-width="1.058"
     stroke-linecap="round"
     stroke-miterlimit="10"
     id="rect36" /><rect
     ry="1.058"
     rx="1.058"
     clip-path="url(#h)"
     width="7.408"
     height="2.1170001"
     x="17.462"
     y="3.704"
     transform="translate(0,32.808)"
     fill="#2b2b2b"
     stroke="#000000"
     stroke-width="1.058"
     stroke-linecap="round"
     stroke-miterlimit="10"
     id="rect37" /><circle
     style="fill:#000c87;fill-opacity:0.707143;stroke:none;stroke-width:0.264581;paint-order:stroke markers fill"
     id="path44"
     cx="21.220913"
     cy="21.293463"
     r="8.6697407" /><path
     d="m 17.31927,16.4483 a 1.3789871,1.3789871 0 0 0 -1.382014,1.382013 v 6.91016 a 1.3789871,1.3789871 0 0 0 1.382014,1.382013 h 8.292079 a 1.3789871,1.3789871 0 0 0 1.382012,-1.382013 v -6.91016 A 1.3789871,1.3789871 0 0 0 25.611349,16.4483 Z m 2.764025,1.382013 h 2.764027 v 2.073066 h 2.073068 v 2.764027 h -2.073068 v 2.073067 h -2.764027 v -2.073067 h -2.073066 v -2.764027 h 2.073066 z"
     fill="#ffffff"
     id="path1-0"
     style="fill:#646464;fill-opacity:1;stroke-width:0.0945613" /><path
     d="m 18.851314,18.235022 c -0.47177,-0.001 -0.854476,0.38167 -0.853439,0.85344 v 4.267254 c -0.001,0.47177 0.381669,0.854475 0.853439,0.853439 1.510964,1.763231 3.222751,1.71906 5.120636,0 0.47177,0.001 0.854474,-0.381669 0.853438,-0.853439 0.227289,-1.331503 0.256024,-2.742427 0,-4.267254 0.001,-0.47177 -0.381668,-0.854476 -0.853438,-0.85344 -1.65678,-1.803558 -3.367149,-1.677912 -5.120636,0 z m 1.706878,0.85344 h 1.706879 v 1.280187 h 1.280188 v 1.706879 h -1.280188 v 1.280188 h -1.706879 v -1.280188 h -1.280187 v -1.706879 h 1.280187 z"
     fill="#ffffff"
     id="path1-0-4"
     style="fill:#646464;fill-opacity:0.178571;stroke-width:0.0583948" /></svg>
