<svg width="149" height="160" xmlns="http://www.w3.org/2000/svg" fill="none" viewBox="0 0 149 160"><path fill="url(#a)" fill-rule="evenodd" d="M33.7 104.2a37 37 0 0 1-4.6-8.8q-1.8-4.6-2.2-9.6l-.2-2.2a37 37 0 0 1-.2-7.6q0-1.7.4-3.5a12 12 0 0 1-.9-3.1v.2a10 10 0 0 1-.8-5v.3-.3l-.8-.7.7.5a9 9 0 0 1 .4-4.4 8 8 0 0 1 2-4.6v.2a12 12 0 0 1 2.7-3.4l.2-1 2.2-3.4a15 15 0 0 1 6-4.3 12 12 0 0 1 4.1-2l1.4-2.4 2.9-2.8 3.7-2.4a26 26 0 0 1 11-2.5A33 33 0 0 1 77.5 35q6.6.3 11.8 4.4l1.3 1.3L93 42a49 49 0 0 1 21.5 22q1.3 2.3 2.4 5l2.2-2.8h.2l-2 3.6 1.1 3.3.4 1.4a8 8 0 0 0-.1-4.2q.8 2.4.3 4.6v.2-.6l.1.2.7-5.6q.2-3.8-.2-7.4 0-1-.2-1.9v-.3l-.2-1.2V58l-.1-1.4-.4-2q.7 1.4.6 3.4v.2l.1 1.5.1.7.4 1.8q.7 3.8.6 7.5t-.8 7.5l.3 2.5q.3 1.6.4 3.3.3 2.5.2 5.1a22 22 0 0 1-1 5 45 45 0 0 1-3.3 9.5l-4.5 7.4A31 31 0 0 1 92 121.8l-.6.3a78 78 0 0 1-7.4 3.1 25 25 0 0 1-7.8 1.3c-5.6.2-10.8-2-15.2-4.7l-4.1-2.9c-6-1.4-11.8-3.8-16.5-7.6a34 34 0 0 1-4-3.8 41 41 0 0 1-7.6-8.4h.2q2.1 2.7 4.7 5m66.4-49 1.2 1.2.1.3-1.3-1zm8.6 12 .3.5-.6 2.2-1-.6.7.8v.1l.1.1-1.1 3-.1-.7a34 34 0 0 0-2-7.8l.6-2.8zm-6.8-5.5-.1-.2-.4 1-1.1 2.4.8 1.4.3-1.7zm.8 1.6-.4-.8-.2 2.3v.5l-.3 2.3.6 1.2v-1q.4-2.2.3-4.5m1 2.6-.1-.5v1.2zm1.8 10.6a53 53 0 0 0-1-8l-.1-.4-.7 3.7a34 34 0 0 1 1.5 5.3zm.2 3.8v-.4zm1.7-3.9v.4l4-2.4a35 35 0 0 0-2-5.7l-.4 2.1.2.4q.8 1.2 0 2.4-.6 1.5-1.8 2.8m.1 2.5V86h.1l1.5-2.7 2.7-5.3.3-.6-.3-1.3zM105.8 89v-1.2l-.5 1.9v.3zm1.7-.4 1-1.8a73 73 0 0 0 3.8-8l.3 2.8a55 55 0 0 1-2.4 7.1l-2.9 2.5zm-1.9 3.7v-.7l-.6 1.1zm1.5.5 2-1.5-.1.3-2.3 4zm-2.1 4.7.5-3.6-2 1.1-.6.8-.5 1-2 3.3h.2zm.7 2 1.3-1.8 1.8-1.5 1.2-1a26 26 0 0 1-3 5.1l-2.8 3.3zm-3.2 5.5q.8-1.5 1.4-3.1l-3 3.4q-1.1 1.1-2.4 2.1h.1q2.1-.9 3.9-2.4m-4.2 6.5 1.2-.8 2.4-1.5 2.1-1 1.6-.8-.4.5-.6.5a46 46 0 0 1-8.4 5l-.5.3zm-7.4 4a27 27 0 0 0 4.4-2.5l-1.5.5a19 19 0 0 1-6.1 1.6h.1l-.4.2-.2.1h3.6zm-7.1 2 1.8-.3 2.2-.6-2.3-.1zm-5 .4h2l1.9-.2 2-1.2-1.9-.2-1.1.5zm-10.2-1.4 3.3.8a22 22 0 0 0 4.4-.6l3-1-1.2-.1q-3.4 0-7-.5a39 39 0 0 1-9.6-2.3h-.2l-1 .1a45 45 0 0 0 6.2 2.9l1 .3h-.3v-.3zm5 2.6H72q-2.5.3-5 .2l-4-.2q5.8.8 11.5.2zm17-2.5a32 32 0 0 1-4.8 1.7l-3.5.7-1.4.2-4.1.2h-.7l2.5.8a28 28 0 0 0 7.8 1.1l5.2-1.5a15 15 0 0 0 5-2.4l.5-.2 2-2-.7.3q-3.7.9-7.4 1zm2.5-1.3 5-.7 2.2-.6 3.6-4.4a50 50 0 0 1-7.5 4.3zm-26.4 2.3-.6-.2a45 45 0 0 1-10.3-5l-1.5-.5-1.5-.8-1.5-.7-2.1-1.2.6 1 2.8 3.8 3.2 1.8 1.2.7h.2a39 39 0 0 0 9.5 1.1M45.5 104l.1.3-2.4-1.3a23 23 0 0 1-4.1-4.9l3.5 2.9zM30 78.7l-.2-.3-1-2.3.8 1.6.2.4zm1 .9.5.7v.7l-.2-.6zm24.6 30.5.3.1 2 1-.8-.2zm45.6-49.6-.6-.9-.8-.9-.7 4.2.5.8q.5-.7.8-1.5l.2-.4zm-1.3-3 1.5 1.6h.2l-1.2-1.7-.4-.3zm-.8.3-.8 3.9-.5-.7-1.1-2-.4-.5.2-3.2q.5.3.9.8zm-2-2.7 1 .8 1.2 1v-.4zm-2.8-1.3-.5-.3-1.7-.6.7 2 1.6 1.4zm10 5-1.3-1.5.2-.6.9 1.2 1.4 1.9zm-5.8-6.2 1 1-2.2-1.6-.6-.4-.9-1-.2-.6q1.8 1 3.2 2.2l.9.8v.5zm1 2.4-1-1.2 1 .9zm-8.7-6.3q1.4.6 2.7 1.4l.5 2.1-2-.7-.5-.1-.4-1-.7-1.8zm1.4.3-.6-.3h.3zm-1.8-.4h.4l-.5-.2zm1.1 0-1.3-.5-.3-.7 1 .6.9.7zm-1.5 0V48l-2.5-.9.7 2.1.3 1.6q1.3 0 2.5.3V51l-.2-.3zl-1.7-.1zm-1.3-1-1.3-.5-.8-1.8 2.7 1.7.5 1zm-1.2 1.8-.8-2.3q-2.9-.9-6-1.3l4.6 3 2.7 2.1zm-6.2-3.5-.6-.1a37 37 0 0 0-6.7-3.2l-1.2-.4q4.8 0 9.7 1l1.6.7 1.4.7 1.2 2.3q-2.7-.7-5.4-1m21 10.8-1-1-1.2-1.6v-.6l2.5 2.6zm3 53.4 2-3a36 36 0 0 0 4.7-4.9q3-3.9 5.1-8.4l1-2.8-.2 1.6a55 55 0 0 1-3.1 9.2l-.5.8.4-1.2-.2.4-1.6 2.9-1.4 2-.7 1a21 21 0 0 1-5.8 4.6l-1.6.7q1-1.4 1.8-2.9m-.2-.5q-1.4 2.4-3.5 4.1a50 50 0 0 0 4-5.2l.6-.5zm-2.8 5.1.4-.5 2.8-1.4q3.4-2 5.8-5l.6-.9.1-.1-1.4 2.5A30 30 0 0 1 94 120.5l.4-.3q1.8-.8 3.4-2a16 16 0 0 0 4.4-3.5M81 123.4a53 53 0 0 0 7.1-1.2h2a28 28 0 0 1-14.3 4 27 27 0 0 1-15-5l-2.8-2h.2l4 .6.4.2a22 22 0 0 0 6.8 2.2q2.8 1 6 1.2 2.8.4 5.6 0m-11.7-2a31 31 0 0 1-4.8-1.4q5.2.2 10.5-.3l3.6 1.2q2.5.7 5.2 1l-3.5.5q-2.6.5-5.2 0-3 0-5.8-1M52.9 115l-.6-.6-3.2-2.6q-3.2-2.5-5.7-5.3a32 32 0 0 1-3.7-4.1l-.4-.4a32 32 0 0 1-9-10.3l.3-.1q2.5 4 6.3 7a39 39 0 0 1-3.3-5.5l4 6 2.4 1.7.2.2h.2v.1l-2-3.7-3.9-4a69 69 0 0 1-4.5-6l-1.9-3.2-.6-1.9q0-1 .3-1.9h.2q-.4.9-.1 1.9.1.6.5 1.2l.2.4 2.2 3 3.5 4.4-1-2.4a18 18 0 0 1-2.3-3.3q-.9-1.5-1.3-3.4.1-.8.4-1.5l-.7-1.4A15 15 0 0 1 28 76l-.3-1.8-.6-1q-.2 1.2-.2 2.5-.2 4.9.6 9.7a45 45 0 0 0 2.3 9.4 36 36 0 0 0 7.3 12.3l.5.3 5.1 3.2 5.4 2.8H48l4.6 1.5zm-9.2-8.8-3.1-3.2 3 1.9 1.1 1 3 2.2 1.7 2.6 1.3 1.7-1.2-1a23 23 0 0 1-5.8-5.2m59.6-45.4-.3-1.3v-.1l2.1 2-.6 2zm-.9 33 2-4.7.5-1.5q.6-3.3.2-6.8l-.1-.7h-.2l-.1.1-.7 1.3v.6a36 36 0 0 1-1.6 11.7m-2.7 7.3-1.8 2.6-1.8 2.6-.5.8H97l3-2.7a41 41 0 0 0 4.4-5.3l-3.1 1.6zm-8.4 9.9-.3.2.5-.2zm-8.6 3.2.5-.2 2.2-1 3-2-2.8-.1-1.6.4-1 .4a27 27 0 0 1-7.5 1.7q2.7 1 5.7.8l1 .2zm5.4-.8-.7.5q.7 0 1.3-.2l.7-.5.9-.7zM48.5 115l3.4 1.5zm49-61.2-1.2-1.4v.7zM77.7 41.1 77 41q-6-1.8-12.2-1.7l-1.2.5q3.3 0 6.6.8v.2a23 23 0 0 0-5.2-.5q2.2.2 4.3.8h.4q4-.1 8 .1m-9.1-3q4.5.2 9 1.5a43 43 0 0 1 5.5 2.1l.6.1-1.7-2-1.5-1.6-2.2-.4a30 30 0 0 0-9.7.3m-7.4 1.2L59 40l-.4.2L56 40a27 27 0 0 1 5-.6m-6.8.5a30 30 0 0 1 7.4-1.4l2-.2a28 28 0 0 1 9.5-3l2-.2-2.5-1q-5.3-2-11-1.9c-5.7.1-7.5.8-10.8 2.5l-3.7 2.2-2.8 2.8-1.1 1.8h.3a33 33 0 0 1 10-1.5zm-.3.6-.1.1h-.1q-3.8 1-7 3.2a15 15 0 0 1 5.4-3.2q-4.3.2-8.3 1.3l-1 .3a20 20 0 0 0-1.5 6q0 1.4.2 2.7l1-1.2A38 38 0 0 1 55.2 41l1.7-.5zm34.8 4.4 4.1 3-1-2-3.3-1.3zm9.8 23 1.3 2.3v.2l.1.2-.2.6a64 64 0 0 1-3.5 9.4h-.5l.1-1.7v-4.8q.8-2 1.4-4.1zm2.8 2 .5 1.3.3-1.3-.6-1.3zm-.7-1.7.3-1-1-1.7v.2zM94.3 58l-1-1 .7 2.5zm.8 5.6-.1.4.2 1.5.4 2.7v-3zm0 15.5v-2.8l-1.6 4-.4.8 1.8-.3zm-.5 4-.2 1-2.2 4.2-.4.2q.4-2.6.3-5.2 1.3 0 2.5-.2M92 91.7l-.6 1-1.3 1.6v-.1l.7-1.7.1-.4 1.5-1.2zm-9 9-1.6.7 3.5-2.9h1zm-4 1.3-1 .2-1.2-.6-.5-.3 3.3-2.3.8-.7 3.5.1-.9.8zm-2.2.4-2.5.3 1.3-1 .5.3zm-14.5-2-1.9-.8h2.5l1.8 1.6-.8-.3zm27-3.4 1.8-2.3 1.8-2-3 4.2zm5.4-10.5.1-.4 2-3.5.6-.1-1 2-1.4 1.7zm-46.3 5.2a45 45 0 0 0 5.6 5.4 28 28 0 0 1-5.1-3l-.6-.4-2.7-4.2 1.6.8zM61 103.2a63 63 0 0 1-6.9-2.9l4.2 3.3 3-.2zm-10.8-4.6a37 37 0 0 0 4.3 4.1v.2l.7.6-2.7-.4-.8-.2q-4-3-7.8-6.6l-.1-.6-.2-.7 2.8 1.5 3 1.2zm14.6 9-1.8-1h.6l4-1 3 .5a36 36 0 0 1-5.8 1.5m-3.9-2.2-.7-.4 3.3-.7 1.7.6-1.8.4zm11.2 4.4-1.4-.3a18 18 0 0 0 4.6-1h.2zm-5.6 0 2.4.9-.6.1-.7-.4zm9.6-1L74 110q3.8.6 7.6.2l-1-.2-3.3-.8-1-.4zm-3.6 2.7q3.6.5 7.2.4a24 24 0 0 1-9.3-.1l-.5-.2 1.1-.4zm18.1-4.3-2 1h-.5q-4.7.3-9.2-.6l-.5-.1 3.8-2.7h1.4q4.3 0 8.7-.8l3.4-1.5-1.3 1.5-3.3 2.8zM101 95.9l-.2.5-3.4 4.2-.5.5q-2 .8-4 1.2a14 14 0 0 0 3.1-2.5q1.4-1.4 2.4-3zm2-12.7q0 5.7-1.6 11.2l-2 .7q2-4 2.8-8.3l.4-3zm-.6-6.3.3 1.8h-.1zm2 1.2-.6.3-.9-4.4.4-1.2 1.4 5zM94 110.7l-2 1-2 1.8 2.8-1.1q3-1 5.2-2.7l.5-.3h-.1l-3.2 1zM43 87.9l2.3 4-2.5-2.1-.1-2zm-3.7-7.6a19 19 0 0 0 2 4.2l-1-3zm-.2-.5 1 1-1.2-4.2-.7-.8q.2 2 .9 4m-1-5.2.6.7-.4-2.6-.2-.1v2.1M36.6 64l3.5-5 1.3-3.9.8-1.8-.1-.5-2 2.7v-.2l-3 5.6q-1.2 2.7-2 5.5zM42 52.8l.1.5.8-1.5-.5.4zm1.6.7a24 24 0 0 1 2.6-4l1-.7a42 42 0 0 0-3.6 4.7m.1-3 .1-.1.1-.1zm6.2-4.6 1.2-.9-2 1.9-1.3.7zm7-3.7.3-.1-2.9 2.1-.6.3zm4.1-1 2.2.5-3.9.8zm1.6-.2 3.5.2-1.9.3-.7-.2zm22.7 8.1 2.1 1.7-.9.1-2.5.5-.7-.4-5.3-2.8a22 22 0 0 0-5-4.5 32 32 0 0 1 3.5 3.8L72.7 45a37 37 0 0 0-6.2-2.8l3.6-.2 4 1.2a44 44 0 0 1 11.2 6m6.2 3.4-1.6-.4 2.3 2.2-.5-1.7zm-6.7-10.9.4.3-.4-.1-2.1-2.6-.7-.8 3.6 1.2 2 .8.3.3q1.3 1.1 2.4 2.5l-5-1.3zM89 52.2l1.5 1.4-1.6-.7zm4.4 6.6-.6-2.2-1.5-1.1-2.3-1.3v.9zM88.8 60q.3-1.4.4-2.9l3.3 3 1.2 1.3a40 40 0 0 1-3.2 8.2l-.3.5a55 55 0 0 0-4-9.5L84.6 58l-1.1-2.7-1.3-1.7 1.7-.1 5 3.6zm0-5.2L87 53.6l1.6.5zm-7-2.5-1.1-.7.6.8zm-2.2-.3-1-1.6a40 40 0 0 0-7.8-2.8l-5.3-1a13 13 0 0 0-3.6 1.4 28 28 0 0 0-5.9 5 54 54 0 0 0-7.2 10.7l.8.7A43 43 0 0 0 57 70l1.3.7 2.5-4.6c2-3.3 5-5.7 8-8l2.3-2a40 40 0 0 1 8.9-3.5zm-17.8-4a11 11 0 0 1 3.3-1.4 24 24 0 0 0-6.7.4l-2 .4-3.3 1.9a25 25 0 0 0-3.3 6.9 27 27 0 0 0-1 6.6 49 49 0 0 1 6.9-10q2.5-3 6-4.8m5.8-3.2c-2.8-.8-6-.5-8.7.4H58a25 25 0 0 1 6.6-2.7h.3l.5-.1a39 39 0 0 1 7.2 3l3 1.9-4.3-1.4a35 35 0 0 0-6.2-1zM54 46.4l-.7.3 2-1.9.7-.3-1 1.2zM50.5 48l-1.1.7 2.1-2.2.8-.4zm-5.8 10.5a50 50 0 0 0-4.1 7v2.7q0 2 .3 4l.6.3 2.4 1 .2-.6.6-1.7a26 26 0 0 1 .2-12.4zm-1.2 16.2-2.4-.9a34 34 0 0 0 1.4 5.3q.4-2.3 1-4.4m.7 7.1-.9-.7a37 37 0 0 0 3 5.5 26 26 0 0 0 5.3 3.1q1.4.6 3 1l-2-2.7a62 62 0 0 1-8.4-6.1m7.2 8.5a25 25 0 0 1-4.1-2.3q.9 1.3 2 2.5 1.1.5 2.4.8l4 .8-.2-.2a18 18 0 0 1-4.1-1.5M43.5 85l2.5 3.9q-.7-.4-1.3-1l-.6-1-1-2.4zm-1.3-2.7-.3-.7zm9.4 9.6-1.6-.4a36 36 0 0 0 9 7.5h3a56 56 0 0 1-6-6.5zm43-26.2L95 71l-3.5 4.4-.6-2.5.6-.9-.6.7 1.3-2.3q1.3-2.4 2.3-5zm1.8 2.6a8 8 0 0 0-1.1-5l2 2.5zm1.3-4.2-2-2.6.3-1.1 1.8 3.4zM68.2 93.7q1.2.5 2.5.8a21 21 0 0 0 7.7 1l1-.5a50 50 0 0 0 7.8-8.5l2-3h-4.8l-3 2Q76.9 88 72 90l-.8.3q-1.7.7-3.5 1.2l-.5.2zm11.7 3-1.2.1-.9.3 1.4.1h.1zm8.7-3.2-2 1-4 1.6-1.3 1.3H85l2.7-2.7zm-23.8 0L63 92.2h-.7zm-6.6-1h-.7v-.1zM56.5 91h1.3l-.1-.3-.2-.1-.2-.1-1.8-1 .6.8zm3.4.2 1.5-.1a32 32 0 0 1-4-3.6q.5 1.6 1.2 3zm-3.7-5 1.1 3.6-2.5-1.4A56 56 0 0 1 48 77.3l-.5-1.2 3.2 1a34 34 0 0 0 5.5 9.2m-4.7-9a31 31 0 0 0 4.3 7.1q-.4-3 0-6zm-1.3-1.6-3.3-1.2-1-3.9 1.8-4.7.4-.9q.2 3.7 1 7.2zM48.8 64q0 4.2 1 8.2L51 76l5 1.6.5-1.9a16 16 0 0 1 1.7-4.6l-1.2-.7a43 43 0 0 1-8.1-6.7zm-.6 0v-1l-1-1.3-1.2-1.4-.4 2q-.4 3.4 0 6.8l1.7-3.4zM46 60.2l1.1 1.5 1.1 1.2q.1-3.5 1.1-7a27 27 0 0 1 2.6-5.8l-1 .6-3 3.4a28 28 0 0 0-2 6.1M57.8 44l-.2.3.5-.4zm21-7a23 23 0 0 0-5.6-.1h-1a33 33 0 0 1 5.8.2h1zm2.9.6-1.2-.3.1.1zm11 5.5a51 51 0 0 1 6.1 4.2 39 39 0 0 0-5.2-2.7l-1-1.5m2.3 4.2 3 1.7a36 36 0 0 1 10.2 10 32 32 0 0 1 3 6.6l1 2.8-2.4-4v-.5.3l-2.7-3-1-1.5.5-2.3-.7 2-1.4-1.9-1-1.3v-.1q0-.7.2-1.2l-.3-.8-.9-1.4q.7 1.5.3 2.8l-2.5-2.4v-.4c-.1-1.7-.7-2.3-1.4-2.7l.2.3q.8.8.9 1.4l-.1 1-.8-.6a19 19 0 0 0-3.3-2.1zm-8.1 28.5 2.6-4.1-.4-1a80 80 0 0 0-3.4-8.2v1-1.1l-.6-1.3a82 82 0 0 0-4-7.2l-4 2.2a20 20 0 0 0-3.7 3.6q-2.2 2.1-4 5l-.7 1.3-.7 1.4-1.4 2.9q-.7 1.7-1 3.6a52 52 0 0 0 9.1 2.4q4.6.8 9.3.1a10 10 0 0 0 2.9-.6M90 74l.5 2.3a57 57 0 0 1-6 5.4h-.9A44 44 0 0 0 90 74m-8.9 7.8a49 49 0 0 0 5-5.6h.1l-2 .5q-4.8.7-9.5 0a40 40 0 0 1-9.3-2.1l-.3-.2-.4 3.2-.2 2.3q7.1 1.4 14.2 1.8zm.8 1.8h.5l-1.8 1.2-1.5 1zm-15.4 6.8.8-.2Q71 89 74.5 87a38 38 0 0 0 5-3.7l-.7-.1a181 181 0 0 1-14.3-2.7l.3 4.2q.4 2.9 1.7 5.6m-.5.2a21 21 0 0 1-1.7-6l-.3-4.2-4.3-1-3.5-.8q-.4 3.5.5 7l.6.6a34 34 0 0 0 5.7 5zm.6 1.2q.3.9.8 1.7l-2.7-1.3zm24.8-7.2A22 22 0 0 1 91 89v.1l-4.3 2.5a58 58 0 0 0 4.4-6.3zm-16.6 16.1 3.5-2.5-1.5-.2-3 1.9zm-3.6 2 2.4-1.1.6-.4-1.1-1-4.4 2.2.6.1 1.2.2zm-11.4 4.2.8.5h-.3l-1.2-.5zm-3.7-1.6 1.7.2-.4-.2zm-22-30a32 32 0 0 0 1 7.1l.6.7q-.4-4.8.5-9.7L35 71.5l-.6 2.2zm4.3 14.3-.1-.4 1.9 1.7 2.1 1.6.1.6a17 17 0 0 1-3.3-2.8zm-1-4.6q2.2 2.4 4.6 4.2v-2a20 20 0 0 1-4.7-8.3q-.2 3 .2 6.1m6.9-3.6-1.2-1.1q.4-2.6 1.2-5.2l1.6.6 1 2.4a63 63 0 0 0 5 8.9 63 63 0 0 1-7.6-5.6m.3-7.6.4-1 .3 1.3zm.6 21-2.1-1.6v.4zm-2.4.7-.3-.9-.5-.3-1.2-.8zm-6.5-23.5v.5l-.6-.8zm6.2-13.5-.2.2zm2 0 .5-.7-.3 1-.2-.2zm6.6 48.2-2.2-1.7 4 1.8 1 .4.8.5-3-.8zm7 3H56h.1l3.4 1.9h4l-4.7-1.8zm60.5-23a41 41 0 0 1-2.3 6.9 36 36 0 0 1-3.6 6.2q.6-1.1 1-2.3v.2a29 29 0 0 0 2.7-8.7l.3-3.3.7-1.5 1-2.6.1 1.7zm1-8.8h-.1v-.1zm-91-8.8.5-.9-2.5-1.8a9 9 0 0 0 .7 2.6l.4 1.5zm.7-.7-.5.8q-.6.8-1 1.7.5 1.5 1.4 2.7a19 19 0 0 0 2 3.6 27 27 0 0 1 0-7.6zm.2-1-3-1.7v-1q-.2-2.2.3-4.2v-.2a7 7 0 0 1 1.6-4l1.2-2-.3 1.1q-.5 4 1 7.8l.4 1-1 2.9zm1.2-2.9L30 67q0 .3-.2.5l1.7.9.4-1.6zm.2-1.6q.6-2.7 2-5-1.4 2.5-1.9 5.2l1.1 2.5.7-1.8A34 34 0 0 1 38 56l.8-1.5 2.9-3.6-.3-3q0-2.7 1.1-5.6-1.8.6-3.4 1.6a15 15 0 0 0-5.6 4l-2.2 3.4v.1a32 32 0 0 1 7.2-4.9l.2.3a37 37 0 0 0-6.9 5.4l-1 .7-.4 2.2c-.6 2.4 0 5 .8 7.5zm35.3 49.7-3.7.4a41 41 0 0 0 8.6 2.2q1.9.3 4 .3h1.4a67 67 0 0 1-8-2.3zM110 92l-1 2.1 1.4-1.2v.2l.8-1.2q.6-1.8.9-3.7l-.8.9zm3.2-15.5q0 .8.2 1.5l.2-1.5v-1.1zm.7 4-.3 1.4v2.9-.1zM33.1 69l-.9-1.7-.3 1.3zm-.5 4.9v-1.4l.3-2.3-.7-.4-.4-.2a25 25 0 0 0 0 7.1l.7-2.6zm.8-6.4.3-1.3a35 35 0 0 1 2-6.1l1-2a29 29 0 0 0-3.4 6l-.7 1.8zm50 25.8 1.4-2-3 2.7 1-.5zM94 74.4l-2.3 2.7.2 2 2-4.2zm-7 7.2 4-3.6.2 2.4-.3.5-.1.2-.2.2-2.3.2zM68.8 95.7a70 70 0 0 1-8-3.2h-1.2a31 31 0 0 0 4.8 6.4h.5a41 41 0 0 0 5.8-1l-.2-.2zm-9-.8-1.3-2.3h-.7zM35.3 70l1.3.5Q37 67.7 38 65l-.1.2a30 30 0 0 0-2.5 4.9m63.2 10-.6.2a53 53 0 0 0 2.4-6.7q-.2 1.7-.6 3.3l-.5 1.7zm-.9 6.4 2.2-1.9 1.6-1.4v.3l-6.1 9-3.8 4.5H91l2.3-2.8a32 32 0 0 0 4-6.5zm-22 11.3-2.5 1.5-.9-.7q1.8-.3 3.5-.8m-4.4 0 2-.6-1.8-.5-1.9-.6 1.3 1.5zm.1 1 1 .9-5 2.2v-.1L65 99.6h.1zm27.7-15.5.6-1.2 1.3-.4zm9.6-11.7-1.2 3.4.9-1.5q.7-1 .3-2m-8.4 4.2.4-1-.2-1.1v-.2l-.1-.1zm.8 3v.7l-.3.1zm-14 18.6 1.2-1 .5-1 .7-1.7-1.5 1.7-2.1 2.1h.8zM30.2 81l1.6 3.1.5 2-.6-.9a7 7 0 0 1-1.5-3zm34.7 28.9h-.6l1.3.3-.4-.2zm48-34.7.2-.3-.1.2zm1.4-7.5-.2-.9 1.6 3.6-.6.7q0-.7-.2-1.3v-.3.3zm-41.4 39.6-3.3 1q2.4.1 4.5-.4zm3.3-1.5-.7.3-.2.1 1.8.8 4-2.1h-1.3q-1.1.5-2.3.7zm5.3-.6-3.8 2 .3.1zm3.2-2q3 0 6-.6a14 14 0 0 0 4.8-3.2l1.8-2.3-2.5.5-3.5.5-1.1 1a45 45 0 0 1-5.5 4.2m-.4-.2a35 35 0 0 0 6.1-5h-.7l-1.6 1.6zm8.4-6.4 3.2-3.4a87 87 0 0 0 5.4-7.3l-.1 1.1a26 26 0 0 1-3 8.5q-2.7.7-5.5 1.1m-8.8 6.6 3.9-3.7 1.1-1.4h-.8q-1.2 1.7-2.8 3l-2.5 2.2zM64.4 74.2l-.2 3.2-.2 2.3-7.7-2 .5-2.2a13 13 0 0 1 1.4-4.3 51 51 0 0 0 6.2 3m-6-3.4a55 55 0 0 0 6.1 2.7l1.1-3.8 1.5-2.8.7-1.4.7-1.4a39 39 0 0 1 4-5.1q1.7-2.4 4-3.9l.8-.5a37 37 0 0 0-5.7 2.5 27 27 0 0 0-10.6 9L60 68q-.9 1.4-1.6 2.9m57.7.7-.7 1a42 42 0 0 1 .6 6l.1 1.1.3.8 1.4-3-1-3.7zM88.5 52.8l-.1-.6h-2.3zm-5.3 2.5.9 1.8-2.3-3.6zm-2.9-3.9.8 1H81l-.5-.7zm36.2 29.8 1.5-3 .1.7-1.3 4zm-4.6-10 .7 2.3.3-.2-1.2-2.7z" clip-rule="evenodd"/><path fill="url(#b)" fill-rule="evenodd" d="M118.5 140.5a58 58 0 0 1-13 8.1 52 52 0 0 1-14.6 4.6l-3.5.6c-3.9.6-7.7 1.3-11.7 1.1q-2.7.1-5.5-.2a18 18 0 0 1-4.8 1.7h.3c-2.1 1.5-5 1.8-7.4 1.9h.2l-.4.1-1 1.2.6-1q-3.6.6-6.7-.3-4.2 0-7.4-2.5h.3a18 18 0 0 1-5.6-3.7l-1.5-.3-5.6-3a23 23 0 0 1-7.4-8.7 19 19 0 0 1-3.5-6.3l-4-1.8-4.7-4.1-4-5.5a41 41 0 0 1-5.4-17A51 51 0 0 1 4 87.6a32 32 0 0 1 2-6.8A31 31 0 0 1 11.5 62l1.9-2.3L15 56a76 76 0 0 1 32-36.2 63 63 0 0 1 7.2-4.4l-4.4-3v-.3q3 1.2 5.7 2.7l5-2.2 2.2-.8a12 12 0 0 0-6.4.8 12 12 0 0 1 7-1l.3-.1-.6-.1h-.3.2a77 77 0 0 0-8.8-.5A66 66 0 0 0 42.6 12l-2.8.5h-.5l-1.8.6h-.9l-2 .4-3.2.7a10 10 0 0 1 5.2-1.2h.3l2.4-.4 1-.3 2.8-.8q5.8-1.4 11.5-1.8t11.8.3l3.8-.7 5.1-1q3.8-.8 7.9-.8c4.1 0 5.2.1 7.9.7a70 70 0 0 1 15.2 4.2l12 6A49 49 0 0 1 139 47.9l.6.8a122 122 0 0 1 5.6 11.1 38 38 0 0 1 3 12c1 8.6-1.8 17-5.5 24.3a50 50 0 0 1-4 6.6 63 63 0 0 1-10 26.5 54 54 0 0 1-5.4 6.8 63 63 0 0 1-12 12.7l-.2-.4a55 55 0 0 0 7.4-7.8M34.5 43l1.8-1.9.4-.2-1.5 2.1zm17.7-14.7.8-.5 3.4.7-.9 1.4q.7-.4 1.2-1h.2v-.1l.2-.1q2.4.6 4.7 1.4l-1 .3q-6.3 1.3-12 4l-4.4-.6a106 106 0 0 1 7.8-5.5m-7.8 11.2-.2.2 1.4.5 4 1.4 2.1-1.4L49 40zm2.4-1.5-1.2.8h4.5l3.5.2 1.7-1h-1.5a44 44 0 0 0-7 0m4-1.9-.8.4 1.8-.1-.9-.2zm16.2-4a81 81 0 0 0-12.2 2.6l-.8.3 6 .5a53 53 0 0 1 8-3zm5.8-.7h-.6v.1zm-6.2-2.2h.7l-4.2-6a54 54 0 0 0-8.7 3.8l3.3.4.6-.3q1.8-1.4 3.8-.4 2.3 1 4.5 2.5m3.9-.5q5.4-.6 11-.9h-.2l-4.2-2q-4.2-1.9-8.5-3.6l-1-.3-2 .5a54 54 0 0 1 4.9 6.3m15.9 1.5-1.6.2h-.2l2.8.5h.2l.4.1zm-.8-2.6-3-1.4q-6.3-2.8-12.7-4.9 2-.5 4.2-.8 5.7 1 11.3 2.9l4.1 4.2zm6 2.5h-1l1.7 1zm.6-2.4-2.6-3 .4.3 6.6 3.1zm7.5 2.8-5.6-.4 2 3.1 1.2.7 1.5.7 5.5 2.7-.1-.3zm3.2-1.3-3.1-1.8-2.6-2.8-1.5-1.6a41 41 0 0 1 8.1 4 46 46 0 0 1 5.4 4 51 51 0 0 0-6.3-1.8m8.9 4.3a35 35 0 0 0-5-1.8l5.6 4.2 3.7 3.5v-.3a31 31 0 0 0-4.3-5.6m10.6 5.6-1.4-1.6q-.7-1.4-2.7-3.6l-1.7-3.2-1.5-2.3.8.5 1 .9c3.1 3.8 6.3 7.8 8.7 12.4l.5.8zm7 11.2a42 42 0 0 0-4.3-6.6l1 2.3a30 30 0 0 1 3.2 9.3V55l.3.7.2.3zm4 10.7-.7-2.8-1.2-3.3.2 3.5zm1.3 7.6-.2-2.9-.7-3-2.1-3v3l.9 1.7q1.2 2 2 4.2m-1 16 1-5.3a34 34 0 0 0-1.6-6.8l-1.7-4.3-.2 1.8a55 55 0 0 1 .1 10.8 61 61 0 0 1-2.4 15.2v.3l.3 1.7a70 70 0 0 0 3.7-10l.4-1.5-.2.3-.3-.1zm3.3-8.1v.6l.4 2.2q.7 3.9.8 7.6.3 3.3.2 6.4.5-9-1-18zm-5.9-26a50 50 0 0 1 3.2 7.2q1.1 2.5 1.6 5.3l.5 2.2q.5 3 .7 6.3l.3 1.1.7-4a44 44 0 0 0 1-12.3 68 68 0 0 0-3-7.9 23 23 0 0 0-4.4-7.4l-.4-.7-3.1-2.9.3 1A67 67 0 0 1 131 50zm-2.3-3.8.1.1a62 62 0 0 0-1.7-7.7l-1.1-3.4a74 74 0 0 0-7.3-5.1 78 78 0 0 1 7.5 11.1zm6.6 40.7-.3 1a70 70 0 0 1-6.5 16.5l-.6 2.4-1 2.4-1 2.4-1.6 3.5 1.4-1a60 60 0 0 0 5.6-4.9 40 40 0 0 0 2.4-5.2l1-1.8.1-.4a61 61 0 0 0 .5-14.9M116.8 122l.3-.2-1.7 4a36 36 0 0 1-7 7l4-5.9zm-37.4 27.2-.4.3a15 15 0 0 1-3.5 2l2.3-1.6.7-.3zm1.3-1.6 1-.9 1.2-.1-1 .4zm44.4-41.9.2-.4 1.3-3.2-.2 1.2zM42.8 41l-1.3 1-1.3 1.3q3.3 0 6.6.5L48 43l-2.4-1-.7-.3zm-4.6 2 2.3-2.5.1-.2-2.5 2-.5.7zm.7 1.4 6 .7-1 .8-2.8 2-.8.6-5 .1 1-1.4zm-4 3.4 1-1.6 1.4-2h-.4zm-1.7 4.4-.4.8-.7 2.7 3-1.2 2-2.7zm6.4-16-2 2-1-.2 1.7-1.5 2.9-2.5-1.4 2zm-8.8 9.5 1.6-1.5-2.3 3.5-.6 1-1.4 1.4-.9.3a36 36 0 0 1 3-5.2l1.1-1.4h.8zm3.4-1.7-1.6 1.4 1.2-1.5zm-8.7 14 2-4.3 3.2-1-.9 3.3-.1.8-1.5.7-2.7 1.2zm.3-2-.3.9v-.4zm-.4 2.7v-.5l-.2.7zm0-1.7-.7 2-1.1.7.8-1.5 1-1.6zm0 2.3-.5.3-1 3.8 3-1.3 2.5-.7.2-4-.4.2-.5.2zv2.5zM24 61.6l-.5 2-2.8 1.5 2.4-4.4 1.4-.8zm3 1.6-3.4 1.5q-1 4.5-1.4 9.4l4-7.4 3.1-4.5zm-4.8 10.1v.9A58 58 0 0 0 18 85l-.4 2a95 95 0 0 1 .4-15.3l1-2.5.9-2.3 3.4-2a88 88 0 0 0-1 8.4m14.3-34L35.1 41l-2.3 2.2h-1l3.8-4zm82.6-10.7a38 38 0 0 0-5-2.8 57 57 0 0 0-8.1-6.8 63 63 0 0 0-13.6-7L88 10.7l2.5.3a84 84 0 0 1 14.6 3.8l1.3.5-1.9-.4.6.3q2.5.9 4.8 2.1l3.3 1.9 1.6 1a33 33 0 0 1 9.1 10.9zm-.7.4q3.8 1.8 6.8 5a77 77 0 0 0-8.7-5.7l-.8-.9zm8.2 3.7-.8-.5a28 28 0 0 0-2.6-4.3q-3.5-5-8.4-8.3l-1.4-.9-.3-.2 4 2a46 46 0 0 1 19.4 24.3l-.5-.6a24 24 0 0 0-3.4-5 24 24 0 0 0-6-6.5m16 31.8a83 83 0 0 0-2.7-10.8l-.4-3a43 43 0 0 1 7.9 21.7c.7 8.2-1.7 16.6-5.8 23.8l-2.8 4.5v-.2q.3-3 .4-6.2l.2-.8a35 35 0 0 0 2.7-10.8c1-3 1-6.3 1-9.4a27 27 0 0 0-.5-8.8M140.9 83a48 48 0 0 1-1.6 7.7 105 105 0 0 0-1.7-16.3l1.4-5.7q1-4 1-8.3l1.2 5.4q1.1 4 .7 8.1.4 4.8-1 9.1m-7.8 26.4-.9.9a42 42 0 0 1-3.6 5.3q-3.4 5.3-7.6 9.5a49 49 0 0 1-6 6.2l-.4.8a51 51 0 0 1-15 15l-.2-.4q6-4.4 10-10.5a61 61 0 0 1-8 5.7 113 113 0 0 0 8.9-7l2.3-3.9.2-.3.2-.2v-.2a39 39 0 0 1-5.5 3.6 82 82 0 0 1-5.8 6.5q-4.2 4.2-8.8 7.7l-4.7 3.3q-1.2.7-2.8 1.3-1.6.2-3-.4v-.3q1.3.7 2.9 0a4 4 0 0 0 1.9-1l.5-.3 4.5-3.7q3.4-2.8 6.4-6l-3.6 2a28 28 0 0 1-5 3.9 18 18 0 0 1-5 2.3l-2.4-.4-2.2 1.3a22 22 0 0 1-7.7 3q-.7.6-1.5 1 2 .2 4 .1a80 80 0 0 0 29.3-6.7 56 56 0 0 0 18.2-12.9l.4-.7q2.4-4.1 4.3-8.4l3.8-8.7-.1.3 1.9-7.4zm-12.6 15.3a43 43 0 0 1-4.6 5.2l2.6-4.9v-.1l1.3-1.8 3.3-5 3.8-2.9 2.5-2.2-1.6 2.1q-2.8 5.4-7.3 9.6M43 37.6l-2 .5 2.7-3.5 3.3.8zm51.3-2.7a59 59 0 0 0-7.6-2.5l-2.3-.5a34 34 0 0 0-10.7.5l-1 .2.2.3v.1l2 1 1-.2A56 56 0 0 1 94.4 35m11.6 3.4 4.3 2.6 4.2 2.4 1.2.6v-2l-4.7-4.4a64 64 0 0 0-8.6-6.2l2.8 4.7zm16.3 11.9.4.4-.4-.7zm6.1 12.9-.4-.7-1.8-3.3-3.4-4.4v4.4l1 2.5.6 1.5a42 42 0 0 1 3.5 11.4 22 22 0 0 0 .6-9l.2-1.7zm-1.9-8.2.8 1-.4-2-.9-1-1.2-1.3zm7.2 61.2 1.8-5.4zm-100.8-69-2 2.2 1-.2zM15.5 79.5l-.2 1.2A58 58 0 0 0 14 99.8l.9 1.8a50 50 0 0 1 .5-10.3h.3a35 35 0 0 0-.2 8.1q0-3.4.7-6.7V92q-.7-6.3-.8-12.6M12 94.1Q11.6 87 13.2 80a66 66 0 0 1 2.6-8.8v-1l-3 3-2.1 2.4-.3 3.5A46 46 0 0 0 12 94m2.7 11.3 1.3 3.3.4.7-.2 3.8a43 43 0 0 1-1.5-7.8m1.6 10.7a47 47 0 0 1-3.1-11.4l-.5-3.1a44 44 0 0 1-6-14.3l-.4-3L5 88c-1.8 5.5-2.2 11.6-1.5 17.3s2.1 11.6 5 16.6l3.8 5.4 4.7 4.1q1.5.9 3 1.5v-.6q-3-7.4-3.6-15.3zm1 .3v.3h.1c1.4 3.7 3 7.5 5.8 10.6a23 23 0 0 1-5.6-8q.8 6.5 3 12.7l.6 1.4a31 31 0 0 0 9.6 1.7l4-.7-2-1.4a57 57 0 0 1-14.6-18.6l-1-2.5zM20 62a67 67 0 0 1 4.2-6.8l-3 1.7-1.6 5.3zm34.6-18 3.3-2.3.3-.1.3-.1 1 .2a99 99 0 0 1 15 4.4l.2.8H72q-3.8.1-7.4.5l-6.7-1.6zm2.8-4.5 2-1.1-2.2-.2-1.8 1zm-2.6 1.3-1.6-.3-2.6 1.7.3.1zm-15.1 11-1.4 1.6 3.7-1.3zm8.5-2 .7.2 2.3-.6 4.2-.8q-2.4 0-4.7.4-1.2.2-2.5.8m24-1.7-4.2.2 6.2 2 1.4.5-.6-2.7zm6.3.2 1.6.1 6.8 3 .4.6a37 37 0 0 0-8.1.1zm13.7 3.1 1.6.8 2.6 1.8h-.1l-2.6-.7-.8-.2-2-2.2zm15.2 13 1 2.3-4.8-5-.2-1.6zm2.5 6.2.5 1.6q-.3 1-.8 1.8l-.4 1-4-5-1.2-1.1-.2-5.4 1.3 1.2zm1 3.2.6 3.9-1.5-2 .3-.7zm-1.3 22.8-1.1 3-.3-3.8 2.2-3-.4 1.3zM101 55l-3.7-2.5-3.4-2.6 7 4.2zm-17-7.2-.6-.1-5.6-2.6-.3-1 3.2 1.3 3 2zm13.6 71.3a69 69 0 0 0 7.8-9.4 44 44 0 0 1-4.2 8.3l-.5 1-6.2 4.7 1-2.6zm16.3-20.9q-1.5 5.6-3.7 11a80 80 0 0 0 4.7-6.9l-.8-4.7zm-5.9 17.3q3.2-3.3 5.9-7.1h.3l.9-1.3-.3 4.3-.3 1.3q-4.2 6.6-9.3 12.9l-1 .2-1 .4 2-4.5 1.5-4.9zm12.2-23.8-1.2 3-.1-1-2.1-6.1.5-4.8a56 56 0 0 1 2.9 8.9m-2.8 6.3-.7 1.1-1.4-5 .7-2.6 1 2.7zm5.4-17.8-.2 2.1a28 28 0 0 0-2.2-6.9l.1-.4zm.8 8.7 1-4 .3 1-.6 1.2zM121 74.1l2 3.3q.4-6-.6-12l-.3 1.7-.8 5.2-.4 1.6zm4.4 5.2q.5-5.6-.2-11.2a38 38 0 0 1 1 14.5l-.4.8-.7-1.7zm-8.8-27.5 1.7 2.8.1 1c.6 4.8 1 9.6.3 14.3l-.2.7-4.5-5.5-.2-1-.1-1.2q-.5-6.7-2.3-13.5l-2.7-5 2.4 1.9q2.7 2.4 5 4.7zM97.8 37l.7.2 7 4.8.8.6 2.3 6.3a21 21 0 0 0-4.2-4.7 32 32 0 0 0-5-3.3zm-20-1.7q9-.7 17.6 1.2l1.5 3.1a48 48 0 0 0-13.3-3.5l-4.6-.2zM68.4 37l2.7-.7.1.2zm1.5-3.3.5 1a47 47 0 0 0-6.6 1.8l-2-.5a54 54 0 0 1 7.8-2.6zm51.7 12.6 2 2.9 2.9 2.9a21 21 0 0 0-2.1-4.2 27 27 0 0 0-4.8-7.8l-.5-.7v.2a29 29 0 0 1 2 4.8zm-29.2 81.6 5.9-4a32 32 0 0 1-3 4.1q-1.6.3-3.3.4zm-11.5 6.7a30 30 0 0 0 6.2-3.8l-4.4 2.1zm-.7.3 1.5-1.6-6.5 2.3-1.2 1.2a31 31 0 0 0 6.2-1.9m-7.9 2.2 1-1q-2 .6-4.1.9v.3h.1zm-16.4 3.7a84 84 0 0 1-8.2-5l-6.1-1.5-3-1-.6.2 4.4 2.8H42l9 4a47 47 0 0 0 8.7 2.3zm-18-7.3.7-.3-2.3-1 .6.7zm1-2.5a37 37 0 0 1-6.7-3.6l-1.2-1.6a66 66 0 0 0 7.8 5.2m-4.7 0H34l-.3-.2.2.1zm-7.8-9-1.6-1.8 3.2 3 1.3 1.8zm-6.5-10.3-.2-.5 3.7 4.3.5.9a46 46 0 0 1-4-4.7m-2-6.3.5-3.4 1.7 6zm-.3-2.4a35 35 0 0 1-.2-5.5l.6 3-.1 1.1zm9.9-36 2.4-3.7.2 1.4 1.1 3.9-.6 1.1a72 72 0 0 0-3.8 8.6 35 35 0 0 0-6.3 8.1 49 49 0 0 1 5.5-5.7 56 56 0 0 0-3.4 6.2 58 58 0 0 0-3.7 9.9l-.7-5.5 1.4-6.3a69 69 0 0 1 7.9-18M32 56.8l-.4 2.5 3-3.8-2.5 1zM16 68.5l.3-.6v.6L12 72l-1 1.2 1.4-5.7 1-3.1.5-.6a27 27 0 0 1 3.5-4 63 63 0 0 0-1.4 7.7v.3zm15.6-7.7 2-2.6-1 2.5-1 .3zm9.7-7.6-3.4 1.1-1.5 2.5a16 16 0 0 0-1.7 3.7l1.3-.2a69 69 0 0 1 5.3-7.1m2.4 7L39 60l4.1-5.4 1.9-2.2a63 63 0 0 1 13 4.3l.9.4a85 85 0 0 0-14.2 7.2l-4 2.7-4.2 2-2.5 2.2-.4-2.5a80 80 0 0 1 5-8.3zm-8 .5-1.6 2.7.5-2.5zm-3 11.2-.2-.3-.9 1.9 1.2-1zm-.2 3.4-2.4 1.8a63 63 0 0 0-3.5 12.4q-.7 4.2-.8 8.3a21 21 0 0 0 2.5 5.4 44 44 0 0 0 8.4 8.6 85 85 0 0 0 17.5 9.8l1-1.2a67 67 0 0 0 8-12.3l.8-2-7.5-3.4c-5.3-2.6-9.3-7-13.4-11.3L39.6 88q-4-6.4-6.5-13.4zM28 103.6a17 17 0 0 1-2.5-5 37 37 0 0 0 1.3 10.3l.9 3q1.5 2.6 3.3 4.9a39 39 0 0 0 11.1 4.3q5.3 1.1 10.4.9a75 75 0 0 1-16.2-9.6 33 33 0 0 1-8.3-8.8m-5.6-8.7c-1 4.5 0 9.4 1.6 13.6l.2 1v.2a38 38 0 0 1-5-9.9l-.2-.4-.1-.8a61 61 0 0 1 4-11.6l2.4-5a61 61 0 0 0-1.6 7 54 54 0 0 0-.8 9.6l-.2-3.6zm4.1 21 .5 1-3.2-3-.4-1 1.9 1.5zm2.8 5 1.2 1.6-3.6-3-.7-1.2zm17 7.8a78 78 0 0 0 11.4 5.5l4.2-.3 6.3-1 .3-1 1-3.7-.7-.2-2.8-.9a41 41 0 0 1-13 1.8 44 44 0 0 1-6.2-.5zm25.4-.1-1.1 3.8a53 53 0 0 0 8-2.8 52 52 0 0 1-6.9-1m11-2-1.2 1.5a57 57 0 0 0 8.3-5.2 40 40 0 0 0 4.2-8.7q.7-2.3 1-4.6l-3.8 3.2a96 96 0 0 1-8.6 13.8m12.5-12.1a39 39 0 0 1-3.1 6.6l3.6-3.3 1-4q.6-3 .7-6.1l-.2.2-.2.2a28 28 0 0 1-1.8 6.4m-7.5 12.8a56 56 0 0 0 5.8-4.3l-1.3 2.1-1.6 1-3.6 2zm-4 2.4-1.2.6zM97.4 114l-.5 2.5q6.6-6.5 10.6-14.6l-.2-4.9a87 87 0 0 1-9.5 10.2 40 40 0 0 1-.4 6.8M51.7 50.5l8-1.2a76 76 0 0 1 7.2 4.8q-2 .5-3.8 1.2l-1.4-.8 1 .8-3.6-1.6a69 69 0 0 0-8.2-3zm3.8-3.2a13 13 0 0 0-7.8 2.4l3.8-3.4 4.1 1zm-6.8-1.5L45 49.1l-1.8-.2a44 44 0 0 1 5-3.2zm49.6 42.3.9-3.9q1.3-6 .5-12l-.7-1.5a77 77 0 0 0-14.3-11.2l-5-2.9.2 1 .7 6.5 3.4 4.5q4.4 6.7 7.8 14l.6 1.3 2.3 5.3.3.8zm3.2-18.4.3 1.7.5 1.3.1-2v-.2zm-6-13.2 1.9 3a38 38 0 0 1 2.9 6l2 1.9-.4-5.7-4.5-3.8zm2.7 37-1.5 3 .2 1zm-1 10.4.1 1zm-1.7 2.6v-2l-.6.4-.1.3-.2.3-1.2 2.8 1.1-1zm0-5.1L95 99a50 50 0 0 1-5 6.6l4.5-2.3zm-7.4 6.2h.2a42 42 0 0 0 5.5-2.2l-.1.2-1.8 4a87 87 0 0 1-16.7 11.8l-1.8 1 1-5.1a54 54 0 0 0 13.7-9.7M74.7 116a49 49 0 0 0 10.5-7.5q-4.6.9-9.2.6zm-2.3 2.1-1.4 5.2a48 48 0 0 1-6 2.2l-7.5-2.4-1.4-.5a54 54 0 0 0 11-2.4zm-18.1 3.6a54 54 0 0 0 12.6-2.6 49 49 0 0 0 5.9-2.3l2-8-3-.4a24 24 0 0 1-7.5-2l-.9 1.8a67 67 0 0 1-9.4 13.4zm0 1H53l-1.8 1.8-2.2 2 3.3.3q5.2.3 10.5-.9l-5.5-2zm-5.3 3.8 2.2-2 1.7-1.8a43 43 0 0 1-11-.9 42 42 0 0 1-9.3-3.2l1 1.3 5.6 4.2a44 44 0 0 0 9.8 2.4m-26.7-16.4.3.3-.5-.8zM8.8 78.5a36 36 0 0 0 .4 8.7l.3 1.5a51 51 0 0 1-.5-9v-1.6.1l-.1.1zm.7-4.5L9 75.8l.1-.1zm7.2-17.5v-.2a80 80 0 0 1 5.8-9.9 60 60 0 0 0-3.6 8.4zm6.1-4 2.3-4.9a55 55 0 0 1 14.6-17.3 50 50 0 0 1 9.8-5.6l4.2-1.8-6 4.2v.1l-.6.1h.5a38 38 0 0 0-4.5 4.5L41 33.4l-3.7-.5 3.2 1q-1.4 1-2.7 2.2l-2 2V38q-1.1 0-2-.3l-1.2.6q-1.1.5-2 1.5 2-1 4.3-.8l-3.5 4.2h-.7c-2.5.4-3.4 1.5-4 2.6l.5-.4q1-1.2 2.1-1.5H31l-1 1.4a29 29 0 0 0-2.8 5.3zm45.3 9.3a60 60 0 0 0-6.8-3.6l-1.5.7A124 124 0 0 0 47.6 65l1.7-.1q-1 0-2 .3l-1.7 1q-5.5 3.3-10.8 7.2a51 51 0 0 0 4 5.9 32 32 0 0 0 6 5.3q3.4 3 8 5.4l2.3 1 2.3 1 4.5 1.8a38 38 0 0 0 5.8 1.3 81 81 0 0 0 2.6-14.6 45 45 0 0 0-2.2-18.8m-3-5.2 3.4-1.1a89 89 0 0 1 9.2 8.6l.2 1.4A69 69 0 0 0 65 56.5m13 13a76 76 0 0 0-9.1-7.2l-.2-.1q.7 1.5 1 3A48 48 0 0 1 71 80q-.3 7.8-2.2 14.7l-.1.5 4.9.2h3.6q1.3-11 1.2-22.1zm2.5-1.3v-.8l2 2.6 1.9 2.3zm12.5 23-.4-1.1A46 46 0 0 0 87 79q-2.8-3.9-6.3-7.4v1.1A280 280 0 0 1 78 95.4a47 47 0 0 0 6.6-1q4.4-1 8.5-3.3m.2.9a33 33 0 0 1-9 3.3 47 47 0 0 1-6.4 1l-1 6.6-1 5.6q5.6.3 10.8-1.6l1-1q4-4.4 6.9-9.4zm2-1.1 2.5-1.5-1.8 4.3zM81.1 53a34 34 0 0 1 7 .3h.3l4.4 6.4a90 90 0 0 0-10.2-6zm27 24-4.1-5-.2 2.4 3.2 4.3zm3.6 5.4-2.2-3.6-.6-.8-1.3 1.7a72 72 0 0 1 3.9 6.6v-1l.1-1.8zm7.7 17.2.7-1.3v.6l-.5 1.8zm-2 6 .2-2.7-.4.6zm-44 37.8a49 49 0 0 0 11-2.5l1-1a58 58 0 0 1-15 .3l-2.8 2.4 3.5.6zm21.8-8.4-.6.2L97 132l2.3-3.6.8-.2a26 26 0 0 1-3.8 5.5zm-7 2a46 46 0 0 0 6-7.6l-3.2.4a32 32 0 0 1-12.2 8.2 57 57 0 0 0 9.4-1m-6.4-10.3-1.6 1.9a62 62 0 0 1-8.1-1.2l.7-2.6 3.6-1.8a98 98 0 0 0 13.2-8.7 98 98 0 0 1-7.8 12.3M70 127l-1.6-.4 2-.8zm32.6-3.5-2.4 3.6.6-.1zm1.2 3.7-1.3.4-.4 1-1 1.9zM68.1 140h.8l-1.1 1zm-21.7-8 .4.2-.2-.1zm-.2-3-1.1-.8 1.6.3-.3.3zm74-16.1-2.4 3.6a56 56 0 0 0 2.4-6.3l.5-1.8.6-1.2-.9 4.9zm4-11.1q.2 1.7.1 3.3l.1-.2 2.4-5.4-.2-3-.3-3.1a55 55 0 0 1-2.2 7.3zM81 10.5a63 63 0 0 1 11 2.7 57 57 0 0 1 10.2 4.8l-3.8-1.3h.3A45 45 0 0 0 85 13.6h-5.2l-2.3-1-4.2-1L76 11zM64.3 152.4l-1.3-.7-2.6 4q2-.4 4-1.4l2.2-.7zm-1.1-1 1.3.6 2.7 1.4a14 14 0 0 0 4-2.5 29 29 0 0 0 5.5-3.4q-6 1.2-12 .7zm-1.5-.2-2.3 4.7-1.6.2a16 16 0 0 1-6.5.1H51q-3.4 0-6.4-2a15 15 0 0 1-3.3-1.6l1.7.3q6.4.3 12-2.3l1.6-.8q2.2.4 4.5 1.1zm-4.7-1.6 4.1 1 .8.3L63 148l-2.5-.4zm-2.5-.3q-4.3-.7-8-2.5 3.8 1.9 8.2 2.3l3.8-2-3-.9a53 53 0 0 1-12.2-6.6l-2.4-1.1-6-4-4.5.8a26 26 0 0 1-9-1.1 22 22 0 0 0 3 5 23 23 0 0 0 6.8 8.3l5.5 3h.3a50 50 0 0 1-8.5-10.7l.4-.2a57 57 0 0 0 9.2 10l1.2 1.4 3.4.5c3.9.6 7.9-.8 11.6-2.1zm73-60.6 1 5.7a64 64 0 0 0 2.3-13.6q.3-3 .1-6.2l-.1-1-.1-1.3A105 105 0 0 1 128 85zM90.6 23.3l3.4 1.4-2-2h.3l-2-1.2-5.8-.8 1.4 1zm-24.4-3 2.3-.6-2.4-.2h-.8l-.9.3zm5.8-1.6 2.4.3 4.4-.3h-.1v-.1zm-8 126.8h-.2l-2.4 1.6 1.9.3zm7.7.3h-2.1l-3.7-.2-.6 1.2-.3.7a39 39 0 0 0 11.2-.8 18 18 0 0 1-4.1-.9h-.2zm-10-.6-2.1-.2q-5-.8-9.7-2.4l-3.1-1.4a44 44 0 0 0 9.5 4.6l3 .9zm34-80.5-3.2-2 4.6 4.3-1-1.6zM65.4 50.3l4.4 3.2 3-.4a56 56 0 0 0-6.8-2.6zm12 10.1a75 75 0 0 0-6.2-5.7l3.7-.7.8.4.4.2.4.2.5 3.6zM101.3 87a108 108 0 0 1-4.1 12.7l.2 2a49 49 0 0 0 9.4-8.2l-.1-.8q-.8-4.5-2.3-8.9l-.2.4zm-.3 14-3.4 2.2.1 1.1zm-35.7 40.7.7-2q-4.5-.2-8.9-1.4l.3.2h.1a47 47 0 0 0 7.8 3.2m8-99.2.4 1a82 82 0 0 0-10.7-3q2.6 0 5.3.5l2.6.6zm10 .6L80.1 40l-2.4-2.3h.5q7.5 4 14.5 8.4l7.5 5.3.3 1.2-4.7-3.4a49 49 0 0 0-10.6-5.4zm20.2 32.7 2.7 3.8-1 1.5zm.6 6.9-1.2-3.3-.6 3-.7 3 2.1-2.2zm1.4-.4 1.3-1.7a59 59 0 0 1 4 7.5v.2l-3.1 4v-.2a93 93 0 0 0-2.2-9.9m-27.4-41-1.9-.8-.8-2zM58.7 27.7q2.8.6 5.6 1.5L61.8 28q-1.5-.8-3-.3m7.4 12.6-1.6-.5-1.7.5h-.2l-.3.1h.4zm4.5-1.8 1-.2.3.6zm30.8 19.7-1.8-1.6-1.4-.7-2.9-.9 3 2.1 3.5 3-.2-1.3zM83 148.6l4.6-2.9 3.2-1-1.4 1.1a11 11 0 0 1-4.6 2.7 4 4 0 0 1-1.8.1m3.3-4.3.1-.1zm37.4-53v1l.5-2.1-.4.7zM64.2 20.8l-.6-.2.2.1.1.2zm-11.9-1.1-1.3.4 5.5-3 1 .8-1.8.6h-.5.3zm66.5 59.5 2 5a28 28 0 0 0-1.2-7zm-2.8-4.9.6 1 .2.4 1-3-3.7-6 .2 2.2q.8 1.6 1.4 3.4zm-1.5-8.2 3.6 5.6.1-.4zm-3.4-4.7a98 98 0 0 0-1.6-9.4 21 21 0 0 0-5.6-7l-3.9-2.5a56 56 0 0 1 2.2 9.2q1 .8 1.7 1.7a70 70 0 0 1 7.2 8m-.1.6a55 55 0 0 0-8.5-8.9l.1 1 2.5 2.3zm-11-12.3-5.7-4.5a136 136 0 0 0-12-7.6l1.8.1q7 .6 13.4 3.5a63 63 0 0 1 2.5 8.5m11.3 13A61 61 0 0 0 105 57l-2.2-1.6.2 1.2a24 24 0 0 1 5 4.2 22 22 0 0 1 3.5 3.6zm-43 33.6q2.5.2 5.1 0H77l-1 6.8-1.1 5.4-3.7-.6a20 20 0 0 1-6.8-1.6 80 80 0 0 0 4-10m-4.6 9.7a86 86 0 0 0 3.5-9.8 37 37 0 0 1-6-1.2l-4.5-2-2.3-.9-2.2-1a60 60 0 0 1-8.4-5.5Q40 83.1 37.4 80l-1-1.2a57 57 0 0 0 4.7 8.5 41 41 0 0 0 15.2 15.3l2.9 1.4q2.2 1.2 4.6 2.1M58 16.3l1.6 1a66 66 0 0 1 9.2-1.5l1.8-.4 1.2-.5-4.7-2-5.7 2zm-25.8 45-1 .3.4 3.5q.2-1.9.6-3.7m4.6 7.8 2.6-1.5-5.3 4v-.2zm-5.7 5 1.4-1.3v.1l-1 1-.6.3zm42-59.7-5-2 1.1-.2 6.4 1.5zm-14.8 8.3 3.4-1.3-.4-.4-4 2.1h-.1z" clip-rule="evenodd"/><path fill="#b19346" d="m57.8 8.8-7.5 2.1h9zM70.5 72l9.4 1.8 7 3.6zm17.6-6v3l4.2 6zm15.4 88.8 7-8.2 5.6-2.4zm35.3-38.7-4 15.4 5-12.1zm1.5-73.5L130 33.3l5.5 2.4z"/><path fill="#e8a556" fill-rule="evenodd" d="M65.4.3q-3.8-1-7.6 1c-2.4.2-4.8 1.5-7 3h-.2l-6 1.8a25 25 0 0 0-9.1 7 31 31 0 0 0-4.9 5.7l-3 .6-5.4 3-5.2 4.5a39 39 0 0 0-8.7 15.4 45 45 0 0 0-1 25.7 28 28 0 0 0 1.9 19v1c0 3.9.6 26 25 48l5.8 5.5-5.1 1.8v.3q2.8-.6 5.7-1.5l4.8 3.6 1.5.9a13 13 0 0 1-5.7-2.1q2.8 2.1 6.4 2.4l.3.3h-.3s-.3 0-.3-.3q-4.5-.3-8.8-1.5a77 77 0 0 1-10.9-3.6q-2.8-1-5.1-2.1a27 27 0 0 1-5.2-2.5l.3.6q2.1 1.5 4.9 2.8l5.1 2.7q5 2.6 10.9 4.2a71 71 0 0 0 13.6 2.1q.3 0 .6.3a60 60 0 0 0 6.3 3h-9l7.5 2.2L59 153a55 55 0 0 0 7.6 2.4c2.7.6 5.1.6 7.9.9q7.7.4 15.4-1l13-3.3a48 48 0 0 0 26.6-25l.6-.6q4.6-4.3 7.8-9.7 3.5-5.4 5.4-11.2a43 43 0 0 0-.3-24.8 60 60 0 0 0-3-7.8 65 65 0 0 0-5.1-29.3l-1.5-4a68 68 0 0 0-9.7-16.3l-.3.3a56 56 0 0 1 6.7 11.8 60 60 0 0 0-13-13.3c-4-3-8.8-5.4-13.3-7.6a59 59 0 0 0-14.5-4.8l-4.9-.9a23 23 0 0 0-5.4-4 23 23 0 0 0-6-3l-.7-.9H72q0 .3.3.6H72A11 11 0 0 0 65.4.3M36.4 14q3.8-4.3 8.4-7l3-.8a49 49 0 0 0-8.4 7.2l.6.3a42 42 0 0 1 11.2-7.8s.3 0 .3-.3l5.7.3c4 .6 7.6 2.4 10.9 4.5-2.7 0-5.7 0-8.5 1 3-1 6-.7 9.1-.7l3.6 2.7q-1.4 0-3 .3-6.3.7-11.8 3.4l-4.8.9-6 2.4q-1.9-1-4-1.5-5-1.4-10-.6a16 16 0 0 1 3.7-4.3m38.3-3c.3 0 1 0 1.2-.3l.6 3h-2.7l-3-2.7zm9.7.6a39 39 0 0 1 4.8 5.2 47 47 0 0 0-11.1-3L77 10c1.6-.3 3-.9 4.9-.9zm14 5.8a15 15 0 0 1 3.8 3.6l2.2 2.4-.3-.3-3-1.8-4.6-4.5q.9 0 1.8.6m25.1 23q0-.5-.6-1.3a46 46 0 0 1 5.7 9 45 45 0 0 1 5.2 11l1.5 3.6-3-4.2-1.9-1.8q-1.9-4.4-3.3-8.8l-2-3.6-1.6-4m16.3 53q.5 4.4-.9 9a24 24 0 0 1-2.4 7.8l-3 7 .3-1q.9-4.6.9-9.6V101a91 91 0 0 0 5.4-17.6q-.4 5.2-.3 9.7m-12 33q-1.4 2.7-3.7 4.5l-6.7 4.2q.1-.5.3-.6a67 67 0 0 0 4.9-10.6l.6-2a27 27 0 0 0 3.6-5.2c1.5-2.1 2.4-4.6 3.6-7l.6-1.8 1.3-2.7.9-1.8v3.6a63 63 0 0 1-2.8 15.1zm-25.4 17c.3-.3 1-.6 1.2-1q5.2-1.8 10.3-4.2l-.6 1a29 29 0 0 1-7 3zm-36.8 8.7-5.2-1.5a4 4 0 0 0-1.8-.6h2.7l4-.6q1.7.5 3.9.6 7.1.8 14.2-.3 3.5 0 6.6-.9a51 51 0 0 1-13.3 3.6q-5.5 0-11.1-.3m-40-117.2a38 38 0 0 1 8-9L33 25a32 32 0 0 0-7.8 7.9 49 49 0 0 1 6-12.7l.6-1q5.2-.6 10.3.4 1.7.4 3.3 1.2l-2 .9a44 44 0 0 0-10 6.6 43 43 0 0 0-8.2 8.5q-.8 1-1.5 2.4l.6-2.4 1.2-2.4m47.7-20 1.2 1.3q-.8 0-2-.3-4.5-.3-9.1.3 3-.9 6-1.2zm59.3 52.3q-.4-2.8-1-5.1L131 59l.3.3 5.1 7.2.9 4 .3 1.2v1.5A61 61 0 0 1 135 88q0 .8-.6 1.5v-3.3a90 90 0 0 0-1.8-13c0-2.1.3-4.3 0-6.4m-.3 37.8.9-2.7.3-1.5v-.3 1.5q-.9 1.6-1.2 3M44.5 23.9l1.5-.6-1.2 1-2.7.8zm86.8 73.4-2.2 4.6-2.7 3.9v-.3q0-.5.3-.9c1.5-3.6 2.1-7.6 2.7-11.2q1-6.8 1-13.6l.2-.9q1 3.7 1 7.6a44 44 0 0 1-.3 10.8m-35.1 45q-.4.4-1.2.7h-.6l2.1-1q0 .2-.3.4m-58.6-15.7-.3-.6q1.4 1.3 2.4 2.7l-.6-.3zm72.2 3.9-1.8 1.8.3-.9a17 17 0 0 0 2.7-4.2c.3-.3.3-1 .6-1.2 1.5-1.6 3.3-3 4.5-4.6l2.5-1.5q.5-.3.6-.6l-3.4 4.5a21 21 0 0 1-6 6.7m-58 8.7-.6-.3q.3 0 .6.3m26-117.5h-4.2c1.2-.3 2.7 0 4.2 0M53 130l-3 .9q-2 .4-3-.6 2.8 0 6-.3M18.2 85.9q.9.9 2.2 1.8V91l-1-1q-.7-1.7-1.2-4.1M17 81.3l-.6-3.3a80 80 0 0 1 3-14.8v2.7q.6 5.4 1.6 10.9-.9 4.8-1.2 10.3c-1-1-1.9-1.5-2.5-2.5q.3-2.1-.3-3.3m107 27-1.2 2q-1.6 2-3 3.4a31 31 0 0 1-4.9 3.9q.9-2.7 1.2-5.4 1.6-1.6 2.5-3a36 36 0 0 0 6-11.9v2.8q0 4.5-.6 8.1m-45.3 33.9-1.5.6q-3.7.2-7.6-.6l.3-.3c2.4-.3 5.1-.3 7.6-1l3.3-.5c-.6.9-1.2 1.2-2.1 1.8M37.6 117a9 9 0 0 0 3 .6q2.4.5 4.8.6l.3.3.6.6-1.5-.3a28 28 0 0 1-7.2-1.8q0 .4 0 0M21.3 91.3q0-1-.3-1.5V88l2.4 1.8 2.1 1.5-.6 3.3-3.6-2.7.6-2.1h-.3zm97 17.2a54 54 0 0 0 4.5-15q1-1.5 2.1-2.8a35 35 0 0 1-6.6 17.8m-67.1 13.3h1.5q3.5 2.4 7.5 4l-.9.9a36 36 0 0 1-8.1-4.9m-26-73.4a25 25 0 0 1 5.4-5.7q-.8 1.2-1.2 2.7a33 33 0 0 0-4.2 11.5h.3c.3-2.2 1.2-4 1.8-5.8a66 66 0 0 0-1.8 11.2q0 4.4.3 9.4a26 26 0 0 1-1.8-7q-1-5.5-1.2-10.9a41 41 0 0 1 2.4-5.4M117.7 97q-.5 0 0 0M81.4 40.2q1.3.9 2.1 1.8c4.9 4 8.8 8.5 12.7 13.3q.9 3 1.2 6a26 26 0 0 0-4.8-3s-.3 0-.3-.2A53 53 0 0 0 81 46q.4-3.1.3-5.8m23.6-7 .9 1.6 2.4 5.4-.6-.3-1.5-3.6c-.3-1.5-1-2.4-1.2-3q0-.5 0 0m7.2 10.2 1.5 1q2 3.4 3.4 7l2.7 7.5v1.8q0 1.2-.3 2.4l-.3-1.2h-.3l.6 1.8-.3 1.5a76 76 0 0 0-5.5-11.2l-1.2-1.8-.3-4.2a34 34 0 0 0-1.2-5.5c.3.3 1 .6 1.2 1M77 53.7l2.7.3v6l-.3 7-3-.6q-2.6-.9-5.2-.9-.5-5.5-1.8-11.2 4-.5 7.6-.6m20.8 8.8 1 4.8c-.4.3-.4 1-.7 1.2a54 54 0 0 0-4.5-9.3c1.5 1.2 3 2 4.2 3.3m2.8-20.6.6 1.8-3.4-3.9-.6-.9c.6.3 1 1 1.5 1.2 1 .6 1.3 1.2 1.9 1.8m19 32.4-1.2 3.9-1.8 3V78a17 17 0 0 0 2.7-5.1q0 .5.3.6-.5.4 0 .9m-23.3 51.4c-2.7 1.2-5.4 2-8.1 3.3h-1.8q.6-1 1.2-1.5a29 29 0 0 0 8.4-3l2.4-1.6-1.5 2.4zm-21.7 0H74q5.9-1.9 11.7-4.2l6.4-3q-.4 1-1.2 2.1c-9.4 3.6-16.6 4.8-16.3 5.1a93 93 0 0 0 14.8-2.7c-.3 1-1 1.5-1.5 2.4-4.3.6-9.1.6-13.3.3m-9.4-2.4 1.5-2.4 1.5-.3h2.1l-.3.3a19 19 0 0 1-4.2 2.4q-.5.4-.6 0m-4.5-1.5q1.2 0 2.4-.3l-.6 1zM39 95.5l-4.5-.9a75 75 0 0 1-3-8.7q.4-1.3.5-2.5l1.5 1.9a23 23 0 0 0 4.3 3.3l2.7 3a82 82 0 0 0 12.7 10.3 58 58 0 0 1-14.2 1.2q-.8-1.5-1.5-2.4-1.4-2.7-2.7-5.8 1.9.5 4.2.6m37.2-28 3 .5A180 180 0 0 1 76 89.8l-5.2 1.8 4.9-.9-1 2.7a144 144 0 0 1-9.6 4.8h-.3q.9-1.3 1.8-3A46 46 0 0 0 70.8 81q1-7.2 1-14.8c1.1.6 3 1 4.5 1.2m38.6 30.8a54 54 0 0 1-5.7 6v-2l2.7-3.7.6-1.8 1.5-1.5.3-.3zm-33.8 13q-3.7-.2-7-1.2.4 0 1-.3c4.5-.9 8.7-2.7 13.2-4.5a55 55 0 0 1-6 5.7zm-27.5-7 2.7-.5.6.3-1.2.6 1.5-.6 3.3 1.8q-3.7 1.7-7.5 3-3.7-1.3-7.6-3l-1.2-.6c3 .3 6.4-.3 9.4-.9m24.2-13.9 2-.3 2.5-1.5a30 30 0 0 1-5.1 3.3q.5-.7.6-1.5m23.8-25.7.3-1.2q1.7 2.4 3 4.8a13 13 0 0 0-3.3-3.6m5.2 41.7q0-.6.3-1.2l.3-1.2q0 1-.3 2.1zM91 102.2l-3.4 1.2 5.2-3q-.8 1-1.5 1.5zm.6-19 2.4-3.7 1.8-2.4q1.4 1 2.7 2.4v3.6q0 6.3-2 12.1l-1 1.8-.3.3a63 63 0 0 1-15.7 7.6q-3.1 1.3-6.4 2.1l.6-1.8 1.9-5.4 5.4-4.6a80 80 0 0 0 10.6-12m4.8-6.7c.6-1 1-1.5 1.2-2.4q.5 2 .6 3.9zm14 8.7c0 .7-.4 1.3-.4 1.9l-.3 2-2.1 2.5-.6.3-1-2.1v-.3a28 28 0 0 0 4.3-4.2m2.4 4.2-1.2 2.7q.9-2.1 1.2-4.2v-.6zM85 113.7h-.9q.8-.4 1.5-1.2l1.2-.3h2.8l-2.5.9zM98.8 96v1.2l-.3 1-1.2.5q.4-1.2 1.2-2.4.2-.4.3-.3m-3 5.5 2.1-1.2-1.8 6.3q-2.2 1.5-4.5 2.4c-1 .3-2.1 1-3 1.2 1.2-.9 2-2 3.3-3a39 39 0 0 0 4-5.7m4.7-2.8 5.8-4.8.3 1.5.3 1.5-1.5 2.8-5.2 4.2-3 1.8q1-3 1.5-6zm7.9-6.3.9-1.2q0 .5-.3.9l-1.2 2.7-.6-1.8zm-11.8 16 .3-1.2 6.4-4.2-1.5 1.8zm-5.1 2.4c-1 .3-1.5.3-2.4.3L92 110q2-.8 4-2l-.4.8-.3.3q-1.4.9-2.4 1.2c-1 .3-1 .3-1.2.6m14.5-18-6.4 4.7h-.3v-.3l.3-2.4 5.2-4.5 1.2 2.4m-6 1c1.1-2.5 2.4-4.3 3.6-6.4l.9 2.4a19 19 0 0 1-4.6 4m-28.7 10.5a18 18 0 0 1-1.5 3.6h-.6q-.5 0-.6.3h-.3l-3.6-1.5 7.2-4.2c-.3.3-.3 1.2-.6 1.8m-4.5 4.2q-3.7.9-7.6 1.2h-1.8l6-2.4c1 .3 2.2 1 3.4 1.2M111 74.1v2.7l-1.2-2.1s0-.3-.3-.3l1-3zm-1.2 4.2 1 2.7v1.8a49 49 0 0 1-5.2 6l-1.2-2.6a77 77 0 0 0 3.9-8.8q.4-.6.3-1.2.8 1 1.2 2.1m-7 7.3.4.6-2.8 4.5V88q.4-2.3.3-4.3v-.9q1.3.9 2.2 2.8m-4-14q0-.4 0 0M77.5 95l4.2-2.7q-.9 1-1.8 1.5c-1.2 1-2.1 1.5-3.3 2.4q0-.4.3-.9zm-4.3 3.6a82 82 0 0 1-11.1 6.4q-1.7-.9-3-1.8.3 0 .8-.6a79 79 0 0 0 14-5.8q-.1 1.4-.7 1.9m11.5 16.9h.6a45 45 0 0 0 8.5-2.7q0 .3-.3.6-7 2.5-14 4.2 2.9-.8 5.2-2.1m10.6-3.4a31 31 0 0 0 6.6-4.2c1.6-.6 3-1.8 4.3-2.7l-1 2.4c-2 1.2-4.2 2.7-6.3 3.6q-1.7 1-3.9 1.6.4-.3.3-.6m3.3.3q-2.3 1.4-4.5 2.4v-.3a11 11 0 0 0 4.5-2.1m-2 2.7q4-2.7 8-5.8-.2 1.6-1.1 3a67 67 0 0 1-11.2 7q.4-1.2 1.2-2.4zm13.6-45.7q-.4 1.9-1.2 3.7-2.8-5.9-6.7-11.2c.6-2.7 1.3-5.4 1.3-8.2v-.6a60 60 0 0 1 6.6 16.3m-10.3 0 1.5-3.6a42 42 0 0 1 7 9.4l-.6 1.8-3.6 7.9-3-4.3q-.1-1.7-.7-4l-.6-6.2zm-5.7 6.7a46 46 0 0 1-7.9 9.4L84.4 87l-6.3 2q1.8-10.3 2-20.8 3.6 1 6.7 2.5 4.1 1.8 7.3 5.4.4-.5 0 0m-24.5 5.1a46 46 0 0 1-4 14q-.7 1.7-2 3.6a59 59 0 0 1-7.9 2.4l-1.2-1A144 144 0 0 1 44 92l1 .3-1.6-.6q-1-.7-1.5-1.5a124 124 0 0 1-8.8-9 37 37 0 0 1 4.9-5 23 23 0 0 1 7-3.8q4.5-2.3 9-3.7l4.8-.9 4.9-.9a18 18 0 0 1 5.7 0 37 37 0 0 1 .3 14.5M34 85l-1.6-2.2v-.3l4 4.6zm30.2-19.4-4.9 1-4.8.8a83 83 0 0 0-9.4 3.4q-4 1.4-7.5 4.2c-.3.3-1 .6-1.2.9a50 50 0 0 1 6.3-7.6 40 40 0 0 1 18.1-11.7l8-1.9q1 5.5 1.4 11a20 20 0 0 0-6 0m-23.3 40.1h.6l3 1.5 4.9 2.1h-.6q-2.7-.5-4.9-1.5zm25 5.4 2.8-.3-.9 2.2-2.7-.6-3.3-1 4.2-.2m6-.7h.3q4.4 1.4 8.8 1.9-.4.5-.9.6l-4.8 1.2-5.2-.3c1-1.5 1.2-2.4 1.8-3.4m0 6.4 4-1-2.2 1-5 .9v-.3zm-7 1.2-2.6.3-2.8.3q-1 0-2-.3 3.4.3 7.5-.3m-8.8 1.2h-.9l-1.2-.6zm14.5 3.3 3.3-2q1.7.1 3.4-.4 6-.8 11.4-3 2.3-.9 4-1.8v.3l-8.2 3.6a248 248 0 0 1-16 5.1q-.3 0-.6-.3 1.4-.5 2.7-1.5m20-.3a49 49 0 0 0 10.5-4.8 26 26 0 0 1-6.3 5.1q-2.6 1.4-5.7 2.1zm14.2-10.8q.4-1.7 1.2-3 .4-.7.9-.7l-1 3q-.7 0-1.1.6m3.9-5 4.8-4q-2.7 3.2-5.4 6 .5-1.3.6-2m7-18q.1-.4-.4-.5l.6-4.9 2.8-4.5.9-2.4.9 4.5v.3c-1.5 2.4-3 5.2-4.9 7.6m0-14q0-1-.3-2.3-.3-6.4-1.5-12.7a54 54 0 0 1 4 9.6 29 29 0 0 1-2.2 5.5m-8.7-24.2a32 32 0 0 1 1.5 5.7l-4-7.2-1.1-1.8c0-1-.3-1.5-.3-2.4q1.9 2 3.3 3.9.5.9.6 1.8m-4.9.3v2.7q0 2-.3 4 0-2.9-.3-5.2L101 49q.9.9 1.2 1.8M99 66.5l-.6-3.3 1.2 1.2q0 .8-.6 2.1m-7-7a56 56 0 0 1 5.2 11.6q-.8 2-2.1 3.9a35 35 0 0 0-7.9-5.2q-3.1-1.6-7-2.4l.7-7.2.3-6a28 28 0 0 1 9.7 3.3q.6 1.3 1.2 2m-23.6-5-7.9 1.7A41 41 0 0 0 42.1 68 65 65 0 0 0 34 78l-1.5 1.8q-.8-1-1.6-1.5L29.1 76a96 96 0 0 1-.9-13.3q0-3.5 1-6.7a18 18 0 0 1 4.2-6.3q4.3-4 10-6.6A84 84 0 0 1 62 37.2l1 1.8a67 67 0 0 1 5 13.6zM29.7 79l1.5 1.8v.3zq0 .5 0 0m1 2.7-.4.3-.3-1.2zm.2 1.8s0 .3-.3.3q.4 0 .3-.3 0 .5 0 0m4.3 17.6-1-.6-.8-3.4q.9 2.3 1.8 4m.9 1.8h-1l-.2-.6q.6 0 1.2.6m12 7.8H44l-2.7-3.6a17 17 0 0 0 7 3.6m-1.8 2.5 3-1q4.1 0 7.8-.2l7.3 2 2.4.7-.6.9q-7.7 1-15.4 1.2h-.6c-.6-.3-1.5-1-2.1-1.2q-.9-1-1.8-2.4m39.8 14.5q-.4.8-1.2 1.5-8 0-16.3-2.1l5.2.9q6.1 1 12.3-.3m22.4-8.8q-.4 0 0 0c-2.1 1.8-4 2.7-6 4l-3.7 1.7 1.8-3.3a16 16 0 0 0 3.7-4.2q1-1 1.5-2.4a38 38 0 0 0 8.4-8.8q-.7 4.5-2.4 8.8-1.4 2.1-3.3 4.2m13.6-45.3-.3 1.2-.6-2.1-.3-1v-.8q1.3 1.3 1.2 2.7m-1.5-3.7-.3-.9.3-1.2v.6c.3.6 0 1.2 0 1.5M110 46.6l-1.8-5.5.6.3q.8 2.8 1.2 5.2m-7-7.3 1.6 3.4-3-3-.4-1q.9 0 1.8.6m-7-1.5q0 .3.3.6L94.7 37l1.2 1m3.3 8.7q.9 3 1.2 6a24 24 0 0 1 0 6.7l-.3-.3q-2-2.9-3.9-5.2c-1.5-5.4-3-10.5-5.4-15.7q0-.5-.6-.9a53 53 0 0 1 9 9.4m.3 13 1 1.2c0 .6-.4 1.5-.4 2l-1.8-1.4V61a31 31 0 0 0-1.2-5.2q1 2 2.4 3.7m-9.6-3q-4.1-1.9-9.1-2.8l.3-7a45 45 0 0 1 8.8 9.8m-10.3-2.8-2.7-.3q-3.7-.1-7.3.6l-.6-1.8a73 73 0 0 0-6.3-15 52 52 0 0 1 11.7 5 25 25 0 0 1 4.9 3q.4 4.5.3 8.5M43 42.3q-5.6 2.7-10 7-2.2 2.3-3.6 5.4c1-3.6 1.8-7.2 3.7-10.5l1.8-3q1.8-2 3.6-3.4 6.2-2 12-2.1 5.1 0 9.8 1.2A57 57 0 0 0 43 42.3M30.6 93.4c.6 2.4 1.5 4.2 2.4 6.4l-.9-.6-.9-2.2zM33 101l1 .6c.5.3.3.9.6 1.2h-.3c-1-1-1-1.5-1.2-1.8m3.3 4.5q.9 0 1.8.3l3.3 4.8h-.3a30 30 0 0 1-4.5-4.2q-.4-.5-.3-.9 0 .5 0 0m26.6 23 2.4-.6a63 63 0 0 0 18.4 2.7l-2 .6a40 40 0 0 1-18.8-2.7m46.5-8.2-.9 1.5-2.7 1.5a19 19 0 0 0 3.6-3m7.6-14.2q.4-2.2.3-4.8 1.3-2 2-4l.7-.6q-.8 5.3-3 10zm-.6-13.9a39 39 0 0 0 3.9-5.7v.3a31 31 0 0 1-3.3 8.1zm5-23q-.1-.4.4-.9 0 1 .3 2.1l-.6-1.2m-9-27.2q0 .5 0 0l-2.2-1.2v-.3q-.5-2.4-1.5-4.8l1.5 2.1q1 2.3 2.1 4.2m-9-10 .6 1.6q-.7-1-.6-1.5-.5 0 0 0m-10 .3-.6-1 2.7 2.8q-.8-.9-2.1-1.8m-7 1.8q-2.6-.4-5.7-.3 0-1.8-.3-3.6 3.5 2 6 3.9m2.2 1.5.3.3 1.2 2.1A124 124 0 0 1 95.6 53a106 106 0 0 0-11.5-11.8q-1.3-1.3-2.7-2 0-1.8-.3-4 3.5 0 7.6.6M79 37.2l-3-1.8h3c-.3.6 0 1.2 0 1.8m0 1.2.3 5.8q-2.3-1.7-4.5-3a66 66 0 0 0-10.6-4.6l1.8-.3 7.6-.9q3 1.5 5.4 3m-13-3.3-4 .9a27 27 0 0 0-3.2-4.8l3.6.3q4.9.8 9.3 3zm-4.8.6a45 45 0 0 0-11-1.5q-4.9 0-9.9 1.2l1-1a77 77 0 0 1 7.2-3.2q4.4-.8 9.3-.3a35 35 0 0 1 3.4 4.8m-7.9-6 3-1 1 1zM29.4 89.4l-.3 2.7-2-.9q.4-2.3 1.4-4.2 1 1.2 1 2.4m0 3.3q0 2 .5 4-1.3-2.3-2-4.6.4.5 1.4.6m13 21.2q1.7 1.3 4 2.7H45zm6.4 4.8 1.2.9q-.9 0-1.8-.3c-.3-.3-1-.6-1.2-.9.9 0 1.2.3 1.8.3m12 10.3q.9 0 1.6.6zm37.7-99.4a38 38 0 0 1 4 7.8l-2.2-.6a29 29 0 0 0-9.3-9.7 55 55 0 0 1 7.5 2.4M92 31l.6.9a73 73 0 0 0-8.2-4.9l-.3-.6A33 33 0 0 1 92 31m-8.8-4.6-1.2-.6zq-.4-.4 0 0m-10.6 0q1.8.6 3.7 1.5l1.8 1v1.4l.3 3.7h-.6l-4.3.3a49 49 0 0 0-11.1-4q-2.5-.4-4.9-.5-.4-.7-1.2-1.3a101 101 0 0 1 13-3q2.1.4 3.3 1m-43.2 15-.6.7.3-.6zm-6 7.6-.6.9v-.6q0-1.3.3-3v-.6c.9-1 2.1-1.5 3.3-2.4q-1.7 2.8-3 5.7m-1.8 3-.6 1.2.3-2.4c.3.3.3 1 .3 1.2m-1 7.9.4-1 .9-2.7q.4 4.3 1.2 8.5l.9 4q-1.5-2-2.4-4.3h-.3a78 78 0 0 0 4.2 8.8l.6 1.2.6 4.2q.4 3 1.2 6l-1.5 3q-.4.7-.3 1.3-1-1.9-1.5-4.2a71 71 0 0 1-4-19.4zM24 85.3l1.8 5.1v.3q-.8-.6-2.1-1.2l-3-2.1q0-5 .6-10.3zm3 7.8q.8 2.3 2.1 4.2l-1.8-1.2q-.2 0-.3-.3c-.3-.9 0-1.8 0-2.7m3 5.7 1.8 3-3-.8-1.5-.6-.3-1.6v-2a11 11 0 0 0 3 2m-.9 5.5 1.2.3 3.6.9 1.3 1.8 2.7 3.3q-3.1 0-6.4-.6-1.3-1.8-2-3.6l-1-2.4zm10 7.8.9 1c-1 .2-1.5.2-2.4.5q-1.6.4-3 .3l-1-.9-.9-1.2q2.8-.3 6.4.3m-6.7 1.8-.3-.9.3.3zm-.6-1.2c-.3.3 0 .3 0 .6L30 111q.4 0 1 .3.6.6.8 1.5m1.8 2.5q-.4 0 0 0m1.9-.3q1 0 2-.3 2 0 3.7-.6l2.1 2.4q-1.3 0-2.7-.3l-4.5-.6q-.5 0-.6-.6m7.2 5.1h-1.5q-.5-.5-.9-.6zm6.4 1.8a83 83 0 0 0 8.4 5.7l-1.2.3q-6.3-2.1-11.8-5-.4-.4-1.2-.7 3.1-.4 5.8-.3M75 133h-.6q-.3 0-.6-.3.4.4 1.2.3m5.7.9q-.4.5-.9.6-.6.2-1-.3zm1.8-.6 2.4-.9c2.8-.3 5.5-1.2 8.2-1.8q0 .2-.3.3l-5.2 4.8-6.9-.9q1.4-.7 1.8-1.5m3 4q-4.2 1.2-8.4 1.7c-1 0-1.5.3-2.5.3q2.4-1.3 4.3-3zm8.5-5.5q.8-.9 1.2-1.8l4.8-1.5c1-.3 2.2-1 3-1.2q1.1-.3 1.6-.6.9 0 1.8-.6 0 .2-.3.3-.4.9-.3 1.8a36 36 0 0 1-5.8 3.3 70 70 0 0 1-10 4.2zm19.6-10q.4-.5 1.2-.6l-1.2 1.2zm11-35.3-1.6 2.4v-4.5q.5-1.1.6-2.2l.6 2.8v.6q.4.4.3.9M81.7 22.7l-.3-.6q5.9.8 10.3 2.1-5-1-10-1.5M33 38.1a9 9 0 0 0-2.4 1.2l.3-.3 3-2.1-.8 1.2M20.6 48.7q.5-.5.6-.9-1 4.4-1.4 9.4.1.5-.4.9l-.2.6q-2.2 5.8-3.4 12v-1.1a56 56 0 0 1 2.7-17.9l.6-.9A76 76 0 0 0 18 59h.3a39 39 0 0 1 2.5-10.3m-.3 43.2v1.8q-.1-.5-.3-.6l-.7-1.8q1 .3 1 .6m1.8 5.8-1-5.2q1.9 1.6 4 3v4.3q-1.6-.8-3-2.1m6.3 9 1.5 3h-.9A23 23 0 0 1 28 105zm32 24.8 9.7 3h-.6a108 108 0 0 1-13.6 2.7l-2.1.3-1.8-.9a61 61 0 0 0 6.6-5.7zm-4.2 7.3q7-.8 14-2.2l4.5-.9c1.2.3 2 .6 3.3.6L73 140q-6.1.8-12.4.6l-3-1zm30.5.6q3.3-.9 6.4-2.2 2.7 0 5.4-.6a35 35 0 0 1-7.5 3.7q-4.2 1.3-8.8 2zm14.2-4.2q-2.1.5-4.2.6 2.4-1 4.8-2.4l4.3-2.7a23 23 0 0 1-4.9 4.5m19-18.1 1-1-1 1.9-1.7 1.5-.3.3q1.3-1.3 2-2.7M80 21.8l.6.6H80zM36.7 33.9c-1 .3-1.5.9-2.4 1.2l.3-.6q1.4-1 2.7-1.5c0 .3-.3.3-.6.9m-5.8 3-1.2 1zc.3-.3.3 0 0 0m-5.4 65.9.3 2.1-1.5-2.7zm2.1 9-.9-1.4h.3q.5.8.6 1.5M51 128.5q-2.7.4-5.2.3l-1.2-1.5-.3.3 1 1.5h-3.7l-.3-.3q-3.5-3.7-6.6-7.3l4.2.3a77 77 0 0 0 12 6.7m-4.8 1.8s.3.3.3.6q1.6.9 4 .9 3-.5 5.7-1.5h.3q-2.6 2.7-5.7 5.4a48 48 0 0 1-7.9-5.7zm-5.4-.6q.4.5 1 .6zM127 98.9a77 77 0 0 0 0-11.8 35 35 0 0 0 2.5-4.9q.2 5.7-.7 11.2-.4 3.3-1.2 6l-.3 1.6q-.4-.8-.3-2.1m-82.2-72q-2.2.8-4.5 2.2l3.3-2.8a32 32 0 0 1 5.8-1.5q-2.2.8-4.6 2.1m-8.1 4q-2.2 1.2-4 2.4L30 35.4a39 39 0 0 1 5.2-4.8 28 28 0 0 1 5.1-3zM11 74l.3-4.6a40 40 0 0 1 3-10.2A55 55 0 0 0 14 75q0 1.8.6 3.6v1l-2.1-3.4q-1.2-.6-1.5-2.1m16 35.3h-.6l-1-2zm4.2 6 1 .7.5.3 4.3 4h-3.6zm28.4 26.7 1.6.6c-.6-.3-1.6-.3-2.2-.6zm28.7 3.3h.6l-2.4.6q.9-.5 1.8-.6m29.4-20.3q2.6-2.7 4.2-6.3l-1 3.3-4.2 4.6zm7.8-9.6-1.2 2 .6-2.6q.8-1 2.1-2.1zm-.6-1.2.6-2.8 1.2-1.5c1-.9 1.5-1.8 2.4-3l-.6 1.5-1.5 3.3c-.3 1-1.2 1.5-2 2.5m2.6-45.7q.9 3.3 1.2 7l-.3 1.5a27 27 0 0 1-1.5 4.5q.2-4.4-.6-8.7l.3-1.2q.4-1.7 1-3-.5 0 0 0m-2.5-7.6v3q0-1-.3-2.1 0-1.6-.6-3l.6 1.8zM99.8 23c.3.3.6 1 1 1.2q-1.5-1-2.8-2.1 1.4.5 1.8.9m-52.2.3.6-.6q.5-.3.6-.6.5.3.6.6-.9.5-1.8.6m-27 22.4q-.2.5-.5.6 0-.3.3-.6l1.8-4.6q0 .9-.3 1.9c-.3 1-1 1.8-1.2 2.7M11 81.3l-.3-4.8.3.6a21 21 0 0 0 3 4.2v1.2l-.3-1.2h-.3l.6 2.1q-.4 3.3-.3 6.4l-2.4-4zm4.8 6 .3.4 2.7 7.8-2.7-2.7zm5.5 13.3q.8 1.3 1.5 3l.3 1.2 1.5 4c-.3-.7-1-1.3-1.2-1.9H23c.9.6 1.2 1.2 1.8 2.1q-.4 0-1-.3l-.8-1.8a27 27 0 0 1-2.1-7l.3.7m4.2 9.3q.5.4.6 1l1.8 3.3h-1.2q-1.4-2.1-2.4-4.3c.3-.3.9 0 1.2 0m3 4.9 1 1.2 1.1 3-1.2-1.8a8 8 0 0 1-2-2.4zm73.1 26.6 2.8-2.5 1.8-2a20 20 0 0 0 5.4-4.6c1-.6 1.5-1.2 2.4-2.1a31 31 0 0 0 4.9-4q-1.4 2-3 3.7-5 5.5-11.2 10.2l-1.5 1q-1 0-1.6.3m14.5-11.2q2-2 3.7-4.3c-1.2 2.8-2.1 5.2-3.6 7.6l-1.6 2.7c-2.7 1.5-5.7 2.4-8.4 3.6a76 76 0 0 0 10-9.6m17.5-31.5.9-2.7a66 66 0 0 0 2.5-7q1-3.2 1.5-6.4a83 83 0 0 1-4.8 17.6 1 1 0 0 0 0-1.2M95.9 19l-1.8-.6c-.3-.3-.6-1-1-1.2l-.8-1.3zM85 17.7q-.4 0 0 0-1.2-.6-2.4-.7l-3.6-.6q0-.6-.3-1.2v-.3c3.3.6 6.3 1.2 9.3 2.7zM77 16h-1l-1.2-1.5H77zm-23.6 4.6 9.7-2.1q4-.4 8.1-.3l-3 .6q-4.6 1.3-8.8 3h-.6q-2.7 0-5.4.3-1.3 0-2.7.6-.4-.5-1-.6.2 0 .4-.3zM16.7 49.3q-.8 1-1.5 1.5c.6-1.2 1.2-1.8 1.8-2.7q0 .8-.3 1.2m3.7 50.5q.6 4 2 7.5.1.4.7 1.2-.4 0-1-.3-1.1-1-2-2.4h-.3c.6 1 .9 2.1 2 3l1.3.3q1 2.3 2.4 4.6-1.9-.3-3.3-1.5l-.3.3q1.3 1.5 3.6 2h.3q1 2 2.1 3.7.9 1.4 1.8 2.1h-2.4v.3q1.3 0 3 .3 1.5 2 3.4 4c.5 1.2 1.4 2 2.4 3.3v.3h.3l5.4 6.3-4.5-3a101 101 0 0 1-8.5-7.5 55 55 0 0 1-10.6-20q-1-3.4-1.5-7zm95.8 36.8q1.9-.8 3.3-2-1.8 1.3-3.7 2.3.4-.2.3-.3m11.2-81.9.6 2.2.6 4.8q-.4-1.4-1.2-2.7c.3-1.5 0-3 0-4.3m-35-39.6-1.5-.9-3-3q1.3.6 2.4 1.5l3.9 3.7.3.3zm-85 44.7Q6.8 51 9.5 42.6a32 32 0 0 1 8.4-15l4.9-4.6 5.4-3q.8 0 2.1-.3c-2.7 4.2-5.1 9-6.3 14.2l-.6 2.4q-2.3 3.6-3.6 7.3-1.4 2.2-2.2 4.5A41 41 0 0 0 8 64.7l-.6-4.8m5.1 32.6 1.5 1.8q.6 4.4 1.5 9.4a61 61 0 0 1-3-10.6zm26.6 44.4q.6.5 1.2.6.9.5 1.8.6h-.3v.3l1.2.3c.3.3 1 .3 1.2.6q-.7.5-1.5.6zm7.9 6.4q-1.8-1-3-2.2.8-.4 1.7-.5a74 74 0 0 0 7.3 3q1.3.8 3 1.5l1.8.9-4.5.9h-.6c-2.1-1.5-4-2.4-5.7-3.6m6.3 3.6q2.8-.4 5.1-1c1 .4 1.5 1 2.5 1.3q-3.4.4-6.7.3zm21.5 6.3q-2.6 0-5.2-.6 3.7 0 7.3-.3 7.6-1 14.8-3.9a48 48 0 0 0 8.7-4.5q3.2-.5 5.8-1.8 3.2-.6 5.7-2.2l-2.4 2.8a35 35 0 0 1-9.4 6.6q-2.7 1.4-5.4 1.8c-1.8.3-4 .6-5.7 1.2v.3h.6-.3c-4.6 1-9.7 1-14.5.6m27.8-3.6-1.5.3a34 34 0 0 0 9.6-6.3c1.8-1.5 3-3.4 4.5-5.2a24 24 0 0 0 7.3-5.1l3.6-3c.3-.3 1-.6 1.2-1a50 50 0 0 1-24.7 20.3m40.2-68.9a45 45 0 0 1 .5 24.5 43 43 0 0 1-12.6 20l1.2-3.4q3.1-5.4 5.4-10.9a28 28 0 0 0 2.4-8.1q1.4-4.4 1-9.4a44 44 0 0 0-.4-10.9q0-1.8-.3-3.6l.3-3v-1.2q1.7 2.8 2.4 6m-39-65.6q7 3.2 13 7.6c7 5.1 12.8 11.5 16.4 19a29 29 0 0 1 1.8 7.3l1.8 9 .3 7.6v.3a32 32 0 0 0-2.7-7.5 37 37 0 0 0-5.5-11 34 34 0 0 0-6.9-10.8 39 39 0 0 0-10-14.2l-.3.3a36 36 0 0 1 5.8 9 28 28 0 0 0-4.3-4.2 37 37 0 0 1 4.6 5.2l2.7 6.6-3-2.7-.3.3 4.2 5.4a37 37 0 0 1 1.8 7.9l-.3-.3q-.3-.4-.6-.3-.6-.8-1.2-2.1a77 77 0 0 0-8.5-18.2q-3.1-4.9-7-9.3l-3.9-4.3-.9-.9q1.7-.3 3 .3m-14.1-4.8q4 1 7.5 2.4-.5 0-.6.3v.3q1.4-.4 2.7.6t2.1 1.8l3.7 4.6a70 70 0 0 1 5 7.7l-2.7-2.4a21 21 0 0 0-4.5-5.7 13 13 0 0 0-4.6-3.3q-1.3-.4-2.7-.3-.6-.4-1.2-1.3a23 23 0 0 0-4.2-3.3q-1.8-1-3.7-1.5-.4-.2-.3-.3l-.3-.3q1.8 0 3.7.6M78.4 6.7q1.7.9 3 1.8-2.1.4-4.2 1.2l-1.8-4.8a8 8 0 0 1 3 1.8M76 10l-1.2.3q-2.2.4-4.9.3l-1.2-.9A26 26 0 0 0 57.5 5h-3.9c1.5-1 3.3-1.2 4.8-1.5a10 10 0 0 1 6.7-.6h.3c2.1 0 4.5.3 6.3 1.5l2.1.6c1.2 1 1.6 3.2 2.2 5" clip-rule="evenodd"/><path fill="#ffd48c" d="m133.3 63.9-8-21.6L136 79zM108 50.2s1.8.5 4.4 1.8c-2.7-1.6-4.4-1.8-4.4-1.8m7.3 67.4a58 58 0 0 0 5.5-10 41 41 0 0 0 11-32C130.4 62.2 119 55 112.6 52a45 45 0 0 1 15.3 17c9.8 16.7-5.5 36.8-6.9 38.5a60 60 0 0 0-2.8-49.5 71 71 0 0 1-2.7 59.6m0 0-.6.9zm-2.7-24.5c1.8-27-13-50.8-13-50.8S111.2 65 110.5 92c-.6 26.6-22 36.9-22 36.9s22-8.5 24.2-35.7"/><path fill="#ffd48c" d="M103.9 18.2s23.6 29.9 25.7 49.2c0-1.4 1.2-25.6-25.7-49.2M28 56.8l-.6 3.4zm-.6 3.4a63 63 0 0 0 35.7 67s-44.7-11.6-35.7-67m-2 54.7s1 1.8 3.4 4.4zm52.3 17.6c.3 0-26.9 12.5-48.8-13 6 6.4 20.7 17 48.8 13m-13-103S27.8 34.1 16 68.8c0 0 3.3-36.6 48.6-39.6"/><path fill="#fcca8f" d="M13.4 112.5.7 89.2l2.1-13.3zm78.9-24L88 94.7v3zm23.9-69.1L103.5 8.8l7 8.2zM134.9 32l4.8 12-.9 3.4zm.6 95.8 4.8-7-10.3 9.4z"/><defs><linearGradient id="a" x1="58.7" x2="78.5" y1="114.9" y2="47.9" gradientUnits="userSpaceOnUse"><stop stop-color="#570a11"/><stop offset="1" stop-color="#553915"/></linearGradient><linearGradient id="b" x1="132.3" x2="25.9" y1="100.4" y2="77.5" gradientUnits="userSpaceOnUse"><stop stop-color="#8b4047"/><stop offset="1" stop-color="#b07c3b"/></linearGradient></defs></svg>