<?xml version="1.0" encoding="UTF-8" standalone="no"?>
<svg
   width="140"
   height="160"
   viewBox="0 0 140 160"
   fill="none"
   version="1.1"
   id="svg65"
   sodipodi:docname="player-accessory-meow.svg"
   inkscape:version="1.4.2 (ebf0e940d0, 2025-05-08)"
   xml:space="preserve"
   xmlns:inkscape="http://www.inkscape.org/namespaces/inkscape"
   xmlns:sodipodi="http://sodipodi.sourceforge.net/DTD/sodipodi-0.dtd"
   xmlns="http://www.w3.org/2000/svg"
   xmlns:svg="http://www.w3.org/2000/svg"><defs
     id="defs65" /><sodipodi:namedview
     id="namedview65"
     pagecolor="#ffffff"
     bordercolor="#000000"
     borderopacity="0.25"
     inkscape:showpageshadow="2"
     inkscape:pageopacity="0.0"
     inkscape:pagecheckerboard="0"
     inkscape:deskcolor="#d1d1d1"
     inkscape:zoom="2.534375"
     inkscape:cx="20.517879"
     inkscape:cy="91.738594"
     inkscape:window-width="1920"
     inkscape:window-height="1017"
     inkscape:window-x="0"
     inkscape:window-y="0"
     inkscape:window-maximized="1"
     inkscape:current-layer="g33" /><g
     id="g189"
     transform="translate(-330.57794,-212.67774)">
	<g
   id="g34"
   transform="matrix(0,-2.7656398,2.7656398,0,-1110.8505,1149.4171)">
		
		
		<g
   id="g33"
   transform="translate(155.46239,206.75709)">
			<path
   style="fill:#c2c4c6"
   d="m 177.799,340.203 c -0.202,-2.719 -0.495,-5.455 -0.938,-8.147 -0.403,-2.447 -0.991,-4.9 -2.056,-7.151 -1.067,-2.254 -2.615,-4.207 -4.624,-5.692 -1.922,-1.421 -4.163,-2.345 -6.447,-3.008 -0.535,-0.155 -1.074,-0.291 -1.616,-0.415 -0.02,-0.025 -0.047,-0.049 -0.085,-0.068 -0.154,-0.081 -0.306,-0.18 -0.47,-0.238 -0.203,-0.072 -0.417,-0.115 -0.626,-0.163 -0.388,-0.088 -0.777,-0.169 -1.168,-0.241 -0.768,-0.142 -1.541,-0.254 -2.319,-0.329 -1.576,-0.152 -3.166,-0.177 -4.747,-0.083 -0.467,0.027 -0.934,0.068 -1.401,0.119 -0.009,-0.017 -0.028,-0.027 -0.062,-0.021 -0.185,0.032 -0.37,0.064 -0.554,0.095 -0.731,0.096 -1.46,0.219 -2.184,0.37 -1.496,0.26 -2.985,0.55 -4.446,0.974 -2.283,0.663 -4.525,1.588 -6.447,3.008 -2.01,1.485 -3.557,3.438 -4.624,5.692 -1.065,2.25 -1.653,4.704 -2.056,7.151 -0.443,2.691 -0.736,5.427 -0.938,8.147 -0.218,2.924 -0.221,5.919 0.51,8.777 0.607,2.371 1.682,4.658 3.369,6.456 1.879,2.003 4.41,3.06 7.004,3.801 1.008,0.288 2.031,0.531 3.066,0.73 0.595,0.714 1.302,1.314 2.075,1.831 1.585,1.058 3.456,1.649 5.339,1.919 0.031,0.013 0.063,0.024 0.097,0.029 0.743,0.095 1.495,0.144 2.246,0.15 0.066,10e-4 0.132,10e-4 0.197,10e-4 0.066,0 0.132,0 0.198,-10e-4 0.751,-0.006 1.502,-0.056 2.246,-0.15 0.034,-0.004 0.066,-0.015 0.097,-0.029 1.884,-0.27 3.755,-0.86 5.339,-1.919 0.774,-0.517 1.481,-1.117 2.075,-1.831 1.034,-0.199 2.058,-0.442 3.066,-0.73 2.594,-0.741 5.125,-1.798 7.004,-3.801 1.687,-1.798 2.762,-4.085 3.369,-6.456 0.732,-2.858 0.728,-5.853 0.511,-8.777 z"
   id="path15" />
			<path
   style="fill:#9c5f31"
   d="m 151.303,314.786 c -0.01,-0.017 -0.028,-0.027 -0.062,-0.021 -0.185,0.032 -0.37,0.064 -0.554,0.095 -0.731,0.096 -1.46,0.219 -2.183,0.37 -0.674,0.117 -1.346,0.241 -2.016,0.38 -1.106,0.919 -2.172,1.889 -3.21,2.882 -0.753,0.72 -1.592,1.436 -2.135,2.335 -0.641,1.062 -0.647,2.211 -0.273,3.366 0.409,1.26 1.058,2.43 1.521,3.67 0.282,0.757 0.518,1.516 0.658,2.312 0.141,0.798 0.218,1.606 0.334,2.408 0.055,0.378 0.118,0.755 0.205,1.128 0.042,0.18 0.085,0.361 0.143,0.536 0.056,0.17 0.157,0.282 0.281,0.407 0.443,0.451 1.038,0.85 1.292,1.45 0.563,1.33 0.098,2.882 0.683,4.194 0.533,-0.161 1.066,-0.324 1.598,-0.491 2.187,-0.685 4.365,-1.402 6.594,-1.942 1.19,-0.288 2.391,-0.526 3.602,-0.704 1.163,-0.172 2.329,-0.25 3.503,-0.292 2.352,-0.084 4.725,-0.061 7.044,-0.517 1.986,-0.391 3.932,-1.154 5.509,-2.444 1.084,-0.887 1.99,-1.95 2.8,-3.091 -0.394,-2.031 -0.947,-4.042 -1.832,-5.912 -1.067,-2.254 -2.615,-4.207 -4.624,-5.692 -1.922,-1.421 -4.163,-2.345 -6.447,-3.008 -0.535,-0.155 -1.074,-0.291 -1.616,-0.415 -0.02,-0.025 -0.047,-0.049 -0.085,-0.068 -0.154,-0.081 -0.306,-0.18 -0.47,-0.238 -0.203,-0.072 -0.417,-0.115 -0.626,-0.163 -0.388,-0.088 -0.777,-0.169 -1.168,-0.241 -0.768,-0.142 -1.541,-0.254 -2.319,-0.329 -1.576,-0.152 -3.166,-0.177 -4.747,-0.083 -0.466,0.027 -0.933,0.067 -1.4,0.118 z"
   id="path16" />
			<path
   style="fill:#3c3d3f"
   d="m 131.641,337.538 c 0.491,0.223 1.018,0.399 1.56,0.43 0.495,0.029 0.946,-0.083 1.375,-0.33 0.763,-0.439 1.275,-1.188 1.7,-1.938 0.432,-0.763 0.788,-1.575 1.29,-2.297 0.227,-0.325 0.484,-0.632 0.797,-0.878 0.329,-0.26 0.7,-0.409 1.104,-0.512 0.815,-0.207 1.661,-0.192 2.495,-0.177 0.736,0.013 1.519,0.046 2.216,-0.23 0.806,-0.318 1.254,-1.072 1.497,-1.869 0.124,-0.406 0.208,-0.802 0.193,-1.227 -0.015,-0.438 -0.079,-0.874 -0.141,-1.308 -0.128,-0.893 -0.321,-1.826 -0.228,-2.73 0.033,-0.32 0.107,-0.65 0.324,-0.899 0.177,-0.204 0.416,-0.326 0.666,-0.417 0.757,-0.277 1.603,-0.335 2.4,-0.408 0.95,-0.087 1.906,-0.14 2.851,-0.28 0.395,-0.058 0.791,-0.13 1.172,-0.252 0.401,-0.128 0.775,-0.34 1.127,-0.567 0.753,-0.484 1.389,-1.141 1.759,-1.963 0.339,-0.754 0.426,-1.596 0.37,-2.415 -0.061,-0.898 -0.274,-1.779 -0.564,-2.638 -0.966,-0.033 -1.935,-0.026 -2.899,0.031 -0.467,0.027 -0.934,0.068 -1.401,0.119 -0.01,-0.017 -0.028,-0.027 -0.062,-0.021 -0.185,0.032 -0.37,0.064 -0.554,0.095 -0.731,0.096 -1.46,0.219 -2.183,0.37 -1.496,0.26 -2.985,0.55 -4.446,0.974 -2.283,0.663 -4.525,1.588 -6.447,3.008 -2.01,1.485 -3.557,3.438 -4.624,5.692 -1.065,2.25 -1.653,4.704 -2.056,7.151 -0.258,1.57 -0.464,3.156 -0.632,4.744 0.432,0.275 0.875,0.53 1.341,0.742 z"
   id="path17" />
			<path
   style="fill:#cb7c44"
   d="m 170.181,319.213 c -1.097,-0.811 -2.3,-1.456 -3.553,-1.987 -0.015,0.018 -0.031,0.036 -0.045,0.055 -0.607,0.808 -0.762,1.942 -0.884,2.915 -0.125,0.997 -0.156,2.006 -0.307,2.999 -0.012,0.077 -0.129,0.104 -0.178,0.047 -0.156,-0.185 -0.322,-0.369 -0.525,-0.505 -0.256,-0.171 -0.52,-0.203 -0.778,-0.023 -0.252,0.175 -0.439,0.44 -0.635,0.672 -0.447,0.53 -1.016,0.922 -1.694,1.101 -0.314,0.083 -0.639,0.087 -0.961,0.087 -0.487,10e-4 -0.969,0.039 -1.455,0.053 -0.889,0.026 -1.788,0.14 -2.627,0.446 -1.254,0.456 -2.186,1.377 -2.695,2.605 -0.525,1.267 -0.661,2.669 -0.787,4.022 -0.137,1.474 -0.236,2.958 -0.574,4.403 -0.013,0.056 -0.077,0.089 -0.131,0.074 -0.694,-0.197 -1.429,-0.369 -2.155,-0.31 -0.424,0.035 -0.839,0.173 -1.161,0.457 -0.323,0.284 -0.537,0.667 -0.707,1.057 -0.475,1.095 -0.715,2.292 -1.07,3.429 0.943,0.337 1.91,0.613 2.885,0.84 0.984,0.229 1.998,0.426 3.012,0.431 0.386,0.002 0.791,-0.017 1.153,-0.162 0.419,-0.168 0.783,-0.443 1.091,-0.769 1.206,-1.281 1.579,-3.248 3.081,-4.266 0.055,-0.037 0.143,-0.001 0.156,0.064 0.147,0.701 0.466,1.44 0.955,1.977 0.822,-0.737 1.324,-1.758 2.169,-2.475 0.046,-0.039 0.137,-0.046 0.167,0.021 0.077,0.176 0.148,0.355 0.215,0.535 0.336,0.899 0.61,1.828 1.062,2.679 0.208,0.391 0.454,0.777 0.793,1.069 0.305,0.262 0.701,0.402 1.099,0.446 1.656,0.184 2.835,-1.549 3.663,-2.723 0.903,-1.281 1.787,-2.897 3.479,-3.197 0.806,-0.143 1.542,0.155 2.261,0.487 0.908,0.419 1.811,0.779 2.826,0.801 0.047,0.001 0.095,-0.002 0.142,-0.002 -0.163,-1.51 -0.361,-3.017 -0.607,-4.51 -0.403,-2.447 -0.991,-4.9 -2.056,-7.151 -1.067,-2.254 -2.614,-4.206 -4.624,-5.692 z"
   id="path18" />
			<path
   style="fill:#c2c4c6"
   d="m 150.295,346.243 c -0.174,-0.485 -0.37,-0.966 -0.54,-1.454 -0.153,-0.222 -0.329,-0.428 -0.531,-0.617 -0.702,0.564 -1.363,1.183 -1.937,1.878 -0.924,1.12 -1.605,2.454 -1.791,3.905 -0.195,1.519 0.155,3.038 0.777,4.422 0.661,-0.434 1.268,-0.952 1.833,-1.503 0.598,-0.583 1.155,-1.214 1.633,-1.899 0.431,-0.618 0.819,-1.295 1.007,-2.03 0.109,-0.427 0.029,-0.93 -0.057,-1.355 -0.093,-0.459 -0.236,-0.906 -0.394,-1.347 z"
   id="path19" />
			<path
   style="opacity:0.59;fill:#bcbec0"
   d="m 177.799,340.203 c -0.202,-2.719 -0.495,-5.455 -0.938,-8.147 -0.403,-2.447 -0.991,-4.9 -2.056,-7.151 -1.067,-2.254 -2.615,-4.207 -4.624,-5.692 -1.922,-1.421 -4.163,-2.345 -6.447,-3.008 -0.535,-0.155 -1.074,-0.291 -1.616,-0.415 -0.02,-0.025 -0.047,-0.049 -0.085,-0.068 -0.154,-0.081 -0.306,-0.18 -0.47,-0.238 -0.203,-0.072 -0.417,-0.115 -0.626,-0.163 -0.388,-0.088 -0.777,-0.169 -1.168,-0.241 -0.768,-0.142 -1.541,-0.254 -2.319,-0.329 -1.576,-0.152 -3.166,-0.177 -4.747,-0.083 -0.467,0.027 -0.934,0.068 -1.401,0.119 -0.009,-0.017 -0.028,-0.027 -0.062,-0.021 -0.185,0.032 -0.37,0.064 -0.554,0.095 -0.731,0.096 -1.46,0.219 -2.184,0.37 -1.496,0.26 -2.985,0.55 -4.446,0.974 -2.283,0.663 -4.525,1.588 -6.447,3.008 -2.01,1.485 -3.557,3.438 -4.624,5.692 -1.065,2.25 -1.653,4.704 -2.056,7.151 -0.443,2.691 -0.736,5.427 -0.938,8.147 -0.218,2.924 -0.221,5.919 0.51,8.777 0.607,2.371 1.682,4.658 3.369,6.456 1.879,2.003 4.41,3.059 7.004,3.801 1.008,0.288 2.031,0.531 3.066,0.73 0.595,0.714 1.302,1.314 2.075,1.831 1.585,1.058 3.456,1.649 5.339,1.919 0.031,0.013 0.063,0.024 0.097,0.029 0.744,0.095 1.495,0.144 2.246,0.15 0.066,10e-4 0.132,10e-4 0.197,10e-4 0.066,0 0.132,0 0.198,-10e-4 0.751,-0.006 1.502,-0.056 2.246,-0.15 0.034,-0.004 0.066,-0.015 0.097,-0.029 1.884,-0.27 3.755,-0.86 5.339,-1.919 0.774,-0.517 1.481,-1.117 2.075,-1.831 1.034,-0.199 2.058,-0.442 3.066,-0.73 2.594,-0.741 5.125,-1.798 7.004,-3.801 1.687,-1.798 2.762,-4.085 3.369,-6.456 0.732,-2.858 0.728,-5.853 0.511,-8.777 z m -5.222,-2.501 c -0.064,0.077 -0.175,0.007 -0.182,-0.075 -0.049,-0.652 0.056,-1.294 0.193,-1.934 -0.276,0.742 -0.616,1.465 -1.044,2.129 -0.498,0.773 -1.141,1.508 -1.991,1.898 -0.082,0.038 -0.181,-0.024 -0.156,-0.12 0.105,-0.415 0.229,-0.825 0.356,-1.233 -0.068,0.099 -0.132,0.199 -0.202,0.297 -1.34,1.882 -2.954,3.54 -4.628,5.124 -0.465,0.44 -0.934,0.871 -1.349,1.36 -0.404,0.475 -0.765,0.984 -1.107,1.505 -0.68,1.033 -1.305,2.102 -2.097,3.056 -0.058,0.07 -0.188,0.013 -0.182,-0.075 0.087,-1.169 0.389,-2.306 0.619,-3.454 -0.025,0.063 -0.048,0.127 -0.073,0.19 -0.321,0.806 -0.669,1.606 -1.094,2.363 -0.387,0.689 -0.846,1.381 -1.471,1.877 -0.08,0.064 -0.204,0.007 -0.178,-0.104 0.217,-0.908 0.455,-1.813 0.673,-2.723 -0.165,0.262 -0.334,0.521 -0.515,0.772 -0.486,0.678 -1.03,1.329 -1.681,1.854 -0.063,0.051 -0.192,0.027 -0.182,-0.075 0.189,-1.766 0.704,-3.482 0.863,-5.251 -0.162,0.278 -0.321,0.558 -0.476,0.841 -0.801,1.469 -1.525,2.991 -2.491,4.364 -0.056,0.08 -0.204,0.06 -0.198,-0.054 0.077,-1.536 0.148,-3.076 0.316,-4.606 -0.642,1.822 -1.281,3.645 -2.009,5.435 -0.038,0.094 -0.172,0.107 -0.205,0 -0.416,-1.342 -0.567,-2.758 -0.998,-4.093 0.128,1.251 0.188,2.508 0.106,3.765 -0.007,0.103 -0.142,0.148 -0.198,0.054 -0.45,-0.753 -0.843,-1.536 -1.201,-2.335 0.201,1.652 0.518,3.288 1.095,4.855 0.032,0.087 -0.082,0.168 -0.156,0.12 -0.528,-0.34 -1.009,-0.748 -1.432,-1.212 -1.323,-1.449 -2.028,-3.296 -2.897,-5.029 0.161,0.94 0.326,1.879 0.483,2.819 0.019,0.112 -0.134,0.196 -0.194,0.082 -0.185,-0.348 -0.344,-0.708 -0.497,-1.071 -0.279,-0.659 -0.542,-1.368 -0.882,-2.025 0.332,1.12 0.552,2.27 0.677,3.442 0.014,0.13 -0.169,0.128 -0.209,0.028 -0.059,-0.146 -0.122,-0.29 -0.191,-0.431 -0.581,-1.203 -1.47,-2.228 -2.427,-3.147 -1.037,-0.996 -2.171,-1.884 -3.294,-2.779 -1.114,-0.888 -2.232,-1.78 -3.238,-2.792 -0.914,-0.92 -1.748,-1.955 -2.259,-3.157 -0.319,-0.75 -0.486,-1.537 -0.514,-2.335 -0.139,0.708 -0.261,1.421 -0.38,2.133 -0.019,0.116 -0.171,0.085 -0.205,0 -0.38,-0.936 -0.477,-1.978 -0.429,-2.98 0.027,-0.568 0.102,-1.137 0.229,-1.694 -0.17,0.333 -0.362,0.651 -0.623,0.918 -0.062,0.064 -0.186,0.018 -0.181,-0.075 0.089,-1.656 0.655,-3.276 1.473,-4.725 -0.289,0.34 -0.577,0.681 -0.891,0.998 -0.08,0.081 -0.195,-0.004 -0.178,-0.103 0.206,-1.177 0.581,-2.318 1.076,-3.405 0.916,-2.011 2.237,-3.837 3.792,-5.403 1.225,-1.234 2.616,-2.319 4.136,-3.171 1.214,-0.874 2.592,-1.482 4.036,-1.877 1.99,-0.545 4.08,-0.685 6.135,-0.635 1.979,0.048 3.969,0.265 5.917,0.619 1.805,0.328 3.58,0.837 5.268,1.56 1.674,0.717 3.257,1.651 4.658,2.817 1.31,1.09 2.451,2.392 3.377,3.823 0.854,1.319 1.53,2.762 2.033,4.249 0.517,1.529 0.863,3.152 0.827,4.773 -0.034,1.456 -0.411,2.918 -1.353,4.058 z"
   id="path20" />
			<path
   style="opacity:0.59;fill:#bcbec0"
   d="m 177.799,340.203 c -0.078,-1.053 -0.171,-2.108 -0.279,-3.162 -0.07,0.572 -0.157,1.143 -0.257,1.715 -0.391,2.229 -0.984,4.93 -3.006,6.267 -0.049,0.032 -0.117,0.009 -0.146,-0.038 -0.107,-0.173 -0.202,-0.353 -0.288,-0.537 -0.355,-0.759 -0.572,-1.577 -0.949,-2.326 -0.334,-0.665 -0.835,-1.234 -1.638,-1.208 -0.901,0.03 -1.776,0.607 -2.487,1.109 -0.859,0.606 -1.648,1.31 -2.408,2.034 -1.238,1.181 -2.481,2.388 -3.597,3.685 -0.592,0.688 -1.171,1.421 -1.565,2.243 -0.155,0.323 -0.286,0.676 -0.308,1.036 -0.024,0.389 0.103,0.791 0.234,1.152 0.291,0.801 0.804,1.49 1.147,2.265 0.389,0.878 0.448,1.793 0.245,2.729 -0.023,0.107 -0.176,0.095 -0.205,0 -0.353,-1.147 -0.684,-2.326 -1.262,-3.384 0.044,0.671 0.097,1.341 0.149,2.012 0.167,2.144 0.284,4.341 -0.138,6.446 0.249,-0.138 0.495,-0.283 0.733,-0.442 0.774,-0.517 1.481,-1.117 2.075,-1.831 1.034,-0.199 2.058,-0.442 3.066,-0.73 2.594,-0.741 5.125,-1.798 7.004,-3.801 1.687,-1.798 2.762,-4.085 3.369,-6.456 0.732,-2.859 0.728,-5.854 0.511,-8.778 z"
   id="path21" />
			<path
   style="opacity:0.59;fill:#bcbec0"
   d="m 146.454,360.33 c -0.526,-1.955 -0.72,-4.092 -0.201,-6.071 -0.38,0.469 -0.664,1.001 -0.849,1.585 -0.225,0.712 -0.32,1.457 -0.413,2.195 -0.009,0.073 -0.086,0.142 -0.16,0.092 -0.376,-0.253 -0.784,-0.544 -1.012,-0.947 -0.29,-0.512 -0.069,-1.02 0.205,-1.483 0.351,-0.594 0.689,-1.165 0.872,-1.822 -0.712,0.728 -1.412,1.479 -2.259,2.05 -0.094,0.064 -0.19,-0.057 -0.145,-0.145 0.449,-0.887 1.113,-1.647 1.653,-2.477 0.529,-0.814 0.999,-1.753 0.852,-2.746 -0.239,0.047 -0.477,0.094 -0.715,0.145 -1.77,0.377 -3.643,0.992 -5.468,0.652 -2.057,-0.383 -3.653,-2.014 -4.876,-3.608 -1.348,-1.756 -2.328,-3.776 -2.98,-5.887 -0.369,-1.195 -0.63,-2.422 -0.8,-3.662 -0.061,0.668 -0.117,1.336 -0.166,2.002 -0.218,2.924 -0.221,5.919 0.51,8.777 0.607,2.371 1.682,4.658 3.369,6.456 1.879,2.003 4.41,3.059 7.004,3.801 1.008,0.288 2.031,0.531 3.066,0.73 0.595,0.714 1.302,1.314 2.075,1.831 0.378,0.252 0.773,0.476 1.179,0.677 -0.294,-0.699 -0.545,-1.417 -0.741,-2.145 z"
   id="path22" />
			<path
   style="fill:#3c3d3f"
   d="m 145.939,350.913 c -0.348,-0.59 -0.695,-1.181 -1.044,-1.771 -0.343,-0.58 -0.748,-1.118 -1.134,-1.669 -0.092,-0.132 -3.167,-3.08 -4.827,-4.253 -1.388,-0.98 -2.892,-1.792 -4.485,-2.387 -0.813,-0.303 -1.862,-0.754 -2.421,0.206 -0.237,0.408 -0.372,0.891 -0.526,1.335 -0.163,0.47 -0.315,0.943 -0.458,1.419 -1.164,3.87 -1.626,7.942 -1.356,11.975 0.069,1.024 0.185,2.046 0.349,3.059 0.08,0.491 0.171,0.98 0.274,1.466 0.085,0.403 0.145,0.853 0.337,1.223 0.191,0.368 0.527,0.606 0.954,0.564 0.484,-0.048 0.919,-0.375 1.325,-0.615 0.856,-0.505 1.699,-1.03 2.53,-1.576 3.329,-2.184 6.448,-4.695 9.306,-7.466 0.351,-0.341 0.698,-0.686 1.042,-1.034 0.105,-0.105 0.223,-0.325 0.134,-0.476 z"
   id="path23" />
			<path
   style="opacity:0.53;fill:#c2c4c6"
   d="m 130.787,358.931 c 0.059,-0.922 0.172,-1.84 0.332,-2.75 -0.12,0.388 -0.237,0.776 -0.365,1.161 -0.03,0.089 -0.189,0.112 -0.205,0 -0.1,-0.712 -0.136,-1.431 -0.121,-2.149 0.05,-2.309 0.569,-4.575 1.114,-6.813 -0.19,0.396 -0.38,0.791 -0.665,1.13 -0.061,0.073 -0.182,0.011 -0.181,-0.075 0.001,-0.749 0.065,-1.497 0.161,-2.239 0.211,-1.63 0.569,-3.26 1.168,-4.793 0.255,-0.653 0.563,-1.332 0.961,-1.943 -0.372,0.01 -0.712,0.159 -0.957,0.58 -0.237,0.408 -0.372,0.891 -0.526,1.335 -0.163,0.47 -0.315,0.943 -0.458,1.419 -1.164,3.87 -1.626,7.942 -1.356,11.975 0.069,1.024 0.185,2.046 0.349,3.059 0.08,0.491 0.171,0.98 0.274,1.466 0.085,0.403 0.145,0.853 0.337,1.223 0.041,0.079 0.09,0.151 0.145,0.217 -0.072,-0.934 -0.067,-1.872 -0.007,-2.803 z"
   id="path24" />
			<path
   style="opacity:0.59;fill:#d8ad8c"
   d="m 145.939,350.913 c -0.348,-0.59 -0.695,-1.181 -1.044,-1.771 -0.343,-0.58 -0.748,-1.118 -1.134,-1.669 -0.092,-0.132 -3.167,-3.08 -4.827,-4.253 -1.388,-0.98 -2.892,-1.792 -4.485,-2.387 -0.795,-0.297 -1.816,-0.731 -2.383,0.15 0.431,-0.147 0.889,-0.213 1.351,-0.185 0.835,0.051 1.635,0.362 2.355,0.775 1.664,0.955 3.026,2.431 4.147,3.968 0.524,0.718 1.003,1.472 1.408,2.264 0.417,0.817 0.846,1.744 0.745,2.681 -0.062,0.573 -0.299,1.101 -0.606,1.583 -0.344,0.541 -0.748,1.067 -1.173,1.547 -0.904,1.022 -1.854,2.002 -2.784,3 -1.215,1.303 -2.414,2.652 -3.406,4.135 0.455,-0.282 0.907,-0.569 1.355,-0.863 3.329,-2.184 6.448,-4.695 9.306,-7.466 0.351,-0.341 0.698,-0.686 1.042,-1.034 0.104,-0.104 0.222,-0.324 0.133,-0.475 z"
   id="path25" />
			<path
   style="fill:#cb7c44"
   d="m 161.521,351.389 c 0.344,0.348 0.691,0.693 1.042,1.034 2.858,2.772 5.977,5.283 9.306,7.466 0.831,0.545 1.675,1.07 2.53,1.576 0.407,0.24 0.842,0.567 1.325,0.615 0.427,0.042 0.764,-0.196 0.954,-0.564 0.192,-0.37 0.252,-0.82 0.337,-1.223 0.103,-0.486 0.195,-0.975 0.274,-1.466 0.164,-1.014 0.281,-2.035 0.349,-3.059 0.27,-4.033 -0.191,-8.104 -1.356,-11.975 -0.143,-0.476 -0.295,-0.949 -0.458,-1.419 -0.154,-0.443 -0.289,-0.927 -0.526,-1.335 -0.559,-0.96 -1.608,-0.509 -2.421,-0.206 -1.593,0.595 -3.097,1.406 -4.485,2.387 -1.66,1.173 -4.735,4.121 -4.827,4.253 -0.386,0.551 -0.791,1.089 -1.134,1.669 -0.349,0.59 -0.696,1.181 -1.044,1.771 -0.088,0.151 0.03,0.371 0.134,0.476 z"
   id="path26" />
			<path
   style="opacity:0.53;fill:#c2c4c6"
   d="m 176.284,343.792 c -0.143,-0.476 -0.295,-0.949 -0.458,-1.419 -0.154,-0.443 -0.289,-0.927 -0.526,-1.335 -0.559,-0.96 -1.608,-0.509 -2.421,-0.206 -0.912,0.341 -1.794,0.755 -2.642,1.228 0.051,-0.015 0.102,-0.034 0.154,-0.046 0.893,-0.218 1.855,-0.12 2.668,0.314 0.863,0.461 1.469,1.269 1.747,2.199 0.029,0.098 -0.108,0.186 -0.178,0.103 -0.132,-0.157 -0.28,-0.296 -0.432,-0.431 0.022,0.031 0.045,0.062 0.066,0.094 0.425,0.635 0.759,1.332 1.011,2.053 0.237,0.679 0.402,1.391 0.437,2.111 0.004,0.085 -0.092,0.127 -0.16,0.092 -0.13,-0.067 -0.248,-0.149 -0.362,-0.239 0.401,0.816 0.707,1.681 0.939,2.56 0.245,0.929 0.416,1.882 0.484,2.841 0.006,0.09 -0.123,0.143 -0.182,0.075 -0.174,-0.202 -0.32,-0.421 -0.456,-0.647 0.143,0.416 0.271,0.837 0.381,1.261 0.474,1.829 0.699,3.729 0.717,5.619 0.08,-0.396 0.155,-0.794 0.22,-1.193 0.164,-1.014 0.281,-2.035 0.349,-3.059 0.27,-4.033 -0.192,-8.104 -1.356,-11.975 z"
   id="path27" />
			<path
   style="opacity:0.59;fill:#d8ad8c"
   d="m 171.181,357.146 c -0.428,-0.478 -0.85,-0.963 -1.257,-1.459 -0.313,-0.381 -0.616,-0.768 -0.941,-1.138 -0.677,-0.77 -1.378,-1.521 -1.984,-2.35 -0.572,-0.783 -1.098,-1.67 -1.219,-2.649 -0.115,-0.93 0.257,-1.822 0.759,-2.586 0.582,-0.886 1.342,-1.65 2.13,-2.353 0.773,-0.69 1.593,-1.323 2.412,-1.957 0.822,-0.636 1.621,-1.33 2.538,-1.828 0.265,-0.143 0.542,-0.269 0.829,-0.361 -0.503,-0.052 -1.078,0.183 -1.569,0.366 -1.593,0.595 -3.097,1.406 -4.485,2.387 -1.66,1.173 -4.735,4.121 -4.827,4.253 -0.386,0.551 -0.791,1.089 -1.134,1.669 -0.349,0.59 -0.696,1.181 -1.044,1.771 -0.089,0.151 0.029,0.371 0.133,0.476 0.344,0.348 0.691,0.693 1.042,1.034 2.858,2.772 5.977,5.283 9.306,7.466 0.831,0.545 1.675,1.07 2.53,1.576 0.347,0.205 0.715,0.472 1.116,0.576 -1.343,-1.715 -2.884,-3.271 -4.335,-4.893 z"
   id="path28" />
			<g
   id="g30">
				<path
   style="fill:#3f4143"
   d="m 157.114,363.447 c -0.038,-0.018 -0.077,-0.032 -0.116,-0.048 -0.004,-0.002 -0.006,-0.005 -0.01,-0.007 -0.011,-0.004 -0.023,-0.008 -0.034,-0.012 -0.201,-0.079 -0.409,-0.135 -0.619,-0.165 -0.279,-0.052 -0.564,-0.081 -0.851,-0.108 -0.557,-0.054 -1.12,-0.072 -1.679,-0.069 -1.092,0.007 -2.209,0.084 -3.28,0.31 -0.208,0.044 -0.497,0.391 -0.218,0.545 1.051,0.582 2.159,0.945 3.371,0.951 1.187,0.006 2.345,-0.303 3.364,-0.912 0.146,-0.088 0.286,-0.387 0.072,-0.485 z"
   id="path29" />
				<path
   style="fill:#3f4143"
   d="m 155.197,363.692 c -0.023,-0.01 -0.046,-0.019 -0.069,-0.029 -0.002,-0.001 -0.003,-0.003 -0.006,-0.004 -0.007,-0.003 -0.014,-0.004 -0.02,-0.007 -0.119,-0.047 -0.242,-0.08 -0.366,-0.097 -0.165,-0.03 -0.333,-0.048 -0.503,-0.064 -0.329,-0.032 -0.662,-0.043 -0.993,-0.041 -0.646,0.004 -1.306,0.05 -1.939,0.183 -0.123,0.026 -0.294,0.231 -0.129,0.322 0.621,0.344 1.276,0.559 1.993,0.562 0.701,0.003 1.386,-0.179 1.989,-0.539 0.086,-0.051 0.169,-0.228 0.043,-0.286 z"
   id="path30" />
			</g>
			<path
   style="fill:#c2c4c6"
   d="m 158.374,356.18 c -0.099,-0.27 -0.456,-0.014 -0.524,0.138 -0.074,0.167 -0.141,0.338 -0.199,0.511 -0.198,-0.667 -0.552,-1.333 -1.277,-1.508 -0.157,-0.038 -0.361,0.128 -0.404,0.268 -0.014,0.046 -0.028,0.092 -0.042,0.138 -0.177,-0.461 -0.411,-0.903 -0.699,-1.313 -0.146,-0.208 -0.453,0.064 -0.516,0.202 -0.276,0.604 -0.429,1.273 -0.506,1.944 -0.256,-0.408 -0.556,-0.788 -0.898,-1.127 -0.194,-0.192 -0.4,-0.37 -0.618,-0.534 -0.215,-0.161 -0.444,-0.345 -0.716,-0.395 -0.708,-0.129 -0.875,0.707 -0.98,1.215 -0.016,0.076 -0.025,0.153 -0.038,0.229 -0.224,-0.623 -0.523,-1.217 -0.888,-1.744 -0.076,-0.109 -0.25,0.031 -0.279,0.109 -0.061,0.163 -0.113,0.327 -0.161,0.493 -0.084,-0.057 -0.168,-0.098 -0.252,-0.118 -0.162,-0.133 -0.328,-0.262 -0.499,-0.394 -0.135,-0.104 -0.302,-0.02 -0.391,0.105 -0.763,1.074 -1.192,2.361 -1.297,3.671 -0.102,1.265 0.063,2.677 0.682,3.804 0.155,0.281 0.508,-0.039 0.505,-0.259 -0.004,-0.289 0.017,-0.581 0.052,-0.871 0.081,0.343 0.202,0.679 0.372,1.005 0.102,0.196 0.367,0.002 0.391,-0.151 0.018,-0.119 0.034,-0.239 0.052,-0.358 0.02,0.061 0.037,0.123 0.061,0.183 0.137,0.352 0.372,0.911 0.8,0.986 0.459,0.08 0.578,-0.404 0.642,-0.746 0.03,-0.163 0.058,-0.326 0.087,-0.489 0.061,0.161 0.137,0.316 0.238,0.456 0.379,0.529 0.984,0.56 1.557,0.341 0.39,-0.149 0.75,-0.374 1.077,-0.648 -0.032,0.099 -0.066,0.197 -0.097,0.296 -0.071,0.224 0.13,0.347 0.32,0.228 0.42,-0.262 0.808,-0.579 1.153,-0.938 -0.093,0.287 -0.186,0.574 -0.283,0.86 -0.031,0.092 -0.031,0.231 0.079,0.274 0.734,0.285 1.457,-0.196 1.913,-0.75 0.413,-0.503 0.702,-1.108 0.875,-1.736 0.008,0.056 0.017,0.112 0.028,0.167 0.038,0.33 0.077,0.659 0.115,0.989 0.041,0.353 0.538,0.153 0.606,-0.084 0.404,-1.419 0.472,-3.043 -0.041,-4.449 z m -7.058,1.019 c -0.011,-0.029 -0.025,-0.057 -0.037,-0.086 -0.014,-0.074 -0.033,-0.147 -0.049,-0.22 0.004,-0.041 0.007,-0.081 0.012,-0.122 0.003,0.01 0.003,0.019 0.006,0.029 0.021,0.076 0.061,0.123 0.11,0.149 0,0.034 0.002,0.067 0.003,0.1 -0.015,0.05 -0.03,0.1 -0.045,0.15 z"
   id="path31" />
			<path
   style="opacity:0.53;fill:#c4c3b7"
   d="m 165.588,321.318 c -0.825,-1.5 -2.483,-2.178 -4.032,-2.678 -1.983,-0.64 -4.023,-1.097 -6.09,-1.358 -3.469,-0.438 -7.169,-0.428 -10.476,0.838 -0.553,0.212 -1.083,0.464 -1.591,0.749 -2.026,0.911 -3.818,2.272 -5.246,4.021 -0.555,0.679 -1.043,1.409 -1.461,2.18 -0.141,0.261 0.12,0.436 0.331,0.232 0.63,-0.613 1.297,-1.176 1.996,-1.697 -1.81,2.171 -3.092,4.747 -3.657,7.535 -0.052,0.257 0.289,0.187 0.38,0.05 0.213,-0.32 0.427,-0.64 0.641,-0.96 -0.501,1.444 -0.712,2.983 -0.554,4.516 0.026,0.255 0.37,0.097 0.424,-0.059 0.002,-0.005 0.004,-0.01 0.005,-0.015 -0.003,0.719 0.103,1.442 0.326,2.146 0.053,0.166 0.301,0.048 0.356,-0.049 0.174,-0.311 0.322,-0.631 0.446,-0.959 0.255,2.737 1.895,5.134 3.782,7.112 0.642,0.672 1.314,1.314 1.986,1.955 0.173,0.165 0.479,-0.121 0.393,-0.317 -0.37,-0.851 -0.704,-1.717 -0.999,-2.595 0.218,0.339 0.449,0.67 0.699,0.99 0.146,0.187 0.475,-0.105 0.437,-0.286 -0.675,-3.165 -1.209,-6.576 -0.247,-9.713 0.076,0.863 0.265,1.719 0.575,2.536 0.084,0.221 0.4,-0.008 0.416,-0.161 0.17,-1.624 0.465,-3.229 0.905,-4.798 0.045,0.839 0.162,1.672 0.354,2.494 0.074,0.318 0.438,0.071 0.49,-0.128 0.729,-2.803 1.594,-5.7 3.308,-8.076 -0.296,0.753 -0.551,1.523 -0.756,2.31 -0.064,0.246 0.259,0.213 0.372,0.109 1.229,-1.124 2.426,-2.284 3.618,-3.448 -0.742,1.053 -1.539,2.067 -2.395,3.031 -0.142,0.16 -0.148,0.425 0.118,0.419 2.146,-0.045 3.974,-1.228 5.507,-2.695 -0.159,0.59 -0.31,1.185 -0.509,1.762 -0.091,0.264 0.221,0.38 0.387,0.184 0.544,-0.643 1.053,-1.321 1.559,-1.999 -0.113,0.674 -0.227,1.348 -0.34,2.022 -0.059,0.353 0.393,0.261 0.522,0.068 0.428,-0.638 0.803,-1.31 1.123,-2.007 0.049,0.66 0.063,1.322 0.031,1.985 -0.02,0.404 0.473,0.261 0.582,-0.005 0.143,-0.35 0.265,-0.708 0.369,-1.071 0.014,-0.015 0.027,-0.032 0.039,-0.052 0.72,-1.228 0.731,-2.758 0.08,-3.991 1.226,0.53 2.304,1.384 3.092,2.468 0.167,0.23 0.497,-0.134 0.485,-0.317 -0.069,-1.023 -0.496,-1.996 -1.167,-2.758 0.974,0.313 1.948,0.627 2.924,0.936 0.226,0.071 0.603,-0.198 0.462,-0.456 z"
   id="path32" />
			<path
   style="opacity:0.53;fill:#c2c4c6"
   d="m 171.348,329.721 c -0.046,-0.215 -0.097,-0.431 -0.153,-0.645 0.016,-0.028 0.027,-0.057 0.028,-0.086 0.127,-2.507 -1.585,-4.909 -3.788,-5.988 -0.261,-0.128 -0.557,0.224 -0.473,0.468 1.282,3.731 2.523,7.47 3.618,11.26 0.074,0.257 0.43,0.05 0.516,-0.071 0.483,-0.682 0.54,-1.519 0.534,-2.329 -0.007,-0.877 -0.1,-1.751 -0.282,-2.609 z"
   id="path33" />
		</g>
	</g>
	
	
	
</g></svg>
