<?xml version="1.0" encoding="UTF-8" standalone="no"?>
<!-- Generator: Adobe Illustrator 27.5.0, SVG Export Plug-In . SVG Version: 6.00 Build 0)  -->

<svg
   version="1.1"
   id="Layer_1"
   x="0px"
   y="0px"
   viewBox="0 0 224.99999 190"
   xml:space="preserve"
   sodipodi:docname="player-accessory-outfitWolf.svg"
   inkscape:version="1.4.2 (f4327f4, 2025-05-13)"
   width="225"
   height="190"
   xmlns:inkscape="http://www.inkscape.org/namespaces/inkscape"
   xmlns:sodipodi="http://sodipodi.sourceforge.net/DTD/sodipodi-0.dtd"
   xmlns="http://www.w3.org/2000/svg"
   xmlns:svg="http://www.w3.org/2000/svg"><defs
   id="defs20" /><sodipodi:namedview
   id="namedview20"
   pagecolor="#ffffff"
   bordercolor="#000000"
   borderopacity="0.25"
   inkscape:showpageshadow="2"
   inkscape:pageopacity="0.0"
   inkscape:pagecheckerboard="0"
   inkscape:deskcolor="#d1d1d1"
   inkscape:zoom="1.8467011"
   inkscape:cx="141.87461"
   inkscape:cy="130.23223"
   inkscape:window-width="1920"
   inkscape:window-height="991"
   inkscape:window-x="-9"
   inkscape:window-y="-9"
   inkscape:window-maximized="1"
   inkscape:current-layer="g19" />
<g
   id="g20">
	<path
   style="fill:#bbb3b9;fill-opacity:1;stroke-width:0.091535"
   d="M 75.899778,6.3828285 C 73.84247,7.1694482 72.168882,8.6823649 70.584773,10.164596 64.251965,16.090443 58.777899,22.863251 53.693697,29.870991 48.612711,36.874003 43.90044,44.1343 39.012177,51.270919 c -2.446184,3.57135 -4.936489,7.121005 -7.570204,10.557425 -1.224515,1.597644 -2.647671,3.191014 -4.49798,4.066582 -1.70843,0.808389 -3.868195,0.909282 -5.419796,-0.292298 -0.818969,-0.634215 -2.028927,0.676482 -1.40616,1.469858 0.75716,0.964546 1.686096,1.820672 2.699665,2.569121 -0.829618,-0.06707 -1.659336,-0.13461 -2.488839,-0.200516 -0.649382,-0.05157 -1.745823,1.048963 -1.026583,1.625782 1.342073,1.076233 2.7707,2.027717 4.250387,2.894958 -2.651253,-0.106924 -5.27414,-0.485483 -7.890323,-1.055763 -0.80367,-0.17527 -1.531609,1.125517 -0.791956,1.608435 2.10771,1.375812 4.297792,2.612208 6.550687,3.72241 -2.067458,1.013831 -3.993089,2.310754 -5.67925,3.899135 -0.568151,0.535081 0.127516,1.507413 0.696134,1.69033 0.831475,0.267541 1.698079,0.461723 2.575508,0.568847 -0.239047,0.153628 -0.478381,0.306463 -0.714315,0.465732 -0.649494,0.438568 -1.288652,0.892985 -1.916401,1.362045 -0.54772,0.409323 -1.145193,0.804917 -1.487513,1.416454 -0.306494,0.547407 -0.261129,1.174491 0.113759,1.677922 0.383976,0.515181 0.955111,0.684506 1.556379,0.799502 0.288468,0.05536 0.575069,0.119659 0.862948,0.177842 -0.681645,0.548043 -1.366094,1.09247 -2.034844,1.656138 -0.987642,0.832241 -1.960632,1.681453 -2.918695,2.547537 -0.731851,0.661754 -2.084837,1.51177 -1.993039,2.637107 0.09329,1.143074 1.420993,1.943714 2.223741,2.593486 0.963472,0.78004 1.944508,1.53754 2.949103,2.26361 1.574066,1.13757 3.198132,2.18761 4.869983,3.16574 -0.859683,0.33933 -1.720009,0.68408 -2.537811,1.09779 -0.569774,0.2883 -0.230167,1.12033 0.210132,1.35563 1.409131,0.75288 2.89243,1.42955 4.425721,1.92412 -2.454752,1.27622 -4.830688,2.70108 -7.10069,4.29255 -0.723241,0.50716 0.04748,1.7831 0.844832,1.5813 2.595843,-0.65667 5.204743,-1.12195 7.850999,-1.31659 -1.450136,0.91571 -2.846439,1.91402 -4.152113,3.03414 -0.699721,0.60043 0.432589,1.66394 1.079901,1.59087 0.826868,-0.0934 1.65389,-0.18836 2.480831,-0.28281 -0.988207,0.7819 -1.888258,1.66826 -2.613035,2.65718 -0.59613,0.81358 0.656599,2.08345 1.454102,1.42253 1.510929,-1.25233 3.672854,-1.22298 5.407128,-0.47184 1.878315,0.81376 3.353497,2.35908 4.63029,3.91537 2.746156,3.34715 5.352738,6.8125 7.91594,10.30064 5.122101,6.97067 10.072403,14.0708 15.382698,20.90158 5.313752,6.8353 11.009273,13.42295 17.534911,19.13575 1.632362,1.42899 3.355177,2.88572 5.437423,3.60352 2.255902,0.77795 4.669979,0.63777 7.014215,0.51479 4.823754,-0.25289 9.639989,-0.69434 14.425953,-1.34914 1.39578,-0.19088 2.79175,-0.40294 4.18718,-0.6261 4.05543,-0.28365 8.09141,-0.84108 12.06973,-1.67875 4.52487,-0.95293 8.97527,-2.26764 13.2827,-3.95111 4.00425,-1.5651 7.78523,-3.69883 10.80789,-6.79509 5.38532,-5.51603 8.17384,-12.92908 11.44992,-19.75809 3.37041,-7.02594 7.78936,-13.35939 13.27593,-18.90145 2.0116,-2.03183 4.15147,-3.91775 6.3975,-5.66326 6.70368,-2.36291 13.38351,-4.78997 20.0459,-7.28064 5.53972,-2.0709 11.06316,-4.18667 16.59378,-6.28195 2.38986,-0.90556 4.877,-1.73666 7.00007,-3.19505 1.83912,-1.26336 3.27562,-2.94007 4.20924,-4.970777 0.92576,-2.013464 1.34589,-4.244576 1.4881,-6.450212 0.0902,-0.91028 0.10729,-1.83703 0.0819,-2.754649 -0.003,-0.918144 -0.0529,-1.843807 -0.17327,-2.750516 -0.2153,-2.199709 -0.70909,-4.4154 -1.70108,-6.397349 -1.0004,-1.998653 -2.4917,-3.626827 -4.3717,-4.828537 -2.17025,-1.387319 -4.68364,-2.135528 -7.10209,-2.961299 -5.59705,-1.910836 -11.18754,-3.842379 -16.7929,-5.728632 -6.74124,-2.268313 -13.49793,-4.472651 -20.27615,-6.612172 -2.30262,-1.670128 -4.50385,-3.484077 -6.58167,-5.447852 -5.66725,-5.357538 -10.29367,-11.540969 -13.89508,-18.451258 -3.50056,-6.71669 -6.53323,-14.033244 -12.0984,-19.367763 -3.12372,-2.994204 -6.97325,-5.00146 -11.02718,-6.433085 C 122.7256,10.240343 118.23398,9.0738701 113.6801,8.2714062 109.6762,7.5660363 105.62398,7.1429653 101.56137,6.9937934 100.15935,6.8167978 98.757016,6.6511892 97.355776,6.5066132 92.550736,6.0109692 87.722518,5.7294043 82.893031,5.6363242 80.546182,5.5906442 78.128702,5.5309069 75.899814,6.3828285 Z"
   id="path1" />
	<g
   id="g19"
   transform="translate(-2244.0015,727.78427)">
		<g
   id="g18"
   transform="matrix(-0.00151705,-0.09152248,0.09152248,-0.00151705,2250.3789,-532.78891)">
			<path
   style="opacity:0.36;fill:#484f58"
   d="m 2039.015,767.569 c -8.219,-22.614 -24.443,-41.169 -40.347,-58.74 -63.583,-70.248 -136.575,-131.269 -212.2,-188.074 -75.576,-56.769 -154.029,-109.557 -231.099,-164.245 -38.568,-27.367 -76.891,-55.212 -113.951,-84.604 -17.23,-13.664 -34.377,-29.496 -43.606,-49.867 -8.52,-18.808 -9.231,-42.418 4.174,-59.147 7.076,-8.833 -7.022,-22.287 -15.801,-15.628 -10.671,8.096 -20.191,18.087 -28.552,29.024 0.883,-9.05 1.771,-18.1 2.641,-27.152 0.681,-7.083 -11.142,-19.26 -17.573,-11.507 -12,14.463 -22.651,29.898 -32.392,45.904 1.648,-28.939 6.258,-57.523 12.961,-85.997 2.059,-8.747 -12.017,-16.934 -17.426,-8.942 -15.41,22.774 -29.311,46.473 -41.847,70.881 -10.7,-22.767 -24.516,-44.036 -41.563,-62.742 -5.744,-6.303 -16.489,1.12 -18.59,7.298 -3.073,9.034 -5.351,18.465 -6.68,28.03 -1.634,-2.639 -3.26,-5.282 -4.958,-7.887 -4.672,-7.174 -9.521,-14.238 -14.531,-21.18 -4.372,-6.057 -8.586,-12.655 -15.203,-16.505 -5.924,-3.447 -12.784,-3.065 -18.349,0.939 -5.697,4.101 -7.65,10.309 -9.017,16.856 -0.655,3.141 -1.41,6.26 -2.098,9.394 -5.861,-7.545 -11.686,-15.119 -17.72,-22.527 -8.912,-10.939 -18.014,-21.721 -27.3,-32.343 -7.096,-8.114 -16.135,-23.047 -28.444,-22.248 -12.505,0.812 -21.489,15.17 -28.733,23.823 -8.693,10.382 -17.148,20.961 -25.261,31.803 -12.709,16.988 -24.473,34.538 -35.462,52.623 -3.551,-9.452 -7.16,-18.912 -11.531,-27.92 -3.046,-6.276 -12.196,-2.717 -14.846,2.049 -8.481,15.257 -16.139,31.337 -21.819,47.996 -13.494,-27.045 -28.63,-53.256 -45.605,-78.34 -5.407,-7.992 -19.483,0.196 -17.424,8.942 6.703,28.474 11.312,57.057 12.96,85.997 -9.742,-16.006 -20.392,-31.44 -32.391,-45.904 -6.431,-7.753 -18.254,4.424 -17.573,11.507 0.87,9.052 1.756,18.101 2.64,27.152 -8.361,-10.937 -17.881,-20.928 -28.552,-29.024 -8.779,-6.659 -22.877,6.795 -15.801,15.628 13.404,16.729 12.694,40.34 4.172,59.147 -9.228,20.371 -26.376,36.204 -43.604,49.867 -37.06,29.392 -75.385,57.237 -113.952,84.604 -77.07,54.688 -155.523,107.476 -231.099,164.245 -75.623,56.805 -148.615,117.826 -212.198,188.074 -15.905,17.572 -32.129,36.127 -40.347,58.74 -8.906,24.502 -7.812,50.898 -6.893,76.526 1.889,52.737 5.84,105.426 12.125,157.823 1.833,15.281 3.895,30.568 6.081,45.851 2.365,44.35 7.721,88.537 16.153,132.146 9.589,49.598 23.142,98.448 40.753,145.805 16.371,44.023 38.995,85.71 72.268,119.288 59.278,59.824 139.748,91.626 213.75,128.648 76.136,38.089 144.517,87.505 204.063,148.44 21.83,22.34 42.041,46.056 60.702,70.906 24.597,73.654 49.899,147.059 75.898,220.285 21.618,60.888 43.73,121.604 65.616,182.396 9.459,26.269 18.087,53.587 33.633,77.042 13.466,20.318 31.522,36.313 53.535,46.879 21.828,10.477 46.12,15.47 70.188,17.423 9.926,1.146 20.048,1.503 30.075,1.393 10.029,0.111 20.15,-0.246 30.076,-1.393 24.067,-1.953 48.36,-6.946 70.188,-17.423 22.013,-10.566 40.068,-26.561 53.535,-46.879 15.547,-23.455 24.175,-50.774 33.632,-77.042 21.888,-60.792 44,-121.508 65.618,-182.396 25.999,-73.226 51.3,-146.632 75.898,-220.285 18.66,-24.85 38.871,-48.566 60.702,-70.906 59.545,-60.935 127.927,-110.351 204.063,-148.44 74.002,-37.022 154.472,-68.824 213.75,-128.648 33.272,-33.579 55.897,-75.265 72.266,-119.288 17.611,-47.357 31.165,-96.208 40.754,-145.805 8.431,-43.61 13.788,-87.796 16.152,-132.146 2.187,-15.283 4.25,-30.571 6.083,-45.851 6.285,-52.397 10.234,-105.086 12.125,-157.823 0.919,-25.628 2.012,-52.024 -6.892,-76.526 z"
   id="path2" />
			<path
   style="fill:#aba4a3"
   d="m 1879.748,1332.597 c -54.668,18.452 -113.829,23.943 -170.775,14.171 -1.275,-0.219 -2.196,-1.679 -2.196,-2.883 v -14.913 c -22.352,17.874 -45.054,35.574 -71.492,47.047 -2.961,1.284 -6.173,-2.12 -3.624,-4.697 13.872,-14.019 24.844,-30.606 33.143,-48.449 -16.025,11.261 -32.017,22.57 -48.133,33.699 -66.067,45.626 -135.666,88.591 -214.295,108.405 -2.625,0.66 -4.54,-2.084 -3.377,-4.393 16.17,-32.144 39.325,-62.88 45.28,-99.075 -21.004,9.696 -38.837,25.732 -53.25,43.594 -2.215,2.746 -6.252,-0.781 -4.696,-3.624 23.832,-43.513 54.258,-82.853 81.524,-124.199 -8.872,5.609 -17.479,11.628 -25.807,18.026 -42.031,32.284 -77.033,72.436 -114.346,109.797 -1.668,1.67 -5.463,0.571 -5.105,-2.114 2.046,-15.352 4.096,-30.705 6.428,-46.016 4.621,-30.331 10.185,-60.657 18.9,-90.109 0.597,-2.017 1.237,-4.037 1.867,-6.057 -3.184,1.72 -6.407,3.365 -9.511,5.229 -39.487,23.712 -69.905,58.729 -93.527,97.861 -20.661,34.225 -37.436,70.076 -51.634,107.397 -14.738,38.743 -28.381,78.279 -48.115,114.858 -18.231,33.798 -44.142,67.653 -83.524,77.079 -39.995,9.572 -68.255,-22.544 -92.843,-48.849 -32.264,-34.519 -72.579,-61.155 -113.993,-83.526 -83.865,-45.302 -176.027,-71.516 -265.62,-102.718 -79.236,-27.595 -157.687,-60.12 -224.817,-110.864 10.746,15.65 18.898,32.958 25.037,51.145 0.885,2.624 -2.227,4.487 -4.393,3.377 -31.645,-16.216 -54.241,-45.64 -77.818,-72.266 10.133,18.264 20.551,36.417 27.329,56.224 0.814,2.376 -2.292,4.886 -4.393,3.377 -28.243,-20.289 -52.913,-45.147 -74.837,-72.057 -39.553,-48.549 -71.038,-103.734 -95.299,-161.461 2.438,18.173 5.267,36.296 8.748,54.303 9.588,49.598 23.142,98.448 40.753,145.805 16.371,44.023 38.994,85.71 72.266,119.288 59.279,59.824 139.749,91.626 213.751,128.648 76.136,38.089 144.517,87.505 204.062,148.44 21.832,22.34 42.041,46.056 60.703,70.906 24.597,73.654 49.899,147.059 75.898,220.285 21.618,60.888 43.73,121.604 65.616,182.396 9.459,26.269 18.085,53.587 33.633,77.042 13.466,20.318 31.522,36.313 53.535,46.879 21.826,10.477 46.12,15.47 70.188,17.423 9.926,1.146 20.047,1.503 30.075,1.393 10.029,0.111 20.15,-0.246 30.075,-1.393 24.068,-1.953 48.361,-6.946 70.189,-17.423 22.013,-10.566 40.068,-26.561 53.535,-46.879 15.547,-23.455 24.175,-50.774 33.632,-77.042 21.888,-60.792 43.998,-121.508 65.618,-182.396 25.998,-73.226 51.3,-146.632 75.896,-220.285 18.662,-24.85 38.873,-48.566 60.703,-70.906 59.545,-60.935 127.927,-110.351 204.063,-148.44 74.002,-37.022 154.472,-68.824 213.75,-128.648 33.272,-33.579 55.895,-75.265 72.266,-119.288 6.543,-17.595 12.522,-35.398 17.95,-53.368 -32.754,25.959 -69.05,46.761 -108.993,60.244 z"
   id="path3" />
			<path
   style="fill:#6f6879;fill-opacity:1"
   d="m 1938.527,789.037 c -10.949,-31.791 -25.073,-62.405 -41.736,-91.602 -29.377,-51.479 -67.004,-98.286 -111.138,-137.856 -30.973,-27.768 -65.041,-51.347 -101.259,-71.334 -40.42,-30.169 -81.241,-59.871 -122.835,-88.388 -25.845,-17.72 -51.878,-35.168 -78.075,-52.366 -6.422,-4.214 -17.698,6.029 -15.833,12.867 1.415,5.196 3.116,10.357 4.887,15.506 -29.088,-27.844 -56.384,-57.42 -80.497,-89.818 -18.061,-24.27 -34.019,-49.892 -46.927,-77.235 -5.268,-11.163 -22.613,1.145 -20.848,10.697 5.029,27.264 9.965,54.546 15.112,81.789 -19.315,-28.822 -36.673,-58.978 -52.068,-90.034 -3.845,-7.753 -15.311,-0.282 -15.809,6.109 -1.275,16.353 -1.889,32.641 -1.854,48.901 -15.724,-27.459 -28.882,-56.397 -38.521,-86.383 -1.471,-4.579 -7.741,-3.981 -10.986,-2.35 -4.337,2.18 -7.436,6.71 -7.152,11.656 0.914,15.922 1.6,31.791 1.841,47.665 -11.764,-28.118 -22.687,-56.58 -32.593,-85.419 -1.65,-4.802 -8.109,-4.243 -11.61,-2.484 -4.721,2.374 -7.651,7.04 -7.557,12.319 0.458,26.232 -0.04,52.35 -1.548,78.442 -8.599,-31.372 -13.559,-63.647 -14.682,-96.304 -0.312,-9.094 -12.266,-2.463 -14.245,1.966 -11.06,24.725 -20.991,50.023 -29.775,75.713 -3.661,-33.748 -8.455,-67.377 -14.802,-100.641 -2.359,-12.363 -16.955,-4.452 -20.323,2.805 -5.486,11.813 -10.182,23.984 -14.062,36.4 -1.899,-18.527 -3.701,-37.064 -5.603,-55.585 -0.862,-8.393 -10.888,-3.71 -13.953,0.107 -37.3,46.429 -68.407,96.783 -94.634,150.034 -3.103,-12.779 -6.177,-25.564 -9.393,-38.315 -2.401,-9.521 -13.266,-3.886 -16.158,2.23 -5.542,11.721 -10.545,23.66 -15.229,35.72 -0.227,-13.004 -0.868,-26.004 -2.133,-38.976 -0.917,-9.387 -12.622,-2.766 -14.844,2.048 -4.101,8.892 -8.082,17.835 -12.087,26.767 -0.292,-10.797 -1.091,-21.581 -2.621,-32.287 -1.342,-9.382 -13.863,-5.923 -17.286,0.133 -79.498,140.619 -246.304,191.844 -372.734,278.12 -14.931,10.188 -29.481,20.957 -43.484,32.374 -16.392,11.605 -32.211,24.056 -47.263,37.549 -44.133,39.57 -81.76,86.377 -111.139,137.856 -16.662,29.198 -30.784,59.811 -41.735,91.602 -3.462,10.049 8.257,9.426 12.88,3.678 10.7,-13.301 21.399,-26.603 32.101,-39.904 -24.501,57.936 -34.684,121.858 -29.083,184.652 2.196,24.616 7.027,48.823 14.016,72.515 2.637,8.945 15.382,-0.729 16.107,-6.226 1.492,-11.276 2.939,-22.557 4.419,-33.834 5.019,39.521 15.798,78.251 32.376,114.768 2.956,6.513 11.664,0.838 13.466,-3.547 1.926,-4.678 3.395,-9.546 4.645,-14.478 6.968,20.478 16.372,40.078 28.756,58.357 3.234,4.774 10.351,0.677 10.905,-4.213 0.978,-8.636 1.859,-17.281 2.79,-25.921 15.851,44.331 46.658,82.459 87.734,106.536 3.378,1.979 7.645,-1.309 9.531,-3.784 1.495,-1.964 2.638,-4.104 3.514,-6.331 11.471,13.686 22.508,27.832 33.548,41.569 18.273,22.737 35.846,45.999 53.068,69.537 34.514,47.168 66.388,96.372 98.557,145.156 0.604,0.915 1.341,1.541 2.15,1.951 3.039,7.891 6.026,15.804 8.919,23.748 3.217,8.833 6.344,17.698 9.379,26.595 3.08,9.025 4.818,18.415 7.937,27.381 2.114,6.088 10.126,2.967 13.809,-1.921 8.337,16.989 17.426,33.622 27.329,49.832 4.098,6.707 15.004,0.909 15.217,-5.881 0.297,-9.541 -0.117,-19.027 -1.175,-28.406 57.41,91.589 102.646,191.368 134.453,294.446 5.497,17.813 10.905,35.67 16.238,53.55 7.556,34.962 15.167,69.913 23.117,104.789 8.642,37.929 17.28,75.86 25.981,113.777 7.791,33.961 15.234,68.058 25.12,101.49 10.943,36.995 25.189,73.191 46.341,105.621 2.167,3.321 7.11,-0.181 6.737,-3.458 -2.793,-24.597 -5.591,-49.192 -8.388,-73.789 8.461,13.479 16.924,26.956 25.385,40.433 2.208,3.519 6.689,-0.373 6.647,-3.411 -0.112,-8.109 -0.223,-16.218 -0.335,-24.327 12.162,26.283 28.084,50.724 47.314,72.439 2.202,2.489 5.54,-1.104 6.101,-3.17 7.916,-29.101 18.443,-57.433 31.036,-84.824 1.747,21.683 3.495,43.366 5.242,65.049 0.343,4.256 5.626,1.138 6.625,-0.914 9.156,-18.817 18.31,-37.633 27.463,-56.449 -0.506,21.303 -4.041,42.458 -10.619,62.77 -1.197,3.697 2.937,5.109 5.316,2.528 55.846,-60.613 80.022,-141.558 91.572,-221.503 9.293,-64.324 10.549,-129.447 16.493,-194.092 5.615,-18.868 11.304,-37.714 17.102,-56.507 31.809,-103.078 77.045,-202.857 134.456,-294.446 -1.059,9.379 -1.475,18.865 -1.176,28.406 0.213,6.789 11.119,12.588 15.215,5.881 9.906,-16.21 18.994,-32.843 27.329,-49.832 3.685,4.887 11.696,8.009 13.811,1.921 3.118,-8.966 4.856,-18.357 7.937,-27.381 3.034,-8.897 6.161,-17.762 9.378,-26.595 2.895,-7.945 5.881,-15.857 8.92,-23.748 0.808,-0.409 1.547,-1.035 2.149,-1.951 32.169,-48.784 64.045,-97.987 98.557,-145.156 17.224,-23.538 34.795,-46.801 53.068,-69.537 11.04,-13.737 22.079,-27.883 33.55,-41.569 0.874,2.227 2.018,4.367 3.514,6.331 1.884,2.475 6.153,5.763 9.529,3.784 41.076,-24.077 71.884,-62.205 87.735,-106.536 0.931,8.64 1.813,17.285 2.79,25.921 0.554,4.89 7.67,8.987 10.903,4.213 12.385,-18.28 21.789,-37.879 28.757,-58.357 1.248,4.932 2.72,9.799 4.643,14.478 1.803,4.385 10.51,10.06 13.467,3.547 16.577,-36.517 27.358,-75.247 32.375,-114.768 1.48,11.278 2.93,22.558 4.42,33.834 0.726,5.497 13.471,15.171 16.109,6.226 6.988,-23.692 11.819,-47.9 14.015,-72.515 5.602,-62.793 -4.583,-126.716 -29.083,-184.652 10.703,13.301 21.4,26.603 32.1,39.904 4.63,5.748 16.351,6.371 12.887,-3.678 z"
   id="path4" />
			<path
   style="fill:#372117"
   d="m 1207.117,2257.773 c -27.206,4.662 -54.795,6.844 -82.369,7.653 -12.614,0.369 -25.231,0.263 -37.843,0.703 -12.347,0.43 -24.686,1.007 -37.031,1.456 -26.042,0.951 -52.186,1.455 -78.187,-0.63 -13.84,-1.111 -27.732,-2.955 -41.259,-6.198 7.002,18.827 10.917,38.984 17.839,57.742 3.686,9.993 8.273,20.177 14.823,28.714 2.75,6.397 6.398,12.524 11.43,18.276 16.718,19.113 41.821,26.892 66.216,30.178 28.68,3.862 58.158,3.887 86.935,1.118 15,-1.444 29.916,-3.763 44.646,-6.95 12.798,-2.77 26.081,-5.887 36.874,-13.704 8.851,-6.411 15.133,-14.554 19.537,-23.665 3.242,-4.416 6.125,-9.134 8.49,-14.24 3.47,-7.487 5.651,-15.56 7.89,-23.479 2.545,-9.001 4.819,-18.076 6.876,-27.2 3.204,-14.214 5.883,-28.547 8.09,-42.951 -17.245,5.823 -35.024,10.105 -52.957,13.177 z"
   id="path5" />
			<path
   style="fill:#261b15;fill-opacity:1"
   d="m 782.92877,1658.11 c -32.126,-41.248 -74.63626,-99.7125 -124.90926,-113.6705 -22.785,-6.325 -50.84574,18.7545 -74.98074,21.0615 -1.358,-0.355 -2.89,-0.177 -4.441,0.404 -3.784,0.49 -7.531,1.133 -11.219,1.973 -2.48,0.565 -5.927,5.613 -1.726,6.308 1.421,0.236 2.838,0.445 4.257,0.666 -0.499,1.764 -0.424,3.521 0.59,5.02 50.527,74.762 134.854,111.681 200.132,170.809 18.431,16.694 35.472,34.804 48.83,55.877 5.115,8.069 16.195,-0.659 15.728,-8.07 -3.249,-51.559 -20.398,-99.464 -52.261,-140.378 z"
   id="path6"
   sodipodi:nodetypes="ccccsccccssc" /><path
   style="fill:#fe4b3b;fill-opacity:1;stroke-width:0.768639"
   d="m 770.61446,1655.7409 c -24.6933,-31.7048 -57.36837,-76.6429 -96.01017,-87.3716 -17.51345,-4.8616 -39.08204,14.4155 -57.63315,16.1887 -1.04381,-0.2728 -2.22137,-0.136 -3.41352,0.3106 -2.90853,0.3766 -5.78862,0.8708 -8.62337,1.5165 -1.90623,0.4342 -4.55573,4.3143 -1.32667,4.8485 1.09224,0.1815 2.1814,0.3421 3.27209,0.512 -0.38354,1.3559 -0.3259,2.7063 0.4535,3.8585 38.83704,57.4651 103.65409,85.8424 153.82934,131.2906 14.16679,12.8316 27.26517,26.7517 37.53265,42.9493 3.9316,6.202 12.44812,-0.5066 12.08917,-6.203 -2.49731,-39.6303 -15.67871,-76.4519 -40.16987,-107.9001 z"
   id="path6-1"
   sodipodi:nodetypes="ccccsccccssc" />
			<path
   style="fill:#2b1d18;fill-opacity:1"
   d="m 1364.5843,1771.9562 c -0.467,7.411 10.613,16.139 15.728,8.07 13.357,-21.073 30.398,-39.183 48.829,-55.877 65.279,-59.128 149.606,-96.047 200.132,-170.809 1.015,-1.499 1.09,-3.256 0.591,-5.02 1.419,-0.222 2.836,-0.43 4.257,-0.666 4.2,-0.695 0.754,-5.744 -1.726,-6.308 -3.688,-0.84 -7.435,-1.483 -11.219,-1.973 -1.55,-0.582 -3.082,-0.759 -4.441,-0.404 -24.134,-2.307 -60.3445,-25.7526 -83.1295,-19.4276 -50.274,13.957 -91.1326,69.1631 -116.7605,112.0366 -31.862,40.912 -49.012,88.817 -52.261,140.378 z"
   id="path7"
   sodipodi:nodetypes="sccccccccccs" /><path
   style="fill:#e32112;fill-opacity:1;stroke-width:0.788469"
   d="m 1394.591,1731.9208 c -0.3682,5.8433 8.368,12.7251 12.401,6.3629 10.5316,-16.6154 23.9679,-30.8946 38.5002,-44.0573 51.4704,-46.6205 117.9596,-75.73 157.7978,-134.6775 0.8003,-1.1819 0.8594,-2.5673 0.466,-3.9581 1.1188,-0.1751 2.2361,-0.3391 3.3565,-0.5252 3.3116,-0.5479 0.5945,-4.5289 -1.3609,-4.9736 -2.9079,-0.6623 -5.8623,-1.1693 -8.8458,-1.5557 -1.2222,-0.4589 -2.4301,-0.5984 -3.5016,-0.3185 -19.0289,-1.819 -47.5798,-20.3051 -65.545,-15.3181 -39.6395,11.0047 -71.8553,54.533 -92.0621,88.3374 -25.1222,32.2578 -38.6444,70.0294 -41.2061,110.6837 z"
   id="path7-5"
   sodipodi:nodetypes="sccccccccccs" />
			<path
   style="opacity:0.36;fill:#b8aaae;fill-opacity:1"
   d="m 2040.3179,772.90945 c -8.22,-22.615 -24.443,-41.17 -40.347,-58.742 -63.583,-70.248 -136.573,-131.26899 -212.2,-188.07399 -75.576,-56.769 -154.029,-109.557 -231.099,-164.245 -38.568,-27.367 -76.891,-55.212 -113.951,-84.603 -17.23,-13.665 -34.377,-29.499 -43.606,-49.869 -8.521,-18.808 -9.232,-42.418 4.174,-59.149 7.076,-8.831 -7.022,-22.285 -15.801,-15.626 -10.673,8.096 -20.193,18.088 -28.552,29.024 0.883,-9.05 1.771,-18.101 2.641,-27.15 0.681,-7.084 -11.142,-19.26 -17.573,-11.508 -11.999,14.465 -22.651,29.898 -32.392,45.904 1.648,-28.941 6.258,-57.523 12.961,-85.997 2.06,-8.747004 -12.017,-16.934004 -17.426,-8.942004 -15.41,22.774004 -29.312,46.473004 -41.847,70.881004 -10.7,-22.767 -24.518,-44.036 -41.563,-62.742 -5.742,-6.303004 -16.489,1.12 -18.59,7.298 -3.073,9.034 -5.351,18.465 -6.68,28.03 -1.635,-2.639 -3.261,-5.281 -4.958,-7.887 -4.673,-7.174 -9.521,-14.238 -14.531,-21.18 -4.372,-6.057 -8.585,-12.655004 -15.203,-16.505004 -5.924,-3.447 -12.782,-3.065 -18.349,0.939 -5.697,4.101 -7.65,10.309004 -9.015,16.856004 -0.657,3.141 -1.411,6.26 -2.099,9.394 -5.863,-7.545 -11.686,-15.12 -17.722,-22.527004 -8.912,-10.939 -18.012,-21.72095 -27.299,-32.34295 -7.096,-8.114 -16.136,-23.047 -28.445,-22.248 -12.503,0.812 -21.489,15.17 -28.732,23.821 -8.695,10.383 -17.147,20.96195 -25.26,31.80395 -12.71102,16.988004 -24.47502,34.538004 -35.46192,52.623004 -3.551,-9.452 -7.16105,-18.912 -11.53205,-27.92 -3.046,-6.276 -12.196,-2.717 -14.846,2.05 -8.479,15.256 -16.139,31.336 -21.819,47.995 -13.496,-27.045 -28.63,-53.256 -45.603,-78.340004 -5.409,-7.992 -19.486,0.196 -17.426,8.942004 6.703,28.474 11.313,57.056 12.96,85.997 -9.74,-16.006 -20.392,-31.439 -32.391,-45.904 -6.432,-7.752 -18.254,4.424 -17.573,11.508 0.87,9.049 1.758,18.1 2.64,27.15 -8.362,-10.936 -17.881,-20.928 -28.552,-29.024 -8.779,-6.659 -22.877,6.795 -15.802,15.626 13.406,16.731 12.694,40.341 4.175,59.149 -9.229,20.37 -26.376,36.204 -43.607,49.869 -37.059,29.391 -75.384,57.236 -113.95,84.603 -77.07,54.688 -155.523,107.476 -231.099,164.245 -75.626,56.806 -148.616,117.82699 -212.2,188.07399 -15.905,17.572 -32.129,36.127 -40.347,58.742 -8.906,24.501 -7.812,50.896 -6.893,76.525 1.889,52.737 5.839,105.42602 12.125,157.82295 1.832,15.281 3.896,30.568 6.081,45.851 2.364,44.35 7.722,88.537 16.152,132.145 9.59,49.599 23.145,98.45 40.754,145.806 16.371,44.023 38.994,85.71 72.268,119.288 59.278,59.824 139.748,91.626 213.75,128.648 76.136,38.088 144.518,87.504 204.062,148.439 21.83,22.341 42.043,46.057 60.703,70.907 24.597,73.654 49.899,147.059 75.899,220.285 21.618,60.887 43.729,121.604 65.615,182.396 9.459,26.269 18.087,53.587 33.633,77.042 13.467,20.318 31.52205,36.313 53.53495,46.879 21.82602,10.477 46.12102,15.47 70.18802,17.423 9.927,1.146 20.047,1.503 30.075,1.393 10.03,0.111 20.15,-0.246 30.076,-1.393 24.067,-1.953 48.359,-6.946 70.188,-17.423 22.013,-10.566 40.068,-26.561 53.535,-46.879 15.547,-23.455 24.175,-50.774 33.633,-77.042 21.886,-60.792 43.997,-121.509 65.616,-182.396 25.998,-73.226 51.3,-146.632 75.898,-220.285 18.66,-24.85 38.873,-48.566 60.7,-70.907 59.548,-60.935 127.929,-110.351 204.064,-148.439 74.002,-37.022 154.472,-68.824 213.75,-128.648 33.272,-33.579 55.895,-75.265 72.267,-119.288 17.609,-47.356 31.164,-96.208 40.754,-145.806 8.43,-43.608 13.785,-87.795 16.15,-132.145 2.187,-15.283 4.25,-30.571 6.083,-45.851 6.284,-52.39693 10.234,-105.08595 12.125,-157.82295 0.923,-25.627 2.015,-52.023 -6.888,-76.524 z m -408.003,628.12495 c -11.81,31.17 -34.733,55.999 -60.058,76.953 -25.85,21.391 -54.388,39.212 -80.525,60.223 -29.587,23.789 -56.386,50.866 -78.216,82.001 -41.89,59.749 -63.463,129.81 -79.332,200.286 -16.542,73.478 -28.371,148.078 -51.788,219.848 -0.968,2.968 -6.139,3.641 -6.718,0 -2.7,-16.967 -6.057,-33.843 -9.528,-50.702 -1.475,8.159 -3.128,16.289 -4.988,24.381 -13.108,57.091 -38.699,116.237 -91.852,146.447 -2.433,1.384 -5.032,-0.415 -5.243,-3.008 -2.719,-33.577 -0.965,-67.298 -2.163,-100.924 -9.057,29.921 -19.659,59.359 -30.34,88.735 -1.304,3.584 -6.84,3.17 -6.844,-0.926 -0.02,-22.653 -0.888,-45.324 -1.273,-67.989 -3.071,9.555 -6.444,19.01 -10.365,28.255 -7.53,17.752 -17.127,35.579 -31.474,48.79 -12.777,11.764 -30.794,19.777 -48.494,17.38 -13.516,-1.829 -26.542,-12.208 -35.59202,-21.789 -3.622,-3.833 -6.861,-8 -9.916,-12.301 1.532,10.549 1.613,21.306 -0.317,31.533 -0.469,2.485 -4.188,3.467 -5.822,1.537 -14.42893,-17.047 -23.73795,-37.145 -32.42195,-57.517 4.012,21.51 8.735,42.93 8.859,64.891 0.02,3.419 -4.802,4.789 -6.494,1.758 -15.587,-27.961 -28.589,-57.348 -40.124,-87.187 -24.042,-62.193 -42.016,-127.202 -52.037,-193.153 -4.35,-28.629 -7.59,-58.309 -7.82,-87.899 -0.645,-2.674 -1.237,-5.359 -1.904,-8.027 -14.3,-57.18 -35.163,-112.783 -69.836,-160.911 -13.341,-18.518 -27.99,-35.913 -45.727,-50.35 -16.17,-13.159 -33.884,-24.36 -51.739,-35.063 -37.338,-22.379 -76.526,-42.249 -111.186,-68.799 -26.604,-20.379 -50.949,-45.975 -60.099,-78.602 -6.801,20.125 -10.533,41.239 -18.774,60.9 -1.291,3.079 -5.576,3.506 -6.72,0 -11.699,-35.921 -10.111,-74.133 1.572,-109.617 -13.201,13.536 -24.01,29.058 -34.552,44.869 -1.788,2.681 -6.704,1.913 -6.493,-1.758 2.785,-48.487 28.274,-89.994 61.278,-124.229 31.146,-32.309 67.697,-58.824 103.341,-85.856 17.379,-13.179 34.708,-26.479 51.088,-40.896 18.109,-15.941 34.389,-33.701 48.997,-52.904 29.733,-39.086 50.261,-83.7 59.373,-132.01193 5.596,-29.676 7.198,-59.87102 6.852,-90.07502 -0.834,-2.552 -1.589,-5.122 -2.48,-7.658 -6.951,-19.786 -15.599,-38.935 -25.629,-57.347 -9.283,-17.041 -19.272,-34.704 -31.904,-49.51 -19.698,-23.089 -43.083,-42.958 -64.769,-64.111 -23.411,-22.834 -47.064,-47.07 -63.068,-75.86899 -10.826,-19.482 -16.794,-41.008 -13.379,-62.362 -16.673,23.433 -28.628,50.05 -44.51,74.028 -2.004,3.02199 -6.148,1.64699 -6.493,-1.759 -2.276,-22.477 4.055,-43.987 12.223,-64.681 -14.694,17.512 -27.511,36.631 -42.345,54.029 -2.436,2.857 -6.459,-0.274 -5.821,-3.39 5.842,-28.555 19.122,-54.508 36.632,-77.488 -31.857,17.988 -56.144,46.829 -83.274,71.042 -2.519,2.248 -6.791,0.099 -5.823,-3.39 8.79,-31.663 28.462,-58.94 50.872,-82.459 44.845,-47.059 100.728,-82.429 152.782,-120.749 36.127,-26.596 71.577,-54.159 107.813,-80.61 28.549,-29.568 59.927,-56.485 86.184,-88.244 1.649,-1.995 5.297,-0.891 5.823,1.539 5.374,24.84 4.53,50.808 0.621,76.007 13.561,-23.756 27.997,-46.98 46.021,-67.709 2.022,-2.325 5.971,-0.408 5.947,2.464 -0.159,18.997 -5.783,37.561 -13.707,54.9 5.015,-5.062 9.945,-10.208 14.82,-15.406 34.383,-36.645 66.755,-75.994 108.40797,-104.804 2.788,-1.929 5.508,1.269 5.117,3.935 -1.955,13.32 -5.263,26.279 -9.07502,39.113 16.02502,-26.965 27.12802,-56.91 42.05502,-84.424 1.674,-3.083 6.49,-1.623 6.491,1.759 0.035,39.809 2.111,79.978 9.374,119.198 6.96,-36.084 17.474,-71.374 26.411,-107.009 0.999,-3.983 6.617,-2.846 6.843,0.926 3.178,53.059 11.834,106.219 29.287,156.545 15.265,-46.01 24.923,-94.792 52.753,-135.35 1.961,-2.858 6.311,-1.788 6.494,1.758 2.973,58.022 13.432,115.305 27.355,171.635 3.527,-49.586 8.635,-99.051 11.581,-148.682 0.194,-3.262 4.771,-4.978 6.494,-1.758 20.62,38.587 30.58,82.215 52.315,120.166 -1,-43.885 -6.277,-87.594 -6.344,-131.524 -0.01,-3.205 5.078,-5.075 6.491,-1.758 9.359,21.963 23.687,41.191 39.853,58.605 29.677,31.971 64.913,58.098 95.339,89.294 6.084,6.238 11.995,12.653 17.852,19.122 10.51,8.808 20.908,17.739 31.205,26.749 41.573,36.373 82.498,73.728 122.22,112.112 30.799,29.762 67.414,68.614 52.556,115.298 -6.165,19.37 -21.971,32.74399 -38.659,43.17599 -8.916,5.573 -18.221,10.481 -27.407,15.581 -9.503,5.276 -18.585,11.074 -27.66,17.041 -18.958,12.464 -37.339,26.083 -52.604,42.984 -15.642,17.32 -27.05,37.733 -35.279,59.497 -1.282,3.39 -7.316,3.249 -6.843,-0.926 2.82,-24.932 7.77,-49.67 9.324,-74.719 -17.941,32.898 -27.581,69.431 -38.549,105.155 -1.239,4.036 -6.359,2.776 -6.844,-0.926 -0.848,-6.451 -1.545,-12.987 -2.082,-19.577 -1.291,3.746 -2.604,7.485 -3.82,11.258 -12.945,40.174 -20.92,82.751 -13.566,124.85002 7.073,40.492 26.193,79.48293 47.919,114.03493 42.747,67.987 102.465,122.881 161.118,176.844 2.498,2.296 -0.096,6.983 -3.388,5.822 -12.58,-4.432 -25.224,-8.678 -37.793,-13.144 -2.107,-0.748 -4.218,-1.513 -6.332,-2.281 6.264,6.264 12.417,12.634 18.37,19.187 22.302,24.559 43.242,51.686 56.538,82.293 5.818,13.39 10.119,27.41 11.532,41.985 1.449,14.927 -0.873,29.411 -6.171,43.399 z"
   id="path8" />
			<g
   id="g17"
   transform="matrix(-0.97840183,-0.00165593,0.00276443,-0.99999766,2149.1494,1479.4449)">
				<path
   style="fill:#454444"
   d="M 707.676,864.688 C 703.09,858.652 697.844,853.665 692.033,849.463 618.36,746.772 494.744,683.186 370.172,669.38 c -34.974,-3.877 -70.548,-3.657 -105.471,0.674 -35.696,4.428 -72.135,12.657 -104.862,27.882 -35.005,16.285 -65.903,41.237 -81.464,77.407 -8.616,20.03 -12.347,41.885 -16.187,63.217 -4.146,23.036 -7.891,46.145 -11.233,69.312 -13.613,94.342 -17.995,189.221 -18.217,284.453 -0.11,46.923 1.324,93.849 5.011,140.631 3.522,44.682 9.8,89.037 22.447,132.128 2.393,8.155 4.192,18.887 10.772,24.93 8.493,7.799 19.59,2.002 28.024,-2.507 19.178,-10.253 37.874,-21.401 56.55,-32.541 38.17,-22.766 75.707,-46.541 112.724,-71.138 73.296,-48.699 144.464,-100.547 213.247,-155.436 34.906,-27.856 69.252,-56.409 102.946,-85.72 31.639,-27.522 64.376,-54.902 92.269,-86.319 24.901,-28.047 47.115,-61.505 52.72,-99.344 4.737,-31.967 -2.042,-66.354 -21.772,-92.321 z"
   id="path9" />
				<path
   style="opacity:0.39;fill:#50362b"
   d="m 714.938,875.701 c -5.106,20.163 -12.523,39.83 -21.349,58.512 -23.885,50.566 -58,96.191 -95.698,137.257 -30.909,33.667 -65.402,63.067 -100.331,92.395 -38.01,31.916 -76.811,63.277 -118.603,90.16 -19.89,12.794 -40.547,24.614 -62.445,33.632 -17.394,7.165 -36.257,12.832 -55.258,12.138 -2.075,-0.076 -4.197,-2.195 -3.36,-4.41 17.955,-47.575 45.877,-91.627 58.64,-141.014 -5.879,8.167 -11.653,16.409 -17.282,24.751 -29.965,44.403 -58.791,90.359 -101.82,123.477 -2.816,2.167 -6.557,-1.99 -4.767,-4.767 25.965,-40.248 46.542,-83.526 63.253,-128.3 -0.554,0.737 -1.074,1.494 -1.63,2.23 -51.849,68.649 -110.688,131.515 -167.638,195.872 -2.548,2.88 -6.316,-0.297 -5.822,-3.39 2.99,-18.737 5.729,-37.515 8.148,-56.335 7.931,-61.655 13.089,-124.028 11.78,-186.253 -12.449,31.021 -17.619,64.758 -26.325,96.887 -1.035,3.821 -6.847,2.989 -6.843,-0.927 0.029,-32.612 1.682,-65.174 3.892,-97.702 -7.621,32.654 -13.005,65.847 -20.002,98.629 -0.752,3.525 -5.748,3.099 -6.718,0 -4.831,-15.436 -8.738,-31.13 -11.855,-46.983 -0.061,6.922 -0.151,13.841 -0.167,20.766 -0.111,46.923 1.324,93.849 5.012,140.631 3.521,44.682 9.798,89.037 22.446,132.128 2.391,8.155 4.192,18.887 10.772,24.93 8.493,7.799 19.59,2.002 28.024,-2.507 19.179,-10.253 37.874,-21.401 56.55,-32.541 38.17,-22.766 75.707,-46.541 112.726,-71.138 73.295,-48.699 144.463,-100.547 213.247,-155.436 34.906,-27.856 69.251,-56.409 102.946,-85.72 31.639,-27.522 64.376,-54.902 92.268,-86.319 24.902,-28.047 47.116,-61.505 52.722,-99.344 4.092,-27.638 -0.465,-57.06 -14.513,-81.309 z"
   id="path10" />
				<path
   style="fill:#50362b"
   d="m 92.457,750.722 c -5.5,7.563 -10.262,15.746 -14.081,24.622 -7.464,17.347 -11.258,36.064 -14.637,54.624 8.475,-26.79 18.072,-53.228 28.718,-79.246 z"
   id="path11" />
				<path
   style="fill:#50362b"
   d="m 53.479,1334.755 c -5.778,-69.652 -6.093,-139.675 -3.465,-209.484 2.699,-71.766 5.181,-143.746 17.02,-214.715 8.8,-52.765 24.583,-104.274 46.25,-153.19 7.187,-16.23 15.231,-32.176 24.398,-47.422 -25.548,15.784 -47.142,37.124 -59.306,65.401 -8.616,20.03 -12.347,41.885 -16.187,63.217 -4.148,23.036 -7.893,46.145 -11.235,69.312 -13.612,94.342 -17.994,189.221 -18.217,284.453 -0.111,46.923 1.324,93.849 5.012,140.631 3.521,44.682 9.798,89.037 22.446,132.128 2.391,8.155 4.192,18.887 10.772,24.93 2.202,2.022 4.586,3.101 7.046,3.553 C 65.565,1441.428 57.91,1388.136 53.479,1334.755 Z"
   id="path12" />
				<path
   style="opacity:0.36;fill:#50362b"
   d="M 707.676,864.688 C 703.09,858.652 697.843,853.665 692.034,849.463 618.36,746.773 494.743,683.187 370.172,669.381 c -34.974,-3.877 -70.548,-3.657 -105.471,0.674 -35.695,4.428 -72.135,12.657 -104.863,27.882 -35.004,16.285 -65.902,41.237 -81.462,77.407 -8.616,20.03 -12.347,41.885 -16.187,63.217 -4.148,23.036 -7.893,46.145 -11.235,69.312 -1.202,8.333 -2.247,16.675 -3.308,25.016 9.141,-23.141 20.991,-45.287 34.92,-65.757 19.044,-27.985 42.423,-53.989 71.179,-72.234 2.546,-1.616 6.008,1.074 5.119,3.935 -7.348,23.613 -17.792,46.045 -27.509,68.763 8.361,-12.027 17.057,-23.814 26.727,-34.833 15.53,-17.694 34.511,-34.935 57.978,-40.675 2.434,-0.596 5.177,1.672 4.285,4.285 -5.922,17.354 -15.744,32.716 -24.794,48.505 6.251,-4.542 12.541,-9.023 18.947,-13.343 21.852,-14.738 44.901,-28.328 69.726,-37.429 21.726,-7.966 46.585,-12.772 68.945,-4.476 2.182,0.809 3.17,2.985 2.082,5.118 -7.487,14.696 -18.144,27.206 -28.44,39.972 23.113,-13.099 47.852,-23.317 74.616,-25.54 2.356,-0.196 3.839,2.375 3.359,4.41 -4.789,20.324 -19.401,35.708 -28.561,53.9 19.379,-9.596 34.157,-27.522 52.954,-38.161 2.074,-1.175 5.578,0.265 5.243,3.008 -2.608,21.367 -14.07,40.328 -18.396,61.225 21.79,-16.401 35.236,-42.007 54.256,-61.23 1.757,-1.776 5.28,-1.068 5.823,1.537 8.858,42.59 10.083,88.546 0.909,131.558 9.771,-17.138 18.712,-34.768 29.612,-51.235 1.468,-2.217 5.915,-2.385 6.367,0.832 0.76,5.396 1.412,10.804 1.888,16.234 3.857,44.07 -2.797,88.525 -16.103,130.562 -14.085,44.504 -35.234,86.575 -59.643,126.258 -25.597,41.614 -54.918,80.855 -85.827,118.65 -12.605,15.412 -25.547,30.541 -38.634,45.54 56.989,-39.396 112.681,-80.656 166.84,-123.874 34.906,-27.856 69.251,-56.409 102.946,-85.72 31.639,-27.522 64.376,-54.902 92.268,-86.319 24.902,-28.047 47.116,-61.505 52.722,-99.344 4.735,-31.969 -2.044,-66.356 -21.774,-92.323 z"
   id="path13" />
				<path
   style="fill:#454444"
   d="m 1452.683,957.01 c 5.606,37.839 27.819,71.296 52.72,99.344 27.894,31.417 60.63,58.797 92.268,86.319 33.695,29.311 68.04,57.864 102.946,85.72 68.783,54.889 139.952,106.737 213.247,155.436 37.018,24.597 74.556,48.372 112.726,71.138 18.676,11.14 37.37,22.288 56.55,32.541 8.434,4.509 19.53,10.306 28.023,2.507 6.581,-6.042 8.38,-16.775 10.773,-24.93 12.647,-43.091 18.925,-87.447 22.446,-132.128 3.688,-46.782 5.122,-93.708 5.012,-140.631 -0.223,-95.232 -4.604,-190.111 -18.217,-284.453 -3.344,-23.167 -7.088,-46.275 -11.235,-69.312 -3.84,-21.332 -7.569,-43.187 -16.187,-63.217 -15.56,-36.171 -46.458,-61.123 -81.463,-77.407 -32.727,-15.225 -69.167,-23.454 -104.862,-27.882 -34.923,-4.332 -70.497,-4.551 -105.471,-0.674 -124.572,13.806 -248.188,77.392 -321.862,180.083 -5.81,4.201 -11.056,9.189 -15.642,15.225 -19.728,25.966 -26.509,60.353 -21.772,92.321 z"
   id="path14" />
				<path
   style="opacity:0.39;fill:#50362b"
   d="m 2131.177,907.873 c -3.344,-23.167 -7.087,-46.275 -11.235,-69.312 -3.84,-21.332 -7.571,-43.187 -16.187,-63.217 -15.56,-36.171 -46.458,-61.123 -81.463,-77.407 -9.12,-4.243 -18.548,-7.891 -28.148,-11.117 18.533,38.995 32.815,79.961 44.573,121.461 11.744,41.454 21.358,83.653 29.134,126.028 8.903,48.528 15.234,97.746 16.461,147.109 1.137,45.923 -1.756,93.231 -16.264,137.125 -1.133,3.422 -5.504,3.178 -6.719,0 -5.893,-15.419 -12.238,-30.654 -18.897,-45.755 -15.943,-36.15 -33.43,-71.587 -50.205,-107.351 0.066,0.231 0.138,0.46 0.205,0.691 18.036,63.174 32.675,127.291 52.663,189.909 1.21,3.788 -4.512,6.129 -6.367,2.685 -10.167,-18.847 -20.812,-37.429 -31.787,-55.815 -9.893,-16.568 -20.051,-32.97 -30.328,-49.297 5.972,22.601 11.237,45.382 15.514,68.348 8.566,46.002 14.454,94.282 7.063,140.859 -0.463,2.903 -4.02,2.935 -5.825,1.537 -16.475,-12.756 -32.478,-26.115 -48.004,-40.011 -30.92,-27.673 -60.115,-57.455 -87.188,-89.031 12.732,20.137 24.309,40.908 32.809,63.351 1.09,2.88 -2.688,5.47 -5.119,3.935 -19.8,-12.516 -38.528,-26.665 -56.421,-41.773 -26.982,-22.782 -52.033,-47.571 -76.141,-73.298 24.436,31.74 47.214,64.672 65.192,100.466 1.472,2.931 -1.648,6.76 -4.766,4.767 -44.657,-28.549 -90.632,-54.942 -135.718,-82.793 7.545,6.131 15.008,12.36 22.608,18.423 68.783,54.889 139.953,106.737 213.248,155.436 37.016,24.597 74.553,48.372 112.725,71.138 18.676,11.14 37.37,22.288 56.55,32.541 8.434,4.509 19.53,10.306 28.023,2.507 6.581,-6.042 8.379,-16.775 10.773,-24.93 12.648,-43.091 18.925,-87.447 22.446,-132.128 3.689,-46.782 5.121,-93.708 5.012,-140.631 -0.222,-95.229 -4.605,-190.108 -18.217,-284.45 z"
   id="path15" />
				<path
   style="fill:#50362b"
   d="m 2131.177,907.873 c -3.344,-23.167 -7.087,-46.275 -11.235,-69.312 -3.84,-21.332 -7.571,-43.187 -16.187,-63.217 -11.214,-26.068 -30.457,-46.229 -53.4,-61.597 7.041,12.893 13.42,26.167 19.357,39.509 8.209,18.449 16.452,37.466 21.723,57.012 5.985,22.184 9.881,45.129 13.411,67.812 3.784,24.339 6.649,48.816 8.951,73.338 9.472,100.921 13.41,202.654 14.693,303.982 0.448,35.435 0,70.822 -0.507,106.249 -0.457,31.898 -1.327,63.813 -3.903,95.62 11.176,-40.634 16.992,-82.322 20.301,-124.311 3.689,-46.782 5.121,-93.708 5.012,-140.631 -0.221,-95.233 -4.604,-190.112 -18.216,-284.454 z"
   id="path16" />
				<path
   style="opacity:0.36;fill:#50362b"
   d="m 1539.028,952.839 c -0.364,-3.659 4.791,-4.439 6.491,-1.759 14.218,22.375 27.763,45.165 41.714,67.705 -6.335,-28.415 -16.044,-56.258 -16.234,-85.62 -0.021,-2.837 3.964,-4.856 5.947,-2.464 8.448,10.197 16.201,20.998 24.749,31.117 -3.365,-12.171 -6.538,-24.396 -8.533,-36.879 -2.273,-14.205 -4.221,-30.739 2.055,-44.24 3.777,-8.131 11.785,-14.639 21.036,-12.653 7.897,1.694 15.064,7.01 21.332,11.829 10.986,8.445 21.168,17.98 30.889,27.986 -7.551,-16.986 -14.072,-34.382 -18.657,-52.466 -0.818,-3.233 3.41,-6.056 5.823,-3.389 21.315,23.538 39.941,49.457 62.911,71.378 -14.17,-35.203 -33.274,-68.361 -44.141,-104.877 -0.669,-2.247 1.154,-4.324 3.358,-4.41 25.863,-1.016 51.147,5.958 74.41,16.877 32.689,15.341 61.757,37.751 88.38,62.483 -12.559,-28.003 -26.025,-55.659 -35.808,-84.786 -1.235,-3.68 3.365,-5.293 5.823,-3.39 25.051,19.401 45.683,43.302 65.823,67.571 -11.296,-24.172 -24.061,-47.729 -29.84,-74.017 -0.589,-2.68 2.484,-5.881 5.118,-3.935 31.777,23.467 56.772,53.98 82.728,83.434 -10.056,-23.352 -19.887,-46.864 -23.905,-72.121 -0.548,-3.442 3.064,-5.762 5.822,-3.39 11.534,9.918 22.64,20.32 33.262,31.211 28.19,28.906 52.929,61.036 74.266,95.288 -8.996,-24.677 -18.428,-49.195 -27.278,-73.925 -1.243,-3.474 3.442,-5.577 5.823,-3.389 4.577,4.2 9.006,8.551 13.278,13.061 36.569,38.626 62.378,86.443 84.754,134.284 14.605,31.229 28.376,62.977 41.495,94.867 2.055,4.993 4.036,10.018 6.04,15.033 -2.179,-67.35 -7.131,-134.501 -16.781,-201.378 -3.344,-23.167 -7.087,-46.275 -11.235,-69.312 -3.84,-21.332 -7.571,-43.187 -16.187,-63.217 -15.56,-36.171 -46.458,-61.123 -81.463,-77.407 -32.727,-15.225 -69.167,-23.454 -104.862,-27.882 -34.924,-4.332 -70.498,-4.551 -105.471,-0.674 -124.572,13.806 -248.188,77.392 -321.862,180.083 -5.809,4.201 -11.056,9.189 -15.642,15.225 -19.73,25.966 -26.51,60.353 -21.774,92.322 5.607,37.839 27.821,71.296 52.722,99.344 27.894,31.417 60.63,58.797 92.27,86.319 20.654,17.969 41.634,35.561 62.759,52.975 -6.885,-8.993 -13.743,-18.002 -20.569,-27.016 -48.173,-63.612 -92.749,-134.64 -100.836,-215.796 z"
   id="path17" />
			</g>
		<ellipse
   style="fill:#000000;fill-opacity:1;stroke-width:12.2974"
   id="path20"
   cx="1482.0133"
   cy="1623.1676"
   rx="41.916286"
   ry="41.041351" /><ellipse
   style="fill:#000000;fill-opacity:1;stroke-width:12.5861"
   id="path20-2"
   cx="726.91486"
   cy="1658.9198"
   rx="43.376122"
   ry="41.544376" /></g>
		<path
   style="opacity:0.32;fill:#837e81;stroke-width:0.091535"
   d="m 2346.6962,-663.89638 c -2.3423,1.26635 -4.5602,2.74798 -6.9062,4.00763 -2.3568,1.26517 -4.8549,2.26494 -7.4403,2.95398 -0.1367,0.0372 -0.2774,0.0621 -0.4148,0.0974 0.7216,-0.4713 1.4397,-0.94869 2.1504,-1.43789 0.2817,-0.19403 -0.068,-0.62224 -0.3457,-0.51349 -5.3507,2.09473 -11.2445,2.54639 -16.8402,1.20047 -0.9859,-0.23741 -1.9547,-0.54072 -2.906,-0.89065 1.857,0.0865 3.7139,0.17201 5.571,0.25811 0.417,0.0206 0.2507,-0.48468 -0.021,-0.59305 -7.1281,-2.90306 -14.579,-7.74696 -22.5747,-5.23444 -1.8472,0.58049 -3.5846,1.59688 -4.8739,3.05572 -0.1893,0.21513 0.1142,0.60581 0.3715,0.54784 1.7865,-0.40479 3.622,-0.54118 5.4464,-0.44199 -4.7546,1.16889 -9.2148,3.59708 -12.7575,6.95525 -1.565,1.48313 -2.9336,3.15217 -4.13,4.94388 -0.1332,0.19979 0.1914,0.49504 0.3855,0.45868 5.775,-1.08188 11.5531,-2.04485 17.3869,-2.7147 -4.9414,1.93613 -9.8771,3.89083 -14.8365,5.77966 -0.2809,0.10764 0.021,0.51853 0.2154,0.5313 3.6533,0.23516 7.3109,0.41655 10.9671,0.61195 -4.5013,1.289 -9.1501,2.04331 -13.8279,2.25626 -0.3045,0.003 -0.074,0.41137 0.075,0.47521 4.5134,1.94314 9.3964,2.97965 14.3046,3.13373 -2.6078,0.59762 -5.2052,1.23646 -7.7884,1.9168 -2.1985,0.57912 -4.3843,1.20002 -6.5692,1.82766 -0.3194,0.0917 -0.1021,0.5123 0.1488,0.53792 4.7556,0.48134 9.5164,0.91547 14.2751,1.3663 -4.5513,0.86195 -9.1322,1.56104 -13.7359,2.07528 -0.3731,0.0412 -0.052,0.50092 0.1523,0.54939 4.1984,0.98962 8.3962,1.97842 12.5946,2.9666 -4.1738,0.60176 -8.4585,0.28838 -12.4935,-0.95933 -0.3543,-0.10937 -0.346,0.30227 -0.1229,0.4624 3.3065,2.38627 7.0261,4.23974 10.9106,5.52555 -0.9916,-0.003 -1.9823,-0.002 -2.9733,0.0104 -2.1689,0.036 -4.3377,0.0718 -6.5055,0.14483 -0.3882,0.007 -0.071,0.55021 0.1661,0.59281 4.1016,0.74592 8.1335,1.84961 12.0395,3.30404 -4.1699,-0.18107 -8.3142,-0.70162 -12.4043,-1.54239 -0.3042,-0.0628 -0.2829,0.32982 -0.1315,0.47549 4.1075,3.93867 8.8093,7.23534 13.9113,9.75585 0.7936,0.39186 1.5982,0.76087 2.4091,1.11521 -1.2056,-0.12614 -2.4209,-0.14501 -3.6344,-0.0363 -0.2603,0.0249 -0.1746,0.3431 -0.057,0.46627 2.9571,3.08169 7.2034,4.88852 11.4606,5.0182 0.8022,0.0237 1.6027,-0.005 2.3977,-0.10763 -2.4513,1.88062 -5.4367,2.99756 -8.5319,3.17458 -0.4013,0.0272 -0.071,0.56566 0.1713,0.60981 4.3619,0.79863 8.6788,-0.64102 12.5353,-2.62438 -0.021,1.9e-4 -0.024,0.0209 -0.036,0.0253 -0.088,0.0611 0.03,0.21822 0.1108,0.16491 0.6425,-0.43583 1.2905,-0.86842 1.9412,-1.298 1.5712,-0.90766 3.1028,-1.8838 4.6422,-2.84691 1.7914,-0.99773 3.6367,-1.8916 5.5692,-2.58649 2.1188,-0.76179 4.3388,-1.26779 6.594,-1.34716 2.1745,-0.077 4.3514,0.27566 6.403,0.99444 3.9952,1.40023 7.4299,4.0104 10.7053,6.62275 3.364,2.6829 6.6575,5.43037 10.5544,7.32326 4.2074,2.04416 9.1462,3.08982 13.5893,1.14902 0.318,-0.13895 -0.033,-0.5411 -0.2352,-0.57993 -2.7946,-0.53936 -5.5533,-1.2454 -8.2676,-2.09805 2.8657,0.12338 5.7481,-0.33359 8.4334,-1.35891 0.2988,-0.11386 -0.038,-0.50193 -0.2167,-0.53413 -2.4407,-0.4374 -4.8817,-0.87518 -7.3225,-1.31177 3.2008,-0.31584 6.2831,-1.36564 9.1938,-2.76534 3.8194,-1.83618 7.3667,-4.17434 11.0471,-6.26319 2.0696,-1.1746 4.1858,-2.27445 6.3981,-3.15633 0.3098,-0.12252 -0.048,-0.59477 -0.2952,-0.55237 -4.5407,0.77845 -9.0803,1.56552 -13.6201,2.35076 3.7864,-1.54694 7.5733,-3.09262 11.3602,-4.63897 0.2716,-0.11144 0,-0.5339 -0.2172,-0.53492 -6.1159,-0.0322 -12.2362,-0.53517 -18.286,-1.47682 4.6872,-0.52796 9.3405,-1.35211 13.9217,-2.50022 2.3338,-0.58506 4.6386,-1.26489 6.9348,-1.98171 0.2622,-0.0825 -0.021,-0.48455 -0.1995,-0.4908 -4.7862,-0.16595 -9.561,-0.60271 -14.3025,-1.27464 4.1342,-0.43691 8.2682,-0.87852 12.4022,-1.31829 0.3258,-0.0341 0.085,-0.43666 -0.081,-0.51131 -5.3705,-2.4383 -10.8993,-4.511 -16.5441,-6.20677 2.7772,0.0568 5.554,0.11507 8.3312,0.16699 0.2848,-0.003 0.2016,-0.36287 -0.021,-0.42662 -3.3878,-1.0113 -6.779,-2.01078 -10.1699,-3.01276 5.1215,0.23695 10.2194,0.89453 15.2316,1.97789 0.2673,0.0573 0.2706,-0.30496 0.1194,-0.43211 -3.9605,-3.33051 -8.3353,-6.13928 -13.0084,-8.36176 -2.3539,-1.11936 -4.7799,-2.08796 -7.2583,-2.89842 3.0079,-0.38222 5.9955,-0.92873 8.9412,-1.66428 1.9244,-0.48051 3.8351,-1.02545 5.7206,-1.64092 0.2885,-0.0931 -0.057,-0.50061 -0.259,-0.48509 -3.8589,0.29836 -7.7221,0.42454 -11.5867,0.33612 3.988,-0.56229 7.9045,-1.61314 11.6353,-3.13549 1.3855,-0.56544 2.7431,-1.19687 4.0708,-1.88707 0.2618,-0.13602 0,-0.54793 -0.2232,-0.5499 -5.4894,-0.0448 -10.9683,-0.53166 -16.3794,-1.44787 5.5279,-0.46701 11.0711,-0.73504 16.6189,-0.77844 0.3118,-0.007 0.1471,-0.44531 -0.021,-0.5375 -4.2773,-2.45971 -8.9295,-4.22979 -13.7526,-5.26524 -1.9138,-0.41053 -3.853,-0.69939 -5.8021,-0.87475 1.1547,-0.20849 2.3169,-0.38042 3.4861,-0.50394 1.3928,-0.14657 2.7929,-0.2315 4.193,-0.26502 0.3129,-0.007 0.1056,-0.46209 -0.081,-0.51726 -6.0022,-1.78821 -12.366,-2.25113 -18.5622,-1.3298 -0.3642,0.0533 -0.7271,0.11715 -1.0898,0.18068 2.5811,-0.97709 5.2089,-1.82283 7.8913,-2.49681 0.3712,-0.0926 0.1194,-0.60122 -0.1731,-0.62047 -5.333,-0.34932 -10.5868,0.87313 -15.2781,3.40946 z"
   id="path18" />
	</g>
</g>
</svg>
