<svg width="14.751" height="63.509" xmlns="http://www.w3.org/2000/svg" xmlns:xlink="http://www.w3.org/1999/xlink" viewBox="0 0 14.751 63.509"><defs><linearGradient xlink:href="#a" id="b" x1="103.988" x2="109.816" y1="77.319" y2="77.319" gradientTransform="translate(46.567 11.906)" gradientUnits="userSpaceOnUse"/><linearGradient id="a"><stop offset="0" style="stop-color:#856b4f;stop-opacity:1"/><stop offset="1" style="stop-color:#f5920a;stop-opacity:1"/></linearGradient></defs><path d="M147.557 140.734V99.743h6.88v41.104z" style="fill:#c06556;fill-opacity:1;stroke:#000;stroke-width:7.77698;stroke-linecap:square;stroke-linejoin:round;stroke-dasharray:none;stroke-opacity:1;paint-order:stroke markers fill" transform="translate(-143.669 -81.227)"/><path d="m150.994 96.542.255-3.563 1.209-3.818 1.527-2.863 1.718-2.354" style="fill:none;fill-opacity:1;stroke:#000;stroke-width:5.434;stroke-linecap:round;stroke-linejoin:miter;stroke-dasharray:none;stroke-opacity:1;paint-order:stroke markers fill" transform="translate(-143.669 -81.227)"/><path d="m151.19 94.742.195-2.743 1.362-3.329 1.445-2.824 1.556-2.138" style="fill:none;fill-opacity:1;stroke:#856b4f;stroke-width:1.27;stroke-linecap:round;stroke-linejoin:miter;stroke-dasharray:none;stroke-opacity:1;paint-order:stroke markers fill" transform="translate(-143.669 -81.227)"/><path d="m146.859 111.048 7.893-4.557m-7.766 19.319 7.893-4.558m-8.275 19.445 7.894-4.557" style="fill:none;fill-opacity:1;stroke:#000;stroke-width:2;stroke-linecap:round;stroke-linejoin:miter;stroke-dasharray:none;stroke-opacity:1;paint-order:stroke markers fill" transform="translate(-143.669 -81.227)"/><path d="M147.559 104.59v-4.9l3.451.017 3.452.016.016 2.9.017 2.9-3.436 1.983c-1.889 1.09-3.45 1.983-3.468 1.983s-.032-2.204-.032-4.9z" style="fill:#7b2b20;fill-opacity:1;stroke:#000;stroke-width:.480944;stroke-linecap:round;stroke-linejoin:miter;stroke-dasharray:none;stroke-opacity:1;paint-order:stroke markers fill" transform="translate(-143.669 -81.227)"/><path d="m147.574 132.799.016-6.217.305-.18c.168-.098 1.07-.62 2.005-1.158l3.09-1.781c.766-.442 1.418-.803 1.448-.803.032 0 .05 2.69.04 6.24l-.016 6.242-.223.077c-.122.043-1.611.88-3.308 1.861s-3.15 1.818-3.23 1.86l-.143.076z" style="fill:#843028;fill-opacity:1;stroke:#000;stroke-width:.480944;stroke-linecap:round;stroke-linejoin:miter;stroke-dasharray:none;stroke-opacity:1;paint-order:stroke markers fill" transform="translate(-143.669 -81.227)"/><path d="m149.852 140.795-1.428-.034.824-.472c.453-.26 1.253-.72 1.778-1.024l2.179-1.262c.673-.39 1.239-.71 1.257-.71s.032.802.032 1.782v1.781l-1.607-.014c-.883-.008-2.25-.029-3.035-.047z" style="fill:#761000;fill-opacity:1;stroke:#000;stroke-width:.480944;stroke-linecap:round;stroke-linejoin:miter;stroke-dasharray:none;stroke-opacity:1;paint-order:stroke markers fill" transform="translate(-143.669 -81.227)"/><path d="m151.19 94.742.195-2.743 1.362-3.329 1.445-2.824 1.556-2.138" style="mix-blend-mode:hard-light;fill:none;fill-opacity:1;stroke:url(#b);stroke-width:1.27;stroke-linecap:round;stroke-linejoin:miter;stroke-dasharray:none;paint-order:stroke markers fill" transform="translate(-143.669 -81.227)"/></svg>