<svg width="14.751" height="63.509" xmlns="http://www.w3.org/2000/svg" viewBox="0 0 14.751 63.509"><path d="M135.916 125.123v-40.99h6.88v41.104z" style="fill:#c06556;fill-opacity:1;stroke:#000;stroke-width:7.77698;stroke-linecap:square;stroke-linejoin:round;stroke-dasharray:none;stroke-opacity:1;paint-order:stroke markers fill" transform="translate(-132.027 -65.617)"/><path d="m139.353 80.931.254-3.563 1.21-3.817 1.526-2.863 1.718-2.354" style="fill:none;fill-opacity:1;stroke:#000;stroke-width:5.434;stroke-linecap:round;stroke-linejoin:miter;stroke-dasharray:none;stroke-opacity:1;paint-order:stroke markers fill" transform="translate(-132.027 -65.617)"/><path d="m139.548 79.132.196-2.743 1.362-3.329 1.444-2.824 1.556-2.139" style="fill:none;fill-opacity:1;stroke:#856b4f;stroke-width:1.27;stroke-linecap:round;stroke-linejoin:miter;stroke-dasharray:none;stroke-opacity:1;paint-order:stroke markers fill" transform="translate(-132.027 -65.617)"/><path d="m135.217 95.438 7.893-4.557m-7.766 19.318 7.894-4.558m-8.275 19.446 7.893-4.557" style="fill:none;fill-opacity:1;stroke:#000;stroke-width:2;stroke-linecap:round;stroke-linejoin:miter;stroke-dasharray:none;stroke-opacity:1;paint-order:stroke markers fill" transform="translate(-132.027 -65.617)"/><path d="M135.917 88.98v-4.9l3.452.016 3.451.017.017 2.9.016 2.9-3.435 1.983c-1.89 1.09-3.45 1.983-3.468 1.983s-.033-2.205-.033-4.9z" style="fill:#7b2b20;fill-opacity:1;stroke:#000;stroke-width:.480944;stroke-linecap:round;stroke-linejoin:miter;stroke-dasharray:none;stroke-opacity:1;paint-order:stroke markers fill" transform="translate(-132.027 -65.617)"/><path d="m135.933 117.188.016-6.217.305-.179c.167-.099 1.07-.62 2.004-1.158l3.091-1.782c.766-.441 1.417-.803 1.448-.803.032 0 .049 2.69.04 6.241l-.017 6.242-.222.077c-.123.043-1.612.88-3.309 1.861a670 670 0 0 1-3.23 1.86l-.143.076z" style="fill:#843028;fill-opacity:1;stroke:#000;stroke-width:.480944;stroke-linecap:round;stroke-linejoin:miter;stroke-dasharray:none;stroke-opacity:1;paint-order:stroke markers fill" transform="translate(-132.027 -65.617)"/><path d="m138.21 125.184-1.428-.034.824-.471c.453-.26 1.254-.72 1.779-1.025l2.178-1.262c.674-.39 1.24-.71 1.257-.71.018 0 .032.803.032 1.782v1.782l-1.606-.014c-.884-.008-2.25-.03-3.035-.048z" style="fill:#761000;fill-opacity:1;stroke:#000;stroke-width:.480944;stroke-linecap:round;stroke-linejoin:miter;stroke-dasharray:none;stroke-opacity:1;paint-order:stroke markers fill" transform="translate(-132.027 -65.617)"/></svg>