<svg width="26.988" height="26.987" xmlns="http://www.w3.org/2000/svg" xml:space="preserve" viewBox="0 0 26.988 26.987"><g style="stroke-width:.999163" transform="translate(-162.923 -396.613)scale(1.00084)"><circle cx="-165.106" cy="-414.388" r="11.906" fill="#3a3f44" stroke="#1a1d20" stroke-width="10" style="isolation:isolate;fill:#47572b;fill-opacity:1;stroke-width:3.17234;stroke-dasharray:none" transform="rotate(-45)scale(1 -1)"/><circle cx="-165.106" cy="-414.388" r="7.232" style="fill:#5c7038;fill-opacity:1;stroke:#1a1d20;stroke-width:1.44467;stroke-linejoin:round;stroke-dasharray:none;stroke-opacity:1" transform="rotate(-45)scale(1 -1)"/><path d="M166.172 399.67a12.61 12.5 44.997 0 0-1.975 2.595l7.356 4.272a4.093 4.058 44.997 0 1 .642-.845 4.093 4.058 44.997 0 1 .84-.641l-4.27-7.364a12.61 12.5 44.997 0 0-2.593 1.982zm20.191.01a12.5 12.61 44.997 0 0-2.595-1.976l-4.272 7.357a4.058 4.093 44.997 0 1 .845.641 4.058 4.093 44.997 0 1 .641.84l7.364-4.27a12.5 12.61 44.997 0 0-1.982-2.593zm-.01 20.19a12.61 12.5 44.997 0 0 1.976-2.595l-7.357-4.271a4.093 4.058 44.997 0 1-.641.844 4.093 4.058 44.997 0 1-.84.642l4.27 7.364a12.61 12.5 44.997 0 0 2.593-1.983zm-20.178-.01a12.5 12.61 44.997 0 0 2.595 1.976l4.272-7.356a4.058 4.093 44.997 0 1-.845-.642 4.058 4.093 44.997 0 1-.641-.84l-7.364 4.27a12.5 12.61 44.997 0 0 1.982 2.593z" style="fill:#526332;fill-opacity:1;stroke:#1a1d20;stroke-width:1.58617;stroke-linecap:round;stroke-linejoin:round;stroke-dasharray:none;stroke-opacity:1"/><circle cx="-165.106" cy="-414.388" r="3.115" fill="#e23b2e" style="isolation:isolate;stroke-width:.264362" transform="rotate(-45)scale(1 -1)"/><circle cx="-165.106" cy="-414.388" r="1.133" fill="#ffd0cb" style="isolation:isolate;stroke-width:.264362" transform="rotate(-45)scale(1 -1)"/></g></svg>