<?xml version="1.0" standalone="no"?>
<!DOCTYPE svg PUBLIC "-//W3C//DTD SVG 20010904//EN"
 "http://www.w3.org/TR/2001/REC-SVG-20010904/DTD/svg10.dtd">
<svg version="1.0" xmlns="http://www.w3.org/2000/svg"
 width="128.000000pt" height="128.000000pt" viewBox="0 0 128.000000 128.000000"
 preserveAspectRatio="xMidYMid meet">

<g transform="translate(0.000000,128.000000) scale(0.100000,-0.100000)"
fill="#000000" stroke="none">
<path d="M480 1256 c-97 -26 -150 -50 -237 -112 -113 -81 -184 -191 -222 -346
-25 -102 -26 -134 -6 -253 29 -181 142 -347 300 -442 110 -65 271 -110 355
-98 173 24 287 67 380 145 92 77 180 215 196 308 3 20 12 59 20 86 24 84 -4
260 -59 373 -47 97 -124 183 -226 250 -77 51 -124 69 -235 92 -122 26 -158 25
-266 -3z m298 -75 c58 -16 146 -61 207 -106 88 -67 195 -212 200 -274 1 -15 4
-32 7 -37 4 -5 9 -30 13 -56 8 -50 -14 -133 -45 -172 -55 -70 -74 -86 -83 -77
-6 6 -47 11 -92 11 -61 0 -90 5 -120 20 -22 11 -44 20 -50 20 -5 0 -31 20 -57
45 -44 41 -49 43 -77 34 -16 -6 -35 -17 -42 -25 -6 -8 -29 -14 -51 -14 -28 0
-45 -7 -61 -24 -12 -13 -38 -27 -57 -31 -51 -11 -110 -36 -110 -46 0 -5 -12
-14 -26 -19 -14 -6 -28 -19 -31 -29 -3 -11 -14 -22 -26 -25 -24 -6 -16 -18 15
-23 12 -2 26 -8 33 -13 13 -11 73 2 135 29 44 19 94 19 106 0 7 -12 71 -11
111 0 40 12 71 -2 137 -60 58 -52 59 -73 4 -98 -41 -19 -169 -39 -253 -40 -72
-1 -209 21 -245 39 -51 26 -95 75 -78 86 9 6 0 11 -27 14 -32 4 -40 9 -40 25
0 13 -8 21 -23 23 -18 3 -30 17 -47 55 -61 140 -60 357 3 482 31 62 135 169
210 216 105 67 186 89 312 85 58 -1 124 -8 148 -15z"/>
<path d="M685 905 c-32 -31 -38 -105 -16 -185 6 -19 13 -48 16 -63 4 -22 10
-27 24 -22 22 7 71 -13 71 -30 0 -6 15 -16 33 -23 85 -31 135 1 148 93 6 47
13 63 33 78 30 21 35 49 9 45 -11 -2 -17 2 -15 11 4 21 -26 79 -48 91 -17 9
-21 6 -26 -16 -6 -23 -10 -25 -38 -18 -17 5 -57 8 -89 9 -59 0 -65 3 -46 22
14 14 3 33 -17 33 -8 0 -26 -11 -39 -25z m155 -153 c0 -9 -9 -23 -20 -30 -17
-10 -20 -10 -20 3 0 17 20 44 33 45 4 0 7 -8 7 -18z"/>
<path d="M519 913 c-1 -5 -1 -11 0 -15 0 -5 -26 -8 -59 -8 -41 0 -74 -7 -100
-20 -49 -25 -49 -25 -43 1 10 36 -19 17 -46 -30 -21 -38 -22 -45 -10 -74 7
-18 23 -42 36 -55 13 -12 21 -27 18 -33 -13 -20 6 -59 35 -74 24 -12 38 -14
68 -5 45 12 124 65 134 88 12 30 9 177 -4 205 -12 26 -27 35 -29 20z m-71
-157 c5 -42 -13 -53 -33 -22 -14 21 -15 29 -5 41 18 22 34 13 38 -19z"/>
<path d="M558 322 c-64 -39 -41 -69 67 -87 88 -16 125 -7 125 30 0 59 -127 96
-192 57z"/>
</g>
</svg>
