<svg width="128" height="128" xmlns="http://www.w3.org/2000/svg" viewBox="0 0 128 128"><path d="M48 2.4c-9.7 2.6-15 5-23.7 11.2C13 21.7 5.9 32.7 2.1 48.2-.4 58.4-.5 61.6 1.5 73.5c2.9 18.1 14.2 34.7 30 44.2 11 6.5 27.1 11 35.5 9.8 17.3-2.4 28.7-6.7 38-14.5 9.2-7.7 18-21.5 19.6-30.8.3-2 1.2-5.9 2-8.6 2.4-8.4-.4-26-5.9-37.3-4.7-9.7-12.4-18.3-22.6-25-7.7-5.1-12.4-6.9-23.5-9.2C62.4-.5 58.8-.4 48 2.4m29.8 7.5c5.8 1.6 14.6 6.1 20.7 10.6 8.8 6.7 19.5 21.2 20 27.4.1 1.5.4 3.2.7 3.7.4.5.9 3 1.3 5.6.8 5-1.4 13.3-4.5 17.2-5.5 7-7.4 8.6-8.3 7.7-.6-.6-4.7-1.1-9.2-1.1-6.1 0-9-.5-12-2-2.2-1.1-4.4-2-5-2-.5 0-3.1-2-5.7-4.5-4.4-4.1-4.9-4.3-7.7-3.4-1.6.6-3.5 1.7-4.2 2.5-.6.8-2.9 1.4-5.1 1.4-2.8 0-4.5.7-6.1 2.4-1.2 1.3-3.8 2.7-5.7 3.1-5.1 1.1-11 3.6-11 4.6 0 .5-1.2 1.4-2.6 1.9-1.4.6-2.8 1.9-3.1 2.9-.3 1.1-1.4 2.2-2.6 2.5-2.4.6-1.6 1.8 1.5 2.3 1.2.2 2.6.8 3.3 1.3 1.3 1.1 7.3-.2 13.5-2.9 4.4-1.9 9.4-1.9 10.6 0 .7 1.2 7.1 1.1 11.1 0 4-1.2 7.1.2 13.7 6 5.8 5.2 5.9 7.3.4 9.8-4.1 1.9-16.9 3.9-25.3 4-7.2.1-20.9-2.1-24.5-3.9-5.1-2.6-9.5-7.5-7.8-8.6.9-.6 0-1.1-2.7-1.4-3.2-.4-4-.9-4-2.5 0-1.3-.8-2.1-2.3-2.3-1.8-.3-3-1.7-4.7-5.5-6.1-14-6-35.7.3-48.2 3.1-6.2 13.5-16.9 21-21.6C42.3 10.2 50.4 8 63 8.4c5.8.1 12.4.8 14.8 1.5"/><path d="M68.5 37.5C65.3 40.6 64.7 48 66.9 56c.6 1.9 1.3 4.8 1.6 6.3.4 2.2 1 2.7 2.4 2.2 2.2-.7 7.1 1.3 7.1 3 0 .6 1.5 1.6 3.3 2.3 8.5 3.1 13.5-.1 14.8-9.3.6-4.7 1.3-6.3 3.3-7.8 3-2.1 3.5-4.9.9-4.5-1.1.2-1.7-.2-1.5-1.1.4-2.1-2.6-7.9-4.8-9.1-1.7-.9-2.1-.6-2.6 1.6-.6 2.3-1 2.5-3.8 1.8-1.7-.5-5.7-.8-8.9-.9-5.9 0-6.5-.3-4.6-2.2 1.4-1.4.3-3.3-1.7-3.3-.8 0-2.6 1.1-3.9 2.5M84 52.8c0 .9-.9 2.3-2 3-1.7 1-2 1-2-.3 0-1.7 2-4.4 3.3-4.5.4 0 .7.8.7 1.8M51.9 36.7c-.1.5-.1 1.1 0 1.5 0 .5-2.6.8-5.9.8-4.1 0-7.4.7-10 2-4.9 2.5-4.9 2.5-4.3-.1 1-3.6-1.9-1.7-4.6 3-2.1 3.8-2.2 4.5-1 7.4.7 1.8 2.3 4.2 3.6 5.5 1.3 1.2 2.1 2.7 1.8 3.3-1.3 2 .6 5.9 3.5 7.4 2.4 1.2 3.8 1.4 6.8.5 4.5-1.2 12.4-6.5 13.4-8.8 1.2-3 .9-17.7-.4-20.5-1.2-2.6-2.7-3.5-2.9-2m-7.1 15.7c.5 4.2-1.3 5.3-3.3 2.2-1.4-2.1-1.5-2.9-.5-4.1 1.8-2.2 3.4-1.3 3.8 1.9m11 43.4c-6.4 3.9-4.1 6.9 6.7 8.7 8.8 1.6 12.5.7 12.5-3 0-5.9-12.7-9.6-19.2-5.7"/></svg>