<?xml version="1.0" encoding="UTF-8" standalone="no"?>
<svg
   width="145"
   height="145"
   viewBox="0 0 129 129"
   fill="none"
   version="1.1"
   id="svg3"
   sodipodi:docname="smh.svg"
   inkscape:version="1.4.2 (f4327f4, 2025-05-13)"
   xmlns:inkscape="http://www.inkscape.org/namespaces/inkscape"
   xmlns:sodipodi="http://sodipodi.sourceforge.net/DTD/sodipodi-0.dtd"
   xmlns="http://www.w3.org/2000/svg"
   xmlns:svg="http://www.w3.org/2000/svg">
  <defs
     id="defs3" />
  <sodipodi:namedview
     id="namedview3"
     pagecolor="#ffffff"
     bordercolor="#000000"
     borderopacity="0.25"
     inkscape:showpageshadow="2"
     inkscape:pageopacity="0.0"
     inkscape:pagecheckerboard="0"
     inkscape:deskcolor="#d1d1d1"
     inkscape:zoom="6.3178295"
     inkscape:cx="61.967485"
     inkscape:cy="51.837423"
     inkscape:window-width="1920"
     inkscape:window-height="1017"
     inkscape:window-x="-8"
     inkscape:window-y="-8"
     inkscape:window-maximized="1"
     inkscape:current-layer="svg3" />
  <mask
     id="mask0"
     mask-type="alpha"
     maskUnits="userSpaceOnUse"
     x="0"
     y="0"
     width="129"
     height="129">
    <rect
       x="0.480469"
       y="0.383301"
       width="128"
       height="128"
       fill="#C4C4C4"
       id="rect1" />
  </mask>
  <g
     mask="url(#mask0)"
     id="g3"
     transform="matrix(1.133824,0,0,1.133824,-8.0775446,18.40599)">
    <g
       transform="matrix(0.3965,0,0,0.3965,5.95,49.22)"
       id="g1">
      <path
         d="m 51.12,-52.98 v 13.28 q -5.6,-2.35 -10.84,-3.52 -5.22,-1.17 -9.86,-1.17 -4.98,0 -7.4,1.25 -2.41,1.25 -2.41,3.83 0,2.11 1.83,3.23 1.83,1.11 6.56,1.66 l 3.08,0.44 q 13.44,1.7 18.06,5.6 4.64,3.91 4.64,12.27 0,8.73 -6.45,13.14 Q 41.89,1.42 29.11,1.42 23.69,1.42 17.89,0.56 12.11,-0.3 6,-2 v -13.28 q 5.23,2.53 10.72,3.81 5.5,1.27 11.16,1.27 5.14,0 7.71,-1.41 2.6,-1.42 2.6,-4.22 0,-2.34 -1.78,-3.48 -1.79,-1.14 -7.11,-1.78 l -3.08,-0.39 q -11.67,-1.47 -16.36,-5.43 -4.69,-3.95 -4.69,-12.01 0,-8.69 5.95,-12.88 5.97,-4.2 18.27,-4.2 4.84,0 10.16,0.73 5.33,0.72 11.57,2.29 z m 67.48,7.37 q 3.33,-5.08 7.89,-7.73 4.56,-2.66 10.03,-2.66 9.42,0 14.36,5.81 4.94,5.8 4.94,16.89 V 0 h -17.58 v -28.52 q 0.05,-0.64 0.06,-1.31 0.03,-0.69 0.03,-1.95 0,-5.81 -1.71,-8.42 -1.71,-2.63 -5.52,-2.63 -4.97,0 -7.69,4.11 -2.7,4.1 -2.81,11.86 V 0 h -17.58 v -28.52 q 0,-9.07 -1.56,-11.68 -1.56,-2.63 -5.56,-2.63 -5.03,0 -7.77,4.13 -2.73,4.12 -2.73,11.79 V 0 H 67.82 V -54.69 H 85.4 v 8 q 3.23,-4.62 7.4,-6.97 4.17,-2.34 9.21,-2.34 5.65,0 10,2.73 4.36,2.74 6.59,7.66 z M 227.1,-33.3 V 0 h -17.58 v -5.42 -19.97 q 0,-7.17 -0.31,-9.86 -0.32,-2.69 -1.1,-3.95 -1.03,-1.72 -2.8,-2.68 -1.75,-0.95 -4,-0.95 -5.46,0 -8.59,4.24 -3.12,4.21 -3.12,11.68 V 0 h -17.47 v -75.98 h 17.47 v 29.29 q 3.95,-4.78 8.39,-7.04 4.45,-2.27 9.82,-2.27 9.47,0 14.38,5.81 4.91,5.8 4.91,16.89 z"
         fill="#000000"
         id="path1" />
    </g>
    <g
       transform="matrix(0.3664,0,0,0.3664,98.93,58.8)"
       id="g2">
      <path
         d="m 0.18,-27.7 h 25.54 v 5.4 H 16.53 V 0 H 9.39 V -22.3 H 0.18 Z m 29.23,0 h 9.09 l 6.31,14.82 6.35,-14.82 h 9.07 V 0 H 53.48 V -20.26 L 47.09,-5.33 H 42.56 L 36.18,-20.26 V 0 h -6.77 z"
         fill="#000000"
         id="path2" />
    </g>
  </g>
</svg>
