<?xml version="1.0" encoding="UTF-8" standalone="no"?>
<svg xmlns="http://www.w3.org/2000/svg" width="128" height="128" viewBox="0 0 64 64" version="1.1">
  <!-- Nebula cloud: black outline + shaded body (light) with a bright inner puff and two sparkles.
       Runtime tint (ParticleDefs.heal_nebula) multiplies the fill to a violet/magenta nebula. -->
  <path d="M 14,43 C 8,43 8,34 15,33 C 14,25 26,23 30,30 C 33,23 45,24 45,32 C 51,32 51,43 45,43 Z"
        fill="#cfc7e6" stroke="#111114" stroke-width="2" stroke-linejoin="round"/>
  <path d="M 20,40 C 16,40 16,35 21,35 C 22,31 30,31 31,36 C 35,34 40,37 38,40 Z" fill="#ffffff"/>
  <path d="M 48,14 L 49.5,17.5 L 53,19 L 49.5,20.5 L 48,24 L 46.5,20.5 L 43,19 L 46.5,17.5 Z"
        fill="#ffffff" stroke="#111114" stroke-width="1.2" stroke-linejoin="round"/>
  <path d="M 13,20 L 14,22.5 L 16.5,23.5 L 14,24.5 L 13,27 L 12,24.5 L 9.5,23.5 L 12,22.5 Z"
        fill="#ffffff" stroke="#111114" stroke-width="1" stroke-linejoin="round"/>
</svg>
