<?xml version="1.0" encoding="UTF-8" standalone="no"?>
<svg
   width="96"
   height="96"
   viewBox="0 0 25.4 25.4"
   version="1.1"
   id="svg37"
   xml:space="preserve"
   xmlns="http://www.w3.org/2000/svg"
   xmlns:svg="http://www.w3.org/2000/svg"
   xmlns:rdf="http://www.w3.org/1999/02/22-rdf-syntax-ns#"
   xmlns:cc="http://creativecommons.org/ns#"
   xmlns:dc="http://purl.org/dc/elements/1.1/"><metadata
     id="metadata41"><rdf:RDF><cc:Work
         rdf:about=""><dc:format>image/svg+xml</dc:format><dc:type
           rdf:resource="http://purl.org/dc/dcmitype/StillImage" /><dc:title /></cc:Work></rdf:RDF></metadata><defs
     id="defs17"><clipPath
       clipPathUnits="userSpaceOnUse"
       id="clipPath992"><rect
         style="fill:#595959;fill-opacity:1;stroke:none;stroke-width:1.5875;stroke-linecap:round;stroke-linejoin:miter;stroke-miterlimit:10;stroke-dasharray:none;stroke-opacity:1"
         id="rect994"
         width="25.400003"
         height="25.400003"
         x="8.4666643"
         y="8.4666643" /></clipPath></defs><rect
     y="8.4666643"
     x="8.4666643"
     height="25.400003"
     width="25.400003"
     id="rect990"
     style="fill:#646464;fill-opacity:1;stroke:#000000;stroke-width:3.175;stroke-linecap:round;stroke-linejoin:miter;stroke-miterlimit:10;stroke-dasharray:none;stroke-opacity:1"
     clip-path="url(#clipPath992)"
     transform="translate(-8.4666643,-8.4666691)" /><ellipse
     style="fill:#363636;fill-opacity:1;stroke:#000000;stroke-width:0.366713;stroke-linecap:round;stroke-linejoin:miter;stroke-miterlimit:4;stroke-dasharray:none;stroke-opacity:1"
     id="ellipse1049"
     cx="2.645833"
     cy="2.6458321"
     rx="0.52916652"
     ry="0.52916664" /><ellipse
     ry="0.52916664"
     rx="0.52916652"
     cy="2.6458321"
     cx="22.754169"
     id="ellipse1056"
     style="fill:#363636;fill-opacity:1;stroke:#000000;stroke-width:0.366713;stroke-linecap:round;stroke-linejoin:miter;stroke-miterlimit:4;stroke-dasharray:none;stroke-opacity:1" /><ellipse
     ry="0.52916664"
     rx="0.52916652"
     cy="22.754162"
     cx="2.645833"
     id="ellipse1058"
     style="fill:#363636;fill-opacity:1;stroke:#000000;stroke-width:0.366713;stroke-linecap:round;stroke-linejoin:miter;stroke-miterlimit:4;stroke-dasharray:none;stroke-opacity:1" /><ellipse
     style="fill:#363636;fill-opacity:1;stroke:#000000;stroke-width:0.366713;stroke-linecap:round;stroke-linejoin:miter;stroke-miterlimit:4;stroke-dasharray:none;stroke-opacity:1"
     id="ellipse1060"
     cx="22.754169"
     cy="22.754162"
     rx="0.52916652"
     ry="0.52916664" /><circle
     style="fill:#000c87;fill-opacity:0.707143;stroke:none;stroke-width:0.264581;paint-order:stroke markers fill"
     id="path44-3"
     cx="12.858232"
     cy="12.813385"
     r="8.6697407" /><path
     d="m 8.9565879,7.9682217 a 1.3789871,1.3789871 0 0 0 -1.382014,1.382013 v 6.9101603 a 1.3789871,1.3789871 0 0 0 1.382014,1.382013 h 8.2920791 a 1.3789871,1.3789871 0 0 0 1.382012,-1.382013 V 9.3502347 a 1.3789871,1.3789871 0 0 0 -1.382012,-1.382013 z m 2.7640251,1.382013 h 2.764027 v 2.0730663 h 2.073068 v 2.764027 H 14.48464 v 2.073067 H 11.720613 V 14.187328 H 9.6475469 v -2.764027 h 2.0730661 z"
     fill="#ffffff"
     id="path1-0-2"
     style="fill:#646464;fill-opacity:1;stroke-width:0.0945613" /><path
     d="m 10.488632,9.7549437 c -0.47177,-10e-4 -0.8544761,0.3816703 -0.8534391,0.8534403 v 4.267254 c -10e-4,0.47177 0.3816691,0.854475 0.8534391,0.853439 1.510964,1.763231 3.222751,1.71906 5.120636,0 0.47177,10e-4 0.854474,-0.381669 0.853438,-0.853439 0.227289,-1.331503 0.256024,-2.742427 0,-4.267254 10e-4,-0.47177 -0.381668,-0.8544763 -0.853438,-0.8534403 -1.65678,-1.803558 -3.367149,-1.677912 -5.120636,0 z m 1.706878,0.8534403 h 1.706879 v 1.280187 h 1.280188 v 1.706879 h -1.280188 v 1.280188 H 12.19551 V 13.59545 h -1.280187 v -1.706879 h 1.280187 z"
     fill="#ffffff"
     id="path1-0-4-2"
     style="fill:#646464;fill-opacity:0.178571;stroke-width:0.0583948" /></svg>
