<?xml version="1.0" encoding="UTF-8" standalone="no"?>
<svg
   width="97.355171"
   height="128"
   viewBox="0 0 97.355171 128"
   version="1.1"
   xml:space="preserve"
   style="clip-rule:evenodd;fill-rule:evenodd;stroke-linecap:round;stroke-linejoin:round;stroke-miterlimit:1.5"
   id="svg19"
   sodipodi:docname="part-heal-ruby.svg"
   inkscape:version="1.4.2 (f4327f4, 2025-05-13)"
   xmlns:inkscape="http://www.inkscape.org/namespaces/inkscape"
   xmlns:sodipodi="http://sodipodi.sourceforge.net/DTD/sodipodi-0.dtd"
   xmlns="http://www.w3.org/2000/svg"
   xmlns:svg="http://www.w3.org/2000/svg"><defs
     id="defs19" /><sodipodi:namedview
     id="namedview19"
     pagecolor="#ffffff"
     bordercolor="#000000"
     borderopacity="0.25"
     inkscape:showpageshadow="2"
     inkscape:pageopacity="0.0"
     inkscape:pagecheckerboard="0"
     inkscape:deskcolor="#d1d1d1"
     inkscape:zoom="3.1835938"
     inkscape:cx="-10.83681"
     inkscape:cy="52.613497"
     inkscape:window-width="1920"
     inkscape:window-height="1017"
     inkscape:window-x="-8"
     inkscape:window-y="-8"
     inkscape:window-maximized="1"
     inkscape:current-layer="svg19" /><g
     id="g4"
     transform="matrix(1.2868646,0,0,1.2868646,-33.681107,-18.246453)"><rect
       x="47.685001"
       y="14.679"
       width="32.629002"
       height="98.641998"
       style="fill:#ebebeb"
       id="rect1" /><rect
       x="26.674"
       y="34.978001"
       width="74.653"
       height="58.044998"
       style="fill:#ebebeb"
       id="rect2" /><path
       d="M 47.685,14.679 26.673,34.978 v 58.045 l 21.012,20.299 H 80.314 L 101.326,93.023 V 34.978 L 80.421,14.679 Z"
       style="fill:#ebebeb;stroke:#000000;stroke-width:1px"
       id="path2" /><rect
       x="52.296001"
       y="24.577"
       width="23.409"
       height="78.847"
       style="fill:#ebebeb"
       id="rect3" /><rect
       x="37.221001"
       y="40.801998"
       width="53.556999"
       height="46.396"
       style="fill:#ebebeb"
       id="rect4" /><path
       d="M 52.296,29.19 41.667,40.802 41.835,87.198 52.296,98.139 H 75.705 L 86.166,87.198 85.83,40.802 75.705,29.19 Z"
       style="fill:#b3b3b3;stroke:#000000;stroke-width:1px"
       id="path4" /></g><path
     d="M 20.154873,93.965566 0.64471864,101.46027 Z"
     style="fill:#ebebeb;stroke:#000000;stroke-width:1.28686px"
     id="path5" /><path
     d="m 33.616764,108.04515 -5.956896,19.53718 z"
     style="fill:#ebebeb;stroke:#000000;stroke-width:1.28686px"
     id="path6" /><path
     d="M 69.809831,127.58233 63.562103,108.04515 Z"
     style="fill:#ebebeb;stroke:#000000;stroke-width:1.28686px"
     id="path7" /><path
     d="m 77.201581,93.965566 19.510158,7.494704 z"
     style="fill:#ebebeb;stroke:#000000;stroke-width:1.28686px"
     id="path8" /><path
     d="M 76.722867,34.199714 96.711739,26.820832 Z"
     style="fill:#ebebeb;stroke:#000000;stroke-width:1.28686px"
     id="path9" /><path
     d="M 63.562103,19.317124 69.809831,0.64343198 Z"
     style="fill:#ebebeb;stroke:#000000;stroke-width:1.28686px"
     id="path10" /><path
     d="M 33.616764,19.317124 27.665015,0.64343198 0.64471864,26.820832 19.93868,34.199714 Z"
     style="fill:#d5d5d5;stroke:#000000;stroke-width:1.28686px"
     id="path11" /><path
     d="M 69.809831,0.64343198 H 27.665015 L 33.616764,19.317124 h 30.245179 z"
     style="fill:#d5d5d5;stroke:#000000;stroke-width:1.28686px"
     id="path12" /><path
     d="M 0.64471864,26.820832 19.93868,34.199714 20.199914,93.965566 0.64343164,101.34831 V 26.820832 Z"
     style="fill:#d5d5d5;stroke:#000000;stroke-width:1.28686px"
     id="path13" /><path
     d="M 0.64471864,26.820832 19.93868,34.199714 Z"
     style="fill:#ebebeb;stroke:#000000;stroke-width:1.28686px"
     id="path14" /><path
     d="M 69.809831,0.64343198 96.711739,26.820832 76.722867,34.199714 63.861943,19.317124 Z"
     style="fill:#b3b3b3;stroke:#000000;stroke-width:1.28686px"
     id="path15" /><path
     d="M 0.64343164,101.34831 20.199914,93.965566 33.688828,108.04515 27.751235,127.58233 0.64343164,101.46155 Z"
     style="fill:#b3b3b3;stroke:#000000;stroke-width:1.28686px"
     id="path16" /><path
     d="M 76.802653,34.260196 96.711739,26.819545 V 101.34831 L 77.201581,93.874199 Z"
     style="fill:#969696;stroke:#000000;stroke-width:1.28686px"
     id="path17" /><path
     d="m 63.640602,108.04515 6.169229,19.53718 26.901908,-26.23402 -19.508871,-7.382744 z"
     style="fill:#969696;stroke:#000000;stroke-width:1.28686px"
     id="path18" /><path
     d="m 33.688828,108.04515 -5.937593,19.53718 H 69.71975 l -6.079148,-19.53718 z"
     style="fill:#969696;stroke:#000000;stroke-width:1.28686px"
     id="path19" /></svg>
