<svg width="128" height="128" xmlns="http://www.w3.org/2000/svg" viewBox="0 0 128 128"><path d="M480 1256c-97-26-150-50-237-112-113-81-184-191-222-346-25-102-26-134-6-253 29-181 142-347 300-442C425 38 586-7 670 5c173 24 287 67 380 145 92 77 180 215 196 308 3 20 12 59 20 86 24 84-4 260-59 373-47 97-124 183-226 250-77 51-124 69-235 92-122 26-158 25-266-3m298-75c58-16 146-61 207-106 88-67 195-212 200-274 1-15 4-32 7-37 4-5 9-30 13-56 8-50-14-133-45-172-55-70-74-86-83-77-6 6-47 11-92 11-61 0-90 5-120 20-22 11-44 20-50 20-5 0-31 20-57 45-44 41-49 43-77 34-16-6-35-17-42-25-6-8-29-14-51-14-28 0-45-7-61-24-12-13-38-27-57-31-51-11-110-36-110-46 0-5-12-14-26-19-14-6-28-19-31-29-3-11-14-22-26-25-24-6-16-18 15-23 12-2 26-8 33-13 13-11 73 2 135 29 44 19 94 19 106 0 7-12 71-11 111 0 40 12 71-2 137-60 58-52 59-73 4-98-41-19-169-39-253-40-72-1-209 21-245 39-51 26-95 75-78 86 9 6 0 11-27 14-32 4-40 9-40 25 0 13-8 21-23 23-18 3-30 17-47 55-61 140-60 357 3 482 31 62 135 169 210 216 105 67 186 89 312 85 58-1 124-8 148-15" style="fill:#000" transform="matrix(.1 0 0 -.1 0 128)"/><path d="M68.5 37.5C65.3 40.6 64.7 48 66.9 56c.6 1.9 1.3 4.8 1.6 6.3.4 2.2 1 2.7 2.4 2.2 2.2-.7 7.1 1.3 7.1 3 0 .6 1.5 1.6 3.3 2.3 8.5 3.1 13.5-.1 14.8-9.3.6-4.7 1.3-6.3 3.3-7.8 3-2.1 3.5-4.9.9-4.5-1.1.2-1.7-.2-1.5-1.1.4-2.1-2.6-7.9-4.8-9.1-1.7-.9-2.1-.6-2.6 1.6-.6 2.3-1 2.5-3.8 1.8-1.7-.5-5.7-.8-8.9-.9-5.9 0-6.5-.3-4.6-2.2 1.4-1.4.3-3.3-1.7-3.3-.8 0-2.6 1.1-3.9 2.5M84 52.8c0 .9-.9 2.3-2 3-1.7 1-2 1-2-.3 0-1.7 2-4.4 3.3-4.5.4 0 .7.8.7 1.8M51.9 36.7c-.1.5-.1 1.1 0 1.5 0 .5-2.6.8-5.9.8-4.1 0-7.4.7-10 2-4.9 2.5-4.9 2.5-4.3-.1 1-3.6-1.9-1.7-4.6 3-2.1 3.8-2.2 4.5-1 7.4.7 1.8 2.3 4.2 3.6 5.5 1.3 1.2 2.1 2.7 1.8 3.3-1.3 2 .6 5.9 3.5 7.4 2.4 1.2 3.8 1.4 6.8.5 4.5-1.2 12.4-6.5 13.4-8.8 1.2-3 .9-17.7-.4-20.5-1.2-2.6-2.7-3.5-2.9-2m-7.1 15.7c.5 4.2-1.3 5.3-3.3 2.2-1.4-2.1-1.5-2.9-.5-4.1 1.8-2.2 3.4-1.3 3.8 1.9m11 43.4c-6.4 3.9-4.1 6.9 6.7 8.7 8.8 1.6 12.5.7 12.5-3 0-5.9-12.7-9.6-19.2-5.7"/><path d="M71.333 147.724c-.279-.027-1.39-.11-2.47-.187-5.624-.397-13.396-1.538-19.025-2.793-4.88-1.088-6.995-1.89-9.81-3.721-3.668-2.387-6.596-5.216-7.725-7.465-.593-1.182-.591-1.737.006-2.266 1.112-.985.27-1.476-3.421-1.995-3.07-.432-4.297-.806-4.922-1.497-.33-.364-.577-1.126-.585-1.796-.009-.838-.222-1.47-.665-1.974-.505-.576-1.143-.896-2.247-1.128-1.191-.25-1.92-.614-2.742-1.365-1.992-1.82-4.487-7.14-6.333-13.502-1.557-5.368-2.584-11.325-3.116-18.077-.208-2.643-.208-10.697 0-13.304.809-10.17 2.748-18.176 6.045-24.956 2.208-4.54 7.157-10.735 13.823-17.305 5.583-5.502 10.049-9.135 15.155-12.329 12.618-7.891 22.718-10.85 37.028-10.85 8.874.001 18.859.873 23.198 2.026 7.173 1.906 18.42 7.536 26.513 13.272 8.8 6.237 20.054 19.53 25.291 29.87 1.71 3.376 2.327 5.28 2.668 8.236.267 2.31.485 3.317.948 4.372.699 1.59 1.687 6.584 1.849 9.335.203 3.456-.752 8.997-2.288 13.28-.683 1.905-2.084 4.869-2.888 6.11-1.204 1.859-5.536 7.105-7.744 9.378-2.341 2.41-3.33 2.933-4.302 2.273-1.206-.819-5.28-1.29-12.248-1.419-9.299-.171-11.462-.568-16.81-3.084-2.805-1.32-4.378-1.953-5.426-2.184-1.264-.28-3.489-1.932-7.147-5.309-4.22-3.894-5.275-4.768-6.472-5.36-.761-.375-.914-.405-2.09-.4-1.055.003-1.44.063-2.283.356-2.135.744-4.598 2.146-5.796 3.3-1.006.968-2.203 1.455-4.403 1.792-.662.101-1.66.185-2.217.186-1.452.002-3.155.214-4.182.519-1.486.442-2.49 1.056-3.954 2.42-1.448 1.347-2.82 2.32-4.345 3.082-1.43.715-2.28 1.004-4.832 1.644-4.079 1.023-8.172 2.481-10.902 3.882-1.602.823-2.324 1.381-2.508 1.94-.244.739-1.246 1.503-3.265 2.488-1.709.834-1.923.979-2.947 1.996-.909.902-1.153 1.231-1.381 1.857-.61 1.676-1.785 2.835-3.412 3.367-1.655.54-2.14.993-1.819 1.698.21.461 1.56 1.042 3.382 1.454 2.38.539 3.58.999 4.926 1.89.453.3.642.337 1.907.376 3.377.104 8.78-1.32 15.342-4.04 3.588-1.489 5.694-2.004 8.614-2.11 3.014-.108 4.826.367 5.855 1.534.981 1.113 2.112 1.376 5.928 1.38 3.58.004 5.64-.244 9.344-1.124 3.276-.778 5.276-.577 8.148.817 3.302 1.604 8.516 5.663 12.412 9.662 3.589 3.684 4.205 5.739 2.332 7.77-1.036 1.125-3.804 2.658-6.3 3.49-5.327 1.776-15.67 3.512-25.683 4.311-1.68.135-9.091.265-10.01.177m24.39-7.608c1.907-.38 3.256-1.264 3.88-2.54.493-1.006.573-2.799.178-3.965-.37-1.09-.789-1.78-1.64-2.703-3.002-3.253-8.821-5.335-14.898-5.33-4.459.005-7.558.96-10.644 3.283-5.361 4.033-3.455 7.24 5.64 9.486 2.683.662 8.307 1.635 10.642 1.84.871.076 1.812.16 2.09.187.938.089 3.793-.066 4.752-.258m21.455-45.537c6.206-.589 9.657-5.003 11.04-14.124.98-6.456 1.725-8.115 4.64-10.334 1.833-1.396 3.002-2.999 3.126-4.287.123-1.28-.532-1.757-2.215-1.614-1.08.091-1.746-.11-1.919-.578-.059-.16-.08-.644-.048-1.075.197-2.585-2.375-8.105-5.047-10.834-1.276-1.304-3.009-2.041-3.8-1.618-.363.194-.703.954-1.132 2.53-.653 2.403-.965 2.81-2.212 2.89-.587.038-1.26-.052-2.495-.334-3.322-.757-6.835-1.093-13.474-1.289-5.178-.153-6.019-.303-6.019-1.074 0-.274 1.027-1.677 1.393-1.903.306-.19.635-1.092.635-1.745 0-1.441-1.247-2.517-2.945-2.54-.676-.01-.927.057-1.695.45-1.915.982-3.924 2.78-5.073 4.54-3.174 4.863-3.37 14.572-.486 24.127.42 1.391 1.236 4.66 1.769 7.08.733 3.33 1.174 3.753 3.37 3.231 1.07-.254 1.268-.265 2.293-.129 3.352.446 6.773 2.36 7.023 3.928.11.686.556 1.155 1.896 1.99 2.085 1.3 5.767 2.452 8.652 2.71.603.053 1.154.105 1.223.114s.745-.04 1.5-.112m-63.395-3.354c3.296-.693 6.511-2.064 10.592-4.517 4.88-2.932 8.809-6.27 9.358-7.952.623-1.903.886-5.296.881-11.35-.006-8.702-.57-13.937-1.757-16.345-.975-1.977-2.048-3.103-2.956-3.104-.364 0-.444.062-.617.475-.121.287-.206.891-.216 1.53-.013.85-.06 1.088-.24 1.22-.542.396-3.084.653-7.568.766-6.673.167-9.541.822-14.684 3.353-2.921 1.438-4.017 1.873-4.37 1.737-.278-.106-.264-.783.042-2.058.512-2.134.441-2.862-.286-2.946-1.527-.177-5.572 5.077-7.65 9.936-.471 1.1-.483 1.164-.478 2.648.004 1.453.026 1.576.49 2.787 1.18 3.069 2.848 5.74 5.264 8.426C41.146 77.563 42 78.9 42 79.609c0 .177-.127.583-.284.901-.422.859-.394 2.508.066 3.834 1.143 3.294 4.026 5.88 7.597 6.816 1.144.3 3.148.33 4.403.065" style="fill:#4d4d4d;stroke-width:.126701" transform="scale(.8)"/><path d="M57.19 74.707c-.65-.411-1.21-1.06-2.07-2.397-1.591-2.474-1.627-3.505-.178-5.148 1.942-2.203 3.645-1.651 4.495 1.456.163.594.225 1.312.231 2.651.01 2.101-.15 2.863-.717 3.43-.483.484-1.008.486-1.761.008m49.81.492c-.145-.09-.19-.374-.19-1.17 0-.948.044-1.143.468-2.03.587-1.23 1.08-1.949 1.888-2.758.71-.71 1.514-1.174 1.93-1.115.448.064.769.89.776 2.003.005.808-.05 1.061-.368 1.688-.586 1.157-1.67 2.248-2.823 2.843-1.194.616-1.436.693-1.682.539" style="fill:#4d4d4d;stroke-width:.126701" transform="scale(.8)"/></svg>