<svg width="134" height="134" xmlns="http://www.w3.org/2000/svg" fill="none" viewBox="0 0 134 134"><path fill="#03674f" d="M67.473 133.58C30.754 133.58.988 103.851.988 67.22.988 30.592 30.754.863 67.473.863s66.484 29.729 66.484 66.359-29.766 66.359-66.484 66.359"/><path fill="#008a69" d="M4.056 64.052a7.8 7.8 0 0 0 1.43-2.022c.358.833.953 1.665 1.55 2.379-.477-5.946-.24-12.012.476-17.958.357-2.735.834-5.351 1.31-8.086-.238-.357-.476-.476-.834-.595A57 57 0 0 0 3.7 48.592c-.12 5.114-.12 10.227.357 15.46m24.186 50.542c-7.506-7.967-12.987-17.362-16.68-27.947-.12-.119-.12-.356-.12-.475-.238.594-.357 1.189-.238 1.546.358 1.07.715 2.021 1.073 3.092-1.43-2.973-2.98-5.828-4.528-8.682-.12-.237-.357-.475-.477-.475 2.74 9.87 7.03 19.265 13.345 27.59 2.026 2.735 4.408 5.233 6.791 7.73.477-.476.954-1.546.834-2.379m9.413 8.563c-.238.476-.238 1.189-.12 1.546l.358 1.07c-.119 0-.119.119-.238.119-.12 0-.357-.119-.477-.238-.595-.475-1.072-.951-1.548-1.427-.239-.238-.477-.119-.715 0 1.31 1.071 2.502 2.141 3.812 3.092 4.29 2.022 8.817 3.568 13.583 4.757-.357-.119-.834-.357-1.31-.594-.12-.119-.358-.119-.477-.238-4.528-2.141-8.817-4.995-12.868-8.087"/><path fill="#00764b" d="m3.695 64.412.358-.357a110 110 0 0 1-.358-15.34c-1.43 4.637-2.263 9.632-2.62 14.627.118.594.357 1.189.595 1.784.477 1.189 1.549.118 2.025-.714m22.639 52.921c.238 0 .595-.238.834-.357-2.383-2.497-4.647-5.114-6.792-7.73-6.315-8.206-10.604-17.72-13.344-27.59-1.073-.595-2.383 1.784-2.026 2.854a151 151 0 0 0 3.932 11.06c-2.502-4.995-4.766-10.227-7.03-15.222 3.456 15.936 12.272 29.731 24.545 39.363.357-.713.357-1.665-.12-2.378m8.341 7.373a9 9 0 0 0-1.668-.476h-.12c1.907 1.19 3.813 2.26 5.839 3.211-1.31-1.07-2.621-2.021-3.813-3.092 0 0-.119.119-.238.357"/><path fill="#31b164" d="M12.512 67.74c.357 1.07 1.43 0 1.787-.713.238-.951.358-1.784.358-2.735 1.072.238 2.263-1.19 2.62-2.26 0-.119.12-.238.12-.356.477 2.14 1.072 4.28 1.549 6.421.357 1.903 2.144 0 2.264-.951v-.119c.476.238.953.119 1.43-.119.357 1.427.834 2.973 1.31 4.4.477 1.546 2.145-.594 2.145-1.308.119-.832.119-1.784.119-2.616.119.594.357 1.189.596 1.784.834 2.021 2.86-.476 2.978-1.665.239.238.596.238.953.238.477.118.954 0 1.311-.595.358 1.19 1.072 2.14 2.502 2.735.715.238 1.31-.238 1.787-.713 1.311-1.903 1.43-4.163 2.026-6.303a6.3 6.3 0 0 0 1.43 1.665c-.239 2.021-.596 4.043-1.073 5.827-.238.951.715 1.07 1.192.238.238-.476.476-1.07.715-1.665 0 .238.119.475.119.594.715 2.26 3.217 0 3.694-1.07v-.119c.357.476.714.952 1.31 1.427.834.595 1.787-.713 2.145-1.308.596-1.07.715-2.14 1.072-3.21l.358.356c.595.476 1.072.119 1.31-.476 0 2.022.12 3.925.477 5.946.238 1.19 1.43-.118 1.43-.832V68.93c.834.713 2.263-.12 2.74-.833l.119-.119c.238.238.358.595.596.833.238.357.834.476 1.191.357.477-.238.953-.476 1.31-.833q-.177 1.249-.357 2.498c-.238.951.715.951 1.073.237.476-.951.834-1.902 1.191-2.854.12.357.358.714.596 1.07.715 1.19 2.145.833 2.74-.237.239-.476.477-.833.596-1.308.953.713 2.026 1.546 3.336 1.189 1.55-.476 2.145-1.665 2.621-2.973.715.475 1.311.951 2.145 1.308.358.119.715-.12.953-.357.715-1.19 1.43-2.14 2.86-2.378.119 0 .357-.12.357-.238v.951c-.119.238 0 .833.358.833.357 0 .596-.238.715-.595.119-.119.119-.238.119-.357.119.238.238.357.238.595.12.357.596.476.953.238a5.1 5.1 0 0 0 1.31-1.427c.12-.12.12-.357.12-.595 1.072.357 2.383.119 3.217-.714.238-.356.715-1.189.12-1.427-.358-.118-1.192-.118-1.43-.356-.239-.476-.835-.833-1.311-1.07-.715-.358-1.55.475-1.787 1.07-.239.475-.358.951-.477 1.546l-.238-.238c-.239-.357-.477-.238-.715 0 0-.12 0-.12-.12-.238-.118-.357-.595-.238-.833-.119-.12.119-.239.357-.358.476-.238-.12-.476-.357-.715-.476-.238-.119-.476 0-.715.119-1.072.594-1.668 1.427-2.144 2.378-.715-.951-1.31-1.902-2.264-2.735-.953-.832-1.906.476-2.145 1.308-.596 1.784-.595 1.427-1.549-.119-.357-.713-.834-1.308-1.31-2.021-.715-.952-2.145 0-2.621.713-.239.238-.358.595-.477.952-.358-.833-.596-1.665-.953-2.379-.953-2.378-3.217 1.19-3.098 2.379v.713s-.12 0-.12.12c-.238-.715-.595-1.428-.952-2.142-.596-.95-1.55-.95-2.383-.475-.12-.714-.358-1.427-.715-2.022-1.192-2.26-3.694.595-3.694 2.14v1.309c-.238-.595-.715-.952-1.43-1.19-.834-.237-1.549.357-1.906 1.07-.12.12-.12.239-.12.358-.118-.952-.118-2.022-.357-2.855-.357-1.308-2.144-.95-2.86-.237 0 0 0 .119-.118.119 0-.595 0-1.19-.12-1.665 0-1.19-1.31-1.665-2.263-1.07-.834.475-1.31 1.308-1.55 2.14-.118-.357-.237-.595-.357-.951-.595-1.308-2.025-.12-2.383.594-.953 1.665-.953 4.163-1.548 6.065-.835-2.616.476-6.421-.954-8.8-.595-1.07-1.668-.951-2.502-.357-.119-.475-.238-1.07-.476-1.546-.596-1.546-2.264-.119-2.74.714 0 .119-.12.238-.12.357 0-.833-.119-1.546-.238-2.379 0-.476-.239-.713-.358-.832v-.357c0-.952-.715-1.784-1.549-1.546-.476-.595-1.31.238-1.668.832-.476.12-.834.357-1.191.714 0-1.07-.12-2.14-.477-3.092s-1.191 0-1.43.594c-.476-1.189-1.668 0-2.025.714 0-.119-.12-.357-.12-.476-.476-1.427-1.548-1.189-2.501-.357-.238-1.189-.358-2.378-.477-3.686-.119-1.427-1.787-.238-2.025.594v.357c0-.594-.12-1.308-.239-1.903-1.668 7.73-2.502 15.46-2.025 23.19m5.242-34.844c.239.119.596-.119.715-.476l.715-2.14c0 .951.12 1.783.358 2.735.476 2.378 2.74.951 3.455-.357.357-.713.715-1.427.953-2.021 0 1.545.12 2.972.358 4.519.357 2.497 2.74 0 2.978-1.309.12-.951.358-1.902.477-2.854-.12 1.665-.12 3.449.119 5.114.12.951 1.072 0 1.072-.476.12-.951.12-1.784.358-2.735 0 .832-.12 1.665-.12 2.497 0 2.379 1.669 2.26 2.86 1.309 0 .713 0 1.308.12 2.021.238 1.546 1.787.595 2.263-.238.357-.713.596-1.546.953-2.378-.119.832-.119 1.546.12 2.26.238.713.833 0 .953-.357 0-.238.119-.476.119-.595.238.833 1.072.952 1.787.357.238.595.715.713 1.31.713 0 .12-.119.238-.119.357-.238.476.239.952.596.476a7.6 7.6 0 0 0 .953-1.665c.12-.119.239-.357.358-.595 0-.119.119-.237.119-.356.12-.357.238-.595.476-.952-.238 1.07-.476 2.14-.595 3.211-.358 2.26 2.144 2.26 3.098.833.595-.833 1.072-1.665 1.548-2.498 0 2.617.477 4.995 2.86 6.065.12 0 .238 0 .238.12.596 1.426 2.74-.358 2.98-1.428.237-.951.476-2.022.714-2.973v.951c0 1.309.12 2.498.834 3.687.477.832 1.549.476 2.026-.238.834-1.308 1.191-2.616 1.906-3.924.596-1.19 1.191 2.26 1.31 2.735 0 0 0 .119.12.119 0 0 0 .119-.12.119-.357.594.12 1.546.834.951.358.952 1.43.714 2.026.12.12-.239.358-.358.477-.596l.715.714c.595.357 1.31.476 1.787-.119.476-.713.357-1.665.119-2.497-.238-.952-.596-1.665-1.192-2.498-.357-.475-.714-.475-1.191-.237a.89.89 0 0 0-.596-.833c-.596-.238-1.072.119-1.549.476-.119-.833-.476-1.665-1.191-2.022-1.192-.713-2.145.238-2.86 1.427.12-2.022.12-4.043-1.191-5.59-.596-.713-1.55-.237-2.145.357v-2.021c-.834-.238-1.668-.595-2.502-.833 0 .12-.12.12-.12.238v-.238c-2.144-.713-4.288-1.546-6.314-2.616-.12.119-.12.238-.238.357a92 92 0 0 1-1.073 3.092h-.357c-.12-.714-.596-1.07-1.072-1.07-.358 0-.715.118-.954.356 0-.357.12-.594.12-.951.119-.595 0-.833-.239-1.07-.357-.238-.953 0-1.43.356 1.073 1.665 2.264 3.092 3.694 4.52-2.025-1.07-3.813-2.38-5.48-3.925-.12 0-.12 0-.239.119-.357.238-.596.595-.953.951.119-.594.119-1.308.238-1.902-2.621-2.617-4.766-5.59-6.791-8.682a22 22 0 0 0-1.192 2.378c0-1.546 0-3.091-.238-4.637l-.238-.238c-.477-.357-1.073.594-1.073 1.189.596 3.805 1.43 7.492 2.502 11.298-3.336-3.211-3.574-8.087-3.336-12.844-1.549 1.19-2.978 2.497-4.408 3.924-.834 2.855-1.43 5.828-2.383 8.682-.477 1.189-.834 2.735-1.192 4.281m18.468 77.657c-.715-1.189-1.43-2.497-2.264-3.687.715 0 1.43-.951 1.788-1.902.953 1.308 2.025 2.378 3.455 3.329 1.549 1.071 2.979-2.14 2.74-3.211-.715-3.567-3.455-7.73-5.242-11.773 1.43 2.379 2.383 5.233 3.813 7.492 1.31 2.141 3.455-1.189 2.978-2.735 0-.119-.119-.238-.119-.476 1.31 1.665 3.217-1.189 2.979-2.616 0-.238-.12-.595-.12-.833.716 1.19 1.43 2.379 2.265 3.568 1.072 1.665 3.097-1.665 2.859-2.735-.357-1.903-1.31-3.568-2.026-5.233-1.31-2.973.239.476.835 1.308l.357.357v.238c.12 1.07 1.31 0 1.31-.595v-.237c.12-.12.358-.357.477-.595.953 1.19 1.907 2.26 3.217 2.973.715.476 1.668-.475 1.907-1.19.357-.95.595-1.783.595-2.734.477.713.834 1.427 1.43 2.021.953.952 2.026-.713 2.145-1.546.119-1.189-.358-2.497-.477-3.686.238-.238.358-.595.358-.833.238.357.476.714.834 1.07.238.239.476.12.595 0 .477.595 1.073 1.07 1.55 1.665.595.595 1.429 0 1.906-.475a4.73 4.73 0 0 0 1.072-2.498c.953.357 1.906.12 2.979-.95.238-.239.714-1.666-.239-1.428-.595.238-1.072.832-1.668 1.07-.834.12-.834-1.784-.834-2.26-.119-1.545-1.787-.594-2.264.239-.238.594-.476 1.189-.476 1.783-.596-.475-1.192-.95-1.906-1.189-.954-.357-1.55.595-1.669 1.546-.119-.119-.238-.238-.357-.475-.596-.714-1.43.237-1.668.713-.12.238-.12.476-.238.595-.596-1.07-1.192-2.022-2.264-2.617-1.192-.713-2.145 1.309-2.264 2.141-.238 1.19.238 2.616.477 3.924-1.311-1.546-2.264-3.448-4.17-3.924-.477-.119-.954.119-1.311.476-1.192-.714-2.502-.714-3.932 1.07-.12.119-.238.357-.357.476-.239-.357-.596-.595-.834-.952-1.073-1.07-2.264.357-2.74 1.546-.597-.832-1.312-1.546-2.146-2.26-1.191-.95-2.62.476-2.74 1.666v.237a10.3 10.3 0 0 0-2.145-1.664c-1.191-.714-2.502 1.07-2.62 2.021 0 .238 0 .357-.12.595-1.31-2.26-2.86-4.043-5.123-4.757-1.668-.595-2.98 1.784-2.74 3.21v.12c-.12-.12-.358-.12-.477-.238-1.43-.476-2.622 1.308-2.622 2.497v.12c-.953-1.666-2.144-3.093-3.574-4.163-.596-.476-1.191-.357-1.668 0 3.932 11.536 10.485 21.525 18.944 29.969 1.192-.476 2.145-2.498 1.55-3.568m25.854 14.39c-1.549-2.498-3.097-4.995-4.17-7.611-.953-2.022-1.549-4.163-2.144-6.303-.12-.238-.12-.476-.239-.714-.476.119-.953.238-1.31.476-.715.357-.954 1.427-.596 2.022.357.475.715.951 1.191 1.427-.119 0-.119-.119-.238-.119-.834-.238-1.668.713-1.906 1.546-1.073-.476-2.145-.833-3.337-.714-.834 0-1.548.952-1.787 1.903l-.119-.119c-.596-.476-1.31.714-.834 1.189 1.192 1.427 2.502 2.735 3.813 3.925-.12.119-.238.356-.358.594-1.668-1.07-3.455-1.902-5.004-2.973-.357-.238-.596-.119-.834.119-.715-.476-1.43-.951-2.145-1.308-.714-.357-1.31 1.07-.714 1.427.715.357 1.43.951 2.144 1.546 0 .238.12.357.12.476 5.004 3.686 10.723 7.135 16.68 9.87.12 0 .238.119.238 0 .715-.119 1.311-1.308.715-1.783-2.502-2.26-4.408-4.876-5.957-7.73 1.787 1.546 3.574 2.854 5.6 4.281.715.357 1.43-.952 1.191-1.427m18.707-32.704c-.596-.238-1.073.594-1.192 1.07v.119a7 7 0 0 1-1.668-.595c-.596-.237-1.072.238-1.43.595a4.13 4.13 0 0 0-.715 2.854c-.238 0-.476.238-.715.357-.119 0-.119 0-.238.119s-.238.238-.357.238c0 0-.12-.12-.239-.12-.238-.118-.357-.237-.595-.356-1.073-.595-2.145 1.19-2.145 2.022 0 .713.12 1.427.238 2.259-.357-.238-.596-.475-.953-.832-1.191-1.19-2.264 1.189-2.264 2.14v.357-.119c-.119-.238-.357-.475-.715-.475h-.715c-.834 0-1.43.832-1.548 1.546-.239 1.189-.239 2.14-.358 3.092-2.144-.714-4.647-2.379-6.195-.238-1.311 1.903-.835 3.211 0 4.519-.954-.357-2.026-.595-2.98-.595.12.119.12.238.24.476a130 130 0 0 0 6.91 10.941v-.119c.476.595.834 1.189 1.191 1.784.358.119.834-.357.834-.714.12-.713.358-1.308.477-1.903 1.31-5.589 3.813-10.346 6.91-14.746v-1.07c.477-.119.954-.476 1.31-1.071.12 0 .12-.119.24-.119.595-.832 1.31-1.665 1.906-2.497 0-.238.119-.476.119-.832.238-.357.476-.952.476-1.19 0-.356-.119-.713-.119-1.07h.239c.834 0 1.548-1.07 1.31-1.903v-.119c.715.12 1.43 0 2.145-.237.476-.595.834-1.19 1.31-1.784.239-.595 0-1.427-.715-1.784m-18.707 26.163c.358.238.834.476 1.192.713-.238-.118-.596.119-.715.357-.12-.238-.358-.594-.477-.832z"/><path fill="#69bc71" d="M55.528 110.196h.477c-.834-1.784-.953-1.784-.477 0"/><path fill="#69bc71" d="M123.562 94.14c.238-.713.357-1.307.595-2.02 3.694-12.726 5.719-25.094 2.264-38.175-3.455-13.082-12.272-24.023-23.353-31.634-6.076-4.162-12.63-7.254-18.944-10.822-3.217-1.784-6.315-3.568-8.817-6.303-1.31-1.308-2.502-2.735-3.694-4.043-1.43-.12-2.74-.12-4.17-.12a63 63 0 0 0-6.672.358c-.12.475-.596.951-.953 1.07-.239.119-.477.119-.834.119h-.358c-.12 0-.238-.119-.357-.119-.12-.119-.358-.238-.477-.357h-.358c-.118 0-.118-.119-.118-.238-3.694.595-7.15 1.427-10.605 2.617h.12c.119 0 .119 0 .238.119.238.119.357.356.476.594.239-.119.477-.238.715-.119.12 0 .12.12.239.12l.834.832c.357.356.714.475.834.951.119.357 0 .951-.239 1.308.12.12.239.238.358.238h-.596c-.238.238-.477.476-.715.357-.119 0-.238-.12-.357-.12h-.12c-.119-.118-.357-.237-.476-.356h-.477c-.119.12-.357.12-.476.12-.12 0-.239-.12-.358-.239-.953-.119-2.025-.238-2.978-.594-.596-.12-.954.832-.477 1.189 3.455 2.616 7.387 4.995 11.557 6.66-7.149-.714-14.655-2.26-21.327-4.995-2.026 1.189-3.932 2.497-5.72 3.805.12.12.12.357.24.595.118.476.118 1.07.237 1.546l1.43 2.14s0-.118.12-.118c.357-.595 1.072-1.19 1.667-1.19 0 0 .12 0 .12.12h.119l.238.237c.715-.594 1.549-.832 2.145-.475.357.237.595.713.595 1.546v1.427c.358-.238.715-.357.954-.238h.238c.357.119.596.594.715 1.308.238 2.022.119 3.924-.12 5.946.239.238.596.595.954.832.476-.356.834-.356 1.072-.356.12 0 .12.119.238.119l.358-.357c-.715-1.19-1.43-2.379-1.907-3.806-.238-.475.239-1.427.834-1.308.12 0 .12 0 .239.12 1.906 1.426 3.932 2.615 6.076 3.686.477-.833 1.55-1.784 2.264-1.665.358.119.596.357.715 1.189 0 .476.12.951.12 1.308.476-.476 1.19-.951 1.667-.951.596 0 1.073.357 1.31 1.308.12.476.12.951.12 1.427h.12c.476-.595 1.31-1.07 1.906-.951.357.119.595.356.595.951v.832c4.409 1.309 8.817 2.498 13.226 3.925-3.813-3.806-7.15-7.73-9.77-12.487-.358-.595.595-2.022 1.191-1.308 10.604 10.703 27.285 13.081 35.625 26.163 6.553 10.346 9.651 23.309 3.694 34.607-.239.356-.953.832-1.073.119-.953-5.709-1.548-10.704-3.217-15.817 0 1.784-.238 3.449-.595 5.233-.477 5.946-2.502 11.654-5.838 17.124-1.43 2.379-3.098 4.639-4.766 6.78-.12.713-.596 1.426-1.073 1.664-.119.119-.238.119-.357.119-1.43 1.784-2.74 3.568-4.17 5.351-.239.952-.596 1.665-1.55 2.26-.118.119-.238.119-.357.119a15 15 0 0 0-1.549 2.259c0 .357-.357.833-.715 1.071l.596.594v-.594c.12-.476.715-.952 1.192-.952.119 0 .238.119.357.476.12 1.189-.238 2.141-1.072 2.973 0 .119.119.238.119.476.12.713-.477 2.022-1.31 2.022-.12 0-.239 0-.358-.119a3.6 3.6 0 0 1-.953-.476c-.12.713-.596 1.427-1.31 1.308h-.12c.238.238.477.476.715.595.834.832.119 2.735-.953 3.33-.12.951-.954 2.021-1.907 1.902.12.833-.476 1.903-1.31 2.022 1.549 1.189 2.74 2.854 1.072 4.519 0 .595-.12.714-.358.833h-.357c-.12 0-.238 0-.238-.119-.596-.238-.715-1.071-.953-1.665-.12-.238-.239-.476-.358-.595h-.239c-.357-.476-.714-1.07-1.071-1.546-.12.595-.358 1.308-.834 1.784 1.43 1.427 2.74 3.568 2.502 5.47-.12.476-.477 1.19-.954 1.19h-.238l-.715-.357c-.119.832-.596 1.784-1.31 2.259.953.595 1.906 1.071 2.74 1.784h3.217c.953 0 2.026 0 2.979-.119 0-4.281.238-8.562 1.31-12.724-.357 4.281-.357 8.443.358 12.605.953-.118 1.906-.118 2.86-.237.238-8.682 2.025-17.125 6.076-24.618h-.477c-.834-.237-.476-2.259.358-2.616.357-.238.834-.357 1.31-.238.12 0 .12.119.239.238 1.072-1.665 2.263-3.33 3.693-4.876 3.456-3.924 7.507-6.897 11.677-9.751-5.72 7.73-10.247 16.649-12.153 25.806 0 .119.119.119.119.238.119 1.903-.239 3.805 0 5.708.119.595-.596 1.427-1.073 1.308a38 38 0 0 0 0 5.233c.12.595.239 1.07.358 1.546 1.31-.357 2.621-.714 3.932-1.189 0-.357 0-.595.119-.952.596-4.043 2.144-7.849 4.17-11.535-.596 3.33-1.31 7.373-1.43 11.416a34 34 0 0 0 4.766-2.14c.12-.952.239-1.784.477-2.617-.12.833-.12 1.665-.239 2.498 6.792-3.33 12.988-7.849 18.23-13.201a86 86 0 0 1 1.787-8.681c.119-.595.953-1.07 1.311-1.07.238 0 .476.237.357.832a26 26 0 0 0-.238 5.352c1.787-2.141 3.455-4.401 5.004-6.66-.119-3.092 0-6.184.239-9.276m-70.417-81.7c-.357-.237-.715-.356-.953-.594-.238-.119-.357-.357-.596-.476h-.476c-.477-.238 0-1.308.357-1.427a3.2 3.2 0 0 1 1.43-.357c.715.12 1.072.714 1.43 1.309.238.475-.477 2.021-1.192 1.546m33.72 78.49h-.24q-.356-.178-.357-.714v-.356c0-.595.715-1.784 1.43-1.427.715.356.358 1.664-.119 2.021-.12.12-.238.12-.238.238-.12.238-.239.238-.477.238.12.119.12 0 0 0M82.813 3.521c.358.12.715-.119.834-.475-1.906-.476-3.932-.952-5.957-1.19 1.668.595 3.336 1.07 5.123 1.665"/><path fill="#69bc71" d="M45.52 5.305c.119-.238.238-.476.476-.594-.238.118-.357.118-.595.237v.238c.119 0 .119 0 .119.12M9.18 39.912v.595c.476-.238.953-.238 1.31 0 .358.237.596.713.715 1.546 0 .713.12 1.546.239 2.259.119-.119.119-.238.238-.357.357-.594 1.072-.951 1.668-1.07h.477c.476.119.714.476.834 1.19 0 .118 0 .356.119.475.715-3.449 1.668-6.779 2.74-10.227.12-.595.238-1.07.477-1.666-.12 0-.239-.237-.12-.475.954-3.806 2.145-7.73 2.741-11.774-.238.238-.596.595-.834.952-.596 2.973-.834 5.946-1.43 8.8-.238 1.19-1.906 2.735-2.978 2.379-.477-.12-.835-.476-.835-1.309-.119-1.07-.238-2.26-.238-3.33-.119.12-.119.238-.238.357a7 7 0 0 1-.596 1.665c-.119.476-.596.714-.834.714-.12.238-.238.595-.357.832-.239.476-.715.952-1.311 1.308-.357.595-.715 1.309-1.072 1.903l-.715 3.568c0 .476.119.951 0 1.665m25.497 73.97h-.595c-.12 0-.358-.119-.477-.238a30.6 30.6 0 0 1-3.932-3.924c0 1.189-.834 2.735-1.787 2.616q-.357 0-.715-.357l-.476-.475c.476.951 1.072 1.784 1.548 2.735.12.119 0 .238.12.476 1.787 1.902 3.693 3.805 5.719 5.589a45 45 0 0 0 3.693 2.973c.239-.713.715-1.189 1.43-1.07h.12c.357-.476.714-.714 1.19-.476a57 57 0 0 0 3.932 2.498c.12-.357.477-.714.715-.952a9.5 9.5 0 0 1-1.548-1.546c-.12-.119 0-.238-.12-.238a78 78 0 0 1-8.817-7.611m71.37-100.372c-.477-.356-1.072-.713-1.549-1.07.477.357.953.714 1.549 1.07M12.516 67.74c-.596-2.022-1.072-4.162-1.549-6.303-.238 1.308-1.906 4.043-3.336 3.449-.238-.12-.358-.238-.596-.476.477 7.373 1.907 14.747 4.409 21.763.357-.832.953-1.546 1.548-1.665h.358c.238.119.477.238.596.595l.715 1.427v-.12c-.12-.832.357-2.02 1.072-2.496-.12-.357-.238-.714-.357-.952-1.669-5.114-2.503-10.108-2.86-15.222"/><path fill="#00ae70" d="M97.11 124.464c-.24.833-.358 1.784-.477 2.617.119 0 .119-.119.238-.119.119-.833.119-1.665.238-2.498m-17.872-.713c.953-4.757 2.383-12.012 6.434-15.698l-.357 1.07c.357-.595.714-1.189 1.191-1.784.238-.357.477 0 .238.357-.953 1.427-1.668 2.973-2.383 4.4-.953 2.973-1.906 5.946-2.502 9.038-.357 1.665-.715 3.568-.953 5.471.358-.238.596-.357.953-.238.12 0 .239.119.358.238-.358-3.568-.12-6.422 1.787-6.303.12 0 .238 0 .238.119.477.357 0 1.546-.357 1.665-.477.238.238 4.043 1.072 7.968a38 38 0 0 1 0-5.233c-.119 0-.238-.119-.238-.476-.239-1.902-.12-4.043.119-5.946 0-.357.715-1.07.953-.832l.12.119c2.025-9.158 6.433-18.077 12.152-25.807-4.17 2.854-8.22 5.827-11.676 9.752-1.43 1.546-2.621 3.211-3.694 4.876.477.357.477 1.07.358 1.665-.12.594-.596 1.189-1.192 1.189-.119 0-.238 0-.357-.119-.12-.119-.239-.119-.239-.238-4.17 7.492-5.957 16.055-6.076 24.617 1.072-.119 2.145-.238 3.217-.475-.12-3.211.238-6.303.834-9.395"/><path fill="#00ae70" d="M85.671 107.934c-4.051 3.686-5.48 10.941-6.434 15.698-.596 3.092-.953 6.184-1.191 9.276h.119c.715-8.325 2.383-16.768 7.03-23.904.238-.357.357-.713.476-1.07"/><path fill="#00ae70" d="M80.905 126.486c.238-1.903.596-3.806.953-5.471a112 112 0 0 1 2.502-9.038c-2.144 4.638-3.217 9.633-3.812 14.747.119 0 .238-.119.357-.238M45.995 6.611c0-.119 0-.238-.12-.357h-.118c-.12 0-.239-.237-.239-.475 0-.12 0-.357.12-.595l-.12-.119v.119c0 .476-.476 1.19-1.072 1.07-.12 0-.12 0-.238-.119-.12.12-.358.12-.477.12-.12 0-.357-.238-.477-.476 0 0 0-.12-.119-.12a58.7 58.7 0 0 0-9.889 4.877c6.672 2.854 14.179 4.4 21.328 5.113-4.17-1.665-8.103-4.043-11.558-6.66-.477-.356-.119-1.426.477-1.189.953.238 2.025.357 2.978.595-.119-.119-.119-.238-.119-.357zM8.82 38.364l.716-3.568c-.596.951-1.073 2.022-1.55 2.973.358.119.716.238.835.595m84.475 79.44c-2.025 3.568-3.574 7.374-4.17 11.536 0 .238 0 .595-.119.951l2.86-1.07c.238-4.043.953-8.087 1.43-11.417m-66.008-.832c2.502 2.497 5.004 4.995 7.744 7.254q.358-.356.715 0c.477.476 1.073.952 1.55 1.427.118.119.356.119.476.238.119-.119.119-.119.238-.119-.12-.356-.238-.594-.358-1.07-.119-.357 0-.951.12-1.546-1.311-.951-2.502-2.022-3.694-2.973-2.025-1.784-3.932-3.568-5.719-5.589 0 .832-.477 1.902-1.072 2.378m7.387 7.73c.119-.119.119-.238.238-.357-2.74-2.259-5.242-4.757-7.745-7.254a.93.93 0 0 1-.953.238s0 .119.12.119c.476.594.476 1.546.119 2.378 2.025 1.546 4.17 3.092 6.434 4.4h.119c.595 0 1.191.238 1.668.476M50.165 8.633c-.12-.12-.238-.238-.357-.238 0 .119-.12.119-.12.238z"/><path fill="#00ae70" d="M47.544 8.276c-.12.119-.12.119-.238.119h.476c-.12 0-.12 0-.238-.119m49.089-.119c-.12 0-.358 0-.477-.119h-.12c-.714-.357-1.429-.832-2.025-1.427-.476-.238-.834-.357-1.31-.594q3.216 2.318 6.434 4.994c2.859 2.498 7.268 6.422 11.914 9.039 1.192.356 2.503.594 3.813.832l-1.668-1.665c-1.072-.595-2.145-1.308-2.979-2.14-.119-.12-.119-.357 0-.595-1.31-1.07-2.74-2.14-4.17-3.211-.596-.357-1.072-.714-1.549-1.07-2.383-1.546-4.885-2.974-7.387-4.282-.238.238-.357.238-.476.238m9.77 6.065h.238c.834.357 1.549.833 2.145 1.546.595.595-.12 2.14-.954 2.022-.119 0-.238-.119-.357-.119-.596-.476-1.072-.951-1.787-1.427s-.239-1.903.596-2.022zM114.862 21c-1.31-.118-2.621-.475-3.813-.832 1.669.952 3.456 1.784 5.124 2.26-.358-.476-.834-.951-1.311-1.427M71.73 121.015c-1.072 4.163-1.31 8.444-1.31 12.725.596 0 1.072-.119 1.668-.119-.715-4.043-.715-8.324-.357-12.606M82.811 3.52a86 86 0 0 0-5.123-1.666c-2.025-.357-4.05-.475-6.076-.594 1.191 1.308 2.502 2.735 3.693 4.043 2.502 2.616 5.72 4.52 8.817 6.303 6.434 3.568 12.987 6.66 18.945 10.822 11.08 7.611 19.778 18.552 23.352 31.634 3.456 13.081 1.43 25.45-2.263 38.174-.239.713-.358 1.308-.596 2.022-.358 3.092-.358 6.184-.358 9.276A66.3 66.3 0 0 0 133.807 67.5c0-14.39-4.528-27.59-12.273-38.531-3.097-.476-6.076-1.546-9.055-3.211-4.885-2.854-9.174-6.303-13.94-9.276-3.455-2.14-7.149-4.281-10.247-6.898-.476-.119-.953-.119-1.31-.238-3.098-.832-4.766-2.735-7.15-4.757-.238-.118.12-.594.358-.475 2.145 1.665 3.932 3.092 6.434 4.043l-.119-.119c.834.357 1.787.595 2.74.714.477 0 .954-.595.715-.952l-1.43-2.854-.357-.357c-1.43-.475-2.979-.951-4.528-1.308-.119.12-.476.357-.834.238"/><path fill="#00ae70" d="M94.845 10.417c-2.144.119-4.408-.238-6.553-.833 3.098 2.736 6.792 4.757 10.247 6.898 4.766 2.854 9.174 6.422 13.94 9.276 2.979 1.665 5.958 2.854 9.055 3.21a47 47 0 0 0-4.289-5.35c-4.647-.833-9.055-2.974-12.987-6.066-2.86-2.26-6.196-4.638-9.413-7.135m-1.31-1.071c-1.787-1.427-3.456-2.973-5.124-4.519l1.43 2.854c.239.476-.238 1.07-.715.952-.953-.12-1.906-.357-2.74-.714l.119.12c.477.237.953.356 1.549.475 1.906.476 3.694.595 5.48.832M7.748 82.128c1.55 2.854 3.098 5.708 4.528 8.68-.357-1.07-.715-2.02-1.072-3.091-.12-.476 0-1.07.238-1.546-2.383-7.017-3.932-14.39-4.408-21.763-.596-.714-1.073-1.546-1.55-2.379-.238.714-.833 1.546-1.43 2.022.597 5.946 1.55 11.892 3.099 17.6.238.12.357.239.595.477"/><path fill="#00ae70" d="M5.246 84.506c-.357-1.19.954-3.449 2.026-2.854-1.55-5.709-2.621-11.655-3.098-17.6q-.18.177-.357.356c-.477.951-1.669 1.903-2.026.713-.238-.594-.357-1.189-.596-1.783-.119 1.308-.238 2.735-.238 4.162 0 4.4.477 8.681 1.192 12.844 2.263 4.994 4.408 10.227 7.03 15.222-1.43-3.568-2.86-7.255-3.933-11.06"/><path fill="#045b17" d="M79.711 132.197c-.12-1.19-.12-2.498 0-3.806 0-.357.358-1.07.834-1.665.596-5.114 1.668-10.108 3.813-14.746.715-1.546 1.43-2.973 2.383-4.401.119-.237 0-.594-.239-.356-.476.594-.714 1.189-1.191 1.784-4.647 7.135-6.315 15.579-7.03 23.903.238 0 .596-.119.834-.119.239-.238.358-.475.596-.594M93.532 9.349c-1.787-.12-3.574-.238-5.361-.714-.596-.119-1.073-.357-1.55-.475-2.382-.952-4.289-2.26-6.433-4.044-.239-.238-.477.238-.358.476 2.264 2.022 4.051 3.924 7.149 4.757.477.119.834.238 1.31.238 2.145.475 4.41.832 6.554.832 3.217 2.497 6.434 4.995 9.532 7.254 3.931 2.974 8.221 5.114 12.987 6.066-.358-.357-.715-.833-1.073-1.19-1.787-.475-3.455-1.308-5.123-2.26-4.647-2.616-9.055-6.54-11.915-9.038-2.144-1.783-4.17-3.448-6.434-4.994-1.549-.595-3.098-1.19-4.646-1.665l.357.357c1.549 1.427 3.217 2.854 5.004 4.4"/><path fill="#259f73" d="M27.887 16.482c.119 1.546.238 3.092.238 4.638.358-.833.715-1.665 1.192-2.379-.477-.713-.954-1.427-1.43-2.26m8.936 7.493c.477 1.427 1.191 2.616 1.906 3.805.477-.356 1.073-.594 1.43-.356.238.119.357.475.238 1.07 0 .357-.119.595-.119.951.358-.237.715-.356.953-.356.596 0 .953.238 1.073 1.07h.357c.358-1.07.715-2.14 1.072-3.092 0-.119.12-.238.239-.357-2.145-1.07-4.17-2.26-6.077-3.686-.119-.12-.119-.12-.238-.12-.596-.356-1.072.595-.834 1.07"/><path fill="#259f73" d="M41.231 28.969c.596 0 .953.238 1.073 1.07 0-.713-.477-1.07-1.073-1.07m8.936.357c0-.12.12-.12.12-.238h-.12zm0-.238v.238zm.24 0h-.12zm-13.584-.714c.119-.119.119 0 .238-.119-.357-.238-.596-.594-.953-.832-.12.594-.12 1.308-.238 1.903a3.6 3.6 0 0 1 .953-.952m25.617 91.214c.238-.237.476-.475.715-.356-.358-.238-.715-.476-1.192-.714v.238c.238.238.357.476.477.832"/><path fill="#259f73" d="M61.963 118.756c.12.238.357.595.477.832-.12-.356-.239-.594-.477-.832v-.238c.12 0 .12.119 0 .238m10.604-13.914v1.07c.477-.713.953-1.546 1.55-2.259-.12 0-.12.119-.24.119-.357.713-.833.951-1.31 1.07m-9.412 16.649v.119c.357.476.714 1.07 1.072 1.546h.239c-.477-.476-.835-1.07-1.311-1.665"/><path fill="#259f73" d="M63.155 121.61c.357.476.714 1.07 1.072 1.546h.119-.12c-.476-.476-.714-.951-1.072-1.546m14.894-25.45c.12.833-.477 1.903-1.31 1.903h-.239c.12.357.12.714.12 1.07 0 .238-.24.833-.477 1.19 0 .238-.12.594-.12.832 1.311-1.784 2.74-3.567 4.17-5.351-.714.475-1.43.475-2.144.356"/><path fill="#259f73" d="M76.618 99.252c0-.356-.119-.713-.119-1.07h.238c.834 0 1.55-1.07 1.31-1.903v-.119c.716.12 1.43 0 2.146-.237-.715.356-1.43.356-2.145.237v.12c.12.832-.477 1.902-1.31 1.902h-.239c.12.357.12.714.12 1.07m41.939 5.59c.119-.476-.119-.714-.357-.833-.477-.119-1.192.476-1.311 1.071a86 86 0 0 0-1.787 8.681c1.072-1.189 2.145-2.259 3.217-3.568 0-1.902 0-3.686.238-5.351M7.036 64.408c.238.238.357.476.596.476 1.43.713 3.098-2.141 3.336-3.45.476 2.141.953 4.163 1.549 6.304-.477-7.73.357-15.46 2.144-23.071 0-.12 0-.357-.119-.476-.119-.714-.476-1.07-.834-1.19h-.477c-.595 0-1.31.476-1.667 1.071-.12.119-.12.238-.239.357-.119-.714-.119-1.546-.238-2.26 0-.832-.238-1.308-.715-1.546-.357-.238-.834-.238-1.31 0v-.594c0-.714-.12-1.309-.358-1.665-.477 2.735-.953 5.351-1.31 8.087a90.3 90.3 0 0 0-.358 17.957"/><path fill="#259f73" d="M7.513 46.45c.357-2.735.834-5.351 1.31-8.086-.476 2.616-.953 5.351-1.31 8.087-.834 5.946-.954 12.01-.477 17.957-.477-6.065-.357-12.011.477-17.958m3.455 14.985c.476 2.14.953 4.162 1.549 6.303-.596-2.022-1.073-4.163-1.55-6.303"/><path fill="#259f73" d="M7.036 64.408c.238.238.357.476.596.476-.239-.12-.477-.238-.596-.476m43.371-35.32c.834.238 1.667.594 2.5.832v-.832c0-.595-.357-.952-.595-.952-.596-.119-1.548.357-1.905.952"/><path fill="#259f73" d="M52.312 28.136c-.596-.119-1.429.357-1.905.952.357-.595 1.31-1.07 1.905-.952m-8.459-1.665c2.025 1.07 4.17 1.903 6.314 2.617 0-.476-.119-.952-.119-1.427-.238-.952-.715-1.309-1.31-1.309s-1.192.476-1.668.952c0-.476 0-.833-.12-1.308-.119-.714-.357-1.07-.715-1.19-.714-.119-1.906.833-2.382 1.665"/><path fill="#259f73" d="M43.853 26.471c2.025 1.07 4.17 1.903 6.314 2.617a142 142 0 0 1-6.314-2.617m4.885-.119c-.596 0-1.192.476-1.668.952.476-.595 1.072-.952 1.668-.952m-2.502-1.546c-.715-.119-1.788.833-2.264 1.665.357-.832 1.549-1.783 2.264-1.665m-16.919-6.184s0 .12-.12.12c2.026 3.091 4.17 6.183 6.792 8.68.238-1.902.357-3.924.119-5.945-.12-.833-.357-1.19-.715-1.309h-.238c-.358 0-.596.12-.953.238V18.98c0-.832-.239-1.308-.596-1.546-.596-.476-1.43-.119-2.145.476-.119-.12-.119-.238-.238-.238h-.12s-.118 0-.118-.119c-.596-.238-1.311.357-1.668 1.07"/><path fill="#259f73" d="M29.197 18.741c2.026 3.092 4.17 6.184 6.792 8.682-2.502-2.617-4.766-5.59-6.792-8.682m.12-.119c.357-.594 1.072-1.189 1.668-1.189-.596-.119-1.311.476-1.668 1.19 0 0 0 .118-.12.118zm4.289-1.308c-.596-.476-1.43-.119-2.145.476.715-.595 1.55-.832 2.145-.476m1.549 2.854c-.358 0-.596.12-.953.238.357-.238.715-.357.953-.238m.238 0h.12zM12.04 31.585c.12-.238.238-.595.358-.832.357 0 .715-.238.834-.714.238-.595.357-1.19.595-1.665-1.072 1.427-2.144 2.973-2.978 4.52.476-.358.953-.833 1.191-1.309m3.098 1.07c1.072.238 2.74-1.189 2.979-2.378.476-2.854.834-5.827 1.43-8.8-2.026 2.021-3.813 4.28-5.481 6.54 0 1.07.119 2.26.238 3.33.12.833.357 1.19.834 1.308"/><path fill="#259f73" d="M20.38 20.644c-.595 3.925-1.787 7.968-2.74 11.773-.12.357 0 .476.12.476.357-1.546.714-2.973 1.19-4.519.835-2.854 1.55-5.708 2.384-8.681zm-6.076 10.703c.12.833.476 1.19.834 1.308-.477-.119-.715-.475-.834-1.308-.12-1.07-.238-2.26-.238-3.33 0 1.07 0 2.26.238 3.33m22.638-3.092c1.668 1.546 3.455 2.854 5.48 3.925-1.429-1.427-2.62-2.854-3.693-4.52l-.357.357c-.12-.119-.12-.119-.239-.119-.357 0-.714.12-1.191.357"/><path fill="#259f73" d="M38.134 27.898q-.358-.178-1.073.357.537-.357 1.072-.357m.597-.118q-.18.177-.358.356c.119-.238.238-.238.357-.357M27.887 16.482c0-.476-.12-.952-.12-1.546 0-.238-.119-.357-.238-.595l-1.787 1.427c-.238 4.757 0 9.752 3.336 12.844-.953-3.687-1.906-7.492-2.502-11.298-.119-.476.596-1.427 1.072-1.189.12.238.12.238.239.357"/><path fill="#259f73" d="M25.742 15.887c-.238 4.757 0 9.752 3.336 12.844-3.455-3.211-3.574-8.087-3.336-12.844M66.61 41.813c-.596.594-.953 1.426-.715 2.14 0 .119.119.119.119.238.238.119.477 0 .715-.119l.12-.119c.237.119.476 0 .714-.238-.12.357-.238.714 0 .833.12 0 .12.119.238.119.12 0 .239 0 .358.118.357.12.595.357.953.595.834.476 1.43-1.19.953-1.665-.12-.238-.357-.357-.477-.476-.119 0-.119-.118-.238-.118-.476-.12-.953-.12-1.549.237.12-.356.239-.713 0-.95a1.43 1.43 0 0 0-.596-.596c-.119-.118-.119-.118-.238-.118.12-.12-.238 0-.357.118"/><path fill="#259f73" d="M67.682 43.834c-.12.357-.238.714 0 .833-.238-.12-.12-.595 0-.833m1.549 1.546c-.357-.238-.596-.476-.953-.595.357.12.715.357.953.595m-2.621-3.567c-.596.594-.953 1.426-.715 2.14 0 .119.119.119.119.238-.12 0-.12-.119-.12-.238-.237-.714 0-1.546.716-2.14.238-.238.476-.357.715-.238-.239 0-.596.118-.715.237m7.149 2.736c-.715-.12-2.026 1.308-1.192 2.14.12.12.238.12.358.238h.119c.119 0 .119.12.238.12a.37.37 0 0 0 .238.118c.239 0 .596-.238.834-.476.239-.357.358-.713.239-1.189-.12-.238-.358-.476-.358-.595s-.119-.237-.238-.356z"/><path fill="#259f73" d="M73.282 47.045s-.12 0-.238-.119c.119 0 .238 0 .238.12m-.715-.358c.12.12.238.12.358.238-.12 0-.239-.119-.358-.238m.715.357a.37.37 0 0 0 .238.119c-.119 0-.119-.119-.238-.119M43.257 5.898c.119.237.238.475.476.475.12 0 .358 0 .477-.119.12 0 .12.12.238.12.477.118 1.073-.595 1.073-1.071v-.357c-.715.238-1.55.595-2.264.833-.12 0-.12.119 0 .119"/><path fill="#259f73" d="M43.614 6.373c-.119 0-.357-.238-.476-.475 0 0 0-.12-.12-.12 0 0 0 .12.12.12.238.237.357.475.476.475m.596-.119c.12 0 .12.12.238.12-.119 0-.238 0-.238-.12m1.787-1.546c-.238.12-.357.357-.476.595-.12.238-.12.357-.12.595 0 .237.12.475.239.475h.119c0 .12.12.238.12.357q.177.713.357 1.427c0 .12.119.238.119.357.119.119.238.238.357.238.12 0 .357 0 .477-.12.119 0 .119-.118.238-.118l.238.238c.12.119.358.238.477.357h.119c.12 0 .238.118.357.118q.537 0 .715-.356c.12-.12.12-.12.12-.238.238-.476.357-.952.238-1.308-.12-.476-.477-.714-.834-.952-.358-.238-.596-.594-.834-.832-.12-.12-.12-.12-.239-.12-.238-.118-.476 0-.714.12-.12-.238-.239-.476-.477-.595-.12 0-.12-.119-.238-.119h-.12c.12-.238 0-.238-.238-.119"/><path fill="#259f73" d="M48.023 5.065c-.239-.119-.477 0-.715.119.238-.238.476-.238.715-.119m-2.026-.357c-.238.12-.357.357-.476.595.119-.238.357-.476.476-.595m.716-.238q-.18 0 0 0m2.144 4.52c-.12 0-.239-.12-.358-.12 0 0 .239.12.358.12M45.52 5.779c0 .238.12.475.239.475-.238 0-.358-.237-.238-.475m.834 2.141-.358-1.428c0-.119 0-.238-.119-.357 0 .12.12.238.12.357q.178.892.357 1.427c0 .12.119.238.119.357 0 0-.12-.119-.12-.357m7.984 2.973c-.239-.594-.715-1.189-1.43-1.308-.477 0-1.072.12-1.43.357-.357.238-.715 1.19-.357 1.427h.476c.239.119.358.357.596.476.357.238.715.357.953.594.715.476 1.43-1.07 1.192-1.546"/><path fill="#259f73" d="M51.597 11.368c.239.119.358.357.596.476.357.238.715.357.953.594-.357-.238-.715-.356-.953-.594s-.357-.357-.596-.476m44.561-3.33c.239.12.358.12.477.12.12 0 .238 0 .357-.12-.953-.475-2.025-.951-2.978-1.427q1.073.892 2.144 1.427"/><path fill="#259f73" d="M96.278 8.038a17 17 0 0 1-2.145-1.427 6.8 6.8 0 0 0 2.145 1.427m13.94 9.276c.834.833 1.906 1.546 2.978 2.14-.953-.95-2.025-1.783-2.978-2.734-.119.238-.119.475 0 .594"/><path fill="#259f73" d="M110.218 17.314c.834.833 1.906 1.546 2.978 2.14-1.072-.713-2.025-1.307-2.978-2.14M83.767 121.967c.477-.238.953-1.427.358-1.665-.12 0-.12-.119-.239-.119-1.906-.119-2.144 2.735-1.787 6.303-.12-.119-.238-.238-.358-.238-.357-.119-.595 0-.953.238 0 .119-.119.238-.238.357-.477.475-.834 1.189-.834 1.665-.12 1.308 0 2.497 0 3.805a1.43 1.43 0 0 0-.596.595c2.026-.357 4.051-.833 5.958-1.308-.12-.476-.239-1.071-.358-1.546-.834-4.044-1.549-7.849-.953-8.087"/><path fill="#259f73" d="M80.908 126.486c.357-.238.595-.357.953-.238a.93.93 0 0 0-.954.238m2.979-6.303c.12 0 .239 0 .239.119-.12-.119-.12-.119-.239-.119m-4.17 8.325c-.12 1.308 0 2.497 0 3.805a1.43 1.43 0 0 0-.596.595c.239-.238.358-.476.596-.595a20.3 20.3 0 0 1 0-3.805m6.196-5.233c-.239-1.903.119-3.806 0-5.708 0-.119-.12-.119-.12-.238l-.119-.119c-.357-.119-.953.476-.953.832-.238 1.903-.357 4.044-.119 5.947 0 .237.12.475.238.475.477.238 1.192-.594 1.073-1.189"/><path fill="#259f73" d="M84.601 124.107c-.238-1.902-.12-4.043.12-5.946 0-.357.714-1.07.952-.832-.357-.119-.953.475-.953.832-.357 1.903-.476 4.044-.119 5.946 0 .238.12.476.238.476-.119 0-.238-.119-.238-.476M15.734 83.911c-.715.595-1.192 1.665-1.073 2.498v.119l-.714-1.427c-.239-.357-.358-.595-.596-.595h-.358c-.595.119-1.191.832-1.549 1.665 0 .119.12.357.12.476 3.693 10.584 9.174 19.979 16.68 27.947 0-.119 0-.357-.119-.476a32 32 0 0 1-1.549-2.735l.477.475q.357.357.715.357c1.072.119 1.906-1.427 1.787-2.616 1.191 1.427 2.621 2.735 3.932 3.924.119.119.357.238.476.238h.596c-8.34-8.206-15.012-18.314-18.825-29.85"/><path fill="#259f73" d="M29.555 109.718c1.191 1.427 2.621 2.735 3.932 3.924-1.31-1.189-2.622-2.616-3.932-3.924M12.993 84.506h.239zm1.668 1.903c-.119-.833.358-2.022 1.073-2.498-.834.595-1.31 1.665-1.073 2.498v.119zm61.123-8.444c-.238 0-.477 0-.715-.238-.119 0-.119 0-.238-.119-.834-.237-1.549.833-1.787 1.784l-.715-.356c-.596-.238-1.31.95-.834 1.427 1.072.832 1.787 1.902 2.264 3.21.119.238.238.476.476.476h.12c.714 0 1.667-1.308 1.43-2.14 0-.238-.12-.476-.12-.595.357-.119.596-.238.953-.476.715-.475 1.073-.951 2.026-.832s1.549-1.308 1.43-2.022c-.12-.713-.477-1.19-.954-1.427-.238-.119-.476-.119-.715-.119a1.3 1.3 0 0 0-.834.357c-.715.476-1.072 1.07-1.787 1.07"/><path fill="#259f73" d="M78.525 76.538c.238 0 .476 0 .714.119-.238 0-.476-.119-.715-.119m-.953.357c-.715.476-1.191 1.07-1.787 1.07.715 0 1.072-.594 1.787-1.07m-3.693 6.779c-.477-1.309-1.192-2.379-2.264-3.211-.477-.357.238-1.665.834-1.427l.715.356c.238-.951.953-1.902 1.787-1.784-.834-.237-1.549.833-1.787 1.784l-.715-.356c-.596-.238-1.31.95-.834 1.427 1.072.832 1.668 1.902 2.264 3.21.119.238.238.476.476.476-.238 0-.476-.238-.476-.475m-2.026 23.427c.358-.237.715-.713.715-1.07-2.978 4.4-5.48 9.038-6.91 14.747.715-.119 1.43-1.19 1.31-2.022.953.119 1.668-.833 1.907-1.903 1.072-.595 1.787-2.497.953-3.33-.239-.238-.477-.475-.715-.594h.119c.715 0 1.192-.714 1.31-1.309.239.238.596.357.954.476.119 0 .238.119.357.119.834 0 1.43-1.308 1.31-2.022 0-.119-.118-.237-.118-.475.715-.833 1.191-1.903 1.072-2.973 0-.357-.12-.476-.357-.476-.358-.119-1.073.476-1.192.951v.595q-.357-.535-.715-.714"/><path fill="#259f73" d="M72.567 105.912c-2.978 4.4-5.48 9.038-6.91 14.747 1.43-5.59 3.932-10.347 6.91-14.747m-1.072 6.065c.119 0 .238.119.357.119-.119 0-.238 0-.357-.119m1.072-4.995c.12-.475.715-.951 1.192-.951-.477 0-1.073.595-1.192.951v.595c-.119-.238-.119-.476 0-.595m-6.672 18.671h.357c.239-.118.358-.237.596-.356 1.549-1.665.477-3.33-1.072-4.519-.12.594-.358 1.189-.477 1.902 0 .238-.476.833-.834.714.12.238.238.476.358.595.238.475.357 1.308.953 1.664-.12-.118 0 0 .119 0M80.43 95.804c.477-.357.835-.952 1.073-1.665-.476.594-.834 1.189-1.31 1.784.119 0 .238 0 .238-.12m-17.515 33.894.715.357h.238c.596 0 .954-.714.954-1.19.238-1.902-1.192-4.043-2.503-5.47.477-.476.715-1.189.834-1.784a130 130 0 0 1-6.91-10.941c-.12-.238-.12-.357-.238-.476h-.477c0 .238.12.476.238.714a30.3 30.3 0 0 0 2.145 6.303c1.072 2.735 2.74 5.233 4.17 7.611.358.476-.357 1.784-1.072 1.427-2.026-1.308-3.813-2.735-5.6-4.281 1.668 2.854 3.455 5.47 5.957 7.73.477.476-.119 1.784-.715 1.784h-.238c-6.076-2.854-11.676-6.303-16.919-10.228 0 .119 0 .238.12.238.476.595 1.072 1.07 1.548 1.546a1.85 1.85 0 0 0-.715.952l-3.932-2.498c-.357-.238-.834 0-1.191.476h-.12c-.714-.119-1.19.476-1.429 1.07 4.051 3.092 8.34 5.946 12.868 8.087 0 .238.238.357.357.357.477.238.835.356 1.311.594 3.932.952 7.983 1.427 12.153 1.665-.953-.594-1.787-1.189-2.74-1.784.595-.356 1.072-1.308 1.191-2.259"/><path fill="#259f73" d="M55.648 111.026a30.3 30.3 0 0 0 2.145 6.303c1.072 2.735 2.74 5.232 4.17 7.611.358.476-.357 1.784-1.072 1.427.595.357 1.31-.951 1.072-1.427-1.549-2.497-3.098-4.995-4.17-7.611-.834-2.141-1.55-4.163-2.145-6.303-.119-.238-.119-.476-.238-.714.119.119.238.357.238.714m5.719 18.909c.477.475-.119 1.784-.715 1.784.715-.119 1.311-1.428.715-1.784-2.502-2.26-4.408-4.876-5.957-7.73 1.549 2.735 3.455 5.47 5.957 7.73m-5.838-19.742h.477zm-16.323 11.893h-.12c-.714-.119-1.19.475-1.43 1.07.24-.713.716-1.189 1.43-1.07zc.357-.476.715-.714 1.191-.476-.476-.238-.834.119-1.191.476m4.289-.357c.477.595 1.073 1.07 1.55 1.546a1.85 1.85 0 0 0-.716.951c.12-.356.477-.713.715-.951a9.5 9.5 0 0 1-1.549-1.546c-.119-.119 0-.238-.119-.238 0 0 0 .119.12.238m30.978-18.195c.834-.595 1.31-1.427 1.548-2.26-.595.833-1.31 1.665-1.906 2.498.12-.119.238-.119.358-.238m13.225-12.963c.477-.357.953-1.665.12-2.022-.716-.356-1.43.833-1.43 1.427v.357q0 .535.357.714h.358c.118 0 .237-.12.357-.238 0-.119.119-.238.238-.238"/><path fill="#259f73" d="M86.27 90.333q0 .535.357.714-.358-.357-.358-.714m-5.242 18.433.238.238c.12 0 .238.119.357.119.596 0 1.073-.595 1.192-1.189s.119-1.308-.358-1.665l-.238-.238c-.477-.238-.953 0-1.31.238-.835.357-1.192 2.259-.358 2.616.12-.119.358-.119.477-.119"/><path fill="#259f73" d="M81.027 106.15c.357-.238.834-.357 1.31-.238-.476-.119-.953.119-1.31.238-.834.357-1.192 2.26-.358 2.616-.953-.238-.476-2.259.358-2.616m0 2.616.238.238c0-.119-.12-.119-.238-.238M60.89 1.497c-1.19.12-2.501.238-3.693.476 0 .119.12.119.12.238h.357c.119.119.238.238.476.357.12 0 .239.119.358.119h.357c.358 0 .596 0 .834-.12.596-.118.953-.594 1.192-1.07"/></svg>