<?xml version="1.0" encoding="UTF-8" standalone="no"?>
<svg
   width="141"
   height="141"
   viewBox="0 0 141 141"
   fill="none"
   version="1.1"
   id="svg1"
   xml:space="preserve"
   sodipodi:docname="player-base-outfitbee.svg"
   inkscape:version="1.4.3 (0d15f75042, 2025-12-25)"
   xmlns:inkscape="http://www.inkscape.org/namespaces/inkscape"
   xmlns:sodipodi="http://sodipodi.sourceforge.net/DTD/sodipodi-0.dtd"
   xmlns="http://www.w3.org/2000/svg"
   xmlns:svg="http://www.w3.org/2000/svg"><sodipodi:namedview
     id="namedview1"
     pagecolor="#ffffff"
     bordercolor="#000000"
     borderopacity="0.25"
     inkscape:showpageshadow="2"
     inkscape:pageopacity="0.0"
     inkscape:pagecheckerboard="0"
     inkscape:deskcolor="#d1d1d1"
     inkscape:zoom="2.9539007"
     inkscape:cx="64.490997"
     inkscape:cy="88.527011"
     inkscape:window-width="1920"
     inkscape:window-height="1017"
     inkscape:window-x="0"
     inkscape:window-y="0"
     inkscape:window-maximized="1"
     inkscape:current-layer="svg1" /><defs
     id="defs1" /><path
     d="m 136.9067,70.58296 c 0,-36.726805 -29.773,-66.498805 -66.4996,-66.497805 -36.726895,10e-4 -66.499945,29.776 -66.499945,66.502505 0,36.7269 29.77305,66.49892 66.499945,66.49764 36.7266,-0.001 66.4996,-29.77544 66.4996,-66.50234 z"
     fill="#F8C574"
     id="path1"
     style="fill:#fec439;fill-opacity:1" /><path
     style="fill:#d9a82e;fill-opacity:1;stroke-width:0.827731"
     id="path4-7-2"
     d="m 39.080895,114.00131 4.486806,2.58139 0.0054,5.17494 -4.481446,2.59356 -4.4868,-2.58139 -0.005,-5.17495 z" /><path
     style="fill:#d9a82e;fill-opacity:1;stroke-width:0.827731"
     id="path4-7-2-9"
     d="m 48.764491,113.94641 4.486809,2.58139 0.0054,5.17494 -4.48144,2.59356 -4.486808,-2.58139 -0.0054,-5.17495 z" /><path
     style="fill:#d9a82e;fill-opacity:1;stroke-width:0.827731"
     id="path4-7-2-9-6"
     d="m 53.497756,105.55993 4.486809,2.58139 0.0054,5.17494 -4.48144,2.59356 -4.486808,-2.58139 -0.0054,-5.17494 z" /><path
     style="fill:#d9a82e;fill-opacity:1;stroke-width:0.827731"
     id="path4-7-2-9-0"
     d="m 53.474557,122.24595 4.486809,2.58139 0.0054,5.17495 -4.48144,2.59355 -4.486808,-2.58139 -0.0054,-5.17494 z" /><path
     style="fill:#d9a82e;fill-opacity:1;stroke-width:0.827731"
     id="path4-7-2-1"
     d="m 58.13737,114.0055 4.486809,2.58138 0.0054,5.17495 -4.48144,2.59355 -4.486808,-2.58139 -0.0054,-5.17494 z" /><path
     style="fill:#d9a82e;fill-opacity:1;stroke-width:0.827731"
     id="path4-7-2-8"
     d="m 43.941112,105.75918 4.486809,2.58139 0.0054,5.17494 -4.48144,2.59356 -4.486806,-2.58139 -0.005,-5.17495 z" /><path
     style="fill:#d9a82e;fill-opacity:1;stroke-width:0.827731"
     id="path4-7-2-4"
     d="m 77.112077,21.225975 4.486809,-2.58138 0.0054,-5.17495 -4.48144,-2.59355 -4.486808,2.58139 -0.0054,5.17494 z" /><path
     style="fill:#d9a82e;fill-opacity:1;stroke-width:0.827731"
     id="path4-7-2-9-2"
     d="m 86.795677,21.280875 4.486809,-2.58138 0.0054,-5.17495 -4.48144,-2.59355 -4.486808,2.58139 -0.0054,5.17494 z" /><path
     style="fill:#d9a82e;fill-opacity:1;stroke-width:0.827731"
     id="path4-7-2-1-7"
     d="m 91.594447,29.680265 4.486809,-2.58138 0.0054,-5.17495 -4.48144,-2.59355 -4.486808,2.58139 -0.0054,5.17494 z" /><path
     style="fill:#d9a82e;fill-opacity:1;stroke-width:0.827731"
     id="path4-7-2-1-7-5"
     d="m 96.294694,21.294105 4.486806,-2.58138 0.005,-5.17495 -4.481437,-2.59355 -4.486808,2.58139 -0.0054,5.17494 z" /><path
     style="fill:#d9a82e;fill-opacity:1;stroke-width:0.827731"
     id="path4-7-2-8-7"
     d="m 81.972297,29.468105 4.486809,-2.58138 0.0054,-5.17495 -4.48144,-2.59355 -4.486808,2.58139 -0.0054,5.17494 z" /><text
     xml:space="preserve"
     style="font-size:34.1122px;writing-mode:lr-tb;direction:ltr;opacity:1;fill:#be922a;fill-opacity:1;stroke:none;stroke-width:568.541;stroke-dasharray:none;stroke-opacity:1"
     x="-96.292374"
     y="91.379929"
     id="text60"
     transform="matrix(0,-0.92443159,1.0817458,0,0,0)"><tspan
       id="tspan60"
       x="-96.292374"
       y="91.379929"
       style="font-style:normal;font-variant:normal;font-weight:normal;font-stretch:normal;font-family:'Cooper Black';-inkscape-font-specification:'Cooper Black, ';fill:#be922a;fill-opacity:1;stroke-width:568.541">67</tspan></text><path
     style="fill:#d9a82e;fill-opacity:1;stroke-width:0.827731"
     id="path4-7-2-7"
     d="m 29.928105,34.854275 4.48681,-2.58138 0.005,-5.17495 -4.48144,-2.59355 -4.4868,2.58139 -0.005,5.17494 z" /><path
     style="fill:#d9a82e;fill-opacity:1;stroke-width:0.827731"
     id="path4-7-2-9-61"
     d="m 39.611705,34.909175 4.486806,-2.58138 0.0054,-5.17495 -4.481446,-2.59355 -4.4868,2.58139 -0.005,5.17494 z" /><path
     style="fill:#d9a82e;fill-opacity:1;stroke-width:0.827731"
     id="path4-7-2-9-6-4"
     d="m 44.344967,43.295659 4.486809,-2.581384 0.0054,-5.17495 -4.48144,-2.59355 -4.486811,2.58139 -0.005,5.17494 z" /><path
     style="fill:#d9a82e;fill-opacity:1;stroke-width:0.827731"
     id="path4-7-2-9-0-2"
     d="m 44.321768,26.609635 4.486809,-2.58138 0.0054,-5.17495 -4.48144,-2.59355 -4.486812,2.58139 -0.005,5.17494 z" /><path
     style="fill:#d9a82e;fill-opacity:1;stroke-width:0.827731"
     id="path4-7-2-1-3"
     d="m 48.984581,34.850095 4.486809,-2.58138 0.0054,-5.17495 -4.48144,-2.59355 -4.486808,2.58139 -0.0054,5.17494 z" /><path
     style="fill:#d9a82e;fill-opacity:1;stroke-width:0.827731"
     id="path4-7-2-8-2"
     d="m 34.788325,43.096409 4.48681,-2.581384 0.005,-5.17495 -4.48144,-2.59355 -4.4868,2.58139 -0.005,5.17494 z" /><path
     style="fill:#d9a82e;fill-opacity:1;stroke-width:0.827731"
     id="path4-7-2-7-8"
     d="m 75.303259,122.62243 4.486809,-2.58139 0.0054,-5.17494 -4.48144,-2.59355 -4.486808,2.58138 -0.0054,5.17495 z" /><path
     style="fill:#d9a82e;fill-opacity:1;stroke-width:0.827731"
     id="path4-7-2-9-61-5"
     d="m 84.986858,122.67733 4.486809,-2.58139 0.0054,-5.17494 -4.48144,-2.59355 -4.486808,2.58138 -0.0054,5.17495 z" /><path
     style="fill:#d9a82e;fill-opacity:1;stroke-width:0.827731"
     id="path4-7-2-9-0-2-6"
     d="m 88.464778,130.80641 4.486809,-2.58139 0.0054,-5.17494 -4.48144,-2.59356 -4.486808,2.58139 -0.0054,5.17494 z" /><path
     style="fill:#d9a82e;fill-opacity:1;stroke-width:0.827731"
     id="path4-7-2-8-2-8"
     d="m 80.163479,130.86456 4.486809,-2.58139 0.0054,-5.17494 -4.48144,-2.59355 -4.486808,2.58138 -0.0054,5.17495 z" /></svg>
