<?xml version="1.0" encoding="UTF-8" standalone="no"?>
<svg
   width="78"
   height="78"
   viewBox="0 0 78 78"
   fill="none"
   version="1.1"
   id="svg4"
   sodipodi:docname="player-hands-ghoul-fire.svg"
   inkscape:version="1.4.2 (f4327f4, 2025-05-13)"
   xmlns:inkscape="http://www.inkscape.org/namespaces/inkscape"
   xmlns:sodipodi="http://sodipodi.sourceforge.net/DTD/sodipodi-0.dtd"
   xmlns="http://www.w3.org/2000/svg"
   xmlns:svg="http://www.w3.org/2000/svg">
  <sodipodi:namedview
     id="namedview4"
     pagecolor="#ffffff"
     bordercolor="#000000"
     borderopacity="0.25"
     inkscape:showpageshadow="2"
     inkscape:pageopacity="0.0"
     inkscape:pagecheckerboard="0"
     inkscape:deskcolor="#d1d1d1"
     inkscape:zoom="2.4775641"
     inkscape:cx="-25.428202"
     inkscape:cy="61.956015"
     inkscape:window-width="1920"
     inkscape:window-height="991"
     inkscape:window-x="-9"
     inkscape:window-y="-9"
     inkscape:window-maximized="1"
     inkscape:current-layer="svg4" />
  <mask
     id="mask0"
     mask-type="alpha"
     maskUnits="userSpaceOnUse"
     x="1"
     y="0"
     width="77"
     height="78">
    <rect
       width="77"
       height="76"
       transform="matrix(-4.31437e-08 -1 -1 4.42865e-08 77.3008 77.7344)"
       fill="#C4C4C4"
       id="rect1" />
  </mask>
  <g
     mask="url(#mask0)"
     id="g3"
     transform="rotate(86.102054,39.300233,39.2344)">
    <path
       d="M 69.2004,36.2782 C 67.9614,54.8909 49.433,69.1632 37.3012,72.084 37.3012,53.3504 12.2842,57.429 9.57387,36.2781 6.86358,15.1273 25.0613,6.06263 39.3872,6.36479 53.713,6.66695 70.7492,13.0122 69.2004,36.2782 Z"
       fill="#0057ff"
       id="path1" />
    <path
       d="M 69.2004,36.2782 C 67.9614,54.8909 49.433,69.1632 37.3012,72.084 37.3012,53.3504 12.2842,57.429 9.57387,36.2781 6.86358,15.1273 25.0613,6.06263 39.3872,6.36479 53.713,6.66695 70.7492,13.0122 69.2004,36.2782 Z"
       fill="url(#paint0_linear)"
       id="path2"
       style="fill:url(#paint0_linear)" />
    <path
       fill-rule="evenodd"
       clip-rule="evenodd"
       d="m 31.7507,77.7344 v -6.983 c 0,-3.1258 -0.979,-4.9915 -2.4518,-6.5547 C 27.5567,62.3475 25.1011,60.872 21.62,58.8172 L 21.4668,58.7267 C 14.9347,54.8716 5.78639,49.4725 4.06956,36.3247 2.45764,23.9804 7.15235,14.6863 14.6209,8.73616 21.8204,3.00038 31.2928,0.572781 39.5022,0.742696 47.2603,0.903272 56.447,2.65705 63.6153,8.10128 71.1348,13.8122 75.6206,22.9652 74.7374,35.9856 73.9979,46.8868 68.1465,56.1482 61.22,62.8981 54.3232,69.6193 45.7913,74.4171 38.5838,76.12 Z M 53.4502,55.0167 C 59.1306,49.481 63.163,42.6069 63.6625,35.243 64.328,25.4319 61.0701,20.0557 56.8772,16.8713 c -4.5441,-3.4511 -11.0384,-4.959 -17.6061,-5.095 -6.1164,-0.1266 -12.9058,1.7453 -17.7091,5.572 -4.5342,3.6124 -7.5832,9.144 -6.4848,17.5555 0.98,7.505 5.5648,10.5014 12.2095,14.4238 0.1449,0.0855 0.2915,0.1719 0.4399,0.2593 3.0394,1.7908 6.7813,3.9956 9.6733,7.0652 1.7929,1.903 3.2456,4.1073 4.199,6.6955 3.8583,-1.8371 8.0908,-4.6662 11.8513,-8.3309 z"
       fill="#00c2ff"
       id="path3" />
  </g>
  <defs
     id="defs4">
    <linearGradient
       id="paint0_linear"
       x1="39.301"
       y1="68.3066"
       x2="39.301"
       y2="6.35754"
       gradientUnits="userSpaceOnUse">
      <stop
         offset="0.135417"
         stop-color="#1AF1FF"
         id="stop3" />
      <stop
         offset="1"
         stop-color="#1A9FFF"
         stop-opacity="0"
         id="stop4" />
    </linearGradient>
  </defs>
</svg>
