<?xml version="1.0" encoding="UTF-8" standalone="no"?>
<svg
   width="73"
   height="73"
   viewBox="0 0 73 73"
   fill="none"
   version="1.1"
   id="svg4"
   sodipodi:docname="player-hands-buck-teeth.svg"
   inkscape:version="1.4.2 (f4327f4, 2025-05-13)"
   xmlns:inkscape="http://www.inkscape.org/namespaces/inkscape"
   xmlns:sodipodi="http://sodipodi.sourceforge.net/DTD/sodipodi-0.dtd"
   xmlns="http://www.w3.org/2000/svg"
   xmlns:svg="http://www.w3.org/2000/svg">
  <defs
     id="defs4" />
  <sodipodi:namedview
     id="namedview4"
     pagecolor="#ffffff"
     bordercolor="#000000"
     borderopacity="0.25"
     inkscape:showpageshadow="2"
     inkscape:pageopacity="0.0"
     inkscape:pagecheckerboard="0"
     inkscape:deskcolor="#d1d1d1"
     inkscape:zoom="5.2945206"
     inkscape:cx="-9.0659767"
     inkscape:cy="37.680466"
     inkscape:window-width="1920"
     inkscape:window-height="991"
     inkscape:window-x="-9"
     inkscape:window-y="-9"
     inkscape:window-maximized="1"
     inkscape:current-layer="svg4" />
  <path
     d="M 6.8620864,36.335354 C 6.6870043,18.390508 20.759967,3.7017003 38.294998,3.5270465 52.420497,3.3863485 64.483638,12.707262 68.732205,25.717931 69.757683,28.858376 45.0792,32.460315 45.113243,35.949549 c 0.03404,3.489134 24.778104,6.608575 23.8141,9.76883 C 64.93346,58.811267 53.054528,68.370616 38.929027,68.511234 21.393997,68.685917 7.0371693,54.2803 6.8620864,36.335354 Z"
     fill="#454545"
     id="path1" />
  <path
     fill-rule="evenodd"
     clip-rule="evenodd"
     d="m 66.690712,47.986208 c 4.3e-4,-4e-6 -0.0062,-0.0053 -0.021,-0.0156 0.01314,0.01057 0.02057,0.0157 0.021,0.0156 z m -1.450269,-0.674483 c -0.11412,-0.04349 -0.235577,-0.08871 -0.364639,-0.135449 -2.000954,-0.724513 -4.823909,-1.474907 -7.913655,-2.294702 l -0.03629,-0.0096 c -2.970731,-0.788155 -6.182297,-1.640263 -8.653403,-2.530796 -1.222155,-0.440398 -2.471602,-0.961833 -3.47509,-1.591272 -0.500285,-0.313734 -1.098485,-0.751519 -1.606441,-1.349292 -0.514027,-0.605014 -1.11784,-1.59767 -1.130771,-2.923007 -0.01293,-1.325437 0.571495,-2.329986 1.073917,-2.945217 0.496393,-0.607872 1.086136,-1.057347 1.580303,-1.380884 0.991115,-0.649 2.230249,-1.194816 3.443678,-1.658976 2.45346,-0.938581 5.648088,-1.853292 8.602874,-2.69936 l 0.0356,-0.01025 c 3.073262,-0.879925 5.881038,-1.685257 7.867395,-2.448672 0.127498,-0.04895 0.247482,-0.09632 0.360243,-0.141822 C 60.677294,14.743594 50.525152,7.5216967 38.833232,7.6381511 23.3472,7.7924034 10.803122,20.780964 10.959338,36.792202 11.115555,52.80344 23.910621,65.539615 39.396653,65.385423 51.088973,65.268944 61.098526,57.845636 65.240443,47.311725 Z M 66.4623,24.489218 c -4.4e-4,4e-6 -0.0078,0.0053 -0.0207,0.0161 0.01466,-0.01054 0.02113,-0.01601 0.0207,-0.0161 z m -13.567177,11.88163 c 1.749562,0.530756 3.771816,1.069652 5.880675,1.629204 l 0.19712,0.05228 c 2.913479,0.772912 6.001117,1.592027 8.310887,2.428432 1.147328,0.415427 2.374582,0.928478 3.335777,1.577231 0.471507,0.318215 1.127312,0.831141 1.626322,1.598409 0.565498,0.869425 0.964048,2.153297 0.529182,3.578408 C 68.359033,61.706884 55.197717,72.346295 39.466097,72.502984 19.935366,72.697539 4.0603963,56.675556 3.8670907,36.862899 3.673785,17.050242 19.233056,0.71505101 38.763788,0.52051484 54.495408,0.3638194 67.861747,10.73911 72.55932,25.120364 c 0.462584,1.416155 0.08922,2.707859 -0.459573,3.588655 -0.484172,0.77706 -1.130122,1.302888 -1.59541,1.630343 -0.948534,0.667385 -2.165674,1.204286 -3.304677,1.642019 -2.292951,0.881312 -5.363861,1.760415 -8.261604,2.590125 l -0.196361,0.05622 c -2.097142,0.600389 -4.107997,1.178535 -5.846572,1.743124 z m -4.407218,1.813284 c -0.0027,0.0021 -0.0039,0.0032 -0.0039,0.0032 0,0 0.0014,-0.0011 0.0039,-0.0032 z m -0.03444,-3.540533 c -0.0022,-0.0017 -0.0033,-0.0026 -0.0033,-0.0026 0,0 0.001,8.9e-4 0.0033,0.0026 z"
     fill="#000000"
     id="path2" />
  <path
     d="M 3.8719424,37.360175 C 3.7291827,22.728172 14.16003,10.761537 27.169886,10.632004 c 10.48018,-0.104352 19.437039,7.504425 22.59852,18.116186 0.763126,2.561377 -17.544367,5.480327 -17.516609,8.325392 0.02776,2.844964 18.388724,5.406653 17.675722,7.982732 C 46.973703,55.72894 38.167044,63.51473 27.686863,63.619082 14.677009,63.748715 4.0147021,51.992179 3.8719424,37.360175 Z"
     fill="#82592d"
     id="path3" />
  <path
     fill-rule="evenodd"
     clip-rule="evenodd"
     d="m 31.374959,32.092499 c -0.596561,0.437441 -2.259985,1.755033 -2.23795,4.013525 0.02203,2.258093 1.710142,3.542384 2.315023,3.968003 0.838093,0.589652 1.852129,1.059881 2.785761,1.43789 1.880819,0.761487 4.301783,1.484002 6.476418,2.133017 l 0.06188,0.0185 c 2.127296,0.634976 4.016406,1.200772 5.410408,1.737397 C 43.091409,53.821525 36.007187,59.368205 28.138577,59.446576 17.593999,59.551556 8.1518775,49.673505 8.021496,36.320442 7.8912136,22.967277 17.138865,12.903076 27.683442,12.797996 c 7.86821,-0.07837 15.058975,5.325635 18.317958,13.682238 -1.382968,0.563419 -3.259982,1.16566 -5.373588,1.841613 l -0.06111,0.0196 c -2.161559,0.691222 -4.568365,1.46084 -6.434167,2.258981 -0.92598,0.396053 -1.930948,0.885981 -2.757574,1.492074 z m 20.472974,-0.66627 C 52.402297,30.9894 54.379704,29.268726 53.602332,26.610384 50.095769,14.618424 39.97349,5.506595 27.613503,5.6296975 12.234866,5.782882 0.70264227,20.022571 0.86235045,36.391691 1.0220586,52.760812 12.829878,66.768079 28.208516,66.614935 40.568503,66.491742 50.511029,57.180098 53.78293,45.120603 54.508188,42.4478 52.498192,40.76673 51.935811,40.340996 51.117126,39.721254 50.104004,39.252416 49.228085,38.896044 47.465104,38.17881 45.132602,37.482733 43.000393,36.846505 l -0.177926,-0.05307 c -0.917014,-0.273667 -1.800135,-0.538063 -2.626892,-0.79611 0.821167,-0.273924 1.698463,-0.555297 2.609464,-0.846698 l 0.177255,-0.05663 c 2.11919,-0.677608 4.437569,-1.418862 6.186221,-2.170258 0.8688,-0.373294 1.872682,-0.861811 2.679418,-1.497512 z M 35.519767,37.94634 c 0.0037,6.4e-5 0.03547,-0.02325 0.08422,-0.07012 -0.06355,0.04652 -0.08792,0.07006 -0.08422,0.07012 z m 0.04923,-3.737958 c -0.04965,-0.04602 -0.08187,-0.0687 -0.08557,-0.06857 -0.0037,1.36e-4 0.02113,0.0232 0.08557,0.06857 z"
     fill="#000000"
     id="path4" />
</svg>
