<svg width="78" height="78" xmlns="http://www.w3.org/2000/svg" fill="none" viewBox="0 0 78 78"><mask id="a" width="54" height="54" x="12" y="12" mask-type="alpha" maskUnits="userSpaceOnUse"><path fill="#ed937f" d="M12.264 38.994c0-14.635 11.872-26.5 26.5-26.5s26.5 11.865 26.5 26.5-11.872 26.5-26.5 26.5-26.5-11.864-26.5-26.5"/></mask><g mask="url(#a)"><path fill="url(#b)" d="M71.858 7.78H9.111v62.747h62.747z"/><path fill="url(#c)" d="M64.945 64.077s-.1-.226-.15-.289c-.063-.063-.29-.15-.29-.15s.227-.1.29-.151c.062-.063.15-.289.15-.289s.1.226.15.289c.063.063.29.15.29.15s-.227.1-.29.151c-.05.063-.15.289-.15.289" opacity=".32"/><path fill="url(#d)" d="M51.603 55.317s-.1-.226-.15-.289c-.063-.062-.289-.15-.289-.15s.226-.1.289-.15c.062-.064.15-.29.15-.29s.1.226.15.29c.051.062.29.15.29.15s-.226.1-.29.15c-.05.063-.15.289-.15.289" opacity=".32"/><path fill="url(#e)" d="M50.574 60.248s-.163-.376-.263-.476-.477-.264-.477-.264.377-.163.477-.264c.1-.1.263-.476.263-.476s.163.376.264.477c.1.1.477.263.477.263s-.377.163-.477.264c-.1.1-.264.476-.264.476" opacity=".32"/><path fill="url(#f)" d="M50.035 51.527s-.163-.377-.263-.477-.477-.264-.477-.264.376-.163.477-.263.263-.477.263-.477.164.376.264.477.477.263.477.263-.377.163-.477.264c-.1.088-.264.477-.264.477" opacity=".32"/><path fill="url(#g)" d="M52.282 52.568a.251.251 0 1 0 0-.502.251.251 0 0 0 0 .502" opacity=".5"/><path fill="url(#h)" d="M49.509 60.839s-.05.125-.088.163a.7.7 0 0 1-.163.088s.125.05.163.088a.7.7 0 0 1 .088.163s.05-.126.088-.163.163-.088.163-.088-.126-.05-.163-.088c-.026-.038-.088-.163-.088-.163" opacity=".5"/><path fill="url(#i)" d="M52.884 57.501s-.05.126-.088.163-.163.088-.163.088.125.05.163.088.088.163.088.163.05-.126.088-.163a.7.7 0 0 1 .163-.088s-.126-.05-.163-.088a3 3 0 0 1-.088-.163" opacity=".5"/><path fill="url(#j)" d="M65.333 61.09s-.05.125-.088.163a.7.7 0 0 1-.163.088s.126.05.163.088a.7.7 0 0 1 .088.163s.05-.126.088-.163.163-.088.163-.088-.126-.05-.163-.088a3 3 0 0 1-.088-.163" opacity=".5"/><path fill="url(#k)" d="M52.445 63.31c0 .051-.025.089-.075.089s-.088-.026-.088-.076.025-.087.075-.087.088.037.088.075m.527-1.543c-.088.013-.163.088-.15.176.012.088.087.163.175.15.088-.012.163-.087.15-.175a.15.15 0 0 0-.175-.15m.502 1.92a.333.333 0 0 0-.301.352.333.333 0 0 0 .351.3.333.333 0 0 0 .301-.35.333.333 0 0 0-.351-.302m-2.799.628c-.087.012-.163.088-.15.175.012.088.088.164.175.151.088-.013.164-.088.151-.176-.012-.088-.088-.163-.176-.15"/><path fill="url(#l)" d="M65.61 24.283s-.101-.226-.151-.289c-.063-.063-.29-.15-.29-.15s.227-.1.29-.151c.062-.063.15-.289.15-.289s.1.226.15.289c.064.063.29.15.29.15s-.227.1-.29.151c-.05.05-.15.289-.15.289" opacity=".32"/><path fill="url(#m)" d="M52.27 15.51s-.101-.226-.151-.288c-.063-.063-.289-.15-.289-.15s.226-.101.289-.151c.063-.063.15-.29.15-.29s.1.227.15.29c.064.062.29.15.29.15s-.226.1-.29.15c-.05.063-.15.29-.15.29" opacity=".32"/><path fill="url(#n)" d="M51.24 20.455s-.163-.376-.263-.476-.477-.264-.477-.264.377-.163.477-.264c.1-.1.263-.476.263-.476s.164.376.264.476.477.264.477.264-.377.163-.477.264c-.1.087-.264.476-.264.476" opacity=".32"/><path fill="url(#o)" d="M52.946 12.762a.25.25 0 1 0 0-.502.25.25 0 0 0 0 .502" opacity=".5"/><path fill="url(#p)" d="M56.95 25.751s-.05.125-.088.163a.7.7 0 0 1-.163.088s.126.05.163.088.088.163.088.163.05-.125.088-.163a.7.7 0 0 1 .163-.088s-.125-.05-.163-.088-.088-.163-.088-.163" opacity=".5"/><path fill="url(#q)" d="M50.173 21.045s-.05.125-.088.163a.7.7 0 0 1-.163.088s.125.05.163.088a.7.7 0 0 1 .088.163s.05-.126.088-.163.163-.088.163-.088-.126-.05-.163-.088a3 3 0 0 1-.088-.163" opacity=".5"/><path fill="url(#r)" d="M53.55 17.694s-.05.126-.088.164a.7.7 0 0 1-.163.087s.125.05.163.088.088.163.088.163.05-.125.088-.163a.7.7 0 0 1 .163-.088s-.126-.05-.163-.087a.7.7 0 0 1-.088-.164" opacity=".5"/><path fill="url(#s)" d="M53.11 23.518c0 .05-.024.087-.074.087s-.088-.025-.088-.075.025-.088.075-.088c.05-.012.088.025.088.075m.528-1.557c-.088.013-.163.088-.15.176.012.088.087.163.175.15.088-.012.163-.087.15-.175a.16.16 0 0 0-.175-.15m.49 1.933a.333.333 0 0 0-.302.351.333.333 0 0 0 .352.302.333.333 0 0 0 .3-.352.32.32 0 0 0-.35-.301m-2.787.615c-.087.012-.163.088-.15.175.012.088.088.164.175.151.088-.012.164-.088.151-.176a.176.176 0 0 0-.176-.15"/><path fill="url(#t)" d="M17.935 21.446s.025.251.063.314c.037.075.226.238.226.238s-.251.026-.314.063-.239.226-.239.226-.025-.25-.062-.314c-.038-.075-.226-.238-.226-.238s.25-.025.314-.063c.075-.038.238-.226.238-.226" opacity=".32"/><path fill="url(#u)" d="M22.126 11.91s.025.25.063.313c.038.075.226.238.226.238s-.251.025-.314.063c-.075.038-.238.226-.238.226s-.025-.251-.063-.314c-.038-.075-.226-.238-.226-.238s.251-.025.314-.063c.075-.038.238-.226.238-.226" opacity=".32"/><path fill="url(#v)" d="M32.316 24.194s.025.251.063.314c.037.075.226.239.226.239s-.252.025-.314.062c-.076.038-.239.226-.239.226s-.025-.25-.062-.314c-.038-.075-.226-.238-.226-.238s.25-.025.313-.063c.088-.037.239-.226.239-.226" opacity=".32"/><path fill="url(#w)" d="M34.75 19.777s.05.415.113.527c.063.126.377.39.377.39s-.415.05-.528.112c-.125.063-.389.377-.389.377s-.05-.414-.112-.527c-.063-.126-.377-.39-.377-.39s.414-.05.527-.112c.126-.063.39-.377.39-.377"/><path fill="url(#x)" d="M32.717 28.286s.05.414.113.527c.063.126.376.39.376.39s-.414.05-.527.112c-.125.063-.389.377-.389.377s-.05-.415-.113-.527c-.062-.126-.376-.39-.376-.39s.414-.05.527-.112c.113-.063.389-.377.389-.377" opacity=".32"/><path fill="url(#y)" d="M17.52 13.578s.05.414.113.527c.062.126.376.39.376.39s-.414.05-.527.112c-.125.063-.39.377-.39.377s-.05-.415-.112-.527c-.063-.126-.377-.39-.377-.39s.415-.05.528-.112c.113-.063.389-.377.389-.377"/><path fill="url(#z)" d="M30.798 27.118a.25.25 0 1 0 0-.502.25.25 0 0 0 0 .502" opacity=".5"/><path fill="url(#A)" d="M30.835 13.039s.088-.1.125-.126.176-.038.176-.038-.1-.087-.125-.125-.038-.176-.038-.176-.088.1-.125.126-.176.037-.176.037.1.088.125.126a.6.6 0 0 1 .038.176" opacity=".5"/><path fill="url(#B)" d="M35.942 19.514s.088-.1.126-.125c.038-.026.176-.038.176-.038s-.1-.088-.126-.125-.038-.176-.038-.176-.087.1-.125.125-.176.038-.176.038.1.088.126.125c.012.038.037.176.037.176" opacity=".5"/><path fill="url(#C)" d="M31.74 21.735s.087-.1.125-.126a.6.6 0 0 1 .176-.037s-.1-.088-.126-.126c-.025-.037-.038-.176-.038-.176s-.087.1-.125.126-.176.038-.176.038.1.087.126.125c.012.038.037.176.037.176" opacity=".5"/><path fill="url(#D)" d="M14.923 24.42s.088-.1.125-.125.176-.038.176-.038-.1-.088-.125-.125a.6.6 0 0 1-.038-.176s-.088.1-.126.125c-.037.026-.175.038-.175.038s.1.088.125.126a.6.6 0 0 1 .038.175" opacity=".5"/><path fill="url(#E)" d="M20.884 14.657s.088-.1.125-.126.176-.037.176-.037-.1-.088-.125-.126a.6.6 0 0 1-.038-.176s-.088.1-.126.126c-.037.025-.175.037-.175.037s.1.088.125.126c.013.038.038.176.038.176" opacity=".5"/><path fill="url(#F)" d="M18.424 17.72c-.013.037-.063.062-.1.05a.085.085 0 0 1-.05-.1.086.086 0 0 1 .1-.051c.037 0 .062.05.05.1m1.067-1.255a.16.16 0 0 0-.201.112.16.16 0 0 0 .113.201.16.16 0 0 0 .2-.113c.013-.075-.037-.163-.113-.2m-.264 1.982a.345.345 0 0 0-.414.214c-.05.175.05.351.213.414.176.05.352-.05.414-.214a.34.34 0 0 0-.213-.414m-2.836-.464a.16.16 0 0 0-.2.113.16.16 0 0 0 .112.2.16.16 0 0 0 .2-.112.16.16 0 0 0-.112-.201"/><path fill="url(#G)" d="M38.567 13.289s-.251 0-.327.025c-.075.025-.263.188-.263.188s0-.25-.025-.326c-.025-.075-.188-.263-.188-.263s.25 0 .326-.026c.075-.025.263-.188.263-.188s0 .251.026.326c.025.088.188.264.188.264" opacity=".32"/><path fill="url(#H)" d="M46.42 13.929s-.413-.013-.539.038c-.125.05-.439.326-.439.326s.013-.414-.038-.54c-.05-.125-.326-.439-.326-.439s.414.013.54-.037c.125-.05.439-.327.439-.327s-.013.414.038.54c.05.138.326.439.326.439" opacity=".32"/><path fill="url(#I)" d="M44.902 17.117s.088.1.113.15c.013.038.013.176.013.176s.1-.088.15-.113c.038-.012.176-.012.176-.012s-.088-.1-.113-.151c-.012-.038-.012-.176-.012-.176s-.1.088-.151.113c-.038.025-.176.013-.176.013" opacity=".5"/><path fill="url(#J)" d="M42.204 14.28c-.038-.025-.063-.062-.038-.112.026-.038.063-.063.113-.038.038.025.063.063.038.113a.1.1 0 0 1-.113.037m1.092 1.218a.16.16 0 0 0-.075-.214.16.16 0 0 0-.214.076.16.16 0 0 0 .076.213.155.155 0 0 0 .213-.075m-1.92-.527a.336.336 0 0 0-.163-.44.336.336 0 0 0-.44.164.336.336 0 0 0 .164.439c.163.075.364 0 .439-.163m.84-2.736a.16.16 0 0 0-.075-.213.16.16 0 0 0-.213.075.16.16 0 0 0 .075.213c.076.05.176.013.214-.075"/><path fill="url(#K)" d="M23.808 19.112s-.113.126-.176.15c-.05.026-.226.038-.226.038s.126.113.15.176c.026.05.038.226.038.226s.113-.125.176-.15c.05-.026.226-.038.226-.038s-.125-.113-.15-.176c-.026-.05-.038-.226-.038-.226" opacity=".5"/><path fill="url(#L)" d="M27.096 15.423c.025-.05.075-.075.138-.063.05.025.075.075.062.138-.025.05-.075.076-.138.063a.13.13 0 0 1-.062-.138m-1.418 1.506c.113.038.225-.013.263-.126s-.012-.226-.125-.263-.226.012-.264.125c-.038.1.025.226.126.264m.451-2.472a.415.415 0 0 0 .527-.251.415.415 0 0 0-.25-.527.415.415 0 0 0-.528.25.42.42 0 0 0 .251.528m3.54.753c.112.037.225-.013.263-.126.037-.113-.013-.226-.126-.263s-.226.012-.263.125.012.226.125.264"/><path fill="url(#M)" d="M58.859 20.706s.037.176.025.226c-.013.05-.1.2-.1.2s.175-.037.225-.024.2.1.2.1-.037-.176-.024-.226.1-.2.1-.2-.175.037-.226.024c-.05-.012-.2-.1-.2-.1" opacity=".5"/><path fill="url(#N)" d="M57.679 15.9c-.038-.05-.025-.114.025-.139.05-.037.113-.025.138.026.038.05.025.112-.025.138a.1.1 0 0 1-.138-.026m.426 2.02a.216.216 0 0 0 .05-.289.216.216 0 0 0-.288-.05.216.216 0 0 0-.05.289c.075.1.2.113.288.05m-1.77-1.782a.42.42 0 0 0 .101-.577.42.42 0 0 0-.577-.1.42.42 0 0 0-.1.577c.125.2.389.238.577.1m2.624-2.472a.216.216 0 0 0 .05-.289.216.216 0 0 0-.289-.05.216.216 0 0 0-.05.289c.075.1.2.112.289.05"/><path fill="url(#O)" d="M33.847 16.3c.012-.05.05-.075.1-.062s.075.05.063.1c-.013.05-.05.076-.1.063-.038-.012-.063-.063-.063-.1m-.954 1.33c.088.026.175-.037.2-.125.026-.087-.037-.175-.125-.2s-.176.037-.2.125a.18.18 0 0 0 .125.2m.1-1.994a.33.33 0 0 0 .39-.251.33.33 0 0 0-.252-.39.33.33 0 0 0-.389.252.32.32 0 0 0 .251.389m2.849.225c.088.025.176-.037.2-.125.026-.088-.037-.176-.125-.2-.088-.026-.175.037-.2.125a.18.18 0 0 0 .125.2"/><path fill="url(#P)" d="M16.492 52.105s.025.25.062.313c.038.075.226.239.226.239s-.25.025-.314.062c-.075.038-.238.226-.238.226s-.025-.25-.063-.313c-.037-.076-.225-.239-.225-.239s.25-.025.313-.063c.075-.037.239-.225.239-.225" opacity=".32"/><path fill="url(#Q)" d="M20.683 42.566s.025.251.063.314c.037.075.226.239.226.239s-.251.025-.314.062c-.075.038-.239.226-.239.226s-.025-.25-.062-.313c-.038-.076-.226-.239-.226-.239s.25-.025.314-.063c.075-.037.238-.226.238-.226" opacity=".32"/><path fill="url(#R)" d="M58.244 58.994s.025.251.062.314c.038.075.226.238.226.238s-.25.025-.313.063c-.076.038-.239.226-.239.226s-.025-.251-.063-.314c-.037-.075-.226-.238-.226-.238s.251-.025.314-.063c.075-.038.239-.226.239-.226"/><path fill="url(#S)" d="M60.664 54.576s.05.414.113.527c.063.126.377.39.377.39s-.415.05-.528.112c-.125.063-.389.377-.389.377s-.05-.414-.113-.527c-.062-.126-.376-.39-.376-.39s.414-.05.527-.112c.126-.063.39-.377.39-.377" opacity=".32"/><path fill="url(#T)" d="M31.274 58.932s.05.414.113.527c.062.125.376.389.376.389s-.414.05-.527.113c-.126.062-.39.376-.39.376s-.05-.414-.112-.527c-.063-.125-.377-.389-.377-.389s.415-.05.527-.113.39-.376.39-.376" opacity=".32"/><path fill="url(#U)" d="M16.076 44.236s.05.415.113.527c.063.126.377.39.377.39s-.414.05-.527.112c-.126.063-.39.377-.39.377s-.05-.414-.112-.527c-.063-.126-.377-.39-.377-.39s.414-.05.527-.112c.113-.063.39-.377.39-.377" opacity=".32"/><path fill="url(#V)" d="M29.355 57.776a.251.251 0 1 0 0-.502.251.251 0 0 0 0 .502" opacity=".5"/><path fill="url(#W)" d="M19.58 36.72s.087-.101.125-.126a.6.6 0 0 1 .175-.038s-.1-.088-.125-.125-.038-.176-.038-.176-.088.1-.125.125c-.038.026-.176.038-.176.038s.1.088.125.126a.6.6 0 0 1 .038.175" opacity=".5"/><path fill="url(#X)" d="M34.5 50.171s.087-.1.125-.125c.037-.025.175-.038.175-.038s-.1-.088-.125-.125-.038-.176-.038-.176-.088.1-.125.126a.6.6 0 0 1-.176.037s.1.088.125.126c.013.037.038.175.038.175" opacity=".5"/><path fill="url(#Y)" d="M57.653 56.535s.088-.1.126-.126c.037-.025.176-.038.176-.038s-.1-.087-.126-.125a.6.6 0 0 1-.038-.176s-.087.1-.125.126-.176.038-.176.038.1.087.126.125c.012.038.037.176.037.176" opacity=".5"/><path fill="url(#Z)" d="M13.48 55.079s.087-.1.125-.126.176-.038.176-.038-.1-.087-.126-.125-.037-.176-.037-.176-.088.1-.126.126-.176.037-.176.037.1.088.126.126.037.176.037.176" opacity=".5"/><path fill="url(#aa)" d="M19.44 45.315s.088-.1.126-.126.176-.037.176-.037-.1-.088-.126-.126a.6.6 0 0 1-.038-.175s-.087.1-.125.125a.6.6 0 0 1-.176.038s.1.088.126.125c.012.038.038.176.038.176" opacity=".5"/><path fill="url(#ab)" d="M27.234 35.602a.086.086 0 0 1-.1.05c-.038-.012-.063-.062-.05-.1a.085.085 0 0 1 .1-.05c.038.012.063.063.05.1m1.054-1.242a.16.16 0 0 0-.2.113.16.16 0 0 0 .113.2.16.16 0 0 0 .2-.112.16.16 0 0 0-.113-.201m-.25 1.97a.345.345 0 0 0-.415.214c-.05.175.05.35.214.414.175.05.351-.05.414-.214a.345.345 0 0 0-.213-.414m-2.837-.464a.16.16 0 0 0-.2.113.16.16 0 0 0 .112.2.16.16 0 0 0 .201-.112c.025-.088-.025-.163-.113-.201"/><path fill="url(#ac)" d="M40.272 56.597s-.075-.238-.126-.301c-.05-.063-.263-.188-.263-.188s.238-.075.301-.126c.063-.05.188-.263.188-.263s.075.238.126.3c.05.064.263.19.263.19s-.238.074-.3.125c-.064.05-.19.263-.19.263" opacity=".32"/><path fill="url(#ad)" d="M42.105 64.264s-.126-.401-.2-.502c-.089-.1-.44-.313-.44-.313s.401-.126.502-.201c.1-.088.314-.44.314-.44s.125.402.2.503c.088.1.44.313.44.313s-.402.126-.502.201c-.113.088-.314.44-.314.44" opacity=".32"/><path fill="url(#ae)" d="M42.707 53.134s-.063.125-.1.15c-.038.026-.164.063-.164.063s.126.063.151.1.063.164.063.164.062-.126.1-.15c.038-.026.163-.064.163-.064s-.125-.062-.15-.1c-.026-.038-.063-.163-.063-.163" opacity=".5"/><path fill="url(#af)" d="M38.603 63.813s-.062.125-.1.15a1 1 0 0 1-.163.063s.125.063.15.1a1 1 0 0 1 .063.163s.063-.125.1-.15a1 1 0 0 1 .164-.063s-.126-.063-.15-.1c-.026-.038-.064-.163-.064-.163" opacity=".5"/><path fill="url(#ag)" d="M40.474 60.362c0-.05.05-.076.088-.076.05 0 .075.05.075.088 0 .05-.05.075-.088.075-.05 0-.087-.037-.075-.087m-.828 1.418c.088.012.175-.05.175-.138.013-.088-.05-.176-.138-.176-.087-.013-.175.05-.175.138-.013.088.05.163.138.176m-.1-1.996c.175.026.338-.112.363-.288s-.113-.339-.288-.364c-.176-.025-.34.113-.364.288-.013.189.113.352.288.364m2.86-.05c.089.013.176-.05.176-.138.013-.088-.05-.175-.138-.175-.088-.013-.175.05-.175.138a.156.156 0 0 0 .138.175"/><path fill="url(#ah)" d="M15.4 29.478s-.075-.238-.125-.301-.263-.188-.263-.188.238-.076.3-.126c.064-.05.19-.263.19-.263s.074.238.125.3c.05.064.263.189.263.189s-.238.075-.301.126c-.063.05-.188.263-.188.263" opacity=".32"/><path fill="url(#ai)" d="M15.5 39.806s-.075-.238-.125-.301-.264-.188-.264-.188.239-.075.301-.126c.063-.05.189-.263.189-.263s.075.238.125.3c.05.064.264.19.264.19s-.239.075-.301.125c-.063.05-.189.263-.189.263" opacity=".32"/><path fill="url(#aj)" d="M19.73 37.334s-.126-.402-.2-.502c-.089-.1-.44-.314-.44-.314s.401-.126.502-.2c.1-.089.314-.44.314-.44s.125.401.2.502c.088.1.44.314.44.314s-.402.125-.502.2c-.1.088-.314.44-.314.44"/><path fill="url(#ak)" d="M20.332 26.202s-.063.126-.1.15c-.038.026-.164.064-.164.064s.126.062.151.1.063.163.063.163.062-.125.1-.15a1 1 0 0 1 .163-.063s-.125-.063-.15-.1c-.026-.038-.063-.164-.063-.164" opacity=".5"/><path fill="url(#al)" d="M16.228 36.882s-.062.125-.1.15c-.038.026-.163.063-.163.063s.125.063.15.1a1 1 0 0 1 .063.164s.063-.126.1-.15c.038-.026.164-.064.164-.064s-.126-.062-.15-.1c-.026-.038-.064-.163-.064-.163" opacity=".5"/><path fill="url(#am)" d="M15.601 33.243c0-.05.05-.076.088-.076.05 0 .075.05.075.088s-.05.075-.088.075c-.05-.012-.088-.05-.075-.087m-.828 1.405c.088.013.175-.05.175-.138.013-.088-.05-.176-.138-.176-.088-.012-.175.05-.175.138-.013.088.05.176.138.176m-.1-1.983c.175.025.338-.113.363-.288.025-.176-.113-.34-.288-.364-.176-.025-.34.113-.364.288a.343.343 0 0 0 .288.364m2.86-.05c.088.013.176-.05.176-.138.013-.088-.05-.176-.138-.176-.088-.012-.176.05-.176.138s.05.163.139.176"/><path fill="url(#an)" d="M43.723 20.53s-.075-.239-.126-.301c-.05-.063-.263-.189-.263-.189s.238-.075.301-.125.188-.264.188-.264.076.239.126.302c.05.062.263.188.263.188s-.238.075-.3.125c-.063.05-.189.264-.189.264" opacity=".32"/><path fill="url(#ao)" d="M48.932 35.05s-.075-.24-.126-.302c-.05-.063-.263-.188-.263-.188s.238-.075.301-.126c.063-.05.188-.263.188-.263s.076.238.126.301.263.188.263.188-.238.076-.3.126c-.064.05-.189.263-.189.263" opacity=".32"/><path fill="url(#ap)" d="M53.173 32.578s-.125-.402-.2-.502c-.088-.1-.44-.314-.44-.314s.402-.125.502-.2c.1-.088.314-.44.314-.44s.125.402.2.502c.089.1.44.314.44.314s-.402.125-.502.2c-.1.088-.314.44-.314.44"/><path fill="url(#aq)" d="M46.144 17.066s-.062.126-.1.151-.163.063-.163.063.125.063.15.1c.026.038.063.163.063.163s.063-.125.1-.15.164-.063.164-.063-.126-.063-.15-.1z" opacity=".5"/><path fill="url(#ar)" d="M49.672 32.126s-.063.126-.1.15c-.038.026-.164.063-.164.063s.126.063.15.1a1 1 0 0 1 .063.164s.063-.126.1-.15a1 1 0 0 1 .164-.064s-.125-.062-.15-.1c-.026-.025-.063-.163-.063-.163" opacity=".5"/><path fill="url(#as)" d="M51.542 28.674c0-.05.05-.075.088-.075.05 0 .075.05.075.088s-.05.075-.087.075c-.05 0-.088-.038-.076-.088m-.828 1.418c.088.013.176-.05.176-.138.012-.088-.05-.175-.138-.175-.088-.013-.176.05-.176.138a.156.156 0 0 0 .138.175m-.1-1.982c.175.025.339-.113.364-.289s-.113-.339-.289-.364-.339.113-.364.289a.343.343 0 0 0 .289.364m2.874-.063c.087.012.175-.05.175-.138.013-.088-.05-.176-.138-.176-.088-.012-.175.05-.175.138a.137.137 0 0 0 .137.176"/><path fill="url(#at)" d="M22.59 39.981c.014-.05.051-.075.101-.062s.076.05.063.1-.05.075-.1.063c-.05-.013-.076-.05-.063-.1m-.953 1.33c.088.026.176-.037.201-.125s-.038-.176-.126-.2c-.087-.026-.175.037-.2.125-.025.1.037.175.125.2m.088-1.995a.33.33 0 0 0 .39-.25.33.33 0 0 0-.252-.39.33.33 0 0 0-.389.251.33.33 0 0 0 .251.39m2.861.226c.088.025.176-.038.201-.125.025-.088-.038-.176-.125-.201-.088-.025-.176.038-.201.125-.025.1.037.188.125.201"/><path fill="url(#au)" d="M15.838 64.114s-.075-.239-.125-.301c-.05-.063-.264-.189-.264-.189s.239-.075.301-.125c.063-.05.189-.264.189-.264s.075.239.125.301c.05.063.264.189.264.189s-.239.075-.302.125c-.062.05-.188.264-.188.264"/><path fill="url(#av)" d="M20.081 61.642s-.125-.401-.2-.502c-.088-.1-.44-.313-.44-.313s.402-.126.502-.201c.1-.088.314-.44.314-.44s.126.402.2.502c.089.1.44.314.44.314s-.401.126-.502.201c-.113.075-.314.44-.314.44"/><path fill="url(#aw)" d="M16.58 61.178s-.063.125-.1.15-.164.063-.164.063.126.063.151.1.063.164.063.164.063-.126.1-.151.163-.063.163-.063-.125-.062-.15-.1c-.025-.025-.063-.163-.063-.163" opacity=".5"/><path fill="url(#ax)" d="M22.943 64.29c.012-.05.05-.075.1-.063.05.013.075.05.063.1-.013.05-.05.076-.1.063s-.076-.062-.064-.1m-.967 1.33c.088.025.176-.038.201-.125.025-.088-.038-.176-.125-.201-.088-.025-.176.038-.201.125a.18.18 0 0 0 .125.201m.1-1.995a.33.33 0 0 0 .39-.251.33.33 0 0 0-.251-.39.33.33 0 0 0-.39.252.33.33 0 0 0 .252.389m2.85.226c.087.025.175-.038.2-.126s-.038-.175-.125-.2c-.088-.026-.176.037-.201.125a.18.18 0 0 0 .125.2"/><path fill="url(#ay)" d="M62.572 38.727s.025.25.063.313c.037.076.225.239.225.239s-.25.025-.313.063c-.076.037-.239.225-.239.225s-.025-.25-.063-.313c-.037-.076-.225-.239-.225-.239s.25-.025.313-.063c.076-.037.239-.225.239-.225" opacity=".32"/><path fill="url(#az)" d="M65.006 34.31s.05.414.113.527c.063.125.376.389.376.389s-.414.05-.527.113c-.125.062-.389.376-.389.376s-.05-.414-.113-.527c-.062-.126-.376-.389-.376-.389s.414-.05.527-.113.389-.376.389-.376"/><path fill="url(#aA)" d="M59.498 47.398s.05.415.113.527c.063.126.377.39.377.39s-.415.05-.527.113c-.126.062-.39.376-.39.376s-.05-.414-.112-.527c-.063-.126-.377-.39-.377-.39s.414-.05.527-.112c.126-.05.39-.377.39-.377"/><path fill="url(#aB)" d="M61.054 41.65a.251.251 0 1 0 0-.502.251.251 0 0 0 0 .502" opacity=".5"/><path fill="url(#aC)" d="M57.628 32.164s.088-.1.126-.126c.037-.025.175-.038.175-.038s-.1-.087-.125-.125-.038-.176-.038-.176-.088.1-.125.126-.176.037-.176.037.1.088.125.126.038.175.038.175" opacity=".5"/><path fill="url(#aD)" d="M61.982 36.267s.087-.1.125-.125c.038-.026.176-.038.176-.038s-.1-.088-.126-.126c-.025-.037-.037-.175-.037-.175s-.088.1-.126.125-.176.038-.176.038.1.088.126.125.037.176.037.176" opacity=".5"/><path fill="url(#aE)" d="M64.103 30.833c.012-.05.05-.075.1-.063.05.013.075.05.063.1-.013.05-.05.076-.1.063s-.076-.062-.063-.1m-.954 1.33c.088.025.176-.037.2-.125.026-.088-.037-.176-.125-.201s-.175.038-.2.125c-.026.088.037.176.125.201m.088-1.995a.33.33 0 0 0 .389-.251.33.33 0 0 0-.251-.39.33.33 0 0 0-.39.252.33.33 0 0 0 .252.389m2.861.226c.088.025.176-.038.2-.126.026-.088-.037-.175-.125-.2s-.175.037-.2.125c-.026.1.037.176.125.2"/><path fill="url(#aF)" d="M44.45 8.044s0 4.312-4.483 4.86c-4.483.547-7.962-2.012-11.799 1.005-3.846 3.027.368 16.59-3.747 18.6-4.115 2.012-13.816-.637-14.273-5.406-.458-4.76-5.855 8.892-5.855 8.892s12.991 7.15 21.31 1.832c8.32-5.317 4.205-12.556 5.577-16.22 1.372-3.665 4.94-5.497 11.62-4.86s10.059-7.419 10.059-7.419zM13.815 37.23c-7.663-2.729-1.302-3.963-1.302-3.963s3.956 1.862 7.177 1.792c3.21-.06 7.236-3.157 7.663-1.553.428 1.603-5.864 6.442-13.538 3.724m25.416-22.365c-1.858 1.424-6.182.876-7.942 2.788-.228.249-.397.538-.556.836-.626 1.205-.915 2.55-1.382 3.824-.199.538-.666 1.952-1.361 1.096-.24-.29-.398-.678-.507-1.126-.289-1.165-.22-2.698-.11-3.584.199-1.584.805-3.296 2.157-4.262 2.843-2.051 11.56-.996 9.701.428m2.485.846c-1.073 0-1.938-.259-1.938-.577 0-.319.865-.578 1.938-.578 1.074 0 1.939.26 1.939.578s-.865.577-1.939.577" opacity=".25"/><path fill="url(#aG)" d="M55.907 48.688c2.395-2.997 6.937-4.892 9.412-5.745l-.01-1.518s-10.943 3.611-13.597 10.517-3.538 8.752-8.607 10.439-9.253-2.005-12.393-7.313c-3.141-5.299-15.286-7.392-19.63-3.294S9.96 59.89 9.96 59.89s8.05-5.626 13.517-3.86 5.228 8.196 13.199 9.476c.218.04.427.07.646.1-1.064-.487-1.68-1.171-1.71-1.717-.07-1.3 1.59-.506 1.59-.506s5.636 1.587 8.965-1.012c3.32-2.6 5.417-7.075 6.43-5.339 1.015 1.727-3.826 6.777-8.666 8.514-.1.04-.199.07-.298.099 4.9-.685 8.945-3.205 11.4-7.779 3.538-6.588 10.376-6.509 10.376-6.509l-.03-3.83c-5.039 1.052-12.642 5.13-9.471 1.16M21.07 53.52c-4.334.218-11.708 3.026-7.375-2.163 0 0 9.104-2.818 13.726 2.163 4.621 4.981-2.008-.218-6.351 0m9.233 6.846c-.368.248-1.213-.347-1.888-1.34-.676-.991-.925-1.994-.557-2.242s1.213.348 1.888 1.34c.676.992.925 1.994.557 2.242m29.002-8.434c-2.893 1.945-5.198 2.163-3.618.288 1.59-1.875 3.757-1.875 3.757-1.875s2.743-.357-.14 1.587" opacity=".25"/><path fill="url(#aH)" d="M51.623 31.101c-5.888-.16 14.775-19.787 14.775-19.787l-1.325-.518c-3.587 3.658-11.617 11.593-12.514 10.148-.886-1.436 6.367-8.174 9.794-11.235l-.399-.16S43.244 23.915 47.28 32.388s24.758-5.243 24.758-5.243l.398-10.975c0-.01-14.924 15.102-20.812 14.932m3.248-10.157c2.122-1.157-2.77 5.86-4.125 4.834s4.125-4.834 4.125-4.834M52 33.902c-.11.39-.777.549-1.494.35s-1.215-.669-1.116-1.057c.11-.39.777-.549 1.495-.35.717.2 1.215.669 1.115 1.057m5.191-.717c-7.273 1.614-6.436-1.356-1.096-2.383s9.913-6.958 9.913-6.958l1.355 3.669s-2.9 4.057-10.172 5.672" opacity=".25"/></g><path fill="#000" fill-rule="evenodd" d="M64.025 38.992c0-13.95-11.309-25.262-25.261-25.265S13.502 25.032 13.502 38.982s11.31 25.261 25.262 25.264 25.261-11.305 25.261-25.254M38.764 2.487c20.157.004 36.5 16.348 36.5 36.507 0 20.16-16.343 36.497-36.5 36.493-20.158-.004-36.5-16.348-36.5-36.508s16.342-36.496 36.5-36.492" clip-rule="evenodd"/><defs><radialGradient id="b" cx="0" cy="0" r="1" gradientTransform="translate(40.482 39.15)scale(39.1175)" gradientUnits="userSpaceOnUse"><stop offset=".059" stop-color="#9f00ad"/><stop offset=".963" stop-color="#110043"/></radialGradient><radialGradient id="c" cx="0" cy="0" r="1" gradientTransform="translate(64.944 63.636)scale(.4412)" gradientUnits="userSpaceOnUse"><stop offset=".059" stop-color="#e47e99"/><stop offset=".526" stop-color="#e43d99"/><stop offset=".993" stop-color="#b30058"/></radialGradient><radialGradient id="d" cx="0" cy="0" r="1" gradientTransform="translate(51.603 54.873)scale(.4412)" gradientUnits="userSpaceOnUse"><stop offset=".059" stop-color="#e47e99"/><stop offset=".526" stop-color="#e43d99"/><stop offset=".993" stop-color="#b30058"/></radialGradient><radialGradient id="e" cx="0" cy="0" r="1" gradientTransform="translate(50.571 59.516)scale(.7355)" gradientUnits="userSpaceOnUse"><stop offset=".059" stop-color="#e47e99"/><stop offset=".526" stop-color="#e43d99"/><stop offset=".993" stop-color="#b30058"/></radialGradient><radialGradient id="f" cx="0" cy="0" r="1" gradientTransform="translate(50.032 50.785)scale(.73549)" gradientUnits="userSpaceOnUse"><stop offset=".059" stop-color="#e47e99"/><stop offset=".526" stop-color="#e43d99"/><stop offset=".993" stop-color="#b30058"/></radialGradient><radialGradient id="g" cx="0" cy="0" r="1" gradientTransform="translate(59.03 47.977)scale(-19.2458)" gradientUnits="userSpaceOnUse"><stop offset=".059" stop-color="#0a1656"/><stop offset=".889" stop-color="#4478ad"/></radialGradient><radialGradient id="h" cx="0" cy="0" r="1" gradientTransform="translate(59.03 47.978)scale(-19.2455)" gradientUnits="userSpaceOnUse"><stop offset=".059" stop-color="#0a1656"/><stop offset=".889" stop-color="#4478ad"/></radialGradient><radialGradient id="i" cx="0" cy="0" r="1" gradientTransform="translate(59.03 47.978)scale(-19.2458)" gradientUnits="userSpaceOnUse"><stop offset=".059" stop-color="#0a1656"/><stop offset=".889" stop-color="#4478ad"/></radialGradient><radialGradient id="j" cx="0" cy="0" r="1" gradientTransform="translate(59.03 47.977)scale(-19.2458)" gradientUnits="userSpaceOnUse"><stop offset=".059" stop-color="#0a1656"/><stop offset=".889" stop-color="#4478ad"/></radialGradient><radialGradient id="k" cx="0" cy="0" r="1" gradientTransform="translate(52.172 63.2)scale(-1.54896)" gradientUnits="userSpaceOnUse"><stop offset=".059" stop-color="#0a1656"/><stop offset=".889" stop-color="#4478ad"/></radialGradient><radialGradient id="l" cx="0" cy="0" r="1" gradientTransform="translate(65.606 23.836)scale(.4412)" gradientUnits="userSpaceOnUse"><stop offset=".059" stop-color="#e47e99"/><stop offset=".526" stop-color="#e43d99"/><stop offset=".993" stop-color="#b30058"/></radialGradient><radialGradient id="m" cx="0" cy="0" r="1" gradientTransform="translate(52.267 15.073)scale(.4412)" gradientUnits="userSpaceOnUse"><stop offset=".059" stop-color="#e47e99"/><stop offset=".526" stop-color="#e43d99"/><stop offset=".993" stop-color="#b30058"/></radialGradient><radialGradient id="n" cx="0" cy="0" r="1" gradientTransform="translate(51.235 19.717)scale(.73549)" gradientUnits="userSpaceOnUse"><stop offset=".059" stop-color="#e47e99"/><stop offset=".526" stop-color="#e43d99"/><stop offset=".993" stop-color="#b30058"/></radialGradient><radialGradient id="o" cx="0" cy="0" r="1" gradientTransform="translate(59.693 8.177)scale(-19.2453)" gradientUnits="userSpaceOnUse"><stop offset=".059" stop-color="#0a1656"/><stop offset=".889" stop-color="#4478ad"/></radialGradient><radialGradient id="p" cx="0" cy="0" r="1" gradientTransform="translate(59.694 8.178)scale(-19.2454)" gradientUnits="userSpaceOnUse"><stop offset=".059" stop-color="#0a1656"/><stop offset=".889" stop-color="#4478ad"/></radialGradient><radialGradient id="q" cx="0" cy="0" r="1" gradientTransform="translate(59.693 8.178)scale(-19.2455)" gradientUnits="userSpaceOnUse"><stop offset=".059" stop-color="#0a1656"/><stop offset=".889" stop-color="#4478ad"/></radialGradient><radialGradient id="r" cx="0" cy="0" r="1" gradientTransform="translate(59.694 8.178)scale(-19.2454)" gradientUnits="userSpaceOnUse"><stop offset=".059" stop-color="#0a1656"/><stop offset=".889" stop-color="#4478ad"/></radialGradient><radialGradient id="s" cx="0" cy="0" r="1" gradientTransform="translate(52.836 23.401)scale(-1.54896)" gradientUnits="userSpaceOnUse"><stop offset=".059" stop-color="#0a1656"/><stop offset=".889" stop-color="#4478ad"/></radialGradient><radialGradient id="t" cx="0" cy="0" r="1" gradientTransform="translate(17.8 21.873)scale(.42192)" gradientUnits="userSpaceOnUse"><stop offset=".059" stop-color="#e47e99"/><stop offset=".526" stop-color="#e43d99"/><stop offset=".993" stop-color="#b30058"/></radialGradient><radialGradient id="u" cx="0" cy="0" r="1" gradientTransform="translate(22 12.335)scale(.42192)" gradientUnits="userSpaceOnUse"><stop offset=".059" stop-color="#e47e99"/><stop offset=".526" stop-color="#e43d99"/><stop offset=".993" stop-color="#b30058"/></radialGradient><radialGradient id="v" cx="0" cy="0" r="1" gradientTransform="translate(32.192 24.615)scale(.42193)" gradientUnits="userSpaceOnUse"><stop offset=".059" stop-color="#e47e99"/><stop offset=".526" stop-color="#e43d99"/><stop offset=".993" stop-color="#b30058"/></radialGradient><radialGradient id="w" cx="0" cy="0" r="1" gradientTransform="translate(34.536 20.477)scale(.70335)" gradientUnits="userSpaceOnUse"><stop offset=".059" stop-color="#e47e99"/><stop offset=".526" stop-color="#e43d99"/><stop offset=".993" stop-color="#b30058"/></radialGradient><radialGradient id="x" cx="0" cy="0" r="1" gradientTransform="translate(32.5 28.984)scale(.70335)" gradientUnits="userSpaceOnUse"><stop offset=".059" stop-color="#e47e99"/><stop offset=".526" stop-color="#e43d99"/><stop offset=".993" stop-color="#b30058"/></radialGradient><radialGradient id="y" cx="0" cy="0" r="1" gradientTransform="translate(17.3 14.284)scale(.70335)" gradientUnits="userSpaceOnUse"><stop offset=".059" stop-color="#e47e99"/><stop offset=".526" stop-color="#e43d99"/><stop offset=".993" stop-color="#b30058"/></radialGradient><radialGradient id="z" cx="0" cy="0" r="1" gradientTransform="rotate(17.002 -85.6 91.71)scale(19.2456)" gradientUnits="userSpaceOnUse"><stop offset=".059" stop-color="#0a1656"/><stop offset=".889" stop-color="#4478ad"/></radialGradient><radialGradient id="A" cx="0" cy="0" r="1" gradientTransform="rotate(17.002 -85.602 91.708)scale(19.2452)" gradientUnits="userSpaceOnUse"><stop offset=".059" stop-color="#0a1656"/><stop offset=".889" stop-color="#4478ad"/></radialGradient><radialGradient id="B" cx="0" cy="0" r="1" gradientTransform="rotate(17.002 -85.604 91.707)scale(19.2457)" gradientUnits="userSpaceOnUse"><stop offset=".059" stop-color="#0a1656"/><stop offset=".889" stop-color="#4478ad"/></radialGradient><radialGradient id="C" cx="0" cy="0" r="1" gradientTransform="rotate(17.002 -85.602 91.71)scale(19.2458)" gradientUnits="userSpaceOnUse"><stop offset=".059" stop-color="#0a1656"/><stop offset=".889" stop-color="#4478ad"/></radialGradient><radialGradient id="D" cx="0" cy="0" r="1" gradientTransform="rotate(17.002 -85.601 91.709)scale(19.2454)" gradientUnits="userSpaceOnUse"><stop offset=".059" stop-color="#0a1656"/><stop offset=".889" stop-color="#4478ad"/></radialGradient><radialGradient id="E" cx="0" cy="0" r="1" gradientTransform="rotate(17.002 -85.6 91.709)scale(19.2456)" gradientUnits="userSpaceOnUse"><stop offset=".059" stop-color="#0a1656"/><stop offset=".889" stop-color="#4478ad"/></radialGradient><radialGradient id="F" cx="0" cy="0" r="1" gradientTransform="translate(17.893 17.774)scale(-1.52275)" gradientUnits="userSpaceOnUse"><stop offset=".059" stop-color="#0a1656"/><stop offset=".889" stop-color="#4478ad"/></radialGradient><radialGradient id="G" cx="0" cy="0" r="1" gradientTransform="translate(38.168 13.108)scale(.40095)" gradientUnits="userSpaceOnUse"><stop offset=".059" stop-color="#e47e99"/><stop offset=".526" stop-color="#e43d99"/><stop offset=".993" stop-color="#b30058"/></radialGradient><radialGradient id="H" cx="0" cy="0" r="1" gradientTransform="translate(45.755 13.625)scale(.66838)" gradientUnits="userSpaceOnUse"><stop offset=".059" stop-color="#e47e99"/><stop offset=".526" stop-color="#e43d99"/><stop offset=".993" stop-color="#b30058"/></radialGradient><radialGradient id="I" cx="0" cy="0" r="1" gradientTransform="rotate(114.671 9.61 18.422)scale(19.2456)" gradientUnits="userSpaceOnUse"><stop offset=".059" stop-color="#0a1656"/><stop offset=".889" stop-color="#4478ad"/></radialGradient><radialGradient id="J" cx="0" cy="0" r="1" gradientTransform="rotate(-82.334 28.969 -17.266)scale(1.52276)" gradientUnits="userSpaceOnUse"><stop offset=".059" stop-color="#0a1656"/><stop offset=".889" stop-color="#4478ad"/></radialGradient><radialGradient id="K" cx="0" cy="0" r="1" gradientTransform="rotate(199.823 11.045 -1.485)scale(24.2797)" gradientUnits="userSpaceOnUse"><stop offset=".059" stop-color="#0a1656"/><stop offset=".889" stop-color="#4478ad"/></radialGradient><radialGradient id="L" cx="0" cy="0" r="1" gradientTransform="rotate(2.82 -298.511 571.752)scale(1.9211)" gradientUnits="userSpaceOnUse"><stop offset=".059" stop-color="#0a1656"/><stop offset=".889" stop-color="#4478ad"/></radialGradient><radialGradient id="M" cx="0" cy="0" r="1" gradientTransform="rotate(144.417 19.476 12.803)scale(24.2799)" gradientUnits="userSpaceOnUse"><stop offset=".059" stop-color="#0a1656"/><stop offset=".889" stop-color="#4478ad"/></radialGradient><radialGradient id="N" cx="0" cy="0" r="1" gradientTransform="rotate(-52.582 44.522 -51.062)scale(1.92107)" gradientUnits="userSpaceOnUse"><stop offset=".059" stop-color="#0a1656"/><stop offset=".889" stop-color="#4478ad"/></radialGradient><radialGradient id="O" cx="0" cy="0" r="1" gradientTransform="translate(34.386 16.31)scale(-1.49816)" gradientUnits="userSpaceOnUse"><stop offset=".059" stop-color="#0a1656"/><stop offset=".889" stop-color="#4478ad"/></radialGradient><radialGradient id="P" cx="0" cy="0" r="1" gradientTransform="translate(16.358 52.529)scale(.42193)" gradientUnits="userSpaceOnUse"><stop offset=".059" stop-color="#e47e99"/><stop offset=".526" stop-color="#e43d99"/><stop offset=".993" stop-color="#b30058"/></radialGradient><radialGradient id="Q" cx="0" cy="0" r="1" gradientTransform="translate(20.556 42.99)scale(.42193)" gradientUnits="userSpaceOnUse"><stop offset=".059" stop-color="#e47e99"/><stop offset=".526" stop-color="#e43d99"/><stop offset=".993" stop-color="#b30058"/></radialGradient><radialGradient id="R" cx="0" cy="0" r="1" gradientTransform="translate(58.11 59.42)scale(.42193)" gradientUnits="userSpaceOnUse"><stop offset=".059" stop-color="#e47e99"/><stop offset=".526" stop-color="#e43d99"/><stop offset=".993" stop-color="#b30058"/></radialGradient><radialGradient id="S" cx="0" cy="0" r="1" gradientTransform="translate(60.452 55.28)scale(.70335)" gradientUnits="userSpaceOnUse"><stop offset=".059" stop-color="#e47e99"/><stop offset=".526" stop-color="#e43d99"/><stop offset=".993" stop-color="#b30058"/></radialGradient><radialGradient id="T" cx="0" cy="0" r="1" gradientTransform="translate(31.056 59.64)scale(.70335)" gradientUnits="userSpaceOnUse"><stop offset=".059" stop-color="#e47e99"/><stop offset=".526" stop-color="#e43d99"/><stop offset=".993" stop-color="#b30058"/></radialGradient><radialGradient id="U" cx="0" cy="0" r="1" gradientTransform="translate(15.856 44.94)scale(.70335)" gradientUnits="userSpaceOnUse"><stop offset=".059" stop-color="#e47e99"/><stop offset=".526" stop-color="#e43d99"/><stop offset=".993" stop-color="#b30058"/></radialGradient><radialGradient id="V" cx="0" cy="0" r="1" gradientTransform="rotate(17.002 -188.873 102.21)scale(19.2458)" gradientUnits="userSpaceOnUse"><stop offset=".059" stop-color="#0a1656"/><stop offset=".889" stop-color="#4478ad"/></radialGradient><radialGradient id="W" cx="0" cy="0" r="1" gradientTransform="rotate(17.002 -170.465 65.88)scale(19.2457)" gradientUnits="userSpaceOnUse"><stop offset=".059" stop-color="#0a1656"/><stop offset=".889" stop-color="#4478ad"/></radialGradient><radialGradient id="X" cx="0" cy="0" r="1" gradientTransform="rotate(17.002 -188.873 102.207)scale(19.2455)" gradientUnits="userSpaceOnUse"><stop offset=".059" stop-color="#0a1656"/><stop offset=".889" stop-color="#4478ad"/></radialGradient><radialGradient id="Y" cx="0" cy="0" r="1" gradientTransform="rotate(17.002 -189.076 195.809)scale(19.2457 19.2456)" gradientUnits="userSpaceOnUse"><stop offset=".059" stop-color="#0a1656"/><stop offset=".889" stop-color="#4478ad"/></radialGradient><radialGradient id="Z" cx="0" cy="0" r="1" gradientTransform="rotate(17.002 -188.876 102.211)scale(19.2459 19.2458)" gradientUnits="userSpaceOnUse"><stop offset=".059" stop-color="#0a1656"/><stop offset=".889" stop-color="#4478ad"/></radialGradient><radialGradient id="aa" cx="0" cy="0" r="1" gradientTransform="rotate(17.002 -188.874 102.21)scale(19.2457)" gradientUnits="userSpaceOnUse"><stop offset=".059" stop-color="#0a1656"/><stop offset=".889" stop-color="#4478ad"/></radialGradient><radialGradient id="ab" cx="0" cy="0" r="1" gradientTransform="translate(26.702 35.665)scale(-1.52275)" gradientUnits="userSpaceOnUse"><stop offset=".059" stop-color="#0a1656"/><stop offset=".889" stop-color="#4478ad"/></radialGradient><radialGradient id="ac" cx="0" cy="0" r="1" gradientTransform="translate(40.328 56.16)scale(.43827)" gradientUnits="userSpaceOnUse"><stop offset=".059" stop-color="#e47e99"/><stop offset=".526" stop-color="#e43d99"/><stop offset=".993" stop-color="#b30058"/></radialGradient><radialGradient id="ad" cx="0" cy="0" r="1" gradientTransform="translate(42.189 63.534)scale(.73058)" gradientUnits="userSpaceOnUse"><stop offset=".059" stop-color="#e47e99"/><stop offset=".526" stop-color="#e43d99"/><stop offset=".993" stop-color="#b30058"/></radialGradient><radialGradient id="ae" cx="0" cy="0" r="1" gradientTransform="rotate(186.615 18.371 24.054)scale(19.2455 19.2456)" gradientUnits="userSpaceOnUse"><stop offset=".059" stop-color="#0a1656"/><stop offset=".889" stop-color="#4478ad"/></radialGradient><radialGradient id="af" cx="0" cy="0" r="1" gradientTransform="rotate(186.615 18.371 24.053)scale(19.2454)" gradientUnits="userSpaceOnUse"><stop offset=".059" stop-color="#0a1656"/><stop offset=".889" stop-color="#4478ad"/></radialGradient><radialGradient id="ag" cx="0" cy="0" r="1" gradientTransform="translate(40.926 60.457)scale(-1.50522)" gradientUnits="userSpaceOnUse"><stop offset=".059" stop-color="#0a1656"/><stop offset=".889" stop-color="#4478ad"/></radialGradient><radialGradient id="ah" cx="0" cy="0" r="1" gradientTransform="translate(15.458 29.035)scale(.43827)" gradientUnits="userSpaceOnUse"><stop offset=".059" stop-color="#e47e99"/><stop offset=".526" stop-color="#e43d99"/><stop offset=".993" stop-color="#b30058"/></radialGradient><radialGradient id="ai" cx="0" cy="0" r="1" gradientTransform="translate(15.547 39.37)scale(.43827)" gradientUnits="userSpaceOnUse"><stop offset=".059" stop-color="#e47e99"/><stop offset=".526" stop-color="#e43d99"/><stop offset=".993" stop-color="#b30058"/></radialGradient><radialGradient id="aj" cx="0" cy="0" r="1" gradientTransform="translate(19.817 36.605)scale(.7306)" gradientUnits="userSpaceOnUse"><stop offset=".059" stop-color="#e47e99"/><stop offset=".526" stop-color="#e43d99"/><stop offset=".993" stop-color="#b30058"/></radialGradient><radialGradient id="ak" cx="0" cy="0" r="1" gradientTransform="rotate(186.615 6.407 11.235)scale(19.2455)" gradientUnits="userSpaceOnUse"><stop offset=".059" stop-color="#0a1656"/><stop offset=".889" stop-color="#4478ad"/></radialGradient><radialGradient id="al" cx="0" cy="0" r="1" gradientTransform="rotate(186.615 6.407 11.235)scale(19.2455)" gradientUnits="userSpaceOnUse"><stop offset=".059" stop-color="#0a1656"/><stop offset=".889" stop-color="#4478ad"/></radialGradient><radialGradient id="am" cx="0" cy="0" r="1" gradientTransform="translate(16.054 33.333)scale(-1.50522)" gradientUnits="userSpaceOnUse"><stop offset=".059" stop-color="#0a1656"/><stop offset=".889" stop-color="#4478ad"/></radialGradient><radialGradient id="an" cx="0" cy="0" r="1" gradientTransform="translate(43.778 20.09)scale(.43827)" gradientUnits="userSpaceOnUse"><stop offset=".059" stop-color="#e47e99"/><stop offset=".526" stop-color="#e43d99"/><stop offset=".993" stop-color="#b30058"/></radialGradient><radialGradient id="ao" cx="0" cy="0" r="1" gradientTransform="translate(48.988 34.615)scale(.43827)" gradientUnits="userSpaceOnUse"><stop offset=".059" stop-color="#e47e99"/><stop offset=".526" stop-color="#e43d99"/><stop offset=".993" stop-color="#b30058"/></radialGradient><radialGradient id="ap" cx="0" cy="0" r="1" gradientTransform="translate(53.258 31.852)scale(-.7306)" gradientUnits="userSpaceOnUse"><stop offset=".059" stop-color="#66b0d8"/><stop offset="1" stop-color="#3f1f7d"/></radialGradient><radialGradient id="aq" cx="0" cy="0" r="1" gradientTransform="rotate(186.615 19.053 5.92)scale(19.2456)" gradientUnits="userSpaceOnUse"><stop offset=".059" stop-color="#0a1656"/><stop offset=".889" stop-color="#4478ad"/></radialGradient><radialGradient id="ar" cx="0" cy="0" r="1" gradientTransform="rotate(186.615 22.99 7.892)scale(19.2458)" gradientUnits="userSpaceOnUse"><stop offset=".059" stop-color="#0a1656"/><stop offset=".889" stop-color="#4478ad"/></radialGradient><radialGradient id="as" cx="0" cy="0" r="1" gradientTransform="translate(51.996 28.774)scale(-1.50522)" gradientUnits="userSpaceOnUse"><stop offset=".059" stop-color="#0a1656"/><stop offset=".889" stop-color="#4478ad"/></radialGradient><radialGradient id="at" cx="0" cy="0" r="1" gradientTransform="translate(23.125 39.994)scale(-1.49816)" gradientUnits="userSpaceOnUse"><stop offset=".059" stop-color="#0a1656"/><stop offset=".889" stop-color="#4478ad"/></radialGradient><radialGradient id="au" cx="0" cy="0" r="1" gradientTransform="translate(15.893 63.671)scale(.43827)" gradientUnits="userSpaceOnUse"><stop offset=".059" stop-color="#e47e99"/><stop offset=".526" stop-color="#e43d99"/><stop offset=".993" stop-color="#b30058"/></radialGradient><radialGradient id="av" cx="0" cy="0" r="1" gradientTransform="translate(20.165 60.909)scale(-.7306)" gradientUnits="userSpaceOnUse"><stop offset=".059" stop-color="#66b0d8"/><stop offset="1" stop-color="#3f1f7d"/></radialGradient><radialGradient id="aw" cx="0" cy="0" r="1" gradientTransform="rotate(186.615 7.283 23.377)scale(19.2454)" gradientUnits="userSpaceOnUse"><stop offset=".059" stop-color="#0a1656"/><stop offset=".889" stop-color="#4478ad"/></radialGradient><radialGradient id="ax" cx="0" cy="0" r="1" gradientTransform="translate(23.472 64.297)scale(-1.49815)" gradientUnits="userSpaceOnUse"><stop offset=".059" stop-color="#0a1656"/><stop offset=".889" stop-color="#4478ad"/></radialGradient><radialGradient id="ay" cx="0" cy="0" r="1" gradientTransform="translate(62.444 39.15)scale(.42193)" gradientUnits="userSpaceOnUse"><stop offset=".059" stop-color="#e47e99"/><stop offset=".526" stop-color="#e43d99"/><stop offset=".993" stop-color="#b30058"/></radialGradient><radialGradient id="az" cx="0" cy="0" r="1" gradientTransform="translate(64.787 35.011)scale(-.70335)" gradientUnits="userSpaceOnUse"><stop offset=".059" stop-color="#66b0d8"/><stop offset="1" stop-color="#3f1f7d"/></radialGradient><radialGradient id="aA" cx="0" cy="0" r="1" gradientTransform="translate(59.286 48.107)scale(.70335)" gradientUnits="userSpaceOnUse"><stop offset=".059" stop-color="#e47e99"/><stop offset=".526" stop-color="#e43d99"/><stop offset=".993" stop-color="#b30058"/></radialGradient><radialGradient id="aB" cx="0" cy="0" r="1" gradientTransform="rotate(17.002 -119.095 200.175)scale(19.2457)" gradientUnits="userSpaceOnUse"><stop offset=".059" stop-color="#0a1656"/><stop offset=".889" stop-color="#4478ad"/></radialGradient><radialGradient id="aC" cx="0" cy="0" r="1" gradientTransform="rotate(17.002 -136.182 190.876)scale(19.2456)" gradientUnits="userSpaceOnUse"><stop offset=".059" stop-color="#0a1656"/><stop offset=".889" stop-color="#4478ad"/></radialGradient><radialGradient id="aD" cx="0" cy="0" r="1" gradientTransform="rotate(17.002 -119.094 200.17)scale(19.2452 19.2453)" gradientUnits="userSpaceOnUse"><stop offset=".059" stop-color="#0a1656"/><stop offset=".889" stop-color="#4478ad"/></radialGradient><radialGradient id="aE" cx="0" cy="0" r="1" gradientTransform="translate(64.637 30.844)scale(-1.49816)" gradientUnits="userSpaceOnUse"><stop offset=".059" stop-color="#0a1656"/><stop offset=".889" stop-color="#4478ad"/></radialGradient><radialGradient id="aF" cx="0" cy="0" r="1" gradientTransform="matrix(20.5055 0 0 20.5421 28.58 23.918)" gradientUnits="userSpaceOnUse"><stop offset=".081" stop-color="#f128c5"/><stop offset="1" stop-color="#c11bb9"/></radialGradient><radialGradient id="aG" cx="0" cy="0" r="1" gradientTransform="matrix(21.7689 0 0 21.7325 37.098 53.547)" gradientUnits="userSpaceOnUse"><stop offset=".081" stop-color="#f128c5"/><stop offset="1" stop-color="#c11bb9"/></radialGradient><radialGradient id="aH" cx="0" cy="0" r="1" gradientTransform="matrix(12.8296 0 0 12.8366 59.573 22.346)" gradientUnits="userSpaceOnUse"><stop offset=".081" stop-color="#f128c5"/><stop offset="1" stop-color="#c11bb9"/></radialGradient></defs></svg>