<?xml version="1.0" encoding="UTF-8" standalone="no"?>
<svg
   xmlns:dc="http://purl.org/dc/elements/1.1/"
   xmlns:cc="http://creativecommons.org/ns#"
   xmlns:rdf="http://www.w3.org/1999/02/22-rdf-syntax-ns#"
   xmlns:svg="http://www.w3.org/2000/svg"
   xmlns="http://www.w3.org/2000/svg"
   xmlns:sodipodi="http://sodipodi.sourceforge.net/DTD/sodipodi-0.dtd"
   xmlns:inkscape="http://www.inkscape.org/namespaces/inkscape"
   width="148"
   height="148"
   version="1.1"
   id="svg4">
  <metadata id="metadata10">
    <rdf:RDF>
      <cc:Work rdf:about="">
        <dc:format>image/svg+xml</dc:format>
        <dc:type rdf:resource="http://purl.org/dc/dcmitype/StillImage"/>
        <dc:title/>
      </cc:Work>
    </rdf:RDF>
  </metadata>
  <defs id="defs8">
    <clipPath id="clip">
      <circle cx="74" cy="74" r="66.5"/>
    </clipPath>
  </defs>

  <!-- Schwarzer Basis-Kreis -->
  <circle cx="74" cy="74" r="66.5" fill="#000000"/>

  <g clip-path="url(#clip)">

    <!-- Linke Hälfte SCHWARZ (kein Gold mehr, nur Kristalle mit outline) -->

    <!-- Kristalle ROT mit gelbem Outline -->
    <polygon points="32,44 48,56 32,68 16,56" fill="#880000" stroke="#f0c030" stroke-width="3"/>
    <polygon points="32,46 46,56 32,66 18,56" fill="#cc0000"/>
    <polygon points="32,46 46,56 32,54"        fill="#ff5555" opacity="0.7"/>
    <polygon points="29,48 37,54 29,52"        fill="#ffffff"  opacity="0.4"/>

    <polygon points="26,62 44,74 26,86 8,74"  fill="#880000" stroke="#f0c030" stroke-width="3"/>
    <polygon points="26,64 42,74 26,84 10,74" fill="#cc0000"/>
    <polygon points="26,64 42,74 26,72"        fill="#ff5555" opacity="0.7"/>
    <polygon points="23,66 33,72 23,70"        fill="#ffffff"  opacity="0.4"/>

    <polygon points="32,80 48,92 32,104 16,92" fill="#880000" stroke="#f0c030" stroke-width="3"/>
    <polygon points="32,82 46,92 32,102 18,92" fill="#cc0000"/>
    <polygon points="32,82 46,92 32,90"         fill="#ff5555" opacity="0.7"/>
    <polygon points="29,84 37,90 29,88"         fill="#ffffff"  opacity="0.4"/>

  </g>



</svg>
