<svg width="149" height="149" xmlns="http://www.w3.org/2000/svg" fill="none" viewBox="0 0 149 149"><path fill="#ed937f" d="M141.032 78.147c2.215-36.66-25.708-68.177-62.368-70.395S10.49 33.455 8.274 70.115s25.708 68.177 62.368 70.395 68.175-25.703 70.39-62.363"/><mask id="a" width="134" height="134" x="8" y="7" mask-type="alpha" maskUnits="userSpaceOnUse"><path fill="#ed937f" d="M8.264 73.994c0-36.727 29.792-66.5 66.5-66.5s66.5 29.773 66.5 66.5-29.793 66.5-66.5 66.5-66.5-29.773-66.5-66.5"/></mask><g mask="url(#a)"><path fill="url(#b)" d="M157.816-4.335H.357v157.459h157.459z"/><path fill="url(#c)" d="M157.814-4.335H.355v157.459h157.459z"/><path fill="url(#d)" d="M140.464 136.937s-.252-.567-.378-.724c-.158-.158-.725-.378-.725-.378s.567-.252.725-.378c.157-.158.378-.725.378-.725s.251.567.377.725c.158.157.725.378.725.378s-.567.252-.725.378c-.126.157-.377.724-.377.724" opacity=".32"/><path fill="url(#e)" d="M106.987 114.955s-.252-.566-.378-.724c-.157-.157-.724-.378-.724-.378s.567-.252.724-.378c.158-.157.378-.724.378-.724s.252.567.378.724.724.378.724.378-.567.252-.724.378c-.126.158-.378.724-.378.724" opacity=".32"/><path fill="url(#f)" d="M104.405 127.332s-.41-.945-.661-1.196c-.252-.252-1.197-.662-1.197-.662s.945-.409 1.197-.661c.251-.252.661-1.197.661-1.197s.409.945.661 1.197 1.197.661 1.197.661-.945.41-1.197.662c-.252.251-.661 1.196-.661 1.196" opacity=".32"/><path fill="url(#g)" d="M103.051 105.446s-.409-.945-.661-1.197-1.197-.661-1.197-.661.945-.41 1.197-.662.661-1.197.661-1.197.41.945.662 1.197 1.196.662 1.196.662-.944.409-1.196.661c-.252.22-.662 1.197-.662 1.197" opacity=".32"/><path fill="url(#h)" d="M108.688 108.059a.63.63 0 1 0 0-1.26.63.63 0 0 0 0 1.26" opacity=".5"/><path fill="url(#i)" d="M101.729 128.812s-.126.315-.22.41-.409.22-.409.22.315.126.409.221c.094.094.22.409.22.409s.126-.315.221-.409c.094-.095.409-.221.409-.221s-.315-.126-.409-.22c-.063-.095-.221-.41-.221-.41" opacity=".5"/><path fill="url(#j)" d="M110.2 120.436s-.126.314-.22.409c-.095.094-.41.22-.41.22s.315.126.41.221c.094.094.22.409.22.409s.126-.315.221-.409c.094-.095.409-.221.409-.221s-.315-.126-.409-.22c-.063-.095-.221-.409-.221-.409" opacity=".5"/><path fill="url(#k)" d="M141.438 129.442s-.126.315-.22.41-.409.22-.409.22.315.126.409.221c.094.094.22.409.22.409s.126-.315.221-.409c.094-.095.409-.221.409-.221s-.315-.126-.409-.22c-.063-.095-.221-.41-.221-.41" opacity=".5"/><path fill="url(#l)" d="M109.097 135.016c0 .126-.063.221-.189.221s-.22-.063-.22-.189.063-.221.189-.221.22.095.22.189m1.323-3.873c-.221.031-.41.22-.378.441.031.22.22.409.441.377.22-.031.409-.22.378-.44a.38.38 0 0 0-.441-.378m1.259 4.818a.836.836 0 0 0-.755.882c.031.441.44.787.881.755a.835.835 0 0 0 .756-.881.836.836 0 0 0-.882-.756m-7.022 1.574c-.221.032-.41.221-.378.441.031.221.22.41.441.378.22-.031.409-.22.378-.441-.032-.22-.221-.409-.441-.378"/><path fill="url(#m)" d="M142.133 37.077s-.251-.567-.377-.725c-.158-.157-.725-.378-.725-.378s.567-.252.725-.378c.157-.157.377-.724.377-.724s.252.567.378.724c.158.158.725.378.725.378s-.567.252-.725.378c-.126.126-.378.725-.378.725" opacity=".32"/><path fill="url(#n)" d="M108.657 15.064s-.252-.567-.378-.725c-.157-.157-.724-.377-.724-.377s.567-.252.724-.378c.157-.158.378-.725.378-.725s.252.567.378.725c.157.157.724.378.724.378s-.567.252-.724.377c-.126.158-.378.725-.378.725" opacity=".32"/><path fill="url(#o)" d="M106.075 27.472s-.41-.945-.662-1.197c-.251-.252-1.196-.661-1.196-.661s.945-.41 1.196-.662c.252-.251.662-1.196.662-1.196s.409.945.661 1.197 1.197.66 1.197.66-.945.41-1.197.662c-.252.22-.661 1.197-.661 1.197" opacity=".32"/><path fill="url(#p)" d="M110.356 8.168a.63.63 0 1 0 0-1.26.63.63 0 0 0 0 1.26" opacity=".5"/><path fill="url(#q)" d="M120.403 40.762s-.126.315-.22.41c-.095.094-.41.22-.41.22s.315.125.41.22c.094.094.22.41.22.41s.126-.316.221-.41c.094-.095.409-.22.409-.22s-.315-.126-.409-.22c-.095-.095-.221-.41-.221-.41" opacity=".5"/><path fill="url(#r)" d="M103.397 28.952s-.126.315-.22.41c-.095.094-.409.22-.409.22s.314.126.409.22c.094.095.22.41.22.41s.126-.315.221-.41c.094-.094.409-.22.409-.22s-.315-.126-.409-.22c-.063-.095-.221-.41-.221-.41" opacity=".5"/><path fill="url(#s)" d="M111.868 20.544s-.126.315-.22.41c-.095.094-.41.22-.41.22s.315.126.41.22c.094.095.22.41.22.41s.126-.315.221-.41c.094-.094.409-.22.409-.22s-.315-.126-.409-.22c-.095-.095-.221-.41-.221-.41" opacity=".5"/><path fill="url(#t)" d="M110.767 35.156c0 .126-.063.22-.189.22s-.22-.063-.22-.189.063-.22.189-.22c.126-.032.22.063.22.189m1.323-3.905c-.221.031-.41.22-.378.44s.22.41.441.378c.22-.031.409-.22.378-.44a.4.4 0 0 0-.441-.379m1.228 4.85a.837.837 0 0 0-.756.881c.032.44.441.787.882.756a.837.837 0 0 0 .756-.882c-.032-.472-.41-.787-.882-.756m-6.991 1.542c-.221.032-.41.22-.378.441.031.22.22.41.441.378.22-.031.409-.22.378-.44a.44.44 0 0 0-.441-.379"/><path fill="url(#u)" d="M22.495 29.96s.063.63.157.787c.095.19.567.599.567.599s-.63.063-.787.157c-.157.095-.598.567-.598.567s-.063-.63-.158-.787c-.094-.19-.567-.599-.567-.599s.63-.063.788-.157c.189-.095.598-.567.598-.567" opacity=".32"/><path fill="url(#v)" d="M33.013 6.026s.063.63.157.788c.094.189.567.598.567.598s-.63.063-.787.157c-.19.095-.599.567-.599.567s-.063-.63-.157-.787c-.095-.189-.567-.598-.567-.598s.63-.063.787-.158c.19-.094.599-.567.599-.567" opacity=".32"/><path fill="url(#w)" d="M58.585 36.856s.063.63.157.788c.095.189.567.598.567.598s-.63.063-.787.158c-.19.094-.599.566-.599.566s-.062-.63-.157-.787c-.094-.189-.567-.598-.567-.598s.63-.063.788-.158c.22-.094.598-.567.598-.567" opacity=".32"/><path fill="url(#x)" d="M64.693 25.772s.126 1.039.284 1.322c.157.315.945.976.945.976s-1.04.126-1.323.284c-.315.157-.976.945-.976.945s-.126-1.04-.284-1.323c-.157-.315-.944-.976-.944-.976s1.039-.126 1.322-.284c.315-.157.976-.945.976-.945"/><path fill="url(#y)" d="M59.592 47.123s.126 1.04.283 1.323c.158.315.945.976.945.976s-1.04.126-1.323.283c-.315.158-.976.945-.976.945s-.126-1.04-.283-1.322c-.158-.316-.945-.977-.945-.977s1.04-.126 1.323-.283c.283-.158.976-.945.976-.945" opacity=".32"/><path fill="url(#z)" d="M21.455 10.215s.126 1.04.284 1.322c.157.315.944.977.944.977s-1.039.126-1.322.283c-.315.158-.977.945-.977.945s-.125-1.04-.283-1.323c-.157-.315-.945-.976-.945-.976s1.04-.126 1.323-.283c.283-.158.976-.945.976-.945"/><path fill="url(#A)" d="M54.774 44.194a.63.63 0 1 0 0-1.26.63.63 0 0 0 0 1.26" opacity=".5"/><path fill="url(#B)" d="M54.868 8.86s.22-.251.315-.314.441-.095.441-.095-.252-.22-.315-.315c-.063-.094-.094-.44-.094-.44s-.22.251-.315.314-.441.095-.441.095.252.22.315.315c.063.094.094.44.094.44" opacity=".5"/><path fill="url(#C)" d="M67.685 25.11s.22-.251.315-.314c.094-.063.44-.095.44-.095s-.251-.22-.314-.315c-.063-.094-.095-.44-.095-.44s-.22.251-.315.314c-.094.063-.44.095-.44.095s.251.22.314.315c.032.094.095.44.095.44" opacity=".5"/><path fill="url(#D)" d="M57.136 30.684s.22-.252.315-.315c.094-.063.44-.095.44-.095s-.251-.22-.314-.315c-.063-.094-.095-.44-.095-.44s-.22.252-.315.315c-.094.063-.44.094-.44.094s.252.22.315.315c.031.094.094.44.094.44" opacity=".5"/><path fill="url(#E)" d="M14.937 37.423s.22-.252.315-.315c.094-.063.44-.094.44-.094s-.251-.22-.314-.315-.095-.441-.095-.441-.22.252-.315.315c-.094.063-.44.094-.44.094s.251.22.314.315.095.441.095.441" opacity=".5"/><path fill="url(#F)" d="M29.896 12.923s.22-.252.315-.315c.094-.063.44-.094.44-.094s-.251-.22-.314-.315-.095-.441-.095-.441-.22.252-.315.315c-.094.063-.44.094-.44.094s.251.22.314.315c.032.095.095.441.095.441" opacity=".5"/><path fill="url(#G)" d="M23.723 20.607a.214.214 0 0 1-.252.126.214.214 0 0 1-.126-.252.214.214 0 0 1 .252-.126c.095 0 .158.126.126.252m2.677-3.15a.404.404 0 0 0-.504.284c-.063.22.063.44.284.504.22.063.44-.063.503-.284.032-.188-.094-.409-.283-.503m-.661 4.976a.866.866 0 0 0-1.04.536.866.866 0 0 0 .536 1.039.866.866 0 0 0 1.04-.535c.125-.441-.127-.914-.536-1.04m-7.117-1.165a.404.404 0 0 0-.504.284c-.063.22.063.44.283.503s.441-.063.504-.283a.404.404 0 0 0-.283-.504"/><path fill="url(#H)" d="M74.267 9.49s-.63 0-.818.063c-.19.063-.662.472-.662.472s0-.63-.063-.819-.472-.66-.472-.66.63 0 .819-.064c.189-.063.661-.472.661-.472s0 .63.063.819c.063.22.472.66.472.66" opacity=".32"/><path fill="url(#I)" d="M93.98 11.096s-1.038-.031-1.353.095c-.315.125-1.102.818-1.102.818s.031-1.039-.095-1.354-.819-1.102-.819-1.102 1.04.031 1.355-.095 1.102-.818 1.102-.818-.032 1.039.094 1.354c.126.346.819 1.102.819 1.102" opacity=".32"/><path fill="url(#J)" d="M90.172 19.095s.22.252.283.378c.032.095.032.441.032.441s.252-.22.378-.284c.094-.03.44-.03.44-.03s-.22-.253-.283-.379c-.031-.094-.031-.44-.031-.44s-.252.22-.378.283c-.095.063-.441.031-.441.031" opacity=".5"/><path fill="url(#K)" d="M83.4 11.978c-.095-.063-.158-.157-.095-.283.063-.095.158-.158.284-.095.094.063.157.158.094.284a.25.25 0 0 1-.283.094m2.74 3.055a.406.406 0 0 0-.19-.536.405.405 0 0 0-.535.19c-.094.22 0 .44.19.535.188.094.44.031.535-.19m-4.818-1.323a.84.84 0 0 0-.41-1.102.84.84 0 0 0-1.102.41.84.84 0 0 0 .41 1.101c.409.19.912 0 1.102-.409m2.11-6.865a.405.405 0 0 0-.19-.535.405.405 0 0 0-.535.188c-.094.22 0 .441.189.536.189.126.44.031.535-.19"/><path fill="url(#L)" d="M37.232 24.103s-.283.314-.44.377c-.127.063-.567.095-.567.095s.314.283.377.44c.064.127.095.568.095.568s.283-.315.44-.378c.127-.063.568-.095.568-.095s-.315-.283-.378-.44c-.063-.127-.095-.568-.095-.568" opacity=".5"/><path fill="url(#M)" d="M45.485 14.844c.063-.126.19-.189.347-.157.126.063.188.189.157.346-.063.126-.189.189-.346.158a.32.32 0 0 1-.158-.347m-3.558 3.78c.283.094.566-.032.66-.316.095-.283-.03-.567-.314-.661-.283-.095-.567.031-.661.315-.095.252.063.567.315.661m1.133-6.205a1.04 1.04 0 0 0 1.323-.63 1.04 1.04 0 0 0-.63-1.322 1.04 1.04 0 0 0-1.322.63c-.19.535.094 1.102.63 1.322m8.881 1.89c.283.094.567-.032.661-.315s-.031-.567-.315-.662c-.283-.094-.566.032-.66.316-.095.283.03.566.314.66"/><path fill="url(#N)" d="M125.189 28.102s.094.44.063.566c-.032.126-.252.504-.252.504s.441-.094.567-.063c.126.032.504.252.504.252s-.095-.44-.063-.567c.031-.126.252-.503.252-.503s-.441.094-.567.063c-.126-.032-.504-.252-.504-.252" opacity=".5"/><path fill="url(#O)" d="M122.228 16.04c-.094-.126-.063-.283.063-.346.126-.095.284-.063.347.063.094.126.063.283-.063.346a.257.257 0 0 1-.347-.063m1.071 5.07a.543.543 0 0 0 .126-.724.54.54 0 0 0-.724-.126.54.54 0 0 0-.126.724.517.517 0 0 0 .724.126m-4.44-4.471c.472-.347.567-.977.252-1.449a1.054 1.054 0 0 0-1.449-.252 1.054 1.054 0 0 0-.252 1.449c.315.504.976.598 1.449.252m6.581-6.204a.54.54 0 0 0 .126-.725.54.54 0 0 0-.724-.125.543.543 0 0 0-.126.724.517.517 0 0 0 .724.126"/><path fill="url(#P)" d="M62.426 17.048c.031-.126.126-.189.252-.157.126.031.189.126.157.252-.031.126-.126.189-.252.157-.094-.031-.157-.157-.157-.252m-2.394 3.338c.22.063.441-.094.504-.315.063-.22-.094-.44-.315-.504-.22-.062-.44.095-.504.315a.45.45 0 0 0 .315.504m.252-5.007a.825.825 0 0 0 .977-.63.825.825 0 0 0-.63-.976.825.825 0 0 0-.977.63c-.094.44.158.882.63.976m7.149.567c.22.063.44-.095.504-.315.063-.22-.095-.44-.315-.504-.22-.063-.441.095-.504.315a.45.45 0 0 0 .315.504"/><path fill="url(#Q)" d="M18.874 106.894s.063.629.157.787c.095.189.567.598.567.598s-.63.063-.787.158c-.189.094-.598.566-.598.566s-.063-.629-.158-.787c-.094-.189-.567-.598-.567-.598s.63-.063.788-.158c.189-.094.598-.566.598-.566" opacity=".32"/><path fill="url(#R)" d="M29.392 82.96s.063.63.157.787c.094.19.567.599.567.599s-.63.063-.788.157c-.188.094-.598.567-.598.567s-.063-.63-.157-.787c-.095-.19-.567-.599-.567-.599s.63-.063.787-.157c.19-.095.599-.567.599-.567" opacity=".32"/><path fill="url(#S)" d="M123.647 124.183s.063.629.158.787c.094.189.567.598.567.598s-.63.063-.788.158c-.189.094-.598.567-.598.567s-.063-.63-.157-.788c-.095-.189-.567-.598-.567-.598s.63-.063.787-.158c.189-.094.598-.566.598-.566"/><path fill="url(#T)" d="M129.725 113.098s.126 1.039.283 1.322c.158.315.945.977.945.977s-1.039.126-1.323.283c-.315.157-.976.945-.976.945s-.126-1.039-.283-1.323c-.158-.315-.945-.976-.945-.976s1.039-.126 1.322-.284c.315-.157.977-.944.977-.944" opacity=".32"/><path fill="url(#U)" d="M55.97 124.025s.127 1.04.284 1.323c.158.315.945.976.945.976s-1.04.126-1.323.284c-.315.157-.976.944-.976.944s-.126-1.039-.283-1.322c-.158-.315-.945-.976-.945-.976s1.04-.126 1.323-.284.976-.945.976-.945" opacity=".32"/><path fill="url(#V)" d="M17.834 87.148s.126 1.04.284 1.323c.157.315.944.976.944.976s-1.039.126-1.322.284c-.315.157-.977.945-.977.945s-.126-1.04-.283-1.323c-.158-.315-.945-.976-.945-.976s1.04-.126 1.323-.284.976-.945.976-.945" opacity=".32"/><path fill="url(#W)" d="M51.153 121.128a.63.63 0 1 0 0-1.26.63.63 0 0 0 0 1.26" opacity=".5"/><path fill="url(#X)" d="M26.62 68.285s.22-.252.315-.315.441-.094.441-.094-.252-.22-.315-.315-.094-.44-.094-.44-.22.251-.315.314-.441.094-.441.094.252.221.315.315c.063.095.094.441.094.441" opacity=".5"/><path fill="url(#Y)" d="M64.064 102.044s.22-.252.315-.315c.094-.063.44-.094.44-.094s-.251-.221-.314-.315c-.063-.095-.095-.441-.095-.441s-.22.252-.315.315c-.094.063-.44.094-.44.094s.251.221.314.315c.032.095.095.441.095.441" opacity=".5"/><path fill="url(#Z)" d="M122.167 118.011s.221-.252.315-.315c.095-.063.441-.094.441-.094s-.252-.221-.315-.315c-.063-.095-.094-.441-.094-.441s-.221.252-.315.315c-.095.063-.441.094-.441.094s.252.221.315.315c.031.094.094.441.094.441" opacity=".5"/><path fill="url(#aa)" d="M11.316 114.358s.22-.252.315-.315c.094-.063.44-.095.44-.095s-.252-.22-.314-.315c-.063-.094-.095-.441-.095-.441s-.22.252-.315.315c-.094.063-.44.095-.44.095s.251.22.314.315c.063.094.095.441.095.441" opacity=".5"/><path fill="url(#ab)" d="M26.275 89.857s.22-.252.315-.315c.094-.063.44-.095.44-.095s-.252-.22-.315-.315c-.062-.094-.094-.44-.094-.44s-.22.251-.315.314c-.094.063-.44.095-.44.095s.251.22.314.315c.032.094.095.44.095.44" opacity=".5"/><path fill="url(#ac)" d="M45.83 65.483a.214.214 0 0 1-.251.126.214.214 0 0 1-.126-.252.214.214 0 0 1 .252-.126.214.214 0 0 1 .126.252m2.646-3.118a.404.404 0 0 0-.504.283c-.063.22.063.441.284.504s.44-.063.504-.283a.405.405 0 0 0-.284-.504m-.63 4.944a.866.866 0 0 0-1.039.535.865.865 0 0 0 .535 1.04.865.865 0 0 0 1.04-.536.866.866 0 0 0-.536-1.039m-7.117-1.165a.404.404 0 0 0-.504.283c-.063.22.063.441.284.504s.44-.063.504-.283c.063-.22-.063-.41-.284-.504"/><path fill="url(#ad)" d="M78.55 118.168s-.188-.598-.314-.756c-.126-.157-.662-.472-.662-.472s.599-.189.756-.315.472-.661.472-.661.19.598.315.756c.126.157.662.472.662.472s-.599.189-.756.315-.472.661-.472.661" opacity=".32"/><path fill="url(#ae)" d="M83.149 137.41s-.315-1.008-.504-1.26c-.22-.252-1.102-.787-1.102-.787s1.008-.315 1.26-.504c.252-.22.787-1.102.787-1.102s.315 1.008.504 1.26c.22.251 1.102.787 1.102.787s-1.008.315-1.26.504c-.283.22-.787 1.102-.787 1.102" opacity=".32"/><path fill="url(#af)" d="M84.66 109.477s-.158.314-.253.377c-.094.063-.409.158-.409.158s.315.157.378.252c.063.094.157.409.157.409s.158-.315.252-.378c.095-.063.41-.157.41-.157s-.315-.158-.378-.252c-.063-.095-.158-.409-.158-.409" opacity=".5"/><path fill="url(#ag)" d="M74.363 136.275s-.158.315-.252.378c-.095.063-.41.158-.41.158s.315.157.378.252c.063.094.158.409.158.409s.157-.315.252-.378c.094-.063.409-.157.409-.157s-.315-.158-.378-.252c-.063-.095-.157-.41-.157-.41" opacity=".5"/><path fill="url(#ah)" d="M79.055 127.615c0-.126.126-.189.22-.189.126 0 .19.126.19.221 0 .126-.127.189-.221.189-.126 0-.22-.095-.19-.221m-2.079 3.559c.22.031.441-.126.441-.347.032-.22-.126-.441-.346-.441-.22-.031-.441.126-.441.347-.031.22.126.409.347.441m-.251-5.008c.44.063.85-.283.913-.724s-.284-.85-.725-.913c-.44-.063-.85.283-.913.724-.031.473.284.882.725.913m7.18-.125c.22.031.44-.126.44-.347.032-.22-.125-.441-.346-.441-.22-.031-.44.126-.44.347-.032.22.125.409.346.441"/><path fill="url(#ai)" d="M16.134 50.115s-.189-.599-.315-.756c-.125-.158-.66-.473-.66-.473s.598-.189.755-.315c.158-.125.472-.66.472-.66s.19.597.315.755c.126.157.662.472.662.472s-.599.19-.756.315c-.158.126-.473.662-.473.662" opacity=".32"/><path fill="url(#aj)" d="M16.386 76.033s-.188-.599-.314-.756c-.127-.158-.662-.473-.662-.473s.599-.189.756-.314c.157-.126.472-.662.472-.662s.19.599.315.756c.126.157.662.472.662.472s-.599.19-.756.315c-.158.126-.473.662-.473.662" opacity=".32"/><path fill="url(#ak)" d="M26.999 69.828s-.315-1.008-.504-1.26c-.22-.252-1.102-.787-1.102-.787s1.007-.315 1.26-.504c.251-.22.787-1.102.787-1.102s.314 1.008.503 1.26c.22.251 1.103.787 1.103.787s-1.008.315-1.26.504c-.252.22-.787 1.102-.787 1.102"/><path fill="url(#al)" d="M28.509 41.896s-.157.314-.252.377c-.094.063-.41.158-.41.158s.316.157.379.252c.063.094.157.41.157.41s.158-.316.252-.379.41-.157.41-.157-.316-.158-.379-.252c-.062-.095-.157-.41-.157-.41" opacity=".5"/><path fill="url(#am)" d="M18.212 68.694s-.157.315-.252.378c-.094.063-.41.158-.41.158s.316.157.379.252c.063.094.157.409.157.409s.158-.315.252-.378c.095-.063.41-.157.41-.157s-.315-.158-.378-.252c-.063-.095-.158-.41-.158-.41" opacity=".5"/><path fill="url(#an)" d="M16.637 59.562c0-.126.126-.189.22-.189.126 0 .19.126.19.22 0 .095-.127.19-.221.19-.126-.032-.22-.126-.19-.22m-2.078 3.527c.22.032.44-.125.44-.346.032-.22-.126-.44-.346-.44-.22-.032-.44.125-.44.346-.032.22.125.44.346.44m-.252-4.975c.44.063.85-.284.913-.725.063-.44-.284-.85-.725-.913-.44-.063-.85.284-.913.724a.864.864 0 0 0 .725.914m7.18-.126c.22.031.44-.126.44-.347.032-.22-.125-.44-.346-.44-.22-.032-.44.125-.44.346s.125.41.346.44"/><path fill="url(#ao)" d="M87.21 27.66s-.188-.598-.314-.755-.662-.473-.662-.473.599-.189.756-.315.473-.66.473-.66.189.597.315.755c.125.157.66.472.66.472s-.597.19-.755.315c-.158.126-.472.662-.472.662" opacity=".32"/><path fill="url(#ap)" d="M100.279 64.097s-.189-.598-.315-.756c-.126-.157-.661-.472-.661-.472s.598-.19.756-.315c.157-.126.472-.661.472-.661s.189.598.315.755.661.473.661.473-.598.189-.756.315c-.157.126-.472.661-.472.661" opacity=".32"/><path fill="url(#aq)" d="M110.924 57.893s-.314-1.008-.503-1.26c-.221-.251-1.103-.787-1.103-.787s1.008-.315 1.26-.504c.252-.22.787-1.102.787-1.102s.315 1.008.504 1.26c.221.252 1.102.787 1.102.787s-1.007.315-1.259.504c-.252.22-.788 1.102-.788 1.102"/><path fill="url(#ar)" d="M93.288 18.969s-.157.315-.252.378c-.094.063-.409.157-.409.157s.315.158.378.252c.063.095.157.41.157.41s.158-.316.252-.378c.095-.063.41-.158.41-.158s-.315-.157-.378-.252c-.032-.094-.158-.41-.158-.41" opacity=".5"/><path fill="url(#as)" d="M102.138 56.759s-.158.315-.252.378c-.095.063-.409.157-.409.157s.314.158.377.252c.063.095.158.41.158.41s.157-.315.252-.378c.094-.063.409-.158.409-.158s-.315-.157-.378-.252c-.063-.063-.157-.41-.157-.41" opacity=".5"/><path fill="url(#at)" d="M106.83 48.1c0-.127.126-.19.221-.19.126 0 .189.126.189.22 0 .095-.126.19-.221.19-.126 0-.22-.095-.189-.22m-2.078 3.558c.22.031.441-.126.441-.347.031-.22-.126-.44-.347-.44-.22-.032-.441.125-.441.346a.39.39 0 0 0 .347.44m-.252-4.976c.441.063.85-.283.913-.724s-.283-.85-.724-.913-.85.283-.913.724c-.032.44.283.85.724.913m7.212-.157c.22.031.44-.126.44-.347.032-.22-.126-.44-.346-.44-.22-.032-.441.125-.441.346-.063.22.095.44.347.44"/><path fill="url(#au)" d="M34.178 76.473c.032-.126.126-.189.252-.157.126.031.19.126.158.251-.032.126-.126.19-.252.158s-.19-.126-.158-.252m-2.393 3.338c.22.063.44-.094.504-.315.063-.22-.095-.44-.315-.504-.22-.063-.44.095-.504.315-.063.252.095.441.315.504m.22-5.007a.825.825 0 0 0 .977-.63.825.825 0 0 0-.63-.976.825.825 0 0 0-.976.63.825.825 0 0 0 .63.976m7.18.567c.221.063.441-.095.504-.315s-.094-.441-.315-.504c-.22-.063-.44.094-.503.315-.063.252.094.472.314.504"/><path fill="url(#av)" d="M17.236 137.032s-.189-.599-.315-.756-.661-.473-.661-.473.598-.189.756-.315c.157-.125.472-.661.472-.661s.189.598.315.756c.126.157.661.472.661.472s-.598.189-.756.315c-.157.126-.472.662-.472.662"/><path fill="url(#aw)" d="M27.88 130.828s-.315-1.008-.504-1.26c-.22-.252-1.103-.787-1.103-.787s1.008-.315 1.26-.504c.252-.22.787-1.102.787-1.102s.315 1.008.504 1.259c.22.252 1.102.788 1.102.788s-1.007.315-1.26.504c-.283.189-.787 1.102-.787 1.102"/><path fill="url(#ax)" d="M19.095 129.662s-.157.315-.252.378-.41.157-.41.157.316.158.378.252c.064.095.158.41.158.41s.157-.315.252-.378c.094-.063.41-.158.41-.158s-.316-.157-.379-.251c-.063-.063-.157-.41-.157-.41" opacity=".5"/><path fill="url(#ay)" d="M35.061 137.472c.032-.126.126-.189.252-.157.126.031.19.126.158.251-.032.126-.126.189-.252.158-.126-.032-.19-.157-.158-.252m-2.425 3.338c.22.063.441-.094.504-.315.063-.22-.094-.441-.315-.504-.22-.063-.44.095-.504.315a.45.45 0 0 0 .315.504m.252-5.007a.826.826 0 0 0 .977-.63.825.825 0 0 0-.63-.976.825.825 0 0 0-.977.63.825.825 0 0 0 .63.976m7.149.567c.22.063.44-.095.504-.315.063-.221-.095-.441-.315-.504s-.441.095-.504.315a.45.45 0 0 0 .315.504"/><path fill="url(#az)" d="M134.511 73.324s.063.63.157.788c.095.189.567.598.567.598s-.63.063-.787.157c-.189.095-.599.567-.599.567s-.063-.63-.157-.787c-.095-.19-.567-.599-.567-.599s.63-.062.787-.157c.189-.094.599-.567.599-.567" opacity=".32"/><path fill="url(#aA)" d="M140.619 62.238s.126 1.04.284 1.323c.157.315.944.976.944.976s-1.039.126-1.322.284c-.315.157-.977.944-.977.944s-.125-1.039-.283-1.322c-.157-.315-.945-.976-.945-.976s1.04-.127 1.323-.284.976-.945.976-.945"/><path fill="url(#aB)" d="M126.797 95.085s.126 1.04.283 1.323c.158.314.945.976.945.976s-1.039.126-1.323.283c-.314.158-.976.945-.976.945s-.126-1.04-.283-1.323c-.158-.314-.945-.976-.945-.976s1.039-.126 1.323-.283c.315-.126.976-.945.976-.945"/><path fill="url(#aC)" d="M130.7 80.661a.63.63 0 1 0 0-1.26.63.63 0 0 0 0 1.26" opacity=".5"/><path fill="url(#aD)" d="M122.103 56.854s.22-.252.315-.315c.094-.063.441-.095.441-.095s-.252-.22-.315-.315c-.063-.094-.095-.44-.095-.44s-.22.251-.315.314c-.094.063-.441.095-.441.095s.252.22.315.315c.063.094.095.44.095.44" opacity=".5"/><path fill="url(#aE)" d="M133.03 67.152s.221-.252.315-.315c.095-.063.441-.095.441-.095s-.252-.22-.315-.315c-.063-.094-.094-.44-.094-.44s-.221.251-.315.314c-.095.063-.441.095-.441.095s.252.22.315.315c.063.094.094.44.094.44" opacity=".5"/><path fill="url(#aF)" d="M138.352 53.516c.032-.126.126-.189.252-.157.126.031.189.125.158.251-.032.126-.126.19-.252.158s-.189-.158-.158-.252m-2.393 3.338c.22.063.441-.094.504-.315.063-.22-.095-.44-.315-.504-.221-.063-.441.095-.504.315s.094.441.315.504m.22-5.007a.825.825 0 0 0 .976-.63.824.824 0 0 0-.629-.976.826.826 0 0 0-.977.63.826.826 0 0 0 .63.976m7.18.567c.221.063.441-.095.504-.315s-.094-.441-.315-.504c-.22-.063-.441.094-.504.315-.063.252.095.44.315.504"/><path fill="url(#aG)" d="M89.035-3.674s0 10.82-11.25 12.194-19.98-5.047-29.607 2.524c-9.654 7.596.922 41.63-9.404 46.677C28.447 62.77 4.103 56.122 2.955 44.153 1.808 32.209-11.736 66.467-11.736 66.467s32.6 17.942 53.478 4.598 10.551-31.51 13.993-40.705c3.443-9.196 12.397-13.794 29.159-12.194S110.137-.45 110.137-.45zm-76.876 73.24c-19.23-6.847-3.267-9.946-3.267-9.946s9.927 4.673 18.009 4.498c8.057-.15 18.159-7.92 19.231-3.898S31.416 76.387 12.16 69.566m63.78-56.123c-4.664 3.573-15.514 2.199-19.93 6.996-.573.625-.997 1.35-1.396 2.1-1.572 3.023-2.295 6.396-3.467 9.595-.5 1.35-1.672 4.897-3.418 2.749-.598-.725-.997-1.7-1.272-2.824-.723-2.924-.548-6.772-.274-8.996.499-3.973 2.02-8.27 5.413-10.695 7.133-5.147 29.009-2.498 24.344 1.075m6.236 2.124c-2.694 0-4.864-.65-4.864-1.45s2.17-1.449 4.864-1.449 4.864.65 4.864 1.45-2.17 1.449-4.864 1.449" opacity=".25"/><path fill="url(#aH)" d="M117.786 98.321c6.01-7.52 17.408-12.275 23.619-14.417l-.025-3.81s-27.46 9.064-34.119 26.394c-6.66 17.33-8.88 21.961-21.6 26.194s-23.22-5.03-31.1-18.351c-7.882-13.296-38.36-18.55-49.259-8.266-10.899 10.283-2.818 20.367-2.818 20.367s20.202-14.118 33.92-9.686 13.118 20.567 33.121 23.779c.549.1 1.072.174 1.621.249-2.668-1.22-4.215-2.938-4.29-4.307-.174-3.262 3.99-1.27 3.99-1.27s14.142 3.984 22.498-2.54c8.33-6.524 13.592-17.753 16.136-13.396 2.544 4.333-9.602 17.006-21.748 21.364-.25.099-.499.174-.748.249 12.296-1.718 22.446-8.043 28.607-19.521 8.879-16.533 26.038-16.334 26.038-16.334l-.075-9.611c-12.645 2.64-31.724 12.873-23.768 2.913m-87.418 12.126c-10.874.548-29.38 7.594-18.506-5.428 0 0 22.846-7.071 34.443 5.428 11.598 12.499-5.038-.548-15.937 0m23.17 17.18c-.923.623-3.043-.871-4.739-3.361s-2.32-5.005-1.396-5.627c.922-.623 3.042.871 4.738 3.361s2.32 5.005 1.397 5.627m72.777-21.164c-7.257 4.88-13.044 5.428-9.078.722 3.991-4.706 9.428-4.706 9.428-4.706s6.883-.896-.35 3.984" opacity=".25"/><path fill="url(#aI)" d="M107.036 54.187c-14.776-.4 37.076-49.654 37.076-49.654l-3.325-1.3c-9 9.18-29.151 29.092-31.401 25.464-2.225-3.602 15.976-20.512 24.576-28.191l-1-.4S86.01 36.151 96.135 57.413c10.126 21.263 62.128-13.157 62.128-13.157l1-27.542c0-.025-37.451 37.898-52.227 37.472m8.15-25.49c5.325-2.901-6.95 14.709-10.35 12.133s10.35-12.133 10.35-12.133m-7.2 32.52c-.275.975-1.95 1.375-3.75.875s-3.05-1.676-2.8-2.651c.275-.976 1.95-1.376 3.75-.876s3.05 1.676 2.8 2.652m13.025-1.801c-18.25 4.052-16.15-3.402-2.75-5.98 13.401-2.576 24.876-17.46 24.876-17.46l3.401 9.206s-7.276 10.181-25.527 14.234" opacity=".25"/></g><path fill="#000" fill-rule="evenodd" d="M13.283 74.495c0 33.686 27.306 60.99 60.98 60.993 33.675.002 60.981-27.297 60.981-60.983s-27.306-60.99-60.98-60.992c-33.675-.003-60.98 27.296-60.98 60.982m60.98 72.005c-39.768-.003-72-32.245-72-72.006 0-39.76 32.233-71.997 72-71.994 39.769.003 72.001 32.245 72.001 72.006s-32.232 71.997-72 71.994" clip-rule="evenodd"/><defs><radialGradient id="b" cx="0" cy="0" r="1" gradientTransform="translate(79.08 74.383)scale(98.1628)" gradientUnits="userSpaceOnUse"><stop offset=".059" stop-color="#560000"/><stop offset=".963" stop-color="#0e0000"/></radialGradient><radialGradient id="c" cx="0" cy="0" r="1" gradientTransform="translate(79.079 74.383)scale(98.1628)" gradientUnits="userSpaceOnUse"><stop offset=".059" stop-color="#200000"/><stop offset=".963"/></radialGradient><radialGradient id="d" cx="0" cy="0" r="1" gradientTransform="translate(140.46 135.832)scale(1.10719)" gradientUnits="userSpaceOnUse"><stop offset=".059" stop-color="#e47e99"/><stop offset=".526" stop-color="#e43d99"/><stop offset=".993" stop-color="#b30058"/></radialGradient><radialGradient id="e" cx="0" cy="0" r="1" gradientTransform="translate(106.986 113.841)scale(1.10719)" gradientUnits="userSpaceOnUse"><stop offset=".059" stop-color="#e47e99"/><stop offset=".526" stop-color="#e43d99"/><stop offset=".993" stop-color="#b30058"/></radialGradient><radialGradient id="f" cx="0" cy="0" r="1" gradientTransform="translate(104.397 125.493)scale(1.84567)" gradientUnits="userSpaceOnUse"><stop offset=".059" stop-color="#e47e99"/><stop offset=".526" stop-color="#e43d99"/><stop offset=".993" stop-color="#b30058"/></radialGradient><radialGradient id="g" cx="0" cy="0" r="1" gradientTransform="translate(103.044 103.585)scale(1.84566)" gradientUnits="userSpaceOnUse"><stop offset=".059" stop-color="#e47e99"/><stop offset=".526" stop-color="#e43d99"/><stop offset=".993" stop-color="#b30058"/></radialGradient><radialGradient id="h" cx="0" cy="0" r="1" gradientTransform="translate(125.624 96.538)scale(-48.296)" gradientUnits="userSpaceOnUse"><stop offset=".059" stop-color="#0a1656"/><stop offset=".889" stop-color="#4478ad"/></radialGradient><radialGradient id="i" cx="0" cy="0" r="1" gradientTransform="translate(125.624 96.539)scale(-48.2953)" gradientUnits="userSpaceOnUse"><stop offset=".059" stop-color="#0a1656"/><stop offset=".889" stop-color="#4478ad"/></radialGradient><radialGradient id="j" cx="0" cy="0" r="1" gradientTransform="translate(125.623 96.538)scale(-48.296)" gradientUnits="userSpaceOnUse"><stop offset=".059" stop-color="#0a1656"/><stop offset=".889" stop-color="#4478ad"/></radialGradient><radialGradient id="k" cx="0" cy="0" r="1" gradientTransform="translate(125.622 96.538)scale(-48.296)" gradientUnits="userSpaceOnUse"><stop offset=".059" stop-color="#0a1656"/><stop offset=".889" stop-color="#4478ad"/></radialGradient><radialGradient id="l" cx="0" cy="0" r="1" gradientTransform="translate(108.413 134.739)scale(-3.88702)" gradientUnits="userSpaceOnUse"><stop offset=".059" stop-color="#0a1656"/><stop offset=".889" stop-color="#4478ad"/></radialGradient><radialGradient id="m" cx="0" cy="0" r="1" gradientTransform="translate(142.125 35.956)scale(1.10719)" gradientUnits="userSpaceOnUse"><stop offset=".059" stop-color="#e47e99"/><stop offset=".526" stop-color="#e43d99"/><stop offset=".993" stop-color="#b30058"/></radialGradient><radialGradient id="n" cx="0" cy="0" r="1" gradientTransform="translate(108.651 13.966)scale(1.10719)" gradientUnits="userSpaceOnUse"><stop offset=".059" stop-color="#e47e99"/><stop offset=".526" stop-color="#e43d99"/><stop offset=".993" stop-color="#b30058"/></radialGradient><radialGradient id="o" cx="0" cy="0" r="1" gradientTransform="translate(106.062 25.618)scale(1.84566)" gradientUnits="userSpaceOnUse"><stop offset=".059" stop-color="#e47e99"/><stop offset=".526" stop-color="#e43d99"/><stop offset=".993" stop-color="#b30058"/></radialGradient><radialGradient id="p" cx="0" cy="0" r="1" gradientTransform="translate(127.286 -3.337)scale(-48.2947)" gradientUnits="userSpaceOnUse"><stop offset=".059" stop-color="#0a1656"/><stop offset=".889" stop-color="#4478ad"/></radialGradient><radialGradient id="q" cx="0" cy="0" r="1" gradientTransform="translate(127.287 -3.337)scale(-48.2951)" gradientUnits="userSpaceOnUse"><stop offset=".059" stop-color="#0a1656"/><stop offset=".889" stop-color="#4478ad"/></radialGradient><radialGradient id="r" cx="0" cy="0" r="1" gradientTransform="translate(127.287 -3.337)scale(-48.2953)" gradientUnits="userSpaceOnUse"><stop offset=".059" stop-color="#0a1656"/><stop offset=".889" stop-color="#4478ad"/></radialGradient><radialGradient id="s" cx="0" cy="0" r="1" gradientTransform="translate(127.286 -3.337)scale(-48.2952)" gradientUnits="userSpaceOnUse"><stop offset=".059" stop-color="#0a1656"/><stop offset=".889" stop-color="#4478ad"/></radialGradient><radialGradient id="t" cx="0" cy="0" r="1" gradientTransform="translate(110.078 34.863)scale(-3.88702)" gradientUnits="userSpaceOnUse"><stop offset=".059" stop-color="#0a1656"/><stop offset=".889" stop-color="#4478ad"/></radialGradient><radialGradient id="u" cx="0" cy="0" r="1" gradientTransform="translate(22.158 31.03)scale(1.05878)" gradientUnits="userSpaceOnUse"><stop offset=".059" stop-color="#e47e99"/><stop offset=".526" stop-color="#e43d99"/><stop offset=".993" stop-color="#b30058"/></radialGradient><radialGradient id="v" cx="0" cy="0" r="1" gradientTransform="translate(32.693 7.096)scale(1.05878)" gradientUnits="userSpaceOnUse"><stop offset=".059" stop-color="#e47e99"/><stop offset=".526" stop-color="#e43d99"/><stop offset=".993" stop-color="#b30058"/></radialGradient><radialGradient id="w" cx="0" cy="0" r="1" gradientTransform="translate(58.275 37.912)scale(1.05882)" gradientUnits="userSpaceOnUse"><stop offset=".059" stop-color="#e47e99"/><stop offset=".526" stop-color="#e43d99"/><stop offset=".993" stop-color="#b30058"/></radialGradient><radialGradient id="x" cx="0" cy="0" r="1" gradientTransform="translate(64.156 27.527)scale(1.76502)" gradientUnits="userSpaceOnUse"><stop offset=".059" stop-color="#e47e99"/><stop offset=".526" stop-color="#e43d99"/><stop offset=".993" stop-color="#b30058"/></radialGradient><radialGradient id="y" cx="0" cy="0" r="1" gradientTransform="translate(59.045 48.873)scale(1.76501)" gradientUnits="userSpaceOnUse"><stop offset=".059" stop-color="#e47e99"/><stop offset=".526" stop-color="#e43d99"/><stop offset=".993" stop-color="#b30058"/></radialGradient><radialGradient id="z" cx="0" cy="0" r="1" gradientTransform="translate(20.902 11.985)scale(1.76502)" gradientUnits="userSpaceOnUse"><stop offset=".059" stop-color="#e47e99"/><stop offset=".526" stop-color="#e43d99"/><stop offset=".993" stop-color="#b30058"/></radialGradient><radialGradient id="A" cx="0" cy="0" r="1" gradientTransform="rotate(17.002 -146.256 142.905)scale(48.2955)" gradientUnits="userSpaceOnUse"><stop offset=".059" stop-color="#0a1656"/><stop offset=".889" stop-color="#4478ad"/></radialGradient><radialGradient id="B" cx="0" cy="0" r="1" gradientTransform="rotate(17.002 -146.254 142.903)scale(48.2947 48.2949)" gradientUnits="userSpaceOnUse"><stop offset=".059" stop-color="#0a1656"/><stop offset=".889" stop-color="#4478ad"/></radialGradient><radialGradient id="C" cx="0" cy="0" r="1" gradientTransform="rotate(17.002 -146.257 142.901)scale(48.2957 48.2956)" gradientUnits="userSpaceOnUse"><stop offset=".059" stop-color="#0a1656"/><stop offset=".889" stop-color="#4478ad"/></radialGradient><radialGradient id="D" cx="0" cy="0" r="1" gradientTransform="rotate(17.002 -146.255 142.903)scale(48.296)" gradientUnits="userSpaceOnUse"><stop offset=".059" stop-color="#0a1656"/><stop offset=".889" stop-color="#4478ad"/></radialGradient><radialGradient id="E" cx="0" cy="0" r="1" gradientTransform="rotate(17.002 -146.254 142.902)scale(48.2949 48.2948)" gradientUnits="userSpaceOnUse"><stop offset=".059" stop-color="#0a1656"/><stop offset=".889" stop-color="#4478ad"/></radialGradient><radialGradient id="F" cx="0" cy="0" r="1" gradientTransform="rotate(17.002 -146.256 142.904)scale(48.2956 48.2954)" gradientUnits="userSpaceOnUse"><stop offset=".059" stop-color="#0a1656"/><stop offset=".889" stop-color="#4478ad"/></radialGradient><radialGradient id="G" cx="0" cy="0" r="1" gradientTransform="translate(22.39 20.744)scale(-3.82124)" gradientUnits="userSpaceOnUse"><stop offset=".059" stop-color="#0a1656"/><stop offset=".889" stop-color="#4478ad"/></radialGradient><radialGradient id="H" cx="0" cy="0" r="1" gradientTransform="translate(73.268 9.035)scale(1.00616)" gradientUnits="userSpaceOnUse"><stop offset=".059" stop-color="#e47e99"/><stop offset=".526" stop-color="#e43d99"/><stop offset=".993" stop-color="#b30058"/></radialGradient><radialGradient id="I" cx="0" cy="0" r="1" gradientTransform="translate(92.31 10.332)scale(1.67725)" gradientUnits="userSpaceOnUse"><stop offset=".059" stop-color="#e47e99"/><stop offset=".526" stop-color="#e43d99"/><stop offset=".993" stop-color="#b30058"/></radialGradient><radialGradient id="J" cx="0" cy="0" r="1" gradientTransform="rotate(114.671 20.51 27.084)scale(48.2955 48.2957)" gradientUnits="userSpaceOnUse"><stop offset=".059" stop-color="#0a1656"/><stop offset=".889" stop-color="#4478ad"/></radialGradient><radialGradient id="K" cx="0" cy="0" r="1" gradientTransform="rotate(-82.334 47.799 -42.388)scale(3.82125)" gradientUnits="userSpaceOnUse"><stop offset=".059" stop-color="#0a1656"/><stop offset=".889" stop-color="#4478ad"/></radialGradient><radialGradient id="L" cx="0" cy="0" r="1" gradientTransform="rotate(199.823 14.377 -13.689)scale(60.9284)" gradientUnits="userSpaceOnUse"><stop offset=".059" stop-color="#0a1656"/><stop offset=".889" stop-color="#4478ad"/></radialGradient><radialGradient id="M" cx="0" cy="0" r="1" gradientTransform="rotate(2.82 -275.7 965.61)scale(4.82087)" gradientUnits="userSpaceOnUse"><stop offset=".059" stop-color="#0a1656"/><stop offset=".889" stop-color="#4478ad"/></radialGradient><radialGradient id="N" cx="0" cy="0" r="1" gradientTransform="rotate(144.417 41.446 16.587)scale(60.9287)" gradientUnits="userSpaceOnUse"><stop offset=".059" stop-color="#0a1656"/><stop offset=".889" stop-color="#4478ad"/></radialGradient><radialGradient id="O" cx="0" cy="0" r="1" gradientTransform="rotate(-52.582 76.323 -117.28)scale(4.82081)" gradientUnits="userSpaceOnUse"><stop offset=".059" stop-color="#0a1656"/><stop offset=".889" stop-color="#4478ad"/></radialGradient><radialGradient id="P" cx="0" cy="0" r="1" gradientTransform="translate(63.778 17.07)scale(-3.75954)" gradientUnits="userSpaceOnUse"><stop offset=".059" stop-color="#0a1656"/><stop offset=".889" stop-color="#4478ad"/></radialGradient><radialGradient id="Q" cx="0" cy="0" r="1" gradientTransform="translate(18.538 107.959)scale(1.05881)" gradientUnits="userSpaceOnUse"><stop offset=".059" stop-color="#e47e99"/><stop offset=".526" stop-color="#e43d99"/><stop offset=".993" stop-color="#b30058"/></radialGradient><radialGradient id="R" cx="0" cy="0" r="1" gradientTransform="translate(29.073 84.024)scale(1.05881)" gradientUnits="userSpaceOnUse"><stop offset=".059" stop-color="#e47e99"/><stop offset=".526" stop-color="#e43d99"/><stop offset=".993" stop-color="#b30058"/></radialGradient><radialGradient id="S" cx="0" cy="0" r="1" gradientTransform="translate(123.31 125.25)scale(1.05882)" gradientUnits="userSpaceOnUse"><stop offset=".059" stop-color="#e47e99"/><stop offset=".526" stop-color="#e43d99"/><stop offset=".993" stop-color="#b30058"/></radialGradient><radialGradient id="T" cx="0" cy="0" r="1" gradientTransform="translate(129.192 114.865)scale(1.76501)" gradientUnits="userSpaceOnUse"><stop offset=".059" stop-color="#e47e99"/><stop offset=".526" stop-color="#e43d99"/><stop offset=".993" stop-color="#b30058"/></radialGradient><radialGradient id="U" cx="0" cy="0" r="1" gradientTransform="translate(55.425 125.802)scale(1.76501)" gradientUnits="userSpaceOnUse"><stop offset=".059" stop-color="#e47e99"/><stop offset=".526" stop-color="#e43d99"/><stop offset=".993" stop-color="#b30058"/></radialGradient><radialGradient id="V" cx="0" cy="0" r="1" gradientTransform="translate(17.282 88.913)scale(1.76502)" gradientUnits="userSpaceOnUse"><stop offset=".059" stop-color="#e47e99"/><stop offset=".526" stop-color="#e43d99"/><stop offset=".993" stop-color="#b30058"/></radialGradient><radialGradient id="W" cx="0" cy="0" r="1" gradientTransform="rotate(17.002 -405.409 169.258)scale(48.2961)" gradientUnits="userSpaceOnUse"><stop offset=".059" stop-color="#0a1656"/><stop offset=".889" stop-color="#4478ad"/></radialGradient><radialGradient id="X" cx="0" cy="0" r="1" gradientTransform="rotate(17.002 -359.212 78.082)scale(48.2957 48.2959)" gradientUnits="userSpaceOnUse"><stop offset=".059" stop-color="#0a1656"/><stop offset=".889" stop-color="#4478ad"/></radialGradient><radialGradient id="Y" cx="0" cy="0" r="1" gradientTransform="rotate(17.002 -405.41 169.254)scale(48.2954)" gradientUnits="userSpaceOnUse"><stop offset=".059" stop-color="#0a1656"/><stop offset=".889" stop-color="#4478ad"/></radialGradient><radialGradient id="Z" cx="0" cy="0" r="1" gradientTransform="rotate(17.002 -405.91 404.137)scale(48.2959 48.2955)" gradientUnits="userSpaceOnUse"><stop offset=".059" stop-color="#0a1656"/><stop offset=".889" stop-color="#4478ad"/></radialGradient><radialGradient id="aa" cx="0" cy="0" r="1" gradientTransform="rotate(17.002 -405.414 169.26)scale(48.2963 48.296)" gradientUnits="userSpaceOnUse"><stop offset=".059" stop-color="#0a1656"/><stop offset=".889" stop-color="#4478ad"/></radialGradient><radialGradient id="ab" cx="0" cy="0" r="1" gradientTransform="rotate(17.002 -405.412 169.259)scale(48.2957)" gradientUnits="userSpaceOnUse"><stop offset=".059" stop-color="#0a1656"/><stop offset=".889" stop-color="#4478ad"/></radialGradient><radialGradient id="ac" cx="0" cy="0" r="1" gradientTransform="translate(44.494 65.64)scale(-3.82124)" gradientUnits="userSpaceOnUse"><stop offset=".059" stop-color="#0a1656"/><stop offset=".889" stop-color="#4478ad"/></radialGradient><radialGradient id="ad" cx="0" cy="0" r="1" gradientTransform="translate(78.691 117.071)scale(1.09982)" gradientUnits="userSpaceOnUse"><stop offset=".059" stop-color="#e47e99"/><stop offset=".526" stop-color="#e43d99"/><stop offset=".993" stop-color="#b30058"/></radialGradient><radialGradient id="ae" cx="0" cy="0" r="1" gradientTransform="translate(83.36 135.578)scale(1.83335)" gradientUnits="userSpaceOnUse"><stop offset=".059" stop-color="#e47e99"/><stop offset=".526" stop-color="#e43d99"/><stop offset=".993" stop-color="#b30058"/></radialGradient><radialGradient id="af" cx="0" cy="0" r="1" gradientTransform="rotate(186.615 34.156 49.082)scale(48.2953 48.2957)" gradientUnits="userSpaceOnUse"><stop offset=".059" stop-color="#0a1656"/><stop offset=".889" stop-color="#4478ad"/></radialGradient><radialGradient id="ag" cx="0" cy="0" r="1" gradientTransform="rotate(186.615 34.157 49.082)scale(48.2952)" gradientUnits="userSpaceOnUse"><stop offset=".059" stop-color="#0a1656"/><stop offset=".889" stop-color="#4478ad"/></radialGradient><radialGradient id="ah" cx="0" cy="0" r="1" gradientTransform="translate(80.189 127.855)scale(-3.77724)" gradientUnits="userSpaceOnUse"><stop offset=".059" stop-color="#0a1656"/><stop offset=".889" stop-color="#4478ad"/></radialGradient><radialGradient id="ai" cx="0" cy="0" r="1" gradientTransform="translate(16.277 49.004)scale(1.09982)" gradientUnits="userSpaceOnUse"><stop offset=".059" stop-color="#e47e99"/><stop offset=".526" stop-color="#e43d99"/><stop offset=".993" stop-color="#b30058"/></radialGradient><radialGradient id="aj" cx="0" cy="0" r="1" gradientTransform="translate(16.502 74.936)scale(1.09982)" gradientUnits="userSpaceOnUse"><stop offset=".059" stop-color="#e47e99"/><stop offset=".526" stop-color="#e43d99"/><stop offset=".993" stop-color="#b30058"/></radialGradient><radialGradient id="ak" cx="0" cy="0" r="1" gradientTransform="translate(27.219 68)scale(1.83339)" gradientUnits="userSpaceOnUse"><stop offset=".059" stop-color="#e47e99"/><stop offset=".526" stop-color="#e43d99"/><stop offset=".993" stop-color="#b30058"/></radialGradient><radialGradient id="al" cx="0" cy="0" r="1" gradientTransform="rotate(186.615 4.133 16.916)scale(48.2954)" gradientUnits="userSpaceOnUse"><stop offset=".059" stop-color="#0a1656"/><stop offset=".889" stop-color="#4478ad"/></radialGradient><radialGradient id="am" cx="0" cy="0" r="1" gradientTransform="rotate(186.615 4.133 16.915)scale(48.2952 48.2954)" gradientUnits="userSpaceOnUse"><stop offset=".059" stop-color="#0a1656"/><stop offset=".889" stop-color="#4478ad"/></radialGradient><radialGradient id="an" cx="0" cy="0" r="1" gradientTransform="translate(17.773 59.79)scale(-3.77724)" gradientUnits="userSpaceOnUse"><stop offset=".059" stop-color="#0a1656"/><stop offset=".889" stop-color="#4478ad"/></radialGradient><radialGradient id="ao" cx="0" cy="0" r="1" gradientTransform="translate(87.348 26.559)scale(1.09982)" gradientUnits="userSpaceOnUse"><stop offset=".059" stop-color="#e47e99"/><stop offset=".526" stop-color="#e43d99"/><stop offset=".993" stop-color="#b30058"/></radialGradient><radialGradient id="ap" cx="0" cy="0" r="1" gradientTransform="translate(100.421 63.007)scale(1.09982)" gradientUnits="userSpaceOnUse"><stop offset=".059" stop-color="#e47e99"/><stop offset=".526" stop-color="#e43d99"/><stop offset=".993" stop-color="#b30058"/></radialGradient><radialGradient id="aq" cx="0" cy="0" r="1" gradientTransform="translate(111.139 56.073)scale(-1.83339)" gradientUnits="userSpaceOnUse"><stop offset=".059" stop-color="#66b0d8"/><stop offset="1" stop-color="#3f1f7d"/></radialGradient><radialGradient id="ar" cx="0" cy="0" r="1" gradientTransform="rotate(186.615 35.87 3.576)scale(48.2957 48.2955)" gradientUnits="userSpaceOnUse"><stop offset=".059" stop-color="#0a1656"/><stop offset=".889" stop-color="#4478ad"/></radialGradient><radialGradient id="as" cx="0" cy="0" r="1" gradientTransform="rotate(186.615 45.748 8.526)scale(48.296 48.2962)" gradientUnits="userSpaceOnUse"><stop offset=".059" stop-color="#0a1656"/><stop offset=".889" stop-color="#4478ad"/></radialGradient><radialGradient id="at" cx="0" cy="0" r="1" gradientTransform="translate(107.968 48.35)scale(-3.77724)" gradientUnits="userSpaceOnUse"><stop offset=".059" stop-color="#0a1656"/><stop offset=".889" stop-color="#4478ad"/></radialGradient><radialGradient id="au" cx="0" cy="0" r="1" gradientTransform="translate(35.519 76.506)scale(-3.75954)" gradientUnits="userSpaceOnUse"><stop offset=".059" stop-color="#0a1656"/><stop offset=".889" stop-color="#4478ad"/></radialGradient><radialGradient id="av" cx="0" cy="0" r="1" gradientTransform="translate(17.372 135.921)scale(1.09982)" gradientUnits="userSpaceOnUse"><stop offset=".059" stop-color="#e47e99"/><stop offset=".526" stop-color="#e43d99"/><stop offset=".993" stop-color="#b30058"/></radialGradient><radialGradient id="aw" cx="0" cy="0" r="1" gradientTransform="translate(28.088 128.987)scale(-1.83339)" gradientUnits="userSpaceOnUse"><stop offset=".059" stop-color="#66b0d8"/><stop offset="1" stop-color="#3f1f7d"/></radialGradient><radialGradient id="ax" cx="0" cy="0" r="1" gradientTransform="rotate(186.615 6.332 47.383)scale(48.295 48.2952)" gradientUnits="userSpaceOnUse"><stop offset=".059" stop-color="#0a1656"/><stop offset=".889" stop-color="#4478ad"/></radialGradient><radialGradient id="ay" cx="0" cy="0" r="1" gradientTransform="translate(36.39 137.491)scale(-3.75951)" gradientUnits="userSpaceOnUse"><stop offset=".059" stop-color="#0a1656"/><stop offset=".889" stop-color="#4478ad"/></radialGradient><radialGradient id="az" cx="0" cy="0" r="1" gradientTransform="translate(134.189 74.385)scale(1.05882)" gradientUnits="userSpaceOnUse"><stop offset=".059" stop-color="#e47e99"/><stop offset=".526" stop-color="#e43d99"/><stop offset=".993" stop-color="#b30058"/></radialGradient><radialGradient id="aA" cx="0" cy="0" r="1" gradientTransform="translate(140.071 63.999)scale(-1.76502)" gradientUnits="userSpaceOnUse"><stop offset=".059" stop-color="#66b0d8"/><stop offset="1" stop-color="#3f1f7d"/></radialGradient><radialGradient id="aB" cx="0" cy="0" r="1" gradientTransform="translate(126.266 96.863)scale(1.76501)" gradientUnits="userSpaceOnUse"><stop offset=".059" stop-color="#e47e99"/><stop offset=".526" stop-color="#e43d99"/><stop offset=".993" stop-color="#b30058"/></radialGradient><radialGradient id="aC" cx="0" cy="0" r="1" gradientTransform="rotate(17.002 -230.305 415.095)scale(48.2959)" gradientUnits="userSpaceOnUse"><stop offset=".059" stop-color="#0a1656"/><stop offset=".889" stop-color="#4478ad"/></radialGradient><radialGradient id="aD" cx="0" cy="0" r="1" gradientTransform="rotate(17.002 -273.182 391.758)scale(48.2955 48.2957)" gradientUnits="userSpaceOnUse"><stop offset=".059" stop-color="#0a1656"/><stop offset=".889" stop-color="#4478ad"/></radialGradient><radialGradient id="aE" cx="0" cy="0" r="1" gradientTransform="rotate(17.002 -230.302 415.09)scale(48.2946 48.2949)" gradientUnits="userSpaceOnUse"><stop offset=".059" stop-color="#0a1656"/><stop offset=".889" stop-color="#4478ad"/></radialGradient><radialGradient id="aF" cx="0" cy="0" r="1" gradientTransform="translate(139.694 53.543)scale(-3.75954)" gradientUnits="userSpaceOnUse"><stop offset=".059" stop-color="#0a1656"/><stop offset=".889" stop-color="#4478ad"/></radialGradient><radialGradient id="aG" cx="0" cy="0" r="1" gradientTransform="matrix(51.4571 0 0 51.5491 49.21 36.162)" gradientUnits="userSpaceOnUse"><stop offset=".081" stop-color="#f128c5"/><stop offset="1" stop-color="#c11bb9"/></radialGradient><radialGradient id="aH" cx="0" cy="0" r="1" gradientTransform="matrix(54.6277 0 0 54.5364 70.588 110.515)" gradientUnits="userSpaceOnUse"><stop offset=".081" stop-color="#f128c5"/><stop offset="1" stop-color="#c11bb9"/></radialGradient><radialGradient id="aI" cx="0" cy="0" r="1" gradientTransform="matrix(32.195 0 0 32.2127 126.986 32.216)" gradientUnits="userSpaceOnUse"><stop offset=".081" stop-color="#f128c5"/><stop offset="1" stop-color="#c11bb9"/></radialGradient></defs></svg>