<svg width="134" height="134" xmlns="http://www.w3.org/2000/svg" fill="none" viewBox="0 0 134 134"><mask id="a" width="134" height="134" x="0" y="0" mask-type="alpha" maskUnits="userSpaceOnUse"><path fill="#ed937f" d="M67.24 133.971c-36.727 0-66.5-29.793-66.5-66.5S30.513.97 67.24.97s66.5 29.792 66.5 66.5-29.773 66.5-66.5 66.5"/></mask><g mask="url(#a)"><path fill="url(#b)" d="M-11.09-15.58v157.458h157.46V-15.581z"/><path fill="url(#c)" d="M130.183 1.77s-.567.253-.724.379c-.158.157-.378.724-.378.724s-.252-.567-.378-.724c-.158-.158-.724-.378-.724-.378s.566-.252.724-.378c.157-.158.378-.724.378-.724s.252.566.378.724c.157.126.724.378.724.378" opacity=".32"/><path fill="url(#d)" d="M108.201 35.247s-.567.252-.725.378c-.157.158-.378.725-.378.725s-.252-.567-.378-.725c-.157-.157-.724-.378-.724-.378s.567-.252.724-.377c.158-.127.378-.725.378-.725s.252.567.378.724c.158.127.725.378.725.378" opacity=".32"/><path fill="url(#e)" d="M120.577 37.83s-.944.409-1.196.66c-.252.253-.662 1.197-.662 1.197s-.409-.944-.661-1.196-1.197-.661-1.197-.661.945-.41 1.197-.662.661-1.197.661-1.197.41.945.662 1.197 1.196.662 1.196.662" opacity=".32"/><path fill="url(#f)" d="M98.69 39.183s-.944.41-1.196.661-.661 1.197-.661 1.197-.41-.945-.662-1.197-1.196-.661-1.196-.661.944-.41 1.196-.661.662-1.197.662-1.197.409.945.66 1.197c.221.252 1.198.661 1.198.661" opacity=".32"/><path fill="url(#g)" d="M101.305 33.546a.63.63 0 1 0-1.26 0 .63.63 0 0 0 1.26 0" opacity=".5"/><path fill="url(#h)" d="M122.057 40.506s.315.126.409.22c.095.095.22.41.22.41s.126-.315.221-.41c.094-.094.409-.22.409-.22s-.315-.126-.409-.22c-.095-.095-.221-.41-.221-.41s-.125.315-.22.41c-.094.062-.409.22-.409.22" opacity=".5"/><path fill="url(#i)" d="M113.68 32.035s.315.126.409.22c.095.095.221.41.221.41s.125-.315.22-.41c.094-.094.409-.22.409-.22s-.315-.126-.409-.22c-.095-.095-.22-.41-.22-.41s-.126.315-.221.41c-.094.063-.409.22-.409.22" opacity=".5"/><path fill="url(#j)" d="M122.687.795s.315.126.41.22c.094.095.22.41.22.41s.126-.315.221-.41c.094-.094.409-.22.409-.22s-.315-.126-.409-.22c-.095-.095-.221-.41-.221-.41s-.126.315-.22.41c-.095.063-.41.22-.41.22" opacity=".5"/><path fill="url(#k)" d="M128.26 33.136c.126 0 .221.063.221.19 0 .125-.063.22-.189.22s-.221-.063-.221-.19c0-.125.095-.22.189-.22m-3.873-1.322c.031.22.22.41.441.378.22-.032.409-.22.378-.441-.032-.22-.221-.41-.441-.378a.38.38 0 0 0-.378.44m4.818-1.26c.032.44.441.787.882.756a.837.837 0 0 0 .756-.882.837.837 0 0 0-.882-.756.837.837 0 0 0-.756.882m1.575 7.023c.031.22.22.41.441.378.22-.032.409-.22.377-.441-.031-.22-.22-.41-.44-.378-.221.031-.41.22-.378.44"/><path fill="url(#l)" d="M30.322.102s-.567.252-.725.378c-.157.157-.378.724-.378.724s-.252-.567-.378-.724c-.157-.158-.724-.378-.724-.378s.567-.252.724-.378C29-.433 29.22-1 29.22-1s.252.567.378.724c.126.126.725.378.725.378" opacity=".32"/><path fill="url(#m)" d="M8.31 33.579s-.567.251-.724.377c-.158.158-.378.725-.378.725s-.252-.567-.378-.725c-.158-.157-.725-.378-.725-.378s.567-.252.725-.378c.157-.157.378-.724.378-.724s.252.567.378.724c.157.127.724.378.724.378" opacity=".32"/><path fill="url(#n)" d="M20.718 36.16s-.945.41-1.197.662-.661 1.197-.661 1.197-.41-.945-.661-1.197-1.197-.662-1.197-.662.945-.409 1.197-.66c.252-.253.661-1.197.661-1.197s.41.944.661 1.196c.22.252 1.197.661 1.197.661" opacity=".32"/><path fill="url(#o)" d="M1.412 31.878a.63.63 0 1 0-1.26 0 .63.63 0 0 0 1.26 0" opacity=".5"/><path fill="url(#p)" d="M34.006 21.832s.315.126.41.22c.094.095.22.41.22.41s.126-.315.22-.41c.095-.094.41-.22.41-.22s-.315-.126-.41-.22c-.094-.095-.22-.41-.22-.41s-.126.315-.22.41c-.095.094-.41.22-.41.22" opacity=".5"/><path fill="url(#q)" d="M22.197 38.837s.315.126.41.22c.094.095.22.41.22.41s.126-.315.22-.41c.095-.094.41-.22.41-.22s-.315-.126-.41-.22c-.094-.095-.22-.41-.22-.41s-.126.315-.22.41c-.095.063-.41.22-.41.22" opacity=".5"/><path fill="url(#r)" d="M13.79 30.366s.314.126.409.22c.094.095.22.41.22.41s.126-.315.22-.41c.095-.094.41-.22.41-.22s-.315-.126-.41-.22c-.094-.095-.22-.41-.22-.41s-.126.315-.22.41c-.095.094-.41.22-.41.22" opacity=".5"/><path fill="url(#s)" d="M28.4 31.467c.127 0 .221.063.221.19 0 .125-.063.22-.189.22s-.22-.063-.22-.19c-.032-.125.063-.22.189-.22m-3.904-1.322c.031.22.22.41.44.378.221-.032.41-.22.378-.441-.031-.22-.22-.41-.44-.378-.22 0-.41.22-.378.44m4.85-1.228c.03.44.44.787.881.755a.836.836 0 0 0 .756-.881.836.836 0 0 0-.882-.756c-.472.031-.787.41-.756.882m1.543 6.99c.03.221.22.41.44.379.22-.032.41-.22.378-.441-.031-.22-.22-.41-.44-.378a.44.44 0 0 0-.378.44"/><path fill="url(#t)" d="M23.205 119.739s.63-.063.787-.157c.19-.095.599-.567.599-.567s.063.63.157.787c.095.158.567.599.567.599s-.63.063-.787.157c-.19.095-.599.567-.599.567s-.063-.63-.157-.787c-.095-.189-.567-.599-.567-.599" opacity=".32"/><path fill="url(#u)" d="M-.729 109.222s.63-.063.788-.158c.189-.094.598-.567.598-.567s.063.63.158.788c.094.189.566.598.566.598s-.63.063-.787.158c-.189.094-.598.566-.598.566s-.063-.629-.158-.787c-.094-.189-.567-.598-.567-.598" opacity=".32"/><path fill="url(#v)" d="M30.102 83.65s.63-.064.787-.158c.189-.094.598-.567.598-.567s.063.63.158.788c.094.189.567.598.567.598s-.63.063-.788.157c-.189.095-.598.567-.598.567s-.063-.63-.158-.787c-.094-.22-.566-.599-.566-.599" opacity=".32"/><path fill="url(#w)" d="M19.016 77.54s1.039-.126 1.322-.284c.315-.157.976-.944.976-.944s.127 1.039.284 1.322c.157.315.945.977.945.977s-1.04.126-1.323.283c-.315.158-.976.945-.976.945s-.126-1.04-.284-1.323c-.157-.315-.944-.976-.944-.976"/><path fill="url(#x)" d="M40.367 82.642s1.04-.126 1.323-.284c.315-.157.976-.945.976-.945s.126 1.04.284 1.323c.157.315.944.976.944.976s-1.039.126-1.322.284c-.315.157-.977.944-.977.944s-.126-1.039-.283-1.322-.945-.977-.945-.977" opacity=".32"/><path fill="url(#y)" d="M3.459 120.778s1.04-.126 1.323-.283c.315-.158.976-.945.976-.945s.126 1.039.283 1.323c.158.315.945.976.945.976s-1.04.126-1.323.283c-.315.158-.976.945-.976.945s-.126-1.039-.283-1.323c-.158-.283-.945-.976-.945-.976"/><path fill="url(#z)" d="M37.44 87.461a.63.63 0 1 0-1.26 0 .63.63 0 0 0 1.26 0" opacity=".5"/><path fill="url(#A)" d="M2.105 87.366s-.252-.22-.315-.315c-.063-.094-.095-.44-.095-.44s-.22.251-.315.314c-.094.063-.44.095-.44.095s.251.22.314.315c.063.094.095.44.095.44s.22-.252.315-.315c.094-.062.44-.094.44-.094" opacity=".5"/><path fill="url(#B)" d="M18.355 74.549s-.252-.22-.315-.315-.095-.441-.095-.441-.22.252-.315.315c-.094.063-.44.094-.44.094s.251.22.314.315.095.441.095.441.22-.252.315-.315c.094-.031.44-.094.44-.094" opacity=".5"/><path fill="url(#C)" d="M23.929 85.098s-.252-.22-.315-.314c-.063-.095-.095-.441-.095-.441s-.22.251-.314.314c-.095.064-.441.095-.441.095s.252.22.315.315c.063.094.094.44.094.44s.22-.251.315-.314c.095-.032.44-.095.44-.095" opacity=".5"/><path fill="url(#D)" d="M30.67 127.297s-.253-.221-.316-.315c-.063-.095-.094-.441-.094-.441s-.22.252-.315.315-.441.094-.441.094.252.221.315.315c.063.095.094.441.094.441s.22-.252.315-.315.441-.094.441-.094" opacity=".5"/><path fill="url(#E)" d="M6.167 112.339s-.252-.221-.315-.315c-.063-.095-.094-.441-.094-.441s-.22.252-.315.315-.441.094-.441.094.252.221.315.315c.063.095.094.441.094.441s.22-.252.315-.315a6 6 0 0 1 .441-.094" opacity=".5"/><path fill="url(#F)" d="M13.85 118.511c.095.032.158.158.127.252-.032.094-.158.157-.252.126a.214.214 0 0 1-.126-.252c0-.094.126-.157.252-.126m-3.148-2.677a.404.404 0 0 0 .283.504.405.405 0 0 0 .504-.283.404.404 0 0 0-.283-.504c-.19-.032-.41.094-.504.283m4.975.662a.867.867 0 0 0 .536 1.039.865.865 0 0 0 1.039-.536c.126-.44-.126-.881-.535-1.039-.441-.126-.914.126-1.04.536m-1.165 7.117a.405.405 0 0 0 .284.504c.22.063.44-.063.504-.284a.405.405 0 0 0-.284-.504.404.404 0 0 0-.504.284"/><path fill="url(#G)" d="M2.736 67.966s0 .63.063.819.472.661.472.661-.63 0-.818.063c-.19.063-.662.472-.662.472s0-.63-.063-.818c-.063-.19-.472-.662-.472-.662s.63 0 .819-.063c.22-.063.661-.472.661-.472" opacity=".32"/><path fill="url(#H)" d="M4.341 48.253s-.031 1.039.095 1.354.818 1.102.818 1.102-1.039-.032-1.354.094-1.102.82-1.102.82.032-1.04-.094-1.355-.82-1.102-.82-1.102 1.04.031 1.355-.095c.346-.126 1.102-.819 1.102-.819" opacity=".32"/><path fill="url(#I)" d="M12.34 52.064s.252-.221.378-.284c.095-.031.441-.031.441-.031s-.22-.252-.283-.378c-.032-.095-.032-.441-.032-.441s-.252.22-.378.283c-.094.032-.44.032-.44.032s.22.252.283.378c.063.094.031.44.031.44" opacity=".5"/><path fill="url(#J)" d="M5.223 58.835c-.063.094-.157.157-.283.094-.095-.063-.158-.157-.095-.284.063-.094.158-.157.284-.094a.25.25 0 0 1 .094.283m3.055-2.74a.405.405 0 0 0-.536.189c-.094.22 0 .44.19.535.22.094.44 0 .535-.189a.39.39 0 0 0-.19-.535m-1.323 4.818a.84.84 0 0 0-1.102.41.84.84 0 0 0 .41 1.102c.409.189.913 0 1.102-.41a.84.84 0 0 0-.41-1.102M.09 58.803a.405.405 0 0 0-.535.189c-.095.22 0 .44.189.535.22.095.44 0 .535-.189.126-.189.031-.44-.189-.535"/><path fill="url(#K)" d="M17.348 105.001s.315.283.378.441c.063.126.094.567.094.567s.284-.315.44-.378c.127-.063.568-.095.568-.095s-.315-.283-.378-.44c-.063-.126-.095-.567-.095-.567s-.283.315-.44.378c-.127.063-.567.094-.567.094" opacity=".5"/><path fill="url(#L)" d="M8.088 96.75c-.126-.063-.189-.189-.157-.346.063-.126.189-.19.346-.158.126.063.19.19.158.347a.32.32 0 0 1-.347.157m3.78 3.559c.094-.284-.032-.567-.316-.662-.283-.094-.566.032-.661.315-.094.284.031.567.315.662.252.094.567-.063.661-.315m-6.205-1.134a1.04 1.04 0 0 0-.63-1.323 1.04 1.04 0 0 0-1.322.63 1.04 1.04 0 0 0 .63 1.323c.535.189 1.102-.095 1.322-.63m1.89-8.88c.094-.284-.032-.567-.315-.662-.283-.094-.567.032-.661.315s.031.567.315.661c.283.095.566-.031.66-.315"/><path fill="url(#M)" d="M21.348 17.045s.44-.095.567-.064c.126.032.503.252.503.252s-.094-.44-.063-.566c.032-.126.252-.504.252-.504s-.44.094-.566.063c-.127-.032-.504-.252-.504-.252s.094.44.063.567c-.032.126-.252.503-.252.503" opacity=".5"/><path fill="url(#N)" d="M9.285 20.005c-.126.095-.283.063-.346-.063-.094-.126-.063-.283.063-.346.126-.095.283-.063.346.063a.256.256 0 0 1-.063.346m5.07-1.07a.54.54 0 0 0-.724-.127.54.54 0 0 0-.126.725c.158.22.504.283.725.126a.517.517 0 0 0 .126-.725m-4.471 4.44a1.053 1.053 0 0 0-1.449-.252 1.053 1.053 0 0 0-.252 1.448c.347.473.976.567 1.449.252.504-.315.598-.976.252-1.448M3.68 16.793a.54.54 0 0 0-.724-.126.54.54 0 0 0-.126.724c.157.22.504.284.724.126a.517.517 0 0 0 .126-.724"/><path fill="url(#O)" d="M10.293 79.808c-.126-.032-.189-.126-.157-.252.031-.126.126-.19.252-.158s.189.126.157.252c-.031.095-.157.158-.252.158m3.338 2.393c.063-.22-.094-.44-.315-.504-.22-.063-.44.095-.503.315s.094.441.315.504c.22.031.44-.095.503-.315m-5.007-.252a.825.825 0 0 0-.63-.976.825.825 0 0 0-.976.63.825.825 0 0 0 .63.976c.44.095.882-.157.976-.63m.567-7.148c.063-.22-.094-.441-.315-.504-.22-.063-.44.094-.504.315-.063.22.095.44.315.503a.45.45 0 0 0 .504-.314"/><path fill="url(#P)" d="M100.139 123.36s.63-.063.787-.157c.189-.094.598-.567.598-.567s.063.63.158.787c.094.189.567.599.567.599s-.63.063-.788.157c-.189.095-.598.567-.598.567s-.063-.63-.157-.787c-.095-.189-.567-.599-.567-.599" opacity=".32"/><path fill="url(#Q)" d="M76.205 112.842s.63-.063.787-.158c.19-.094.599-.566.599-.566s.063.629.157.787c.095.189.567.598.567.598s-.63.063-.787.158c-.19.094-.599.567-.599.567s-.063-.63-.157-.788c-.095-.189-.567-.598-.567-.598" opacity=".32"/><path fill="url(#R)" d="M117.428 18.588s.63-.063.787-.158c.189-.094.598-.566.598-.566s.063.63.158.787c.094.189.567.598.567.598s-.63.063-.788.158c-.189.094-.598.567-.598.567s-.063-.63-.157-.788c-.095-.189-.567-.598-.567-.598"/><path fill="url(#S)" d="M106.344 12.51s1.039-.125 1.322-.283c.315-.157.977-.944.977-.944s.126 1.039.283 1.322c.158.315.945.976.945.976s-1.039.126-1.323.284c-.315.157-.976.945-.976.945s-.126-1.04-.283-1.323c-.158-.315-.945-.976-.945-.976" opacity=".32"/><path fill="url(#T)" d="M117.271 86.264s1.04-.126 1.323-.284c.315-.157.976-.945.976-.945s.126 1.04.284 1.323c.157.315.945.976.945.976s-1.04.126-1.323.284c-.315.157-.976.945-.976.945s-.126-1.04-.284-1.323c-.157-.284-.945-.976-.945-.976" opacity=".32"/><path fill="url(#U)" d="M80.395 124.4s1.039-.126 1.322-.283c.315-.158.976-.945.976-.945s.126 1.039.284 1.323c.157.315.945.976.945.976s-1.04.126-1.323.283c-.315.158-.976.945-.976.945s-.126-1.039-.284-1.322-.945-.977-.945-.977" opacity=".32"/><path fill="url(#V)" d="M114.373 91.081a.63.63 0 1 0-1.26 0 .63.63 0 0 0 1.26 0" opacity=".5"/><path fill="url(#W)" d="M61.53 115.614s-.252-.22-.315-.315c-.062-.094-.094-.441-.094-.441s-.22.252-.315.315c-.094.063-.44.095-.44.095s.251.22.314.315c.063.094.095.44.095.44s.22-.251.315-.314c.094-.063.44-.095.44-.095" opacity=".5"/><path fill="url(#X)" d="M95.29 78.17s-.252-.22-.315-.314c-.063-.095-.094-.441-.094-.441s-.22.252-.315.315-.441.094-.441.094.252.22.315.315.094.441.094.441.22-.252.315-.315c.095-.031.441-.094.441-.094" opacity=".5"/><path fill="url(#Y)" d="M111.255 20.068s-.252-.22-.315-.315c-.063-.094-.094-.44-.094-.44s-.221.251-.315.314c-.095.063-.441.095-.441.095s.252.22.315.315c.063.094.094.44.094.44s.221-.251.315-.314c.095-.032.441-.095.441-.095" opacity=".5"/><path fill="url(#Z)" d="M107.603 130.919s-.252-.221-.315-.315c-.063-.095-.095-.441-.095-.441s-.22.252-.315.315c-.094.063-.441.094-.441.094s.252.221.315.315c.063.095.095.441.095.441s.22-.252.315-.315c.094-.063.441-.094.441-.094" opacity=".5"/><path fill="url(#aa)" d="M83.103 115.96s-.252-.221-.315-.315c-.063-.095-.095-.441-.095-.441s-.22.252-.315.315c-.094.063-.44.094-.44.094s.251.221.314.315c.063.095.095.441.095.441s.22-.252.315-.315c.094-.031.44-.094.44-.094" opacity=".5"/><path fill="url(#ab)" d="M58.728 96.404a.214.214 0 0 1 .126.252.214.214 0 0 1-.252.126.214.214 0 0 1-.126-.252.214.214 0 0 1 .252-.126m-3.118-2.646c-.063.22.063.441.283.504s.441-.063.504-.283a.404.404 0 0 0-.283-.504.404.404 0 0 0-.504.283m4.944.63a.865.865 0 0 0 .535 1.04.866.866 0 0 0 1.04-.536.866.866 0 0 0-.536-1.04.866.866 0 0 0-1.039.536m-1.165 7.117a.404.404 0 0 0 .283.504.405.405 0 0 0 .504-.283.404.404 0 0 0-.283-.504c-.22-.063-.41.063-.504.283"/><path fill="url(#ac)" d="M111.413 63.684s-.598.189-.755.315-.473.661-.473.661-.189-.598-.315-.756c-.126-.157-.661-.472-.661-.472s.598-.189.756-.315c.157-.126.472-.661.472-.661s.189.598.315.755.661.473.661.473" opacity=".32"/><path fill="url(#ad)" d="M130.655 59.086s-1.008.315-1.26.504c-.252.22-.787 1.102-.787 1.102s-.315-1.007-.504-1.26c-.22-.251-1.102-.787-1.102-.787s1.008-.315 1.26-.503c.252-.22.787-1.103.787-1.103s.315 1.008.504 1.26c.22.283 1.102.787 1.102.787" opacity=".32"/><path fill="url(#ae)" d="M102.721 57.575s.315.157.378.252c.063.094.157.41.157.41s.158-.316.252-.379.409-.157.409-.157-.315-.157-.378-.252c-.062-.094-.157-.41-.157-.41s-.157.316-.252.378c-.094.063-.409.158-.409.158" opacity=".5"/><path fill="url(#af)" d="M129.521 67.873s.315.157.378.252c.063.094.158.41.158.41s.157-.316.252-.379c.094-.063.409-.157.409-.157s-.315-.158-.378-.252c-.063-.095-.157-.41-.157-.41s-.158.315-.252.378c-.095.063-.41.158-.41.158" opacity=".5"/><path fill="url(#ag)" d="M120.861 63.18c-.126 0-.189-.127-.189-.221 0-.126.126-.189.221-.189.126 0 .189.126.189.22 0 .127-.095.221-.221.19m3.559 2.078c.031-.22-.126-.441-.347-.441-.22-.031-.441.126-.441.346-.031.22.126.441.347.441.22.032.409-.126.441-.346m-5.007.252c.063-.441-.284-.85-.725-.913s-.85.283-.913.724c-.063.44.283.85.724.913.473.032.882-.283.914-.724m-.126-7.18c.031-.22-.126-.441-.347-.441-.22-.032-.441.126-.441.346-.031.22.126.441.347.441.22.032.409-.126.441-.346"/><path fill="url(#ah)" d="M43.359 126.1s-.599.189-.756.315-.473.661-.473.661-.188-.598-.314-.756c-.126-.157-.662-.472-.662-.472s.599-.189.756-.315.473-.661.473-.661.188.598.314.756c.126.157.662.472.662.472" opacity=".32"/><path fill="url(#ai)" d="M69.277 125.848s-.599.189-.756.315-.472.661-.472.661-.19-.598-.315-.756c-.126-.157-.662-.472-.662-.472s.599-.189.756-.315.472-.661.472-.661.19.598.315.756c.126.157.662.472.662.472" opacity=".32"/><path fill="url(#aj)" d="M63.073 115.236s-1.008.315-1.26.504c-.252.22-.787 1.102-.787 1.102s-.315-1.008-.504-1.26c-.22-.252-1.102-.787-1.102-.787s1.008-.315 1.26-.504c.252-.22.787-1.102.787-1.102s.315 1.007.504 1.259c.22.252 1.102.788 1.102.788"/><path fill="url(#ak)" d="M35.14 113.724s.316.158.379.252c.063.095.157.41.157.41s.157-.315.252-.378c.094-.063.41-.158.41-.158s-.316-.157-.379-.252c-.063-.094-.157-.409-.157-.409s-.157.315-.252.378c-.094.063-.41.157-.41.157" opacity=".5"/><path fill="url(#al)" d="M61.94 124.022s.314.158.377.252c.063.095.158.41.158.41s.157-.315.252-.378c.094-.063.41-.158.41-.158s-.316-.157-.379-.252c-.063-.094-.157-.409-.157-.409s-.158.315-.252.378c-.095.063-.41.157-.41.157" opacity=".5"/><path fill="url(#am)" d="M52.807 125.596c-.127 0-.19-.126-.19-.22 0-.126.127-.189.221-.189s.189.126.189.221c-.032.125-.126.22-.22.188m3.527 2.079c.031-.221-.126-.441-.347-.441-.22-.031-.44.126-.44.346-.032.221.125.441.346.441.22.032.44-.126.44-.346m-4.976.252c.063-.441-.284-.85-.724-.913-.441-.063-.85.283-.914.724-.063.441.284.85.725.913.44.032.85-.283.913-.724m-.126-7.18c.031-.221-.126-.441-.346-.441-.22-.032-.441.126-.441.346-.032.221.126.441.346.441s.41-.126.44-.346"/><path fill="url(#an)" d="M20.906 55.024s-.599.189-.756.315-.473.661-.473.661-.189-.598-.314-.756c-.127-.157-.662-.472-.662-.472s.598-.19.756-.315c.157-.126.472-.661.472-.661s.19.598.315.755c.126.158.662.473.662.473" opacity=".32"/><path fill="url(#ao)" d="M57.341 41.954s-.598.19-.756.315c-.157.126-.472.662-.472.662s-.189-.599-.315-.756-.661-.472-.661-.472.598-.19.755-.315c.158-.126.473-.662.473-.662s.189.599.315.756.661.472.661.472" opacity=".32"/><path fill="url(#ap)" d="M51.137 31.31s-1.007.316-1.26.505c-.251.22-.787 1.102-.787 1.102s-.315-1.008-.503-1.26c-.22-.252-1.103-.787-1.103-.787s1.008-.315 1.26-.504c.252-.22.787-1.102.787-1.102s.315 1.008.504 1.26c.22.252 1.102.787 1.102.787"/><path fill="url(#aq)" d="M12.215 48.946s.315.157.378.252c.063.094.157.41.157.41s.158-.316.252-.378c.095-.063.41-.158.41-.158s-.315-.157-.378-.252c-.063-.094-.158-.41-.158-.41s-.157.316-.252.379c-.094.031-.41.157-.41.157" opacity=".5"/><path fill="url(#ar)" d="M50.004 40.097s.315.157.378.251c.063.095.157.41.157.41s.158-.315.252-.378c.095-.063.41-.158.41-.158s-.315-.157-.378-.252c-.063-.094-.158-.409-.158-.409s-.157.315-.252.378c-.063.063-.41.157-.41.157" opacity=".5"/><path fill="url(#as)" d="M41.343 35.404c-.126 0-.189-.126-.189-.22 0-.126.126-.19.22-.19.095 0 .19.127.19.221 0 .126-.095.22-.22.19m3.559 2.078c.031-.22-.126-.44-.346-.44-.22-.032-.441.126-.441.346-.032.22.126.44.346.44a.39.39 0 0 0 .44-.346m-4.976.252c.063-.44-.283-.85-.724-.913s-.85.284-.913.724c-.063.441.283.85.724.914.44.031.85-.284.913-.725m-.157-7.211c.031-.22-.126-.441-.347-.441-.22-.032-.44.126-.44.346-.032.22.126.441.346.441.22.063.44-.094.44-.346"/><path fill="url(#at)" d="M69.72 108.055c-.127-.031-.19-.126-.158-.252.031-.126.126-.189.252-.157.126.031.189.126.157.252s-.126.189-.252.157m3.337 2.393c.063-.22-.094-.44-.315-.503-.22-.063-.44.094-.504.314-.063.221.095.441.315.504.252.063.441-.094.504-.315m-5.007-.22a.825.825 0 0 0-.63-.976.825.825 0 0 0-.976.63.826.826 0 0 0 .63.976.825.825 0 0 0 .976-.63m.567-7.18c.063-.221-.095-.441-.315-.504s-.44.094-.504.315c-.063.22.095.441.315.504.252.063.472-.095.504-.315"/><path fill="url(#au)" d="M130.277 124.998s-.599.189-.756.315-.472.662-.472.662-.189-.599-.315-.756-.662-.473-.662-.473.599-.189.756-.314c.158-.126.472-.662.472-.662s.189.599.315.756.662.472.662.472"/><path fill="url(#av)" d="M124.073 114.354s-1.008.315-1.26.504c-.252.22-.787 1.102-.787 1.102s-.315-1.008-.504-1.26c-.22-.252-1.102-.787-1.102-.787s1.008-.315 1.26-.504c.252-.22.787-1.102.787-1.102s.315 1.008.504 1.26c.189.283 1.102.787 1.102.787"/><path fill="url(#aw)" d="M122.908 123.139s.315.158.378.252c.063.095.158.41.158.41s.157-.315.251-.378c.095-.063.41-.158.41-.158s-.315-.157-.378-.252c-.063-.094-.157-.409-.157-.409s-.158.315-.252.378c-.063.063-.41.157-.41.157" opacity=".5"/><path fill="url(#ax)" d="M130.717 107.174c-.126-.031-.189-.126-.157-.252.031-.126.126-.189.252-.157.126.031.189.126.157.252-.031.126-.157.189-.252.157m3.338 2.425c.063-.22-.094-.441-.315-.504-.22-.063-.441.095-.504.315-.063.221.095.441.315.504a.45.45 0 0 0 .504-.315m-5.007-.252a.824.824 0 0 0-.63-.976.824.824 0 0 0-.976.63.825.825 0 0 0 .63.976.825.825 0 0 0 .976-.63m.567-7.149c.063-.22-.095-.44-.315-.503s-.441.094-.504.315c-.063.22.095.44.315.503a.45.45 0 0 0 .504-.315"/><path fill="url(#ay)" d="M66.568 7.724s.63-.063.788-.158c.189-.094.598-.567.598-.567s.063.63.158.788c.094.189.566.598.566.598s-.63.063-.787.158c-.189.094-.598.566-.598.566s-.063-.63-.158-.787c-.094-.189-.567-.598-.567-.598" opacity=".32"/><path fill="url(#az)" d="M55.484 1.614s1.04-.126 1.323-.283c.315-.158.976-.945.976-.945s.126 1.04.284 1.323c.157.315.944.976.944.976s-1.039.126-1.322.283c-.315.158-.976.945-.976.945s-.126-1.04-.284-1.323-.945-.976-.945-.976"/><path fill="url(#aA)" d="M88.33 15.438s1.04-.126 1.323-.283c.315-.157.976-.945.976-.945s.126 1.04.283 1.323c.158.315.945.976.945.976s-1.04.126-1.323.284c-.314.157-.976.944-.976.944s-.126-1.039-.283-1.322c-.126-.315-.945-.977-.945-.977"/><path fill="url(#aB)" d="M73.906 11.534a.63.63 0 1 0-1.26 0 .63.63 0 0 0 1.26 0" opacity=".5"/><path fill="url(#aC)" d="M50.099 20.132s-.252-.22-.315-.315-.095-.441-.095-.441-.22.252-.315.315c-.094.063-.44.094-.44.094s.252.22.315.315.094.441.094.441.22-.252.315-.315c.094-.063.44-.094.44-.094" opacity=".5"/><path fill="url(#aD)" d="M60.396 9.204s-.252-.22-.315-.315-.095-.44-.095-.44-.22.251-.315.314c-.094.063-.44.094-.44.094s.251.22.314.315.095.441.095.441.22-.252.315-.315c.094-.063.44-.094.44-.094" opacity=".5"/><path fill="url(#aE)" d="M46.76 3.881c-.126-.031-.189-.126-.157-.252.031-.126.126-.189.252-.157.126.031.189.126.157.252s-.157.189-.252.157m3.338 2.394c.063-.22-.094-.441-.315-.504-.22-.063-.44.094-.504.315-.062.22.095.44.315.504.22.062.441-.095.504-.315m-5.007-.22a.825.825 0 0 0-.63-.977.825.825 0 0 0-.976.63.825.825 0 0 0 .63.976.825.825 0 0 0 .976-.63m.567-7.181c.063-.22-.095-.44-.315-.504-.22-.063-.44.095-.504.315-.063.22.095.441.315.504.252.063.44-.095.504-.315"/><path fill="url(#aF)" d="M-10.428 53.2s10.82 0 12.194 11.25S-3.28 84.428 4.29 94.056c7.597 9.653 41.63-.923 46.678 9.404s-1.6 34.671-13.569 35.818c-11.944 1.147 22.314 14.692 22.314 14.692s17.942-32.601 4.598-53.479c-13.344-20.877-31.51-10.55-40.705-13.993C14.41 83.057 9.812 74.102 11.412 57.34S-7.204 32.098-7.204 32.098zm73.24 76.875c-6.847 19.231-9.945 3.268-9.945 3.268s4.672-9.928 4.497-18.009c-.15-8.057-7.92-18.16-3.898-19.232s16.167 14.717 9.346 33.973M6.689 66.295c3.573 4.664 2.199 15.515 6.997 19.93.624.573 1.349.997 2.099 1.397 3.023 1.571 6.397 2.294 9.595 3.467 1.35.499 4.898 1.67 2.749 3.417-.725.599-1.7.998-2.824 1.272-2.924.723-6.772.549-8.996.274-3.973-.499-8.27-2.02-10.695-5.412C.467 83.506 3.116 61.63 6.69 66.295m2.124-6.236c0 2.694-.65 4.864-1.45 4.864s-1.449-2.17-1.449-4.864.65-4.864 1.45-4.864 1.449 2.17 1.449 4.864" opacity=".25"/><path fill="url(#aG)" d="M91.566 24.45C84.046 18.439 79.291 7.04 77.15.83l-3.81.026s9.064 27.46 26.394 34.119 21.961 8.879 26.194 21.599-5.03 23.22-18.351 31.1c-13.296 7.882-18.55 38.36-8.266 49.259 10.283 10.899 20.367 2.818 20.367 2.818s-14.118-20.202-9.685-33.919c4.432-13.718 20.566-13.12 23.778-33.122a35 35 0 0 0 .249-1.62c-1.22 2.668-2.938 4.214-4.307 4.289-3.262.175-1.27-3.99-1.27-3.99s3.984-14.142-2.54-22.497c-6.523-8.33-17.753-13.593-13.396-16.137 4.333-2.544 17.006 9.602 21.364 21.748.099.25.174.5.249.749-1.718-12.296-8.043-22.447-19.521-28.607C98.065 17.765 98.264.605 98.264.605L88.653.68c2.64 12.645 12.873 31.725 2.913 23.769m12.126 87.418c.548 10.874 7.594 29.38-5.428 18.506 0 0-7.071-22.846 5.428-34.444 12.499-11.597-.548 5.038 0 15.938m17.18-23.17c.623.922-.871 3.042-3.361 4.738s-5.005 2.32-5.627 1.397c-.623-.923.871-3.043 3.361-4.739s5.005-2.32 5.627-1.397M99.708 15.92c4.88 7.258 5.428 13.044.722 9.078-4.706-3.99-4.706-9.427-4.706-9.427s-.896-6.884 3.984.349" opacity=".25"/><path fill="url(#aH)" d="M47.432 35.198C47.032 49.973-2.224-1.88-2.224-1.88l-1.3 3.325c9.18 9 29.092 29.151 25.465 31.401C18.339 35.072 1.428 16.872-6.25 8.271l-.4 1s36.046 46.952 57.308 36.827C71.921 35.973 37.501-16.03 37.501-16.03l-27.542-1c-.025 0 37.898 37.452 37.473 52.228m-25.49-8.15c-2.902-5.326 14.708 6.95 12.132 10.35s-12.132-10.35-12.132-10.35m32.519 7.2c.975.275 1.376 1.95.875 3.75s-1.676 3.05-2.651 2.8c-.976-.275-1.376-1.95-.876-3.75s1.676-3.05 2.652-2.8M52.66 21.222c4.052 18.25-3.402 16.15-5.979 2.75S29.221-.904 29.221-.904l9.205-3.4S48.607 2.97 52.66 21.222" opacity=".25"/></g><defs><radialGradient id="b" cx="0" cy="0" r="1" gradientTransform="rotate(-90 65.392 -2.237)scale(98.1628)" gradientUnits="userSpaceOnUse"><stop offset=".059" stop-color="#560000"/><stop offset=".963" stop-color="#0e0000"/></radialGradient><radialGradient id="c" cx="0" cy="0" r="1" gradientTransform="rotate(-90 65.426 -63.652)scale(1.10719)" gradientUnits="userSpaceOnUse"><stop offset=".059" stop-color="#e47e99"/><stop offset=".526" stop-color="#e43d99"/><stop offset=".993" stop-color="#b30058"/></radialGradient><radialGradient id="d" cx="0" cy="0" r="1" gradientTransform="rotate(-90 71.167 -35.919)scale(1.10719)" gradientUnits="userSpaceOnUse"><stop offset=".059" stop-color="#e47e99"/><stop offset=".526" stop-color="#e43d99"/><stop offset=".993" stop-color="#b30058"/></radialGradient><radialGradient id="e" cx="0" cy="0" r="1" gradientTransform="rotate(-90 78.288 -40.45)scale(1.84567)" gradientUnits="userSpaceOnUse"><stop offset=".059" stop-color="#e47e99"/><stop offset=".526" stop-color="#e43d99"/><stop offset=".993" stop-color="#b30058"/></radialGradient><radialGradient id="f" cx="0" cy="0" r="1" gradientTransform="rotate(-90 68.01 -28.82)scale(1.84566)" gradientUnits="userSpaceOnUse"><stop offset=".059" stop-color="#e47e99"/><stop offset=".526" stop-color="#e43d99"/><stop offset=".993" stop-color="#b30058"/></radialGradient><radialGradient id="g" cx="0" cy="0" r="1" gradientTransform="rotate(90 36.586 53.197)scale(48.296)" gradientUnits="userSpaceOnUse"><stop offset=".059" stop-color="#0a1656"/><stop offset=".889" stop-color="#4478ad"/></radialGradient><radialGradient id="h" cx="0" cy="0" r="1" gradientTransform="rotate(90 36.586 53.197)scale(48.2953)" gradientUnits="userSpaceOnUse"><stop offset=".059" stop-color="#0a1656"/><stop offset=".889" stop-color="#4478ad"/></radialGradient><radialGradient id="i" cx="0" cy="0" r="1" gradientTransform="rotate(90 36.585 53.197)scale(48.296)" gradientUnits="userSpaceOnUse"><stop offset=".059" stop-color="#0a1656"/><stop offset=".889" stop-color="#4478ad"/></radialGradient><radialGradient id="j" cx="0" cy="0" r="1" gradientTransform="rotate(90 36.586 53.197)scale(48.296)" gradientUnits="userSpaceOnUse"><stop offset=".059" stop-color="#0a1656"/><stop offset=".889" stop-color="#4478ad"/></radialGradient><radialGradient id="k" cx="0" cy="0" r="1" gradientTransform="rotate(90 47.081 80.902)scale(3.88702)" gradientUnits="userSpaceOnUse"><stop offset=".059" stop-color="#0a1656"/><stop offset=".889" stop-color="#4478ad"/></radialGradient><radialGradient id="l" cx="0" cy="0" r="1" gradientTransform="matrix(0 -1.10719 1.10719 0 29.201 .11)" gradientUnits="userSpaceOnUse"><stop offset=".059" stop-color="#e47e99"/><stop offset=".526" stop-color="#e43d99"/><stop offset=".993" stop-color="#b30058"/></radialGradient><radialGradient id="m" cx="0" cy="0" r="1" gradientTransform="rotate(-90 20.398 13.186)scale(1.10719)" gradientUnits="userSpaceOnUse"><stop offset=".059" stop-color="#e47e99"/><stop offset=".526" stop-color="#e43d99"/><stop offset=".993" stop-color="#b30058"/></radialGradient><radialGradient id="n" cx="0" cy="0" r="1" gradientTransform="rotate(-90 27.518 8.655)scale(1.84566)" gradientUnits="userSpaceOnUse"><stop offset=".059" stop-color="#e47e99"/><stop offset=".526" stop-color="#e43d99"/><stop offset=".993" stop-color="#b30058"/></radialGradient><radialGradient id="o" cx="0" cy="0" r="1" gradientTransform="rotate(90 -12.52 2.428)scale(48.2947)" gradientUnits="userSpaceOnUse"><stop offset=".059" stop-color="#0a1656"/><stop offset=".889" stop-color="#4478ad"/></radialGradient><radialGradient id="p" cx="0" cy="0" r="1" gradientTransform="rotate(90 -12.52 2.428)scale(48.2951)" gradientUnits="userSpaceOnUse"><stop offset=".059" stop-color="#0a1656"/><stop offset=".889" stop-color="#4478ad"/></radialGradient><radialGradient id="q" cx="0" cy="0" r="1" gradientTransform="rotate(90 -12.52 2.428)scale(48.2953)" gradientUnits="userSpaceOnUse"><stop offset=".059" stop-color="#0a1656"/><stop offset=".889" stop-color="#4478ad"/></radialGradient><radialGradient id="r" cx="0" cy="0" r="1" gradientTransform="rotate(90 -12.52 2.428)scale(48.2952)" gradientUnits="userSpaceOnUse"><stop offset=".059" stop-color="#0a1656"/><stop offset=".889" stop-color="#4478ad"/></radialGradient><radialGradient id="s" cx="0" cy="0" r="1" gradientTransform="rotate(90 -2.024 30.132)scale(3.88702)" gradientUnits="userSpaceOnUse"><stop offset=".059" stop-color="#0a1656"/><stop offset=".889" stop-color="#4478ad"/></radialGradient><radialGradient id="t" cx="0" cy="0" r="1" gradientTransform="rotate(-90 72.176 47.9)scale(1.05878)" gradientUnits="userSpaceOnUse"><stop offset=".059" stop-color="#e47e99"/><stop offset=".526" stop-color="#e43d99"/><stop offset=".993" stop-color="#b30058"/></radialGradient><radialGradient id="u" cx="0" cy="0" r="1" gradientTransform="rotate(-90 54.94 54.6)scale(1.05878)" gradientUnits="userSpaceOnUse"><stop offset=".059" stop-color="#e47e99"/><stop offset=".526" stop-color="#e43d99"/><stop offset=".993" stop-color="#b30058"/></radialGradient><radialGradient id="v" cx="0" cy="0" r="1" gradientTransform="rotate(-90 57.558 26.401)scale(1.05882)" gradientUnits="userSpaceOnUse"><stop offset=".059" stop-color="#e47e99"/><stop offset=".526" stop-color="#e43d99"/><stop offset=".993" stop-color="#b30058"/></radialGradient><radialGradient id="w" cx="0" cy="0" r="1" gradientTransform="rotate(-90 49.424 28.653)scale(1.76502)" gradientUnits="userSpaceOnUse"><stop offset=".059" stop-color="#e47e99"/><stop offset=".526" stop-color="#e43d99"/><stop offset=".993" stop-color="#b30058"/></radialGradient><radialGradient id="x" cx="0" cy="0" r="1" gradientTransform="rotate(-90 62.653 20.535)scale(1.76501)" gradientUnits="userSpaceOnUse"><stop offset=".059" stop-color="#e47e99"/><stop offset=".526" stop-color="#e43d99"/><stop offset=".993" stop-color="#b30058"/></radialGradient><radialGradient id="y" cx="0" cy="0" r="1" gradientTransform="rotate(-90 63.28 58.051)scale(1.76502)" gradientUnits="userSpaceOnUse"><stop offset=".059" stop-color="#e47e99"/><stop offset=".526" stop-color="#e43d99"/><stop offset=".993" stop-color="#b30058"/></radialGradient><radialGradient id="z" cx="0" cy="0" r="1" gradientTransform="rotate(-72.998 93.324 24.868)scale(48.2955)" gradientUnits="userSpaceOnUse"><stop offset=".059" stop-color="#0a1656"/><stop offset=".889" stop-color="#4478ad"/></radialGradient><radialGradient id="A" cx="0" cy="0" r="1" gradientTransform="rotate(-72.998 93.323 24.868)scale(48.2947 48.2949)" gradientUnits="userSpaceOnUse"><stop offset=".059" stop-color="#0a1656"/><stop offset=".889" stop-color="#4478ad"/></radialGradient><radialGradient id="B" cx="0" cy="0" r="1" gradientTransform="rotate(-72.998 93.323 24.868)scale(48.2957 48.2956)" gradientUnits="userSpaceOnUse"><stop offset=".059" stop-color="#0a1656"/><stop offset=".889" stop-color="#4478ad"/></radialGradient><radialGradient id="C" cx="0" cy="0" r="1" gradientTransform="rotate(-72.998 93.324 24.868)scale(48.296)" gradientUnits="userSpaceOnUse"><stop offset=".059" stop-color="#0a1656"/><stop offset=".889" stop-color="#4478ad"/></radialGradient><radialGradient id="D" cx="0" cy="0" r="1" gradientTransform="rotate(-72.998 93.324 24.867)scale(48.2949 48.2948)" gradientUnits="userSpaceOnUse"><stop offset=".059" stop-color="#0a1656"/><stop offset=".889" stop-color="#4478ad"/></radialGradient><radialGradient id="E" cx="0" cy="0" r="1" gradientTransform="rotate(-72.998 93.323 24.868)scale(48.2956 48.2954)" gradientUnits="userSpaceOnUse"><stop offset=".059" stop-color="#0a1656"/><stop offset=".889" stop-color="#4478ad"/></radialGradient><radialGradient id="F" cx="0" cy="0" r="1" gradientTransform="rotate(90 -52.928 66.916)scale(3.82124)" gradientUnits="userSpaceOnUse"><stop offset=".059" stop-color="#0a1656"/><stop offset=".889" stop-color="#4478ad"/></radialGradient><radialGradient id="G" cx="0" cy="0" r="1" gradientTransform="rotate(-90 35.624 33.342)scale(1.00616)" gradientUnits="userSpaceOnUse"><stop offset=".059" stop-color="#e47e99"/><stop offset=".526" stop-color="#e43d99"/><stop offset=".993" stop-color="#b30058"/></radialGradient><radialGradient id="H" cx="0" cy="0" r="1" gradientTransform="rotate(-90 26.75 23.173)scale(1.67725)" gradientUnits="userSpaceOnUse"><stop offset=".059" stop-color="#e47e99"/><stop offset=".526" stop-color="#e43d99"/><stop offset=".993" stop-color="#b30058"/></radialGradient><radialGradient id="I" cx="0" cy="0" r="1" gradientTransform="rotate(24.671 -195.964 73.99)scale(48.2955 48.2957)" gradientUnits="userSpaceOnUse"><stop offset=".059" stop-color="#0a1656"/><stop offset=".889" stop-color="#4478ad"/></radialGradient><radialGradient id="J" cx="0" cy="0" r="1" gradientTransform="rotate(187.666 3.911 29.271)scale(3.82125)" gradientUnits="userSpaceOnUse"><stop offset=".059" stop-color="#0a1656"/><stop offset=".889" stop-color="#4478ad"/></radialGradient><radialGradient id="K" cx="0" cy="0" r="1" gradientTransform="rotate(109.823 -52.752 44.853)scale(60.9284)" gradientUnits="userSpaceOnUse"><stop offset=".059" stop-color="#0a1656"/><stop offset=".889" stop-color="#4478ad"/></radialGradient><radialGradient id="L" cx="0" cy="0" r="1" gradientTransform="rotate(-87.18 53.919 43.34)scale(4.82087)" gradientUnits="userSpaceOnUse"><stop offset=".059" stop-color="#0a1656"/><stop offset=".889" stop-color="#4478ad"/></radialGradient><radialGradient id="M" cx="0" cy="0" r="1" gradientTransform="rotate(54.417 -56.248 27.942)scale(60.9287)" gradientUnits="userSpaceOnUse"><stop offset=".059" stop-color="#0a1656"/><stop offset=".889" stop-color="#4478ad"/></radialGradient><radialGradient id="N" cx="0" cy="0" r="1" gradientTransform="rotate(217.418 7.163 8.24)scale(4.82081)" gradientUnits="userSpaceOnUse"><stop offset=".059" stop-color="#0a1656"/><stop offset=".889" stop-color="#4478ad"/></radialGradient><radialGradient id="O" cx="0" cy="0" r="1" gradientTransform="rotate(90 -34.07 44.385)scale(3.75954)" gradientUnits="userSpaceOnUse"><stop offset=".059" stop-color="#0a1656"/><stop offset=".889" stop-color="#4478ad"/></radialGradient><radialGradient id="P" cx="0" cy="0" r="1" gradientTransform="rotate(-90 112.45 11.246)scale(1.05881)" gradientUnits="userSpaceOnUse"><stop offset=".059" stop-color="#e47e99"/><stop offset=".526" stop-color="#e43d99"/><stop offset=".993" stop-color="#b30058"/></radialGradient><radialGradient id="Q" cx="0" cy="0" r="1" gradientTransform="rotate(-90 95.214 17.946)scale(1.05881)" gradientUnits="userSpaceOnUse"><stop offset=".059" stop-color="#e47e99"/><stop offset=".526" stop-color="#e43d99"/><stop offset=".993" stop-color="#b30058"/></radialGradient><radialGradient id="R" cx="0" cy="0" r="1" gradientTransform="rotate(-90 68.71 -49.785)scale(1.05882)" gradientUnits="userSpaceOnUse"><stop offset=".059" stop-color="#e47e99"/><stop offset=".526" stop-color="#e43d99"/><stop offset=".993" stop-color="#b30058"/></radialGradient><radialGradient id="S" cx="0" cy="0" r="1" gradientTransform="rotate(-90 60.577 -47.534)scale(1.76501)" gradientUnits="userSpaceOnUse"><stop offset=".059" stop-color="#e47e99"/><stop offset=".526" stop-color="#e43d99"/><stop offset=".993" stop-color="#b30058"/></radialGradient><radialGradient id="T" cx="0" cy="0" r="1" gradientTransform="rotate(-90 102.928 -16.12)scale(1.76501)" gradientUnits="userSpaceOnUse"><stop offset=".059" stop-color="#e47e99"/><stop offset=".526" stop-color="#e43d99"/><stop offset=".993" stop-color="#b30058"/></radialGradient><radialGradient id="U" cx="0" cy="0" r="1" gradientTransform="rotate(-90 103.556 21.396)scale(1.76502)" gradientUnits="userSpaceOnUse"><stop offset=".059" stop-color="#e47e99"/><stop offset=".526" stop-color="#e43d99"/><stop offset=".993" stop-color="#b30058"/></radialGradient><radialGradient id="V" cx="0" cy="0" r="1" gradientTransform="rotate(-72.998 134.233 -25.305)scale(48.2961)" gradientUnits="userSpaceOnUse"><stop offset=".059" stop-color="#0a1656"/><stop offset=".889" stop-color="#4478ad"/></radialGradient><radialGradient id="W" cx="0" cy="0" r="1" gradientTransform="rotate(-72.998 142.138 -1.165)scale(48.2957 48.2959)" gradientUnits="userSpaceOnUse"><stop offset=".059" stop-color="#0a1656"/><stop offset=".889" stop-color="#4478ad"/></radialGradient><radialGradient id="X" cx="0" cy="0" r="1" gradientTransform="rotate(-72.998 134.235 -25.305)scale(48.2954)" gradientUnits="userSpaceOnUse"><stop offset=".059" stop-color="#0a1656"/><stop offset=".889" stop-color="#4478ad"/></radialGradient><radialGradient id="Y" cx="0" cy="0" r="1" gradientTransform="rotate(-72.999 93.047 -66.667)scale(48.2959 48.2955)" gradientUnits="userSpaceOnUse"><stop offset=".059" stop-color="#0a1656"/><stop offset=".889" stop-color="#4478ad"/></radialGradient><radialGradient id="Z" cx="0" cy="0" r="1" gradientTransform="rotate(-72.999 134.234 -25.306)scale(48.2963 48.296)" gradientUnits="userSpaceOnUse"><stop offset=".059" stop-color="#0a1656"/><stop offset=".889" stop-color="#4478ad"/></radialGradient><radialGradient id="aa" cx="0" cy="0" r="1" gradientTransform="rotate(-72.998 134.234 -25.306)scale(48.2957)" gradientUnits="userSpaceOnUse"><stop offset=".059" stop-color="#0a1656"/><stop offset=".889" stop-color="#4478ad"/></radialGradient><radialGradient id="ab" cx="0" cy="0" r="1" gradientTransform="rotate(90 -19.428 78.312)scale(3.82124)" gradientUnits="userSpaceOnUse"><stop offset=".059" stop-color="#0a1656"/><stop offset=".889" stop-color="#4478ad"/></radialGradient><radialGradient id="ac" cx="0" cy="0" r="1" gradientTransform="rotate(-90 86.93 -23.386)scale(1.09982)" gradientUnits="userSpaceOnUse"><stop offset=".059" stop-color="#e47e99"/><stop offset=".526" stop-color="#e43d99"/><stop offset=".993" stop-color="#b30058"/></radialGradient><radialGradient id="ad" cx="0" cy="0" r="1" gradientTransform="rotate(-90 93.85 -34.974)scale(1.83335)" gradientUnits="userSpaceOnUse"><stop offset=".059" stop-color="#e47e99"/><stop offset=".526" stop-color="#e43d99"/><stop offset=".993" stop-color="#b30058"/></radialGradient><radialGradient id="ae" cx="0" cy="0" r="1" gradientTransform="rotate(96.615 11.967 82.218)scale(48.2953 48.2957)" gradientUnits="userSpaceOnUse"><stop offset=".059" stop-color="#0a1656"/><stop offset=".889" stop-color="#4478ad"/></radialGradient><radialGradient id="af" cx="0" cy="0" r="1" gradientTransform="rotate(96.615 11.967 82.219)scale(48.2952)" gradientUnits="userSpaceOnUse"><stop offset=".059" stop-color="#0a1656"/><stop offset=".889" stop-color="#4478ad"/></radialGradient><radialGradient id="ag" cx="0" cy="0" r="1" gradientTransform="rotate(90 29.528 91.573)scale(3.77724)" gradientUnits="userSpaceOnUse"><stop offset=".059" stop-color="#0a1656"/><stop offset=".889" stop-color="#4478ad"/></radialGradient><radialGradient id="ah" cx="0" cy="0" r="1" gradientTransform="rotate(-90 84.103 41.854)scale(1.09982)" gradientUnits="userSpaceOnUse"><stop offset=".059" stop-color="#e47e99"/><stop offset=".526" stop-color="#e43d99"/><stop offset=".993" stop-color="#b30058"/></radialGradient><radialGradient id="ai" cx="0" cy="0" r="1" gradientTransform="rotate(-90 96.956 28.776)scale(1.09982)" gradientUnits="userSpaceOnUse"><stop offset=".059" stop-color="#e47e99"/><stop offset=".526" stop-color="#e43d99"/><stop offset=".993" stop-color="#b30058"/></radialGradient><radialGradient id="aj" cx="0" cy="0" r="1" gradientTransform="rotate(-90 88.13 26.885)scale(1.83339)" gradientUnits="userSpaceOnUse"><stop offset=".059" stop-color="#e47e99"/><stop offset=".526" stop-color="#e43d99"/><stop offset=".993" stop-color="#b30058"/></radialGradient><radialGradient id="ak" cx="0" cy="0" r="1" gradientTransform="rotate(96.615 -46.824 80.192)scale(48.2954)" gradientUnits="userSpaceOnUse"><stop offset=".059" stop-color="#0a1656"/><stop offset=".889" stop-color="#4478ad"/></radialGradient><radialGradient id="al" cx="0" cy="0" r="1" gradientTransform="rotate(96.615 -46.825 80.192)scale(48.2952 48.2954)" gradientUnits="userSpaceOnUse"><stop offset=".059" stop-color="#0a1656"/><stop offset=".889" stop-color="#4478ad"/></radialGradient><radialGradient id="am" cx="0" cy="0" r="1" gradientTransform="rotate(90 -35.713 88.747)scale(3.77724)" gradientUnits="userSpaceOnUse"><stop offset=".059" stop-color="#0a1656"/><stop offset=".889" stop-color="#4478ad"/></radialGradient><radialGradient id="an" cx="0" cy="0" r="1" gradientTransform="rotate(-90 37.345 17.541)scale(1.09982)" gradientUnits="userSpaceOnUse"><stop offset=".059" stop-color="#e47e99"/><stop offset=".526" stop-color="#e43d99"/><stop offset=".993" stop-color="#b30058"/></radialGradient><radialGradient id="ao" cx="0" cy="0" r="1" gradientTransform="rotate(-90 49.032 -7.22)scale(1.09982)" gradientUnits="userSpaceOnUse"><stop offset=".059" stop-color="#e47e99"/><stop offset=".526" stop-color="#e43d99"/><stop offset=".993" stop-color="#b30058"/></radialGradient><radialGradient id="ap" cx="0" cy="0" r="1" gradientTransform="rotate(90 9.11 40.207)scale(1.83339)" gradientUnits="userSpaceOnUse"><stop offset=".059" stop-color="#66b0d8"/><stop offset="1" stop-color="#3f1f7d"/></radialGradient><radialGradient id="aq" cx="0" cy="0" r="1" gradientTransform="rotate(96.615 -29.433 37.58)scale(48.2957 48.2955)" gradientUnits="userSpaceOnUse"><stop offset=".059" stop-color="#0a1656"/><stop offset=".889" stop-color="#4478ad"/></radialGradient><radialGradient id="ar" cx="0" cy="0" r="1" gradientTransform="rotate(96.615 -15.415 32.92)scale(48.296 48.2962)" gradientUnits="userSpaceOnUse"><stop offset=".059" stop-color="#0a1656"/><stop offset=".889" stop-color="#4478ad"/></radialGradient><radialGradient id="as" cx="0" cy="0" r="1" gradientTransform="rotate(90 3.664 37.93)scale(3.77724)" gradientUnits="userSpaceOnUse"><stop offset=".059" stop-color="#0a1656"/><stop offset=".889" stop-color="#4478ad"/></radialGradient><radialGradient id="at" cx="0" cy="0" r="1" gradientTransform="rotate(90 -18.482 88.233)scale(3.75954)" gradientUnits="userSpaceOnUse"><stop offset=".059" stop-color="#0a1656"/><stop offset=".889" stop-color="#4478ad"/></radialGradient><radialGradient id="au" cx="0" cy="0" r="1" gradientTransform="rotate(-90 127.014 -2.152)scale(1.09982)" gradientUnits="userSpaceOnUse"><stop offset=".059" stop-color="#e47e99"/><stop offset=".526" stop-color="#e43d99"/><stop offset=".993" stop-color="#b30058"/></radialGradient><radialGradient id="av" cx="0" cy="0" r="1" gradientTransform="rotate(90 4.043 118.189)scale(1.83339)" gradientUnits="userSpaceOnUse"><stop offset=".059" stop-color="#66b0d8"/><stop offset="1" stop-color="#3f1f7d"/></radialGradient><radialGradient id="aw" cx="0" cy="0" r="1" gradientTransform="rotate(96.615 -15.943 106.917)scale(48.295 48.2952)" gradientUnits="userSpaceOnUse"><stop offset=".059" stop-color="#0a1656"/><stop offset=".889" stop-color="#4478ad"/></radialGradient><radialGradient id="ax" cx="0" cy="0" r="1" gradientTransform="rotate(90 12.445 118.29)scale(3.75951)" gradientUnits="userSpaceOnUse"><stop offset=".059" stop-color="#0a1656"/><stop offset=".889" stop-color="#4478ad"/></radialGradient><radialGradient id="ay" cx="0" cy="0" r="1" gradientTransform="rotate(-90 37.837 -29.792)scale(1.05882)" gradientUnits="userSpaceOnUse"><stop offset=".059" stop-color="#e47e99"/><stop offset=".526" stop-color="#e43d99"/><stop offset=".993" stop-color="#b30058"/></radialGradient><radialGradient id="az" cx="0" cy="0" r="1" gradientTransform="rotate(90 27.541 29.703)scale(1.76502)" gradientUnits="userSpaceOnUse"><stop offset=".059" stop-color="#66b0d8"/><stop offset="1" stop-color="#3f1f7d"/></radialGradient><radialGradient id="aA" cx="0" cy="0" r="1" gradientTransform="rotate(-90 53.039 -37.07)scale(1.76501)" gradientUnits="userSpaceOnUse"><stop offset=".059" stop-color="#e47e99"/><stop offset=".526" stop-color="#e43d99"/><stop offset=".993" stop-color="#b30058"/></radialGradient><radialGradient id="aB" cx="0" cy="0" r="1" gradientTransform="rotate(-72.998 60.262 -37.735)scale(48.2959)" gradientUnits="userSpaceOnUse"><stop offset=".059" stop-color="#0a1656"/><stop offset=".889" stop-color="#4478ad"/></radialGradient><radialGradient id="aC" cx="0" cy="0" r="1" gradientTransform="rotate(-72.998 71.897 -41.17)scale(48.2955 48.2957)" gradientUnits="userSpaceOnUse"><stop offset=".059" stop-color="#0a1656"/><stop offset=".889" stop-color="#4478ad"/></radialGradient><radialGradient id="aD" cx="0" cy="0" r="1" gradientTransform="rotate(-72.998 60.261 -37.735)scale(48.2946 48.2949)" gradientUnits="userSpaceOnUse"><stop offset=".059" stop-color="#0a1656"/><stop offset=".889" stop-color="#4478ad"/></radialGradient><radialGradient id="aE" cx="0" cy="0" r="1" gradientTransform="rotate(90 22.124 24.663)scale(3.75954)" gradientUnits="userSpaceOnUse"><stop offset=".059" stop-color="#0a1656"/><stop offset=".889" stop-color="#4478ad"/></radialGradient><radialGradient id="aF" cx="0" cy="0" r="1" gradientTransform="matrix(0 -51.4571 51.5491 0 29.408 93.024)" gradientUnits="userSpaceOnUse"><stop offset=".081" stop-color="#f128c5"/><stop offset="1" stop-color="#c11bb9"/></radialGradient><radialGradient id="aG" cx="0" cy="0" r="1" gradientTransform="matrix(0 -54.6277 54.5364 0 103.76 71.647)" gradientUnits="userSpaceOnUse"><stop offset=".081" stop-color="#f128c5"/><stop offset="1" stop-color="#c11bb9"/></radialGradient><radialGradient id="aH" cx="0" cy="0" r="1" gradientTransform="matrix(0 -32.195 32.2127 0 25.46 15.247)" gradientUnits="userSpaceOnUse"><stop offset=".081" stop-color="#f128c5"/><stop offset="1" stop-color="#c11bb9"/></radialGradient></defs></svg>