<?xml version="1.0" encoding="UTF-8" standalone="no"?>
<svg
   version="1.0"
   width="128.000000pt"
   height="128.000000pt"
   viewBox="0 0 128.000000 128.000000"
   preserveAspectRatio="xMidYMid meet"
   id="svg4"
   sodipodi:docname="player-base-outfitOhNah (1).svg"
   inkscape:version="1.4.2 (f4327f4, 2025-05-13)"
   xmlns:inkscape="http://www.inkscape.org/namespaces/inkscape"
   xmlns:sodipodi="http://sodipodi.sourceforge.net/DTD/sodipodi-0.dtd"
   xmlns="http://www.w3.org/2000/svg"
   xmlns:svg="http://www.w3.org/2000/svg">
  <defs
     id="defs4" />
  <sodipodi:namedview
     id="namedview4"
     pagecolor="#ffffff"
     bordercolor="#000000"
     borderopacity="0.25"
     inkscape:showpageshadow="2"
     inkscape:pageopacity="0.0"
     inkscape:pagecheckerboard="0"
     inkscape:deskcolor="#d1d1d1"
     inkscape:document-units="pt"
     inkscape:zoom="7.8925781"
     inkscape:cx="85.269983"
     inkscape:cy="85.333333"
     inkscape:window-width="2560"
     inkscape:window-height="1334"
     inkscape:window-x="5749"
     inkscape:window-y="439"
     inkscape:window-maximized="1"
     inkscape:current-layer="g4" />
  <g
     transform="translate(0.000000,128.000000) scale(0.100000,-0.100000)"
     fill="#000000"
     stroke="none"
     id="g4">
    <path
       d="M480 1256 c-97 -26 -150 -50 -237 -112 -113 -81 -184 -191 -222 -346 -25 -102 -26 -134 -6 -253 29 -181 142 -347 300 -442 110 -65 271 -110 355 -98 173 24 287 67 380 145 92 77 180 215 196 308 3 20 12 59 20 86 24 84 -4 260 -59 373 -47 97 -124 183 -226 250 -77 51 -124 69 -235 92 -122 26 -158 25 -266 -3z m298 -75 c58 -16 146 -61 207 -106 88 -67 195 -212 200 -274 1 -15 4 -32 7 -37 4 -5 9 -30 13 -56 8 -50 -14 -133 -45 -172 -55 -70 -74 -86 -83 -77 -6 6 -47 11 -92 11 -61 0 -90 5 -120 20 -22 11 -44 20 -50 20 -5 0 -31 20 -57 45 -44 41 -49 43 -77 34 -16 -6 -35 -17 -42 -25 -6 -8 -29 -14 -51 -14 -28 0 -45 -7 -61 -24 -12 -13 -38 -27 -57 -31 -51 -11 -110 -36 -110 -46 0 -5 -12 -14 -26 -19 -14 -6 -28 -19 -31 -29 -3 -11 -14 -22 -26 -25 -24 -6 -16 -18 15 -23 12 -2 26 -8 33 -13 13 -11 73 2 135 29 44 19 94 19 106 0 7 -12 71 -11 111 0 40 12 71 -2 137 -60 58 -52 59 -73 4 -98 -41 -19 -169 -39 -253 -40 -72 -1 -209 21 -245 39 -51 26 -95 75 -78 86 9 6 0 11 -27 14 -32 4 -40 9 -40 25 0 13 -8 21 -23 23 -18 3 -30 17 -47 55 -61 140 -60 357 3 482 31 62 135 169 210 216 105 67 186 89 312 85 58 -1 124 -8 148 -15z"
       id="path1"
       style="fill:#000000" />
    <path
       d="M685 905 c-32 -31 -38 -105 -16 -185 6 -19 13 -48 16 -63 4 -22 10 -27 24 -22 22 7 71 -13 71 -30 0 -6 15 -16 33 -23 85 -31 135 1 148 93 6 47 13 63 33 78 30 21 35 49 9 45 -11 -2 -17 2 -15 11 4 21 -26 79 -48 91 -17 9 -21 6 -26 -16 -6 -23 -10 -25 -38 -18 -17 5 -57 8 -89 9 -59 0 -65 3 -46 22 14 14 3 33 -17 33 -8 0 -26 -11 -39 -25z m155 -153 c0 -9 -9 -23 -20 -30 -17 -10 -20 -10 -20 3 0 17 20 44 33 45 4 0 7 -8 7 -18z"
       id="path2" />
    <path
       d="M519 913 c-1 -5 -1 -11 0 -15 0 -5 -26 -8 -59 -8 -41 0 -74 -7 -100 -20 -49 -25 -49 -25 -43 1 10 36 -19 17 -46 -30 -21 -38 -22 -45 -10 -74 7 -18 23 -42 36 -55 13 -12 21 -27 18 -33 -13 -20 6 -59 35 -74 24 -12 38 -14 68 -5 45 12 124 65 134 88 12 30 9 177 -4 205 -12 26 -27 35 -29 20z m-71 -157 c5 -42 -13 -53 -33 -22 -14 21 -15 29 -5 41 18 22 34 13 38 -19z"
       id="path3" />
    <path
       d="M558 322 c-64 -39 -41 -69 67 -87 88 -16 125 -7 125 30 0 59 -127 96 -192 57z"
       id="path4" />
    <path
       style="fill:#4d4d4d;stroke-width:0.126701"
       d="m 71.332838,147.72424 c -0.278742,-0.0268 -1.390546,-0.11105 -2.470675,-0.18727 -5.622923,-0.39672 -13.395427,-1.53769 -19.024101,-2.79266 -4.879566,-1.08796 -6.995194,-1.89057 -9.80995,-3.72163 -3.668402,-2.3864 -6.596031,-5.21544 -7.724963,-7.46485 -0.592991,-1.18153 -0.591596,-1.73725 0.0057,-2.26605 1.112157,-0.98462 0.270395,-1.47556 -3.420935,-1.99516 -3.069527,-0.43207 -4.297413,-0.80536 -4.921723,-1.49627 -0.329303,-0.36442 -0.577573,-1.12668 -0.584929,-1.7959 -0.0092,-0.8384 -0.221983,-1.47028 -0.664952,-1.97479 -0.505336,-0.57555 -1.143162,-0.89571 -2.247046,-1.12792 -1.191652,-0.25067 -1.920962,-0.61349 -2.742534,-1.36436 -1.991476,-1.8201 -4.486296,-7.13962 -6.332484,-13.5023 C 9.8365384,102.66667 8.8097963,96.709788 8.2784123,89.957931 8.0703979,87.314863 8.0697034,79.261466 8.277265,76.654293 9.0869447,66.483941 11.026457,58.478282 14.323296,51.698295 16.530862,47.158411 21.479723,40.962576 28.146045,34.3926 33.728681,28.890648 38.194725,25.257504 43.300724,22.064204 55.918688,14.172912 66.019326,11.213282 80.328632,11.214503 c 8.874061,7.57e-4 18.85902,0.872469 23.198078,2.025251 7.17327,1.905758 18.42088,7.536142 26.5134,13.272205 8.79898,6.236814 20.05424,19.529805 25.29121,29.870125 1.70977,3.375919 2.32678,5.28062 2.66785,8.235585 0.26668,2.31049 0.48499,3.317124 0.94833,4.372818 0.69807,1.590461 1.68651,6.583133 1.84812,9.334816 0.20298,3.456152 -0.7514,8.996199 -2.28765,13.279745 -0.68325,1.905082 -2.08405,4.868568 -2.88826,6.110314 -1.20368,1.858535 -5.53542,7.104528 -7.74339,9.377698 -2.34144,2.41058 -3.32998,2.93273 -4.3026,2.2727 -1.20585,-0.81832 -5.27994,-1.29015 -12.24781,-1.41847 -9.29853,-0.17125 -11.46214,-0.56821 -16.81035,-3.08423 -2.80503,-1.3196 -4.37776,-1.95279 -5.42573,-2.1844 -1.26365,-0.27929 -3.4886,-1.93189 -7.14725,-5.308702 -4.219451,-3.894414 -5.274459,-4.768124 -6.471193,-5.359146 -0.761763,-0.376207 -0.914045,-0.405465 -2.090572,-0.401651 -1.054374,0.0034 -1.440368,0.06381 -2.282572,0.35711 -2.134757,0.743444 -4.598129,2.145651 -5.796579,3.299546 -1.005902,0.968504 -2.202689,1.455587 -4.402877,1.791937 -0.662014,0.101206 -1.659787,0.184812 -2.217273,0.185795 -1.451701,0.0026 -3.154564,0.214103 -4.181143,0.519419 -1.486091,0.441978 -2.490215,1.056315 -3.954781,2.419592 -1.447395,1.34729 -2.819759,2.32119 -4.344155,3.08283 -1.429585,0.71427 -2.281358,1.00403 -4.832189,1.64387 -4.079181,1.0232 -8.172104,2.48069 -10.901798,3.88214 -1.602197,0.82259 -2.324685,1.381 -2.508888,1.93914 -0.244043,0.73946 -1.245793,1.50298 -3.26459,2.48822 -1.708704,0.8339 -1.923169,0.97916 -2.947067,1.99619 -0.908639,0.90254 -1.153304,1.23153 -1.381109,1.85706 -0.610379,1.67606 -1.78525,2.83529 -3.412269,3.36687 -1.654554,0.54056 -2.139399,0.99352 -1.818157,1.69857 0.210037,0.46098 1.559948,1.0412 3.381831,1.45358 2.380093,0.53873 3.579147,0.99877 4.925482,1.88973 0.453654,0.30021 0.642631,0.3375 1.906831,0.37627 3.377814,0.1036 8.7803,-1.31923 15.34215,-4.04057 3.58797,-1.48802 5.694546,-2.00373 8.613955,-2.10878 3.014214,-0.10846 4.825958,0.366 5.855363,1.53341 0.98122,1.11277 2.111689,1.37592 5.927859,1.37991 3.580104,0.004 5.63963,-0.24393 9.343822,-1.12366 3.276522,-0.77815 5.276141,-0.57765 8.148133,0.81703 3.302176,1.60358 8.516506,5.66238 12.412406,9.66173 3.58852,3.6838 4.2052,5.73848 2.33219,7.77045 -1.03663,1.12463 -3.80432,2.65744 -6.30094,3.48962 -5.32684,1.77556 -15.669727,3.51177 -25.682208,4.31116 -1.680616,0.13417 -9.091197,0.26516 -10.009404,0.17691 z m 24.390003,-7.608 c 1.907193,-0.38109 3.256148,-1.26407 3.880377,-2.53995 0.492502,-1.00665 0.572742,-2.79916 0.177482,-3.96492 -0.369491,-1.08975 -0.788462,-1.78035 -1.640131,-2.70344 -3.001459,-3.25316 -8.820835,-5.33477 -14.897807,-5.32899 -4.458362,0.004 -7.557751,0.9598 -10.64416,3.28165 -5.360897,4.03291 -3.454369,7.23983 5.639458,9.48599 2.683477,0.66281 8.308041,1.63541 10.64291,1.84038 0.871072,0.0765 1.811829,0.1606 2.090572,0.18697 0.937461,0.0887 3.792763,-0.0661 4.751299,-0.25769 z M 117.17834,94.578788 c 6.20581,-0.588489 9.65668,-5.003131 11.04013,-14.123455 0.97936,-6.456439 1.72415,-8.115755 4.63862,-10.334351 1.83431,-1.396338 3.00314,-2.998881 3.12694,-4.28719 0.12293,-1.279305 -0.53183,-1.756385 -2.21519,-1.614089 -1.0804,0.09133 -1.74548,-0.108991 -1.91849,-0.577841 -0.0591,-0.160163 -0.0807,-0.643722 -0.0479,-1.074576 0.19645,-2.585294 -2.37502,-8.105068 -5.04742,-10.834502 -1.27606,-1.303294 -3.00873,-2.04127 -3.79928,-1.618178 -0.36407,0.194843 -0.70401,0.954273 -1.1324,2.529789 -0.65359,2.403756 -0.96558,2.811508 -2.21197,2.890873 -0.58708,0.03738 -1.26009,-0.05272 -2.49518,-0.334056 -3.32211,-0.756726 -6.83541,-1.092816 -13.47449,-1.289001 -5.177246,-0.152986 -6.018309,-0.303093 -6.018309,-1.074107 0,-0.274034 1.02637,-1.677146 1.392223,-1.903254 0.306756,-0.189587 0.634998,-1.091549 0.634998,-1.744888 0,-1.441098 -1.247004,-2.516848 -2.945024,-2.540578 -0.675107,-0.0094 -0.926357,0.05744 -1.694113,0.450904 -1.915372,0.981604 -3.923993,2.77889 -5.073405,4.539611 -3.174346,4.862613 -3.369981,14.571681 -0.48616,24.127485 0.419679,1.390645 1.236532,4.659863 1.769035,7.080053 0.732577,3.32951 1.173671,3.752466 3.369209,3.230663 1.070234,-0.254357 1.268527,-0.26551 2.293734,-0.129013 3.352602,0.446368 6.773572,2.359645 7.023452,3.928067 0.10932,0.686166 0.55591,1.154978 1.89573,1.990049 2.08489,1.299459 5.76645,2.452262 8.65153,2.709053 0.60336,0.0537 1.15404,0.105544 1.22373,0.115202 0.0697,0.0097 0.7447,-0.04104 1.50004,-0.11267 z M 53.783034,91.225297 c 3.295717,-0.693276 6.51097,-2.064416 10.592303,-4.517072 4.879998,-2.932611 8.808396,-6.270861 9.358124,-7.952289 0.622231,-1.903194 0.885475,-5.295625 0.880797,-11.350838 -0.0067,-8.701037 -0.56964,-13.936489 -1.757361,-16.344469 -0.974835,-1.976376 -2.047506,-3.10268 -2.955914,-3.103709 -0.363598,-4.11e-4 -0.444272,0.06161 -0.617452,0.474656 -0.120575,0.287583 -0.205609,0.891812 -0.215422,1.530746 -0.01306,0.85057 -0.05969,1.08741 -0.240068,1.219303 -0.54169,0.396093 -3.08362,0.653364 -7.567949,0.76596 -6.673436,0.16756 -9.541069,0.822455 -14.683797,3.353408 -2.921354,1.437722 -4.017046,1.873234 -4.371048,1.737391 -0.276917,-0.106263 -0.262747,-0.782985 0.04311,-2.058647 0.511571,-2.133673 0.440682,-2.8619 -0.28679,-2.946102 -1.526553,-0.17669 -5.571251,5.076894 -7.650272,9.9368 -0.47031,1.099391 -0.481934,1.163826 -0.477568,2.647234 0.0043,1.453782 0.0258,1.575944 0.491138,2.787429 1.178666,3.068631 2.84756,5.740351 5.263083,8.425637 1.558462,1.732509 2.413539,3.071012 2.413539,3.778059 0,0.177694 -0.127986,0.583397 -0.284414,0.901563 -0.422161,0.858656 -0.393623,2.508014 0.06634,3.833847 1.142557,3.293419 4.025485,5.87996 7.596698,6.815696 1.143908,0.299729 3.14748,0.329488 4.40293,0.0654 z"
       id="path5"
       transform="matrix(7.5,0,0,-7.5,0,1280)" />
    <path
       style="fill:#4d4d4d;stroke-width:0.126701"
       d="m 57.189517,74.707432 c -0.648906,-0.411524 -1.209067,-1.060574 -2.068955,-2.397265 -1.591546,-2.474052 -1.627319,-3.50521 -0.17861,-5.148571 1.941556,-2.202428 3.644825,-1.650655 4.495179,1.45621 0.162528,0.593813 0.225136,1.312312 0.23106,2.651682 0.0093,2.100486 -0.150195,2.862907 -0.717556,3.430268 -0.483047,0.483047 -1.007928,0.485335 -1.761118,0.0077 z"
       id="path6"
       transform="matrix(7.5,0,0,-7.5,0,1280)" />
    <path
       style="fill:#4d4d4d;stroke-width:0.126701"
       d="m 106.99926,75.198735 c -0.14404,-0.0905 -0.19005,-0.373581 -0.19005,-1.169095 0,-0.948983 0.0449,-1.143816 0.46853,-2.030877 0.58694,-1.229173 1.0798,-1.948787 1.8887,-2.757694 0.70934,-0.709332 1.51332,-1.174125 1.92866,-1.114976 0.44926,0.06398 0.76973,0.890756 0.77643,2.003083 0.005,0.807458 -0.0504,1.061068 -0.36758,1.687624 -0.58577,1.157008 -1.66944,2.24856 -2.82263,2.843168 -1.19392,0.61561 -1.43623,0.693223 -1.68206,0.538767 z"
       id="path7"
       transform="matrix(7.5,0,0,-7.5,0,1280)" />
  </g>
</svg>
