<?xml version="1.0" encoding="UTF-8" standalone="no"?>
<svg
   width="148"
   height="148"
   version="1.1"
   id="svg4"
   sodipodi:docname="player-circle-base-Ruin.svg"
   inkscape:version="1.4.2 (f4327f4, 2025-05-13)"
   xml:space="preserve"
   xmlns:inkscape="http://www.inkscape.org/namespaces/inkscape"
   xmlns:sodipodi="http://sodipodi.sourceforge.net/DTD/sodipodi-0.dtd"
   xmlns="http://www.w3.org/2000/svg"
   xmlns:svg="http://www.w3.org/2000/svg"
   xmlns:rdf="http://www.w3.org/1999/02/22-rdf-syntax-ns#"
   xmlns:cc="http://creativecommons.org/ns#"
   xmlns:dc="http://purl.org/dc/elements/1.1/"><metadata
     id="metadata10"><rdf:RDF><cc:Work
         rdf:about=""><dc:format>image/svg+xml</dc:format><dc:type
           rdf:resource="http://purl.org/dc/dcmitype/StillImage" /></cc:Work></rdf:RDF></metadata><defs
     id="defs8"><clipPath
       id="clip"><circle
         cx="74"
         cy="74"
         r="66.5"
         id="circle1" /></clipPath></defs><sodipodi:namedview
     pagecolor="#ffffff"
     bordercolor="#666666"
     borderopacity="1"
     objecttolerance="10"
     gridtolerance="10"
     guidetolerance="10"
     inkscape:pageopacity="0"
     inkscape:pageshadow="2"
     inkscape:window-width="1920"
     inkscape:window-height="1009"
     id="namedview6"
     showgrid="false"
     inkscape:zoom="0.7972973"
     inkscape:cx="242.0678"
     inkscape:cy="-38.254237"
     inkscape:window-x="-8"
     inkscape:window-y="-8"
     inkscape:window-maximized="1"
     inkscape:current-layer="svg4"
     inkscape:showpageshadow="2"
     inkscape:pagecheckerboard="0"
     inkscape:deskcolor="#d1d1d1" /><ellipse
     cx="-69.395813"
     cy="78.328239"
     transform="matrix(0.06031005,-0.99817969,0.99817466,0.06039336,0,0)"
     stroke-miterlimit="10"
     rx="66.51812"
     ry="66.47126"
     id="ellipse2"
     style="fill:#ffffff;stroke:#000000;stroke-width:11.0165987;stroke-miterlimit:10;stroke-opacity:1" /><g
     id="g1"
     transform="matrix(1.0979593,0,0,1.0979593,-254.75642,-121.30928)"><circle
       cx="299.73041"
       cy="178.05722"
       r="57.077499"
       fill="#000000"
       id="circle2"
       style="stroke-width:0.858308" /><g
       clip-path="url(#clip)"
       id="g13"
       transform="matrix(0.85830823,0,0,0.85830823,236.2156,114.54241)"><!-- Linke Hälfte SCHWARZ (kein Gold mehr, nur Kristalle mit outline) --><!-- Kristalle ROT mit gelbem Outline --><polygon
         points="32,44 48,56 32,68 16,56 "
         fill="#880000"
         stroke="#f0c030"
         stroke-width="3"
         id="polygon2" /><polygon
         points="32,46 46,56 32,66 18,56 "
         fill="#cc0000"
         id="polygon3" /><polygon
         points="32,46 46,56 32,54 "
         fill="#ff5555"
         opacity="0.7"
         id="polygon4" /><polygon
         points="29,48 37,54 29,52 "
         fill="#ffffff"
         opacity="0.4"
         id="polygon5" /><polygon
         points="26,62 44,74 26,86 8,74 "
         fill="#880000"
         stroke="#f0c030"
         stroke-width="3"
         id="polygon6" /><polygon
         points="26,64 42,74 26,84 10,74 "
         fill="#cc0000"
         id="polygon7" /><polygon
         points="26,64 42,74 26,72 "
         fill="#ff5555"
         opacity="0.7"
         id="polygon8" /><polygon
         points="23,66 33,72 23,70 "
         fill="#ffffff"
         opacity="0.4"
         id="polygon9" /><polygon
         points="32,80 48,92 32,104 16,92 "
         fill="#880000"
         stroke="#f0c030"
         stroke-width="3"
         id="polygon10" /><polygon
         points="32,82 46,92 32,102 18,92 "
         fill="#cc0000"
         id="polygon11" /><polygon
         points="32,82 46,92 32,90 "
         fill="#ff5555"
         opacity="0.7"
         id="polygon12" /><polygon
         points="29,84 37,90 29,88 "
         fill="#ffffff"
         opacity="0.4"
         id="polygon13" /></g></g></svg>
