<svg width="134" height="134" xmlns="http://www.w3.org/2000/svg" fill="none" viewBox="0 0 134 134"><path fill="#333" d="M133.07 66.795c0-36.727-29.773-66.5-66.5-66.498S.07 30.072.07 66.799s29.773 66.499 66.5 66.498 66.5-29.775 66.5-66.502"/><mask id="a" width="134" height="134" x="0" y="0" maskUnits="userSpaceOnUse" style="mask-type:alpha"><path fill="#3ca3cf" d="M133.07 66.795c0-36.727-29.773-66.5-66.5-66.498S.07 30.072.07 66.799s29.773 66.499 66.5 66.498 66.5-29.775 66.5-66.502"/></mask><g mask="url(#a)"><path fill="#848484" d="M133.07 133.299v-133H.07v133z"/><mask id="b" width="134" height="134" x="0" y="0" maskUnits="userSpaceOnUse" style="mask-type:alpha"><path fill="#848484" d="M133.07 133.299v-133H.07v133z"/></mask><g mask="url(#b)"><path fill="#232323" d="M93.613 69.142c-.604-1.882-.744-3.909-1.551-5.715-.808-1.806-2.604-3.415-4.56-3.084-2.479.424-3.774 3.645-6.27 3.969-2.897.377-5.29-3.418-8.11-2.67-1.418.383-2.313 1.885-2.403 3.338-.09 1.452.464 2.89 1.108 4.212.644 1.323 1.399 2.608 1.749 4.033.844 3.425-.73 6.927-2.213 10.129-1.481 3.2-2.937 6.796-1.862 10.158.761 2.37 2.723 4.34 2.873 6.833.104 1.696-.667 3.319-1.571 4.764-.905 1.446-1.933 2.838-2.447 4.457s-.39 3.582.825 4.77c1.278 1.252 3.474 1.239 4.942.22 1.469-1.018 2.253-2.834 2.337-4.62.076-1.412-.227-2.844.03-4.233s1.334-2.807 2.76-2.72c.63.04 1.21.374 1.838.43 1.629.147 2.847-1.592 3.044-3.215.27-2.216-.63-4.393-1.502-6.45-.87-2.056-1.755-4.242-1.445-6.455s2.303-4.34 4.502-3.97c1.225.214 2.206 1.126 3.004 2.084.797.958 1.498 2.02 2.513 2.74s2.466 1.002 3.487.304c1.482-1.035 1.135-3.338.287-4.94-.513-.972-1.158-2.16-.56-3.082.48-.74 1.542-.854 2.393-.624s1.635.754 2.493.948a3.975 3.975 0 0 0 4.258-1.926c1.715-3.172-1.218-5.735-4.228-5.705s-4.703-.815-5.72-3.98m-57.087 13c.604-1.882.744-3.909 1.552-5.715s2.603-3.415 4.559-3.084c2.48.424 3.774 3.645 6.27 3.969 2.898.377 5.29-3.418 8.11-2.67 1.419.383 2.313 1.885 2.403 3.338.09 1.452-.463 2.89-1.108 4.212-.644 1.323-1.398 2.608-1.748 4.033-.845 3.425.73 6.927 2.212 10.129 1.482 3.2 2.937 6.796 1.862 10.158-.76 2.37-2.723 4.34-2.873 6.833-.103 1.696.668 3.319 1.572 4.764s1.932 2.838 2.446 4.457.39 3.582-.824 4.77c-1.278 1.252-3.474 1.239-4.943.22-1.468-1.018-2.252-2.834-2.336-4.62-.077-1.412.227-2.844-.03-4.233s-1.335-2.807-2.76-2.72c-.63.04-1.211.374-1.839.43-1.628.147-2.846-1.592-3.043-3.215-.27-2.216.63-4.393 1.501-6.449.872-2.056 1.756-4.243 1.446-6.456s-2.303-4.34-4.503-3.97c-1.224.214-2.206 1.126-3.003 2.084s-1.499 2.019-2.513 2.74c-1.015.721-2.466 1.002-3.488.304-1.481-1.035-1.134-3.338-.287-4.94.514-.972 1.158-2.16.56-3.082-.48-.74-1.541-.854-2.392-.624s-1.635.754-2.493.948a3.97 3.97 0 0 1-4.258-1.926c-1.716-3.172 1.218-5.735 4.228-5.705s4.702-.815 5.72-3.98m52.086-33.686c-.604 1.883-.744 3.91-1.551 5.715-.808 1.806-2.604 3.415-4.56 3.085-2.479-.424-3.774-3.645-6.27-3.97-2.897-.377-5.29 3.42-8.11 2.671-1.418-.384-2.313-1.886-2.403-3.338s.464-2.89 1.108-4.213 1.399-2.607 1.749-4.032c.844-3.426-.73-6.928-2.213-10.129-1.481-3.201-2.937-6.797-1.862-10.158.761-2.37 2.723-4.34 2.873-6.834.104-1.696-.667-3.318-1.571-4.764-.905-1.445-1.933-2.837-2.447-4.456s-.39-3.582.825-4.77c1.278-1.252 3.474-1.239 4.942-.22 1.469 1.017 2.253 2.833 2.337 4.62.076 1.411-.227 2.844.03 4.232s1.334 2.808 2.76 2.721c.63-.04 1.21-.374 1.838-.43 1.629-.147 2.847 1.592 3.044 3.214.27 2.217-.63 4.393-1.502 6.45-.87 2.056-1.755 4.243-1.445 6.456s2.303 4.34 4.502 3.97c1.225-.215 2.206-1.126 3.004-2.084.797-.958 1.498-2.02 2.513-2.74 1.014-.722 2.466-1.002 3.487-.304 1.482 1.034 1.135 3.338.287 4.94-.513.972-1.158 2.16-.56 3.081.48.742 1.542.855 2.393.625s1.635-.755 2.493-.948a3.97 3.97 0 0 1 4.258 1.926c1.715 3.171-1.218 5.735-4.228 5.705s-4.703.815-5.72 3.98m-55.087.999c.604 1.883.744 3.91 1.552 5.715.808 1.806 2.603 3.415 4.559 3.085 2.48-.424 3.774-3.645 6.27-3.97 2.898-.377 5.29 3.42 8.11 2.671 1.419-.384 2.313-1.886 2.403-3.338s-.463-2.89-1.108-4.213c-.644-1.322-1.398-2.607-1.748-4.032-.845-3.426.73-6.928 2.212-10.129s2.937-6.797 1.862-10.158c-.76-2.37-2.723-4.34-2.873-6.834-.103-1.696.668-3.318 1.572-4.764.904-1.445 1.932-2.837 2.446-4.456s.39-3.582-.824-4.77c-1.278-1.252-3.474-1.239-4.943-.22-1.468 1.017-2.252 2.833-2.336 4.62-.077 1.412.227 2.844-.03 4.232s-1.335 2.808-2.76 2.721c-.63-.04-1.211-.374-1.839-.43-1.628-.147-2.846 1.592-3.043 3.214-.27 2.217.63 4.393 1.501 6.45.872 2.056 1.756 4.243 1.446 6.456s-2.303 4.34-4.503 3.97c-1.224-.215-2.206-1.126-3.003-2.084s-1.499-2.02-2.513-2.74c-1.015-.722-2.466-1.002-3.488-.304-1.481 1.034-1.134 3.338-.287 4.94.514.972 1.158 2.16.56 3.081-.48.742-1.541.855-2.392.625s-1.635-.755-2.493-.948a3.97 3.97 0 0 0-4.258 1.926c-1.716 3.171 1.218 5.735 4.228 5.705s4.702.815 5.72 3.98"/><path fill="#bbb" d="M5.694 98.686c.16 1.989-.232 3.989-.133 5.985s.853 4.144 2.628 5.125a4.06 4.06 0 0 0 4.25-.204 3.94 3.94 0 0 0 1.395-1.688 3.86 3.86 0 0 0 .264-2.157c-.225-1.364-1.164-2.523-1.481-3.866-.512-2.163.642-4.334 1.727-6.287 1.086-1.953 2.175-4.177 1.537-6.307-.601-2.01-2.571-3.333-3.38-5.259-1.226-2.917.498-6.123 1.297-9.18.447-1.712.594-3.561 0-5.226S11.72 66.52 9.927 66.32s-3.725 1.125-3.817 2.89c-.065 1.236.683 2.345 1.308 3.423.703 1.236 1.266 2.593 1.266 4.02s-.659 2.89-1.915 3.584c-1.041.576-2.536.717-2.95 1.819-.273.726.1 1.527.547 2.163.447.637.993 1.256 1.12 2.01.126.754-.43 1.695-1.216 1.611a2.6 2.6 0 0 1-.949-.439 3.54 3.54 0 0 0-2.296-.434c-.793.12-1.52.504-2.058 1.089a3.37 3.37 0 0 0-.217 4.316c1.25 1.675 2.854.834 4.407 1.534 1.676.75 2.386 3.159 2.537 4.78"/><path fill="#dfdfdf" d="M110.649 77.527a6.4 6.4 0 0 0 3.587-1.37 6.6 6.6 0 0 0 2.199-3.19l.299-.955c.247-.793.494-1.674.208-2.437-.501-1.356-2.443-1.627-3.622-.83-1.179.796-1.772 2.25-2.15 3.65-.379 1.399-.659 2.876-1.475 4.054s-2.437 1.962-3.708 1.31c-1.271-.654-1.59-2.298-1.926-3.684s-1.143-3.014-2.562-3.06c-1.139-.03-2.054 1.085-2.245 2.23s.151 2.3.46 3.418.596 2.304.3 3.422c-.398 1.497-1.755 2.532-3.144 3.172-1.39.639-2.904 1.004-4.208 1.818-1.304.813-2.414 2.216-2.269 3.76.125 1.34 1.152 2.451 1.337 3.784.194 1.393-.58 2.769-1.607 3.71s-2.305 1.553-3.484 2.28c-1.481.907-2.88 2.046-3.75 3.566s-1.136 3.479-.359 5.05 2.736 2.548 4.343 1.895c1.218-.496 1.976-1.711 2.891-2.659.916-.948 2.427-1.674 3.507-.901 1.172.827.902 2.602.892 4.052-.05 1.12.27 2.225.912 3.137.675.874 1.84 1.407 2.898 1.112.955-.268 1.63-1.115 2.193-1.945s1.113-1.708 1.975-2.173a1.93 1.93 0 0 1 1.515-.133 1.98 1.98 0 0 1 1.149 1.013c.418.874 1.317 1.738 1.926 2.451.659.774 1.623 1.34 2.611 1.206 1.459-.191 2.387-1.825 2.368-3.319s-.735-2.879-1.396-4.215c-.662-1.336-1.317-2.773-1.186-4.263.267-3.201 3.767-5.023 5.163-7.899a6.63 6.63 0 0 0 .546-3.743 6.6 6.6 0 0 0-1.586-3.422c-1.15-1.26-2.743-1.99-4.057-3.068s-2.4-2.799-1.91-4.45c.419-1.4 1.89-2.26 3.323-2.377zm-25.999-31a6.4 6.4 0 0 0 3.586-1.37 6.6 6.6 0 0 0 2.199-3.19l.3-.955c.246-.793.493-1.674.207-2.437-.5-1.356-2.443-1.628-3.622-.83-1.179.796-1.772 2.25-2.15 3.65-.379 1.399-.659 2.875-1.475 4.054s-2.437 1.962-3.708 1.31c-1.27-.654-1.59-2.298-1.926-3.684s-1.143-3.014-2.562-3.06c-1.14-.03-2.054 1.084-2.245 2.23s.151 2.3.46 3.418.597 2.304.3 3.423c-.398 1.496-1.755 2.53-3.144 3.17s-2.904 1.005-4.208 1.819c-1.304.813-2.414 2.216-2.269 3.76.125 1.34 1.152 2.451 1.337 3.784.194 1.393-.58 2.769-1.607 3.71s-2.305 1.553-3.484 2.28c-1.481.907-2.88 2.046-3.75 3.566s-1.136 3.48-.359 5.05 2.736 2.548 4.343 1.895c1.218-.496 1.976-1.711 2.891-2.659.916-.948 2.427-1.674 3.507-.9 1.172.826.902 2.601.892 4.05a5.06 5.06 0 0 0 .912 3.138c.675.874 1.84 1.407 2.898 1.112.955-.268 1.63-1.115 2.193-1.945s1.112-1.708 1.975-2.173a1.93 1.93 0 0 1 2.19.255c.198.174.359.387.474.625.418.874 1.317 1.738 1.926 2.451.659.774 1.623 1.34 2.611 1.206 1.459-.191 2.387-1.825 2.368-3.319s-.735-2.88-1.396-4.215c-.662-1.336-1.317-2.773-1.186-4.263.267-3.201 3.767-5.023 5.163-7.899a6.63 6.63 0 0 0 .546-3.743 6.6 6.6 0 0 0-1.586-3.422c-1.15-1.26-2.743-1.99-4.057-3.068s-2.4-2.799-1.91-4.45c.418-1.4 1.89-2.26 3.323-2.377zm-61.159 21a6.4 6.4 0 0 1-3.586-1.37 6.6 6.6 0 0 1-2.199-3.19l-.3-.955c-.247-.793-.493-1.674-.207-2.437.5-1.356 2.443-1.628 3.622-.83 1.179.796 1.771 2.25 2.15 3.65s.659 2.875 1.475 4.054 2.437 1.962 3.708 1.31c1.27-.654 1.59-2.298 1.926-3.684s1.142-3.014 2.562-3.06c1.139-.03 2.054 1.084 2.245 2.23s-.151 2.3-.46 3.418-.597 2.304-.3 3.422c.398 1.497 1.755 2.532 3.144 3.172 1.39.639 2.904 1.004 4.208 1.818 1.304.813 2.413 2.216 2.269 3.76-.125 1.34-1.153 2.451-1.337 3.784-.194 1.393.58 2.769 1.607 3.71s2.304 1.553 3.483 2.28c1.482.907 2.881 2.046 3.75 3.566s1.137 3.48.36 5.05c-.778 1.57-2.737 2.548-4.343 1.895-1.219-.496-1.976-1.711-2.892-2.659s-2.426-1.674-3.506-.9c-1.172.826-.902 2.601-.892 4.05a5.06 5.06 0 0 1-.913 3.138c-.674.874-1.84 1.407-2.897 1.112-.955-.268-1.63-1.115-2.193-1.945s-1.113-1.708-1.976-2.173a1.93 1.93 0 0 0-2.19.255 2 2 0 0 0-.473.625c-.418.874-1.317 1.738-1.926 2.451-.66.774-1.624 1.34-2.612 1.206-1.458-.191-2.387-1.825-2.367-3.319s.734-2.88 1.396-4.215c.662-1.336 1.317-2.773 1.185-4.263-.266-3.201-3.766-5.023-5.163-7.899a6.63 6.63 0 0 1-.545-3.743 6.6 6.6 0 0 1 1.586-3.422c1.15-1.26 2.743-1.99 4.057-3.068 1.313-1.078 2.4-2.799 1.91-4.45-.419-1.4-1.89-2.26-3.323-2.377z"/><path fill="#dfdfdf" d="M58.106 83.916a4.1 4.1 0 0 1-2.254-.834 4 4 0 0 1-1.382-1.942l-.188-.58c-.156-.484-.31-1.02-.13-1.484.314-.826 1.535-.99 2.276-.506.74.485 1.113 1.37 1.351 2.222s.414 1.75.927 2.468 1.532 1.194 2.33.797c.8-.398 1-1.398 1.212-2.242.21-.844.718-1.834 1.61-1.863.716-.018 1.291.66 1.411 1.358.12.697-.095 1.4-.29 2.08s-.374 1.403-.188 2.084c.25.91 1.103 1.54 1.977 1.93.873.389 1.825.611 2.645 1.106s1.517 1.35 1.426 2.29c-.079.815-.724 1.491-.84 2.302-.123.848.364 1.686 1.01 2.259.645.572 1.448.945 2.19 1.388.93.552 1.81 1.245 2.357 2.17.546.926.714 2.118.225 3.074-.488.956-1.72 1.551-2.73 1.154-.765-.302-1.241-1.042-1.817-1.619s-1.525-1.019-2.204-.548c-.737.503-.567 1.584-.56 2.466a3 3 0 0 1-.574 1.91c-.424.532-1.157.856-1.822.677-.6-.163-1.024-.679-1.378-1.185-.354-.505-.7-1.039-1.242-1.322a1.235 1.235 0 0 0-1.674.536c-.263.532-.828 1.057-1.21 1.492-.415.47-1.021.815-1.642.733-.917-.116-1.5-1.11-1.488-2.019.012-.91.461-1.753.877-2.567.416-.813.828-1.687.745-2.594-.167-1.949-2.367-3.057-3.245-4.808a3.92 3.92 0 0 1 .654-4.362c.723-.766 1.724-1.21 2.55-1.867.826-.656 1.509-1.704 1.2-2.709-.262-.852-1.187-1.375-2.088-1.447zm54-37a4.1 4.1 0 0 1-2.254-.834 4 4 0 0 1-1.382-1.942l-.188-.58c-.156-.484-.311-1.02-.131-1.484.315-.826 1.536-.99 2.277-.506.741.485 1.113 1.37 1.351 2.222s.414 1.75.928 2.468c.513.718 1.531 1.194 2.33.797.799-.398 1-1.398 1.211-2.242s.718-1.834 1.61-1.863c.716-.018 1.291.66 1.411 1.358.12.697-.095 1.4-.289 2.08-.195.681-.375 1.403-.189 2.084.251.91 1.103 1.54 1.977 1.93.873.389 1.825.611 2.645 1.106.819.496 1.517 1.35 1.426 2.29-.079.815-.724 1.491-.84 2.302-.122.848.364 1.686 1.01 2.259.645.572 1.448.945 2.189 1.388.932.552 1.811 1.245 2.358 2.17.546.926.714 2.118.225 3.074-.488.956-1.72 1.551-2.73 1.154-.765-.302-1.241-1.042-1.817-1.619s-1.525-1.019-2.204-.548c-.737.503-.567 1.584-.561 2.466a3 3 0 0 1-.573 1.91c-.424.532-1.157.856-1.821.677-.601-.163-1.025-.68-1.379-1.185s-.699-1.04-1.242-1.322a1.24 1.24 0 0 0-1.376.155 1.2 1.2 0 0 0-.298.38c-.263.533-.828 1.058-1.211 1.493-.414.47-1.02.815-1.641.733-.917-.116-1.501-1.11-1.488-2.02.012-.908.461-1.752.877-2.565.416-.814.828-1.688.745-2.595-.167-1.949-2.367-3.057-3.245-4.808a3.93 3.93 0 0 1 .654-4.362c.723-.766 1.724-1.21 2.55-1.867.826-.656 1.509-1.704 1.2-2.709-.262-.851-1.187-1.375-2.088-1.447z"/><path fill="#232323" d="M-11.509 52.527a6.4 6.4 0 0 1-3.586-1.37 6.6 6.6 0 0 1-2.199-3.19l-.3-.955c-.247-.793-.493-1.674-.207-2.437.5-1.356 2.443-1.628 3.622-.83 1.179.796 1.771 2.25 2.15 3.65s.659 2.875 1.475 4.054 2.437 1.962 3.708 1.31c1.27-.654 1.59-2.298 1.926-3.684s1.142-3.014 2.561-3.06c1.14-.03 2.055 1.084 2.246 2.23s-.151 2.3-.46 3.418-.597 2.304-.3 3.423c.398 1.496 1.754 2.53 3.144 3.17s2.904 1.005 4.208 1.819c1.304.813 2.413 2.216 2.269 3.76-.125 1.34-1.153 2.451-1.337 3.784-.194 1.393.58 2.769 1.607 3.71s2.304 1.553 3.483 2.28c1.482.907 2.881 2.046 3.75 3.566s1.136 3.48.36 5.05c-.778 1.57-2.737 2.548-4.344 1.895-1.218-.496-1.975-1.711-2.89-2.659-.916-.948-2.427-1.674-3.507-.9-1.172.826-.902 2.601-.892 4.05a5.06 5.06 0 0 1-.913 3.138c-.675.874-1.84 1.407-2.897 1.112-.955-.268-1.63-1.115-2.193-1.945s-1.113-1.708-1.976-2.173a1.93 1.93 0 0 0-2.19.255 2 2 0 0 0-.473.625c-.418.874-1.317 1.738-1.927 2.451-.658.774-1.623 1.34-2.61 1.206-1.46-.191-2.388-1.825-2.368-3.319s.734-2.88 1.396-4.215c.662-1.336 1.317-2.773 1.185-4.263-.266-3.201-3.766-5.023-5.162-7.899a6.63 6.63 0 0 1-.546-3.743 6.6 6.6 0 0 1 1.586-3.422c1.15-1.26 2.743-1.99 4.057-3.068 1.313-1.078 2.4-2.799 1.91-4.45-.419-1.4-1.89-2.26-3.323-2.377z"/><path fill="#dfdfdf" d="M109.649 43.071a6.4 6.4 0 0 1 3.587 1.37 6.6 6.6 0 0 1 2.199 3.19l.299.955c.247.794.494 1.674.208 2.438-.501 1.356-2.443 1.627-3.622.83s-1.772-2.25-2.15-3.65c-.379-1.4-.659-2.876-1.475-4.054-.817-1.18-2.437-1.963-3.708-1.31s-1.59 2.297-1.926 3.684c-.336 1.386-1.143 3.013-2.562 3.06-1.14.03-2.054-1.085-2.245-2.23s.151-2.3.46-3.419c.31-1.118.597-2.303.3-3.422-.398-1.497-1.755-2.531-3.144-3.17-1.39-.64-2.904-1.005-4.208-1.819s-2.414-2.217-2.269-3.76c.125-1.34 1.152-2.451 1.337-3.784.194-1.393-.58-2.77-1.607-3.71-1.027-.941-2.305-1.554-3.484-2.28-1.481-.908-2.88-2.046-3.75-3.566s-1.136-3.48-.359-5.05 2.736-2.548 4.343-1.895c1.218.496 1.976 1.711 2.891 2.659.916.947 2.427 1.674 3.507.9 1.172-.827.902-2.601.892-4.051a5.06 5.06 0 0 1 .912-3.138c.675-.874 1.84-1.406 2.898-1.111.955.267 1.63 1.115 2.193 1.945s1.113 1.708 1.975 2.173a1.93 1.93 0 0 0 2.19-.256c.198-.174.359-.386.474-.625.418-.873 1.317-1.737 1.926-2.45.659-.774 1.623-1.34 2.611-1.206 1.459.19 2.387 1.825 2.368 3.318s-.735 2.88-1.396 4.216c-.662 1.336-1.317 2.772-1.186 4.263.267 3.2 3.767 5.022 5.163 7.898a6.63 6.63 0 0 1 .546 3.743 6.6 6.6 0 0 1-1.586 3.423c-1.15 1.26-2.743 1.989-4.057 3.067s-2.4 2.8-1.91 4.45c.419 1.4 1.89 2.26 3.323 2.378zm-88.158 12a6.4 6.4 0 0 0-3.586 1.37 6.6 6.6 0 0 0-2.199 3.19l-.3.955c-.247.794-.494 1.674-.207 2.438.5 1.356 2.443 1.627 3.622.83s1.771-2.25 2.15-3.65.659-2.876 1.475-4.054c.817-1.18 2.437-1.963 3.708-1.31 1.27.653 1.59 2.297 1.926 3.684.336 1.386 1.142 3.013 2.562 3.06 1.139.03 2.054-1.085 2.245-2.23s-.151-2.3-.46-3.419c-.31-1.118-.597-2.303-.3-3.422.398-1.497 1.755-2.531 3.144-3.17 1.39-.64 2.904-1.005 4.208-1.819s2.413-2.217 2.269-3.76c-.125-1.34-1.153-2.451-1.337-3.784-.194-1.393.58-2.77 1.607-3.71 1.027-.941 2.304-1.554 3.483-2.28 1.482-.908 2.881-2.046 3.75-3.566s1.137-3.48.36-5.05c-.778-1.57-2.737-2.548-4.343-1.895-1.219.495-1.976 1.711-2.892 2.659s-2.426 1.674-3.506.9c-1.172-.827-.902-2.601-.892-4.051a5.06 5.06 0 0 0-.913-3.138c-.674-.874-1.84-1.406-2.897-1.111-.955.267-1.63 1.115-2.193 1.945s-1.113 1.708-1.976 2.173a1.93 1.93 0 0 1-2.19-.256 2 2 0 0 1-.473-.625c-.418-.873-1.317-1.737-1.926-2.45-.66-.774-1.624-1.34-2.612-1.206-1.458.19-2.387 1.825-2.367 3.318s.734 2.88 1.396 4.216 1.317 2.772 1.185 4.262c-.266 3.202-3.766 5.023-5.163 7.9a6.63 6.63 0 0 0-.545 3.742 6.6 6.6 0 0 0 1.586 3.423c1.15 1.26 2.743 1.989 4.057 3.067 1.313 1.078 2.4 2.8 1.91 4.45-.419 1.4-1.89 2.26-3.323 2.378z"/><path fill="#232323" d="M125.737 85.747c-.194-.943-.499-1.906-1.162-2.61-.664-.703-1.762-1.082-2.64-.663-1.225.58-1.46 2.324-2.609 3.03-1.534.96-3.47-.43-5.285-.434-.622 0-1.233.171-1.764.492-.532.321-.964.78-1.25 1.329a3.35 3.35 0 0 0-.373 1.779c.043.615.255 1.207.614 1.712.834 1.161 2.344 1.703 3.219 2.828 1.235 1.574.954 3.884.057 5.667-.898 1.783-2.308 3.267-3.323 4.98s-1.608 3.907-.71 5.693c.727 1.457 2.241 2.304 3.58 3.194 1.34.889 2.703 2.128 2.8 3.734.124 1.992-1.718 4.047-.716 5.774.669 1.142 2.394 1.354 3.496.617s1.591-2.151 1.504-3.466c-.087-1.314-.67-2.546-1.316-3.691a3.6 3.6 0 0 1-.549-1.328 1.12 1.12 0 0 1 .107-.697c.11-.215.285-.389.502-.498.61-.233 1.243.292 1.892.348 1.143.1 1.899-1.291 1.709-2.413-.191-1.122-.955-2.032-1.481-3.028-.435-.837-.73-1.949-.268-2.835.416-.804 1.424-.996 1.913-1.746.743-1.129.16-2.51.335-3.772.311-2.323 1.363-4.6 1.745-6.971a19.5 19.5 0 0 0-.027-7.025m15.886-10.781c.942-.194 1.905-.5 2.609-1.162.704-.664 1.082-1.762.664-2.64-.581-1.225-2.324-1.46-3.031-2.609-.96-1.534.431-3.47.435-5.285a3.4 3.4 0 0 0-.492-1.764 3.4 3.4 0 0 0-1.329-1.25 3.34 3.34 0 0 0-3.491.241c-1.162.834-1.703 2.344-2.828 3.219-1.574 1.235-3.885.954-5.667.056s-3.267-2.307-4.98-3.322-3.907-1.608-5.693-.71c-1.458.727-2.304 2.24-3.194 3.58s-2.128 2.703-3.735 2.8c-1.992.124-4.047-1.718-5.773-.716-1.142.67-1.354 2.394-.617 3.496s2.151 1.591 3.465 1.504 2.547-.67 3.692-1.316a3.6 3.6 0 0 1 1.328-.55 1.12 1.12 0 0 1 .696.108c.215.11.39.285.499.502.232.61-.292 1.243-.348 1.892-.1 1.143 1.291 1.9 2.413 1.709s2.032-.955 3.028-1.48c.836-.436 1.948-.73 2.835-.269.803.416.996 1.424 1.746 1.913 1.129.743 2.51.16 3.771.335 2.324.311 4.602 1.363 6.972 1.745 2.324.417 4.704.408 7.025-.027M7.404 85.747c.194-.943.499-1.906 1.162-2.61.663-.703 1.762-1.082 2.64-.663 1.225.58 1.46 2.324 2.608 3.03 1.534.96 3.47-.43 5.285-.434.623 0 1.233.171 1.765.492s.964.78 1.25 1.329a3.35 3.35 0 0 1-.241 3.49c-.834 1.162-2.345 1.704-3.219 2.829-1.236 1.574-.954 3.884-.057 5.667.898 1.783 2.308 3.267 3.323 4.98 1.014 1.713 1.607 3.907.71 5.693-.727 1.457-2.241 2.304-3.58 3.194-1.34.889-2.704 2.128-2.8 3.734-.125 1.992 1.717 4.047.716 5.774-.67 1.142-2.395 1.354-3.497.617s-1.59-2.151-1.503-3.466c.087-1.314.67-2.546 1.316-3.691a3.6 3.6 0 0 0 .55-1.328 1.125 1.125 0 0 0-.61-1.195c-.61-.233-1.243.292-1.893.348-1.142.1-1.899-1.291-1.708-2.413s.955-2.032 1.48-3.028c.436-.837.73-1.949.268-2.835-.415-.804-1.423-.996-1.912-1.746-.744-1.129-.16-2.51-.335-3.772-.311-2.323-1.363-4.6-1.745-6.971a19.4 19.4 0 0 1 .027-7.025m118.333-38.895c-.194.942-.499 1.905-1.162 2.609-.664.704-1.762 1.082-2.64.664-1.225-.581-1.46-2.324-2.609-3.031-1.534-.96-3.47.431-5.285.435a3.4 3.4 0 0 1-1.764-.492 3.4 3.4 0 0 1-1.25-1.33 3.35 3.35 0 0 1-.373-1.778 3.35 3.35 0 0 1 .614-1.712c.834-1.162 2.344-1.703 3.219-2.828 1.235-1.574.954-3.885.057-5.667-.898-1.783-2.308-3.267-3.323-4.98s-1.608-3.907-.71-5.693c.727-1.458 2.241-2.304 3.58-3.194 1.34-.89 2.703-2.128 2.8-3.735.124-1.992-1.718-4.047-.716-5.773.669-1.142 2.394-1.354 3.496-.617 1.102.736 1.591 2.15 1.504 3.465s-.67 2.547-1.316 3.692a3.6 3.6 0 0 0-.549 1.328 1.12 1.12 0 0 0 .107.696c.11.215.285.39.502.5.61.231 1.243-.293 1.892-.35 1.143-.1 1.899 1.292 1.709 2.414-.191 1.122-.955 2.032-1.481 3.028-.435.836-.73 1.948-.268 2.835.416.803 1.424.996 1.913 1.746.743 1.129.16 2.51.335 3.771.311 2.324 1.363 4.602 1.745 6.972a19.5 19.5 0 0 1-.027 7.025"/><path fill="#bbb" d="M14.737 62.852c-.194.942-.5 1.905-1.162 2.609-.664.704-1.762 1.082-2.64.664-1.225-.581-1.46-2.324-2.609-3.031-1.534-.96-3.47.431-5.285.435a3.4 3.4 0 0 1-1.764-.492 3.4 3.4 0 0 1-1.25-1.33 3.35 3.35 0 0 1 .24-3.49c.835-1.162 2.345-1.703 3.22-2.828 1.235-1.574.954-3.885.057-5.667-.898-1.783-2.308-3.267-3.323-4.98s-1.608-3.907-.71-5.693c.727-1.458 2.24-2.304 3.58-3.194s2.703-2.128 2.8-3.735c.124-1.992-1.718-4.047-.716-5.773.67-1.142 2.394-1.355 3.496-.617 1.102.736 1.591 2.15 1.504 3.465s-.67 2.547-1.316 3.692a3.6 3.6 0 0 0-.55 1.328 1.12 1.12 0 0 0 .61 1.195c.61.233 1.243-.292 1.892-.348 1.143-.1 1.9 1.29 1.709 2.413s-.955 2.032-1.48 3.028c-.436.836-.73 1.948-.269 2.835.416.803 1.424.996 1.913 1.746.743 1.129.16 2.51.335 3.771.311 2.324 1.363 4.602 1.745 6.972a19.4 19.4 0 0 1-.027 7.025"/><path fill="#232323" d="M11.404 34.852c.194.942.499 1.905 1.162 2.609s1.762 1.082 2.64.664c1.225-.581 1.46-2.324 2.608-3.031 1.534-.96 3.47.431 5.285.435a3.4 3.4 0 0 0 1.765-.492 3.4 3.4 0 0 0 1.25-1.33 3.35 3.35 0 0 0-.241-3.49c-.834-1.162-2.345-1.703-3.219-2.828-1.236-1.574-.954-3.884-.057-5.667.898-1.783 2.308-3.267 3.323-4.98 1.014-1.713 1.607-3.907.71-5.693-.727-1.458-2.241-2.304-3.58-3.194-1.34-.89-2.704-2.128-2.8-3.735-.125-1.992 1.717-4.047.716-5.773-.67-1.142-2.395-1.354-3.497-.617s-1.59 2.15-1.504 3.465c.088 1.315.67 2.547 1.317 3.692.27.402.457.853.55 1.328a1.12 1.12 0 0 1-.61 1.195c-.61.232-1.243-.292-1.893-.349-1.142-.1-1.899 1.292-1.708 2.414s.955 2.032 1.48 3.028c.436.836.73 1.948.268 2.835-.415.803-1.423.996-1.912 1.746-.744 1.129-.16 2.51-.335 3.771-.312 2.324-1.363 4.601-1.745 6.972a19.4 19.4 0 0 0 .027 7.025M56.083 65.48c-.303.914-.52 1.9-.298 2.841s.984 1.818 1.954 1.895c1.352.11 2.426-1.283 3.775-1.32 1.808-.064 2.789 2.108 4.36 3.019.539.31 1.152.468 1.773.455a3.4 3.4 0 0 0 1.747-.525 3.35 3.35 0 0 0 1.537-3.144c-.142-1.423-1.18-2.647-1.374-4.059-.283-1.98 1.116-3.84 2.785-4.936 1.668-1.095 3.631-1.675 5.367-2.651 1.735-.976 3.346-2.58 3.461-4.576.1-1.625-.788-3.115-1.503-4.556-.716-1.44-1.277-3.194-.558-4.634.889-1.787 3.512-2.646 3.507-4.642-.009-1.323-1.396-2.37-2.72-2.283-1.322.088-2.452 1.068-3.034 2.25s-.693 2.54-.706 3.855c.033.483-.03.968-.189 1.425a1.12 1.12 0 0 1-1.125.73c-.644-.104-.93-.874-1.465-1.248-.939-.657-2.29.169-2.685 1.236-.396 1.067-.19 2.237-.232 3.362-.041.943-.342 2.053-1.186 2.59-.761.488-1.73.15-2.53.556-1.207.605-1.393 2.093-2.175 3.098-1.431 1.857-3.481 3.303-4.997 5.165a19.4 19.4 0 0 0-3.489 6.097m68.143 67.375a8 8 0 0 1 .844-1.698 6 6 0 0 0-.181-.688c-.969-2.976-4.43-4.512-7.471-4.105-2.26.303-6.989 2.045-7.316 4.749a8.5 8.5 0 0 0 .094 2.186h13.882q.069-.222.148-.444m-115.311 0a8 8 0 0 0-.845-1.698q.07-.35.182-.688c.969-2.976 4.43-4.512 7.47-4.105 2.26.303 6.99 2.045 7.316 4.749a8.4 8.4 0 0 1-.094 2.186H9.063q-.07-.222-.148-.444M124.226-.256a8 8 0 0 0 .844 1.697 6 6 0 0 1-.181.69c-.969 2.974-4.43 4.51-7.471 4.104-2.26-.303-6.989-2.046-7.316-4.749a8.5 8.5 0 0 1 .094-2.187h13.882q.069.222.148.445"/><path fill="#232323" d="M8.915-.256A8 8 0 0 1 8.07 1.44q.07.351.182.69c.969 2.974 4.43 4.51 7.47 4.104 2.26-.303 6.99-2.046 7.316-4.749A8.4 8.4 0 0 0 22.944-.7H9.063q-.07.222-.148.445"/><path fill="#dfdfdf" d="M87.062 132.199c.091-1.303-.606-2.727-1.85-3.125-1.242-.398-2.617.273-3.853-.115-1.867-.584-2.332-3.121-3.969-4.191-1.412-.918-3.5-.422-4.511.921-1.01 1.343-1.044 3.297-.266 4.799.562 1.083 1.469 1.934 2.331 2.811h11.89c.122-.355.2-.725.228-1.1m-41.984 0c-.09-1.303.607-2.727 1.85-3.125s2.617.273 3.854-.115c1.866-.584 2.331-3.121 3.969-4.191 1.411-.918 3.5-.422 4.51.921 1.011 1.343 1.045 3.297.267 4.799-.563 1.083-1.47 1.934-2.331 2.811h-11.89a4.4 4.4 0 0 1-.229-1.1M87.062 1.4c.091 1.302-.606 2.726-1.85 3.125-1.242.398-2.617-.274-3.853.114-1.867.584-2.332 3.122-3.969 4.192-1.412.918-3.5.422-4.511-.921-1.01-1.344-1.044-3.298-.266-4.8.562-1.083 1.469-1.933 2.331-2.81h11.89q.184.534.228 1.1m-41.984 0c-.09 1.302.607 2.726 1.85 3.125 1.243.398 2.617-.274 3.854.114 1.866.584 2.331 3.122 3.969 4.192 1.411.918 3.5.422 4.51-.921 1.011-1.344 1.045-3.298.267-4.8-.563-1.083-1.47-1.933-2.331-2.81h-11.89q-.185.534-.229 1.1"/><path fill="#bbb" d="M107.635 130.444c-1.641-.792-3.509-.843-5.193-1.524-2.297-.928-4.132-.732-6.46.037a6 6 0 0 0-2.067.989c-.591.502-.985 1.318-.798 2.08.17.481.443.916.798 1.273h16.155c-.292-1.243-1.29-2.296-2.435-2.855m-82.129 0c1.64-.792 3.509-.843 5.192-1.524 2.298-.928 4.133-.732 6.46.037a6 6 0 0 1 2.068.989c.59.502.985 1.318.797 2.08a3.4 3.4 0 0 1-.797 1.273H23.07c.292-1.243 1.29-2.296 2.436-2.855M107.635 3.155c-1.641.792-3.509.843-5.193 1.524-2.297.928-4.132.731-6.46-.038a6 6 0 0 1-2.067-.989c-.591-.5-.985-1.317-.798-2.08.17-.48.443-.915.798-1.273h16.155c-.292 1.243-1.29 2.297-2.435 2.856m-82.129 0c1.64.792 3.509.843 5.192 1.524 2.298.928 4.133.731 6.46-.038a6 6 0 0 0 2.068-.989c.59-.5.985-1.317.797-2.08A3.4 3.4 0 0 0 39.226.3H23.07c.292 1.243 1.29 2.297 2.436 2.856"/><path fill="#232323" d="M132.148 101.39a.3.3 0 0 1-.114-.027c-1.175-.245-2.559.219-3.03 1.312-.336.737-.188 1.588-.054 2.382l.101.616c.367 2.304.559 4.756-.616 6.727-.871 1.471-2.356 2.446-3.46 3.761a8.35 8.35 0 0 0-1.895 4.784c-.074 1.228.266 2.661 1.38 3.175 1.447.673 3.029-.672 3.841-2.018a11.8 11.8 0 0 0 1.602-5.18c.044-.673.037-1.346.313-1.948s.939-1.093 1.575-.912c.636.182.916.865 1.135 1.47l.144.444V101.76c-.29-.163-.6-.287-.922-.37m-132.155 0a.3.3 0 0 0 .114-.027c1.175-.245 2.558.219 3.03 1.312.336.737.188 1.588.053 2.382l-.1.616c-.368 2.304-.56 4.756.615 6.727.872 1.471 2.357 2.446 3.46 3.761a8.34 8.34 0 0 1 1.896 4.784c.074 1.228-.266 2.661-1.38 3.175-1.448.673-3.03-.672-3.841-2.018a11.8 11.8 0 0 1-1.602-5.18c-.044-.673-.037-1.346-.313-1.948s-.94-1.093-1.576-.912c-.636.182-.915.865-1.134 1.47l-.145.444V101.76q.437-.245.923-.37m132.155-69.182a.3.3 0 0 0-.114.027c-1.175.246-2.559-.218-3.03-1.312-.336-.736-.188-1.587-.054-2.381l.101-.616c.367-2.304.559-4.757-.616-6.728-.871-1.47-2.356-2.445-3.46-3.76a8.34 8.34 0 0 1-1.895-4.784c-.074-1.228.266-2.661 1.38-3.176 1.447-.673 3.029.673 3.841 2.019a11.8 11.8 0 0 1 1.602 5.18c.044.673.037 1.346.313 1.948s.939 1.093 1.575.911.916-.864 1.135-1.47l.144-.444v14.216q-.437.246-.922.37m-132.155 0q.057 0 .114.027c1.175.246 2.558-.218 3.03-1.312.336-.736.188-1.587.053-2.381l-.1-.616c-.368-2.304-.56-4.757.615-6.728.872-1.47 2.357-2.445 3.46-3.76a8.34 8.34 0 0 0 1.896-4.784c.074-1.228-.266-2.661-1.38-3.176-1.448-.673-3.03.673-3.841 2.019a11.8 11.8 0 0 0-1.602 5.18c-.044.673-.037 1.346-.313 1.948s-.94 1.093-1.576.911-.915-.864-1.134-1.47l-.145-.444v14.216q.437.246.923.37"/><path fill="#dfdfdf" d="M129.369 127.539c-1.776.552-3.317 1.794-4.344 3.504a8.6 8.6 0 0 0-.815 1.788q-.075.23-.14.468h9v-5.542a5.22 5.22 0 0 0-3.701-.218m-126.597 0c1.776.552 3.316 1.794 4.344 3.504a8.6 8.6 0 0 1 .954 2.256h-9v-5.542c1.18-.524 2.48-.6 3.702-.218M129.369 5.06c-1.776-.552-3.317-1.795-4.344-3.504a8.6 8.6 0 0 1-.815-1.789 10 10 0 0 1-.14-.468h9v5.543a5.22 5.22 0 0 1-3.701.218m-126.597 0c1.776-.552 3.316-1.795 4.344-3.504A8.6 8.6 0 0 0 8.07-.701h-9v5.543c1.18.523 2.48.6 3.702.218"/><path fill="#bbb" d="M88.447 96.913c-.16-1.99.232-3.99.133-5.986s-.853-4.143-2.629-5.125a4.06 4.06 0 0 0-4.25.205 3.94 3.94 0 0 0-1.394 1.688 3.86 3.86 0 0 0-.265 2.157c.225 1.363 1.164 2.522 1.482 3.865.512 2.164-.642 4.335-1.728 6.287-1.085 1.953-2.174 4.177-1.536 6.308.6 2.009 2.57 3.332 3.38 5.258 1.225 2.918-.499 6.123-1.297 9.181-.448 1.712-.594 3.561 0 5.226.593 1.664 2.078 3.101 3.87 3.302s3.725-1.125 3.818-2.89c.064-1.236-.683-2.345-1.308-3.424-.703-1.236-1.267-2.592-1.267-4.019s.66-2.891 1.916-3.584c1.04-.576 2.536-.717 2.95-1.819.272-.727-.1-1.527-.547-2.164-.447-.636-.994-1.256-1.12-2.009-.126-.754.43-1.695 1.216-1.611.343.08.666.229.949.438a3.53 3.53 0 0 0 4.354-.654 3.37 3.37 0 0 0 .217-4.316c-1.25-1.675-2.854-.834-4.407-1.534-1.677-.751-2.387-3.159-2.537-4.78m48-29c-.16-1.99.232-3.99.133-5.986s-.853-4.143-2.629-5.124a4.06 4.06 0 0 0-4.25.204 3.94 3.94 0 0 0-1.394 1.688 3.86 3.86 0 0 0-.265 2.157c.225 1.363 1.164 2.522 1.482 3.865.512 2.164-.642 4.335-1.728 6.287-1.085 1.953-2.174 4.177-1.536 6.307.601 2.01 2.571 3.333 3.38 5.26 1.225 2.917-.499 6.122-1.298 9.18-.447 1.712-.594 3.56 0 5.225.595 1.665 2.08 3.102 3.872 3.303s3.724-1.125 3.816-2.89c.065-1.236-.682-2.345-1.307-3.424-.703-1.236-1.267-2.592-1.267-4.02 0-1.426.659-2.89 1.916-3.583 1.041-.576 2.536-.717 2.949-1.819.273-.727-.099-1.527-.546-2.164-.447-.636-.993-1.256-1.12-2.01-.126-.753.43-1.694 1.216-1.61.343.08.667.23.949.438.691.4 1.502.554 2.295.434a3.5 3.5 0 0 0 2.058-1.088 3.37 3.37 0 0 0 .218-4.316c-1.25-1.675-2.854-.834-4.408-1.534-1.676-.75-2.386-3.159-2.536-4.78m-37.753-18c.16-1.99-.233-3.99-.133-5.986.098-1.996.853-4.143 2.628-5.124a4.07 4.07 0 0 1 4.251.204 3.95 3.95 0 0 1 1.394 1.688c.293.68.385 1.428.265 2.157-.226 1.363-1.165 2.522-1.482 3.865-.512 2.164.642 4.335 1.727 6.287 1.086 1.953 2.175 4.177 1.537 6.308-.601 2.01-2.571 3.332-3.38 5.258-1.226 2.918.498 6.123 1.297 9.181.447 1.712.594 3.56 0 5.225s-2.079 3.102-3.871 3.303-3.725-1.125-3.817-2.89c-.065-1.236.683-2.345 1.308-3.424.703-1.236 1.266-2.592 1.266-4.02 0-1.426-.659-2.89-1.915-3.583-1.041-.576-2.537-.717-2.95-1.819-.273-.727.1-1.527.547-2.164.447-.636.993-1.256 1.12-2.01.126-.753-.43-1.694-1.216-1.61-.344.08-.667.23-.949.438-.691.4-1.502.554-2.296.434a3.5 3.5 0 0 1-2.058-1.088 3.37 3.37 0 0 1-.217-4.316c1.25-1.675 2.854-.834 4.407-1.534 1.676-.75 2.386-3.159 2.537-4.78"/><path fill="#dfdfdf" d="M65.447 43.686c-.16 1.99.232 3.99.133 5.985-.099 1.997-.853 4.144-2.628 5.125a4.06 4.06 0 0 1-4.251-.204 3.94 3.94 0 0 1-1.394-1.688 3.86 3.86 0 0 1-.265-2.157c.225-1.364 1.164-2.523 1.482-3.866.512-2.163-.642-4.334-1.728-6.287s-2.174-4.177-1.536-6.307c.6-2.01 2.57-3.333 3.38-5.259 1.225-2.917-.499-6.123-1.297-9.18-.448-1.712-.595-3.561 0-5.226.593-1.665 2.078-3.102 3.87-3.302 1.793-.202 3.725 1.125 3.818 2.89.064 1.236-.683 2.345-1.308 3.423-.703 1.236-1.267 2.593-1.267 4.02s.66 2.89 1.916 3.584c1.04.576 2.536.716 2.95 1.819.272.726-.1 1.527-.547 2.163-.447.637-.994 1.256-1.12 2.01s.43 1.695 1.216 1.611c.343-.08.666-.23.949-.439a3.54 3.54 0 0 1 2.295-.434 3.5 3.5 0 0 1 2.059 1.089 3.37 3.37 0 0 1 .217 4.316c-1.25 1.675-2.854.834-4.407 1.534-1.677.75-2.387 3.159-2.537 4.78m-26 77c-.16 1.989.232 3.989.133 5.985s-.853 4.144-2.628 5.125a4.06 4.06 0 0 1-4.251-.204 3.94 3.94 0 0 1-1.394-1.688 3.86 3.86 0 0 1-.265-2.157c.225-1.364 1.164-2.523 1.482-3.866.512-2.164-.642-4.334-1.728-6.287s-2.174-4.177-1.536-6.307c.6-2.01 2.57-3.333 3.38-5.259 1.225-2.917-.499-6.123-1.297-9.18-.448-1.712-.594-3.561 0-5.226.593-1.665 2.079-3.102 3.87-3.302 1.793-.201 3.725 1.125 3.818 2.89.064 1.236-.683 2.345-1.308 3.423-.703 1.236-1.267 2.593-1.267 4.02s.66 2.89 1.916 3.584c1.04.576 2.536.716 2.95 1.818.272.727-.1 1.528-.547 2.164s-.993 1.256-1.12 2.01c-.126.754.43 1.695 1.216 1.611.343-.08.666-.23.949-.439a3.54 3.54 0 0 1 2.295-.434 3.5 3.5 0 0 1 2.058 1.089 3.38 3.38 0 0 1 .893 2.12 3.37 3.37 0 0 1-.675 2.196c-1.25 1.675-2.854.834-4.407 1.534-1.677.75-2.387 3.159-2.537 4.78"/><path fill="#bbb" d="M42.694 72.686c.16 1.99-.233 3.99-.134 5.985.1 1.997.854 4.144 2.63 5.125a4.06 4.06 0 0 0 4.25-.204 3.94 3.94 0 0 0 1.394-1.688c.293-.68.385-1.428.264-2.157-.225-1.364-1.164-2.523-1.481-3.866-.512-2.163.642-4.334 1.727-6.287 1.086-1.953 2.175-4.177 1.537-6.307-.601-2.01-2.571-3.333-3.38-5.259-1.226-2.917.498-6.123 1.297-9.18.447-1.712.594-3.561 0-5.226s-2.079-3.102-3.871-3.303c-1.792-.2-3.725 1.126-3.817 2.891-.065 1.236.683 2.345 1.308 3.423.703 1.236 1.266 2.593 1.266 4.02s-.659 2.89-1.915 3.584c-1.041.576-2.536.716-2.95 1.819-.273.726.1 1.527.547 2.163.447.637.993 1.256 1.12 2.01.126.754-.43 1.695-1.216 1.611a2.6 2.6 0 0 1-.949-.439 3.54 3.54 0 0 0-2.296-.434c-.793.12-1.52.504-2.058 1.089a3.37 3.37 0 0 0-.217 4.316c1.25 1.675 2.854.834 4.407 1.534 1.676.75 2.386 3.159 2.537 4.78"/><path fill="#232323" d="M67.9 121.643a12.7 12.7 0 0 0-.26-7.335c-.887-2.567-2.638-5.061-2.136-7.741.191-1.024.836-2.06 1.815-2.24.896-.167 1.789.453 2.272 1.26s.635 1.78.781 2.72c-.346.897.175 1.587.598 2.447.422.86.953 1.697 1.077 2.667.136 1.147-.356 2.257-.598 3.384-.359 1.667-.171 3.411-.158 5.124.012 1.714-.188 3.531-1.186 4.888-1.093 1.487-3.406 2.123-4.67.633a1.45 1.45 0 0 1-.314-.587 1.5 1.5 0 0 1-.023-.673c.187-.87 1.08-.913 1.588-1.437a1.89 1.89 0 0 0 .273-1.923 3 3 0 0 0-.155-.334.74.74 0 0 1 .168-.904.655.655 0 0 1 .877.031z"/><path fill="#bbb" d="M106.323 115.386c-.335-1.382-.372-2.814-.623-4.213s-.732-2.821-1.756-3.811c-1.023-.99-2.693-1.426-3.927-.705-2.007 1.173-1.813 4.473-3.813 5.649s-4.466-.552-6.771-.375a4.2 4.2 0 0 0-2.696 1.409 4.16 4.16 0 0 0-1.03 2.847c.093 1.489 1.003 2.937.669 4.386-.335 1.379-1.693 2.216-2.774 3.143s-2.007 2.489-1.264 3.698c.669 1.097 2.375 1.1 3.476.416s1.796-1.838 2.616-2.841c.819-1.004 1.936-1.941 3.234-1.897 1.188.039 2.168.88 3.138 1.565s2.244 1.259 3.308.734c1.184-.585 1.442-2.2 2.472-3.024a3.09 3.09 0 0 1 2.747-.425 7.1 7.1 0 0 1 2.475 1.442c.947.778 1.827 1.638 2.843 2.326s2.212 1.183 3.436 1.12c1.465-.073 3.194-1.246 2.967-2.888-.187-1.349-1.224-1.279-2.342-1.515-3.325-.728-5.633-3.871-6.385-7.041m-80.505 0c.335-1.382.371-2.814.622-4.213s.733-2.821 1.756-3.811 2.693-1.426 3.928-.705c2.007 1.173 1.813 4.473 3.813 5.649s4.466-.552 6.77-.375a4.2 4.2 0 0 1 2.697 1.409 4.16 4.16 0 0 1 1.03 2.847c-.094 1.489-1.003 2.937-.669 4.386.335 1.379 1.693 2.216 2.773 3.143s2.007 2.489 1.265 3.698c-.67 1.097-2.375 1.1-3.476.416s-1.796-1.838-2.616-2.841-1.937-1.941-3.235-1.897c-1.187.039-2.167.88-3.137 1.565s-2.245 1.259-3.309.734c-1.184-.585-1.441-2.2-2.472-3.024a3.09 3.09 0 0 0-2.746-.425 7.1 7.1 0 0 0-2.476 1.442c-.946.778-1.826 1.638-2.843 2.326s-2.21 1.183-3.435 1.12c-1.465-.073-3.195-1.246-2.967-2.888.187-1.349 1.224-1.279 2.341-1.515 3.325-.728 5.633-3.871 6.386-7.041m80.505-97.174c-.335 1.383-.372 2.815-.623 4.214s-.732 2.82-1.756 3.81c-1.023.991-2.693 1.426-3.927.705-2.007-1.173-1.813-4.472-3.813-5.648-2-1.177-4.466.551-6.771.375a4.2 4.2 0 0 1-2.696-1.409 4.16 4.16 0 0 1-1.03-2.847c.093-1.489 1.003-2.938.669-4.386-.335-1.38-1.693-2.217-2.774-3.144s-2.007-2.488-1.264-3.698c.669-1.096 2.375-1.1 3.476-.415 1.1.684 1.796 1.837 2.616 2.84.819 1.004 1.936 1.941 3.234 1.898 1.188-.04 2.168-.88 3.138-1.565s2.244-1.26 3.308-.734c1.184.585 1.442 2.2 2.472 3.023a3.08 3.08 0 0 0 2.747.426 7.1 7.1 0 0 0 2.475-1.442c.947-.778 1.827-1.638 2.843-2.326s2.212-1.183 3.436-1.12c1.465.073 3.194 1.246 2.967 2.887-.187 1.35-1.224 1.28-2.342 1.516-3.325.727-5.633 3.87-6.385 7.04m-80.505 0c.335 1.383.371 2.815.622 4.214s.733 2.82 1.756 3.81 2.693 1.426 3.928.705c2.007-1.173 1.813-4.472 3.813-5.648 2-1.177 4.466.551 6.77.375a4.2 4.2 0 0 0 2.697-1.409 4.16 4.16 0 0 0 1.03-2.847c-.094-1.489-1.003-2.938-.669-4.386.335-1.38 1.693-2.217 2.773-3.144s2.007-2.488 1.265-3.698c-.67-1.096-2.375-1.1-3.476-.415-1.1.684-1.796 1.837-2.616 2.84-.82 1.004-1.937 1.941-3.235 1.898-1.187-.04-2.167-.88-3.137-1.565s-2.245-1.26-3.309-.734c-1.184.585-1.441 2.2-2.472 3.023a3.08 3.08 0 0 1-2.746.426 7.1 7.1 0 0 1-2.476-1.442c-.946-.778-1.826-1.638-2.843-2.326s-2.21-1.183-3.435-1.12c-1.465.073-3.195 1.246-2.967 2.887.187 1.35 1.224 1.28 2.341 1.516 3.325.727 5.633 3.87 6.386 7.04"/><path fill="#232323" d="M101.945 120.773c-.228-1.321-.208-2.733-.831-3.925-.622-1.191-2.242-2.026-3.338-1.244-.845.601-.944 1.845-.633 2.832.312.987.934 1.848 1.295 2.819s.384 2.191-.364 2.907c-.662.637-1.699.66-2.514 1.09a2.75 2.75 0 0 0 .165 4.969c.641.28 1.364.307 2.024.077 1.12-.386 1.988-1.475 3.173-1.495 1.103-.02 1.957.898 2.878 1.502 1.027.66 3.557 1.492 4.703.617 1.344-1.027 0-2.129-.938-2.69-2.828-1.69-5.043-4.106-5.62-7.459m28-36c-.228-1.32-.208-2.733-.831-3.925-.622-1.191-2.242-2.026-3.338-1.244-.845.6-.944 1.845-.633 2.832.312.987.934 1.848 1.295 2.819s.384 2.191-.364 2.907c-.662.637-1.699.66-2.514 1.09a2.752 2.752 0 0 0 .166 4.97c.64.279 1.363.306 2.023.076 1.12-.386 1.987-1.475 3.173-1.495 1.103-.02 1.957.898 2.878 1.502 1.027.66 3.557 1.491 4.703.617 1.344-1.027 0-2.129-.938-2.69-2.828-1.69-5.043-4.106-5.62-7.46m-98.75 36.001c.229-1.321.209-2.733.831-3.925.623-1.191 2.242-2.026 3.339-1.244.844.601.944 1.845.632 2.832s-.934 1.848-1.295 2.819-.384 2.191.365 2.907c.662.637 1.699.66 2.513 1.09a2.75 2.75 0 0 1-.166 4.969c-.64.28-1.363.307-2.023.077-1.12-.386-1.987-1.475-3.172-1.495-1.103-.02-1.958.898-2.878 1.502-1.027.66-3.557 1.492-4.703.617-1.345-1.027 0-2.129.937-2.69 2.828-1.69 5.044-4.106 5.62-7.459m70.75-107.947c-.228 1.32-.208 2.733-.831 3.924-.622 1.192-2.242 2.027-3.338 1.245-.845-.601-.944-1.845-.633-2.832.312-.987.934-1.849 1.295-2.819s.384-2.191-.364-2.908c-.662-.637-1.699-.66-2.514-1.089a2.75 2.75 0 0 1-1.263-3.539 2.76 2.76 0 0 1 1.429-1.43 2.77 2.77 0 0 1 2.023-.077c1.12.386 1.988 1.475 3.173 1.495 1.103.02 1.957-.898 2.878-1.502 1.027-.66 3.557-1.492 4.703-.617 1.344 1.026 0 2.129-.938 2.69-2.828 1.69-5.043 4.106-5.62 7.459m-15 108c-.228 1.32-.208 2.733-.83 3.924-.623 1.192-2.243 2.027-3.34 1.245-.844-.601-.943-1.845-.632-2.832.312-.987.934-1.849 1.295-2.819s.384-2.192-.364-2.908c-.662-.637-1.699-.66-2.514-1.089a2.747 2.747 0 0 1-1.263-3.539 2.76 2.76 0 0 1 1.429-1.431 2.77 2.77 0 0 1 2.023-.076c1.12.386 1.988 1.475 3.173 1.495 1.103.019 1.957-.898 2.878-1.502 1.027-.66 3.557-1.492 4.703-.617 1.344 1.026 0 2.129-.938 2.69-2.828 1.69-5.043 4.106-5.62 7.459m-55.75-108c.229 1.32.209 2.733.831 3.924.623 1.192 2.242 2.027 3.339 1.245.844-.601.944-1.845.632-2.832s-.934-1.849-1.295-2.819-.384-2.191.365-2.908c.662-.637 1.699-.66 2.513-1.089a2.76 2.76 0 0 0 1.33-1.522 2.75 2.75 0 0 0-.067-2.017 2.76 2.76 0 0 0-1.428-1.43A2.77 2.77 0 0 0 35.39 3.3c-1.12.386-1.987 1.475-3.172 1.495-1.103.02-1.958-.898-2.878-1.502-1.027-.66-3.557-1.492-4.703-.617-1.345 1.026 0 2.129.937 2.69 2.828 1.69 5.044 4.106 5.62 7.459"/><path fill="#bbb" d="M101.299 98.775c.389-.754.765-1.547.771-2.392s-.455-1.748-1.28-2.007c-.92-.291-1.888.295-2.59.948-.7.654-1.362 1.438-2.3 1.677-1.06.269-2.14-.233-3.18-.566-1.041-.334-2.37-.424-3.052.41-.941 1.156.17 2.985-.522 4.296s-2.66 1.237-4.172 1.515c-1.16.231-2.23.78-3.08 1.583a6 6 0 0 0-1.72 2.949c-.36 1.567.212 3.545 1.788 4.017 1.127.324 2.364-.226 3.168-1.061.805-.836 1.287-1.91 1.842-2.914.681-1.243 1.522-2.447 2.699-3.266s2.752-1.204 4.112-.712c2.074.748 1.828 4.26 3.733 1.654a46.4 46.4 0 0 0 3.783-6.13m-70.457-.001c-.39-.754-.765-1.547-.772-2.392-.006-.845.456-1.748 1.28-2.007.921-.291 1.888.295 2.59.948.701.654 1.363 1.438 2.3 1.677 1.06.269 2.14-.233 3.181-.566 1.04-.334 2.37-.424 3.052.41.94 1.156-.17 2.985.522 4.296.691 1.311 2.66 1.237 4.172 1.515 1.16.231 2.23.78 3.08 1.583a6 6 0 0 1 1.72 2.949c.359 1.567-.213 3.545-1.788 4.017-1.127.324-2.364-.226-3.168-1.061-.805-.836-1.287-1.91-1.842-2.914-.681-1.243-1.522-2.447-2.7-3.266-1.176-.819-2.752-1.204-4.111-.712-2.075.748-1.829 4.26-3.733 1.654a46.4 46.4 0 0 1-3.783-6.13m64.457-68.952c.389.754.765 1.547.771 2.392.007.844-.455 1.748-1.28 2.006-.92.292-1.888-.294-2.59-.948-.7-.654-1.362-1.437-2.3-1.677-1.06-.268-2.14.233-3.18.567s-2.37.424-3.052-.411c-.941-1.156.17-2.985-.522-4.296-.692-1.31-2.66-1.236-4.172-1.515a6.27 6.27 0 0 1-3.08-1.583 6 6 0 0 1-1.72-2.949c-.36-1.566.212-3.544 1.788-4.017 1.127-.323 2.364.227 3.168 1.062s1.287 1.91 1.842 2.913c.681 1.243 1.522 2.448 2.699 3.267 1.177.818 2.752 1.204 4.112.712 2.074-.748 1.828-4.26 3.733-1.654a46.4 46.4 0 0 1 3.783 6.13m-64.457 5.001c-.39.754-.765 1.547-.772 2.392-.006.844.456 1.748 1.28 2.006.921.292 1.888-.294 2.59-.948.701-.654 1.363-1.437 2.3-1.677 1.06-.268 2.14.233 3.181.567s2.37.424 3.052-.411c.94-1.156-.17-2.985.522-4.296.691-1.31 2.66-1.236 4.172-1.515a6.26 6.26 0 0 0 3.08-1.583 6 6 0 0 0 1.72-2.949c.359-1.566-.213-3.544-1.788-4.017-1.127-.323-2.364.227-3.168 1.062s-1.287 1.91-1.842 2.913c-.681 1.243-1.522 2.448-2.7 3.267-1.176.818-2.752 1.204-4.111.712-2.075-.748-1.829-4.26-3.733-1.654a46.4 46.4 0 0 0-3.783 6.13m94 6.001c-.389.754-.765 1.547-.772 2.392-.006.844.456 1.748 1.28 2.006.921.292 1.888-.294 2.59-.948.701-.654 1.363-1.437 2.3-1.677 1.061-.268 2.141.233 3.181.567s2.371.424 3.052-.411c.941-1.156-.17-2.985.522-4.296.691-1.31 2.659-1.236 4.172-1.515a6.27 6.27 0 0 0 3.08-1.583 6 6 0 0 0 1.72-2.949c.359-1.566-.213-3.544-1.788-4.017-1.127-.323-2.364.227-3.168 1.062s-1.287 1.91-1.842 2.913c-.682 1.243-1.523 2.448-2.699 3.267-1.177.819-2.753 1.204-4.112.712-2.075-.748-1.829-4.26-3.733-1.654a46 46 0 0 0-3.783 6.13"/><path fill="#232323" d="M93.776 90.295c.89-.063.954-1.181 1.15-1.873.46-1.602 3.545-5.34 1.384-6.65-.529-.331-1.21-.275-1.77-.543-1.306-.622-1.293-2.43-1.33-3.873-.036-1.443-.362-2.952-1.28-4.081a3.9 3.9 0 0 0-2.478-1.4.7.7 0 0 1-.269-.096 2.5 2.5 0 0 1-.589-.464c-.801-.91-1.33-2.015-2.065-2.979-.735-.963-1.706-1.863-2.913-2.019-1.207-.155-2.584.719-2.577 1.93 0 .775.525 1.437.96 2.079.436.642.822 1.45.526 2.168-.352.857-1.463 1.115-2.045 1.837-.858 1.066-.246 2.698.715 3.67a3.4 3.4 0 0 0 1.72 1.027 1.79 1.79 0 0 0 1.808-.646c.645-.956 0-2.499.888-3.257a.717.717 0 0 1 1.081.202q.078.143.18.268c.532.662 1.41.914 2.115 1.38 1.427.947 2.055 2.688 2.597 4.304.579 1.74 1.167 3.548.954 5.369-.093.926-.588 3.773 1.238 3.647m-74.411-6c-.891-.063-.954-1.181-1.15-1.873-.46-1.602-3.546-5.34-1.384-6.65.529-.331 1.21-.275 1.77-.543 1.306-.622 1.293-2.43 1.33-3.873.036-1.443.362-2.952 1.28-4.081a3.9 3.9 0 0 1 2.477-1.4.7.7 0 0 0 .27-.096 2.5 2.5 0 0 0 .588-.464c.802-.91 1.33-2.015 2.066-2.979.734-.963 1.706-1.863 2.913-2.019 1.207-.155 2.584.718 2.577 1.93 0 .775-.525 1.437-.961 2.079s-.821 1.45-.525 2.168c.352.857 1.463 1.115 2.045 1.837.858 1.066.246 2.698-.715 3.67a3.4 3.4 0 0 1-1.72 1.027 1.79 1.79 0 0 1-1.809-.646c-.645-.956 0-2.499-.888-3.257a.717.717 0 0 0-1.08.202 2 2 0 0 1-.18.268c-.532.662-1.41.914-2.115 1.38-1.427.947-2.055 2.688-2.597 4.304-.58 1.74-1.168 3.548-.955 5.369.093.926.589 3.773-1.237 3.647m87.411-49.992c.891.063.954 1.182 1.15 1.874.459 1.602 3.545 5.339 1.384 6.65-.529.33-1.211.275-1.769.543-1.307.622-1.294 2.43-1.331 3.872-.036 1.444-.362 2.953-1.28 4.082a3.9 3.9 0 0 1-2.478 1.4.7.7 0 0 0-.269.096q-.33.186-.589.463c-.801.91-1.33 2.016-2.065 2.98-.735.962-1.706 1.863-2.913 2.018-1.207.156-2.584-.718-2.577-1.93 0-.774.525-1.436.96-2.078.436-.642.822-1.45.526-2.168-.352-.857-1.463-1.116-2.045-1.837-.858-1.066-.246-2.698.715-3.671a3.4 3.4 0 0 1 1.72-1.026 1.79 1.79 0 0 1 1.808.645c.645.957 0 2.5.888 3.257a.714.714 0 0 0 .874.03.7.7 0 0 0 .207-.232q.078-.142.18-.268c.532-.662 1.41-.913 2.115-1.38 1.426-.947 2.055-2.688 2.597-4.303.579-1.741 1.167-3.548.955-5.369-.094-.927-.589-3.773 1.237-3.648m32 2c.891.063.954 1.182 1.15 1.874.459 1.602 3.545 5.339 1.384 6.65-.529.33-1.211.275-1.769.543-1.307.622-1.294 2.43-1.331 3.872-.036 1.444-.362 2.953-1.28 4.082a3.9 3.9 0 0 1-2.478 1.4.7.7 0 0 0-.269.096q-.33.186-.589.463c-.801.91-1.33 2.016-2.065 2.98-.735.962-1.706 1.863-2.913 2.018-1.207.156-2.584-.718-2.577-1.93 0-.774.525-1.436.961-2.078s.821-1.45.525-2.168c-.352-.857-1.463-1.116-2.045-1.837-.858-1.066-.246-2.698.715-3.671a3.4 3.4 0 0 1 1.719-1.026 1.79 1.79 0 0 1 1.809.645c.646.957 0 2.5.888 3.257a.72.72 0 0 0 .874.03.7.7 0 0 0 .207-.232q.078-.142.18-.268c.532-.662 1.41-.913 2.115-1.38 1.426-.947 2.055-2.688 2.597-4.303.579-1.741 1.167-3.548.955-5.369-.094-.927-.589-3.773 1.237-3.648m-112.411-2c-.891.063-.954 1.182-1.15 1.874-.46 1.602-3.546 5.339-1.384 6.65.529.33 1.21.275 1.77.543 1.306.622 1.293 2.43 1.33 3.872.036 1.444.362 2.953 1.28 4.082.62.76 1.504 1.26 2.477 1.4a.7.7 0 0 1 .27.096q.33.186.588.463c.802.91 1.33 2.016 2.066 2.98.734.962 1.706 1.863 2.913 2.018 1.207.156 2.584-.718 2.577-1.93 0-.774-.525-1.436-.961-2.078s-.822-1.45-.526-2.168c.353-.857 1.464-1.116 2.046-1.837.858-1.066.246-2.698-.715-3.671a3.4 3.4 0 0 0-1.72-1.026 1.79 1.79 0 0 0-1.809.645c-.645.957 0 2.5-.888 3.257a.714.714 0 0 1-.874.03.7.7 0 0 1-.206-.232 2 2 0 0 0-.18-.268c-.532-.662-1.41-.913-2.115-1.38-1.427-.947-2.055-2.688-2.597-4.303-.58-1.741-1.168-3.548-.955-5.369.093-.927.589-3.773-1.237-3.648m57.705 98.996a3.4 3.4 0 0 0-.812-1.39c-1.613-1.739-4.645-.95-6.241-2.698-.722-.793-.968-1.937-1.413-2.945-.445-1.009-1.241-2.017-2.273-1.965-1.132.059-1.839 1.318-2.287 2.434a40 40 0 0 0-1.974 6.516v.038zm-35 0a3.4 3.4 0 0 1 .813-1.39c1.613-1.739 4.644-.95 6.24-2.698.723-.793.968-1.937 1.413-2.945.445-1.009 1.242-2.017 2.274-1.965 1.132.059 1.838 1.318 2.286 2.434a40 40 0 0 1 1.974 6.516v.038zM84.07-.7a3.4 3.4 0 0 1-.812 1.39c-1.613 1.738-4.645.95-6.241 2.698-.722.793-.968 1.937-1.413 2.945s-1.241 2.017-2.273 1.964c-1.132-.059-1.839-1.317-2.287-2.433A40 40 0 0 1 69.07-.652V-.69z"/><path fill="#bbb" d="M49.07-.7c.16.528.44 1.006.813 1.39 1.613 1.738 4.644.95 6.24 2.698.723.793.968 1.937 1.413 2.945s1.242 2.017 2.274 1.964c1.132-.059 1.838-1.317 2.286-2.433A40 40 0 0 0 64.07-.652V-.69z"/><path fill="#dfdfdf" d="M128.604 109.799c.388-1.256.819-2.745 0-3.781-.878-1.124-2.799-.844-3.716.247s-1.044 2.656-.884 4.08c.091.815.261 1.663 0 2.442-.388 1.157-1.582 1.795-2.643 2.387-1.06.591-2.199 1.426-2.284 2.63-.133 1.617 1.648 2.863 1.681 4.487.019 1.111-.78 2.051-1.087 3.116-.518 1.815.614 3.892 2.356 4.602s3.866.063 5.099-1.357c.927-1.069 1.527-2.752 1.263-4.179-.212-1.147-.979-2.018-1.123-3.211-.495-3.731.239-7.91 1.338-11.463m-124.067 0c-.389-1.256-.82-2.745 0-3.781.877-1.124 2.799-.844 3.716.247.916 1.091 1.044 2.656.884 4.08-.092.815-.261 1.663 0 2.442.388 1.157 1.582 1.795 2.642 2.387 1.06.591 2.2 1.426 2.284 2.63.134 1.617-1.647 2.863-1.68 4.487-.02 1.111.78 2.051 1.086 3.116.52 1.815-.613 3.892-2.355 4.602s-3.866.063-5.1-1.357c-.926-1.069-1.526-2.752-1.262-4.179.212-1.147.979-2.018 1.122-3.211.496-3.731-.238-7.91-1.337-11.463M128.604 23.8c.388 1.255.819 2.745 0 3.78-.878 1.124-2.799.845-3.716-.246-.917-1.092-1.044-2.657-.884-4.08.091-.815.261-1.663 0-2.442-.388-1.158-1.582-1.795-2.643-2.387s-2.199-1.427-2.284-2.63c-.133-1.617 1.648-2.863 1.681-4.487.019-1.111-.78-2.051-1.087-3.116-.518-1.815.614-3.893 2.356-4.603s3.866-.062 5.099 1.358c.927 1.068 1.527 2.751 1.263 4.178-.212 1.147-.979 2.019-1.123 3.212-.495 3.731.239 7.91 1.338 11.463m-124.067 0c-.389 1.255-.82 2.745 0 3.78.877 1.124 2.799.845 3.716-.246.916-1.092 1.044-2.657.884-4.08-.092-.815-.261-1.663 0-2.442.388-1.158 1.582-1.795 2.642-2.387s2.2-1.427 2.284-2.63c.134-1.617-1.647-2.863-1.68-4.487-.02-1.111.78-2.051 1.086-3.116.52-1.815-.613-3.893-2.355-4.603s-3.866-.062-5.1 1.358c-.926 1.068-1.526 2.751-1.262 4.178.212 1.147.979 2.019 1.122 3.212.496 3.731-.238 7.91-1.337 11.463"/></g></g></svg>