<?xml version="1.0" encoding="UTF-8" standalone="no"?>
<svg
xmlns:dc="http://purl.org/dc/elements/1.1/"
xmlns:cc="http://creativecommons.org/ns#"
xmlns:rdf="http://www.w3.org/1999/02/22-rdf-syntax-ns#"
xmlns:svg="http://www.w3.org/2000/svg"
xmlns="http://www.w3.org/2000/svg"
xmlns:sodipodi="http://sodipodi.sourceforge.net/DTD/sodipodi-0.0.dtd"
xmlns:inkscape="http://www.inkscape.org/namespaces/inkscape"
width="140"
height="140"
version="1.1"
id="svg4"
sodipodi:docname="player-ruin-skin.svg"
inkscape:version="0.92.2 (5c3e80d, 2017-08-06)">
  <metadata id="metadata10">
    <rdf:RDF>
      <cc:Work rdf:about="">
        <dc:format>image/svg+xml</dc:format>
        <dc:type rdf:resource="http://purl.org/dc/dcmitype/StillImage"/>
        <dc:title>Ruin Skin</dc:title>
      </cc:Work>
    </rdf:RDF>
  </metadata>
  <defs id="defs8">
    <radialGradient id="gemred" cx="35%" cy="30%" r="65%">
      <stop offset="0%"   stop-color="#ff6060"/>
      <stop offset="50%"  stop-color="#cc0000"/>
      <stop offset="100%" stop-color="#660000"/>
    </radialGradient>
    <clipPath id="clip">
      <ellipse cx="-65.647781" cy="74.097023" transform="rotate(-86.54)" rx="66.5" ry="66.500008"/>
    </clipPath>
  </defs>
  <sodipodi:namedview
    pagecolor="#ffffff"
    bordercolor="#666666"
    borderopacity="1"
    objecttolerance="10"
    gridtolerance="10"
    guidetolerance="10"
    inkscape:pageopacity="0"
    inkscape:pageshadow="2"
    inkscape:window-width="1920"
    inkscape:window-height="1017"
    id="namedview6"
    showgrid="false"
    inkscape:zoom="3.3714286"
    inkscape:cx="58.432203"
    inkscape:cy="67.923729"
    inkscape:window-x="1912"
    inkscape:window-y="-8"
    inkscape:window-maximized="1"
    inkscape:current-layer="svg4"/>

  <!-- Schwarze Basis -->
  <ellipse cx="-65.647781" cy="74.097023" transform="rotate(-86.54)" id="circle2"
    style="fill:#0a0a0a;stroke-width:1.99999988" rx="66.5" ry="66.500008"/>

  <g clip-path="url(#clip)">

    <!-- Goldring (dicker) -->
    <ellipse cx="70" cy="70" rx="62" ry="62" fill="none" stroke="#c8960a" stroke-width="5"/>
    <ellipse cx="70" cy="70" rx="62" ry="62" fill="none" stroke="#f0c030" stroke-width="2" opacity="0.6"/>

    <!-- 4 goldene Bögen (dicker, breiter) -->
    <path d="M70,8 C42,20 22,42 18,70" fill="none" stroke="#c8960a" stroke-width="4" stroke-linecap="round"/>
    <path d="M70,8 C98,20 118,42 122,70" fill="none" stroke="#c8960a" stroke-width="4" stroke-linecap="round"/>
    <path d="M70,132 C42,120 22,98 18,70" fill="none" stroke="#c8960a" stroke-width="4" stroke-linecap="round"/>
    <path d="M70,132 C98,120 118,98 122,70" fill="none" stroke="#c8960a" stroke-width="4" stroke-linecap="round"/>

    <!-- 4 goldene Rauten (größer) -->
    <polygon points="70,8 76,20 70,32 64,20"  fill="#f0c030" stroke="#c8960a" stroke-width="1"/>
    <polygon points="70,132 76,120 70,108 64,120" fill="#f0c030" stroke="#c8960a" stroke-width="1"/>
    <polygon points="8,70 20,64 32,70 20,76"  fill="#f0c030" stroke="#c8960a" stroke-width="1"/>
    <polygon points="132,70 120,64 108,70 120,76" fill="#f0c030" stroke="#c8960a" stroke-width="1"/>

    <!-- Roter Edelstein Mitte (größer) -->
    <ellipse cx="70" cy="70" rx="20" ry="20" fill="#880000" stroke="#c8960a" stroke-width="3"/>
    <ellipse cx="70" cy="70" rx="17" ry="17" fill="url(#gemred)"/>
    <ellipse cx="65" cy="65" rx="5" ry="3.5" fill="#ffffff" fill-opacity="0.3"/>

  </g>

</svg>
