<?xml version="1.0" encoding="UTF-8" standalone="no"?>
<svg
   width="73"
   height="73"
   viewBox="0 0 73 73"
   fill="none"
   version="1.1"
   id="svg4"
   sodipodi:docname="player-hands-camo-deer.svg"
   inkscape:version="1.4.2 (f4327f4, 2025-05-13)"
   xmlns:inkscape="http://www.inkscape.org/namespaces/inkscape"
   xmlns:sodipodi="http://sodipodi.sourceforge.net/DTD/sodipodi-0.dtd"
   xmlns="http://www.w3.org/2000/svg"
   xmlns:svg="http://www.w3.org/2000/svg">
  <defs
     id="defs4" />
  <sodipodi:namedview
     id="namedview4"
     pagecolor="#ffffff"
     bordercolor="#000000"
     borderopacity="0.25"
     inkscape:showpageshadow="2"
     inkscape:pageopacity="0.0"
     inkscape:pagecheckerboard="0"
     inkscape:deskcolor="#d1d1d1"
     inkscape:zoom="1.8718957"
     inkscape:cx="-59.832394"
     inkscape:cy="27.512217"
     inkscape:window-width="1920"
     inkscape:window-height="991"
     inkscape:window-x="-9"
     inkscape:window-y="-9"
     inkscape:window-maximized="1"
     inkscape:current-layer="svg4" />
  <path
     d="M 6.8667213,37.097123 C 6.2361242,19.162506 19.931642,4.1211575 37.456586,3.5013926 51.573961,3.0021313 63.869847,12.013789 68.447351,24.912405 69.552225,28.025804 44.97314,32.253103 45.095755,35.740348 45.218366,39.227493 70.033646,41.717743 69.150184,44.901453 65.489981,58.091515 53.857564,67.949357 39.740186,68.448538 22.215242,69.068333 7.497322,55.03184 6.8667213,37.097123 Z"
     fill="#454545"
     id="path1" />
  <path
     fill-rule="evenodd"
     clip-rule="evenodd"
     d="m 66.971848,47.225333 c 4.29e-4,-1.5e-5 -0.0063,-0.0052 -0.02139,-0.01506 0.01341,0.01024 0.02097,0.01517 0.02139,0.01506 z m -1.466926,-0.637447 c -0.115187,-0.04058 -0.237752,-0.0827 -0.36796,-0.126148 -2.018702,-0.67348 -4.859798,-1.351966 -7.96936,-2.093056 l -0.03653,-0.0087 c -2.989782,-0.712481 -6.221946,-1.482781 -8.714864,-2.310293 -1.232941,-0.409228 -2.495223,-0.898775 -3.514368,-1.502536 -0.508088,-0.300932 -1.117209,-0.723389 -1.640177,-1.308073 -0.529221,-0.59177 -1.158041,-1.568777 -1.204615,-2.893358 -0.04658,-1.324682 0.51216,-2.343744 0.9988,-2.971532 0.480801,-0.620278 1.058943,-1.084581 1.544737,-1.420558 0.974319,-0.673953 2.199197,-1.251051 3.400452,-1.745868 2.42884,-1.000565 5.599217,-1.996084 8.531571,-2.916893 l 0.03533,-0.01115 c 3.049932,-0.957663 5.836359,-1.834017 7.802694,-2.647615 0.126215,-0.05217 0.244957,-0.102571 0.356527,-0.150921 C 60.116427,14.146098 49.784213,7.1842644 38.099017,7.5975077 22.621893,8.1448592 10.411602,21.447694 10.974251,37.449806 11.5369,53.451917 24.651179,65.859154 40.128306,65.311863 51.8139,64.898586 61.631769,57.223554 65.504922,46.587886 Z m 0.642061,-22.846171 c -4.4e-4,1.6e-5 -0.0076,0.0055 -0.02029,0.01662 0.01439,-0.01091 0.02072,-0.01654 0.02029,-0.01662 z M 52.885823,35.96395 c 1.762472,0.486168 3.797755,0.973551 5.92014,1.479385 l 0.198383,0.04726 c 2.932163,0.698697 6.039601,1.439162 8.369861,2.216659 1.157504,0.386164 2.397387,0.867893 3.374743,1.492035 0.479434,0.306143 1.148049,0.802254 1.666377,1.556607 0.587388,0.854787 1.018403,2.128128 0.619857,3.563819 C 68.987962,60.899233 56.100994,71.869346 40.378423,72.425367 20.858925,73.115693 4.5823176,57.501897 3.8860839,37.700533 3.1898503,17.899169 18.3294,1.1742351 37.848897,0.48392861 53.571469,-0.07210003 67.196901,9.9605113 72.258062,24.217871 c 0.498386,1.403954 0.157939,2.704721 -0.368319,3.599165 -0.464288,0.789102 -1.096681,1.331159 -1.553506,1.670321 -0.931285,0.691251 -2.134402,1.258878 -3.261925,1.725387 -2.269838,0.93924 -5.31744,1.896021 -8.193185,2.79903 l -0.19487,0.06119 c -2.081224,0.653436 -4.076754,1.282445 -5.800434,1.89099 z m -4.359764,1.924587 c -0.0026,0.0022 -0.0038,0.0033 -0.0038,0.0033 0,0 0.0014,-0.0011 0.0038,-0.0033 z M 48.401741,34.35002 c -0.0023,-0.0016 -0.0034,-0.0025 -0.0034,-0.0025 0,0 0.001,8.64e-4 0.0034,0.0025 z"
     fill="#000000"
     id="path2" />
  <path
     d="M 3.9035586,38.197526 C 3.3893776,23.573863 13.513062,11.346273 26.515436,10.886496 c 10.474154,-0.370381 19.621292,7.008553 23.051159,17.536632 0.827906,2.541177 -17.399583,5.923965 -17.299605,8.767408 0.09998,2.843343 18.520057,4.93807 17.872686,7.53142 C 47.457761,55.466131 38.851601,63.47299 28.377447,63.843372 15.375077,64.303248 4.4177397,52.821189 3.9035586,38.197526 Z"
     fill="#82592d"
     id="path3" />
  <path
     fill-rule="evenodd"
     clip-rule="evenodd"
     d="m 31.263978,32.23332 c -0.585263,0.452445 -2.214701,1.811842 -2.135335,4.069047 0.07935,2.256805 1.799522,3.497826 2.415013,3.907951 0.852792,0.568185 1.878439,1.012519 2.821367,1.366704 1.899545,0.713492 4.338072,1.374312 6.528483,1.96791 l 0.06233,0.01692 c 2.142731,0.580765 4.045596,1.098419 5.452772,1.599482 -2.880317,8.496559 -9.821441,14.2213 -17.685525,14.499409 C 18.184572,60.033388 8.4947168,50.398231 8.0253788,37.052781 7.5561372,23.707228 16.545305,13.411498 27.083815,13.038753 c 7.863685,-0.278095 15.189325,4.941612 18.65941,13.212784 -1.368219,0.598347 -3.229339,1.248047 -5.325103,1.977441 l -0.06059,0.02114 c -2.143314,0.745875 -4.529806,1.576347 -6.374744,2.421599 -0.915627,0.419433 -1.907833,0.934717 -2.718806,1.561601 z m 20.449461,-1.18581 c 0.543096,-0.450762 2.476182,-2.221082 1.631572,-4.858833 C 49.535135,14.289605 39.184794,5.4376906 26.831915,5.8745404 11.462124,6.418098 0.29512462,20.945969 0.87034947,37.30576 1.4455743,53.66555 13.605195,67.368533 28.974989,66.825016 41.327864,66.388076 51.030788,56.827019 53.995476,44.688345 54.652645,41.997992 52.600619,40.368492 52.027611,39.957173 51.193456,39.358415 50.168758,38.915448 49.284074,38.581429 47.503453,37.909183 45.154031,37.272547 43.006357,36.690655 l -0.179216,-0.04853 c -0.923666,-0.250297 -1.813215,-0.492189 -2.646256,-0.729163 0.813947,-0.294683 1.683818,-0.598237 2.587127,-0.912673 l 0.175761,-0.06111 c 2.101304,-0.731189 4.400117,-1.531062 6.12913,-2.326609 0.859042,-0.39523 1.850198,-0.909076 2.640536,-1.565053 z m -16.157375,6.932538 c 0.0037,-3e-5 0.03487,-0.02414 0.08241,-0.07224 -0.06235,0.04812 -0.08611,0.07227 -0.08241,0.07224 z m -0.04568,-3.738003 c -0.0508,-0.04474 -0.08359,-0.0666 -0.08729,-0.06637 -0.0037,2.3e-4 0.02171,0.02265 0.08729,0.06637 z"
     fill="#000000"
     id="path4" />
</svg>
