<svg width="129" height="129" xmlns="http://www.w3.org/2000/svg" fill="none" viewBox="0 0 129 129"><path fill="#0a5551" d="M32.113 47.238c0 17.397 14.103 31.5 31.5 31.498 17.397 0 31.5-14.104 31.5-31.5 0-17.398-14.103-31.5-31.5-31.5-17.397.001-31.5 14.105-31.5 31.501"/><path fill="#000" fill-rule="evenodd" d="M64.113 12.737c18.778-.001 34 15.22 34 33.998s-15.222 34-34 34.002c-18.777 0-34-15.222-34-34s15.223-34 34-34m28.81 33.999c0-15.912-12.898-28.81-28.81-28.81-15.91.001-28.81 12.9-28.81 28.812 0 15.91 12.9 28.809 28.81 28.808 15.912 0 28.81-12.9 28.81-28.81" clip-rule="evenodd"/><path fill="#03674f" d="M22.035 71.363c0-22.664 18.352-41.037 40.964-41.037s40.963 18.373 40.963 41.037S85.61 112.4 62.999 112.4 22.035 94.027 22.035 71.363"/><path fill="#008a69" d="M65.523 31.544c.371.372.817.67 1.263.893-.52.224-1.04.596-1.486.968 3.715-.298 7.505-.149 11.22.298 1.709.223 3.344.52 5.053.819.223-.15.297-.298.371-.521a35.5 35.5 0 0 0-6.761-2.68c-3.196-.075-6.39-.075-9.66.223m-31.58 15.111c4.978-4.69 10.848-8.114 17.462-10.421.074-.075.222-.075.297-.075-.372-.149-.743-.223-.966-.149-.669.224-1.264.447-1.932.67 1.857-.893 3.64-1.86 5.424-2.828.149-.075.297-.224.297-.298-6.167 1.712-12.037 4.392-17.239 8.337-1.709 1.266-3.27 2.754-4.83 4.243.298.298.966.596 1.486.521m-5.349 5.881c-.298-.149-.744-.149-.966-.075l-.67.224c0-.075-.073-.075-.073-.15 0-.073.074-.222.148-.297.297-.372.595-.67.892-.968.148-.149.074-.297 0-.446-.669.819-1.338 1.563-1.932 2.382-1.263 2.68-2.23 5.508-2.972 8.486.074-.223.222-.521.371-.819.074-.074.074-.223.149-.298 1.337-2.828 3.12-5.508 5.053-8.04"/><path fill="#00764b" d="m65.3 31.32.223.223a69 69 0 0 1 9.586-.224c-2.898-.893-6.02-1.414-9.14-1.637-.371.074-.743.223-1.115.372-.743.298-.074.968.446 1.265M32.234 45.463c0 .149.149.372.223.52a86 86 0 0 1 4.83-4.242c5.127-3.946 11.071-6.625 17.239-8.337.371-.67-1.115-1.49-1.784-1.266a94 94 0 0 0-6.91 2.457c3.12-1.564 6.39-2.978 9.511-4.392-9.957 2.159-18.576 7.667-24.595 15.334.446.224 1.04.224 1.486-.074m-4.607 5.211c.149-.373.223-.67.297-1.043v-.074a35 35 0 0 0-2.006 3.648c.669-.82 1.263-1.638 1.932-2.383 0 0-.074-.074-.223-.148"/><path fill="#31b164" d="M63.217 36.831c-.67.223 0 .893.446 1.117a6.7 6.7 0 0 0 1.709.223c-.149.67.743 1.414 1.411 1.638.075 0 .149.074.223.074-1.337.298-2.675.67-4.012.968-1.19.223 0 1.34.594 1.414h.075c-.15.298-.075.596.074.893a39 39 0 0 0-2.75.82c-.965.297.372 1.34.818 1.34.52.074 1.114.074 1.635.074-.372.074-.743.223-1.115.372-1.263.52.297 1.786 1.04 1.86-.148.15-.148.373-.148.596-.075.298 0 .596.371.82-.743.223-1.337.67-1.709 1.562-.148.447.149.82.446 1.117 1.189.819 2.6.893 3.938 1.265a3.9 3.9 0 0 0-1.04.894c-1.263-.15-2.526-.372-3.641-.67-.595-.15-.669.447-.149.744.298.15.67.298 1.04.447-.148 0-.297.074-.37.074-1.413.447 0 2.01.668 2.308h.074c-.297.223-.594.447-.892.819-.371.52.446 1.116.818 1.34.669.372 1.337.446 2.006.67l-.223.223c-.297.372-.074.67.297.819-1.263 0-2.452.074-3.715.297-.743.15.074.894.52.894h.818c-.446.52.074 1.414.52 1.712l.074.074c-.148.15-.371.224-.52.372-.223.15-.297.522-.223.745.149.298.297.595.52.819l-1.56-.224c-.595-.148-.595.447-.149.67.595.298 1.189.522 1.783.745-.222.074-.445.223-.668.372-.743.447-.52 1.34.148 1.712.297.149.52.298.818.372-.446.596-.966 1.266-.743 2.085.297.967 1.04 1.34 1.857 1.637-.297.447-.594.82-.817 1.34-.074.224.074.447.223.596.743.446 1.337.893 1.486 1.786 0 .075.074.224.149.224h-.595c-.148-.075-.52 0-.52.223s.149.372.371.447c.075.074.15.074.223.074-.148.074-.222.149-.371.149-.223.074-.297.372-.149.595.223.298.52.596.892.82.074.074.223.074.371.074-.222.67-.074 1.488.446 2.01.223.148.743.446.892.074.074-.223.074-.745.223-.893.297-.15.52-.521.669-.82.223-.446-.297-.967-.67-1.116-.296-.149-.593-.223-.965-.297l.149-.15c.223-.148.148-.297 0-.446.074 0 .074 0 .148-.075.223-.074.149-.372.075-.52-.075-.075-.223-.15-.298-.224.075-.149.223-.298.297-.447.075-.148 0-.297-.074-.446-.371-.67-.892-1.042-1.486-1.34.594-.447 1.189-.819 1.71-1.414.52-.596-.298-1.191-.818-1.34-1.115-.373-.892-.373.074-.968.446-.223.817-.521 1.263-.819.595-.447 0-1.34-.446-1.638-.148-.148-.371-.223-.594-.297.52-.224 1.04-.373 1.486-.596 1.486-.595-.743-2.01-1.486-1.935h-.446s0-.075-.074-.075c.446-.148.892-.372 1.337-.595.595-.372.595-.968.297-1.489a3.7 3.7 0 0 0 1.264-.447c1.412-.744-.372-2.307-1.338-2.307h-.817c.371-.15.594-.447.743-.894.148-.52-.223-.967-.669-1.19-.074-.075-.148-.075-.223-.075.595-.074 1.263-.074 1.784-.223.817-.224.594-1.34.148-1.787 0 0-.074 0-.074-.074.371 0 .743 0 1.04-.075.743 0 1.04-.819.669-1.414-.297-.521-.817-.819-1.338-.968.223-.074.372-.149.595-.223.817-.372.074-1.266-.372-1.489-1.04-.595-2.6-.595-3.79-.968 1.636-.52 4.013.298 5.5-.595.668-.372.594-1.042.222-1.563.297-.075.67-.15.966-.298.966-.372.075-1.415-.445-1.712-.075 0-.15-.075-.224-.075.52 0 .966-.074 1.487-.149a.68.68 0 0 0 .52-.223h.223c.594 0 1.114-.446.966-.968.371-.297-.149-.818-.52-1.042-.075-.297-.223-.52-.446-.744.668 0 1.337-.075 1.932-.298.594-.223 0-.744-.372-.893.743-.298 0-1.042-.446-1.266.075 0 .223-.074.297-.074.892-.298.744-.968.224-1.563.743-.15 1.486-.224 2.303-.298.892-.075.149-1.117-.372-1.266h-.222c.371 0 .817-.074 1.188-.148-4.83-1.043-9.66-1.564-14.49-1.266m21.772 3.276c-.074.148.075.372.298.446l1.337.447c-.594 0-1.115.074-1.709.223-1.486.298-.594 1.712.223 2.159.446.223.892.446 1.263.595-.966 0-1.857.075-2.823.224-1.56.223 0 1.712.817 1.86.594.075 1.189.224 1.783.298-1.04-.074-2.155-.074-3.195.075-.594.074 0 .67.297.67.595.074 1.115.074 1.71.223-.52 0-1.04-.074-1.561-.074-1.486 0-1.412 1.042-.817 1.786-.446 0-.818 0-1.264.075-.966.149-.371 1.116.149 1.414.446.223.966.372 1.486.596-.52-.075-.966-.075-1.412.074s0 .521.223.596c.149 0 .297.074.372.074-.52.149-.595.67-.223 1.116-.372.15-.446.447-.446.82-.074 0-.149-.075-.223-.075-.297-.149-.594.149-.297.372s.669.447 1.04.596c.075.074.223.148.372.223.074 0 .148.074.223.074.222.075.371.15.594.298-.669-.149-1.337-.298-2.006-.372-1.412-.223-1.412 1.34-.52 1.935.52.373 1.04.67 1.56.968-1.635 0-3.12.298-3.79 1.787 0 .074 0 .148-.074.148-.891.373.223 1.713.892 1.861.594.15 1.263.298 1.858.447h-.595c-.817 0-1.56.075-2.303.521-.52.298-.298.968.148 1.266.817.52 1.635.744 2.452 1.19.743.373-1.412.745-1.709.82 0 0-.074 0-.074.074 0 0-.074 0-.074-.075-.372-.223-.966.075-.595.522-.594.223-.446.893-.074 1.265.148.075.223.223.371.298l-.445.447c-.223.372-.298.818.074 1.116.446.298 1.04.223 1.56.075.595-.15 1.04-.373 1.56-.745.298-.223.298-.447.15-.744a.56.56 0 0 0 .52-.373c.148-.372-.075-.67-.298-.967.52-.075 1.04-.298 1.263-.745.446-.744-.148-1.34-.891-1.786 1.263.074 2.526.074 3.492-.744.446-.373.149-.968-.223-1.34h1.263c.15-.521.372-1.043.52-1.564-.074 0-.074-.074-.148-.074h.149c.445-1.34.966-2.68 1.634-3.945-.074-.075-.148-.075-.223-.15a57 57 0 0 1-1.932-.67v-.223c.446-.074.67-.372.67-.67a.85.85 0 0 0-.224-.595c.223 0 .372.074.595.074.371.075.52 0 .668-.148.15-.224 0-.596-.222-.894-1.04.67-1.932 1.415-2.824 2.308a16 16 0 0 1 2.452-3.424c0-.075 0-.075-.074-.15-.149-.222-.372-.371-.595-.595.372.075.818.075 1.19.15 1.634-1.639 3.492-2.978 5.424-4.244-.52-.298-.966-.521-1.487-.744.966 0 1.932 0 2.898-.15l.149-.148c.223-.298-.372-.67-.743-.67a60 60 0 0 0-7.06 1.563c2.007-2.084 5.054-2.233 8.026-2.084-.743-.968-1.56-1.861-2.452-2.754-1.784-.521-3.641-.894-5.425-1.49-.743-.297-1.709-.52-2.675-.744M36.467 51.645c.742-.447 1.56-.894 2.303-1.415 0 .447.594.894 1.189 1.117a8.2 8.2 0 0 0-2.08 2.159c-.67.967 1.337 1.86 2.006 1.712 2.229-.447 4.83-2.16 7.356-3.276-1.486.894-3.27 1.49-4.681 2.382-1.338.82.743 2.16 1.709 1.861.074 0 .148-.074.297-.074-1.04.819.743 2.01 1.635 1.86.148 0 .371-.073.52-.073-.743.446-1.486.893-2.23 1.414-1.04.67 1.04 1.935 1.71 1.786 1.188-.223 2.229-.818 3.27-1.265 1.857-.819-.298.149-.818.521l-.223.223h-.149c-.669.075 0 .82.372.82h.148c.075.074.223.223.372.297-.743.595-1.412 1.19-1.858 2.01-.297.446.297 1.042.743 1.19.595.224 1.115.373 1.71.373-.447.298-.892.521-1.264.893-.594.596.446 1.266.966 1.34.743.075 1.56-.223 2.303-.298a.8.8 0 0 0 .52.224 4 4 0 0 0-.668.52c-.149.15-.074.299 0 .373-.372.298-.669.67-1.04.968-.372.372 0 .893.297 1.19q.669.56 1.56.67c-.223.596-.074 1.192.595 1.862.148.149 1.04.446.891-.15-.148-.371-.52-.67-.668-1.041-.075-.521 1.114-.521 1.412-.521.966-.075.371-1.117-.15-1.415-.37-.149-.742-.297-1.114-.297.297-.373.595-.745.743-1.191.223-.596-.371-.968-.966-1.043.075-.074.149-.149.298-.223.445-.372-.149-.893-.446-1.042-.149-.075-.297-.075-.372-.149.669-.372 1.263-.744 1.635-1.414.446-.745-.817-1.34-1.338-1.415-.743-.149-1.634.15-2.452.298.966-.819 2.155-1.414 2.452-2.605.075-.298-.074-.596-.297-.82.446-.744.446-1.562-.669-2.456-.074-.074-.223-.149-.297-.223.223-.149.372-.372.595-.521.668-.67-.223-1.414-.966-1.712.52-.372.966-.819 1.411-1.34.595-.745-.297-1.638-1.04-1.712h-.148a6.4 6.4 0 0 0 1.04-1.34c.446-.745-.669-1.563-1.263-1.638-.149 0-.223 0-.372-.074 1.412-.82 2.527-1.787 2.972-3.201.372-1.042-1.114-1.861-2.006-1.712h-.074c.074-.075.074-.224.148-.298.298-.893-.817-1.638-1.56-1.638h-.074c1.04-.595 1.932-1.34 2.6-2.233.298-.372.223-.744 0-1.042-7.207 2.456-13.449 6.55-18.725 11.836.297.744 1.56 1.34 2.23.968m-8.992 16.153c1.56-.968 3.121-1.936 4.756-2.605 1.263-.596 2.6-.968 3.938-1.34.149-.075.298-.075.446-.15-.074-.297-.148-.595-.297-.818-.223-.447-.892-.596-1.263-.372a8 8 0 0 0-.892.744c0-.074.074-.074.074-.149.149-.52-.446-1.042-.966-1.19.297-.67.52-1.34.446-2.085 0-.521-.594-.968-1.189-1.117l.075-.074c.297-.372-.446-.819-.744-.521a25 25 0 0 0-2.452 2.382c-.074-.075-.223-.149-.371-.223.669-1.043 1.189-2.16 1.857-3.127.15-.223.075-.372-.074-.521.297-.447.595-.893.818-1.34s-.67-.819-.892-.447c-.223.447-.595.894-.966 1.34-.149 0-.223.075-.297.075-2.304 3.126-4.459 6.7-6.168 10.421 0 .075-.074.15 0 .15.075.446.818.818 1.115.446 1.412-1.563 3.046-2.754 4.83-3.722-.966 1.116-1.784 2.233-2.675 3.499-.223.446.594.893.891.744M47.91 79.485c.148-.372-.372-.67-.67-.744h-.073a4.3 4.3 0 0 1 .371-1.043c.149-.372-.148-.67-.371-.893a2.58 2.58 0 0 0-1.784-.447c0-.148-.148-.297-.223-.446 0-.075 0-.075-.074-.149-.074-.075-.149-.149-.149-.223 0 0 .075-.075.075-.15.074-.148.148-.222.223-.371.371-.67-.743-1.34-1.264-1.34-.445 0-.891.074-1.411.148.148-.223.297-.372.52-.595.743-.744-.743-1.414-1.338-1.414h-.223.075a.5.5 0 0 0 .297-.447v-.447c0-.52-.52-.893-.966-.967-.743-.15-1.338-.15-1.932-.224.446-1.34 1.486-2.903.148-3.87-1.188-.82-2.006-.522-2.823 0 .223-.596.371-1.266.371-1.862-.074.075-.148.075-.297.15a81 81 0 0 0-6.836 4.317h.074c-.371.298-.743.521-1.114.744-.075.224.223.521.446.521.445.075.817.224 1.188.298 3.493.819 6.465 2.382 9.214 4.318h.67c.074.297.296.595.668.819 0 .074.074.074.074.148.52.373 1.04.82 1.56 1.191.15 0 .298.075.52.075.224.149.595.298.744.298.223 0 .446-.075.669-.075v.149c0 .521.668.968 1.189.819h.074c-.074.447 0 .893.148 1.34.372.297.743.52 1.115.819.372.148.892 0 1.115-.447M31.562 67.798c-.148.223-.297.521-.446.744.075-.148-.074-.372-.223-.446.15-.075.372-.224.52-.298z"/><path fill="#69bc71" d="M36.693 63.701V64c1.115-.521 1.115-.596 0-.298"/><path fill="#69bc71" d="M46.725 106.206c.445.149.817.223 1.263.372 7.95 2.308 15.678 3.573 23.852 1.415s15.01-7.668 19.766-14.59c2.6-3.797 4.532-7.891 6.761-11.836 1.115-2.01 2.229-3.946 3.939-5.509.817-.819 1.709-1.563 2.526-2.308.074-.893.074-1.712.074-2.605 0-1.414-.074-2.754-.223-4.168-.297-.075-.594-.373-.668-.596-.075-.149-.075-.298-.075-.521v-.223c0-.075.075-.15.075-.224.074-.074.148-.223.223-.297v-.224c0-.074.074-.074.148-.074-.371-2.308-.892-4.467-1.635-6.625v.074c0 .075 0 .075-.074.149-.074.149-.223.223-.371.298.074.149.148.297.074.446 0 .075-.074.075-.074.15l-.521.52c-.223.224-.297.447-.594.521-.223.075-.595 0-.817-.148-.075.074-.149.148-.149.223v-.372c-.149-.15-.297-.298-.223-.447 0-.074.074-.149.074-.223v-.075c.075-.074.149-.223.223-.297v-.298c-.074-.075-.074-.224-.074-.298s.074-.149.149-.223c.074-.596.148-1.266.371-1.861.074-.373-.52-.596-.743-.298-1.635 2.159-3.12 4.615-4.161 7.22.446-4.466 1.412-9.155 3.12-13.324a43 43 0 0 0-2.377-3.573c-.074.074-.223.074-.372.149-.297.074-.668.074-.966.148l-1.337.894s.074 0 .074.074c.372.224.743.67.743 1.042 0 0 0 .075-.074.075v.074l-.149.15c.372.446.52.967.298 1.34-.149.222-.446.371-.966.371h-.892c.149.224.223.447.149.596v.149c-.075.223-.372.372-.818.446-1.263.15-2.452.075-3.715-.074-.149.149-.372.372-.52.595a1 1 0 0 1 .223.67c0 .075-.075.075-.075.15l.223.222c.743-.446 1.486-.893 2.378-1.19.297-.15.892.148.818.52 0 .075 0 .075-.075.15-.892 1.19-1.635 2.456-2.303 3.796.52.298 1.114.968 1.04 1.414-.074.224-.223.372-.743.447-.297 0-.595.074-.818.074.298.298.595.745.595 1.042 0 .373-.223.67-.817.82-.298.074-.595.074-.892.074v.074c.371.298.669.819.594 1.191-.074.223-.223.372-.594.372h-.52c-.818 2.755-1.56 5.509-2.452 8.263 2.378-2.382 4.83-4.466 7.802-6.104.371-.223 1.263.372.817.745-6.687 6.625-8.173 17.046-16.347 22.257-6.465 4.094-14.564 6.03-21.623 2.307-.223-.148-.52-.595-.075-.67 3.567-.595 6.688-.967 9.883-2.01-1.114 0-2.155-.148-3.27-.371-3.715-.298-7.281-1.564-10.7-3.648-1.485-.893-2.897-1.935-4.235-2.978-.446-.074-.892-.372-1.04-.67-.075-.074-.075-.148-.075-.223-1.114-.893-2.229-1.712-3.343-2.605-.595-.15-1.04-.372-1.412-.968-.074-.074-.074-.149-.074-.223a9.5 9.5 0 0 0-1.412-.968c-.223 0-.52-.223-.669-.447l-.371.373h.371c.297.074.595.446.595.744 0 .074-.075.149-.298.223-.743.075-1.337-.149-1.857-.67-.075 0-.149.075-.298.075-.445.074-1.263-.298-1.263-.82 0-.073 0-.148.075-.222a2.2 2.2 0 0 1 .297-.596c-.446-.074-.892-.372-.818-.819v-.074c-.148.149-.297.298-.371.447-.52.52-1.71.074-2.08-.596-.595-.075-1.264-.596-1.19-1.191-.52.074-1.189-.298-1.263-.819-.743.968-1.783 1.712-2.823.67-.372 0-.446-.074-.52-.223v-.224c0-.074 0-.149.074-.149.148-.372.668-.446 1.04-.595.149-.074.297-.149.372-.223v-.149c.297-.224.668-.447.965-.67-.371-.075-.817-.224-1.114-.521-.892.893-2.23 1.712-3.418 1.563-.297-.074-.743-.298-.743-.596v-.148l.223-.447c-.52-.075-1.115-.372-1.412-.819-.372.596-.669 1.191-1.115 1.712v2.01c0 .596 0 1.266.075 1.861 2.675 0 5.35.149 7.95.819-2.675-.223-5.275-.223-7.876.223.074.596.074 1.191.148 1.787 5.425.149 10.7 1.265 15.382 3.796v-.297c.148-.522 1.412-.298 1.635.223.148.223.223.52.148.819 0 .074-.074.074-.148.148 1.04.67 2.08 1.415 3.046 2.308 2.452 2.159 4.31 4.69 6.093 7.295-4.83-3.573-10.403-6.402-16.124-7.593-.075 0-.075.075-.149.075-1.189.074-2.378-.15-3.566 0-.372.074-.892-.372-.818-.67a24 24 0 0 0-3.27 0c-.37.074-.668.149-.965.223.223.819.446 1.638.743 2.457.223 0 .371 0 .594.074 2.527.372 4.904 1.34 7.208 2.606-2.08-.373-4.607-.82-7.134-.894.372 1.042.818 2.01 1.338 2.978.595.074 1.115.149 1.635.297-.52-.074-1.04-.074-1.56-.148a41.7 41.7 0 0 0 8.247 11.389 54 54 0 0 1 5.425 1.116c.371.075.668.596.668.819 0 .149-.148.298-.52.224a16.2 16.2 0 0 0-3.343-.149 55 55 0 0 0 4.16 3.126c1.933-.074 3.865 0 5.797.149m51.048-43.994c.148-.223.223-.446.371-.595.075-.149.223-.223.298-.372v-.298c.148-.298.817 0 .891.223q.223.447.223.893c-.074.447-.446.67-.817.894-.297.149-1.263-.298-.966-.745M48.73 83.28v-.15q.111-.222.446-.223h.223c.371 0 1.114.447.891.894s-1.04.223-1.263-.075c-.074-.074-.074-.148-.149-.148-.148-.075-.148-.15-.148-.298-.075.074 0 .074 0 0m54.616-2.532c-.074.223.074.446.297.52.297-1.19.594-2.456.743-3.721-.371 1.042-.669 2.084-1.04 3.2"/><path fill="#69bc71" d="M102.231 57.448c.149.075.297.15.372.298-.075-.149-.075-.223-.149-.372h-.148c0 .074 0 .074-.075.074M80.608 34.744h-.371c.148.298.148.596 0 .819-.149.223-.446.372-.966.447-.446 0-.966.074-1.412.149.074.074.148.074.223.148.371.224.594.67.669 1.043v.297c-.075.298-.298.447-.744.521-.074 0-.223 0-.297.075 2.155.447 4.236 1.042 6.39 1.712.372.074.67.149 1.04.298 0-.075.15-.15.298-.075 2.378.596 4.83 1.34 7.356 1.712-.148-.148-.371-.372-.594-.52-1.858-.373-3.715-.522-5.499-.894-.743-.149-1.709-1.191-1.486-1.86.074-.299.297-.522.817-.522.67-.075 1.412-.149 2.081-.149-.074-.074-.149-.074-.223-.149a4.3 4.3 0 0 1-1.04-.372c-.297-.074-.446-.372-.446-.521-.149-.075-.371-.149-.52-.223-.297-.15-.595-.447-.817-.82-.372-.222-.818-.446-1.19-.67l-2.229-.446c-.297 0-.594.075-1.04 0M34.39 50.674v-.372c0-.074.074-.223.148-.298a19 19 0 0 1 2.452-2.456c-.743 0-1.709-.521-1.634-1.117q0-.224.223-.446l.297-.298c-.595.298-1.115.67-1.71.968-.073.074-.148 0-.296.074a53 53 0 0 0-3.493 3.573 28 28 0 0 0-1.857 2.308c.445.149.743.446.668.893v.074c.297.224.446.447.297.745a35 35 0 0 0-1.56 2.456c.223.075.446.298.595.447a6 6 0 0 1 .965-.968c.075-.074.15 0 .15-.074a49 49 0 0 1 4.755-5.509m62.714 44.59c.223-.298.446-.67.669-.968a11 11 0 0 0-.669.967M63.22 36.829c1.264-.373 2.601-.67 3.939-.968-.818-.15-2.527-1.191-2.155-2.084.074-.15.148-.224.297-.373-4.607.298-9.214 1.191-13.598 2.755.52.223.966.595 1.04.967v.224c-.074.148-.148.297-.371.372l-.892.446h.074c.52-.074 1.264.224 1.56.67.224-.074.447-.148.595-.223 3.195-1.042 6.316-1.563 9.511-1.787"/><path fill="#00ae70" d="M27.776 89.68c-.52-.149-1.114-.223-1.634-.298 0 .075.074.075.074.15.52.074 1.04.074 1.56.148m.446-11.166c2.972.596 7.505 1.489 9.809 4.02l-.67-.223c.372.223.744.446 1.115.744.223.149 0 .298-.222.149-.892-.596-1.858-1.042-2.75-1.489-1.857-.596-3.715-1.191-5.647-1.563a41 41 0 0 0-3.418-.596c.148.224.223.373.148.596 0 .074-.074.149-.148.223 2.229-.223 4.012-.074 3.938 1.117 0 .074 0 .149-.074.149-.223.297-.966 0-1.04-.224-.15-.297-2.527.15-4.979.67a24 24 0 0 1 3.27 0c0-.074.074-.149.297-.149 1.189-.148 2.526-.074 3.715.075.223 0 .669.446.52.595l-.074.075c5.721 1.265 11.294 4.02 16.124 7.593-1.783-2.606-3.64-5.137-6.093-7.295-.966-.894-2.006-1.638-3.046-2.308-.223.298-.67.298-1.04.223-.372-.074-.744-.372-.744-.744 0-.075 0-.15.075-.224.074-.074.074-.148.148-.148-4.681-2.606-10.031-3.722-15.381-3.797.074.67.148 1.34.297 2.01 2.006-.074 3.938.149 5.87.521"/><path fill="#00ae70" d="M38.105 82.534c-2.304-2.531-6.836-3.424-9.808-4.02-1.933-.372-3.864-.595-5.796-.744v.074c5.201.447 10.477 1.489 14.935 4.392.223.149.446.223.669.298"/><path fill="#00ae70" d="M26.513 79.556c1.189.15 2.378.373 3.418.596a70 70 0 0 1 5.647 1.563c-2.897-1.34-6.018-2.01-9.214-2.382 0 .074.075.149.15.223m74.9-21.81c.074 0 .148 0 .223-.075v-.074c0-.075.148-.15.297-.15.074 0 .223 0 .371.075l.075-.074h-.075c-.297 0-.743-.298-.668-.67 0-.075 0-.075.074-.15-.074-.074-.074-.222-.074-.297s.148-.223.297-.298c0 0 .074 0 .074-.074a36.6 36.6 0 0 0-3.046-6.178c-1.784 4.168-2.75 8.858-3.196 13.324 1.04-2.605 2.527-5.062 4.162-7.22.223-.298.891-.075.743.297-.149.596-.223 1.266-.372 1.861.074-.074.149-.074.223-.074zM81.574 34.52l2.23.447c-.595-.372-1.264-.67-1.858-.968-.075.224-.149.447-.372.521M31.938 87.298c-2.23-1.266-4.607-2.233-7.208-2.605-.149 0-.372 0-.595-.075l.67 1.787c2.526.149 5.052.595 7.133.893m.52-41.239c-1.56 1.563-3.121 3.126-4.533 4.838q.224.224 0 .447c-.297.297-.594.67-.892.968-.074.074-.074.223-.148.297.074.075.074.075.074.15.223-.075.372-.15.669-.224.223-.075.594 0 .966.074.594-.819 1.263-1.563 1.857-2.307 1.115-1.266 2.23-2.457 3.493-3.574-.52 0-1.19-.297-1.486-.67m-4.83 4.616c.074.074.148.074.223.149 1.412-1.712 2.972-3.276 4.532-4.839a.58.58 0 0 1-.148-.595s-.075 0-.075.074c-.371.298-.966.298-1.486.075-.966 1.265-1.932 2.605-2.749 4.02v.074c0 .372-.149.744-.297 1.042m72.523 9.676c.074-.074.148-.148.148-.222-.074 0-.074-.075-.148-.075z"/><path fill="#00ae70" d="M100.373 58.713c-.074-.074-.074-.074-.074-.149v.298c0-.074 0-.074.074-.149m.075 30.669c0-.074 0-.223.074-.297v-.075a4.9 4.9 0 0 1 .892-1.265c.148-.298.223-.521.371-.82a74 74 0 0 1-3.12 4.02c-1.561 1.787-4.013 4.541-5.648 7.445-.223.744-.371 1.563-.52 2.382l1.04-1.043c.372-.67.818-1.34 1.338-1.86.074-.075.223-.075.371 0a79 79 0 0 0 2.007-2.606c.223-.372.445-.67.668-.968a57 57 0 0 0 2.675-4.615c-.148-.149-.148-.223-.148-.298m-3.79 6.104v.15c-.223.52-.52.967-.966 1.34-.371.371-1.337-.075-1.263-.596 0-.075.074-.15.074-.224.297-.372.595-.67.892-1.116s1.189-.15 1.263.372zm-4.235 5.286c.074-.82.297-1.638.52-2.383-.595 1.043-1.115 2.159-1.412 3.201.297-.223.594-.521.892-.818M29.931 73.825c-2.6-.67-5.276-.82-7.95-.82 0 .373.074.67.074 1.043 2.526-.447 5.201-.447 7.876-.224m73.415 6.923a54 54 0 0 0 1.04-3.2c.223-1.266.297-2.531.372-3.797-.818.744-1.709 1.563-2.527 2.308-1.635 1.563-2.823 3.573-3.938 5.508-2.23 4.02-4.161 8.114-6.762 11.836-4.756 6.923-11.592 12.357-19.765 14.59-8.174 2.159-15.902.893-23.853-1.414-.445-.149-.817-.223-1.263-.372-1.932-.224-3.864-.224-5.796-.224a41.4 41.4 0 0 0 22.515 6.625c8.991 0 17.239-2.828 24.075-7.667.297-1.935.966-3.796 2.007-5.657 1.783-3.052 3.938-5.732 5.795-8.71 1.338-2.158 2.675-4.466 4.31-6.401.074-.298.074-.596.149-.82.52-1.935 1.709-2.977 2.972-4.466.074-.148.372.075.297.224-1.04 1.34-1.932 2.456-2.526 4.02l.074-.075a6.5 6.5 0 0 0-.446 1.712c0 .298.372.596.595.447l1.783-.894.223-.223a32 32 0 0 0 .817-2.829c-.074-.074-.223-.297-.148-.52"/><path fill="#00ae70" d="M99.036 88.266c-.074-1.34.149-2.755.52-4.095-1.709 1.936-2.972 4.244-4.31 6.402-1.783 2.978-4.012 5.732-5.795 8.71-1.04 1.861-1.784 3.722-2.007 5.657a29 29 0 0 0 3.344-2.68c.52-2.903 1.858-5.657 3.79-8.114 1.411-1.786 2.898-3.87 4.458-5.88m.669-.819c.891-1.117 1.857-2.159 2.823-3.201l-1.783.893c-.297.15-.669-.149-.594-.446a6.4 6.4 0 0 1 .445-1.712l-.074.074c-.149.298-.223.595-.297.968-.297 1.19-.372 2.307-.52 3.424M54.23 33.85c-1.784.968-3.567 1.936-5.425 2.83.669-.224 1.263-.447 1.932-.67.297-.075.669 0 .966.148 4.384-1.489 8.991-2.456 13.598-2.754.446-.372.966-.67 1.486-.968-.446-.149-.966-.521-1.263-.893-3.715.372-7.43.968-10.997 1.935-.075.15-.149.224-.298.372"/><path fill="#00ae70" d="M52.743 32.287c.743-.223 2.155.596 1.784 1.266a61 61 0 0 1 10.997-1.936l-.223-.223c-.594-.298-1.189-1.042-.446-1.265.372-.15.743-.224 1.115-.373-.818-.074-1.71-.149-2.601-.149-2.75 0-5.424.298-8.025.745-3.12 1.414-6.39 2.754-9.511 4.392 2.229-.894 4.532-1.787 6.91-2.457"/><path fill="#045b17" d="M22.95 78.81a12.7 12.7 0 0 1 2.378 0c.223 0 .668.223 1.04.52 3.195.373 6.316 1.043 9.214 2.382.966.447 1.857.894 2.75 1.49.148.074.37 0 .222-.15-.372-.297-.743-.446-1.115-.744-4.458-2.903-9.734-3.945-14.935-4.392 0 .149.074.372.074.521.149.149.297.223.372.372m76.758 8.635c.074-1.116.149-2.233.446-3.35.074-.372.223-.67.297-.967.595-1.489 1.412-2.68 2.526-4.02.149-.149-.148-.298-.297-.223-1.263 1.414-2.452 2.53-2.972 4.466-.074.298-.149.521-.149.819-.297 1.34-.52 2.754-.52 4.094-1.56 2.01-3.12 4.02-4.532 5.955-1.858 2.457-3.196 5.137-3.79 8.114.223-.223.52-.446.743-.67.297-1.116.817-2.159 1.412-3.2 1.635-2.904 4.087-5.658 5.647-7.445 1.115-1.34 2.155-2.605 3.121-4.02.372-.967.743-1.935 1.04-2.903l-.223.224c-.891.968-1.783 2.01-2.749 3.126"/><path fill="#259f73" d="M95.246 46.43c-.966.075-1.932.149-2.898.149.52.223 1.04.447 1.487.744.445-.297.891-.595 1.411-.893m-4.681 5.583c-.892.298-1.635.745-2.378 1.191.223.298.372.67.223.893-.074.15-.297.224-.668.15-.224 0-.372-.075-.595-.075.149.223.223.447.223.595 0 .373-.149.596-.669.67v.224a55 55 0 0 1 1.932.67c.074 0 .149.074.223.148.669-1.34 1.412-2.605 2.303-3.796.075-.074.075-.074.075-.149.223-.372-.372-.67-.669-.52"/><path fill="#259f73" d="M87.444 54.767c0 .373-.148.596-.669.67.446 0 .67-.297.67-.67m-.224 5.583c.075 0 .075.075.149.075v-.075zm.149 0h-.149zm0 .15v-.075zm.446-8.487c.074.075 0 .075.074.149.149-.223.372-.372.52-.596-.371-.074-.817-.074-1.189-.148.223.148.446.372.595.595M30.823 68.018c.148.148.297.297.223.446.148-.223.297-.446.446-.744h-.149c-.149.149-.297.223-.52.298"/><path fill="#259f73" d="M31.343 67.72c-.149.074-.372.223-.52.298.223-.075.371-.15.52-.298h.149c0 .074-.075.074-.149 0m8.694 6.625h-.669c.446.298.966.596 1.412.968 0-.075-.074-.075-.074-.15-.446-.222-.595-.52-.67-.818m-10.402-5.881h-.074c-.297.224-.67.447-.966.67v.149c.297-.298.668-.521 1.04-.819"/><path fill="#259f73" d="M29.56 68.464c-.297.224-.67.447-.966.67v.075-.075c.297-.298.594-.446.966-.67m15.901 9.306c-.52.074-1.189-.299-1.189-.82v-.148c-.223.074-.445.074-.668.074-.149 0-.52-.149-.743-.298-.15 0-.372-.074-.52-.074 1.114.819 2.228 1.712 3.343 2.605-.297-.447-.297-.893-.223-1.34"/><path fill="#259f73" d="M43.53 76.876c.222 0 .445-.075.668-.075v.15c0 .52.669.967 1.189.818h.074c-.074.447 0 .893.149 1.34-.223-.447-.223-.893-.149-1.34h-.074c-.52.075-1.189-.298-1.189-.819v-.148c-.223.074-.446.074-.669.074m-3.492 26.203c.297.074.446-.075.52-.224.074-.297-.297-.744-.669-.819a54 54 0 0 0-5.424-1.116c.743.67 1.412 1.34 2.23 2.01 1.188 0 2.303 0 3.343.149m25.264-69.676c-.149.15-.297.224-.297.373-.446.893 1.337 1.935 2.155 2.084a74 74 0 0 0-3.939.968c4.83-.298 9.66.223 14.416 1.34.074 0 .223 0 .297-.075.446-.075.669-.298.743-.521v-.298c0-.372-.297-.819-.669-1.042-.074-.075-.148-.075-.223-.149.446-.074.966-.074 1.412-.149.52 0 .818-.149.966-.446.149-.224.149-.521 0-.82h.372c.446 0 .817-.074 1.04-.223-1.709-.297-3.344-.595-5.053-.818a56.4 56.4 0 0 0-11.22-.224"/><path fill="#259f73" d="M76.521 33.701c1.71.223 3.344.521 5.053.819-1.635-.298-3.344-.596-5.053-.819-3.715-.521-7.505-.596-11.22-.298 3.79-.297 7.505-.223 11.22.298m-9.362 2.159a74 74 0 0 0-3.939.968c1.264-.373 2.601-.67 3.939-.968m-1.858-2.457c-.149.15-.297.224-.297.373.074-.15.148-.298.297-.373M87.37 60.5c-.149.52-.372 1.041-.52 1.563h.52c.371 0 .594-.224.594-.373.075-.372-.223-.967-.594-1.19"/><path fill="#259f73" d="M87.964 61.69c.075-.372-.223-.892-.594-1.19.371.223.669.818.594 1.19m1.041-5.285c-.67 1.265-1.19 2.605-1.635 3.945.297 0 .594-.074.892-.074.594-.149.817-.447.817-.819s-.297-.744-.594-1.042c.297 0 .52 0 .817-.075.446-.074.669-.223.743-.446.074-.447-.52-1.191-1.04-1.489"/><path fill="#259f73" d="M89.005 56.405c-.67 1.265-1.19 2.605-1.635 3.945.52-1.34 1.04-2.605 1.635-3.945m.074 3.052c0-.372-.297-.744-.594-1.042.371.298.594.67.594 1.042m.966-1.563c.074-.447-.52-1.117-1.04-1.414.52.223 1.114.967 1.04 1.414m3.864-10.571s-.074 0-.074-.074c-1.932 1.265-3.864 2.605-5.425 4.243 1.19.149 2.452.223 3.716.075.52-.075.743-.224.817-.447v-.149c0-.223-.074-.372-.149-.595h.892c.52 0 .817-.15.966-.373.297-.372.074-.893-.297-1.34.074-.074.148-.074.148-.148v-.075s0-.074.075-.074c.148-.373-.223-.82-.67-1.043"/><path fill="#259f73" d="M93.835 47.249c-1.932 1.265-3.864 2.605-5.425 4.243 1.635-1.563 3.493-2.977 5.425-4.243m.074.074c.371.224.743.67.743 1.043.074-.373-.297-.82-.743-1.043 0 0-.074 0-.074-.074zm.817 2.68c.297-.372.075-.893-.297-1.34.371.447.52.968.297 1.34m-1.783.968c0-.223-.074-.372-.149-.595.149.223.223.446.149.595m0 .149v.075zM85.81 36.53c.148.074.371.149.52.223 0 .223.148.447.445.521.372.149.743.223 1.04.372-.89-.67-1.857-1.34-2.823-1.86.223.297.52.595.817.744m-.669 1.935c-.148.67.744 1.712 1.487 1.861 1.783.298 3.64.521 5.499.893-1.264-1.265-2.675-2.382-4.087-3.424-.67 0-1.412.075-2.08.15-.521.074-.744.222-.818.52"/><path fill="#259f73" d="M92.646 41.74c-2.452-.372-4.979-1.116-7.357-1.712-.223-.074-.297 0-.297.075a40 40 0 0 1 2.824.744c1.783.521 3.566.968 5.424 1.489zm-6.688-3.796c-.52.075-.743.298-.817.521.074-.298.297-.447.817-.52.669-.075 1.412-.15 2.08-.15-.668 0-1.411 0-2.08.15m1.932 14.143a16 16 0 0 0-2.452 3.424c.892-.894 1.783-1.638 2.824-2.308l-.223-.223c.074-.075.074-.075.074-.149 0-.223-.074-.447-.223-.744"/><path fill="#259f73" d="M88.113 52.832q.111-.223-.223-.67.223.335.223.67m.074.372-.223-.223c.149.074.149.149.223.223m7.059-6.774c.298 0 .595-.074.966-.074.149 0 .223-.075.372-.15l-.892-1.116c-2.972-.149-6.093 0-8.025 2.085 2.304-.596 4.681-1.191 7.06-1.564.296-.074.89.373.742.67-.148.075-.148.075-.223.15"/><path fill="#259f73" d="M95.618 45.09c-2.972-.149-6.093 0-8.025 2.085 2.006-2.16 5.053-2.234 8.025-2.085M79.42 70.623c-.372-.372-.892-.596-1.338-.447-.075 0-.075.075-.149.075-.074.149 0 .298.074.446l.075.075c-.075.149 0 .298.148.447-.223-.075-.446-.15-.52 0 0 .074-.074.074-.074.148 0 .075 0 .15-.075.224-.074.223-.222.372-.371.595-.297.521.743.893 1.04.596.149-.075.223-.224.297-.298 0-.075.075-.075.075-.149.074-.298.074-.595-.149-.968.223.075.446.15.595 0a.9.9 0 0 0 .371-.372c.075-.074.075-.074.075-.149.074.075 0-.149-.075-.223"/><path fill="#259f73" d="M78.156 71.293c-.223-.075-.446-.149-.52 0 .074-.149.371-.075.52 0m-.966.967c.149-.223.297-.372.371-.595a1.6 1.6 0 0 1-.371.596m2.23-1.638c-.372-.372-.892-.596-1.338-.447-.075 0-.075.075-.149.075 0-.075.074-.075.149-.075.446-.148.966 0 1.337.447.149.149.223.298.149.447 0-.15-.075-.373-.149-.447M77.71 75.09c.074-.447-.817-1.266-1.337-.745-.075.074-.075.149-.149.223v.075c0 .074-.074.074-.074.149-.075.074-.075.148-.075.148 0 .15.149.373.298.522.222.148.445.223.743.148.148-.074.297-.223.371-.223s.149-.074.223-.149z"/><path fill="#259f73" d="M76.15 74.792s0-.075.074-.15c0 .075 0 .15-.074.15m.223-.447c-.075.074-.075.149-.149.223 0-.074.074-.149.149-.223m-.223.447c-.075.074-.075.148-.075.148 0-.074.075-.074.075-.148m25.71-18.759c-.149.074-.298.149-.298.298 0 .074 0 .223.075.297 0 .075-.075.075-.075.15-.074.297.372.67.669.67h.223c-.149-.447-.371-.968-.52-1.415 0-.075-.074-.075-.074 0"/><path fill="#259f73" d="M101.562 56.256c0-.074.149-.223.298-.298 0 0 .074 0 .074-.074 0 0-.074 0-.074.074-.149.15-.298.224-.298.298m.075.372c0 .075-.075.075-.075.15 0-.075 0-.15.075-.15m.966 1.117c-.075-.149-.223-.223-.372-.298-.148-.074-.223-.074-.371-.074-.149 0-.298.074-.298.149v.074c-.074 0-.148.075-.223.075l-.891.223c-.074 0-.149.074-.223.074-.074.075-.149.15-.149.224s0 .223.075.297c0 .075.074.075.074.15l-.149.148c-.074.075-.148.223-.223.298v.074c0 .075-.074.15-.074.224q0 .335.223.446c.074.075.074.075.149.075.297.149.594.223.817.149.297-.075.446-.298.594-.521.149-.224.372-.373.521-.522.074-.074.074-.074.074-.148.074-.15 0-.298-.074-.447.148-.075.297-.149.371-.298 0-.074.074-.074.074-.149v-.074c.149.074.149 0 .075-.149"/><path fill="#259f73" d="M102.38 59.01c.074-.148 0-.297-.075-.446.149.149.149.298.075.446m.223-1.265c-.075-.149-.223-.223-.372-.298.149.075.297.223.372.298m.148.447q0-.113 0 0m-2.823 1.34c0-.075.074-.15.074-.224 0 0-.074.15-.074.224m2.006-2.085c-.149 0-.297.075-.297.15 0-.15.148-.224.297-.15m-1.338.521.892-.223c.074 0 .149 0 .223-.075-.074 0-.149.075-.223.075a8 8 0 0 0-.892.223c-.074 0-.148.075-.223.075 0 0 .075-.075.223-.075m-1.857 4.988c.371-.15.743-.447.817-.894 0-.297-.074-.67-.223-.893-.148-.223-.743-.447-.891-.223v.298c-.075.148-.223.223-.298.372-.148.223-.223.447-.371.595-.297.447.669.894.966.745"/><path fill="#259f73" d="M98.442 61.244c-.075.148-.223.223-.298.372-.148.223-.223.447-.371.595.148-.223.223-.446.371-.595.149-.15.223-.224.297-.372m2.081 27.84c-.074.149-.074.223-.074.298s0 .149.074.223c.297-.596.595-1.265.892-1.86a7 7 0 0 0-.892 1.339"/><path fill="#259f73" d="M100.522 89.158q.446-.78.892-1.34a4.2 4.2 0 0 0-.892 1.34m-5.796 8.71c-.52.52-.966 1.19-1.337 1.86.594-.595 1.114-1.265 1.709-1.86-.149-.075-.297-.075-.372 0"/><path fill="#259f73" d="M94.726 97.868c-.52.52-.966 1.19-1.337 1.86.446-.67.817-1.265 1.337-1.86M29.337 81.342c.148.298.892.596 1.04.224 0-.075.074-.075.074-.15.075-1.19-1.709-1.34-3.938-1.116.074-.074.149-.149.149-.223.074-.224 0-.372-.149-.596-.074 0-.149-.074-.223-.149-.297-.297-.743-.52-1.04-.52-.817-.075-1.56 0-2.378 0a.9.9 0 0 0-.371-.373c.223 1.266.52 2.531.817 3.722.297-.074.669-.149.966-.223 2.526-.521 4.904-.968 5.053-.596"/><path fill="#259f73" d="M26.513 79.556c.149.223.223.372.149.595a.58.58 0 0 0-.149-.595m3.938 1.861c0 .074 0 .149-.074.149.074-.075.074-.075.074-.15m-5.201-2.605c-.817-.074-1.56 0-2.378 0a.9.9 0 0 0-.371-.372c.148.149.297.224.371.372.743-.074 1.56-.074 2.378 0m3.27 3.871c1.188-.149 2.377.075 3.566 0 .074 0 .074-.074.149-.074l.074-.075c.074-.223-.297-.595-.52-.595-1.189-.15-2.527-.224-3.715-.075-.149 0-.298.075-.298.15-.148.297.372.744.743.67"/><path fill="#259f73" d="M28 81.863c1.188-.148 2.526-.074 3.715.075.223 0 .668.446.52.595.074-.223-.297-.595-.52-.595-1.19-.224-2.527-.298-3.716-.075-.148 0-.297.075-.297.15 0-.075.074-.15.297-.15m25.116-43.026c-.372-.446-1.04-.744-1.56-.67h-.075l.892-.446c.223-.15.371-.224.371-.372v-.224c-.074-.372-.52-.744-1.04-.968-.074 0-.223.075-.297.075-6.614 2.308-12.484 5.732-17.462 10.422.074 0 .223 0 .297-.075a20 20 0 0 1 1.709-.968l-.297.298q-.223.224-.223.447c-.074.67.892 1.19 1.635 1.116-.892.745-1.71 1.638-2.453 2.457-.074.074-.148.223-.148.298v.372c5.127-5.211 11.443-9.38 18.65-11.762"/><path fill="#259f73" d="M36.99 47.472c-.891.745-1.709 1.638-2.452 2.457.743-.819 1.635-1.638 2.452-2.457m15.753-10.347v.15zm-1.189 1.042c.52-.074 1.264.224 1.56.67-.37-.52-1.04-.819-1.56-.67h-.074zm5.276 38.188c0-.15 0-.298.149-.447 0-.074 0-.074.074-.149.149-.52-.52-.967-1.115-1.116l.223-.447c.149-.372-.594-.819-.891-.521-.52.67-1.19 1.117-2.007 1.414-.148.075-.297.15-.297.298v.075c0 .446.817 1.042 1.338.893.148 0 .297-.075.371-.075.075.224.149.373.297.596.298.447.595.67.52 1.265-.074.596.818.968 1.264.894.446-.075.743-.298.891-.596.075-.149.075-.298.075-.446a.8.8 0 0 0-.223-.522c-.297-.446-.669-.67-.669-1.116"/><path fill="#259f73" d="M57.722 78.067c0 .149 0 .298-.075.447 0-.15.075-.298.075-.447m-.223-.596c-.297-.446-.669-.744-.669-1.116 0 .447.372.67.669 1.116m-4.236-2.307c.818-.298 1.486-.745 2.007-1.415.223-.297 1.04.15.891.522l-.223.446c.595.149 1.19.596 1.115 1.117.149-.521-.52-.968-1.115-1.117l.223-.447c.149-.372-.594-.818-.891-.52-.52.67-1.19 1.042-2.007 1.414-.148.074-.297.149-.297.298a.32.32 0 0 1 .297-.298m-14.638-1.266c.149.224.446.447.669.447-2.75-1.861-5.647-3.424-9.214-4.317.074.446.743.893 1.263.818-.074.596.52 1.042 1.189 1.191.372.67 1.56 1.117 2.08.596.15-.149.298-.298.372-.447v.075c0 .446.446.744.817.819-.148.148-.223.372-.297.595 0 .075-.074.149-.074.223 0 .521.817.894 1.263.82.074 0 .149-.075.297-.075.52.446 1.19.744 1.858.67.223 0 .297-.075.297-.224.074-.223-.297-.67-.594-.744h-.372q.335-.224.446-.447"/><path fill="#259f73" d="M39.368 74.345c-2.75-1.861-5.647-3.424-9.214-4.317 3.493.893 6.465 2.456 9.214 4.317m-3.789-.67c0 .075-.075.149-.075.223 0-.074 0-.148.075-.223m3.121.67c.297.074.594.447.594.744 0-.297-.372-.67-.595-.744h-.371c.148-.075.297-.075.371 0m-11.666-4.169v.224c.075.149.149.223.223.372 1.04.968 2.08.298 2.824-.67-.372-.075-.743-.223-1.19-.298-.148 0-.52-.298-.445-.52-.148.073-.297.148-.371.222-.298.15-.818.224-1.04.596.074-.075 0 0 0 .074m18.65 9.082c.223.298.595.521 1.04.67-.371-.298-.743-.521-1.114-.819 0 .075 0 .149.074.149M24.507 68.315l-.223.447v.149c0 .372.446.595.743.595 1.189.15 2.526-.744 3.418-1.563.297.298.743.447 1.115.521a81 81 0 0 1 6.836-4.317c.148-.075.223-.075.297-.15V63.7c-.148 0-.297.075-.446.149a19 19 0 0 0-3.938 1.34c-1.709.67-3.27 1.712-4.756 2.605-.297.224-1.114-.223-.891-.67.817-1.265 1.709-2.382 2.675-3.498-1.784 1.042-3.418 2.158-4.83 3.722-.297.297-1.115-.075-1.115-.447v-.149c1.784-3.796 3.939-7.295 6.39-10.57-.074 0-.148 0-.148.074-.372.298-.669.67-.966.968a1.16 1.16 0 0 0-.594-.447l1.56-2.456c.149-.224 0-.521-.297-.745v-.074c.074-.447-.297-.745-.669-.893-1.932 2.53-3.715 5.21-5.053 8.04-.148 0-.223.148-.223.222-.148.298-.223.521-.371.82-.595 2.456-.892 4.987-1.04 7.592.371-.595.742-1.117 1.114-1.712.223.372.817.67 1.412.744"/><path fill="#259f73" d="M36.173 63.775a19 19 0 0 0-3.938 1.34c-1.71.67-3.27 1.712-4.756 2.605-.297.223-1.114-.224-.892-.67-.223.372.595.819.892.67 1.56-.968 3.121-1.936 4.756-2.605 1.337-.522 2.6-.968 3.938-1.34.149-.075.297-.075.446-.15-.075.075-.223.15-.446.15m-11.815 3.573c-.297.297-1.114-.075-1.114-.447.074.447.891.819 1.114.447 1.412-1.564 3.047-2.755 4.83-3.722-1.709.967-3.418 2.158-4.83 3.722M36.693 63.7v.298zm-7.43-10.198v-.075c.074-.446-.298-.744-.67-.893.447.15.744.447.67.894zc.297.223.445.447.297.744.148-.297-.075-.52-.297-.744m.222 2.68c-.371.297-.668.67-.966.968a1.16 1.16 0 0 0-.594-.447c.223.074.446.298.594.447.298-.373.595-.67.966-.968.075-.075.149 0 .149-.075 0 0-.074 0-.149.075m11.369 19.354c.372.521.892.819 1.412.968-.52-.373-1.04-.82-1.56-1.191.074.074.074.149.148.223m8.1 8.263c.222.297 1.04.595 1.263.074.223-.446-.52-.893-.892-.893h-.223q-.334 0-.446.223v.224c0 .074.075.148.149.223.074 0 .149.074.149.149"/><path fill="#259f73" d="M49.102 82.906q-.334 0-.446.223.224-.225.446-.224M37.585 79.63l-.149.149c0 .075-.074.149-.074.223 0 .373.371.67.743.745.371.074.817.074 1.04-.224l.149-.148c.148-.298 0-.596-.149-.82-.223-.52-1.412-.744-1.635-.223.075.075.075.224.075.298"/><path fill="#259f73" d="M39.22 79.63c.148.224.222.521.148.819.074-.298-.074-.596-.149-.819-.222-.52-1.411-.744-1.634-.223.148-.596 1.412-.298 1.634.223m-1.634 0-.149.149c.075 0 .075-.074.149-.149m67.024-12.58c-.074-.745-.149-1.563-.297-2.308-.075 0-.075.075-.149.075v.223c-.074.075-.148.149-.223.298 0 .074-.074.149-.074.223v.223c0 .224 0 .373.074.521.075.373.372.596.669.745"/><path fill="#12827a" d="M22.113 103.23c0 6.904 5.597 12.501 12.5 12.503 6.904.001 12.5-5.594 12.5-12.498s-5.596-12.5-12.5-12.502c-6.903-.002-12.5 5.594-12.5 12.497"/><path fill="#000" fill-rule="evenodd" d="M34.613 88.732c8.008.002 14.5 6.495 14.5 14.503s-6.492 14.499-14.5 14.497c-8.008-.001-14.5-6.494-14.5-14.503 0-8.008 6.492-14.498 14.5-14.497m10.07 14.502c0-5.56-4.508-10.07-10.07-10.071-5.56-.001-10.07 4.506-10.07 10.067 0 5.562 4.51 10.071 10.07 10.072 5.562.001 10.07-4.506 10.07-10.068" clip-rule="evenodd"/><path fill="#fff7e7" d="M34.02 115.584a.195.195 0 0 0 .357.008l2.875-6.276c.155-.366-.165-.744-.626-.738l-4.48.058c-.46.006-.786.393-.634.755zm11.658-4.115c.069.051.166-.005.153-.089-.431-2.862-.818-4.41-2.305-6.37-.216-.385-.758-.412-1.058-.052l-2.893 2.204c-.3.36-.179.889.237 1.035 2.302-.128 3.573 1.556 5.866 3.272m-22.692 0c-.069.051-.166-.005-.153-.089.431-2.862.818-4.41 2.305-6.37.216-.385.758-.412 1.058-.052l2.893 2.204c.3.36.179.889-.237 1.035-2.302-.128-3.573 1.556-5.866 3.272"/><path fill="#12827a" d="M80.113 103.23c0 6.904 5.597 12.501 12.5 12.503 6.904.001 12.5-5.594 12.5-12.498s-5.596-12.5-12.5-12.502c-6.903-.002-12.5 5.594-12.5 12.497"/><path fill="#000" fill-rule="evenodd" d="M92.613 88.732c8.008.002 14.5 6.495 14.5 14.503s-6.492 14.499-14.5 14.497c-8.008-.001-14.5-6.494-14.5-14.503 0-8.008 6.492-14.498 14.5-14.497m10.07 14.502c0-5.56-4.509-10.07-10.07-10.071-5.56-.001-10.07 4.506-10.07 10.067 0 5.562 4.51 10.071 10.07 10.072s10.07-4.506 10.07-10.068" clip-rule="evenodd"/><path fill="#fff7e7" d="M92.02 115.584a.195.195 0 0 0 .357.008l2.875-6.276c.155-.366-.165-.744-.626-.738l-4.48.058c-.46.006-.786.393-.634.755zm11.658-4.115c.069.051.166-.005.153-.089-.431-2.862-.818-4.41-2.305-6.37-.216-.385-.758-.412-1.058-.052l-2.893 2.204c-.3.36-.179.889.237 1.035 2.302-.128 3.573 1.556 5.866 3.272m-22.692 0c-.069.051-.166-.005-.153-.089.431-2.862.818-4.41 2.305-6.37.216-.385.758-.412 1.058-.052l2.893 2.204c.3.36.179.889-.237 1.035-2.302-.128-3.573 1.556-5.866 3.272"/><path fill="#31b164" d="M46.732 58.746c-.02-2.814-.85-5.323-3.036-7.186-1.66-1.416-3.481-2.186-5.384-2.449A32.3 32.3 0 0 0 31.41 69.13c0 6.214 1.74 12.023 4.777 16.941.202-.566.405-1.092.546-1.517-.587-2.692-1.255-5.101-1.64-7.53-.586-3.765.264-7.287 2.47-10.424 1.235-1.76 2.874-3.097 4.676-4.23.749-.466 1.62-.688 2.429-1.032l-.608.425c.608-.203 1.215-.365 1.802-.587.283-.101.587-.243.81-.446.384-.344.445-.93.404-1.538-.08.142-.162.263-.243.385-.02-.243-.08-.527-.1-.83"/><path fill="#00ae70" d="M42.259 62.389c-1.801 1.113-3.44 2.47-4.676 4.23-2.206 3.138-3.056 6.64-2.469 10.424.385 2.429 1.032 4.817 1.64 7.53l-.547 1.518c.06.08.121.182.162.263.182.283.364.587.567.87.81-1.052 1.619-2.125 2.226-3.32-.79-2.165-1.862-4.23-2.226-6.557-.466-3.137-.04-6.093 1.255-8.987 1.174-2.652 3.015-4.635 5.384-6.214.182-.121.344-.223.506-.344l.607-.425c-.81.324-1.68.567-2.429 1.012"/><path fill="#31b164" d="M81.08 58.464c0 .283-.06.566-.141.85a7 7 0 0 1-.243-.405c-.04.607 0 1.194.385 1.538.222.203.526.344.81.446.586.222 1.214.384 1.8.587l-.606-.425c.81.344 1.68.587 2.428 1.052 1.802 1.133 3.421 2.49 4.656 4.25 2.186 3.158 3.016 6.66 2.408 10.424-.404 2.43-1.073 4.818-1.68 7.51.162.485.385 1.072.607 1.7a32.23 32.23 0 0 0 4.757-16.901c0-7.63-2.631-14.654-7.044-20.18-1.78.284-3.481 1.032-5.04 2.368-2.226 1.862-3.056 4.372-3.096 7.186"/><path fill="#259f73" fill-rule="evenodd" d="M81.951 51.135c-1.376 1.862-2.45 5.485-1.255 7.793l.001-.018.053.095c.058.102.111.199.189.307.06-.283.121-.566.141-.85.04-2.813.891-5.323 3.077-7.165 1.579-1.316 3.279-2.064 5.04-2.368q-.029-.03-.05-.06-.023-.031-.051-.062l-.014.002a24 24 0 0 0-1.14-1.337c-2.327.526-4.534 1.7-5.991 3.663m.587 1.558c-.848 1.183-1.406 2.55-1.574 3.97.171-1.42.729-2.786 1.574-3.97M38.414 49.01q-.03.03-.05.06-.022.03-.051.061c1.902.264 3.724 1.033 5.383 2.45 2.187 1.862 3.016 4.371 3.037 7.185 0 .283.06.567.121.85.04-.06.081-.127.121-.192q.06-.1.122-.193c1.214-2.287.162-5.91-1.194-7.792-1.518-2.085-3.866-3.28-6.336-3.805-.404.445-.789.91-1.153 1.376m1.234.202a13 13 0 0 0-1.203-.199c.395.04.809.1 1.203.2" clip-rule="evenodd"/><path fill="#00ae70" d="M90.17 66.376c-1.235-1.76-2.854-3.117-4.655-4.25-.729-.466-1.62-.709-2.43-1.053l.608.425c.162.122.344.243.506.344 2.348 1.6 4.17 3.603 5.344 6.255 1.275 2.914 1.7 5.87 1.194 9.007-.364 2.327-1.457 4.392-2.267 6.558.627 1.255 1.457 2.368 2.307 3.46l.547-.85c.06-.08.101-.161.162-.242-.223-.628-.425-1.215-.608-1.7.608-2.692 1.276-5.08 1.68-7.51.648-3.785-.182-7.286-2.388-10.444"/><path fill="#69bc71" d="M82.798 76.882c-1.255-.668-2.55-.506-3.846-.304-.405.081-.729.324-1.012.607-1.012 1.073-2.287 1.7-3.684 2.126-.08.02-.182.04-.263.06a2.2 2.2 0 0 1-.607.142c-.324.02-.587.182-.89.263-.142.04-.284.04-.426.06-1.073.041-1.72.568-2.226 1.256-.162-.101-.122-.06-.284-.162 1.417-3.664 2.632-7.408 4.089-11.052.222-.526.303-1.113.385-1.68-.041-.364-.041-.728-.041-1.113-.02-2.145-.243-4.23-1.498-6.092-.85-1.275-2.004-1.984-3.542-1.943-.486.02-.91-.06-1.376-.243-.992-.405-1.538-.122-1.802.91-.1.365-.182.73-.506.952-.668.445-1.052 1.134-1.498 1.761-.344-.506-.688-.992-1.194-1.356-.323-.223-.404-.587-.506-.951-.263-1.012-.81-1.316-1.801-.911-.445.182-.89.263-1.376.243-1.539-.04-2.692.647-3.563 1.922-1.255 1.842-1.498 3.927-1.538 6.073 0 .364-.02.728-.06 1.113.06.567.161 1.154.364 1.68 1.376 3.502 2.53 7.084 3.845 10.606-.222.142-.182.121-.405.263-.465-.506-1.052-.87-1.922-.91l-.425-.061c-.304-.082-.567-.243-.891-.284a2 2 0 0 1-.607-.142c-.081-.02-.162-.04-.263-.06-1.377-.446-2.652-1.073-3.664-2.146-.283-.303-.607-.526-1.012-.607-1.316-.202-2.59-.385-3.846.283-2.348 1.215-3.4 3.826-2.449 6.356 1.336 3.603 2.267 7.327 3.461 11.01-.242.264-.668.021-.95.325-.224.465.14.708.505.87.547.243.79.688.91 1.235 1.033 4.857 1.904 9.715 2.187 14.674.101 1.66.324 3.299.405 4.959.04.162.06.304.141.587.405 1.72 3.563 4.19 4.919 5.181 2.064 1.498 4.412 2.065 6.942 2.267 3.32.243 6.72-.323 9.776-1.619 2.369-1.012 6.902-3.36 7.57-6.133.061-.283.102-.425.142-.587.081-1.659.324-3.299.425-4.959.324-4.959 1.235-9.816 2.287-14.674.122-.567.365-.992.911-1.235.365-.162.75-.384.506-.87-.263-.304-.688-.06-.93-.324 1.214-3.684 2.165-7.408 3.541-10.99.972-2.55-.06-5.142-2.408-6.376"/><path fill="#f7f7f7" d="m42.38 91.96-7.49-2.59 4.332-5.83z"/><path fill="#e5e5e5" d="m42.38 91.961-7.49-2.59 5.749-2.065z"/><path fill="#f7f7f7" d="m85.207 91.697 7.51-2.55-4.292-5.85z"/><path fill="#e5e5e5" d="m85.207 91.697 7.51-2.55-5.729-2.105z"/><path fill="#f7f7f7" d="m81.664 99.632 7.084-1.376-2.914-6.497z"/><path fill="#e5e5e5" d="m81.664 99.632 7.084-1.376-5.06-2.45z"/><path fill="#f7f7f7" d="m46.123 99.834-7.084-1.377 2.935-6.497z"/><path fill="#e5e5e5" d="m46.123 99.834-7.084-1.376 5.06-2.45z"/><path fill="#03674f" d="M88.707 83.824c.405-.971.79-1.943 1.194-2.894 1.68-3.968 1.862-7.955.304-11.983-1.356-3.542-3.583-6.274-7.105-7.853-.647-.263-1.275-.526-1.983-.81a53 53 0 0 1-.183-.83c-.08-1.315-.485-2.59-.344-3.926.405-3.623 2.43-5.991 6.032-7.408.385-.162.85-.182 1.073-.607.08-.02.182-.04.263-.061-5.95-6.599-14.553-10.748-24.127-10.748-9.655 0-18.318 4.21-24.268 10.91.222.04.425.101.627.162.223.404.688.445 1.073.607 3.583 1.437 5.607 3.805 5.971 7.448.142 1.316-.283 2.611-.364 3.907-.061.283-.142.546-.203.83-.708.283-1.356.546-2.004.81-3.542 1.538-5.788 4.27-7.165 7.792-1.578 4.028-1.417 8.015.223 12.003.405.971.769 1.943 1.174 2.914.02.04 8.157 23.459 8.217 23.722.628 2.935 1.215 5.89 1.822 8.825.02-.607.122-1.235.06-1.842-.363-3.947-.687-7.894-1.173-11.8-.283-2.287-.445-3.482-1.498-7.934-.486-1.66-.971-3.239-1.437-4.818-.223-.769-.405-1.558-.668-2.307-.486-1.437-.951-2.874-1.498-4.27-1.093-2.855.243-5.79 3.158-6.538.93-.243 1.983.02 2.995.06.122-.607-.344-.992-.627-1.417-1.903-3.036-1.518-6.78.951-9.371.405-.425.83-.79 1.417-.91.91-.588 1.194-1.64.85-2.794.567 1.518.911 3.117 1.6 4.574.1.203.586 1.6.93.952.061-.102.061-.223.061-.344.02-.73-.02-1.458.06-2.186.142-1.255.446-2.51 1.053-3.623.75-1.377 2.247-2.47 3.866-2.47 2.409 0 3.3 2.166 5.04 3.38-.04-.202 2.389-3.785 4.655-3.764 1.62.02 3.097 1.113 3.846 2.49.607 1.112.91 2.367 1.032 3.622.081.729.04 1.457.04 2.186 0 .122 0 .243.062.344.344.648.85-.749.93-.951.71-1.457 1.053-3.056 1.64-4.554-.364 1.154-.08 2.186.83 2.793.587.121 1.012.486 1.417.91 2.449 2.612 2.793 6.336.89 9.372-.283.425-.748.81-.627 1.417.992-.02 2.064-.283 2.995-.04 2.915.769 4.251 3.704 3.118 6.558-.547 1.396-1.033 2.833-1.539 4.27-.263.77-.445 1.539-.688 2.308l-1.477 4.797c-1.073 4.453-1.255 5.647-1.559 7.934-.526 3.927-.87 7.853-1.255 11.8-.06.607.04 1.235.06 1.842.628-2.935 1.236-5.87 1.883-8.805.061-.283 8.38-23.64 8.38-23.68"/><path fill="#00ae70" d="M53.933 79.978c-2.024-1.113-4.088-2.652-5.242-4.757-1.882-3.42-1.235-7.306 1.72-9.857-.445.243-.95.425-1.295.77-2.874 2.894-3.097 7.003-.607 10.444.142.182.263.384.385.587.566.465 1.072.991 1.68 1.376.85.506 3.197 1.477 3.36 1.437"/><path fill="#002e0d" d="M53.854 68.38c-.91-2.227-1.801-4.473-2.651-6.578.04.81.08 1.801.141 2.894-.283.203-.607.445-.93.688-1.62.85-2.41 2.308-2.814 3.988a8.26 8.26 0 0 0 .223 4.594c.485 1.458 1.376 2.773 2.49 3.806 1.214 1.133 2.732 1.922 4.31 2.428q.637.213 1.276.365c.222.04.425.1.647.141.162.02.405 0 .506.142.688 1.032 1.397 2.085 2.085 3.137.04-.02.101-.04.142-.06a4738 4738 0 0 0-5.425-15.545"/><path fill="#f7f7f7" d="M51.2 67.977c-1.983 2.57.466 8.581 3.3 9.391.323-.728-2.43-8.602-3.3-9.391"/><path fill="#00ae70" d="M73.727 79.636c2.044-1.093 4.108-2.63 5.282-4.716 1.903-3.42 1.275-7.306-1.66-9.877.426.263.952.425 1.296.77 2.854 2.914 3.036 7.023.547 10.443-.142.182-.264.385-.405.587-.567.466-1.073.992-1.7 1.356-.83.506-3.199 1.478-3.36 1.437"/><path fill="#002e0d" d="M73.89 68.038c.911-2.226 1.842-4.452 2.692-6.557-.04.81-.1 1.8-.162 2.874.284.222.608.445.911.688 1.6.87 2.389 2.328 2.773 4.007a8.27 8.27 0 0 1-.263 4.595c-.506 1.457-1.396 2.753-2.51 3.805-1.234 1.134-2.752 1.903-4.331 2.409a10 10 0 0 1-1.275.344c-.223.04-.425.101-.648.121-.162.02-.405 0-.506.142-.688 1.032-1.397 2.085-2.105 3.137-.04-.02-.101-.04-.142-.06a4766 4766 0 0 0 5.566-15.505"/><path fill="#f7f7f7" d="M76.54 67.655c1.964 2.57-.525 8.582-3.38 9.372-.283-.75 2.51-8.582 3.38-9.372"/><path fill="#e5e5e5" d="M63.793 89.026c-2.004 3.198-3.684 6.255-4.98 10.343-1.396 4.372-2.246 8.238-2.63 13.4a3.2 3.2 0 0 0 1.072 2.651c1.234 1.113 3.461 2.631 6.537 2.631z"/><path fill="#f7f7f7" d="M63.793 89.026c2.004 3.198 3.562 6.255 4.878 10.343 1.396 4.413 2.267 8.279 2.631 13.501.06.971-.283 1.902-.992 2.57-1.133 1.093-3.218 2.53-6.517 2.611z"/><path fill="#002e0d" d="M53.734 112.99c-1.58 2.045.364 6.862 2.651 7.509.243-.587-1.943-6.881-2.651-7.509m20.281-.262c1.579 2.064-.425 6.861-2.692 7.489-.243-.587 1.984-6.862 2.692-7.489"/></svg>