<svg version="1.1" viewBox="0.0 0.0 128.0 128.0" fill="none" stroke="none" stroke-linecap="square" stroke-miterlimit="10" xmlns:xlink="http://www.w3.org/1999/xlink" xmlns="http://www.w3.org/2000/svg"><clipPath id="p.0"><path d="m0 0l128.0 0l0 128.0l-128.0 0l0 -128.0z" clip-rule="nonzero"/></clipPath><g clip-path="url(#p.0)"><path fill="#000000" fill-opacity="0.0" d="m0 0l128.0 0l0 128.0l-128.0 0z" fill-rule="evenodd"/><path fill="#000000" fill-opacity="0.0" d="m51.094067 78.5206l0 0c-0.43922424 -0.3455124 -0.51548004 -0.98189545 -0.17032242 -1.4213943l2.499775 -3.1830673l0 0c0.1657486 -0.21105957 0.40850067 -0.34755707 0.67484665 -0.37947083c0.2663498 -0.031921387 0.53447723 0.04336548 0.7453995 0.20928955l3.1976128 2.515396c0.43922043 0.3455124 0.5154762 0.98189545 0.1703186 1.4213943l-2.499771 3.1830673l0 0c-0.34515762 0.43950653 -0.9810219 0.51569366 -1.4202461 0.17018127z" fill-rule="evenodd"/><path stroke="#323232" stroke-width="1.136482939632546" stroke-miterlimit="8.0" stroke-linecap="round" d="m51.094067 78.5206l0 0c-0.43922424 -0.3455124 -0.51548004 -0.98189545 -0.17032242 -1.4213943l2.499775 -3.1830673l0 0c0.1657486 -0.21105957 0.40850067 -0.34755707 0.67484665 -0.37947083c0.2663498 -0.031921387 0.53447723 0.04336548 0.7453995 0.20928955l3.1976128 2.515396c0.43922043 0.3455124 0.5154762 0.98189545 0.1703186 1.4213943l-2.499771 3.1830673l0 0c-0.34515762 0.43950653 -0.9810219 0.51569366 -1.4202461 0.17018127z" fill-rule="evenodd"/><path fill="#323232" d="m37.501167 84.673225l-0.6220627 -6.1699905l27.906067 -27.906063l1.2804718 1.280468l-3.7725945 3.7725906l4.620823 4.620823l-25.295254 27.188122z" fill-rule="evenodd"/><path stroke="#323232" stroke-width="3.6561679790026247" stroke-miterlimit="8.0" stroke-linecap="round" d="m37.501167 84.673225l-0.6220627 -6.1699905l27.906067 -27.906063l1.2804718 1.280468l-3.7725945 3.7725906l4.620823 4.620823l-25.295254 27.188122z" fill-rule="evenodd"/><path fill="#ffffff" d="m37.501167 84.673225l-0.6220627 -6.1699905l27.906067 -27.906063l1.2804718 1.280468l-3.7725945 3.7725906l4.620823 4.620823l-25.295254 27.188122z" fill-rule="evenodd"/><path stroke="#ffffff" stroke-width="0.5695538057742782" stroke-linejoin="round" stroke-linecap="butt" d="m37.501167 84.673225l-0.6220627 -6.1699905l27.906067 -27.906063l1.2804718 1.280468l-3.7725945 3.7725906l4.620823 4.620823l-25.295254 27.188122z" fill-rule="evenodd"/><path fill="#323232" d="m60.195972 53.216053l4.2926216 -4.292618l2.7196655 2.7196732l-4.292614 4.292618z" fill-rule="evenodd"/><path fill="#323232" d="m47.105515 87.9672l4.581642 -4.9935226l1.8942795 1.8195572l-0.6023483 1.0424347l3.5834007 7.2023315l1.7050705 1.2666016l-4.444954 2.4638367l-4.463009 -7.863159z" fill-rule="evenodd"/><path stroke="#323232" stroke-width="3.6561679790026247" stroke-miterlimit="8.0" stroke-linecap="round" d="m47.105515 87.9672l4.581642 -4.9935226l1.8942795 1.8195572l-0.6023483 1.0424347l3.5834007 7.2023315l1.7050705 1.2666016l-4.444954 2.4638367l-4.463009 -7.863159z" fill-rule="evenodd"/><path fill="#ffffff" d="m47.105515 87.9672l4.581642 -4.9935226l1.8942795 1.8195572l-0.6023483 1.0424347l3.5834007 7.2023315l1.7050705 1.2666016l-4.444954 2.4638367l-4.463009 -7.863159z" fill-rule="evenodd"/><path stroke="#ffffff" stroke-width="0.5695538057742782" stroke-linejoin="round" stroke-linecap="butt" d="m47.105515 87.9672l4.581642 -4.9935226l1.8942795 1.8195572l-0.6023483 1.0424347l3.5834007 7.2023315l1.7050705 1.2666016l-4.444954 2.4638367l-4.463009 -7.863159z" fill-rule="evenodd"/><path fill="#323232" d="m52.17246 78.03932l1.5913811 -0.40370178l-0.42575455 -1.3388443z" fill-rule="evenodd"/><path fill="#000000" fill-opacity="0.0" d="m55.62697 78.63334l0 0c-0.4810524 0.12822723 -0.9939804 0.059928894 -1.4259415 -0.18986511c-0.43196106 -0.249794 -0.74757385 -0.66062164 -0.87740326 -1.1421127l1.8138199 -0.4834671z" fill-rule="evenodd"/><path fill="#000000" fill-opacity="0.0" d="m55.62697 78.63334l0 0c-0.4810524 0.12822723 -0.9939804 0.059928894 -1.4259415 -0.18986511c-0.43196106 -0.249794 -0.74757385 -0.66062164 -0.87740326 -1.1421127" fill-rule="evenodd"/><path stroke="#323232" stroke-width="0.7034120734908136" stroke-linejoin="round" stroke-linecap="round" d="m55.62697 78.63334l0 0c-0.4810524 0.12822723 -0.9939804 0.059928894 -1.4259415 -0.18986511c-0.43196106 -0.249794 -0.74757385 -0.66062164 -0.87740326 -1.1421127" fill-rule="evenodd"/><path fill="#323232" d="m79.925026 36.92102l1.1143265 -1.1026573l4.1617584 4.1617584l-0.0309906 0.76275253l1.0970459 1.0970421l-0.88985443 0.88985443z" fill-rule="evenodd"/><path fill="#323232" d="m80.617256 36.25641l6.2833176 -6.2833214l1.6338348 1.6338329l-6.2833176 6.2833233z" fill-rule="evenodd"/><path fill="#323232" d="m83.22685 38.86601l21.941734 -21.941736l1.6338348 1.6338329l-21.941734 21.941734z" fill-rule="evenodd"/><path fill="#323232" d="m86.200195 41.90706l20.729042 -20.729046l0 -0.7238922l-0.3619461 -0.3619461l-21.090988 21.090992z" fill-rule="evenodd"/><path fill="#323232" d="m91.04865 27.979061l-4.1764374 2.0223904l5.3851166 5.3851147l3.099411 -3.099411z" fill-rule="evenodd"/><path fill="#323232" d="m104.86212 22.38397l-3.538475 -0.006155014l-1.0113144 -1.0113125l-0.87979126 -3.263214l-2.0171432 -2.0171452l1.9830551 -1.9830551l6.850357 6.850357z" fill-rule="evenodd"/><path fill="#323232" d="m62.041157 71.73473l1.2570038 1.1784973l1.3452644 0.96495056l2.19738 1.5875854l2.422264 1.665123l2.19693 1.2708435l2.151413 1.1284027l2.7786484 1.3554611l1.8599396 0.79234314l3.1367188 1.3176041l2.038971 0.7725067l0.82871246 -7.5642014l-2.643196 -0.8385391l-3.1596146 -1.4339523l-3.54187 -1.9646301l-3.384819 -2.0997849l-4.5976562 -3.4527054z" fill-rule="evenodd"/><path stroke="#323232" stroke-width="3.6561679790026247" stroke-miterlimit="8.0" stroke-linecap="round" d="m62.041157 71.73473l1.2570038 1.1784973l1.3452644 0.96495056l2.19738 1.5875854l2.422264 1.665123l2.19693 1.2708435l2.151413 1.1284027l2.7786484 1.3554611l1.8599396 0.79234314l3.1367188 1.3176041l2.038971 0.7725067l0.82871246 -7.5642014l-2.643196 -0.8385391l-3.1596146 -1.4339523l-3.54187 -1.9646301l-3.384819 -2.0997849l-4.5976562 -3.4527054z" fill-rule="evenodd"/><path fill="#ffffff" d="m62.041157 71.73473l1.2570038 1.1784973l1.3452644 0.96495056l2.19738 1.5875854l2.422264 1.665123l2.19693 1.2708435l2.151413 1.1284027l2.7786484 1.3554611l1.8599396 0.79234314l3.1367188 1.3176041l2.038971 0.7725067l0.82871246 -7.5642014l-2.643196 -0.8385391l-3.1596146 -1.4339523l-3.54187 -1.9646301l-3.384819 -2.0997849l-4.5976562 -3.4527054z" fill-rule="evenodd"/><path stroke="#ffffff" stroke-width="0.5695538057742782" stroke-linejoin="round" stroke-linecap="butt" d="m62.041157 71.73473l1.2570038 1.1784973l1.3452644 0.96495056l2.19738 1.5875854l2.422264 1.665123l2.19693 1.2708435l2.151413 1.1284027l2.7786484 1.3554611l1.8599396 0.79234314l3.1367188 1.3176041l2.038971 0.7725067l0.82871246 -7.5642014l-2.643196 -0.8385391l-3.1596146 -1.4339523l-3.54187 -1.9646301l-3.384819 -2.0997849l-4.5976562 -3.4527054z" fill-rule="evenodd"/><path fill="#000000" fill-opacity="0.0" d="m65.60401 66.749695l3.2175064 2.5237885l2.5644684 1.6977768l4.259659 2.5258179l3.4762955 1.742897l3.041504 1.2207336l2.9538193 0.8735657" fill-rule="evenodd"/><path stroke="#323232" stroke-width="1.136482939632546" stroke-linejoin="round" stroke-linecap="butt" d="m65.60401 66.749695l3.2175064 2.5237885l2.5644684 1.6977768l4.259659 2.5258179l3.4762955 1.742897l3.041504 1.2207336l2.9538193 0.8735657" fill-rule="evenodd"/><path fill="#323232" d="m51.3113 73.3482l14.910839 -14.910843l0.7238922 0.723896l-14.910839 14.910839z" fill-rule="evenodd"/><path fill="#323232" d="m36.45157 85.29893l13.666016 -13.666016l0.7238922 0.7238922l-13.666016 13.666016z" fill-rule="evenodd"/><path fill="#323232" d="m50.57759 71.172905l3.8697815 3.8697815l-0.7205086 0.7205124l-3.8697815 -3.8697815z" fill-rule="evenodd"/><path fill="#323232" d="m45.227943 78.00939l5.523102 -7.0419693l-3.816101 7.537468z" fill-rule="evenodd"/><path fill="#323232" fill-opacity="0.6045" d="m36.66865 85.31856l-0.4406662 -3.6479797l26.48283 -26.482826l2.000557 1.9140587z" fill-rule="evenodd"/><path fill="#323232" d="m35.80437 89.04099l-2.7562523 5.6426926l-2.6540432 1.0768509l-10.188026 12.686386l8.176319 7.647278l10.933054 -24.757774z" fill-rule="evenodd"/><path stroke="#323232" stroke-width="3.6561679790026247" stroke-miterlimit="8.0" stroke-linecap="round" d="m35.80437 89.04099l-2.7562523 5.6426926l-2.6540432 1.0768509l-10.188026 12.686386l8.176319 7.647278l10.933054 -24.757774z" fill-rule="evenodd"/><path fill="#ffffff" d="m35.80437 89.04099l-2.7562523 5.6426926l-2.6540432 1.0768509l-10.188026 12.686386l8.176319 7.647278l10.933054 -24.757774z" fill-rule="evenodd"/><path stroke="#ffffff" stroke-width="0.5695538057742782" stroke-linejoin="round" stroke-linecap="butt" d="m35.80437 89.04099l-2.7562523 5.6426926l-2.6540432 1.0768509l-10.188026 12.686386l8.176319 7.647278l10.933054 -24.757774z" fill-rule="evenodd"/><path fill="#323232" fill-opacity="0.6045" d="m25.702541 110.74482l0 0c-0.5118866 -0.29611206 -0.687521 -0.95153046 -0.39229012 -1.4639282l6.6704407 -11.5770645c0.14177513 -0.24606323 0.37539482 -0.42555237 0.64946175 -0.49900055c0.27406693 -0.07344055 0.5661354 -0.034812927 0.8119545 0.10738373l0 0l0 0c0.5118866 0.29610443 0.6875229 0.95153046 0.39229202 1.4639282l-6.6704426 11.5770645c-0.29523087 0.51239014 -0.94952774 0.6877289 -1.4614162 0.39161682z" fill-rule="evenodd"/><path fill="#323232" fill-opacity="0.2955" d="m24.918926 112.10143l0 0c-1.0219059 -0.5903473 -1.3726501 -1.8978653 -0.783411 -2.9204102l7.171921 -12.4459305c0.2829628 -0.4910431 0.7492809 -0.8493576 1.2963657 -0.99611664c0.5470886 -0.14675903 1.1301346 -0.06993866 1.6208687 0.21355438l0 0l0 0c1.0219078 0.5903549 1.372654 1.8978653 0.78341293 2.9204178l-7.171919 12.445923c-0.589241 1.0225525 -1.8953323 1.3729172 -2.9172382 0.78256226z" fill-rule="evenodd"/><path fill="#323232" d="m45.438457 79.012024l0 0c-0.35682678 -0.35682678 -0.35796356 -0.93421936 -0.0025367737 -1.2896423l0 0c0.170681 -0.17068481 0.40244293 -0.26630402 0.64429474 -0.26582336c0.24185562 4.7302246E-4 0.4739952 0.09700775 0.6453514 0.26835632l0 0c0.35682678 0.35682678 0.35795975 0.934227 0.0025367737 1.28965l0 0c-0.3554268 0.35542297 -0.93281937 0.3542862 -1.2896461 -0.0025405884z" fill-rule="evenodd"/><path fill="#323232" d="m50.80672 68.943665l0.8155136 -4.066269l4.226074 -4.226078l4.066269 -0.8155136z" fill-rule="evenodd"/><path stroke="#323232" stroke-width="3.6561679790026247" stroke-miterlimit="8.0" stroke-linecap="round" d="m50.80672 68.943665l0.8155136 -4.066269l4.226074 -4.226078l4.066269 -0.8155136z" fill-rule="evenodd"/><path fill="#282828" d="m50.866646 68.89769l0.8155174 -4.066269l4.2260704 -4.2260704l4.066269 -0.8155174z" fill-rule="evenodd"/><path stroke="#282828" stroke-width="0.5695538057742782" stroke-linejoin="round" stroke-linecap="butt" d="m50.866646 68.89769l0.8155174 -4.066269l4.2260704 -4.2260704l4.066269 -0.8155174z" fill-rule="evenodd"/><path fill="#323232" d="m39.334618 85.3524l0 0c-0.19989777 -0.19989777 -0.20065308 -0.52323914 -0.0016899109 -0.7222061l0 0c0.09554291 -0.09554291 0.22531128 -0.14904022 0.3607483 -0.14872742c0.13544083 3.2043457E-4 0.26545715 0.0544281 0.3614502 0.15042114l0 0c0.19989777 0.19989777 0.20065689 0.52323914 0.0016937256 0.7221985l0 0c-0.19896317 0.19896698 -0.52230453 0.19821167 -0.7222023 -0.0016860962z" fill-rule="evenodd"/><path fill="#323232" d="m68.55512 48.133553l9.761131 -8.992237l6.0929947 6.4179955l-9.213432 10.37598l-2.0380936 4.491192l-4.648224 -4.648224l3.7893524 -3.7893486z" fill-rule="evenodd"/><path stroke="#323232" stroke-width="3.6561679790026247" stroke-miterlimit="8.0" stroke-linecap="round" d="m68.55512 48.133553l9.761131 -8.992237l6.0929947 6.4179955l-9.213432 10.37598l-2.0380936 4.491192l-4.648224 -4.648224l3.7893524 -3.7893486z" fill-rule="evenodd"/><path fill="#ffffff" d="m68.55512 48.133553l9.761131 -8.992237l6.0929947 6.4179955l-9.213432 10.37598l-2.0380936 4.491192l-4.648224 -4.648224l3.7893524 -3.7893486z" fill-rule="evenodd"/><path stroke="#ffffff" stroke-width="0.5695538057742782" stroke-linejoin="round" stroke-linecap="butt" d="m68.55512 48.133553l9.761131 -8.992237l6.0929947 6.4179955l-9.213432 10.37598l-2.0380936 4.491192l-4.648224 -4.648224l3.7893524 -3.7893486z" fill-rule="evenodd"/><path fill="#323232" d="m68.00764 56.306908l14.303383 -14.303383l-0.7233658 -0.72335815l-10.575783 10.575787l0.28182983 0.28183746l-3.6841278 3.6841278z" fill-rule="evenodd"/><path fill="#323232" fill-opacity="0.6045" d="m75.75361 55.90442l-1.9576111 -2.1310387l7.628845 -7.368023l2.2169342 1.5236549z" fill-rule="evenodd"/><path fill="#323232" d="m64.025764 59.29837l0 0c-0.19989777 -0.19989777 -0.20065689 -0.52323914 -0.0016937256 -0.7222023l0 0c0.09555054 -0.09554672 0.22531128 -0.14904404 0.36075592 -0.14872742c0.13543701 3.1661987E-4 0.26545715 0.054424286 0.3614502 0.15042114l0 0c0.19989777 0.19989777 0.20065308 0.5232353 0.0016860962 0.7221985l0 0c-0.19895935 0.19896317 -0.5223007 0.19820786 -0.7221985 -0.0016899109z" fill-rule="evenodd"/></g></svg>