<svg version="1.0" xmlns="http://www.w3.org/2000/svg" width="128px" height="128px" viewBox="0 0 128 128" preserveAspectRatio="xMidYMid meet">
 <g fill="#000000">
  <path d="M16.19 121.14 l-0.50 -0.22 -3.83 -4.18 c-2.10 -2.30 -4.47 -4.90 -5.28 -5.80 l-1.46 -1.63 0 -0.38 0 -0.38 0.56 -1.88 0.56 -1.88 1.04 -1.02 1.02 -1.04 0.45 0 0.45 0 2.55 -2.51 c1.40 -1.38 3.99 -3.92 5.74 -5.66 1.75 -1.73 4.47 -4.40 6.05 -5.94 l2.88 -2.80 0.75 -0.35 c0.41 -0.20 2.14 -0.81 3.84 -1.39 l3.10 -1.02 0.68 -1.25 c0.38 -0.70 1.34 -2.53 2.14 -4.07 l1.44 -2.83 -0.64 0.01 -0.65 0 -0.73 -0.94 -0.73 -0.94 0.03 -0.50 0.04 -0.49 0.94 -0.73 0.94 -0.71 0.32 0 0.31 -0.01 0.22 -0.51 0.22 -0.50 0.91 -0.99 c0.50 -0.54 1 -1.14 1.11 -1.35 l0.20 -0.38 0.15 -1.05 0.16 -1.04 0.71 -0.29 0.71 -0.28 0.75 -0.09 0.75 -0.08 0.63 -0.82 c0.35 -0.45 0.89 -1.10 1.20 -1.44 l0.57 -0.60 -0.50 -0.73 -0.51 -0.73 0 -0.45 0 -0.45 0.84 -0.60 c0.46 -0.32 1 -0.73 1.19 -0.90 l0.36 -0.31 -0.34 -0.46 -0.34 -0.46 -0.22 0.11 c-0.13 0.08 -0.57 0.45 -0.99 0.84 l-0.76 0.70 -0.74 1.09 -0.75 1.08 -0.49 0.40 c-0.28 0.22 -0.76 0.54 -1.08 0.71 l-0.59 0.30 -0.43 0.08 c-0.24 0.04 -0.61 0.09 -0.85 0.13 l-0.41 0.06 -0.08 0.51 -0.06 0.50 -0.34 0.44 -0.34 0.44 -3.33 2.49 -3.33 2.50 -0.44 0 -0.45 0 -2.29 -3.05 -2.28 -3.04 0 -0.49 0.01 -0.49 0.28 -0.20 c0.15 -0.11 1.66 -1.23 3.36 -2.47 l3.09 -2.28 0.52 -0.17 0.52 -0.19 0.51 0 0.51 0 0.22 -0.63 0.22 -0.63 0.74 -0.79 0.74 -0.79 0.66 -0.34 0.68 -0.34 1.25 -0.36 c1.44 -0.41 1.64 -0.50 2.45 -1.13 l0.59 -0.45 0.01 -0.56 0.01 -0.56 1.17 -0.84 1.19 -0.85 0.35 0 0.35 0 0.15 0.15 0.14 0.14 1.45 -1.09 1.44 -1.08 0 -0.44 0 -0.43 -0.15 -0.09 -0.15 -0.10 -0.56 0.03 -0.57 0.03 -0.77 -1.08 -0.79 -1.08 0 -0.43 0 -0.43 0.25 -0.15 0.25 -0.16 0 -0.35 0 -0.34 1.84 -1.38 1.83 -1.36 1.04 0 1.04 0 0.76 1.05 0.75 1.04 0 0.49 0 0.49 -0.11 0.11 -0.13 0.13 0.24 0.30 0.22 0.31 1.98 -1.50 1.99 -1.49 -0.04 -0.50 -0.04 -0.50 1.30 -0.98 1.30 -0.96 0.40 0 0.40 0 0.06 0.19 0.08 0.19 0.55 -0.40 0.55 -0.40 2.34 -2.63 c4.47 -5.04 4.90 -5.45 8.16 -7.82 1.06 -0.77 2.54 -1.85 3.26 -2.39 l1.33 -0.99 0.36 0 0.36 0 0.75 0.96 c1.51 1.95 2.86 3.76 3.76 5.06 l0.93 1.33 0 0.43 0 0.44 -0.99 0.76 c-0.55 0.43 -1.91 1.52 -3.05 2.45 -1.13 0.94 -2.53 2 -3.10 2.39 l-1.05 0.70 -2.31 1.16 c-1.27 0.64 -2.99 1.46 -3.81 1.84 l-1.50 0.66 -1.06 0.73 c-0.59 0.40 -1.17 0.80 -1.30 0.90 l-0.24 0.19 0.21 0.32 c0.13 0.17 0.29 0.35 0.38 0.39 l0.16 0.06 1.05 -0.75 1.05 -0.76 0.46 0 0.46 0 0.52 0.69 c0.29 0.38 0.56 0.69 0.63 0.69 0.06 0 1.20 -0.84 2.53 -1.85 1.31 -1.01 5.24 -4.04 8.71 -6.71 6.30 -4.85 7.03 -5.41 12.16 -9.35 6.76 -5.20 8.31 -6.39 12.71 -9.77 2.58 -1.98 5.31 -4.09 6.06 -4.66 0.76 -0.59 1.39 -1.08 1.40 -1.09 0.01 -0.01 -0.03 -0.38 -0.10 -0.82 l-0.13 -0.80 -0.19 -0.28 -0.17 -0.28 0 -0.47 0.01 -0.47 1.50 -1.16 1.51 -1.15 0.40 0 0.40 0 0.65 0.88 0.66 0.89 0.15 -0.09 c0.09 -0.05 0.39 -0.25 0.69 -0.45 l0.52 -0.36 0.47 0.04 0.46 0.04 0.77 1.13 0.77 1.13 0.01 0.45 0 0.45 -2.15 1.69 c-1.19 0.93 -3.49 2.71 -5.10 3.97 -1.61 1.26 -4.45 3.47 -6.31 4.93 -1.85 1.44 -4.39 3.41 -5.63 4.39 -1.24 0.96 -3.03 2.36 -3.96 3.11 l-1.73 1.34 0.30 0.40 c0.16 0.22 0.39 0.59 0.51 0.82 l0.21 0.43 -0.05 0.74 -0.05 0.73 -0.50 0.51 c-0.26 0.29 -1.71 1.55 -3.20 2.83 -1.50 1.26 -2.72 2.34 -2.72 2.38 0 0.05 0.09 0.19 0.20 0.30 0.11 0.13 0.39 0.57 0.60 1.01 l0.40 0.77 0.61 0.16 0.63 0.15 0.16 0.22 0.17 0.22 -0.08 1.21 c-0.05 0.66 -0.14 1.54 -0.21 1.94 -0.08 0.40 -0.17 1.17 -0.24 1.73 l-0.11 1 -0.55 2.31 c-1.61 6.68 -4.59 15.54 -8.25 24.59 -3.36 8.27 -6.55 14.11 -10.31 18.84 l-1.20 1.51 -1.69 1.69 -1.70 1.69 -1.63 1.30 c-5.10 4.06 -11.29 7.64 -18.46 10.65 l-2.21 0.93 -0.04 0.35 -0.04 0.35 -1.92 0.80 -1.94 0.81 -0.45 0 -0.45 0 -0.13 -0.13 -0.13 -0.13 -1.63 0.61 c-0.90 0.34 -2.42 0.86 -3.39 1.17 -1.84 0.60 -6.13 1.71 -6.55 1.71 l-0.25 0 -0.09 0.26 -0.10 0.26 -1.19 0.30 c-0.64 0.16 -1.27 0.30 -1.41 0.30 l-0.24 0 -0.68 -0.45 -0.68 -0.45 -0.11 -0.28 -0.10 -0.29 -0.80 -0.20 c-0.43 -0.11 -0.94 -0.24 -1.11 -0.28 l-0.32 -0.08 -1.17 1.79 -1.17 1.79 0.04 0.59 0.04 0.60 -0.95 1.19 -0.94 1.19 -0.54 0.34 c-0.29 0.19 -0.89 0.46 -1.34 0.63 l-0.81 0.29 -0.69 0 -0.69 0 -0.50 -0.24z m5.47 -9.05 c2.51 -3.80 7.01 -10.86 10.94 -17.15 0.85 -1.38 1.67 -2.63 1.81 -2.78 l0.28 -0.29 3.75 -1.26 c2.06 -0.70 3.76 -1.29 3.78 -1.30 0.03 -0.01 -0.05 -0.44 -0.16 -0.95 l-0.20 -0.93 0.06 -2.38 0.06 -2.38 0.31 -1.14 c0.19 -0.64 0.56 -1.74 0.84 -2.44 l0.51 -1.30 0.94 -1.80 0.94 -1.81 0.69 -0.99 c0.38 -0.55 0.66 -1 0.65 -1.02 -0.03 -0.01 -0.61 -0.47 -1.31 -1.04 -0.70 -0.56 -1.31 -1.02 -1.38 -1.02 l-0.10 0.01 -3.81 7.56 c-2.10 4.16 -3.88 7.63 -3.95 7.69 -0.09 0.06 -1.74 0.66 -3.67 1.31 -1.95 0.65 -3.67 1.26 -3.86 1.36 l-0.32 0.17 -5.07 5.10 c-4.36 4.39 -9.76 9.95 -11.27 11.59 l-0.45 0.50 0.15 0.20 c0.13 0.17 1.91 2.11 7.09 7.70 l1.06 1.15 0.15 -0.13 c0.09 -0.08 0.80 -1.09 1.58 -2.26z m7 -3.78 l0.95 -0.44 0.39 0 0.38 0 0.15 0.31 c0.08 0.17 0.19 0.31 0.25 0.31 0.26 0 3.28 -0.76 4.60 -1.17 0.80 -0.24 2.50 -0.81 3.79 -1.27 l2.34 -0.85 0 -0.40 0 -0.40 1.66 -0.65 c0.90 -0.36 1.86 -0.76 2.11 -0.89 l0.46 -0.24 0.45 0 0.44 0 0 0.19 c0 0.10 0.03 0.19 0.05 0.19 0.17 0 4.89 -2.15 6.70 -3.06 4.21 -2.10 7.65 -4.20 10.81 -6.59 l1.75 -1.33 1.19 -1.10 c2.22 -2.06 4.09 -4.19 5.59 -6.39 l0.71 -1.04 0.16 0 0.16 0 0 -0.29 0 -0.29 0.82 -1.38 c1.36 -2.26 4.05 -7.76 5.50 -11.25 0.25 -0.60 0.49 -1.17 0.55 -1.29 0.05 -0.11 0.15 -0.36 0.22 -0.57 0.06 -0.20 0.70 -1.86 1.40 -3.69 1.35 -3.51 2.50 -6.72 3.51 -9.81 0.34 -1.02 0.68 -1.98 0.74 -2.09 0.08 -0.13 0.13 -0.34 0.13 -0.49 0 -0.15 0.16 -0.80 0.38 -1.44 0.61 -1.91 1.33 -4.68 1.83 -6.99 l0.31 -1.50 -0.10 -0.04 c-0.05 -0.01 -0.19 -0.09 -0.29 -0.15 l-0.19 -0.11 0.22 -1.52 c0.13 -0.84 0.20 -1.54 0.19 -1.55 -0.03 -0.01 -0.98 0.76 -2.11 1.74 -4.94 4.20 -10.23 8.70 -11.11 9.45 -0.52 0.45 -2.36 2.01 -4.07 3.49 -1.71 1.48 -3.26 2.76 -3.45 2.88 l-0.32 0.19 -0.08 0.32 -0.06 0.31 -0.66 0.51 c-0.36 0.29 -1.61 1.35 -2.79 2.36 -1.16 1.01 -2.74 2.38 -3.50 3.03 -1.52 1.33 -1.95 1.81 -2.39 2.72 l-0.30 0.63 0 0.55 0 0.54 0.32 1.05 0.32 1.04 -0.05 1.41 -0.05 1.41 -0.46 0.95 -0.46 0.96 -0.63 0.57 -0.64 0.56 -0.71 0.35 -0.71 0.35 -1.75 0 -1.75 0 -1.09 -0.52 -1.10 -0.54 -0.30 0 -0.30 0 -0.25 0.22 -0.26 0.21 -0.88 1.58 c-1.41 2.56 -2.29 4.66 -2.63 6.34 l-0.14 0.66 0 1.06 0 1.05 0.26 1.21 0.26 1.21 -0.05 0.99 -0.04 0.99 -0.50 0.46 -0.50 0.46 -2.25 0.76 c-1.24 0.43 -2.94 1.01 -3.78 1.30 l-1.54 0.51 -0.46 0.77 c-0.59 0.98 -6.99 11.18 -7.86 12.55 l-0.68 1.02 0.11 0 c0.05 0 0.52 -0.20 1.05 -0.44z m27.16 -36.66 l0.20 -0.65 -0.09 -0.41 c-0.13 -0.54 -0.60 -1.48 -0.90 -1.75 l-0.25 -0.21 -1 0.88 -1.01 0.88 0.06 0.25 c0.04 0.14 0.29 0.50 0.55 0.80 l0.49 0.55 0.50 0.20 0.50 0.20 0 0.40 0.01 0.41 0.36 -0.44 0.38 -0.44 0.20 -0.66z m-5.89 -2.54 c2.17 -1.98 10.16 -9.06 11.82 -10.49 2.04 -1.76 3.41 -3 3.46 -3.13 0.03 -0.06 -0.45 -0.73 -1.05 -1.48 l-1.08 -1.36 -1.55 1.20 -1.55 1.20 0.65 0.10 0.65 0.09 0.30 0.20 0.30 0.20 0.17 0.41 0.17 0.43 0 0.51 0 0.51 -0.17 0.41 -0.17 0.41 -0.34 0.26 -0.35 0.28 -0.91 0 -0.93 0 -0.40 -0.36 -0.41 -0.36 -0.06 -0.94 -0.06 -0.94 -3.13 2.44 c-1.71 1.34 -3.35 2.60 -3.61 2.80 l-0.49 0.36 -0.49 0 -0.50 0 -0.79 0.69 c-0.44 0.39 -1.11 1.09 -1.51 1.58 -0.89 1.05 -2.30 3.10 -2.30 3.31 l0 0.16 1.52 1.25 c0.84 0.70 1.55 1.26 1.59 1.26 0.05 0 0.59 -0.46 1.20 -1.01z m-14.90 -6.29 c1.08 -0.80 1.96 -1.49 1.96 -1.52 0 -0.10 -1.64 -2.24 -1.70 -2.21 -0.19 0.06 -4.18 3.10 -4.18 3.16 0 0.05 0.38 0.57 0.82 1.17 l0.81 1.09 0.15 -0.11 c0.09 -0.06 1.04 -0.76 2.13 -1.58z m5.32 -4.01 l0.51 -0.17 0.44 -0.34 0.45 -0.34 0.68 -1.02 0.66 -1.02 0.74 -0.66 c0.40 -0.36 0.99 -0.86 1.31 -1.10 l0.59 -0.44 -0.25 -0.35 c-0.14 -0.20 -0.30 -0.39 -0.38 -0.43 l-0.11 -0.08 -0.51 0.43 c-0.28 0.24 -0.82 0.60 -1.21 0.81 l-0.73 0.39 -1.23 0.32 -1.24 0.31 -0.41 0.25 c-0.22 0.15 -0.57 0.45 -0.77 0.69 l-0.38 0.41 -0.14 0.44 -0.15 0.45 0.25 0.49 0.26 0.50 0.34 0.25 c0.20 0.13 0.44 0.28 0.54 0.31 0.10 0.04 0.20 0.08 0.20 0.08 0.01 0.01 0.25 -0.08 0.54 -0.17z m11.82 -6.01 l1.44 -1.08 0 -0.13 0 -0.11 -0.15 0.09 c-0.31 0.19 -2.97 2.20 -2.97 2.25 0 0.17 0.44 -0.09 1.69 -1.02z m19.34 -2.76 c2.09 -1.76 4.66 -3.95 5.72 -4.86 2.58 -2.20 7.25 -6.15 10.19 -8.61 1.31 -1.10 2.78 -2.33 3.25 -2.72 0.49 -0.41 1.85 -1.56 3.04 -2.55 l2.15 -1.81 0 -0.13 c0 -0.08 -0.17 -0.34 -0.38 -0.60 l-0.39 -0.49 -3.21 2.47 c-18.27 14.02 -26.09 20.05 -26.09 20.14 0 0.13 1.74 2.36 1.84 2.38 0.06 0 1.80 -1.45 3.88 -3.21z m-21.04 0.34 l1.25 -0.94 0 -0.13 c0 -0.06 -0.15 -0.31 -0.35 -0.55 l-0.35 -0.43 -1.30 0.98 c-0.71 0.54 -1.38 1.05 -1.48 1.14 l-0.17 0.15 0.36 0.51 0.36 0.50 0.21 -0.15 c0.11 -0.09 0.77 -0.57 1.46 -1.09z m10.39 -4.19 c0.95 -0.71 1.77 -1.38 1.83 -1.46 l0.10 -0.16 -0.44 0.32 c-3.47 2.60 -3.49 2.61 -3.30 2.61 0.04 0 0.85 -0.59 1.81 -1.31z m-1.49 -2.46 l1.85 -1.39 -0.39 -0.55 c-0.21 -0.30 -0.41 -0.54 -0.44 -0.54 -0.04 0 -3.46 2.54 -3.70 2.74 l-0.09 0.09 0.39 0.52 c0.21 0.29 0.41 0.52 0.46 0.52 0.04 0 0.90 -0.63 1.91 -1.40z m7.51 -5.80 c0.43 -0.24 2.06 -1.04 3.66 -1.79 l2.90 -1.35 1.02 -0.61 c1.14 -0.68 3.16 -2.16 3.22 -2.36 l0.03 -0.13 -1.36 -1.85 -1.38 -1.85 -0.54 0.38 c-1.85 1.27 -3.90 3.28 -7.04 6.82 -1.73 1.95 -2.50 2.74 -3.47 3.50 l-0.49 0.38 0.34 0.40 0.34 0.40 1.01 -0.75 c0.55 -0.40 1.34 -0.94 1.75 -1.19z" data-index="0" style="visibility: visible; opacity: 1;"></path>
  <path d="M48.69 67.60 c-0.14 -0.08 -0.35 -0.25 -0.46 -0.40 l-0.22 -0.26 0 -0.95 0 -0.95 0.25 -0.32 0.25 -0.32 0.45 -0.14 0.45 -0.15 0.69 0.05 0.68 0.06 0.39 0.39 0.39 0.39 0.06 0.68 0.05 0.69 -0.15 0.45 -0.14 0.45 -0.32 0.25 -0.32 0.25 -0.89 0 -0.89 -0.01 -0.25 -0.14z" data-index="1" style="opacity: 1;"></path>
 </g>
 <g fill="#ffffff">
  
  <path d="M18.13 113.29 c-1 -1.08 -2.86 -3.09 -4.14 -4.46 -1.27 -1.39 -2.50 -2.71 -2.71 -2.95 l-0.38 -0.45 0.64 -0.68 c2.35 -2.51 7.11 -7.43 11.45 -11.79 l5.07 -5.10 0.32 -0.17 c0.19 -0.10 1.92 -0.71 3.88 -1.38 l3.54 -1.19 0.15 -0.15 c0.09 -0.09 1.91 -3.65 4.06 -7.91 2.15 -4.26 3.91 -7.78 3.94 -7.79 0.01 -0.03 0.85 0.61 1.85 1.41 l1.83 1.46 -0.35 0.46 c-0.76 0.96 -1.44 2.08 -2.34 3.79 l-0.93 1.79 -0.51 1.30 c-0.28 0.70 -0.65 1.80 -0.82 2.44 l-0.32 1.14 -0.06 2 -0.06 2 0.26 1.24 0.26 1.25 -0.09 0.09 c-0.06 0.04 -1.79 0.65 -3.85 1.35 l-3.75 1.26 -0.28 0.29 c-0.14 0.15 -0.96 1.40 -1.81 2.78 -6.64 10.68 -12.66 19.94 -12.95 19.94 -0.05 0 -0.90 -0.89 -1.90 -1.96z" data-index="3"></path>
  
  <path d="M52.81 74.18 c-0.14 -0.04 -0.44 -0.13 -0.68 -0.20 l-0.43 -0.14 -0.56 -0.51 -0.56 -0.51 -0.16 -0.38 -0.15 -0.38 0.20 -0.34 c0.26 -0.44 0.34 -0.44 0.52 0.03 l0.15 0.38 0.50 0.50 0.50 0.50 0.47 0.14 0.47 0.15 0.44 -0.09 0.45 -0.09 0.28 -0.22 0.29 -0.22 -0.56 -0.25 -0.55 -0.25 -0.41 -0.46 c-0.47 -0.54 -0.65 -0.94 -0.65 -1.45 l0 -0.35 1.14 -0.99 c0.61 -0.54 1.19 -1 1.25 -1.02 l0.14 -0.04 0.38 0.35 0.38 0.36 0.31 0.61 0.31 0.63 0.06 0.70 0.06 0.70 -0.20 0.70 -0.20 0.69 -0.47 0.50 -0.47 0.49 -0.43 0.20 -0.44 0.20 -0.56 0.06 c-0.31 0.04 -0.68 0.04 -0.81 0.01z" data-index="5"></path>
  <path d="M47.49 69.82 c-0.71 -0.57 -1.58 -1.29 -1.91 -1.59 l-0.61 -0.56 0.10 -0.29 c0.14 -0.44 1.70 -2.72 2.54 -3.70 0.41 -0.47 1.19 -1.26 1.71 -1.73 l0.96 -0.85 0.24 0.21 0.24 0.21 0.43 -0.30 c0.44 -0.30 8.98 -6.94 10.95 -8.50 l1.06 -0.85 0.25 0.34 c0.14 0.19 0.79 1 1.44 1.83 l1.17 1.49 -0.68 0.61 c-0.88 0.79 -2.09 1.85 -3.83 3.34 -2.59 2.24 -10.52 9.31 -12.31 10.98 l-0.44 0.41 -1.31 -1.05z m3.17 -2.70 l0.32 -0.25 0.14 -0.45 0.15 -0.44 -0.09 -0.34 -0.08 -0.34 -0.32 -0.34 -0.32 -0.34 -0.35 -0.08 -0.36 -0.09 -0.44 0.15 -0.44 0.14 -0.25 0.32 -0.25 0.32 0 0.57 0 0.57 0.22 0.26 c0.11 0.15 0.32 0.32 0.46 0.40 l0.25 0.14 0.51 0.01 0.51 0 0.32 -0.25z m10.57 -8.95 l0.39 -0.31 0.14 -0.47 0.14 -0.46 -0.19 -0.45 -0.19 -0.45 -0.34 -0.22 -0.34 -0.21 -0.56 0 -0.57 0 -0.43 0.45 -0.41 0.46 0 0.57 0 0.57 0.43 0.43 0.43 0.43 0.56 0 0.56 0 0.39 -0.32z" data-index="6" style="opacity: 1;"></path>
  <path d="M31.56 63.79 c-0.60 -0.80 -1.10 -1.52 -1.11 -1.60 l-0.01 -0.15 2.44 -1.83 c1.34 -1.01 2.50 -1.83 2.56 -1.83 l0.13 0 1.06 1.45 c0.59 0.80 1.08 1.50 1.10 1.54 0.03 0.08 -1.76 1.44 -4.38 3.35 l-0.70 0.51 -1.09 -1.45z" data-index="7" style="opacity: 1;"></path>
  <path d="M39.25 59.29 c-0.10 -0.04 -0.34 -0.19 -0.54 -0.31 l-0.34 -0.25 -0.25 -0.47 -0.25 -0.49 0 -0.45 0 -0.45 0.20 -0.46 0.19 -0.46 0.34 -0.35 c0.19 -0.20 0.51 -0.46 0.73 -0.60 l0.39 -0.24 1.24 -0.31 1.23 -0.32 0.70 -0.38 0.70 -0.38 0.75 -0.61 c0.40 -0.34 0.77 -0.63 0.81 -0.63 0.10 0 1.09 1.30 1.19 1.55 l0.06 0.16 -0.85 0.68 c-0.46 0.36 -1.13 0.93 -1.46 1.24 l-0.61 0.56 -0.66 1.01 -0.66 1.01 -0.45 0.34 -0.44 0.34 -0.51 0.17 -0.52 0.19 -0.39 -0.01 c-0.21 0 -0.47 -0.04 -0.57 -0.08z" data-index="8"></path>
  <path d="M50.13 54.17 l-0.40 -0.45 0.11 -0.10 c0.41 -0.38 3.67 -2.75 3.76 -2.75 0.08 0 0.28 0.20 0.46 0.45 l0.34 0.45 -0.10 0.09 c-0.25 0.22 -3.67 2.76 -3.72 2.76 -0.03 0 -0.22 -0.20 -0.45 -0.45z" data-index="9"></path>
  <path d="M66.26 52.41 l-1.25 -1.60 0.21 -0.21 c0.11 -0.11 3.76 -2.92 8.09 -6.25 4.34 -3.33 9.48 -7.28 11.44 -8.79 1.96 -1.50 4.78 -3.66 6.25 -4.80 1.48 -1.13 3.04 -2.33 3.45 -2.66 l0.77 -0.60 0.71 0.95 0.71 0.95 -0.24 0.25 c-0.13 0.14 -1.17 1.06 -2.35 2.04 -1.16 0.98 -2.51 2.11 -3 2.53 -0.47 0.40 -1.94 1.63 -3.25 2.72 -2.99 2.50 -7.34 6.18 -11.38 9.63 -6.69 5.70 -8.75 7.44 -8.84 7.44 -0.05 0 -0.65 -0.71 -1.34 -1.59z" data-index="10"></path>
  <path d="M48.06 51.49 c-0.34 -0.47 -0.63 -0.91 -0.63 -0.98 l0 -0.11 0.88 -0.66 c0.49 -0.35 1.31 -0.99 1.85 -1.40 l0.98 -0.75 0.10 0.11 c0.26 0.30 1.26 1.66 1.26 1.73 0 0.06 -2.66 2.11 -3.44 2.65 l-0.38 0.26 -0.63 -0.85z" data-index="11"></path>
  <path d="M58.60 47.76 l-0.34 -0.47 2.08 -1.55 c1.15 -0.85 2.17 -1.63 2.30 -1.70 l0.21 -0.15 0.35 0.51 0.36 0.51 -0.13 0.05 c-0.06 0.03 -1.09 0.77 -2.28 1.66 -1.19 0.90 -2.16 1.63 -2.19 1.63 -0.03 0 -0.19 -0.22 -0.38 -0.49z" data-index="12"></path>
  <path d="M56.59 44.92 c-0.40 -0.52 -0.71 -0.96 -0.69 -0.98 0.03 -0.03 1.06 -0.81 2.33 -1.75 1.26 -0.95 2.30 -1.71 2.33 -1.69 0.01 0.03 0.32 0.44 0.69 0.90 l0.66 0.86 -0.06 0.15 c-0.06 0.14 -4.13 3.30 -4.39 3.40 l-0.14 0.05 -0.73 -0.95z" data-index="13"></path>
  <path d="M63.47 39.91 c-0.30 -0.40 -0.59 -0.79 -0.64 -0.86 l-0.08 -0.14 0.65 -0.49 c1.08 -0.81 1.79 -1.51 3.64 -3.61 0.98 -1.10 2.31 -2.58 3 -3.28 l1.23 -1.29 1.21 -0.99 c0.66 -0.55 1.51 -1.23 1.91 -1.50 l0.70 -0.51 1.70 2.29 1.70 2.28 -0.60 0.56 c-0.74 0.69 -2.51 1.91 -3.78 2.60 -0.51 0.28 -2.09 1.04 -3.50 1.69 -3.24 1.50 -4.38 2.17 -6.45 3.85 l-0.14 0.11 -0.56 -0.71z" data-index="14"></path>
 </g>
</svg>