<?xml version="1.0" encoding="UTF-8" standalone="no"?>
<svg
   version="1.1"
   viewBox="0 0 128 128"
   fill="none"
   stroke="none"
   stroke-linecap="square"
   stroke-miterlimit="10"
   id="svg121"
   width="128"
   height="128"
   xmlns="http://www.w3.org/2000/svg"
   xmlns:svg="http://www.w3.org/2000/svg">
  <defs
     id="defs121" />
  <clipPath
     id="p.0">
    <path
       d="M 0,0 H 128 V 128 H 0 Z"
       clip-rule="nonzero"
       id="path1" />
  </clipPath>
  <g
     clip-path="url(#p.0)"
     id="g121"
     transform="matrix(1.2535323,0,0,1.2535323,-15.136247,-15.136247)">
    <path
       fill="#000000"
       fill-opacity="0"
       d="M 0,0 H 128 V 128 H 0 Z"
       fill-rule="evenodd"
       id="path2" />
    <path
       fill="#323232"
       d="M 56.73354,37.485867 73.8899,20.32951 74.394363,20.833973 57.238003,37.99033 Z"
       fill-rule="evenodd"
       id="path3" />
    <path
       fill="#323232"
       d="m 63.426754,30.390234 0.776234,-0.776234 0.504463,0.504463 -0.776234,0.776234 z"
       fill-rule="evenodd"
       id="path4" />
    <path
       fill="#323232"
       d="m 64.71101,29.105976 0.77623,-0.776234 0.504463,0.504463 -0.77623,0.776234 z"
       fill-rule="evenodd"
       id="path5" />
    <path
       fill="#323232"
       d="m 65.99527,27.821718 0.776237,-0.776234 0.504464,0.504464 -0.776238,0.776233 z"
       fill-rule="evenodd"
       id="path6" />
    <path
       fill="#323232"
       d="m 67.279526,26.53746 0.776237,-0.776234 0.504464,0.504463 -0.776238,0.776234 z"
       fill-rule="evenodd"
       id="path7" />
    <path
       fill="#323232"
       d="m 68.56379,25.253202 0.77623,-0.776234 0.504463,0.504464 -0.77623,0.776233 z"
       fill-rule="evenodd"
       id="path8" />
    <path
       fill="#323232"
       d="m 69.848045,23.968945 0.77623,-0.776234 0.504463,0.504464 -0.77623,0.776233 z"
       fill-rule="evenodd"
       id="path9" />
    <path
       fill="#323232"
       d="m 71.1323,22.684687 0.776237,-0.776234 0.504464,0.504464 -0.776238,0.776233 z"
       fill-rule="evenodd"
       id="path10" />
    <path
       fill="#323232"
       d="m 72.41656,21.400429 0.776237,-0.776234 0.504464,0.504463 -0.776238,0.776236 z"
       fill-rule="evenodd"
       id="path11" />
    <path
       fill="#323232"
       d="m 57.027264,36.789726 0.776234,-0.776238 0.504463,0.504467 -0.776234,0.776234 z"
       fill-rule="evenodd"
       id="path12" />
    <path
       fill="#323232"
       d="m 58.311523,35.505466 0.776234,-0.776234 0.504463,0.504463 -0.776234,0.776234 z"
       fill-rule="evenodd"
       id="path13" />
    <path
       fill="#323232"
       d="m 59.59578,34.22121 0.776234,-0.776234 0.504463,0.504463 -0.776234,0.776234 z"
       fill-rule="evenodd"
       id="path14" />
    <path
       fill="#323232"
       d="m 60.880035,32.93695 0.776237,-0.776234 0.504464,0.504464 -0.776234,0.776233 z"
       fill-rule="evenodd"
       id="path15" />
    <path
       fill="#323232"
       d="m 62.164295,31.652695 0.776234,-0.776236 0.504463,0.504464 -0.776234,0.776235 z"
       fill-rule="evenodd"
       id="path16" />
    <path
       fill="#323232"
       d="m 95.09549,24.319117 0.783943,-0.783937 2.003227,2.003229 -0.783935,0.783937 z"
       fill-rule="evenodd"
       id="path17" />
    <path
       fill="#323232"
       d="m 91.89824,26.194107 1.362915,-1.362913 3.325752,3.325748 -1.362915,1.362913 z"
       fill-rule="evenodd"
       id="path18" />
    <path
       fill="#323232"
       d="m 76.73443,23.928804 -0.244514,-4.166506 0.576507,-1.044476 6.323784,3.532759 5.772034,5.980333 -3.611435,3.611443 -2.281357,-2.281355 -0.337746,-0.880697 -0.567978,-0.863875 -1.376991,-0.528055 -3.697586,1.856726 z"
       fill-rule="evenodd"
       id="path19" />
    <path
       stroke="#323232"
       stroke-width="3.02625"
       stroke-miterlimit="8"
       stroke-linecap="round"
       d="m 76.73443,23.928804 -0.244514,-4.166506 0.576507,-1.044476 6.323784,3.532759 5.772034,5.980333 -3.611435,3.611443 -2.281357,-2.281355 -0.337746,-0.880697 -0.567978,-0.863875 -1.376991,-0.528055 -3.697586,1.856726 z"
       fill-rule="evenodd"
       id="path20" />
    <path
       fill="#323232"
       d="M 68.6843,50.070854 89.83205,28.923099 92.49432,31.58537 71.34657,52.733123 Z"
       fill-rule="evenodd"
       id="path21" />
    <path
       stroke="#323232"
       stroke-width="3.02625"
       stroke-miterlimit="8"
       stroke-linecap="round"
       d="M 68.6843,50.070854 89.83205,28.923099 92.49432,31.58537 71.34657,52.733123 Z"
       fill-rule="evenodd"
       id="path22" />
    <path
       fill="#ffffff"
       d="M 68.6843,50.070854 89.83205,28.923099 92.49432,31.58537 71.34657,52.733123 Z"
       fill-rule="evenodd"
       id="path23" />
    <path
       stroke="#ffffff"
       stroke-width="0.469816"
       stroke-linejoin="round"
       stroke-linecap="butt"
       d="M 68.6843,50.070854 89.83205,28.923099 92.49432,31.58537 71.34657,52.733123 Z"
       fill-rule="evenodd"
       id="path24" />
    <path
       fill="#323232"
       d="m 84.46863,60.862404 -2.630798,-2.750858 -0.605088,-1.325447 0.16166,-1.038952 0.888015,-2.233574 -5.282684,5.282684 -0.05984,4.622543 5.156067,-0.06674 z"
       fill-rule="evenodd"
       id="path25" />
    <path
       stroke="#323232"
       stroke-width="3.02625"
       stroke-miterlimit="8"
       stroke-linecap="round"
       d="m 84.46863,60.862404 -2.630798,-2.750858 -0.605088,-1.325447 0.16166,-1.038952 0.888015,-2.233574 -5.282684,5.282684 -0.05984,4.622543 5.156067,-0.06674 z"
       fill-rule="evenodd"
       id="path26" />
    <path
       fill="#ffffff"
       d="m 84.46863,60.862404 -2.630798,-2.750858 -0.605088,-1.325447 0.16166,-1.038952 0.888015,-2.233574 -5.282684,5.282684 -0.05984,4.622543 5.156067,-0.06674 z"
       fill-rule="evenodd"
       id="path27" />
    <path
       stroke="#ffffff"
       stroke-width="0.469816"
       stroke-linejoin="round"
       stroke-linecap="butt"
       d="m 84.46863,60.862404 -2.630798,-2.750858 -0.605088,-1.325447 0.16166,-1.038952 0.888015,-2.233574 -5.282684,5.282684 -0.05984,4.622543 5.156067,-0.06674 z"
       fill-rule="evenodd"
       id="path28" />
    <path
       fill="#323232"
       d="m 72.49818,58.97719 13.40921,-13.409214 2.662994,2.662991 -13.40921,13.409214 z"
       fill-rule="evenodd"
       id="path29" />
    <path
       fill="#323232"
       d="m 84.75928,61.572483 2.159531,0.495064 1.323967,0.467151 1.328689,0.594777 0.12526,-0.761807 0.882659,0.462601 0.846734,0.9668 0.907173,-5.996498 -1.894898,-0.09398 -1.302253,-0.101651 -1.70942,1.592423 z"
       fill-rule="evenodd"
       id="path30" />
    <path
       stroke="#323232"
       stroke-width="3.02625"
       stroke-miterlimit="8"
       stroke-linecap="round"
       d="m 84.75928,61.572483 2.159531,0.495064 1.323967,0.467151 1.328689,0.594777 0.12526,-0.761807 0.882659,0.462601 0.846734,0.9668 0.907173,-5.996498 -1.894898,-0.09398 -1.302253,-0.101651 -1.70942,1.592423 z"
       fill-rule="evenodd"
       id="path31" />
    <path
       fill="#323232"
       d="m 75.17173,53.185863 6.243172,-6.243172 1.620224,-0.120506 1.255279,-0.0055 1.696991,0.136196 1.384865,0.364498 1.616699,0.716088 1.671364,1.911491 1.009644,1.489883 0.172737,1.493409 -0.08889,1.171909 -0.613808,0.946983 -0.573944,1.062794 -0.331627,0.448616 -0.750458,0.750458 -0.855423,0.749485 -1.410637,1.41064 1.916252,1.916249 1.681198,2.401565 1.859292,2.639847 0.959701,2.116196 5.654122,-5.647679 1.199527,-2.282245 0.0859,-3.335636 -0.29404,-2.455132 -0.629194,-2.370235 -0.971267,-2.111687 -1.217675,-1.697925 -1.641273,-1.941582 -1.386414,-1.446282 -0.336395,-0.996891 -0.02442,-1.225032 0.530449,-1.03035 1.710785,-1.710789 1.046936,-0.213863 1.111725,-0.0287 1.295204,0.454773 2.999269,2.999275 1.59089,-1.590885 L 96.620445,33.153656 93.253632,32.188061 74.283989,51.1577 Z"
       fill-rule="evenodd"
       id="path32" />
    <path
       stroke="#323232"
       stroke-width="3.02625"
       stroke-miterlimit="8"
       stroke-linecap="round"
       d="m 75.17173,53.185863 6.243172,-6.243172 1.620224,-0.120506 1.255279,-0.0055 1.696991,0.136196 1.384865,0.364498 1.616699,0.716088 1.671364,1.911491 1.009644,1.489883 0.172737,1.493409 -0.08889,1.171909 -0.613808,0.946983 -0.573944,1.062794 -0.331627,0.448616 -0.750458,0.750458 -0.855423,0.749485 -1.410637,1.41064 1.916252,1.916249 1.681198,2.401565 1.859292,2.639847 0.959701,2.116196 5.654122,-5.647679 1.199527,-2.282245 0.0859,-3.335636 -0.29404,-2.455132 -0.629194,-2.370235 -0.971267,-2.111687 -1.217675,-1.697925 -1.641273,-1.941582 -1.386414,-1.446282 -0.336395,-0.996891 -0.02442,-1.225032 0.530449,-1.03035 1.710785,-1.710789 1.046936,-0.213863 1.111725,-0.0287 1.295204,0.454773 2.999269,2.999275 1.59089,-1.590885 L 96.620445,33.153656 93.253632,32.188061 74.283989,51.1577 Z"
       fill-rule="evenodd"
       id="path33" />
    <path
       fill="#ffffff"
       d="m 75.17173,53.185863 6.243172,-6.243172 1.620224,-0.120506 1.255279,-0.0055 1.696991,0.136196 1.384865,0.364498 1.616699,0.716088 1.671364,1.911491 1.009644,1.489883 0.172737,1.493409 -0.08889,1.171909 -0.613808,0.946983 -0.573944,1.062794 -0.331627,0.448616 -0.750458,0.750458 -0.855423,0.749485 -1.410637,1.41064 1.916252,1.916249 1.681198,2.401565 1.859292,2.639847 0.959701,2.116196 5.654122,-5.647679 1.199527,-2.282245 0.0859,-3.335636 -0.29404,-2.455132 -0.629194,-2.370235 -0.971267,-2.111687 -1.217675,-1.697925 -1.641273,-1.941582 -1.386414,-1.446282 -0.336395,-0.996891 -0.02442,-1.225032 0.530449,-1.03035 1.710785,-1.710789 1.046936,-0.213863 1.111725,-0.0287 1.295204,0.454773 2.999269,2.999275 1.59089,-1.590885 L 96.620445,33.153656 93.253632,32.188061 74.283989,51.1577 Z"
       fill-rule="evenodd"
       id="path34" />
    <path
       stroke="#ffffff"
       stroke-width="0.469816"
       stroke-linejoin="round"
       stroke-linecap="butt"
       d="m 75.17173,53.185863 6.243172,-6.243172 1.620224,-0.120506 1.255279,-0.0055 1.696991,0.136196 1.384865,0.364498 1.616699,0.716088 1.671364,1.911491 1.009644,1.489883 0.172737,1.493409 -0.08889,1.171909 -0.613808,0.946983 -0.573944,1.062794 -0.331627,0.448616 -0.750458,0.750458 -0.855423,0.749485 -1.410637,1.41064 1.916252,1.916249 1.681198,2.401565 1.859292,2.639847 0.959701,2.116196 5.654122,-5.647679 1.199527,-2.282245 0.0859,-3.335636 -0.29404,-2.455132 -0.629194,-2.370235 -0.971267,-2.111687 -1.217675,-1.697925 -1.641273,-1.941582 -1.386414,-1.446282 -0.336395,-0.996891 -0.02442,-1.225032 0.530449,-1.03035 1.710785,-1.710789 1.046936,-0.213863 1.111725,-0.0287 1.295204,0.454773 2.999269,2.999275 1.59089,-1.590885 L 96.620445,33.153656 93.253632,32.188061 74.283989,51.1577 Z"
       fill-rule="evenodd"
       id="path35" />
    <path
       fill="#323232"
       d="m 37.010918,110.4915 -9.981733,-9.98173 9.197794,10.76567 z"
       fill-rule="evenodd"
       id="path36" />
    <path
       stroke="#323232"
       stroke-width="3.02625"
       stroke-miterlimit="8"
       stroke-linecap="round"
       d="m 37.010918,110.4915 -9.981733,-9.98173 9.197794,10.76567 z"
       fill-rule="evenodd"
       id="path37" />
    <path
       fill="#323232"
       d="m 20.163528,93.64412 7.137718,7.13771 -7.57756,-6.697868 z"
       fill-rule="evenodd"
       id="path38" />
    <path
       stroke="#323232"
       stroke-width="3.02625"
       stroke-miterlimit="8"
       stroke-linecap="round"
       d="m 20.163528,93.64412 7.137718,7.13771 -7.57756,-6.697868 z"
       fill-rule="evenodd"
       id="path39" />
    <path
       fill="#323232"
       d="M 38.79511,80.33758 70.559518,48.573176 75.17637,53.190024 43.411962,84.954432 Z"
       fill-rule="evenodd"
       id="path40" />
    <path
       stroke="#323232"
       stroke-width="3.02625"
       stroke-miterlimit="8"
       stroke-linecap="round"
       d="M 38.79511,80.33758 70.559518,48.573176 75.17637,53.190024 43.411962,84.954432 Z"
       fill-rule="evenodd"
       id="path41" />
    <path
       fill="#323232"
       d="m 36.13284,77.67531 4.981892,-4.981888 2.66299,2.662994 -4.981888,4.981888 z"
       fill-rule="evenodd"
       id="path42" />
    <path
       stroke="#323232"
       stroke-width="3.02625"
       stroke-miterlimit="8"
       stroke-linecap="round"
       d="m 36.13284,77.67531 4.981892,-4.981888 2.66299,2.662994 -4.981888,4.981888 z"
       fill-rule="evenodd"
       id="path43" />
    <path
       fill="#323232"
       d="m 38.024036,75.78411 14.039249,14.039253 v 5.61583 L 37.521358,109.98112 20.674194,93.133956 Z"
       fill-rule="evenodd"
       id="path44" />
    <path
       stroke="#323232"
       stroke-width="3.02625"
       stroke-miterlimit="8"
       stroke-linecap="round"
       d="m 38.024036,75.78411 14.039249,14.039253 v 5.61583 L 37.521358,109.98112 20.674194,93.133956 Z"
       fill-rule="evenodd"
       id="path45" />
    <path
       fill="#ffffff"
       d="m 38.024036,75.78411 14.039249,14.039253 v 5.61583 L 37.521358,109.98112 20.674194,93.133956 Z"
       fill-rule="evenodd"
       id="path46" />
    <path
       stroke="#ffffff"
       stroke-width="0.469816"
       stroke-linejoin="round"
       stroke-linecap="butt"
       d="m 38.024036,75.78411 14.039249,14.039253 v 5.61583 L 37.521358,109.98112 20.674194,93.133956 Z"
       fill-rule="evenodd"
       id="path47" />
    <path
       fill="#ffffff"
       d="m 36.13284,77.67531 4.981892,-4.981888 2.66299,2.662994 -4.981888,4.981888 z"
       fill-rule="evenodd"
       id="path48" />
    <path
       stroke="#ffffff"
       stroke-width="0.469816"
       stroke-linejoin="round"
       stroke-linecap="butt"
       d="m 36.13284,77.67531 4.981892,-4.981888 2.66299,2.662994 -4.981888,4.981888 z"
       fill-rule="evenodd"
       id="path49" />
    <path
       fill="#ffffff"
       d="M 38.79511,80.33758 70.559518,48.573176 75.17637,53.190024 43.411962,84.954432 Z"
       fill-rule="evenodd"
       id="path50" />
    <path
       stroke="#ffffff"
       stroke-width="0.469816"
       stroke-linejoin="round"
       stroke-linecap="butt"
       d="M 38.79511,80.33758 70.559518,48.573176 75.17637,53.190024 43.411962,84.954432 Z"
       fill-rule="evenodd"
       id="path51" />
    <path
       fill="#323232"
       d="m 37.11965,78.66201 4.981892,-4.981888 0.447322,0.447319 -4.981891,4.981895 z"
       fill-rule="evenodd"
       id="path52" />
    <path
       stroke="#323232"
       stroke-width="3.02625"
       stroke-miterlimit="8"
       stroke-linecap="round"
       d="m 37.11965,78.66201 4.981892,-4.981888 0.447322,0.447319 -4.981891,4.981895 z"
       fill-rule="evenodd"
       id="path53" />
    <path
       fill="#282828"
       d="m 39.38587,76.39589 2.715355,-2.715355 0.447323,0.447319 -2.715355,2.715355 z"
       fill-rule="evenodd"
       id="path54" />
    <path
       stroke="#282828"
       stroke-width="0.469816"
       stroke-linejoin="round"
       stroke-linecap="butt"
       d="m 39.38587,76.39589 2.715355,-2.715355 0.447323,0.447319 -2.715355,2.715355 z"
       fill-rule="evenodd"
       id="path55" />
    <path
       fill="#323232"
       d="m 43.21636,70.59175 39.279133,-39.279137 0.611893,0.611891 -39.279137,39.27913 z"
       fill-rule="evenodd"
       id="path56" />
    <path
       stroke="#323232"
       stroke-width="3.02625"
       stroke-miterlimit="8"
       stroke-linecap="round"
       d="m 43.21636,70.59175 39.279133,-39.279137 0.611893,0.611891 -39.279137,39.27913 z"
       fill-rule="evenodd"
       id="path57" />
    <path
       fill="#ffffff"
       d="M 43.21644,70.59171 81.69668,32.111474 82.308565,32.723363 43.828333,71.203595 Z"
       fill-rule="evenodd"
       id="path58" />
    <path
       stroke="#ffffff"
       stroke-width="0.469816"
       stroke-linejoin="round"
       stroke-linecap="butt"
       d="M 43.21644,70.59171 81.69668,32.111474 82.308565,32.723363 43.828333,71.203595 Z"
       fill-rule="evenodd"
       id="path59" />
    <path
       fill="#323232"
       d="M 48.70803,82.73891 76.763702,54.683238 77.342674,55.262218 49.28701,83.317881 Z"
       fill-rule="evenodd"
       id="path60" />
    <path
       fill="#323232"
       d="m 51.20913,83.807144 7.059845,7.059845 11.192322,-5.71077 1.216827,0.333557 6.949646,-6.949646 -7.453888,-1.682144 -1.325065,1.325066 -1.648628,0.707184 -1.804024,0.198417 -1.755261,-0.459572 -1.365471,-1.070838 -0.657398,-0.892983 -0.350586,-1.58754 0.02173,-1.627334 0.655334,-1.818268 -11.442993,11.408989 z"
       fill-rule="evenodd"
       id="path61" />
    <path
       stroke="#323232"
       stroke-width="3.02625"
       stroke-miterlimit="8"
       stroke-linecap="round"
       d="m 51.20913,83.807144 7.059845,7.059845 11.192322,-5.71077 1.216827,0.333557 6.949646,-6.949646 -7.453888,-1.682144 -1.325065,1.325066 -1.648628,0.707184 -1.804024,0.198417 -1.755261,-0.459572 -1.365471,-1.070838 -0.657398,-0.892983 -0.350586,-1.58754 0.02173,-1.627334 0.655334,-1.818268 -11.442993,11.408989 z"
       fill-rule="evenodd"
       id="path62" />
    <path
       fill="#323232"
       d="m 67.480675,66.09591 1.447708,-0.672516 1.002396,-0.116463 1.248405,0.24704 1.081269,1.02253 0.541381,0.953483 0.191513,1.192894 -0.114845,0.945267 -2.675087,7.160263 7.797806,0.833634 1.182381,-0.832421 0.140968,-1.481201 1.435066,-3.04097 0.418564,-2.466843 0.392433,-2.55233 -0.128364,-2.307953 2.709182,-2.709179 -0.345642,-0.242073 -0.865806,0.3121 -1.583428,-0.02247 -1.305244,-0.245136 -1.090965,-0.708221 -0.795166,-1.060116 -0.421822,-1.128563 0.104569,-1.073338 0.159561,-0.665596 -0.934326,-0.934326 z"
       fill-rule="evenodd"
       id="path63" />
    <path
       stroke="#323232"
       stroke-width="3.02625"
       stroke-miterlimit="8"
       stroke-linecap="round"
       d="m 67.480675,66.09591 1.447708,-0.672516 1.002396,-0.116463 1.248405,0.24704 1.081269,1.02253 0.541381,0.953483 0.191513,1.192894 -0.114845,0.945267 -2.675087,7.160263 7.797806,0.833634 1.182381,-0.832421 0.140968,-1.481201 1.435066,-3.04097 0.418564,-2.466843 0.392433,-2.55233 -0.128364,-2.307953 2.709182,-2.709179 -0.345642,-0.242073 -0.865806,0.3121 -1.583428,-0.02247 -1.305244,-0.245136 -1.090965,-0.708221 -0.795166,-1.060116 -0.421822,-1.128563 0.104569,-1.073338 0.159561,-0.665596 -0.934326,-0.934326 z"
       fill-rule="evenodd"
       id="path64" />
    <path
       fill="#ffffff"
       d="m 51.20913,83.807144 7.059845,7.059845 11.192322,-5.71077 1.216827,0.333557 6.949646,-6.949646 -7.453888,-1.682144 -1.325065,1.325066 -1.648628,0.707184 -1.804024,0.198417 -1.755261,-0.459572 -1.365471,-1.070838 -0.657398,-0.892983 -0.350586,-1.58754 0.02173,-1.627334 0.655334,-1.818268 -11.442993,11.408989 z"
       fill-rule="evenodd"
       id="path65" />
    <path
       stroke="#ffffff"
       stroke-width="0.469816"
       stroke-linejoin="round"
       stroke-linecap="butt"
       d="m 51.20913,83.807144 7.059845,7.059845 11.192322,-5.71077 1.216827,0.333557 6.949646,-6.949646 -7.453888,-1.682144 -1.325065,1.325066 -1.648628,0.707184 -1.804024,0.198417 -1.755261,-0.459572 -1.365471,-1.070838 -0.657398,-0.892983 -0.350586,-1.58754 0.02173,-1.627334 0.655334,-1.818268 -11.442993,11.408989 z"
       fill-rule="evenodd"
       id="path66" />
    <path
       fill="#ffffff"
       d="m 67.480675,66.09591 1.447708,-0.672516 1.002396,-0.116463 1.248405,0.24704 1.081269,1.02253 0.541381,0.953483 0.191513,1.192894 -0.114845,0.945267 -2.675087,7.160263 7.435242,1.708344 1.485702,-1.481636 0.200211,-1.706696 1.435066,-3.04097 0.418564,-2.466842 0.392433,-2.55233 -0.128364,-2.307953 2.709182,-2.709179 -0.345642,-0.242074 -0.865806,0.3121 -1.583428,-0.02247 -1.305244,-0.245136 -1.090966,-0.708221 -0.795166,-1.060116 -0.421821,-1.128563 0.104568,-1.073338 0.159561,-0.665596 -0.934326,-0.934326 z"
       fill-rule="evenodd"
       id="path67" />
    <path
       stroke="#ffffff"
       stroke-width="0.469816"
       stroke-linejoin="round"
       stroke-linecap="butt"
       d="m 67.480675,66.09591 1.447708,-0.672516 1.002396,-0.116463 1.248405,0.24704 1.081269,1.02253 0.541381,0.953483 0.191513,1.192894 -0.114845,0.945267 -2.675087,7.160263 7.435242,1.708344 1.485702,-1.481636 0.200211,-1.706696 1.435066,-3.04097 0.418564,-2.466842 0.392433,-2.55233 -0.128364,-2.307953 2.709182,-2.709179 -0.345642,-0.242074 -0.865806,0.3121 -1.583428,-0.02247 -1.305244,-0.245136 -1.090966,-0.708221 -0.795166,-1.060116 -0.421821,-1.128563 0.104568,-1.073338 0.159561,-0.665596 -0.934326,-0.934326 z"
       fill-rule="evenodd"
       id="path68" />
    <path
       fill="#323232"
       d="m 83.25813,62.18989 5.67157,-5.671574 0.969452,0.969448 -5.671578,5.671574 z"
       fill-rule="evenodd"
       id="path69" />
    <path
       fill="#282828"
       d="m 84.038445,62.052574 2.238113,-2.23811 0.326142,0.326142 -2.238114,2.238109 z"
       fill-rule="evenodd"
       id="path70" />
    <path
       fill="#323232"
       d="m 66.10589,54.11029 -2.222858,-2.222858 -3.39758,-7.599713 5.625992,-4.339073 2.637123,6.839264 2.354821,2.324879 z"
       fill-rule="evenodd"
       id="path71" />
    <path
       stroke="#323232"
       stroke-width="3.02625"
       stroke-miterlimit="8"
       stroke-linecap="round"
       d="m 66.10589,54.11029 -2.222858,-2.222858 -3.39758,-7.599713 5.625992,-4.339073 2.637123,6.839264 2.354821,2.324879 z"
       fill-rule="evenodd"
       id="path72" />
    <path
       fill="#ffffff"
       d="m 66.10589,54.11029 -2.222858,-2.222858 -3.39758,-7.599713 5.625992,-4.339073 2.637123,6.839264 2.354821,2.324879 z"
       fill-rule="evenodd"
       id="path73" />
    <path
       stroke="#ffffff"
       stroke-width="0.469816"
       stroke-linejoin="round"
       stroke-linecap="butt"
       d="m 66.10589,54.11029 -2.222858,-2.222858 -3.39758,-7.599713 5.625992,-4.339073 2.637123,6.839264 2.354821,2.324879 z"
       fill-rule="evenodd"
       id="path74" />
    <path
       fill="#323232"
       d="m 60.433826,41.7604 -3.716122,-3.716126 2.785885,4.646363 z"
       fill-rule="evenodd"
       id="path75" />
    <path
       stroke="#323232"
       stroke-width="3.02625"
       stroke-miterlimit="8"
       d="m 60.433826,41.7604 -3.716122,-3.716126 2.785885,4.646363 z"
       fill-rule="evenodd"
       id="path76" />
    <path
       fill="#323232"
       d="M 78.43145,24.038563 60.571667,41.898346 80.977647,26.584763 Z"
       fill-rule="evenodd"
       id="path77" />
    <path
       stroke="#323232"
       stroke-width="3.02625"
       stroke-miterlimit="8"
       stroke-linecap="round"
       d="M 78.43145,24.038563 60.571667,41.898346 80.977647,26.584763 Z"
       fill-rule="evenodd"
       id="path78" />
    <path
       fill="#323232"
       d="m 57.59887,38.86536 5.882046,-5.882042 0.552715,0.552719 -5.882038,5.882046 z"
       fill-rule="evenodd"
       id="path79" />
    <path
       stroke="#323232"
       stroke-width="3.02625"
       stroke-miterlimit="8"
       stroke-linecap="round"
       d="m 57.59887,38.86536 5.882046,-5.882042 0.552715,0.552719 -5.882038,5.882046 z"
       fill-rule="evenodd"
       id="path80" />
    <path
       fill="#323232"
       d="M 62.611362,33.852806 75.428581,21.035583 78.446434,24.053438 65.629219,36.870659 Z"
       fill-rule="evenodd"
       id="path81" />
    <path
       stroke="#323232"
       stroke-width="3.02625"
       stroke-miterlimit="8"
       stroke-linecap="round"
       d="M 62.611362,33.852806 75.428581,21.035583 78.446434,24.053438 65.629219,36.870659 Z"
       fill-rule="evenodd"
       id="path82" />
    <path
       fill="#323232"
       fill-opacity="0.6045"
       d="m 68.32557,55.900246 -2.21627,0.34993 6.415497,-6.415493 0.933166,0.93317 z"
       fill-rule="evenodd"
       id="path83" />
    <path
       fill="#ffffff"
       d="m 57.637943,38.904434 5.882046,-5.882042 0.552719,0.552719 -5.882042,5.882046 z"
       fill-rule="evenodd"
       id="path84" />
    <path
       stroke="#ffffff"
       stroke-width="0.469816"
       stroke-linejoin="round"
       stroke-linecap="butt"
       d="m 57.637943,38.904434 5.882046,-5.882042 0.552719,0.552719 -5.882042,5.882046 z"
       fill-rule="evenodd"
       id="path85" />
    <path
       fill="#ffffff"
       d="M 62.650436,33.89188 75.467659,21.074657 78.485512,24.092512 65.668289,36.909733 Z"
       fill-rule="evenodd"
       id="path86" />
    <path
       stroke="#ffffff"
       stroke-width="0.469816"
       stroke-linejoin="round"
       stroke-linecap="butt"
       d="M 62.650436,33.89188 75.467659,21.074657 78.485512,24.092512 65.668289,36.909733 Z"
       fill-rule="evenodd"
       id="path87" />
    <path
       fill="#323232"
       d="m 93.51174,27.109291 4.322128,-4.322126 0.797402,0.797403 -4.322129,4.322124 z"
       fill-rule="evenodd"
       id="path88" />
    <path
       stroke="#323232"
       stroke-width="3.02625"
       stroke-miterlimit="8"
       stroke-linecap="round"
       d="m 93.51174,27.109291 4.322128,-4.322126 0.797402,0.797403 -4.322129,4.322124 z"
       fill-rule="evenodd"
       id="path89" />
    <path
       fill="#ffffff"
       d="m 93.51176,27.109303 4.322128,-4.322126 0.797402,0.797401 -4.322129,4.322126 z"
       fill-rule="evenodd"
       id="path90" />
    <path
       stroke="#ffffff"
       stroke-width="0.469816"
       stroke-linejoin="round"
       stroke-linecap="butt"
       d="m 93.51176,27.109303 4.322128,-4.322126 0.797402,0.797401 -4.322129,4.322126 z"
       fill-rule="evenodd"
       id="path91" />
    <path
       fill="#282828"
       d="m 24.908295,94.988884 v 0 c -0.211109,-0.211105 -0.206755,-0.557732 0.0097,-0.774208 v 0 c 0.103956,-0.103958 0.243927,-0.163384 0.38912,-0.165207 0.145193,-0.0018 0.283714,0.0541 0.385092,0.155479 v 0 c 0.211109,0.211106 0.206754,0.557732 -0.0097,0.774216 v 0 c -0.216478,0.216477 -0.563105,0.220833 -0.774212,0.0097 z"
       fill-rule="evenodd"
       id="path92" />
    <path
       fill="#282828"
       d="m 34.331055,82.0803 v 0 c -0.211105,-0.211105 -0.206753,-0.557732 0.0097,-0.774208 v 0 c 0.103958,-0.103958 0.243927,-0.163384 0.389122,-0.165207 0.145191,-0.0018 0.283714,0.0541 0.38509,0.155479 v 0 c 0.211109,0.211106 0.206756,0.557732 -0.0097,0.774216 v 0 c -0.216477,0.216477 -0.563103,0.220833 -0.774212,0.0097 z"
       fill-rule="evenodd"
       id="path93" />
    <path
       fill="#282828"
       d="m 40.739063,103.51988 v 0 c -0.211105,-0.21111 -0.206753,-0.55773 0.0097,-0.77421 v 0 c 0.103958,-0.10396 0.24393,-0.16338 0.389122,-0.1652 0.145195,-0.002 0.283714,0.0541 0.385093,0.15547 v 0 c 0.211106,0.21111 0.206753,0.55774 -0.0097,0.77422 v 0 c -0.216477,0.21648 -0.563103,0.22083 -0.774212,0.01 z"
       fill-rule="evenodd"
       id="path94" />
    <path
       fill="#282828"
       d="m 48.731525,91.078026 v 0 c -0.211109,-0.211105 -0.206757,-0.557732 0.0097,-0.774216 v 0 c 0.103954,-0.10395 0.243927,-0.163383 0.389118,-0.165207 0.145195,-0.0018 0.283718,0.05411 0.385094,0.155487 v 0 c 0.211109,0.211106 0.206752,0.557732 -0.0097,0.774209 v 0 c -0.21648,0.216484 -0.563107,0.220832 -0.774212,0.0097 z"
       fill-rule="evenodd"
       id="path95" />
    <path
       fill="#282828"
       d="m 38.424515,107.414 v 0 c -0.168968,-0.16897 -0.168968,-0.44292 0,-0.61189 l 2.239605,-2.2396 c 0.08114,-0.0812 0.191193,-0.12674 0.305946,-0.12674 0.11475,0 0.224804,0.0456 0.305943,0.12674 v 0 0 c 0.168972,0.16896 0.168972,0.44291 0,0.61188 l -2.239605,2.23961 c -0.168968,0.16897 -0.442921,0.16897 -0.611889,0 z"
       fill-rule="evenodd"
       id="path96" />
    <path
       fill="#000000"
       fill-opacity="0"
       d="M 27.757187,101.59796 46.398132,82.957015"
       fill-rule="evenodd"
       id="path97" />
    <path
       stroke="#323232"
       stroke-width="0.939633"
       stroke-linejoin="round"
       stroke-linecap="butt"
       d="M 27.757187,101.59796 46.398132,82.957015"
       fill-rule="evenodd"
       id="path98" />
    <path
       fill="#282828"
       d="m 58.89573,77.0205 v 0 c -0.123524,-0.12352 -0.117161,-0.330162 0.01421,-0.461533 v 0 c 0.06309,-0.06309 0.147155,-0.100029 0.233711,-0.102691 0.08655,-0.0027 0.168506,0.02916 0.227825,0.08848 v 0 c 0.123524,0.123527 0.117161,0.330162 -0.01421,0.46154 v 0 c -0.131374,0.131371 -0.338008,0.137734 -0.461536,0.01421 z"
       fill-rule="evenodd"
       id="path99" />
    <path
       fill="#282828"
       d="m 68.997635,80.87816 v 0 c -0.199951,-0.199959 -0.189903,-0.534187 0.02244,-0.746536 v 0 c 0.101975,-0.101975 0.237915,-0.161629 0.377922,-0.165833 0.14,-0.0042 0.272598,0.04737 0.368614,0.143387 v 0 c 0.199959,0.199959 0.189911,0.534195 -0.02244,0.746536 v 0 c -0.212349,0.212349 -0.546585,0.222397 -0.746536,0.02245 z"
       fill-rule="evenodd"
       id="path100" />
    <path
       fill="#282828"
       d="m 74.753334,73.51082 v 0 c -0.199951,-0.199951 -0.189903,-0.534187 0.02245,-0.746536 v 0 c 0.101967,-0.101975 0.237907,-0.161621 0.377914,-0.165833 0.139999,-0.0042 0.272598,0.04737 0.368614,0.143395 v 0 c 0.199959,0.199951 0.189911,0.534187 -0.02244,0.746536 v 0 c -0.212349,0.212341 -0.546585,0.222389 -0.746536,0.02244 z"
       fill-rule="evenodd"
       id="path101" />
    <path
       fill="#282828"
       d="m 71.59295,64.04899 v 0 c -0.199951,-0.199951 -0.189903,-0.534187 0.02245,-0.746536 v 0 c 0.101967,-0.101971 0.237907,-0.161625 0.377914,-0.165833 0.139999,-0.0042 0.272598,0.04737 0.368614,0.143395 v 0 c 0.199959,0.199951 0.189911,0.534187 -0.02244,0.746536 v 0 c -0.212349,0.212341 -0.546585,0.222389 -0.746536,0.02244 z"
       fill-rule="evenodd"
       id="path102" />
    <path
       fill="#282828"
       d="m 94.49552,59.962963 v 0 c -0.211105,-0.211109 -0.206757,-0.557735 0.0097,-0.774212 v 0 c 0.103951,-0.103958 0.243927,-0.163383 0.389115,-0.165207 0.145195,-0.0018 0.283714,0.0541 0.385094,0.15548 v 0 c 0.211113,0.211109 0.206756,0.557735 -0.0097,0.774215 v 0 c -0.216484,0.216477 -0.563111,0.220829 -0.774216,0.0097 z"
       fill-rule="evenodd"
       id="path103" />
    <path
       fill="#282828"
       d="m 88.40784,44.390457 v 0 c -0.211113,-0.211109 -0.206757,-0.557735 0.0097,-0.774216 v 0 c 0.103958,-0.103954 0.243927,-0.163379 0.389122,-0.165203 0.145195,-0.0018 0.283714,0.0541 0.385094,0.15548 v 0 c 0.211105,0.211109 0.206749,0.557735 -0.0097,0.774212 v 0 c -0.216476,0.21648 -0.563103,0.220832 -0.774208,0.0097 z"
       fill-rule="evenodd"
       id="path104" />
    <path
       fill="#323232"
       d="m 64.795654,35.340324 8.624054,-8.624052 1.601089,1.60109 -8.624054,8.624052 z"
       fill-rule="evenodd"
       id="path105" />
    <path
       stroke="#323232"
       stroke-width="3.02625"
       stroke-miterlimit="8"
       stroke-linecap="round"
       d="m 64.795654,35.340324 8.624054,-8.624052 1.601089,1.60109 -8.624054,8.624052 z"
       fill-rule="evenodd"
       id="path106" />
    <path
       fill="#ffffff"
       d="m 64.795654,35.340324 8.624054,-8.624052 1.601089,1.60109 -8.624054,8.624052 z"
       fill-rule="evenodd"
       id="path107" />
    <path
       stroke="#ffffff"
       stroke-width="0.469816"
       stroke-linejoin="round"
       stroke-linecap="butt"
       d="m 64.795654,35.340324 8.624054,-8.624052 1.601089,1.60109 -8.624054,8.624052 z"
       fill-rule="evenodd"
       id="path108" />
    <path
       fill="#282828"
       d="m 66.0737,35.70089 v 0 c -0.29763,-0.297626 -0.291306,-0.786507 0.01413,-1.091942 v 0 c 0.146675,-0.146671 0.344123,-0.230564 0.548896,-0.233211 0.204781,-0.0027 0.400116,0.07615 0.543045,0.219078 v 0 c 0.297631,0.29763 0.291298,0.786506 -0.01414,1.091942 v 0 c -0.305435,0.305431 -0.794311,0.311759 -1.091934,0.01413 z"
       fill-rule="evenodd"
       id="path109" />
    <path
       fill="#282828"
       d="m 72.673904,29.100685 v 0 c -0.29763,-0.297628 -0.291306,-0.786505 0.01413,-1.09194 v 0 c 0.146675,-0.146673 0.344116,-0.230564 0.548896,-0.233215 0.204781,-0.0026 0.400116,0.07616 0.543045,0.219082 v 0 c 0.297623,0.297626 0.291298,0.786504 -0.01414,1.09194 v 0 c -0.305435,0.305433 -0.794311,0.311761 -1.091934,0.01413 z"
       fill-rule="evenodd"
       id="path110" />
    <path
       fill="#000000"
       fill-opacity="0"
       d="m 47.28151,74.23641 v 0 c -0.4561,-0.4561 -0.707527,-1.079513 -0.698971,-1.733093 0.0086,-0.65358 0.276398,-1.283791 0.744599,-1.751992 l 1.719726,1.719727 z"
       fill-rule="evenodd"
       id="path111" />
    <path
       fill="#000000"
       fill-opacity="0"
       d="m 47.28151,74.23641 v 0 c -0.4561,-0.4561 -0.707527,-1.079513 -0.698971,-1.733093 0.0086,-0.65358 0.276398,-1.283791 0.744599,-1.751992"
       fill-rule="evenodd"
       id="path112" />
    <path
       stroke="#323232"
       stroke-width="0.939633"
       stroke-linejoin="round"
       stroke-linecap="butt"
       d="m 47.28151,74.23641 v 0 c -0.4561,-0.4561 -0.707527,-1.079513 -0.698971,-1.733093 0.0086,-0.65358 0.276398,-1.283791 0.744599,-1.751992"
       fill-rule="evenodd"
       id="path113" />
    <path
       fill="#000000"
       fill-opacity="0"
       d="m 47.741486,73.96612 -3.54118,3.541176"
       fill-rule="evenodd"
       id="path114" />
    <path
       stroke="#323232"
       stroke-width="0.939633"
       stroke-linejoin="round"
       stroke-linecap="butt"
       d="m 47.741486,73.96612 -3.54118,3.541176"
       fill-rule="evenodd"
       id="path115" />
    <path
       fill="#323232"
       d="M 74.55864,50.053898 84.822945,39.789593 85.149163,40.115811 74.884858,50.380116 Z"
       fill-rule="evenodd"
       id="path116" />
    <path
       stroke="#323232"
       stroke-width="3.02625"
       stroke-miterlimit="8"
       stroke-linecap="round"
       d="M 74.55864,50.053898 84.822945,39.789593 85.149163,40.115811 74.884858,50.380116 Z"
       fill-rule="evenodd"
       id="path117" />
    <path
       fill="#ffffff"
       d="M 74.55864,50.053898 84.822945,39.789593 85.149163,40.115811 74.884858,50.380116 Z"
       fill-rule="evenodd"
       id="path118" />
    <path
       stroke="#ffffff"
       stroke-width="0.469816"
       stroke-linejoin="round"
       stroke-linecap="butt"
       d="M 74.55864,50.053898 84.822945,39.789593 85.149163,40.115811 74.884858,50.380116 Z"
       fill-rule="evenodd"
       id="path119" />
    <path
       fill="#323232"
       d="m 82.96546,39.554863 2.340713,-2.340717 2.396965,2.396965 -2.340713,2.340717 z"
       fill-rule="evenodd"
       id="path120" />
    <path
       fill="#323232"
       d="m 85.508156,39.20601 v 0 c -0.927193,-0.927185 -0.936615,-2.440598 -0.02135,-3.426941 0.915276,-0.986343 2.427963,-1.092926 3.425308,-0.241344 0.997345,0.851581 1.122727,2.356823 0.283905,3.408443 -0.838821,1.051617 -2.341904,1.273583 -3.403549,0.502609 l 0.675133,-0.914543 c 0.569938,0.407864 1.382225,0.276749 1.839874,-0.296978 0.457649,-0.573727 0.397224,-1.385177 -0.136871,-1.837982 -0.534088,-0.452801 -1.351113,-0.38525 -1.850602,0.153007 -0.499481,0.538258 -0.503051,1.355 -0.0081,1.849965 z"
       fill-rule="evenodd"
       id="path121" />
  </g>
</svg>
