<?xml version="1.0" encoding="UTF-8" standalone="no"?>
<svg
   version="1.1"
   viewBox="0 0 180.32632 180.32632"
   fill="none"
   stroke="none"
   stroke-linecap="square"
   stroke-miterlimit="10"
   id="svg98"
   width="180.32632"
   height="180.32632"
   xmlns="http://www.w3.org/2000/svg"
   xmlns:svg="http://www.w3.org/2000/svg">
  <defs
     id="defs98" />
  <clipPath
     id="p.0">
    <path
       d="M 0,0 H 234.63518 V 234.63518 H 0 Z"
       clip-rule="nonzero"
       id="path1" />
  </clipPath>
  <g
     clip-path="url(#p.0)"
     id="g98"
     transform="scale(0.76853913)">
    <path
       fill="#000000"
       fill-opacity="0"
       d="M 0,0 H 234.63518 V 234.63518 H 0 Z"
       fill-rule="evenodd"
       id="path2" />
    <path
       fill="#323232"
       d="m 70.07483,157.93144 c -4.166229,-4.16623 -4.197304,-10.88994 -0.06941,-15.01784 1.982284,-1.98228 4.678154,-3.08861 7.494545,-3.07559 2.816391,0.013 5.522598,1.1443 7.523292,3.145 4.166229,4.16623 4.197304,10.88994 0.06941,15.01784 -4.127899,4.12789 -10.851608,4.09682 -15.017838,-0.0694 z"
       fill-rule="evenodd"
       id="path3" />
    <path
       stroke="#323232"
       stroke-width="8.042"
       stroke-miterlimit="8"
       stroke-linecap="round"
       d="m 70.07483,157.93144 c -4.166229,-4.16623 -4.197304,-10.88994 -0.06941,-15.01784 1.982284,-1.98228 4.678154,-3.08861 7.494545,-3.07559 2.816391,0.013 5.522598,1.1443 7.523292,3.145 4.166229,4.16623 4.197304,10.88994 0.06941,15.01784 -4.127899,4.12789 -10.851608,4.09682 -15.017838,-0.0694 z"
       fill-rule="evenodd"
       id="path4" />
    <path
       fill="#323232"
       d="m 63.881317,150.5834 -0.810623,3.31206 -0.534859,4.78586 -0.213112,4.88176 0.532326,4.962 1.413673,5.77988 1.27713,5.04292 2.389275,6.27684 2.757591,4.99283 3.051911,4.45291 3.014541,3.38554 1.972275,1.93102 2.810677,2.60416 2.792747,2.17291 2.652268,1.42209 2.531051,1.10244 3.10643,0.70522 2.9805,0.27628 2.690445,-0.19851 3.266467,-0.59645 3.0843,-1.07618 2.82656,-2.03933 2.38154,-2.34799 1.94112,-2.55002 1.30862,-3.44571 0.79287,-2.88829 -0.46733,-3.33155 -2.99821,-3.19254 -4.05294,-2.6162 -3.2755,-2.10318 -4.352366,-3.30822 -3.013282,-2.27359 -1.868996,-2.04264 -1.45652,-2.48844 -1.372505,-3.03129 -1.030068,-2.61033 -0.763252,-2.6741 -0.261933,-2.31328 0.05728,-2.43088 0.305,-1.68434 z"
       fill-rule="evenodd"
       id="path5" />
    <path
       stroke="#323232"
       stroke-width="8.042"
       stroke-miterlimit="8"
       stroke-linecap="round"
       d="m 63.881317,150.5834 -0.810623,3.31206 -0.534859,4.78586 -0.213112,4.88176 0.532326,4.962 1.413673,5.77988 1.27713,5.04292 2.389275,6.27684 2.757591,4.99283 3.051911,4.45291 3.014541,3.38554 1.972275,1.93102 2.810677,2.60416 2.792747,2.17291 2.652268,1.42209 2.531051,1.10244 3.10643,0.70522 2.9805,0.27628 2.690445,-0.19851 3.266467,-0.59645 3.0843,-1.07618 2.82656,-2.03933 2.38154,-2.34799 1.94112,-2.55002 1.30862,-3.44571 0.79287,-2.88829 -0.46733,-3.33155 -2.99821,-3.19254 -4.05294,-2.6162 -3.2755,-2.10318 -4.352366,-3.30822 -3.013282,-2.27359 -1.868996,-2.04264 -1.45652,-2.48844 -1.372505,-3.03129 -1.030068,-2.61033 -0.763252,-2.6741 -0.261933,-2.31328 0.05728,-2.43088 0.305,-1.68434 z"
       fill-rule="evenodd"
       id="path6" />
    <path
       fill="#ffffff"
       d="m 63.881317,150.5834 -0.810623,3.31206 -0.534859,4.78586 -0.213112,4.88176 0.532326,4.962 1.413673,5.77988 1.27713,5.04292 2.389275,6.27684 2.757591,4.99283 3.051911,4.45291 3.014541,3.38554 1.972275,1.93102 2.810677,2.60416 2.792747,2.17291 2.652268,1.42209 2.531051,1.10244 3.10643,0.70522 2.9805,0.27628 2.690445,-0.19851 3.266467,-0.59645 3.0843,-1.07618 2.82656,-2.03933 2.38154,-2.34799 1.94112,-2.55002 1.30862,-3.44571 0.79287,-2.88829 -0.46733,-3.33155 -2.99821,-3.19254 -4.05294,-2.6162 -3.2755,-2.10318 -4.352366,-3.30822 -3.013282,-2.27359 -1.868996,-2.04264 -1.45652,-2.48844 -1.372505,-3.03129 -1.030068,-2.61033 -0.763252,-2.6741 -0.261933,-2.31328 0.05728,-2.43088 0.305,-1.68434 z"
       fill-rule="evenodd"
       id="path7" />
    <path
       stroke="#ffffff"
       stroke-width="1.24934"
       stroke-linejoin="round"
       stroke-linecap="butt"
       d="m 63.881317,150.5834 -0.810623,3.31206 -0.534859,4.78586 -0.213112,4.88176 0.532326,4.962 1.413673,5.77988 1.27713,5.04292 2.389275,6.27684 2.757591,4.99283 3.051911,4.45291 3.014541,3.38554 1.972275,1.93102 2.810677,2.60416 2.792747,2.17291 2.652268,1.42209 2.531051,1.10244 3.10643,0.70522 2.9805,0.27628 2.690445,-0.19851 3.266467,-0.59645 3.0843,-1.07618 2.82656,-2.03933 2.38154,-2.34799 1.94112,-2.55002 1.30862,-3.44571 0.79287,-2.88829 -0.46733,-3.33155 -2.99821,-3.19254 -4.05294,-2.6162 -3.2755,-2.10318 -4.352366,-3.30822 -3.013282,-2.27359 -1.868996,-2.04264 -1.45652,-2.48844 -1.372505,-3.03129 -1.030068,-2.61033 -0.763252,-2.6741 -0.261933,-2.31328 0.05728,-2.43088 0.305,-1.68434 z"
       fill-rule="evenodd"
       id="path8" />
    <path
       fill="#ffffff"
       d="m 69.85439,158.15442 c -4.166229,-4.16623 -4.197304,-10.88994 -0.06941,-15.01784 1.982284,-1.98228 4.678154,-3.08861 7.494545,-3.07559 2.816391,0.013 5.522598,1.1443 7.523292,3.145 4.166222,4.16623 4.197304,10.88994 0.06941,15.01784 -4.127892,4.12789 -10.851608,4.09682 -15.01783,-0.0694 z"
       fill-rule="evenodd"
       id="path9" />
    <path
       stroke="#ffffff"
       stroke-width="1.24934"
       stroke-linejoin="round"
       stroke-linecap="butt"
       d="m 69.85439,158.15442 c -4.166229,-4.16623 -4.197304,-10.88994 -0.06941,-15.01784 1.982284,-1.98228 4.678154,-3.08861 7.494545,-3.07559 2.816391,0.013 5.522598,1.1443 7.523292,3.145 4.166222,4.16623 4.197304,10.88994 0.06941,15.01784 -4.127892,4.12789 -10.851608,4.09682 -15.01783,-0.0694 z"
       fill-rule="evenodd"
       id="path10" />
    <path
       fill="#323232"
       d="m 65.364235,153.5796 -0.462936,3.84802 -0.295449,5.45304 0.504769,5.13592 1.147323,5.13892 1.387703,5.22004 1.78637,4.66062 2.897438,5.63086 3.181984,4.61786 3.833313,4.24319 3.794677,3.45268 3.206337,2.5232 4.408112,2.35615 4.43502,0.81056 3.125321,-0.22586 2.677033,-0.46797 2.46931,-0.95062 2.73894,-1.91064 2.35958,-2.35959 1.53471,-2.36301 1.18632,-3.39539 0.43443,-2.64349 -0.45171,-1.06697 -2.41753,-2.75952 -6.78807,-4.46286 -6.998239,-5.28827 -3.003533,-3.27763 -2.289222,-4.68233 -1.423676,-3.27027 -1.185326,-3.71507 -0.393508,-4.02885 z"
       fill-rule="evenodd"
       id="path11" />
    <path
       fill="#323232"
       d="m 90.416275,156.66582 c -2.873985,6.3896 -9.975716,9.71005 -16.770836,7.84126 -6.795113,-1.86879 -11.279717,-8.3757 -10.590439,-15.36615 z"
       fill-rule="evenodd"
       id="path12" />
    <path
       stroke="#323232"
       stroke-width="3.74803"
       stroke-linejoin="round"
       stroke-linecap="butt"
       d="m 90.416275,156.66582 c -2.873985,6.3896 -9.975716,9.71005 -16.770836,7.84126 -6.795113,-1.86879 -11.279717,-8.3757 -10.590439,-15.36615 z"
       fill-rule="evenodd"
       id="path13" />
    <path
       fill="#ffffff"
       d="m 79.21807,188.13852 c -1.020058,-1.75868 -0.428864,-3.99765 1.320465,-5.00087 0.840065,-0.48177 1.840302,-0.60829 2.780685,-0.35178 0.940384,0.25653 1.743882,0.87511 2.233727,1.71965 1.02005,1.75869 0.428856,3.99765 -1.320473,5.00087 -1.749328,1.00322 -3.994354,0.39081 -5.014404,-1.36787 z m 0.69265,-0.39723 c 0.798797,1.37721 2.554352,1.85824 3.921142,1.0744 1.366784,-0.78384 1.827225,-2.53572 1.028428,-3.91293 -0.798798,-1.37722 -2.554352,-1.85823 -3.921135,-1.07441 -1.366784,0.78385 -1.827233,2.53573 -1.028435,3.91294 z"
       fill-rule="evenodd"
       id="path14" />
    <path
       fill="#323232"
       d="m 71.387955,156.61305 c -3.307922,-3.30792 -3.332176,-8.64688 -0.05417,-11.92488 1.57415,-1.57416 3.714867,-2.45279 5.951218,-2.44264 2.236351,0.0102 4.385139,0.90829 5.973663,2.49681 3.307923,3.30792 3.332177,8.64688 0.05417,11.92488 -3.278,3.27801 -8.616951,3.25375 -11.924881,-0.0542 z"
       fill-rule="evenodd"
       id="path15" />
    <path
       stroke="#ffffff"
       stroke-width="2.49869"
       stroke-linejoin="round"
       stroke-linecap="butt"
       d="m 71.387955,156.61305 c -3.307922,-3.30792 -3.332176,-8.64688 -0.05417,-11.92488 1.57415,-1.57416 3.714867,-2.45279 5.951218,-2.44264 2.236351,0.0102 4.385139,0.90829 5.973663,2.49681 3.307923,3.30792 3.332177,8.64688 0.05417,11.92488 -3.278,3.27801 -8.616951,3.25375 -11.924881,-0.0542 z"
       fill-rule="evenodd"
       id="path16" />
    <path
       fill="#323232"
       d="m 116.44949,146.24545 c -3.42321,-3.4232 -1.92904,-10.46747 3.33731,-15.73381 5.26635,-5.26635 12.31061,-6.76052 15.73381,-3.33733 3.42321,3.42321 1.92904,10.46747 -3.33731,15.73381 -5.26635,5.26636 -12.31062,6.76053 -15.73381,3.33733 z m 1.66125,-1.66125 c 2.50572,2.5057 8.06244,1.01155 12.41131,-3.33732 4.34886,-4.34887 5.84303,-9.90559 3.33731,-12.41131 -2.50571,-2.50571 -8.06244,-1.01154 -12.4113,3.33732 -4.34886,4.34887 -5.84303,9.9056 -3.33732,12.41131 z"
       fill-rule="evenodd"
       id="path17" />
    <path
       fill="#323232"
       d="m 109.90246,147.45616 c -0.50126,-1.91331 0.61417,-3.95146 2.5859,-4.72505 1.97173,-0.77359 4.16474,-0.0335 5.08408,1.7158 l -1.80193,0.92205 c -0.44007,-0.8256 -1.52887,-1.15207 -2.5308,-0.75884 -1.00192,0.39322 -1.59817,1.38103 -1.3859,2.29602 z"
       fill-rule="evenodd"
       id="path18" />
    <path
       fill="#323232"
       d="m 106.14199,143.65501 -0.30906,-0.70477 33.98415,-35.3954 -6.7672,7.6863 -3.35077,3.56081 -3.95647,4.16581 -3.76501,4.18511 -2.34891,2.6619 -2.40763,3.03639 -2.4981,3.16666 -2.82687,5.70361 -1.10474,0.59818 -1.44263,3.22386 z"
       fill-rule="evenodd"
       id="path19" />
    <path
       stroke="#323232"
       stroke-width="8.042"
       stroke-miterlimit="8"
       stroke-linecap="round"
       d="m 106.14199,143.65501 -0.30906,-0.70477 33.98415,-35.3954 -6.7672,7.6863 -3.35077,3.56081 -3.95647,4.16581 -3.76501,4.18511 -2.34891,2.6619 -2.40763,3.03639 -2.4981,3.16666 -2.82687,5.70361 -1.10474,0.59818 -1.44263,3.22386 z"
       fill-rule="evenodd"
       id="path20" />
    <path
       fill="#000000"
       fill-opacity="0"
       d="m 128.39111,143.0275 c -1.43547,0.37592 -3.15116,-0.50179 -4.76963,-2.44 -1.61848,-1.9382 -3.00716,-4.77817 -3.86056,-7.89511 l 5.41245,-1.41736 z"
       fill-rule="evenodd"
       id="path21" />
    <path
       fill="#000000"
       fill-opacity="0"
       d="m 128.39111,143.0275 c -1.43547,0.37592 -3.15116,-0.50179 -4.76963,-2.44 -1.61848,-1.9382 -3.00716,-4.77817 -3.86056,-7.89511"
       fill-rule="evenodd"
       id="path22" />
    <path
       stroke="#323232"
       stroke-width="2.88714"
       stroke-linejoin="round"
       stroke-linecap="round"
       d="m 128.39111,143.0275 c -1.43547,0.37592 -3.15116,-0.50179 -4.76963,-2.44 -1.61848,-1.9382 -3.00716,-4.77817 -3.86056,-7.89511"
       fill-rule="evenodd"
       id="path23" />
    <path
       fill="#323232"
       d="m 87.40025,109.72195 0.616852,-10.042629 -4.913765,-4.410515 -7.380348,-3.012482 -1.217995,2.03769 6.454743,7.841426 -5.941956,4.05861 -2.496567,3.05807 0.151795,5.796 1.226402,0.25734 1.666519,-0.91191 1.71862,-3.27447 6.519127,-1.85522 z"
       fill-rule="evenodd"
       id="path24" />
    <path
       stroke="#323232"
       stroke-width="0.624672"
       stroke-linejoin="round"
       stroke-linecap="butt"
       d="m 87.40025,109.72195 0.616852,-10.042629 -4.913765,-4.410515 -7.380348,-3.012482 -1.217995,2.03769 6.454743,7.841426 -5.941956,4.05861 -2.496567,3.05807 0.151795,5.796 1.226402,0.25734 1.666519,-0.91191 1.71862,-3.27447 6.519127,-1.85522 z"
       fill-rule="evenodd"
       id="path25" />
    <path
       fill="#323232"
       d="m 91.515434,126.62116 c 8.684816,3.40245 14.321016,11.90319 14.052696,21.19479 l -6.491043,-0.24785 c 0.162498,-6.51363 -3.79998,-12.47681 -9.88945,-14.88274 z"
       fill-rule="evenodd"
       id="path26" />
    <path
       stroke="#323232"
       stroke-width="8.042"
       stroke-miterlimit="8"
       stroke-linecap="round"
       d="m 91.515434,126.62116 c 8.684816,3.40245 14.321016,11.90319 14.052696,21.19479 l -6.491043,-0.24785 c 0.162498,-6.51363 -3.79998,-12.47681 -9.88945,-14.88274 z"
       fill-rule="evenodd"
       id="path27" />
    <path
       fill="#323232"
       d="m 82.66383,127.51047 23.95962,-23.95962 2.68032,2.68032 -23.959619,23.95963 z"
       fill-rule="evenodd"
       id="path28" />
    <path
       stroke="#323232"
       stroke-width="8.042"
       stroke-miterlimit="8"
       stroke-linecap="round"
       d="m 82.66383,127.51047 23.95962,-23.95962 2.68032,2.68032 -23.959619,23.95963 z"
       fill-rule="evenodd"
       id="path29" />
    <path
       fill="#323232"
       d="m 89.135216,85.3099 v 0 c 11.006944,11.006935 11.006944,28.85272 0,39.85966 l -2.973633,2.97363 v 0 l -1.026588,-1.02659 -1.026581,-1.02658 v 0 l 2.973633,-2.97364 c 9.873009,-9.873 9.873009,-25.88031 0,-35.75331 v 0 z"
       fill-rule="evenodd"
       id="path30" />
    <path
       stroke="#323232"
       stroke-width="8.042"
       stroke-miterlimit="8"
       stroke-linecap="round"
       d="m 89.135216,85.3099 v 0 c 11.006944,11.006935 11.006944,28.85272 0,39.85966 l -2.973633,2.97363 v 0 l -1.026588,-1.02659 -1.026581,-1.02658 v 0 l 2.973633,-2.97364 c 9.873009,-9.873 9.873009,-25.88031 0,-35.75331 v 0 z"
       fill-rule="evenodd"
       id="path31" />
    <path
       fill="#323232"
       d="m 89.26618,85.17893 23.60004,23.60004 -1.88599,1.88599 -23.600044,-23.600044 z"
       fill-rule="evenodd"
       id="path32" />
    <path
       stroke="#323232"
       stroke-width="8.042"
       stroke-miterlimit="8"
       stroke-linecap="round"
       d="m 89.26618,85.17893 23.60004,23.60004 -1.88599,1.88599 -23.600044,-23.600044 z"
       fill-rule="evenodd"
       id="path33" />
    <path
       fill="#323232"
       d="m 102.65807,144.13885 -0.4342,-0.97028 45.98717,-47.942402 -9.14752,10.420842 -4.5331,4.82414 -5.35309,5.64329 -5.0909,5.67215 -3.17498,3.609 -3.24981,4.12041 -2.38592,3.11269 -3.13398,4.58581 -3.1369,5.16831 -1.92552,4.39264 z"
       fill-rule="evenodd"
       id="path34" />
    <path
       stroke="#323232"
       stroke-width="8.042"
       stroke-miterlimit="8"
       stroke-linecap="round"
       d="m 102.65807,144.13885 -0.4342,-0.97028 45.98717,-47.942402 -9.14752,10.420842 -4.5331,4.82414 -5.35309,5.64329 -5.0909,5.67215 -3.17498,3.609 -3.24981,4.12041 -2.38592,3.11269 -3.13398,4.58581 -3.1369,5.16831 -1.92552,4.39264 z"
       fill-rule="evenodd"
       id="path35" />
    <path
       fill="#323232"
       d="m 105.79851,109.5926 21.49024,-21.490234 5.88859,5.888596 -21.49024,21.490228 z"
       fill-rule="evenodd"
       id="path36" />
    <path
       stroke="#323232"
       stroke-width="8.042"
       stroke-miterlimit="8"
       stroke-linecap="round"
       d="m 105.79851,109.5926 21.49024,-21.490234 5.88859,5.888596 -21.49024,21.490228 z"
       fill-rule="evenodd"
       id="path37" />
    <path
       fill="#323232"
       d="M 107.30856,106.99621 94.855992,119.44878 94.739468,94.427118 Z"
       fill-rule="evenodd"
       id="path38" />
    <path
       stroke="#323232"
       stroke-width="8.042"
       stroke-miterlimit="8"
       stroke-linecap="round"
       d="M 107.30856,106.99621 94.855992,119.44878 94.739468,94.427118 Z"
       fill-rule="evenodd"
       id="path39" />
    <path
       fill="#323232"
       d="m 89.290695,125.88298 42.749115,-42.749107 11.67056,11.67057 -42.7491,42.749117 z"
       fill-rule="evenodd"
       id="path40" />
    <path
       stroke="#323232"
       stroke-width="8.042"
       stroke-miterlimit="8"
       stroke-linecap="round"
       d="m 89.290695,125.88298 42.749115,-42.749107 11.67056,11.67057 -42.7491,42.749117 z"
       fill-rule="evenodd"
       id="path41" />
    <path
       fill="#ffffff"
       d="m 88.72407,125.87122 c 10.053246,2.51957 17.03436,11.71856 16.73593,22.05285 l -6.491042,-0.24783 c 0.18074,-7.24466 -4.723968,-13.69902 -11.771988,-15.49137 z"
       fill-rule="evenodd"
       id="path42" />
    <path
       stroke="#ffffff"
       stroke-width="1.24934"
       stroke-linejoin="round"
       stroke-linecap="butt"
       d="m 88.72407,125.87122 c 10.053246,2.51957 17.03436,11.71856 16.73593,22.05285 l -6.491042,-0.24783 c 0.18074,-7.24466 -4.723968,-13.69902 -11.771988,-15.49137 z"
       fill-rule="evenodd"
       id="path43" />
    <path
       fill="#ffffff"
       d="m 82.55591,127.61839 23.95962,-23.95962 4.63473,4.63472 -23.959623,23.95962 z"
       fill-rule="evenodd"
       id="path44" />
    <path
       stroke="#ffffff"
       stroke-width="1.24934"
       stroke-linejoin="round"
       stroke-linecap="butt"
       d="m 82.55591,127.61839 23.95962,-23.95962 4.63473,4.63472 -23.959623,23.95962 z"
       fill-rule="evenodd"
       id="path45" />
    <path
       fill="#ffffff"
       d="m 89.027084,85.41802 v 0 c 11.006946,11.006943 11.006946,28.85272 0,39.85966 l -2.973633,2.97363 v 0 l -1.026588,-1.02658 -1.026581,-1.02658 v 0 l 2.973633,-2.97364 c 9.873009,-9.873 9.873009,-25.880312 0,-35.753312 v 0 z"
       fill-rule="evenodd"
       id="path46" />
    <path
       stroke="#ffffff"
       stroke-width="1.24934"
       stroke-linejoin="round"
       stroke-linecap="butt"
       d="m 89.027084,85.41802 v 0 c 11.006946,11.006943 11.006946,28.85272 0,39.85966 l -2.973633,2.97363 v 0 l -1.026588,-1.02658 -1.026581,-1.02658 v 0 l 2.973633,-2.97364 c 9.873009,-9.873 9.873009,-25.880312 0,-35.753312 v 0 z"
       fill-rule="evenodd"
       id="path47" />
    <path
       fill="#ffffff"
       d="m 89.15805,85.28706 23.60004,23.60004 -1.88598,1.88599 -23.600046,-23.600044 z"
       fill-rule="evenodd"
       id="path48" />
    <path
       stroke="#ffffff"
       stroke-width="1.24934"
       stroke-linejoin="round"
       stroke-linecap="butt"
       d="m 89.15805,85.28706 23.60004,23.60004 -1.88598,1.88599 -23.600046,-23.600044 z"
       fill-rule="evenodd"
       id="path49" />
    <path
       fill="#ffffff"
       d="m 101.50978,145.57227 -1.09395,-2.72009 45.57443,-45.551593 -8.88852,10.325123 -4.42971,4.75799 -5.23483,5.56225 -4.95585,5.61156 -3.08531,3.57517 -3.12745,4.10973 -2.28914,3.10981 -2.97059,4.60858 -2.93152,5.2235 -2.35238,3.81691 z"
       fill-rule="evenodd"
       id="path50" />
    <path
       stroke="#ffffff"
       stroke-width="1.24934"
       stroke-linejoin="round"
       stroke-linecap="butt"
       d="m 101.50978,145.57227 -1.09395,-2.72009 45.57443,-45.551593 -8.88852,10.325123 -4.42971,4.75799 -5.23483,5.56225 -4.95585,5.61156 -3.08531,3.57517 -3.12745,4.10973 -2.28914,3.10981 -2.97059,4.60858 -2.93152,5.2235 -2.35238,3.81691 z"
       fill-rule="evenodd"
       id="path51" />
    <path
       fill="#ffffff"
       d="m 105.69038,109.70072 21.49024,-21.490227 5.88858,5.888588 -21.49022,21.490239 z"
       fill-rule="evenodd"
       id="path52" />
    <path
       stroke="#ffffff"
       stroke-width="1.24934"
       stroke-linejoin="round"
       stroke-linecap="butt"
       d="m 105.69038,109.70072 21.49024,-21.490227 5.88858,5.888588 -21.49022,21.490239 z"
       fill-rule="evenodd"
       id="path53" />
    <path
       fill="#ffffff"
       d="M 107.20043,107.10434 94.747862,119.5569 94.631338,94.535248 Z"
       fill-rule="evenodd"
       id="path54" />
    <path
       stroke="#ffffff"
       stroke-width="1.24934"
       stroke-linejoin="round"
       stroke-linecap="butt"
       d="M 107.20043,107.10434 94.747862,119.5569 94.631338,94.535248 Z"
       fill-rule="evenodd"
       id="path55" />
    <path
       fill="#ffffff"
       d="m 89.29763,126.10617 42.74911,-42.749107 13.94479,13.944786 -42.74911,42.749111 z"
       fill-rule="evenodd"
       id="path56" />
    <path
       stroke="#ffffff"
       stroke-width="1.24934"
       stroke-linejoin="round"
       stroke-linecap="butt"
       d="m 89.29763,126.10617 42.74911,-42.749107 13.94479,13.944786 -42.74911,42.749111 z"
       fill-rule="evenodd"
       id="path57" />
    <path
       fill="#323232"
       d="m 92.73351,90.79576 12.89483,12.89483 -13.561929,10.17599 z"
       fill-rule="evenodd"
       id="path58" />
    <path
       stroke="#323232"
       stroke-width="8.042"
       stroke-miterlimit="8"
       stroke-linecap="round"
       d="m 92.73351,90.79576 12.89483,12.89483 -13.561929,10.17599 z"
       fill-rule="evenodd"
       id="path59" />
    <path
       fill="#ffffff"
       d="m 92.73351,90.79576 12.89483,12.89483 -13.561929,10.17599 z"
       fill-rule="evenodd"
       id="path60" />
    <path
       stroke="#ffffff"
       stroke-width="1.24934"
       stroke-linejoin="round"
       stroke-linecap="butt"
       d="m 92.73351,90.79576 12.89483,12.89483 -13.561929,10.17599 z"
       fill-rule="evenodd"
       id="path61" />
    <path
       fill="#323232"
       d="M 84.90644,132.25548 83.574783,130.92383 110.53187,103.96675 91.243308,84.678178 v 0 l 20.620212,20.620212 z"
       fill-rule="evenodd"
       id="path62" />
    <path
       stroke="#323232"
       stroke-width="3.74803"
       stroke-linejoin="round"
       stroke-linecap="butt"
       d="M 84.90644,132.25548 83.574783,130.92383 110.53187,103.96675 91.243308,84.678178 v 0 l 20.620212,20.620212 z"
       fill-rule="evenodd"
       id="path63" />
    <path
       fill="#ffffff"
       d="m 99.81652,104.025 c -1.499924,-1.49992 -1.5112,-3.92052 -0.02518,-5.406532 0.71361,-0.713616 1.68413,-1.111862 2.69805,-1.107147 1.01393,0.0047 1.9882,0.412033 2.70849,1.132324 1.49993,1.499925 1.5112,3.920515 0.0252,5.406535 -1.48602,1.48602 -3.90662,1.47475 -5.406543,-0.0252 z"
       fill-rule="evenodd"
       id="path64" />
    <path
       stroke="#323232"
       stroke-width="2.49869"
       stroke-miterlimit="8"
       stroke-linecap="round"
       d="m 99.81652,104.025 c -1.499924,-1.49992 -1.5112,-3.92052 -0.02518,-5.406532 0.71361,-0.713616 1.68413,-1.111862 2.69805,-1.107147 1.01393,0.0047 1.9882,0.412033 2.70849,1.132324 1.49993,1.499925 1.5112,3.920515 0.0252,5.406535 -1.48602,1.48602 -3.90662,1.47475 -5.406543,-0.0252 z"
       fill-rule="evenodd"
       id="path65" />
    <path
       fill="#ffffff"
       d="m 100.85759,102.98394 c -0.919586,-0.91959 -0.926498,-2.40361 -0.0154,-3.314667 0.43751,-0.4375 1.03251,-0.681663 1.65413,-0.678772 0.62163,0.0029 1.21894,0.25261 1.66053,0.694214 0.91958,0.919575 0.9265,2.403605 0.0154,3.314655 -0.91106,0.91106 -2.39508,0.90415 -3.31466,-0.0154 z"
       fill-rule="evenodd"
       id="path66" />
    <path
       stroke="#323232"
       stroke-width="2.49869"
       stroke-miterlimit="8"
       stroke-linecap="round"
       d="m 100.85759,102.98394 c -0.919586,-0.91959 -0.926498,-2.40361 -0.0154,-3.314667 0.43751,-0.4375 1.03251,-0.681663 1.65413,-0.678772 0.62163,0.0029 1.21894,0.25261 1.66053,0.694214 0.91958,0.919575 0.9265,2.403605 0.0154,3.314655 -0.91106,0.91106 -2.39508,0.90415 -3.31466,-0.0154 z"
       fill-rule="evenodd"
       id="path67" />
    <path
       fill="#000000"
       fill-opacity="0"
       d="m 100.16338,101.32341 4.68903,0.0218"
       fill-rule="evenodd"
       id="path68" />
    <path
       stroke="#323232"
       stroke-width="2.49869"
       stroke-linejoin="round"
       stroke-linecap="butt"
       d="m 100.16338,101.32341 4.68903,0.0218"
       fill-rule="evenodd"
       id="path69" />
    <path
       fill="#323232"
       d="m 112.56367,116.66167 c -0.59183,-0.59184 -0.59638,-1.54684 -0.0102,-2.13307 0.28151,-0.28151 0.6644,-0.4386 1.06444,-0.43669 0.40002,0.002 0.78442,0.16264 1.06863,0.44685 0.59183,0.59184 0.59638,1.54684 0.0102,2.13307 -0.58623,0.58623 -1.54123,0.58168 -2.13307,-0.0102 z"
       fill-rule="evenodd"
       id="path70" />
    <path
       fill="#323232"
       d="m 104.54868,132.34094 c -0.59183,-0.59184 -0.59638,-1.54684 -0.0102,-2.13307 0.28151,-0.28153 0.6644,-0.4386 1.06443,-0.43671 0.40003,0.002 0.78443,0.16264 1.06864,0.44686 0.59183,0.59184 0.59638,1.54684 0.0101,2.13307 -0.58623,0.58622 -1.54123,0.58168 -2.13307,-0.0102 z"
       fill-rule="evenodd"
       id="path71" />
    <path
       fill="#323232"
       d="m 96.70501,136.80458 c -0.591835,-0.59184 -0.596382,-1.54684 -0.01015,-2.13307 0.28151,-0.28153 0.664398,-0.4386 1.06443,-0.43671 0.400025,0.002 0.784424,0.16264 1.068634,0.44686 0.591843,0.59184 0.59639,1.54684 0.01016,2.13307 -0.586228,0.58622 -1.541237,0.58168 -2.133072,-0.0102 z"
       fill-rule="evenodd"
       id="path72" />
    <path
       fill="#323232"
       d="m 97.195175,132.32863 c -0.591835,-0.59184 -0.59639,-1.54684 -0.01016,-2.13307 0.281517,-0.28153 0.664405,-0.4386 1.064438,-0.43669 0.400024,0.002 0.784423,0.16264 1.068634,0.44684 0.591835,0.59184 0.596382,1.54684 0.01016,2.13307 -0.586227,0.58622 -1.541237,0.58168 -2.133072,-0.0102 z"
       fill-rule="evenodd"
       id="path73" />
    <path
       fill="#ffffff"
       d="m 130.49376,93.00174 c -0.91959,-0.919586 -0.9265,-2.40361 -0.0154,-3.314667 0.4375,-0.4375 1.03251,-0.681663 1.65413,-0.678772 0.62162,0.0029 1.21893,0.25261 1.66053,0.694214 0.91958,0.919579 0.92649,2.403603 0.0154,3.314659 -0.91106,0.911057 -2.39508,0.904144 -3.31465,-0.01543 z"
       fill-rule="evenodd"
       id="path74" />
    <path
       stroke="#323232"
       stroke-width="2.49869"
       stroke-miterlimit="8"
       stroke-linecap="round"
       d="m 130.49376,93.00174 c -0.91959,-0.919586 -0.9265,-2.40361 -0.0154,-3.314667 0.4375,-0.4375 1.03251,-0.681663 1.65413,-0.678772 0.62162,0.0029 1.21893,0.25261 1.66053,0.694214 0.91958,0.919579 0.92649,2.403603 0.0154,3.314659 -0.91106,0.911057 -2.39508,0.904144 -3.31465,-0.01543 z"
       fill-rule="evenodd"
       id="path75" />
    <path
       fill="#000000"
       fill-opacity="0"
       d="m 129.79955,91.34121 4.68904,0.02183"
       fill-rule="evenodd"
       id="path76" />
    <path
       stroke="#323232"
       stroke-width="2.49869"
       stroke-linejoin="round"
       stroke-linecap="butt"
       d="m 129.79955,91.34121 4.68904,0.02183"
       fill-rule="evenodd"
       id="path77" />
    <path
       fill="#323232"
       fill-opacity="0.6045"
       d="m 113.80925,100.33134 2.58339,-2.583389 4.63519,4.635199 -2.58338,2.58338 z"
       fill-rule="evenodd"
       id="path78" />
    <path
       fill="#323232"
       fill-opacity="0.6045"
       d="m 117.56203,96.57856 2.58339,-2.583389 4.63519,4.6352 -2.58338,2.583379 z"
       fill-rule="evenodd"
       id="path79" />
    <path
       fill="#323232"
       fill-opacity="0.6045"
       d="m 121.3146,92.82599 2.58339,-2.583389 4.6352,4.6352 -2.58339,2.583382 z"
       fill-rule="evenodd"
       id="path80" />
    <path
       fill="#323232"
       d="m 122.48627,47.864635 14.12228,-14.122284 13.94622,13.94622 -14.12229,14.122284 z"
       fill-rule="evenodd"
       id="path81" />
    <path
       stroke="#323232"
       stroke-width="8.042"
       stroke-miterlimit="8"
       stroke-linecap="round"
       d="m 122.48627,47.864635 14.12228,-14.122284 13.94622,13.94622 -14.12229,14.122284 z"
       fill-rule="evenodd"
       id="path82" />
    <path
       fill="#323232"
       d="m 94.33459,74.872345 18.04984,-18.049843 15.08725,15.087242 -18.04985,18.049843 z"
       fill-rule="evenodd"
       id="path83" />
    <path
       stroke="#323232"
       stroke-width="8.042"
       stroke-miterlimit="8"
       stroke-linecap="round"
       d="m 94.33459,74.872345 18.04984,-18.049843 15.08725,15.087242 -18.04985,18.049843 z"
       fill-rule="evenodd"
       id="path84" />
    <path
       fill="#323232"
       d="m 112.24751,59.29549 14.12228,-14.122284 12.75103,12.751022 -14.12229,14.122288 z"
       fill-rule="evenodd"
       id="path85" />
    <path
       stroke="#323232"
       stroke-width="8.042"
       stroke-miterlimit="8"
       stroke-linecap="round"
       d="m 112.24751,59.29549 14.12228,-14.122284 12.75103,12.751022 -14.12229,14.122288 z"
       fill-rule="evenodd"
       id="path86" />
    <path
       fill="#ffffff"
       d="m 94.33459,74.872345 18.04984,-18.049843 15.08725,15.087242 -18.04985,18.049843 z"
       fill-rule="evenodd"
       id="path87" />
    <path
       stroke="#ffffff"
       stroke-width="1.24934"
       stroke-linejoin="round"
       stroke-linecap="butt"
       d="m 94.33459,74.872345 18.04984,-18.049843 15.08725,15.087242 -18.04985,18.049843 z"
       fill-rule="evenodd"
       id="path88" />
    <path
       fill="#323232"
       fill-opacity="0.6045"
       d="m 96.79521,78.92978 4.69614,-4.696144 5.43087,5.43087 -4.69615,4.696136 z"
       fill-rule="evenodd"
       id="path89" />
    <path
       fill="#323232"
       d="m 160.67181,43.04428 -3.38838,0.635059 -16.66887,-16.668867 0.63505,-3.388385 z"
       fill-rule="evenodd"
       id="path90" />
    <path
       stroke="#323232"
       stroke-width="8.042"
       stroke-miterlimit="8"
       stroke-linecap="round"
       d="m 160.67181,43.04428 -3.38838,0.635059 -16.66887,-16.668867 0.63505,-3.388385 z"
       fill-rule="evenodd"
       id="path91" />
    <path
       fill="#323232"
       d="m 167.5641,45.095715 c -3.52202,3.522007 -12.72728,0.02705 -20.56055,-7.806217 -7.83325,-7.833263 -11.32821,-17.03853 -7.80621,-20.56054 8.24498,10.370701 17.99605,20.121773 28.36676,28.366756 z"
       fill-rule="evenodd"
       id="path92" />
    <path
       fill="#323232"
       d="m 152.57703,31.71688 c -7.83327,-7.833263 -13.82423,-14.542522 -13.38121,-14.985552 0.21275,-0.212749 1.9111,1.07753 4.72144,3.586992 2.81033,2.509463 6.50245,6.032545 10.26411,9.794212 7.83327,7.833264 13.82423,14.542522 13.38121,14.98555 -0.21275,0.212754 -1.9111,-1.07753 -4.72144,-3.58699 -2.81034,-2.509464 -6.50245,-6.032547 -10.26411,-9.794212 z"
       fill-rule="evenodd"
       id="path93" />
    <path
       fill="#ffffff"
       d="m 112.24751,59.29549 14.12228,-14.122284 12.75103,12.751022 -14.12229,14.122288 z"
       fill-rule="evenodd"
       id="path94" />
    <path
       stroke="#ffffff"
       stroke-width="1.24934"
       stroke-linejoin="round"
       stroke-linecap="butt"
       d="m 112.24751,59.29549 14.12228,-14.122284 12.75103,12.751022 -14.12229,14.122288 z"
       fill-rule="evenodd"
       id="path95" />
    <path
       fill="#ffffff"
       d="m 122.48627,47.864635 14.12228,-14.122284 13.94622,13.94622 -14.12229,14.122284 z"
       fill-rule="evenodd"
       id="path96" />
    <path
       stroke="#ffffff"
       stroke-width="1.24934"
       stroke-linejoin="round"
       stroke-linecap="butt"
       d="m 122.48627,47.864635 14.12228,-14.122284 13.94622,13.94622 -14.12229,14.122284 z"
       fill-rule="evenodd"
       id="path97" />
    <path
       fill="#323232"
       d="m 108.39373,75.90175 c -0.87513,-0.875137 -0.87513,-2.294006 0,-3.169136 l 26.05054,-26.050552 c 0.42026,-0.420254 0.99025,-0.656349 1.58458,-0.656349 0.59432,0 1.16431,0.236095 1.58457,0.656349 v 0 c 0.87512,0.875134 0.87512,2.294003 0,3.169132 L 111.56287,75.90175 c -0.87514,0.87513 -2.29401,0.87513 -3.16914,0 z"
       fill-rule="evenodd"
       id="path98" />
  </g>
</svg>
