<svg width="128.4" height="128.6" xmlns="http://www.w3.org/2000/svg" viewBox="0 0 128.4 128.6"><style>.s1{opacity:.01;fill:#313131}.s2{fill:#fbfbfb}.s3{fill:#fdfdfd}.s4,.s5{opacity:.02;fill:#313231}.s5{opacity:.01}.s6{opacity:0;fill:#303130}.s7{fill:#f8f8f8}.s11{opacity:0;fill:#313231}.s17,.s19{opacity:.01;fill:#303130}.s19{opacity:.02}.s20{fill:#fcfcfc}</style><path fill-rule="evenodd" d="M115.9-.5h.2q5.9 6 11.9 11.8v.5q-.2 0-.2.2v.1l-.2.1-.1.2h-.2l-.1.2-.1.1q-.2 0-.2.2v.1l-.2.1-.1.2h-.2l-.1.2-.1.2h-.2v.2l-.2.1-.1.2h-.2l-.1.2-.1.2h-.2l-.1.2-.1.1-.1.2h-.2l-.1.2-.1.2h-.2l-.1.2-.1.1-.1.2h-.2l-.1.2-.1.2h-.2l-.1.2-.1.1-.1.2h-.2l-.1.2-.1.2h-.2l-.1.2-.1.1-.1.2h-.2l-.1.2-.1.2h-.2l-.1.2-.1.1-.1.2h-.2q-.5-.1-.9-.5-.1-.3-.2 0h-.2l-.1.2-.1.1-.1.2h-.2l-.1.2-.1.1q-.2 0-.2.2l-.1.1-.1.1-.1.2h-.2l-.1.2-.1.1q-.2 0-.2.2l-.1.1-.1.1-.1.2h-.2l-.1.2-.1.1q-.2 0-.2.2l-.1.1-.1.1-.1.2h-.2l-.1.2-.1.1q-.2 0-.2.2l-.1.1-.1.1-.1.2h-.2l-.1.2-.1.1q-.2 0-.2.2l-.1.1-.1.1-.1.2h-.2l-.1.2-.1.1q-.2 0-.2.2l-.1.1-.1.1-.1.2h-.2l-.1.2-.1.1q-.2 0-.2.2l-.1.1-.1.1-.1.2h-.2l-.1.2-.1.1q-.2 0-.2.2l-.1.1-.1.1-.1.2h-.2l-.1.2-.1.1q-.2 0-.2.2l-.1.1-.1.1-.1.2h-.2l-.1.2-.1.1q-.2 0-.2.2l-.1.1-.1.1-.1.2h-.2l-.1.2-.1.1q-.2 0-.2.2l-.1.1-.1.1-.1.2h-.2l-.1.2-.1.1q-.2 0-.2.2l-.1.1-.1.1-.1.2h-.2l-.1.2-.1.1q-.2 0-.2.2l-.1.1-.1.1-.1.2h-.2l-.1.2-.1.1q-.2 0-.2.2l-.1.1-.1.1q-.2 0-.2.2-.2 0-.2.2l-.1.1q-.2 0-.2.2l-.1.1-.1.1q-.2 0-.2.2-.2 0-.2.2l-.1.1q-.2 0-.2.2l-.1.1-.1.1q-.2 0-.2.2-.2 0-.2.2l-.1.1q-.2 0-.2.2l-.1.1-.1.1q-.2 0-.2.2-.2 0-.2.2l-.1.1q-.2 0-.2.2l-.1.1-.1.1q-.2 0-.2.2-.2 0-.2.2l-.1.1q-.2 0-.2.2l-.1.1-.1.1q-.2 0-.2.2-.2 0-.2.2l-.1.1q-.2 0-.2.2l-.1.1-.1.1q-.2 0-.2.2-.2 0-.2.2-.3.2 0 .3.1.4.4.2-1 1.5-2.3 2.6-.1-.3-.2 0l-.5-.1-.1-.2q0-.2-.1 0-.2 0-.2.2l-.1.1-.1.1q-.2 0-.2.2-.2 0-.2.2l-.1.2h-.2l-.1.2-.1.1q-.2 0-.2.2-.2 0-.2.2l-.1.2h-.2l-.1.2-.1.1q-.2 0-.2.2-.2 0-.2.2l-.1.2h-.2l-.1.2-.1.1q-.2 0-.2.2-.2 0-.2.2l-.1.2h-.2l-.1.2-.1.1q-.2 0-.2.2-.2 0-.2.2l-.1.2h-.2l-.1.2-.1.1q-.2 0-.2.2-.2 0-.2.2l-.1.2h-.2l-.1.2-.1.1q-.2 0-.2.2-.2 0-.2.2l-.1.2h-.2l-.1.2-.1.1q-.2 0-.2.2-.2 0-.2.2l-.1.2h-.2l-.1.2-.1.1q-.2 0-.2.2-.2 0-.2.2l-.1.2H90l-.1.2-.1.1q-.2 0-.2.2-.2 0-.2.2l-.1.2H89l-.1.2-.1.1q-.2 0-.2.2-.2 0-.2.2l-.1.2h-.2l-.1.2-.1.1q-.2 0-.2.2-.2 0-.2.2l-.1.2h-.2l-.1.2-.1.1q-.2 0-.2.2-.2 0-.2.2l-.1.2h-.2l-.1.2-.1.1q-.2 0-.2.2-.2 0-.2.2l-.1.2h-.2l-.1.2-.1.1q-.2 0-.2.2-.2 0-.2.2l-.1.2h-.2l-.1.2-.1.1q-.2 0-.2.2-.2 0-.2.2l-.1.2h-.2l-.1.2-.1.1q-.2 0-.2.2-.2 0-.2.2l-.1.2h-.2l-.1.2-.1.1q-.2 0-.2.2-.2 0-.2.2l-.1.2h-.2l-.1.2-.1.1q-.2 0-.2.2-.2 0-.2.2l-.1.2H81l-.1.2-.1.1q-.2 0-.2.2-.2 0-.2.2l-.1.2H80l-.1.2-.1.1q-.2 0-.2.2-.2 0-.2.2l-.1.2h-.2l-.1.2-.1.1q-.2 0-.2.2-.2 0-.2.2l-.1.2h-.2l-.1.2-.1.1q-.2 0-.2.2-.2 0-.2.2l-.1.2h-.2l-.1.2-.1.1q-.2 0-.2.2v.1l-.2.1-.1.2h-.2l-.1.2-.1.1q-.2 0-.2.2v.1l-.2.1-.1.2h-.2l-.1.2-.1.1q-.2 0-.2.2v.1l-.2.1-.1.2h-.2l-.1.2-.1.1q-.2 0-.2.2v.1l-.2.1-.1.2h-.2l-.1.2-.1.1q-.2 0-.2.2v.1l-.2.1q-5.3-5-10.2-10v.1l25.4-25.2q-.5-.6-1-.7-.1-.2 0-.4l2.3-2.3h.5q.3.5.9.7l18.7-18.8q-.2-.2 0-.4-.5-.7-1.2-1 0-.3.2-.5.1.3.3 0v-.1l.2-.1q.2 0 .2-.2v-.1l.2-.1.1-.2h.2v-.2l.2-.1q.2 0 .2-.2l.2-.1.1-.2h.2v-.2l.2-.1q.2 0 .2-.2V4l.2-.1.1-.2h.2v-.2l.2-.1q.2 0 .2-.2v-.1l.2-.1.1-.2h.2v-.2l.2-.1q.2 0 .2-.2v-.1l.2-.1.1-.2h.2v-.2l.2-.1q.2 0 .2-.2v-.1l.2-.1.1-.2h.2V.7l.2-.1q.2 0 .2-.2l.2-.1.1-.2h.2v-.2l.2-.1q.2 0 .2-.2z" style="opacity:.98;fill:#323232"/><path fill-rule="evenodd" d="M115.5-.5h.2v.3h-.2l-.1.2-.2.1-.1.2-.1.1-.1.1q-.2 0-.2.2h-.1l-.1.2-.2.1-.1.2-.1.1-.1.1q-.2 0-.2.2h-.1l-.1.2-.2.1-.1.2-.1.1-.1.1q-.2 0-.2.2h-.1l-.1.2-.2.1-.1.2-.1.1-.1.1q-.2 0-.2.2h-.1l-.1.2-.2.1-.1.2-.1.1-.1.1q-.2 0-.2.2h-.1l-.1.2-.2.1-.1.2-.1.1-.1.1q-.2 0-.2.2h-.1l-.1.2-.2.1-.1.2-.1.1-.1.1q-.2 0-.2.2h-.1l-.1.2h-.3z" class="s1"/><path fill-rule="evenodd" d="M115.9 2.7q4.6 4.3 9 8.9l-4 4-8.9-9z" class="s2"/><path fill-rule="evenodd" d="M110.5 10.8h.2l6.6 6.6-17 17-6.7-6.7z" class="s3"/><path fill-rule="evenodd" d="M128 11.8v.3l-6.6 6.6q-.1.1-.2 0v-.2l.2-.1.1-.1.2-.1V18l.2-.1.1-.1q.2 0 .2-.2l.1-.1.1-.1.2-.1V17l.2-.1.1-.1q.2 0 .2-.2l.1-.1.1-.1.2-.1v-.2l.2-.1.1-.1q.2 0 .2-.2l.1-.1.1-.1.2-.1v-.2l.2-.1.1-.1q.2 0 .2-.2l.1-.1.1-.1.2-.1v-.2l.2-.1.1-.1q.2 0 .2-.2l.1-.1.1-.1.2-.1v-.2l.2-.1.1-.1q.2 0 .2-.2l.1-.1.1-.1q.2 0 .2-.2.2 0 .2-.2l.1-.1q.2 0 .2-.2l.1-.1.1-.1q.2 0 .2-.2" class="s1"/><path fill-rule="evenodd" d="M119.9 18.2h.2l-19 19v-.3l.1-.1.1-.1q.2 0 .2-.2h.1l.1-.2q.2 0 .2-.2.2 0 .2-.2l.1-.1q.2 0 .2-.2h.1l.1-.2q.2 0 .2-.2.2 0 .2-.2l.1-.1q.2 0 .2-.2h.1l.1-.2q.2 0 .2-.2.2 0 .2-.2l.1-.1q.2 0 .2-.2h.1l.1-.2q.2 0 .2-.2.2 0 .2-.2l.1-.1q.2 0 .2-.2h.1l.1-.2q.2 0 .2-.2.2 0 .2-.2l.1-.1q.2 0 .2-.2l.1-.1.1-.1q.2 0 .2-.2.2 0 .2-.2l.1-.1q.2 0 .2-.2l.1-.1.1-.1q.2 0 .2-.2.2 0 .2-.2l.1-.1q.2 0 .2-.2l.1-.1.1-.1q.2 0 .2-.2.2 0 .2-.2l.1-.1q.2 0 .2-.2l.1-.1.1-.1q.2 0 .2-.2.2 0 .2-.2l.1-.1q.2 0 .2-.2l.1-.1.1-.1q.2 0 .2-.2.2 0 .2-.2l.1-.1q.2 0 .2-.2l.1-.1.1-.1q.2 0 .2-.2.2 0 .2-.2l.1-.1q.2 0 .2-.2l.1-.1.1-.1q.2 0 .2-.2.2 0 .2-.2l.1-.1q.2 0 .2-.2l.1-.1.1-.1q.2 0 .2-.2.2 0 .2-.2l.1-.1q.2 0 .2-.2l.1-.1.1-.1q.2 0 .2-.2.2 0 .2-.2l.1-.1q.2 0 .2-.2l.1-.1.1-.1q.2 0 .2-.2.2 0 .2-.2l.1-.1q.2 0 .2-.2l.1-.1.1-.1q.2 0 .2-.2.2 0 .2-.2l.1-.1q.2 0 .2-.2l.1-.1.1-.1q.2 0 .2-.2.2 0 .2-.2l.1-.1q.2 0 .2-.2l.1-.1.1-.1q.2 0 .2-.2.2 0 .2-.2l.1-.1q.2 0 .2-.2l.1-.1.1-.1q.2 0 .2-.2.2 0 .2-.2l.1-.1q.2 0 .2-.2l.1-.1.1-.1.2-.1v-.2l.2-.1.1-.1q.2 0 .2-.2l.1-.1.1-.1z" class="s5"/><path fill-rule="evenodd" d="M121 18.8q0 .1 0 0" class="s6"/><path fill-rule="evenodd" d="M121 19q0 .1-.2 0 0-.1.2 0" class="s1"/><path fill-rule="evenodd" d="M88.9 32.4q3.5 3.2 6.8 6.6L73 61.6 66.6 55q-.2 0 0-.2z" class="s7"/><path fill-rule="evenodd" d="M88.7 34.4q1.8 0 .9 1.5l-20 19.9q-1.7.2-1-1.4z" style="fill:#353535"/><path fill-rule="evenodd" d="M90.7 36.2q1.5 0 .8 1.4l-20 20q-1.7.3-1-1.3z" style="fill:#313131"/><path fill-rule="evenodd" d="M92.3 38q1.8 0 1 1.5L73.4 59.4q-1.1.6-1.4-.7 0-.4.4-.7z" style="fill:#343434"/><path fill-rule="evenodd" d="M99 40h.2q0 .1-.2 0m0 .1q-.1.2-.4.1z" class="s11"/><path fill-rule="evenodd" d="M76.1 68.8q0-.2 0 0l-.2.1-.1.2-.2.1-.1.1-.1.1q-.2 0-.2.2v.1l-.2.1-.1.2-.2.1-.1.1q-.3 0 0 .1l-.1.4 2.4 2.3q0-.2.2 0v3.3l-.2.1q0-.3-.1 0l-.1.1-.2.1-.1.2-.1.1-.2.1v.2l-.2.1-.1.1-.2.1-.1.2-.1.1-.2.1v.2l-.2.1-.1.1-.2.1-.1.2-.1.1-.2.1v.2l-.2.1-.1.1q-.2 0-.2.2l-10.1-10q-.3-.1-.4.2-.3 0 0 .1l10 10v.3q-.2 1.2 0 2.4 0 .2-.2.3-.1-.3-.2 0l-.1.1-.1.2h-.2v.2l-.2.1-.1.2-.2.1-.1.1-.1.2h-.2v.2l-.2.1-.1.2-.2.1-.1.1-.1.2h-.2v.2l-.2.1-.1.2-.2.1-.1.1-.1.2h-.2v.2l-.2.1-.1.2-.2.1-.1.1-.1.2h-.2v.2l-.2.1-.1.2-.2.1-.1.1-.1.2H68v.2l-.2.1-.1.2-.2.1-.1.1-.1.2H67v.2l-.2.1-.1.2-.2.1-.1.1-.1.2h-.2v.2h-2.8l-10-9.9q0-.2-.1 0-.3.1-.2.4.8 1 1.7 1.5l-.3.2q0-.3 0 0l-.2.1-.1.1q-.2 0-.2.2h.1l-.1.2-.2.1v.2l-.2.1-.1.1q-.2 0-.2.2H53l-.1.2-.2.1v.2l-.2.1-.1.1q-.2 0-.2.2h-.1l-.1.2-.2.1v.2l-.2.1-.1.1q-.2 0-.2.2h-.1l-.1.2-.2.1v.2l-.2.1-.1.1q-.2 0-.2.2h-.1l-.1.2-.2.1v.2l-.2.1-.1.1q-.2 0-.2.2h-.1l-.1.2-.2.1v.2l-.2.1-.1.1q-.2 0-.2.2h-.1l-.1.2-.2.1v.2l-.2.1-.1.1q-.2 0-.2.2h-.1l-.1.2-.2.1v.2l-.2.1-.1.1q-.2 0-.2.2h-.1l-.1.2-.2.1v.2l-.2.1-.1.1q-.2 0-.2.2h-.1l-.1.2-.2.1v.2l-.2.1-.1.1q-.2 0-.2.2L42.6 89q-.5-.2-1 0v.1q0 .2.2.2l2.8 2.8q.2.2.3 0l9.4-9.3.4-.1 7 7q.1.3-.2.5 0-.3-.1 0h-.2l-.1.2-.1.1q-.2 0-.2.2v.1l-.2.1q-.2 0-.2.2-.2 0-.2.2l-.1.1q-.2 0-.2.2v.1l-.2.1q-.2 0-.2.2-.2 0-.2.2l-.1.1q-.2 0-.2.2v.1l-.2.1q-.2 0-.2.2-.2 0-.2.2l-.1.1q-.2 0-.2.2v.1l-.2.1q-.2 0-.2.2-.2 0-.2.2l-.1.1q-.2 0-.2.2v.1l-.2.1q-.2 0-.2.2-.2 0-.2.2l-.1.1q-.2 0-.2.2v.1l-.2.1q-.2 0-.2.2-.2 0-.2.2l-.1.1q-.2 0-.2.2v.1l-.2.1q-.2 0-.2.2-.2 0-.2.2l-.1.1q-.2 0-.2.2v.1l-.2.1q-.2 0-.2.2-.2 0-.2.2l-.1.1q-.2 0-.2.2v.1l-.2.1q-.2 0-.2.2-.2 0-.2.2l-.1.1q-.2 0-.2.2v.1l-.2.1q-.2 0-.2.2l-.3.3 1.2 1.2.1-.1q.1.3-.2.4 0-.3-.1 0h-.1q-.2 0-.2.2v.1q-.2 0-.2.2l-.2.1v.1q-.2 0-.2.2H52q-.2 0-.2.2v.1q-.2 0-.2.2l-.2.1v.1q-.2 0-.2.2H51q-.2 0-.2.2v.1q-.2 0-.2.2h-.5l-1-1q0-.2 0 0-.2 0-.2.2l-.1.1q-.2 0-.2.2-.2 0-.2.2l-.1.1q-.2 0-.2.2v.1l-.2.1q-.2 0-.2.2-.2 0-.2.2l-.1.1q-.2 0-.2.2v.1l-.2.1q-.2 0-.2.2-.2 0-.2.2l-.1.1q-.2 0-.2.2v.1l-.2.1q-.2 0-.2.2l-7.3-.1-3.5-3.5 6.7-6.8q-1.4-1.6-3-3.1l-.2.8 2 2.1q0-.2 0 0l-.2.1-.1.2-.1.1-.2.1v.2h-.2q-.2 0-.2.2v.1q-.2 0-.2.2l-.1.1-.2.1v.2H39q-.2 0-.2.2v.1q-.2 0-.2.2l-.1.1-.2.1v.2H38q-.2 0-.2.2v.1q-.2 0-.2.2l-.1.1-.2.1v.2h-.2q-.2 0-.2.2v.1q-.2 0-.2.2l-.1.1-.2.1v.2q-.8-.4-1.3-1l-3.2 3.1-.2 12.8-.2.1q0-.3 0 0l-.2.1-.1.2H31l-.1.2-.1.1q-.2 0-.2.2v.1l-.2.1-.1.2h-.2l-.1.2-.1.1q-.2 0-.2.2v.1l-.2.1-.1.2h-.2l-.1.2-.1.1q-.2 0-.2.2v.1l-.2.1-.1.2h-.2l-.1.2-.1.1q-.2 0-.2.2v.1l-.2.1-.1.2h-.2l-.1.2-.1.1q-.2 0-.2.2v.1l-.2.1-.1.2h-.2l-.1.2-.1.1q-.2 0-.2.2v.1l-.2.1-.1.2h-.2l-.1.2-.1.1q-.2 0-.2.2v.1l-.2.1-.1.2h-.2l-.1.2-.1.1q-.2 0-.2.2v.1l-.2.1-.1.2h-.2l-.1.2-.1.1q-.2 0-.2.2v.1l-.2.1-.1.2H23l-.1.2-.1.1q-.2 0-.2.2v.1l-.2.1-.1.2H22l-.1.2-.1.1q-.2 0-.2.2v.1l-.2.1-.1.2h-.2l-.1.2-.1.1q-.2 0-.2.2v.1l-.2.1-.1.2h-.2l-.1.2-.1.1q-.2 0-.2.2v.1l-.2.1-.1.2h-.2l-.1.2-.1.1q-.2 0-.2.2v.1l-.2.1-.1.2h-.2l-.1.2-.1.1q-.2 0-.2.2v.1l-.2.1-.1.2h-.2l-.1.2H17l-.2-.1-2-1.3q-.2.2-.4 0-.2 0 0-.2-2.4-1.8-4.7-4.3-.2.2-.3-.1 0-.6-.6-1 0 .3-.2 0v-.3q-.3-.3-.7-.4.2-.3 0-.5-.3.2-.4-.1l.1-.2q-.3 0-.6-.4 0-.2-.3-.5l.2-.2q-.2-.2-.5-.2-1.5-2.1-3-4.7-.4-.4-.2-.8l-.4-.1q-.4-.5-.3-1 0-.3-.2 0-1.3-2-1.8-4.2l-.1.3q-.7-1.1-.8-2.3 0 .2-.2.2v-.3q.3-.2 0-.3v-.5l.1-.1q.2 0 .2-.2v-.1l.2-.1.1-.2h.2l.1-.2.1-.1q.2 0 .2-.2v-.1l.2-.1.1-.2h.2l.1-.2.1-.1q.2 0 .2-.2v-.1l.2-.1.1-.2H2l.1-.2.1-.1q.2 0 .2-.2v-.1l.2-.1.1-.2H3l.1-.2.1-.1q.2 0 .2-.2v-.1l.2-.1.1-.2H4l.1-.2.1-.1q.2 0 .2-.2v-.1l.2-.1.1-.2h.2l.1-.2.1-.1q.2 0 .2-.2l.2-.1.1-.2h.2l.1-.2.1-.1q.2 0 .2-.2V98l.2-.1.1-.2h.2l.1-.2.1-.1q.2 0 .2-.2v-.1l.2-.1.1-.2h.2l.1-.2.1-.1q.2 0 .2-.2v-.1l.2-.1.1-.2h.2l.1-.2.1-.1q.2 0 .2-.2v-.1l.2-.1.1-.2h.2l.1-.2.1-.1q.2 0 .2-.2v-.1l.2-.1.1-.2h.2l.1-.2.1-.1q.2 0 .2-.2v-.1l.2-.1.1-.2h.2l.1-.2.1-.1q.2 0 .2-.2v-.1l.2-.1.1-.2h.2l.1-.2.1-.1q.2 0 .2-.2v-.1l.2-.1.1-.2h.2l.1-.2.1-.1q.2 0 .2-.2v-.1l.2-.1.1-.2h.2l.1-.2.1-.1q.2 0 .2-.2l.2-.1.1-.2h.2l.1-.2.1-.1q.2 0 .2-.2V89l.2-.1.1-.2h.2l.1-.2.1-.1q.2 0 .2-.2v-.1l.2-.1.1-.2h.2l.1-.2.1-.1q.2 0 .2-.2v-.1l.2-.1.1-.2h.2l.1-.2.1-.1q.2 0 .2-.2v-.1l.2-.1.1-.2h.2l.1-.2.1-.1q.2 0 .2-.2v-.1l.2-.1.1-.2h.2l.1-.2q1.3-.2 2.7-.2l2.6-2.6q.2-.2 0-.3l-.2-.1v-.2h-.2l-.1-.2-.2-.1-.1-.2-.1-.1-.2-.1v-.2h-.2l-.1-.2-.2-.1-.1-.2-.1-.1-.2-.1v-.2h-.2l-.1-.2-.2-.1-.1-.2-.1-.1-.2-.1v-.2h-.2l-.1-.2q0-.2-.2-.2h-.1l-.1-.2-.2-.1v-.2h-.2l-.1-.2q0-.2-.2-.2h-.1l-.1-.2-.2-.1q-.1-.2-.3-.2-.1-.3.2-.5 0 .3.1 0l.2-.1.1-.1.1-.2h.2v-.2q.2 0 .2-.2h.1q.2 0 .2-.2l.1-.1.1-.2h.2V75q.2 0 .2-.2.3 0 0 0l-.3-.6v-1.7q.6-.2 1-.8h1.9q.4.6.8-.1 2.6 0 5.2-.3l-1.5-.1L30 71l4.8-4.9.2-1.9V66q.4-2.5.1-5l.6-.4v-.1q.2 0 .2-.2h.1l.6-.6v-.1q.2 0 .2-.2h.1l.6-.6v-.1q.5-.3.9-.8v.1q.4-.2.6-.5l.1-.2q.5-.3.8-.7l.1-.2.6-.5q3.5 3.6 7 6.8-.2.1 0 .2-3 2.7-6 5.9l-.2.1v.1q-.2 0-.2.2l-.1.1-.2.1v.1Q36 74.1 31.3 79l.2.2q.2.3.3 0l.1-.1q.2 0 .2-.2.2 0 .2-.2l.1-.2h.2l.1-.2.1-.1q.2 0 .2-.2.2 0 .2-.2l.1-.2h.2l.1-.2.1-.1q.2 0 .2-.2.2 0 .2-.2l.1-.2h.2l.1-.2.1-.1q.2 0 .2-.2.2 0 .2-.2l.1-.2h.2l.1-.2.1-.1q.2 0 .2-.2.2 0 .2-.2l.1-.2h.2l.1-.2.1-.1q.2 0 .2-.2.2 0 .2-.2l.1-.2h.2l.1-.2.1-.1q.2 0 .2-.2.2 0 .2-.2l.1-.2h.2l.1-.2.1-.1q.2 0 .2-.2.2 0 .2-.2l.1-.2h.2l.1-.2.1-.1q.2 0 .2-.2.2 0 .2-.2l.1-.2h.2l.1-.2.1-.1q.2 0 .2-.2.2 0 .2-.2l.1-.2h.2l.1-.2.1-.1q.2 0 .2-.2h.6q.7.6 1.2 1.3l-.3.3q0-.3-.1 0l-.2.1v.1q-.2 0-.2.2l-.1.1-.2.1v.1q-.2 0-.2.2l-.2.1v.1q-.2 0-.2.2l-.1.1-.2.1v.1q-.2 0-.2.2l-.2.1v.1q-.2 0-.2.2l-.1.1-.2.1v.1q-.2 0-.2.2l-.2.1v.1q-.2 0-.2.2l-.1.1-.2.1v.1q-.2 0-.2.2l-.2.1v.1q-.2 0-.2.2l-.1.1-.2.1v.1q-.2 0-.2.2l-.2.1v.1q-.2 0-.2.2l-.1.1-.2.1v.1q-.2 0-.2.2l-.2.1v.1q-.2 0-.2.2l-.1.1-.2.1v.1q-.2 0-.2.2l-.2.1v.1q-.2 0-.2.2l-.1.1-.2.1v.1q-.2 0-.2.2l-.2.1v.1q-.2 0-.2.2l-.1.1-.2.1v.2h-.2q-.2 0-.2.2v.1q-.2 0-.2.2l-.1.1-.2.1v.2h-.2q-.2 0-.2.2l-.2.2.6.6 16.5-16.6-9.2-9.3q.3-.2.4-.5l.2-.1.1-.1.1-.2q.4-.2.5-.5l.2-.1.2-.1 2.6 2.5 4.4-4.2 2 2q1.4-1.6 3-3l2.3 2.1q1-.8 1.9-1.8l17 17q.2-.1.4.2-.1.2-.3.2m-29.8-4.5q0 .2.3.1l-.6.4.3.1.3.4h-.3q-.3-.6-.6 0h-.3q.4-.6 1-1m.2 1 .6.7H47q0-.3-.3-.4zm-16 18.2.4.4-2 1.7v-.4zm12 5.4-.8.1-.2-.1q.6-.2 1 0" style="opacity:.97;fill:#323232"/><path fill-rule="evenodd" d="M98.3 39.8h.2l-25 25h-.2v-.1l.1-.1q.2 0 .2-.2h.1l.1-.2.1-.1q.2 0 .2-.2l.1-.1.1-.1q.2 0 .2-.2h.1l.1-.2.1-.1q.2 0 .2-.2l.1-.1.1-.1q.2 0 .2-.2h.1l.1-.2.1-.1q.2 0 .2-.2l.1-.1.1-.1q.2 0 .2-.2h.1l.1-.2.1-.2h.2l.1-.2.1-.1q.2 0 .2-.2h.1l.1-.2.1-.2h.2l.1-.2.1-.1q.2 0 .2-.2h.1l.1-.2.1-.2h.2l.1-.2.1-.1q.2 0 .2-.2h.1l.1-.2q.2 0 .2-.2.2 0 .2-.2l.1-.1q.2 0 .2-.2h.1l.1-.2q.2 0 .2-.2.2 0 .2-.2l.1-.1q.2 0 .2-.2h.1l.1-.2q.2 0 .2-.2.2 0 .2-.2l.1-.1q.2 0 .2-.2h.1l.1-.2q.2 0 .2-.2.2 0 .2-.2l.1-.1q.2 0 .2-.2h.1l.1-.2q.2 0 .2-.2.2 0 .2-.2l.1-.1q.2 0 .2-.2h.1l.1-.2q.2 0 .2-.2.2 0 .2-.2l.1-.1q.2 0 .2-.2h.1l.1-.2q.2 0 .2-.2.2 0 .2-.2l.1-.1q.2 0 .2-.2h.1l.1-.2q.2 0 .2-.2.2 0 .2-.2l.1-.1q.2 0 .2-.2h.1l.1-.2q.2 0 .2-.2.2 0 .2-.2l.1-.1q.2 0 .2-.2h.1l.1-.2q.2 0 .2-.2.2 0 .2-.2l.1-.1q.2 0 .2-.2h.1l.1-.2q.2 0 .2-.2.2 0 .2-.2l.1-.1q.2 0 .2-.2h.1l.1-.2q.2 0 .2-.2.2 0 .2-.2l.1-.1q.2 0 .2-.2h.1l.1-.2q.2 0 .2-.2.2 0 .2-.2l.1-.1q.2 0 .2-.2h.1l.1-.2q.2 0 .2-.2.2 0 .2-.2l.1-.1q.2 0 .2-.2h.1l.1-.2q.2 0 .2-.2.2 0 .2-.2l.1-.1q.2 0 .2-.2h.1l.1-.2q.2 0 .2-.2.2 0 .2-.2l.1-.1q.2 0 .2-.2h.1l.1-.2q.2 0 .2-.2.2 0 .2-.2l.1-.1q.2 0 .2-.2h.1l.1-.2q.2 0 .2-.2.2 0 .2-.2l.1-.1q.2 0 .2-.2h.1l.1-.2q.2 0 .2-.2.2 0 .2-.2l.1-.1q.2 0 .2-.2h.1l.1-.2q.2 0 .2-.2.2 0 .2-.2l.1-.1q.2 0 .2-.2h.1l.1-.2q.2 0 .2-.2.2 0 .2-.2l.1-.1q.2 0 .2-.2h.1l.1-.2q.2 0 .2-.2" class="s1"/><path fill-rule="evenodd" d="m42.6 53.9-.2.1q0-.2.2 0m-.7.6v.2h-.2q0-.4.2-.2" class="s5"/><path fill-rule="evenodd" d="M54.7 54.4q10 9.7 19.8 19.7.2.6 0 1.1-.4.6-1 .7l-10-10-13.8 14 1.4 1.4q.2.1 0 .2-3 3.3-6.3 6.3l-1.3-1.2h-2.8q-.4.6-1 .7L35.3 83q7.5-7.7 15.2-15.3.5 0 .9.5.1.2.3 0l3-3-7.5-7.4 2.5-2.4 2 2z" class="s3"/><path fill-rule="evenodd" d="M41.7 54.7q-.2 0-.2.2-.2-.2.2-.2M40 56.3v.2q-.2 0-.2-.2.1-.2.2 0" class="s5"/><path fill-rule="evenodd" d="M29.2 56.7q.3.1 0 0" style="opacity:0;fill:#323332"/><path fill-rule="evenodd" d="M34.7 62.4q-.2 1.8 0 3.6-2 2.4-4.5 4.6 0-.2-.1 0h-3.9l-5-5.1q-.2.2-.4-.1l.1-.4 8-8q.2.2.4 0z" style="opacity:.93;fill:#323232"/><path fill-rule="evenodd" d="M39.2 57.2v.2q-.2 0-.2-.2.1-.2.2 0m-.6.7-.1.1-.2-.1q.2-.3.3 0m-1 .9v.1l-.2-.1q.2-.3.3 0m-.7.6v.2h-.2q0-.4.2-.2" class="s5"/><path fill-rule="evenodd" d="M40.5 59.2h.4l3.3 3.3q.1.2 0 .4L29.9 77.2q-.2.2-.3 0L26.2 74l5-.3 6.3-6.3q0-2.7.3-5.3z" class="s7"/><path fill-rule="evenodd" d="m36.8 59.6-.1.2q-.3-.2 0-.2m-.6.7v.2h-.2q0-.4.2-.2" class="s5"/><path fill-rule="evenodd" d="M29 60.3q1.7 1.3 3.1 2.9v2l-3 3q-1 .2-2 0l-2.8-3z" class="s2"/><path fill-rule="evenodd" d="m35.9 60.5-.1.2q-.3-.2 0-.2" class="s5"/><path fill-rule="evenodd" d="m35.3 61.1-.1 2.8q-.2-1.4 0-2.8" class="s1"/><path fill-rule="evenodd" d="M34.7 62.4q.3 1.8 0 3.6z" class="s11"/><path fill-rule="evenodd" d="M47.7 62.6q.3.2 0 0m0 .7-.1.1-.1.1q-.2 0-.2.2v.1l-.2.1q-.2 0-.2.2-.2 0-.2.2l-.1.1h-.3l1.2-1.2q.1-.1.2 0" class="s5"/><path fill-rule="evenodd" d="M49.4 64.7q0-.3-.1 0l-.2.1v.2h-.2q-.2 0-.2.2v.1q-.2 0-.2.2l-.1.1-.2.1v.1q-.2 0-.2.2l-.2.1q-.8-.5-1.4-1.3-.1 0 0 .1l-.4-.1.6-.4q.2 0 .2-.2l.1-.2h.2l.1-.2.1-.1q.2 0 .2-.2.2 0 .2-.2.2-.2.4 0 .7.8 1.5 1.2z" style="opacity:.84;fill:#313231"/><path fill-rule="evenodd" d="M49.3 64.7q0 .1 0 0m-.2.1h.2q0 .2-.2 0" class="s5"/><path fill-rule="evenodd" d="M73.2 64.8q0 .1-.1 0" class="s11"/><path fill-rule="evenodd" d="M49 65h.1m24 0q0 .2-.2 0zm-24.3 0h.1q0 .2-.1 0" class="s5"/><path fill-rule="evenodd" d="M45.4 65.2h.3q.3 0 .6.3l.1.1.5.5.2.1q0 .3.1 0 .6.3.1.5 0-.2 0 0-.2 0-.2.2l-.2.1v.1q-.2 0-.2.2l-.1.1-.2.1v.1q-.2 0-.2.2l-.2.1v.1q-.2 0-.2.2l-.1.1-.2.1v.1q-.2 0-.2.2l-.2.1v.1q-.2 0-.2.2l-.1.1-.2.1v.1q-.2 0-.2.2l-.2.1v.1q-.2 0-.2.2l-.1.1-.2.1v.1q-.2 0-.2.2-1.1-.4-1.7-1.4 1.7-2 3.6-3.9" style="opacity:.82;fill:#313131"/><path fill-rule="evenodd" d="M48.8 65.2q0 .1 0 0m-2.5.3v-.2h.3v.3zm2.2-.2h.2q0 .2-.2 0m-.1.2h.1q0 .1-.1 0m-.1.1q0 .1 0 0m-.2.1h.2q0 .2-.2 0m-1.3.4h.3v.2H47m1-.2h.2q0 .1-.1 0" class="s5"/><path fill-rule="evenodd" d="M47.9 66.1q0 .1 0 0" class="s11"/><path fill-rule="evenodd" d="M47.9 66.2q-.1.2-.3.1zm-.7.4q0 .2 0 0m-.2.2q0 .1-.1 0m-.2.1h.2q0 .1-.2 0m0 .1q0 .2 0 0m-.2.2q0 .1-.1 0m-.1.1q0 .1 0 0m-.2.1h.2q0 .1-.2 0m0 .1q0 .2 0 0m-.2.2q0 .1-.1 0m-.2.1h.2q0 .1-.2 0m0 .1q0 .2 0 0m-.2.2q0 .1-.1 0m-.1.1q0 .1 0 0m-.2.1h.2q0 .1-.2 0m0 .1q0 .2 0 0" class="s5"/><path fill-rule="evenodd" d="M41.7 68.7q.2.1 0 0" class="s4"/><path fill-rule="evenodd" d="M45.3 68.7h.1q0 .1-.1 0" class="s5"/><path fill-rule="evenodd" d="M41.6 68.8q0 .1 0 0" class="s4"/><path fill-rule="evenodd" d="M45.2 68.8q0 .1 0 0m30.8 0q0 .1 0 0" class="s5"/><path fill-rule="evenodd" d="M41.4 69h.2z" class="s4"/><path fill-rule="evenodd" d="M45 69h.2z" class="s5"/><path fill-rule="evenodd" d="M41.3 69h.1q0 .2-.1 0" class="s4"/><path fill-rule="evenodd" d="M44.9 69h.1q0 .2-.1 0" class="s5"/><path fill-rule="evenodd" d="M75.8 69q0 .2 0 0m-34.6.2q0 .1 0 0" class="s4"/><path fill-rule="evenodd" d="M44.8 69.2q0 .1 0 0" class="s5"/><path fill-rule="evenodd" d="M75.6 69.2h.2q0 .1-.2 0m-34.6.1h.2q0 .2-.2 0" class="s4"/><path fill-rule="evenodd" d="M44.6 69.3h.2q0 .1-.2 0" class="s5"/><path fill-rule="evenodd" d="M75.5 69.3q0 .1-.1 0m-34.6.1h.1q0 .2 0 0" class="s4"/><path fill-rule="evenodd" d="M41.3 69.5q.3 0 0 0m3.2 0h.1m-.2.1h.1q0 .1-.1 0" class="s5"/><path fill-rule="evenodd" d="M63.3 69.6q.2.1 0 0" class="s17"/><path fill-rule="evenodd" d="M75.2 69.6h.2q0 .1-.2 0" class="s4"/><path fill-rule="evenodd" d="M41.2 69.8q-.2 0-.2.2v.1l-.2.1-.2.1v.2l-.2.1-.1.1q-.2 0-.2.2v.1l-.2.1-.2.1v.2l-.2.1-.1.1q-.2 0-.2.2v.1l-.2.1-.2.1v.2l-.2.1-.1.1q-.2 0-.2.2v.1l-.2.1-.2.1v.2l-.2.1-.1.1q-.2 0-.2.2v.1l-.2.1-.2.1v.2l-.2.1-.1.1q-.2 0-.2.2v.1l-.2.1-.2.1v.2l-.2.1-.1.1q-.2 0-.2.2v.1l-.2.1-.2.1v.2l-.2.1-.1.1q-.2 0-.2.2v.1l-.2.1-.2.1v.2l-.2.1-.1.1q-.2 0-.2.2v.1l-.2.1-.2.1v.2l-.2.1-.1.1q-.2 0-.2.2v.1l-.2.1-.2.1v.2l-.2.1-.1.1q-.2 0-.2.2l-.1.1h-.3l9.3-9.3q.2-.2.3 0m3 0h.2z" class="s5"/><path fill-rule="evenodd" d="M75.1 69.7q0 .1 0 0" class="s4"/><path fill-rule="evenodd" d="M44.1 69.8h.1q0 .2 0 0" class="s5"/><path fill-rule="evenodd" d="M75 69.8q0 .2-.1 0" class="s4"/><path fill-rule="evenodd" d="M44 70h.1q0 .1-.1 0" class="s17"/><path fill-rule="evenodd" d="M74.9 70q0 .1 0 0" class="s4"/><path fill-rule="evenodd" d="M43.9 70.1q0 .1 0 0" class="s17"/><path fill-rule="evenodd" d="M74.7 70.1h.2q0 .1-.2 0" class="s4"/><path fill-rule="evenodd" d="M43.7 70.2h.2q0 .2-.2 0" class="s17"/><path fill-rule="evenodd" d="M74.6 70.2q0 .2-.1 0" class="s4"/><path fill-rule="evenodd" d="M43.6 70.4h.1" class="s5"/><path fill-rule="evenodd" d="M43.5 70.5h.1q0 .1-.1 0m-13.4.1h.1q0 .1-.1 0m13.4 0q-.2.1 0 0" class="s6"/><path fill-rule="evenodd" d="M30.1 70.7q-1.9.3-3.8.1z" class="s1"/><path fill-rule="evenodd" d="M25 71.4q1.7-.2 3.6 0zm17.6 0h.1q0 .1-.1 0m-.2.1h.2q0 .1-.2 0" class="s5"/><path fill-rule="evenodd" d="M61.2 71.4q4.8 4.6 9.5 9.4v.9L65.3 87h-.9L55 77.6q3.2-3 6.2-6.2" class="s3"/><path fill-rule="evenodd" d="M42.3 71.6h.2q0 .2-.2 0m-.1.2q0 .1-.1 0m-.1.1q0 .1 0 0m-.2.1h.2q0 .1-.2 0m0 .1q0 .2 0 0m-.2.2q0 .1-.1 0m-.2.1h.2q0 .1-.2 0m0 .1q0 .2 0 0m-.2.2q0 .1-.1 0m-.1.1q0 .1 0 0m-.2.1h.2q0 .1-.2 0m0 .1q0 .2 0 0m-.2.2q0 .1-.1 0m-.2.1h.2q0 .1-.2 0m0 .1q0 .2 0 0m-.2.2q0 .1-.1 0m-.1.1q0 .1 0 0m-.2.1h.2q0 .1-.2 0m0 .1q0 .2 0 0m-.2.2q0 .1-.1 0m-.2.1h.2q0 .1-.2 0m0 .1q0 .2 0 0m-.2.2q0 .1-.1 0m-.1.1q0 .1 0 0m-17.8.1-.1.2-.1.1h-.2q0-.4.4-.4m17.6 0h.2q0 .2-.2 0m0 .1q0 .2 0 0m-.2.2q0 .1-.1 0" class="s5"/><path fill-rule="evenodd" d="m21.2 75.1-.1.2H21q0-.3.2-.3" class="s1"/><path fill-rule="evenodd" d="M38.9 75.1q0 .1 0 0m-.2.1q0 .2 0 0" class="s5"/><path fill-rule="evenodd" d="m21 75.4-.2.1q0-.2.2-.2" class="s17"/><path fill-rule="evenodd" d="M38.6 75.4h.1q0 .1-.1 0m-.1.1q0 .1 0 0m-17.8.1v.2h-.1l-.1.2h-.2q0-.4.4-.4m17.6 0h.2q0 .2-.2 0m-.2.2q0 .2-.1 0m-17.8.2-.1.2H20q0-.3.2-.3M38 76q0 .1 0 0m-.2.1h.2q0 .2-.2 0" class="s5"/><path fill-rule="evenodd" d="M20 76.3h-.2q0-.2.3-.2" class="s17"/><path fill-rule="evenodd" d="M37.7 76.3h.1q0 .1-.1 0" class="s5"/><path fill-rule="evenodd" d="M23.4 76.3q2 1.6 3.7 3.4 0 .7-.7.6L23 77q-.1-.2 0-.4z" style="fill:#f5f4f5"/><path fill-rule="evenodd" d="M37.6 76.4q0 .1 0 0m39.2 0h.1q0 .1-.1 0m-39.4.1h.2q0 .2-.2 0m39.3 0q0 .2 0 0m-39.4.2h.1" class="s5"/><path fill-rule="evenodd" d="M76.5 76.7h.2z" class="s17"/><path fill-rule="evenodd" d="M37.2 76.8h.1q0 .1-.1 0" class="s5"/><path fill-rule="evenodd" d="M76.4 76.8q0 .1-.1 0" class="s17"/><path fill-rule="evenodd" d="M37 77h.2zm0 0q0 .2 0 0" class="s5"/><path fill-rule="evenodd" d="M76.1 77h.2q0 .2-.2 0" class="s17"/><path fill-rule="evenodd" d="M36.8 77.2h.1q0 .1-.1 0" class="s5"/><path fill-rule="evenodd" d="M76 77.2q0 .1 0 0" class="s17"/><path fill-rule="evenodd" d="M36.7 77.3q0 .1 0 0" class="s5"/><path fill-rule="evenodd" d="M75.9 77.3q0 .1-.1 0" class="s17"/><path fill-rule="evenodd" d="m20 77.2.2.1.1.1q.2 0 .2.2v.1l.2.1.1.2.2.1.1.1.1.1q.2 0 .2.2v.1l.2.1.1.2.2.1.1.1.1.2h.2v.2l.2.1.1.2.2.1.1.1.1.2h.2v.2l.2.1.1.2.2.1.1.1.1.2h.2v.2l.2.1.1.2.2.1v.3l-5-4.9z" class="s1"/><path fill-rule="evenodd" d="M36.5 77.4h.2q0 .2-.2 0" class="s5"/><path fill-rule="evenodd" d="M75.8 77.4q0 .2 0 0" class="s17"/><path fill-rule="evenodd" d="M36.4 77.6h.1" class="s5"/><path fill-rule="evenodd" d="M75.6 77.6h.2z" class="s17"/><path fill-rule="evenodd" d="M36.3 77.7h.1q0 .1-.1 0m39.2 0q0 .1-.1 0m-39.3.1q0 .1 0 0m39.2 0q0 .1-.1 0M36 78h.2q0 .2-.2 0m39.2 0h.2q0 .2-.2 0m-39.3.2h.1q0 .1-.1 0M75 78q0 .1 0 0m-39.4.1q0 .1 0 0m39.2 0q0 .1-.1 0m-39.4.1h.2q0 .2-.2 0m39.3 0q0 .2 0 0m-39.4.1h.1q0 .2 0 0m39.1 0h.2q0 .2-.2 0m-39.3.2h.1q0 .1-.1 0m39.2 0h.1q0 .1-.1 0m-39.3.1q0 .1 0 0m39.2 0h.1q0 .1-.1 0m-39.4.1h.2q0 .2-.2 0m39.2 0h.2q0 .2-.2 0M35 79h.1q0 .1-.1 0m39.2 0q0 .1 0 0m-39.4.1q0 .1 0 0m39.2 0q0 .1-.1 0m-39.4.1h.2q0 .2-.2 0m39.3 0q0 .2 0 0m-39.4.2h.1" class="s5"/><path fill-rule="evenodd" d="M73.8 79.4h.2z" class="s11"/><path fill-rule="evenodd" d="M34.5 79.5h.1q0 .1-.1 0" class="s5"/><path fill-rule="evenodd" d="M73.8 79.5q0 .2-.2 0z" class="s11"/><path fill-rule="evenodd" d="M34.4 79.6q0 .1 0 0m18.9 0q0 .1 0 0m-19 .1q0 .2 0 0m-.2.2q0 .1-.1 0m-.1.1q0 .1 0 0" class="s5"/><path fill-rule="evenodd" d="M73.3 80q.3 1.2 0 2.4z" class="s11"/><path fill-rule="evenodd" d="M33.8 80.1h.2q0 .2-.2 0m-.2.2q0 .2-.1 0m-.2.2h.2q0 .1-.2 0m-4.7 1.2h.2l.2.1v.1q-.2 0-.2.2-.2 0-.2.2l-.1.1q-.2 0-.2.2l-.1.1-.1.1-.1.2h-.2l-.1.2-.1.1q-.2 0-.2.2l-.1.1-.1.1-.1.2H27l-.1-.2v-.2l.2.1 1.7-1.7zm25.7 0q0 .1 0 0" class="s5"/><path fill-rule="evenodd" d="M54.3 81.8h.1q0 .1-.1 0m-.1.1q0 .2 0 0m-.2.2" class="s19"/><path fill-rule="evenodd" d="M53.9 82.2h.1q0 .1-.1 0m-.1.1q0 .1 0 0m-.2.1h.2q0 .2-.2 0" class="s4"/><path fill-rule="evenodd" d="M54.3 82.6q0-.2.2 0z" class="s17"/><path fill-rule="evenodd" d="M53.5 82.6h.1q0 .1 0 0m-.2.1h.1q0 .1-.1 0m19.5 0q0 .1 0 0" class="s4"/><path fill-rule="evenodd" d="M53.3 82.8q0 .2 0 0" class="s19"/><path fill-rule="evenodd" d="M72.8 82.8q0 .2-.1 0" class="s4"/><path fill-rule="evenodd" d="M53.1 83h.1m-.2 0h.1q0 .2-.1 0" class="s19"/><path fill-rule="evenodd" d="M72.5 83h.2q0 .2-.2 0m-19.6.2q0 .1 0 0m19.5 0q0 .1 0 0m-19.8.1h.2q0 .2-.2 0m19.6 0h.1q0 .2-.1 0" class="s4"/><path fill-rule="evenodd" d="M30.5 83.6h.2l.2.1.1.1v.3h-.1q-.1-.3-.4-.4" class="s5"/><path fill-rule="evenodd" d="M52.6 83.5h.1q0 .1 0 0m19.4 0h.2q0 .1-.1 0m-19.7.1h.1q0 .1-.1 0m19.5 0h.2q0 .1-.2 0m-19.6.1q0 .2 0 0m19.5 0q0 .2-.1 0m-19.7.2h.2zm19.6 0h.1zm-19.7 0h.1q0 .2-.1 0m19.5 0h.2q0 .2-.2 0m-19.6.2q0 .1 0 0m19.5 0q0 .1 0 0m-19.8.1h.2q0 .2-.2 0m19.6 0q0 .2-.1 0" class="s4"/><path fill-rule="evenodd" d="M51.7 84.4h.1q0 .1 0 0" class="s19"/><path fill-rule="evenodd" d="M71.3 84.4q0 .1 0 0" class="s4"/><path fill-rule="evenodd" d="M51.6 84.5h.1q0 .1-.1 0" class="s19"/><path fill-rule="evenodd" d="M71.1 84.5h.2q0 .1-.2 0" class="s4"/><path fill-rule="evenodd" d="M51.5 84.6q0 .2 0 0" class="s19"/><path fill-rule="evenodd" d="M71 84.6q0 .2-.1 0m-19.7.2h.2zm19.6 0" class="s4"/><path fill-rule="evenodd" d="M51.2 84.9h.1q0 .1-.1 0" class="s19"/><path fill-rule="evenodd" d="M70.7 84.9h.2q0 .1-.2 0" class="s4"/><path fill-rule="evenodd" d="M51 85h.2q0 .1-.1 0" class="s19"/><path fill-rule="evenodd" d="M70.6 85q0 .1 0 0" class="s4"/><path fill-rule="evenodd" d="M51 85.1q0 .2 0 0" class="s19"/><path fill-rule="evenodd" d="M70.5 85.1q0 .2-.1 0" class="s4"/><path fill-rule="evenodd" d="M28.7 85.3h.1l.1.4q0-.2-.2-.2z" class="s5"/><path fill-rule="evenodd" d="M50.8 85.3h.1q0 .1 0 0m19.5 0q0 .1 0 0m-19.7.1h.1q0 .1-.1 0m19.5 0q0 .1 0 0" class="s4"/><path fill-rule="evenodd" d="M32.7 85.5h.2l4.4 4.4-1 1v2.9q.6.4 1 1-.3.7-1 1l-6.8-6.7q-.1-.2 0-.4z" class="s20"/><path fill-rule="evenodd" d="M50.6 85.5q0 .2 0 0m19.5 0q0 .2-.1 0m-19.9.2q0 .2-.1 0m19.5 0h.2q0 .2-.2 0m-19.6.2q0 .1 0 0m19.5 0q0 .1 0 0M50 86h.2q0 .2-.2 0" class="s4"/><path fill-rule="evenodd" d="m54.3 86 4 3.8L45 103.1h-5.2l-1.1-1.1q-.2-.1 0-.3z" style="fill:#fefefe"/><path fill-rule="evenodd" d="M69.6 86q0 .2-.1 0m-19.7.2q0 .1 0 0m19.4 0h.2q0 .1-.2 0m-19.6.1q0 .1-.1 0m19.5 0q0 .1 0 0" class="s4"/><path fill-rule="evenodd" d="M49.7 86.4q0 .2 0 0" class="s19"/><path fill-rule="evenodd" d="M69.2 86.4q0 .2-.1 0" class="s4"/><path fill-rule="evenodd" d="M49.5 86.6h.2z" class="s19"/><path fill-rule="evenodd" d="M69 86.6h.2z" class="s4"/><path fill-rule="evenodd" d="M49.4 86.7h.1q0 .1-.1 0" class="s19"/><path fill-rule="evenodd" d="M69 86.7q0 .1 0 0m-19.7.1q0 .1 0 0m19.5 0q0 .1 0 0" class="s4"/><path fill-rule="evenodd" d="M49.1 87h.2zm-.1 0h.1q0 .2 0 0" class="s19"/><path fill-rule="evenodd" d="M68.6 87q0 .2 0 0" class="s4"/><path fill-rule="evenodd" d="M20.2 87.2H23l9.7 9.8-3.3 3.3-.2 12.9-8.3 8.2-15.1-19.7z" class="s3"/><path fill-rule="evenodd" d="M48.9 87.2h.1q0 .1-.1 0" class="s19"/><path fill-rule="evenodd" d="M68.4 87.2q0 .1 0 0m-19.7.1q0 .2 0 0m19.5 0q0 .2-.1 0m-19.9.2q0 .2-.1 0m19.5 0h.2q0 .2-.2 0m-19.6.2q0 .1 0 0m19.5 0q0 .1 0 0m-19.8.1h.2q0 .2-.2 0m19.6 0q0 .2-.1 0" class="s4"/><path fill-rule="evenodd" d="M48.1 88h.1q0 .1 0 0" class="s19"/><path fill-rule="evenodd" d="M67.7 88q0 .1 0 0" class="s4"/><path fill-rule="evenodd" d="M48 88.1h.1q0 .1-.1 0" class="s19"/><path fill-rule="evenodd" d="M67.5 88.1q0 .1 0 0" class="s4"/><path fill-rule="evenodd" d="M47.9 88.2q0 .2 0 0" class="s19"/><path fill-rule="evenodd" d="M67.4 88.2q0 .2-.1 0m-19.7.2h.2zm19.6 0h.1z" class="s4"/><path fill-rule="evenodd" d="M47.6 88.5h.1q0 .1-.1 0" class="s19"/><path fill-rule="evenodd" d="M67.1 88.5h.2q0 .1-.2 0" class="s4"/><path fill-rule="evenodd" d="M47.5 88.6q0 .1 0 0" class="s19"/><path fill-rule="evenodd" d="M67 88.6q0 .1 0 0" class="s4"/><path fill-rule="evenodd" d="M47.3 88.7h.2q0 .2-.2 0" class="s19"/><path fill-rule="evenodd" d="M66.9 88.7q0 .2-.1 0m-19.7.2h.1q0 .1 0 0m19.4 0h.2q0 .1-.2 0" class="s4"/><path fill-rule="evenodd" d="M41.7 89.1q.4-.2.9-.1l-.8.3z" class="s5"/><path fill-rule="evenodd" d="M47 89h.2q0 .1-.1 0m19.5 0h.2q0 .1-.2 0m-19.6.1q0 .2 0 0m19.5 0q0 .2-.1 0m-19.7.2h.2zm-.1 0h.1q0 .2-.1 0" class="s4"/><path fill-rule="evenodd" d="M66.2 89.4h.2q0 .1-.2 0" class="s5"/><path fill-rule="evenodd" d="M46.6 89.5q0 .1 0 0" class="s4"/><path fill-rule="evenodd" d="M66.1 89.5q0 .1 0 0" class="s5"/><path fill-rule="evenodd" d="M46.4 89.6h.2q0 .2-.2 0" class="s4"/><path fill-rule="evenodd" d="M66.1 89.6q-1.2.3-2.4.1z" style="opacity:0;fill:#313131"/><path fill-rule="evenodd" d="M46.3 89.8h.1q0 .1 0 0m-.2.1q0 .1-.1 0" class="s4"/><path fill-rule="evenodd" d="M46 90h.2q0 .2-.2 0m15.3.2h.2zm-15.5 0h.1q0 .2-.1 0m15.4 0q0 .2 0 0" class="s19"/><path fill-rule="evenodd" d="M45.7 90.4q0 .1 0 0m15.4 0h.1q0 .1-.1 0" class="s4"/><path fill-rule="evenodd" d="M45.5 90.5h.2q0 .2-.2 0m15.5 0h.1q0 .2-.1 0m-15.6.2h.1q0 .1 0 0m15.3 0h.2q0 .1-.2 0m-15.5.1h.1q0 .1-.1 0m15.4 0q0 .1 0 0" class="s19"/><path fill-rule="evenodd" d="M60.6 91h.1z" class="s4"/><path fill-rule="evenodd" d="m19.3 84.9-.1.1-.1.1q-.2 0-.2.2l-.1.1-.1.1q-.2 0-.2.2h-.1l-.1.2-.1.1q-.2 0-.2.2l-.1.1-.1.1q-.2 0-.2.2h-.1l-.1.2-.1.1q-.2 0-.2.2l-.1.1-.1.1q-.2 0-.2.2h-.1l-.1.2-.1.1q-.2 0-.2.2l-.1.1-.1.1q-.2 0-.2.2h-.1l-.1.2-.1.1q-.2 0-.2.2l-.1.1-.1.1q-.2 0-.2.2h-.1l-.1.2-.1.1q-.2 0-.2.2l-.1.1-.1.1q-.2 0-.2.2l-.1.2q-.2 0-.1.1-.2 0-.2.2l-.1.1-.1.1q-.2 0-.2.2H13l-.1.2-.2.1v.2l-.2.1-.1.1q-.2 0-.2.2h-.1l-.1.2-.2.1v.2l-.2.1-.1.1q-.2 0-.2.2h-.1l-.1.2-.2.1v.2l-.2.1-.1.1q-.2 0-.2.2h-.1l-.1.2-.2.1v.2l-.2.1-.1.1q-.2 0-.2.2h-.1l-.1.2-.2.1v.2l-.2.1-.1.1q-.2 0-.2.2h-.1l-.1.2-.2.1v.2l-.2.1-.1.1q-.2 0-.2.2h-.1l-.1.2-.2.1v.2H7l-.1.1q-.2 0-.2.2h-.1l-.1.2-.2.1v.2l-.2.1-.1.1q-.2 0-.2.2h-.1l-.1.2-.2.1v.2l-.2.1-.1.1q-.2 0-.2.2H5l-.1.2-.2.1v.2l-.2.1-.1.1q-.2 0-.2.2H4l-.1.2-.2.1v.2l-.2.1-.1.1q-.2 0-.2.2h-.1l-.1.2-.2.1v.2l-.2.1-.1.1q-.2 0-.2.2h-.1l-.1.2-.2.1v.2l-.2.1-.1.1q-.2 0-.2.2h-.1l-.1.2-.2.1v.2l-.2.1-.1.1q-.2 0-.2.2H.4l-.1.2-.2.1v.2l-.2.1-.1.1q-.2 0-.2.2h-.1v-.3l19.6-19.5q.1-.1.2 0" class="s1"/><path fill-rule="evenodd" d="M45 91h.2q0 .2-.2 0" class="s5"/><path fill-rule="evenodd" d="M60.5 91q0 .2 0 0" class="s4"/><path fill-rule="evenodd" d="M44.9 91.2h.1q0 .1-.1 0" class="s5"/><path fill-rule="evenodd" d="M60.3 91.2h.2q0 .1-.2 0" class="s4"/><path fill-rule="evenodd" d="M44.9 91.3q-.1.1 0 0" class="s11"/><path fill-rule="evenodd" d="M60.2 91.3h.1q0 .1-.1 0m-.1.1q0 .2 0 0m-.2.2h.2q0 .1-.2 0m0 .1q0 .1 0 0m-.2.1q0 .2-.1 0m-.2.2h.2z" class="s4"/><path fill-rule="evenodd" d="M59.4 92h.2q0 .2-.2 0m-.1.2h.1q0 .1-.1 0m-.1.1q0 .2 0 0" class="s19"/><path fill-rule="evenodd" d="M59 92.5h.2q0 .1-.2 0m0 .1q0 .1 0 0m-.2.1h.1q0 .2-.1 0m-.2.2h.2zm0 0q0 .2 0 0m-.2.2q0 .1-.1 0m-.1.1q0 .2 0 0m-.2.2h.2q0 .1-.2 0m0 .1q0 .1 0 0m-.2.1q0 .2-.1 0m-.2.2h.2zm0 0q0 .2 0 0m-.2.2q0 .1-.1 0" class="s4"/><path fill-rule="evenodd" d="M57.4 94.1q0 .2 0 0m-.2.2h.2q0 .1-.2 0m0 .1q0 .1 0 0" class="s19"/><path fill-rule="evenodd" d="M57 94.5h.1q0 .2-.1 0m-.2.2h.2zm0 0q0 .2 0 0m-16.2.3q0 .2 0 0m15.9 0q0 .2 0 0m-16.1.2q0 .1-.1 0" class="s4"/><path fill-rule="evenodd" d="M56.3 95.2h.2q0 .1-.2 0" class="s19"/><path fill-rule="evenodd" d="M40.3 95.3q0 .1 0 0" class="s4"/><path fill-rule="evenodd" d="M56.2 95.3h.1q0 .1 0 0" class="s19"/><path fill-rule="evenodd" d="M40.1 95.4h.2q0 .2-.2 0" class="s4"/><path fill-rule="evenodd" d="M56 95.4h.2q0 .2-.1 0" class="s19"/><path fill-rule="evenodd" d="M40 95.6h.1m15.8 0h.2zm-16 0h.1q0 .2-.1 0m16 0q0 .2 0 0m-16.2.2h.2q0 .1-.2 0m16 0h.1q0 .1-.1 0m-16 .1q0 .2 0 0m15.9 0q0 .2 0 0m-16.1.2h.1q0 .1-.1 0m16 0q0 .1 0 0m-16.1.1q0 .1 0 0" class="s4"/><path fill-rule="evenodd" d="M55.3 96.2h.1q0 .1 0 0" class="s19"/><path fill-rule="evenodd" d="M39.2 96.3h.2q0 .2-.2 0" class="s4"/><path fill-rule="evenodd" d="M55.2 96.3h.1q0 .2-.1 0" class="s19"/><path fill-rule="evenodd" d="M39.1 96.5h.1" class="s4"/><path fill-rule="evenodd" d="M55 96.5h.2z" class="s19"/><path fill-rule="evenodd" d="M39 96.6h.1q0 .1-.1 0m16 0q0 .1 0 0m-16.2.1h.2q0 .1-.2 0" class="s4"/><path fill-rule="evenodd" d="M54.8 96.7h.1q0 .1-.1 0" class="s19"/><path fill-rule="evenodd" d="M38.7 96.8h.1q0 .2 0 0" class="s4"/><path fill-rule="evenodd" d="M54.7 96.8q0 .2 0 0" class="s19"/><path fill-rule="evenodd" d="M38.6 97h.1q0 .1-.1 0" class="s4"/><path fill-rule="evenodd" d="M54.5 97h.2q0 .1-.2 0" class="s19"/><path fill-rule="evenodd" d="M38.5 97.1q0 .1 0 0m16 0q0 .1 0 0m-16.2.1h.2q0 .2-.2 0" class="s4"/><path fill-rule="evenodd" d="M54.3 97.2h.1q0 .2-.1 0" class="s19"/><path fill-rule="evenodd" d="M38.2 97.4h.1m-.3.1h.2q0 .1-.1 0" class="s4"/><path fill-rule="evenodd" d="M54 97.5h.2q0 .1-.2 0" class="s19"/><path fill-rule="evenodd" d="M38 97.6q0 .1 0 0m15.9 0h.1q0 .1-.1 0m-16 .1q0 .2 0 0" class="s4"/><path fill-rule="evenodd" d="M53.8 97.7q0 .2 0 0" class="s19"/><path fill-rule="evenodd" d="M37.7 97.9h.1q0 .1-.1 0" class="s4"/><path fill-rule="evenodd" d="M53.6 97.9h.2q0 .1-.2 0" class="s19"/><path fill-rule="evenodd" d="M37.6 98q0 .1 0 0" class="s4"/><path fill-rule="evenodd" d="M53.5 98h.1q0 .1 0 0" class="s19"/><path fill-rule="evenodd" d="M37.4 98.1h.2q0 .2-.2 0m16 0h.1q0 .2-.1 0m-16.2.3h.1q0 .1-.1 0" class="s4"/><path fill-rule="evenodd" d="M53.1 98.4h.1q0 .1 0 0" class="s19"/><path fill-rule="evenodd" d="M37 98.5h.2q0 .1-.2 0" class="s4"/><path fill-rule="evenodd" d="M53 98.5h.1q0 .1-.1 0" class="s19"/><path fill-rule="evenodd" d="M37 98.6q0 .2 0 0m15.9 0q0 .2 0 0m-16.1.2h.1q0 .1-.1 0" class="s4"/><path fill-rule="evenodd" d="M52.7 98.8h.2q0 .1-.2 0" class="s19"/><path fill-rule="evenodd" d="M36.7 98.9q0 .1 0 0" class="s4"/><path fill-rule="evenodd" d="M52.6 98.9h.1q0 .1 0 0" class="s19"/><path fill-rule="evenodd" d="M36.5 99h.2q0 .2-.2 0" class="s4"/><path fill-rule="evenodd" d="M52.5 99h.1q0 .2-.1 0" class="s19"/><path fill-rule="evenodd" d="M36.4 99.2h.1m-.1.1q0 .2-.3 0z" class="s5"/><path fill-rule="evenodd" d="M52.2 99.3h.1q0 .1 0 0" class="s4"/><path fill-rule="evenodd" d="M53 101h.1zm-.1 0q0 .2 0 0m-.2.2h.2q0 .1-.2 0m0 .1q0 .2 0 0m-.2.2q0 .1-.1 0m-.2.1h.2q0 .1-.2 0m0 .1q0 .2 0 0m-.3.2q0 .2 0 0m-.2.2h.2q0 .1-.2 0m0 .1q0 .2 0 0" class="s5"/><path fill-rule="evenodd" d="M49.1 102.4h.2q0 .1-.2 0" class="s19"/><path fill-rule="evenodd" d="M51.6 102.4h.1q0 .1-.1 0" class="s5"/><path fill-rule="evenodd" d="M49 102.5h.1q0 .1 0 0" class="s19"/><path fill-rule="evenodd" d="M51.5 102.5q0 .1 0 0" class="s5"/><path fill-rule="evenodd" d="M48.9 102.6h.1q0 .2-.1 0" class="s19"/><path fill-rule="evenodd" d="M51.3 102.6h.2q0 .2-.2 0m-.1.2" class="s5"/><path fill-rule="evenodd" d="M48.6 102.9h.1q0 .1 0 0" class="s4"/><path fill-rule="evenodd" d="M51 102.9h.2q0 .1-.1 0" class="s5"/><path fill-rule="evenodd" d="M48.5 103h.1q0 .1-.1 0" class="s4"/><path fill-rule="evenodd" d="M51 103q0 .1 0 0" class="s5"/><path fill-rule="evenodd" d="M48.4 103.1q0 .2 0 0" class="s4"/><path fill-rule="evenodd" d="M50.8 103.1h.1q0 .2 0 0" class="s5"/><path fill-rule="evenodd" d="M48.2 103.3h.2q0 .1-.2 0" class="s4"/><path fill-rule="evenodd" d="M50.7 103.3h.1q0 .1-.1 0" class="s11"/><path fill-rule="evenodd" d="M48.1 103.4h.1q0 .1 0 0" class="s4"/><path fill-rule="evenodd" d="M50.7 103.4q-.1.2-.3 0z" class="s11"/><path fill-rule="evenodd" d="m4.1 103.3 15 19.7q.1 0 0 .2l-2.2 2.2q-3.2-2.2-5.8-5.2-5.5-6.7-8.9-14.8z" class="s20"/><path fill-rule="evenodd" d="M48 103.5h.1q0 .2-.1 0m-.2.2h.2zm0 0q0 .2 0 0m-.2.2q0 .1-.1 0m-.1.1q0 .2 0 0m-.2.2h.2q0 .1-.2 0m0 .1q0 .1 0 0m-.2.1q0 .2-.1 0m-.2.2h.2zm0 0q0 .2 0 0m-.2.2q0 .1-.1 0m-.1.1q0 .2 0 0m-.2.2h.2q0 .1-.2 0m0 .1q0 .1 0 0m-.2.1q0 .2-.1 0" class="s4"/><path fill-rule="evenodd" d="M46 105.5h.2z" class="s5"/><path fill-rule="evenodd" d="M46 105.6q-3.6.2-7.3 0z" style="opacity:.02;fill:#313131"/><path fill-rule="evenodd" d="M31.5 114.2h.1q0 .1 0 0" class="s17"/><path fill-rule="evenodd" d="M31.4 114.3h.1q0 .2-.1 0" class="s19"/><path fill-rule="evenodd" d="M31.1 114.5h.2q0 .2-.2 0m-.1.2h.1q0 .1-.1 0m-.1.1h.1q0 .2-.1 0m-.1.2q0 .1 0 0m-.2.1q0 .1 0 0m-.2.1h.1q0 .2-.1 0m-.3.2h.2q0 .2-.2 0m-.1.2q0 .1-.1 0m-.1.1q0 .2-.1 0m-.1.2q0 .1 0 0m-.2.1h.2q0 .1-.2 0m-.1.1q0 .2-.1 0m-.3.2h.2q0 .2-.2 0m-.1.2q0 .1-.1 0m-.1.1q0 .2-.1 0m-.1.2q0 .1 0 0m-.2.1h.2q0 .1-.2 0m-.1.1q0 .2-.1 0m-.3.2h.2q0 .2-.2 0m-.1.2q0 .1-.1 0m-.1.1q0 .2-.1 0m-.1.2q0 .1 0 0m-.2.1h.2q0 .1-.2 0m-.1.1q0 .2-.1 0m-.3.2h.2q0 .2-.2 0m-.1.2q0 .1-.1 0m-.1.1q0 .2-.1 0m-.1.2q0 .1 0 0m-.2.1h.2q0 .1-.2 0m-.1.1q0 .2-.1 0m-.3.2h.2q0 .2-.2 0m-.1.2q0 .1-.1 0m-.1.1q0 .2-.1 0m-.1.2q0 .1 0 0m-.2.1h.2q0 .1-.2 0m-.1.1q0 .2-.1 0m-.3.2h.2q0 .2-.2 0m-.1.2q0 .1-.1 0m-.1.1q0 .2-.1 0m-.1.2q0 .1 0 0m-.2.1h.2q0 .1-.2 0m-.1.1q0 .2-.1 0m-.3.2h.2q0 .2-.2 0m-.1.2q0 .1-.1 0m-.1.1q0 .2-.1 0m-.1.2q0 .1 0 0m-.2.1h.2q0 .1-.2 0m-.1.1q0 .2-.1 0m-.3.2h.2q0 .2-.2 0m-.1.2q0 .1-.1 0m-.1.1q0 .2-.1 0m-.1.2q0 .1 0 0m-.2.1h.2q0 .1-.2 0m-.1.1q0 .2-.1 0m-.3.2h.2q0 .2-.2 0m-.1.2q0 .1-.1 0" class="s4"/><path fill-rule="evenodd" d="M22.6 123h.2q0 .2-.2 0" class="s19"/><path fill-rule="evenodd" d="M22.5 123.2h.1q0 .1 0 0m-.2.1h.1q0 .2-.1 0" class="s4"/><path fill-rule="evenodd" d="M22.1 123.5h.2q0 .2-.2 0" class="s19"/><path fill-rule="evenodd" d="M22 123.7h.1q0 .1-.1 0m-.1.1h.1q0 .2-.1 0" class="s4"/><path fill-rule="evenodd" d="M21.8 124q0 .1 0 0m-.2.1h.1q0 .1 0 0m-.2.1h.1q0 .2-.1 0m-.3.2h.2q0 .2-.2 0m-.1.2h.1q0 .1-.1 0" class="s19"/><path fill-rule="evenodd" d="M20.8 124.8h.2q0 .2-.2 0" class="s4"/><path fill-rule="evenodd" d="M20.7 125h.1q0 .1 0 0m-.2.1h.1q0 .2-.1 0m-.3.2h.2q0 .2-.2 0m-.1.2h.1q0 .1-.1 0m-.1.1q0 .2-.1 0" class="s19"/><path fill-rule="evenodd" d="M20 125.8q0 .1 0 0m-.2.1h.1q0 .1 0 0m-.2.1h.1q0 .2-.1 0m-.3.2h.2q0 .2-.2 0m-.1.2h.1q0 .1-.1 0m-.1.1h.1q0 .2-.1 0m-.1.2q0 .1 0 0m-.2.1h.2q0 .1-.2 0m-.1.1q0 .2-.1 0m-.3.2h.2q0 .2-.2 0m-.1.2q0 .1-.1 0m-.1.1q0 .2-.1 0m-.1.2q0 .1 0 0m-.2.1h.2q0 .1-.2 0m-.1.1q0 .2-.1 0m-.1.2" class="s4"/><path fill-rule="evenodd" d="m16.6 128.2.3-.1v.1z" class="s5"/><path fill-rule="evenodd" d="M17.6 128h.2v.2z" class="s4"/></svg>