<?xml version="1.0" encoding="UTF-8" standalone="no"?>
<svg
   width="146"
   height="146"
   version="1.1"
   id="svg1"
   sodipodi:docname="loot-circle-outer-modified-01.svg"
   xml:space="preserve"
   inkscape:version="1.4.2 (f4327f4, 2025-05-13)"
   xmlns:inkscape="http://www.inkscape.org/namespaces/inkscape"
   xmlns:sodipodi="http://sodipodi.sourceforge.net/DTD/sodipodi-0.dtd"
   xmlns="http://www.w3.org/2000/svg"
   xmlns:svg="http://www.w3.org/2000/svg"><defs
     id="defs1" /><sodipodi:namedview
     id="namedview1"
     pagecolor="#ffffff"
     bordercolor="#000000"
     borderopacity="0.25"
     inkscape:showpageshadow="2"
     inkscape:pageopacity="0.0"
     inkscape:pagecheckerboard="0"
     inkscape:deskcolor="#d1d1d1"
     inkscape:zoom="2.8260055"
     inkscape:cx="36.624132"
     inkscape:cy="42.63969"
     inkscape:window-width="2560"
     inkscape:window-height="1369"
     inkscape:window-x="-8"
     inkscape:window-y="-8"
     inkscape:window-maximized="1"
     inkscape:current-layer="svg1" /><ellipse
     cx="-68.456"
     cy="77.267"
     transform="rotate(-86.545) skewX(-.009)"
     rx="68.861"
     ry="68.769"
     stroke-miterlimit="10"
     fill-opacity=".271"
     stroke="#fff"
     stroke-width="6.21"
     stroke-opacity=".769"
     id="ellipse1" /><path
     style="fill:none;fill-opacity:1;stroke:#000000;stroke-width:8;stroke-linecap:round;stroke-linejoin:round;stroke-dasharray:none;stroke-opacity:1;paint-order:stroke markers fill;opacity:0.6"
     d="m 40.284491,53.921166 -3.502998,9.50814 -15.012855,1.376178 v 16.389032 l 15.13796,1.501285 3.377893,8.382176 -8.507284,12.886033 10.008568,9.75836 12.260497,-9.25793 9.633248,4.50385 1.751499,15.01286 15.513283,0.12511 1.000857,-15.26308 9.758355,-4.12853 12.510706,9.75836 11.00943,-11.00942 -10.25878,-11.63497 4.25364,-10.258783 14.88774,-1.125964 0.37533,-15.638389 -15.63839,-1.501285 -4.25364,-9.758355 10.7592,-12.010283 L 104.46444,30.651243 91.82862,40.409597 82.32048,36.40617 80.694087,21.393316 H 65.305913 l -1.7515,15.263068 -9.758355,4.003427 -12.13539,-9.383033 -10.133675,10.133676 z"
     id="path2"
     sodipodi:nodetypes="ccccccccccccccccccccccccccccccccc" /><path
     style="opacity:0.6;fill:none;fill-opacity:0;stroke:#000000;stroke-width:8;stroke-linecap:round;stroke-linejoin:round;stroke-dasharray:none;stroke-opacity:1;paint-order:stroke markers fill"
     d="m 53.670951,72.812339 c 0.07906,-9.424011 4.804027,-19.247559 19.766924,-19.766923 15.297384,1.62618 18.776394,12.424823 18.891174,18.640959 -0.01103,4.846552 -1.81933,19.305738 -18.766067,20.142246 C 59.464539,92.291274 53.930157,82.055388 53.670951,72.812339 Z"
     id="path3"
     sodipodi:nodetypes="ccccc" /></svg>
