<svg width="129" height="129" xmlns="http://www.w3.org/2000/svg" fill="none" viewBox="0 0 129 129"><path fill="#481d17" d="M32.8 47.1a31.5 31.5 0 1 0 63 0 31.5 31.5 0 0 0-63 0"/><path fill="#000" fill-rule="evenodd" d="M64.8 12.6a34 34 0 1 1 0 68 34 34 0 0 1 0-68m28.8 34a28.8 28.8 0 1 0-57.6 0 28.8 28.8 0 0 0 57.6 0" clip-rule="evenodd"/><path fill="#6a3730" d="M63.8 29.6a41 41 0 1 1 0 82 41 41 0 0 1 0-82"/><path fill="#ffd38c" d="M22.8 103.1a12.5 12.5 0 1 0 25 0 12.5 12.5 0 0 0-25 0"/><path fill="#000" fill-rule="evenodd" d="M35.3 88.6a14.5 14.5 0 1 1 0 29 14.5 14.5 0 0 1 0-29m10 14.5a10 10 0 1 0-20 0 10 10 0 0 0 20 0" clip-rule="evenodd"/><path fill="#ffd38c" d="M80.8 103.1a12.5 12.5 0 1 0 25 0 12.5 12.5 0 0 0-25 0"/><path fill="#000" fill-rule="evenodd" d="M93.3 88.6a14.5 14.5 0 1 1 0 29 14.5 14.5 0 0 1 0-29m10 14.5a10 10 0 1 0-20 0 10 10 0 0 0 20 0" clip-rule="evenodd"/><path fill="url(#a)" fill-rule="evenodd" d="M51.8 45.2a21 21 0 0 1 4.8-2.5 19 19 0 0 1 5.4-1.3h1.2q2.1-.3 4.2-.2 1 0 2 .3L71 41q1.2-.6 2.6-.5l.5-.4-.3.3a5 5 0 0 1 2.4.3q1.5.1 2.6 1.1h-.1q1.1.6 1.9 1.5l.5.1 1.9 1.2a8 8 0 0 1 2.4 3.3 7 7 0 0 1 1.1 2.4l1.4.7 1.5 1.6 1.3 2.1a15 15 0 0 1 1.5 6.2q0 3.2-1.1 6.3l-1 2.3a11 11 0 0 1-2.4 6.6l-.7.8-.7 1.3a27 27 0 0 1-12.4 12q-1.2.8-2.7 1.4l1.5 1.2-2-1-1.8.6-.8.2a4 4 0 0 0 2.3 0 4 4 0 0 1-2.5.1h-.1.3q1.5.4 3 .5l4.1-.1 1-.1h.2l.7-.2h1.1q.6 0 1.1-.2-.8.4-1.9.3h-1l-.3.1-1 .2-4.2.4a21 21 0 0 1-4.2-.5l-1.4.2-1.8.2q-1.5.2-2.9.1l-2.7-.5a25 25 0 0 1-5.3-1.9l-4.2-2.4A18 18 0 0 1 42 77.7l-.1-.3-1.7-4.1q-.8-2.2-.8-4.4.2-4.6 2.6-8.5l1.7-2.2a22 22 0 0 1 4.2-9.2l2.1-2.3a23 23 0 0 1 4.7-4.2v.2zm27.3 37-.7.7h-.2l.6-.7zM72.4 87l-.3.2-1.2-.4.3-.5-.4.3-.1.1-1.7-.6h.4a19 19 0 0 0 4.3-1.2l1.6.4zm3.1-3.8-.5-.3-1.3-.6-.8.5 1 .1zm-.9.5.5-.3h-1.3l-.3-.1-1.2-.2-.7.4h.6zm-1.4.5h.3-.7zm-6 1 4.5-.6h.3l-2.1-.4-3 .9zm-2 .1h.2zm2.1 1H67l1.3 2.2 3.2-1.1-1.1-.2h-.2q-.8.5-1.4 0zm-1.3.1h-4v.1l1.5.8 3 1.5.3.2.7-.2zm-5.7-1h.7l-1-.2h-.2zm.2 1 1 .6 4.5 2-1.6.2-3.9-1.4-1.4-1.6zm-2-1h.4l-.6-.4zm-.3.8.9 1.1h-.2L56.7 86zM55.5 85l2 .3-.6-1.1-.4-.3-.5-.3-2-1.1.1.1zm-1.1.4 1 .7.9 1 .5.7-2.8-1.6-1.8-1.6q1 .5 2.2.8m-3-1.8q.7.5 1.6.8l-1.8-1.7-1.3-1.3v.1q.6 1.1 1.4 2.1m-3.6-2.3.4.7q.2.5.9 1.3l.5 1.2.5.9-.3-.2-.3-.4a26 26 0 0 1-2.8-4.6l-.1-.3zm-2.2-4.1 1.3 2.4-.2-.8a11 11 0 0 1-1-3.4v-.2h-.1zm-1.2-4 .2 1 .3 1.3.1-1.3zm-.2-2.7v1l.2 1.1.6 1.2.1-1.1-.3-.6zm.8-5.7-.5 1.9a12 12 0 0 0 1 4V70q0-1.8.3-3.8a22 22 0 0 1 1.2-5.4V60L45 64h.2zm-1.4 2.8v-1l-.2-2.7.1-2.3a31 31 0 0 0 0 6.4zm1.4 9.4-1-2.6-.4-2-.1-.7-.1-2.3V69l-.4 1.4a16 16 0 0 0-.7 4.4l.9 2.9a8 8 0 0 0 1.3 2.7l.1.3 1 1.1v-.4l-.6-4.1zm.7 1.5.7 4 2.4 2a28 28 0 0 1-2.3-4.2zm-1.2-14.7v-.4q1.1-3 2.8-5.7l.3-.8.9-1.7.6-1.2-.5.4-2.1 1.5-1 1.8-.4.7a22 22 0 0 0-.7 5.4M52 51.9h-.1l.7-1.3a13 13 0 0 1 2.7-2.3l-1.6 2zm14-8.7.2-.1 1.3-.6-.9.5h-.2zm-.5.5-.3.3h-.5l.4-.1zm-17 13.8-.6 1.2.1-.4zm27.7 25.3.4-.3.6-.4-2.4-.4-.4.3.8.4h.3zm1.7-.7-1 .9 1-.6.2-.3zm-.3-.5-2-.4.3-.2 1-.7.4-.2 1.8.1-.5.5zm1.6-1.2-.4.6-.6.6h.2zm.8-1.5.2-.3.3-1-1.1.4-.8 1zm-3 5.6.7-.6h.4l-.7.6-1 .8zm3.4-3.1-.6.5.9-1.2.2-.3.5-.5.4-.1-1.2 1.7-.4.5h-.4zm-1.3.5.6-.5-.5.5zm3.5-4.8-.8 1.5-1.2.3.4-1.2v-.3l.6-.2 1-.3zm-.2.7.2-.3v.2zm.2-1v.3l.1-.3zm0 .7.3-.7.4-.2-.3.5zm0-.8.2-.1.5-1.3-1.1.3-1 .2v1.4h.2zl.1-1zm.6-.8.2-.7 1-.5-.9 1.6-.5.2zm-1-.6 1.3-.5.7-3.3-1.7 2.5-1.2 1.5zm2-3.5v-.3q1-1.8 1.8-3.8l.2-.6a34 34 0 0 1-.6 5.4l-.4.9-.4.7-1.2.7zm-6 11.7.6-.5.9-.8h.3l-1.4 1.4zm-29.7 1.6 1.7 1.2q1.2 1.4 2.7 2.6a23 23 0 0 0 4.7 2.9l1.5.5-.9-.1a30 30 0 0 1-5-1.8l-.5-.2.7.2-.3-.1-1.6-1-1.1-.7-.6-.4a12 12 0 0 1-2.5-3.2l-.4-1zm.3-.1a8 8 0 0 1-2.3-2l2.9 2.3.3.3zM46 83.5l.2.1q.3.9.8 1.6a13 13 0 0 0 2.8 3.2l.5.4-1.3-.7a17 17 0 0 1-6.3-9.3l.2.3 1 1.9a9 9 0 0 0 2 2.5m-4.8-11.8q.2 2 .7 3.9v1a15 15 0 0 1-2.2-7.9 15 15 0 0 1 2.7-8.3l1.1-1.5-.3 2.2v.3a12 12 0 0 0-1.3 3.8 12 12 0 0 0-.7 3.3 10 10 0 0 0 0 3.2m1.1-6.6q.3-1.4.8-2.7a37 37 0 0 0 .2 5.9l-.7 2-.6 2.9-.2-2a9 9 0 0 1 0-2.9 8 8 0 0 1 .5-3.2m3.5-9.2.4-.3q.6-1 1.4-1.8a22 22 0 0 1 3-3.1l2.3-2.1.2-.3a18 18 0 0 1 5.7-5v.2A14 14 0 0 0 55 47l3-1.8-3.3 2.2-1 1.4-.1.2 2-1.1 2.3-2.2q1.6-1.4 3.3-2.5l1.8-1 1-.4q.7 0 1 .2h-1l-.7.3-.2.1-1.7 1.2-2.4 2 1.3-.6 1.9-1.3L64 43l.8.2.8-.4 1.8-.7 1-.1.6-.4h-1.4a29 29 0 0 0-5.4.2 25 25 0 0 0-5.2 1.3q-4 1.4-6.9 4.1l-.1.2-1.8 3-1.6 3v-.1zm5-5 1.7-1.8-1 1.6-.6.7-1.3 1.7-1.4 1-1 .6.7-.7q1.2-1.8 2.8-3.2M76 84l.7-.2-1 1.2-1.1-.4zm-18.4-.5q1.3.7 2.6 1.1l.9.3a12 12 0 0 0 3.8 0h.3v-.1l-.7-.4H64a20 20 0 0 1-6.5-.9m-4-1.5L52 81l-1.4-1-.5-.3v.7l1.6 1.7 2.9 2.4-1-1.7zM48 77.3l-.2-.1.2.2zm-2-4.8.2.3.5 1.2 1.1 1.7.1-1.6-.2-.9-.2-.5a15 15 0 0 1-1-4.2 8 8 0 0 0-.4 3.2l-.1.6zm.5 3-.3-.4.1.8.3.3.4.5zm-.9-22-.8 1.9zm34 27.3.8-.7H80zm7.1-11 .2-.5q1-3.3.9-6.8l-.3-.6q0 1.8-.4 3.7H87q.3-1.5.3-3l-.5 2.4zm1.6-5a17 17 0 0 1-.8 5l-1.2 3v.4l1.1-1 .8-.8.3-1.3q.4-2.6-.2-5.3m-.7-4.2-.4-1.2v-1.6q.4 1.4.4 2.8m-.3-3.8q.7 2 .8 4.1l.1 1.2a16 16 0 0 1 1.8 5.2v1.1l.6-1.3q1.2-3 1-6.2c-.2-3.2-.4-4.2-1.3-6l-1.2-2-1.6-1.6-1-.6v.2q.8 2.7.8 5.5zm-.3-.2a12 12 0 0 0-1.8-4 8 8 0 0 1 1.8 3 20 20 0 0 0-.8-4.6l-.1-.5a11 11 0 0 0-3.4-.9l-1.5.1.7.6a21 21 0 0 1 2.8 3.3 16 16 0 0 1 2 3.7l.2 1zM84.8 76 83 78.2q.6-.2 1.1-.6zm-12.9 5.5-1.2.7H70a36 36 0 0 1-5.2-2v-.3h3.6q1.1.5 2.3.8zm-1 1.5-.8.3.7.1.7-.3zm.9-.4.5.1 1-.5h-.1zm5.6-3.5.6-.5-1.4.3zm-3 .4h-1.1l-1.5.3h1.6zm-8.7 0h1.6l-2.2-.9-.5-.2.2 1zm-2.2-.3h-.6l-2.3-1.3-.1-.2q1.4.2 2.9.2zm-4.8-1.5-.6-.3-.8-.7 1 .3.2.1.7.9zm-5-5-.4-.9 1.6 2v.5zm-.7-2.3-.1-.6.3-.6.2-.3 1.3 1.9.4.4-.1 2-.4-.5zm-.2-1.2-.2-1.4.5.7-.1.3zm1-8 .5-1.1v1.3l-.8 1 .1-.4zm1.9 15.2 1.3 1 1.1 1-2.4-1.7zm5.9 3h.2l1.9 1.1v.4l-1-.6-1-.7zm-3-25.8-3 3.1q.7-1.5 1.7-2.8l.2-.4 2.4-1.5-.5 1zm-6.4 7 1.6-3.8-1.8 2.3.1 1.7zm2.6-6L52.5 57h-.1l-.4.4q0-.8.2-1.5l.2-.5L56 51h.4l.4-.2-.8 1.6-.7 1.7zm-5 8.2.5-1v.3L51 64l-.3 1.7zm1.2-2.2.2-.4q.1 1 .4 1.8l-.3 1-.3-1zm-2.5 6.2q0-.4.2-.7.1 1.3.6 2.5v.1zm0-3.1L48 65v-.3l.2-.4zM49 69l-.6-1.2a18 18 0 0 0-.1 4.3l.1-.6.4-1.8zm-1.4-2q-.3 2-.2 4a14 14 0 0 1 0-5.2l.1-.2.2.6zM50 77l-.5-1v-.4q-.4-2.6.2-5.1l.1-.3 1.5 2.1v.8q0 2.4.5 4.9l.8 1.8-.8-.7-1.6-1.8zm6.2 5.8-.2-.1-2.4-2-.3-.2-.6-2.3 1.4 1.8q.8.8 1.7 1.3zm7.1 1.1q-3.2 0-6.2-.9l-.5-1.1q2.2 1.2 4.7 1.6l1.6.2zm3.5-.3-1 .1zm-.7 1.1-.1-.3 2.4-.5.7.2q-1.4.5-2.8.7zm-18-5.9-.7-1-1-1.2.7 1.6a10 10 0 0 0 1.5 2.9l.1.3v-.1l-.5-1.8zm12.6-28.3-2.2 1.3q.5-.8 1.2-1.4h1.1zm4.2-2q-1.2.4-2.3 1.1l1.7-.6zm.3-.2-.6.6 2.4-.7.5-.3q-1.2 0-2.3.5m2.9-.6-.4.3 1.5-.2v-.1zm6-.9 2.7 2 2.2.7 1 .5.2-.1-1.5-1.1h.1l-3-1.7-3.1-1zm6.3 3.1H80l.8.5-.2-.2zm-.4.9q1.2.6 2.2 1.4l.4.6zm4.3 3.5.5.7-1-1.2-.5-.6q.6.5 1 1.1m2 3.9.1.1-1.2-1.6-.1-.3zm.5 2.3-.3 1.2-.4-2.2zm0 .8v2l-.2-1 .1-.5zM82.3 74l-1 1.3v-.5l-.2-1.5.2-.4 1.6-2.9q1.5-1.2 2.5-2.7L83.3 69l1.3-2.1 1.6-3.5.1 2-.7 2.2a25 25 0 0 1-3.3 6.2m-1.9 3.5.2-.9-1.2 1.3 1-.3zm6-3.7v.2zl1.4-1.2.4-.4-.6 2-.5 1.1-.1.2-1.4 1.4.7-2.8zM80.8 76l-.8.9.4-1zM77 78.5l1.2-.3.7-.9.7-1.3H79zm-.6-2.6 1.5.2-1.6 1.8-.7.7a22 22 0 0 1-4.6-1.8l-.3-.2q2.8-.8 5.3-2.2l1.5-.8L79 73l1-.8v1L78 76zm2.9 0 .7-.9-.3.9zm1.4-4v.2l.4-.6zm.2-1.1.9-.6a22 22 0 0 0 1.5-4.3l.6-3-.8-2a16 16 0 0 0-2.7-3.2 30 30 0 0 0-6-4l-.4.4a24 24 0 0 0-3.2 4.1l-.3.7 2.5 1.5q2.7 1.7 4.5 4.4l1 1.2a22 22 0 0 1 2 5zm2.2-10 .8 1.9q.1-1.9-.2-3.7l-.2-1.1-1-1.8a14 14 0 0 0-4-1.9 15 15 0 0 0-3.6-.6 27 27 0 0 1 5.5 3.9 12 12 0 0 1 2.7 3.4m1.8 3.2a9 9 0 0 0-.2-5v-.3a14 14 0 0 1 1.5 3.6v.5q-.6 2-1.7 4l-1 1.7.8-2.4.5-3.5zm-1-7.6V56l1 1.2.1.3-.6-.6zm-.8-1.9-.4-.6q.7.5 1.2 1.2l.3.4zm-6-3.3-3.8-2.2h-1.5l-2.3.1-.2.4-.4 1.3.3.1 1 .4a15 15 0 0 1 6.8 0zm-9-.6.5-1.3q-1.5.3-2.9.8 1.2.1 2.4.5m-4 .4.5-.5-3 1.6q-1.1 1.4-1.8 3l-.5 1.6 1.4-1a34 34 0 0 1 3.5-4.7m-4.8 4 1.3-2.3-1.4 1-.4 1.5q-.3 1-.4 2.2v-.1h.1q.3-1.2.8-2.3m3-4.4-2.1 1.4.5-.7.6-.3 1.3-.7zM64 50l.4-.2zm-5.3 5.2.2-.9a20 20 0 0 0-4.2 5V61l3.6-3.4zm14.5 24-2.8.1-2.5-1.9 1.4-.3.5.3-.3-.3 1.2.7 2.8 1.3zm-1.4 1a5 5 0 0 0 2.9-.7L73 80.6zm2.4.7 1.4-1.1.6.1q-.9.6-1.9 1zM57.6 64.5l-.5 1.3a12 12 0 0 0-.5 4.3l.2.6a28 28 0 0 0 4.8 4.3l1.7 1.2v-2.7L62 71.8a35 35 0 0 1-2.4-5.2l-.2-.5-.7-2V64q-.7.2-1.2.6M55.8 71v-.6l-.2-.5v.8zm1.8 4.9-.6-1.1-.9-2.2-.6-.8v2l1.4 1.6zm0-13.3.7-1v-.3zm.7-3.6v-.4zm.7-1-.1.8.2-.1v-.1l.1-.1.5-1-.4.3zm-.2 1.9v.8l2-2.2-1.6.7zm2.8-2-2 .6.7-1.4a31 31 0 0 1 6.3-3.8l.7-.3-.5 1.8a19 19 0 0 0-5.2 3m5-2.6a17 17 0 0 0-4 2.4 12 12 0 0 1 3.4 0zm.9-.7.7-1.8 2.2-.6 2.6 1 .4.3a19 19 0 0 0-4 .5zm6.6-.8a19 19 0 0 0-4.6.6l-2.2.6-.9 2.8 1.1.3q1.3.2 2.6.9l.3-.6a24 24 0 0 1 3.8-4.6zm0-.3h.4l.8-.6.8-.7-1.2-.2a14 14 0 0 0-3.7 0l1.9 1zm2-1.3-.8.7-.7.6q2 0 3.9.6 1.7.5 3.2 1.4l-.3-.5-1.9-1.7zm9 6.5.1.3zm4 11.7v-3.7 3.8zm-.4 1.6.2-.7v.1zm-3 6-2.3 3.5q.8-1.4 1.4-3zm-2.3 1.3-1 1.7a20 20 0 0 1-5.6 5.7 18 18 0 0 1-3.7 1.8l-1.5.5 2.2-1.4h.3-.2q1-.7 1.7-1.5l.8-.5 1.3.3-1.1-.4 1-.8.8-.6q.4 0 .7.2l.4-.2.8-.5a3 3 0 0 1-1.6.2l1.4-1.4h.2q1.4-.2 1.5-.8l-.1.1-.8.5h-.6l.4-.5 1.1-1.8zm-16-4.5L70 76l.6-.2L75 74h-.6.7l.7-.3 4-2.3-1.2-2.2q-1-1.2-2-2a15 15 0 0 0-2.8-2.2l-.8-.4-.8-.4-1.5-.8-2-.6a29 29 0 0 0-1.4 5.1 16 16 0 0 0 0 5.2q0 .8.3 1.6m1 2q-.7 0-1.3.2l-3-3.3v-.5a25 25 0 0 0 4.2 3.5m-4.3-5 3.1 2.9-.2-1.1q-.5-2.7 0-5.3.2-2.8 1.1-5.2l.1-.2-1.8-.2h-1.2a62 62 0 0 0-1 7.8zm-1 .5v.2l-.6-1-.6-.8zm-3.8-8.6v.4q.7 2.2 1.8 4l2 2.9.1-.4q.7-4.2 1.6-8l-2.4.2q-1.6.2-3.1 1m-.1-.4a12 12 0 0 1 3.3-1l2.3-.1.6-2.4.4-2a10 10 0 0 0-3.8.4l-.4.3a19 19 0 0 0-2.7 3.2q0 .8.3 1.6m-.7.3-1 .5.8-1.5zm4 13.9-2.5-.3-1.4-2.4q1.6 1.3 3.4 2.4zm-9-9.3 1.4 2 .2-.9-1-1.6zm-1.1-2 .7 1.4.2.3.5-.6-1.2-2.5v.4l-.2.6zm-2.3-6.3-.3.4v-.1l.3-.7zm.9-2-.1.9v-.2zm16.7-12.3q-2 0-4 .6l-.3.3q2.7-.2 5.3.3l1-.8-1.2-.3zm-8 2.4h.2l-.9 1-1 1.2H58l1.5-1.8zm2.6-.5q-1.3 1.1-2.4 2.5h1.2a11 11 0 0 1 4.6-2.7zm2 3.8.6-.6q1.5.2 2.9.6l-.4.9-1.3.5q-2.5 1.2-5 2.8zm4.2.2.6.2-.7.2zm-11.7.3 1-1.2h-.3zm-.4-1.3.5-.1.2-.3.4-.7zm13-3.6h-.3l.5-.3zm7.6 3.5-.2-.1zm0 1 .3.3-.6-.1.1-.1zm-26.9 3.8 1-1.3-1 2.2-.3.6-.2.5zm-1.7 3.8v-1.2l-1 2v2.2q.4-1.4 1-2.6zm12.9 33.7-4-1.3-3.4-2 1.3.6q2.1 1 4.8 1.5l1.8.2.8.4 1.5.5h-1zm9.8-50.1.5.2q.4-.7 1-1.3l-1.4.4q-.5 0-.9.2zm.4.4-.5-.3-1-.6-1.4.8-2 1a15 15 0 0 1 4.2.1zm.5 0 1-1.5h.5q1.2-.3 2.4 0 1.4.1 2.3 1 .6.2 1.1.6H79a9 9 0 0 0-4.3.5l-.6.2-1.6-.5zm1.6.8-1.4-.5-.3-.1-.5 1 1 .2zm1 .1q1.5.4 2.7 1.1a9 9 0 0 0-2.9-1l-1.4.6 1 .4q2.4 1 4.2 2.7l.9.5 2 1.5 1.6-.1a9 9 0 0 1 3.2.6l-.9-1.9a8 8 0 0 0-2.2-3.1L81 43.9a18 18 0 0 1 2.6 4h-.1a21 21 0 0 0-3-3.7l-.4-.6-1.2-.3q-2.1-.3-4.2.5M47.1 63.4l-.3-2a23 23 0 0 0-1.1 4.8q-.3 1-.2 2.2v.8l1.2-4.5zm11.3 24.3-1.1-.5.6.7.6.5 2 .5-.4-.4zm8.6 1.8-.8.1 1.1.2.4-.1zm-2.2.4-.8-.2h-1.6zm6.3-45 1-.5-.7-.1zm-2.7-.3h.7l1.3.2.3-.4.1-.2a14 14 0 0 0-4 0q.8 0 1.5.4zm3.5.5.8.1q1.8.5 3.4 1.2l1 .5a16 16 0 0 0-3.2-1.9l-1-.4zM57.8 72.9l1.1.8-1.5-1.7.3.6zm10.5 6-1.5-1.4-1.1.1zm-4-3.9 2 2.2-1.3.1-.3-.1V77h-.2l-.1-1.4zm-7.9-10.1 1.9-4.4v-.7a17 17 0 0 0-3.6 2.6v.3l.5 3.2h.1zm.5-5 1.3-.8v-.4zm13.9-13.5-.3.7q1.6.2 3.1.7h-.1zm-5.6 35.2-.1-.4q1.8.8 3.8 1.4l-2-.4-.9-.2zm-3.5-.5 1 1.2.8 1h-.2l-5-3.5-2.5-2.1V77l1.6 1.3q1.6 1.3 3.6 2.2zm-6.3-12.2-.9-1.4.4-.5zm0-2.5q0 .6.3 1.2l.3-1 .3-1-.8.6zm-.6.1-.5.6-1.2-2.8 1.2-1.4zm8.7 15.4.6.3.3.7zm6.5 5.4-2-.7 1 .5q.5.3 1 .2m-2.3-4.7.5.2.7-.1h.2-.2zm-1.6.5h-.4l-.1-.2zM55.6 75l.6.7.5.2 1 .4-1-.8-1.1-1.1v.4zm9-31.7-1.7.9-1.1.3.5-.4q.8-.6 1.7-.8zm-16 19.3v-.3l-.2.7.1-.2zm23.5 27.5.5-.1-2 .9-.4-.3.7-.2h.1zM50 67l-.6-1.9.3 2.5zm.9 1.8-.2-.4v-.1l-.5 1 1.2 2.2V71l-.5-1.3zm.3 3L50 69.6l-.1.2zm1 1.7.4 3.4a8 8 0 0 0 1.8 2.7l1.3 1-.6-3.4-.5-.6zm.1-.3q1.2 1.9 2.8 3.4v-.4l-.9-.8zm3.6 4.7 2 1.8 4 3-.7-.1a14 14 0 0 1-4.7-1.6zm-3.7-5L55 76v-.4l-1.6-1.7-1.2-1.3zm16.2-10.8-1.8-.1-1.2-.1 1-4.3 1.3.3q1.2.2 2.4.8zm1.8-3.3-1.5 3.4 2.1.6 1.6.8.8.4.7.4q1.5 1 2.9 2.2A11 11 0 0 1 79 69l.3.5-1.4-3.2a15 15 0 0 0-5-5.8l-1-.6zM70 91.1l-.5-.4-3.3.3-.7.1-.4.2 1.6.8 2-.6zm10.5-15.4h.3v-1.3zM79 72.8l-1 .5 2-1.3zm2.2-1.6-.5.4zM64.5 91.4l1.7.8h-.4l-2.2-.7zm5.5-2.6-1.3.4.1.1 1.5-.6z" clip-rule="evenodd"/><path fill="url(#b)" fill-rule="evenodd" d="M31.5 92.5a32 32 0 0 1-4.5-7.3 29 29 0 0 1-2.6-8.1l-.2-2a32 32 0 0 1-.7-6.5l.1-3a10 10 0 0 1-1-2.7v.2q-1-2-1-4.2v.2-.3l-.7-.6.6.4a8 8 0 0 1 .1-3.7 7 7 0 0 1 1.4-4.1v.1a10 10 0 0 1 2.1-3.1l.1-.9 1.7-3a13 13 0 0 1 4.9-4.1 10 10 0 0 1 3.5-2q.4-1.2 1-2.2l2.3-2.6 3-2.3a23 23 0 0 1 9.4-3q5-.5 10 1a18 18 0 0 1 3.7 1.2q5.8-.1 10.5 3l1.3 1 2 1a42 42 0 0 1 20.2 17.7l2.5 4 1.6-2.4h.2l-1.5 3.1 1.3 2.9.4 1.1a7 7 0 0 0-.4-3.6q.8 2 .5 4v.1l.1-.3v-.2.1q.3-2.5.3-4.8a36 36 0 0 0-.7-6.4l-.3-1.6v-.2l-.3-1v-.5l-.2-1.2-.4-1.8q.7 1.2.6 3v.1l.3 1.4.1.5.5 1.6q.7 3.2 1 6.4a33 33 0 0 1-.2 6.5q.3 1 .4 2.1l.6 3q.3 2 .4 4.3c.1 2.3 0 2.9-.4 4.4a39 39 0 0 1-2.3 8.4l-3.3 6.7A27 27 0 0 1 83 104l-.5.3-6.1 3.1q-3.3 1.5-6.8 1.7c-4.7.5-9.4-1-13.4-3l-3.7-2.3a35 35 0 0 1-14.8-5.5l-3.7-3a35 35 0 0 1-7.1-6.8h.2a30 30 0 0 0 4.3 4m54.2-46.7 1.1 1 .1.2-1.2-.8zm8.2 9.8.3.5-.4 1.9-.8-.5.6.7v.1h.1q-.3 1.4-.8 2.7l-.1-.6a29 29 0 0 0-2.2-6.6l.3-2.5zm-6.2-4.3-.1-.1-.3.8-.8 2.2.8 1.2.1-1.5zm.8 1.4L88 52v2.4l-.1 2 .5 1zm1 2.1-.1-.4v1zm2.3 9a45 45 0 0 0-1.4-6.7l-.2-.5-.3 3.3 1.7 4.5zm.4 3.3v-.3zm1.2-3.4v.3l3.4-2.3a30 30 0 0 0-2.1-4.9l-.3 2 .2.2q.7 1 .2 2.1-.5 1.4-1.4 2.6m.3 2.1.5 6.1 1.1-2.4 2-4.7.2-.6-.3-1.1zm-.8 8.9-.1-1-.3 1.5v.3zm1.4-.5.8-1.7a63 63 0 0 0 2.7-7l.5 2.3a48 48 0 0 1-1.6 6.3l-2.4 2.3zM93 77.4v-.6l-.5 1zm1.3.4 1.7-1.5-.1.3-1.8 3.6zM92.7 82l.2-3.2-1.7 1.1-.4.7-.4.9-1.5 3h.2zm.8 1.7 1-1.7q.7-.8 1.5-1.4l.9-1a23 23 0 0 1-2.2 4.6l-2.3 3q.6-1.7 1-3.5m-2.4 5 1-2.8-2.3 3.1-2 2h.2a17 17 0 0 0 3.1-2.3m-3 5.9 1-.8 2-1.5 1.7-1 1.3-.8-.3.5-.5.5a40 40 0 0 1-6.9 4.8l-.5.3zm-6.2 3.9a23 23 0 0 0 3.6-2.4l-1.2.5a17 17 0 0 1-5.2 1.8h.1l-.3.2h-.2zm-6 2.2 1.6-.4 1.8-.7-2 .1zm-4.2.7 1.6-.1 1.7-.4 1.7-1.2h-1.7l-1 .5q-1 .8-2.3 1.2m-8.9-.6 3 .5 3.7-.8 2.4-1-1-.1q-3 .3-6 0-4.2 0-8.5-1.3H56l-.9.2a39 39 0 0 0 5.6 2l.9.3-.2-.1v-.2zm4.5 2-.3-.1-1.3.2-4.2.5h-3.6v.1q5.1.2 10-.6zm14.5-3.4-4 1.8-3 .9-1.2.3-3.5.4-.7.1 2.2.4q3.3.8 7 .5l4.3-1.7a13 13 0 0 0 4.1-2.3l.4-.3 1.7-1.7-.6.2q-3 1-6.4 1.4zm2.1-1.3a34 34 0 0 0 6.2-1.6l2.9-4a43 43 0 0 1-6.2 4.1zM61 101.8l-.5-.1a39 39 0 0 1-9.2-3.7l-1.3-.3-1.4-.6-1.3-.5-2-1 .6.9 2.7 3.1q1.4.8 2.9 1.3l1 .6h.2q4.1.7 8.3.3M41.8 91.5l.1.2-2.2-1a20 20 0 0 1-3.8-3.9l3.2 2.3zM26.7 70.7l-.2-.2-1-2q.3.7.8 1.3l.2.4zm.9.7.5.6v.6l-.2-.5zm23.3 24.7.2.1 1.8.8-.6-.1zM87 50.3l-.6-.7-.7-.8-.3 3.7.5.7.6-1.4.1-.3zm-1.2-2.5 1.4 1.3-1-1.4-.4-.3zm-.8.4-.4 3.3-.4-.5-1.1-1.6-.4-.5v-2.8l.8.6zm-1.9-2.3 1 .6 1 .8V47zm-2.4-1-.5-.2-1.5-.5.7 1.8 1.5 1zm8.9 3.6-1.2-1.2.1-.5.9 1 1.3 1.5zm-5.3-5 .8 1-2-1.4-.5-.3-.8-.8-.2-.5 3 1.7.7.6v.5zm1 2-.9-1 .8.7zm-8-5 2.5 1.2.6 1.8-1.8-.5-.5-.1-.4-.8-.7-1.5zm1.2.3-.5-.2h.3zm-1.5-.3h.3l-.4-.1zm1 0-1.2-.4-.3-.6.8.5.9.5zm-1.3 0-.2-.2-2-.7.6 1.8.4 1.3 2.2.1v-.2l-.2-.2zh-1.4zm-1.2-.8-1.2-.2-.8-1.6 2.5 1.3.4.8zm-1 1.7-.8-1.9-5.2-.7 4.1 2.2 2.5 1.7zM68.9 39h-.4a32 32 0 0 0-6-2.4l-1.1-.2a53 53 0 0 1 8.5.2l1.3.5 1.3.6 1.1 1.8zm19 8-1-.9-1.2-1.3v-.5l2.3 2.1zm6 46 1.5-2.8a32 32 0 0 0 3.8-4.6A35 35 0 0 0 103 78l.7-2.4-.2 1.4a48 48 0 0 1-2 8.1l-.4.7.3-1-.2.3q-.5 1.4-1.2 2.6l-1 1.9-.6.9a18 18 0 0 1-4.7 4.3l-1.4.8q.8-1.2 1.4-2.7m-.2-.4a12 12 0 0 1-2.7 3.8l3.1-4.8.5-.4zm-2 4.6.3-.5 2.4-1.4a19 19 0 0 0 4.6-4.6l.5-.9.1-.1-1 2.2c-3.1 5-8 9-13.6 10.8l.4-.3q1.5-.7 2.7-1.9 2.2-1.4 3.7-3.3M73.8 106q3-.5 6-1.5l1.8-.2a24 24 0 0 1-12.1 4.4c-4.6.4-9.3-1-13.3-3.2l-2.5-1.6h.1l3.4.2.5.2a19 19 0 0 0 6 1.4q2.5.7 5.2.6 2.5.2 5-.3m-10.3-1-4.3-.9q4.5 0 9-1l3.2.9 4.6.6-3 .6q-2.2.5-4.5.4-2.6.2-5-.6m-14.8-4.3-.4-.5-3-2a34 34 0 0 1-5.3-4.3 27 27 0 0 1-3.4-3.3l-.5-.2a28 28 0 0 1-8.3-8.4l.2-.1a22 22 0 0 0 5.9 5.6 34 34 0 0 1-3.2-4.5l3.9 5 2.1 1.3h.2l.1.2h.2l-2-3.1-3.7-3.2q-2.4-2.3-4.3-5-1-1-1.8-2.5l-.7-1.6q-.3-.9.2-1.6h.1q-.4.7 0 1.5 0 .6.6 1.1 0 .2.2.3l2 2.5 3.4 3.6-1.1-2Q28.9 78 28 76.6a10 10 0 0 1-1.3-2.8l.2-1.4-.7-1.1q-.8-1.3-1.3-2.7l-.4-1.6-.6-.9v2.2q.1 4.3 1.2 8.4a38 38 0 0 0 2.5 8 31 31 0 0 0 7.2 10l.4.3q2.3 1.3 4.7 2.4l4.8 2h-.1l4 1zm-8.4-7-3-2.6 2.8 1.4 1 .8L44 95l1.6 2 1.2 1.5-1.1-.9a20 20 0 0 1-5.3-4m48.4-43.1-.2-1.1-.1-.2 2 1.6-.5 1.8zM90.3 79l1.4-4.2.3-1.3q.3-3-.3-6l-.1-.5h-.1l-.1.2-.5 1v.6q.6 5.3-.6 10.2m-1.9 6.5L87 87.9q-.6 1.2-1.4 2.3l-.3.7h1l2.5-2.6a35 35 0 0 0 3.4-4.8L89.7 85zm-6.6 9-.2.3.3-.3zM74.6 98l.4-.2 1.8-1 2.5-2h-2.5l-1.3.5q-.4.3-.9.4a23 23 0 0 1-6.3 2q2.3.7 5 .3l1 .1zm4.6-1-.6.4 1.1-.2.6-.6.7-.6zm-34 3.9q1.4.6 3 1zm38.3-56.1-1.3-1.1.2.6zm-17.9-9.7-.7-.1q-5.2-1.3-10.6-.6l-1 .4q2.8 0 5.7.3v.2a20 20 0 0 0-4.5-.1q2 0 3.8.4h.3zm-8.1-2a27 27 0 0 1 7.8.8l5 1.4h.5l-1.6-1.6-1.4-1.2-2-.2q-4.2-.4-8.3.9m-6.3 1.5-1.9.7-.3.2h-2.2a24 24 0 0 1 4.4-1m-6 1a26 26 0 0 1 6.4-1.8l1.7-.2a25 25 0 0 1 8-3.4L63 30l-2.2-.7a23 23 0 0 0-9.6-.9q-5 .5-9.2 2.9l-3 2-2.3 2.7-.9 1.7.3-.1a28 28 0 0 1 8.5-2zm-.2.5h-.1a18 18 0 0 0-5.9 3.3 13 13 0 0 1 4.5-3.1 31 31 0 0 0-7.1 1.7l-.8.3a17 17 0 0 0-1 5.3q.1 1.2.4 2.3l.8-1.2a32 32 0 0 1 4.8-4.6 24 24 0 0 1 5.5-3.5l1.5-.5zm30.4 1.5L79 40l-1-1.7-2.9-.9zm10 19.3 1.2 1.8.1.2v.7A55 55 0 0 1 84 68h-.4v-1.5l-.3-4 .9-3.8zm2.5 1.5.6 1.1v-1.2l-.5-1zM87 57l.1-.9-1-1.4v.1zm-6.2-8.4L80 48l.7 2q.2-.6.2-1.3m1 4.8v.3l.3 1.3.5 2.3-.3-2.6zm1 13.3-.2-2.3-1.1 3.4-.3.8 1.5-.3zm0 3.5-.2 1L81 75l-.3.2a21 21 0 0 0 0-4.5zM81.1 78l-.5.9-1 1.4.4-1.5.1-.4 1.2-1.2zm-7.3 8.4-1.2.6 2.7-2.7h1zm-3.4 1.4-1 .3-1-.5-.4-.2 2.7-2.2.7-.7h3l-.7.6zm-1.9.5q-1 .3-2.1.4l1-.9.5.2zM56 87.5l-1.7-.6 2.1-.2 1.7 1.2-.7-.2zm23-4.8 1.4-2 1.5-2-2.3 4zm4-9.5.1-.3 1.4-3.1.6-.2-.7 1.8-1.1 1.6zm-39.7 7.6a39 39 0 0 0 5.3 4.3 24 24 0 0 1-4.7-2.3l-.5-.3-2.6-3.4 1.4.6zm11.7 9-6.1-2 3.8 2.6 2.6-.4zm-9.6-3.2a32 32 0 0 0 4 3.2l-.1.2.7.5-2.3-.2-.8-.1A72 72 0 0 1 40 85l-.2-.5-.2-.6 2.5 1 2.7 1zm13.2 6.7-1.6-.6.5-.1 3.4-1.2 2.7.3a31 31 0 0 1-5 1.6m-3.5-1.6-.6-.3 2.8-.8 1.4.4-1.5.5zm10 3h-1.3a16 16 0 0 0 3.9-1.3h.2q-1.4.8-2.9 1.4m-4.8.4 2.2.6-.6.1-.7-.3zm8.3-1.4-1.9 1.1q3.3.1 6.6-.3l-.9-.2-2.9-.4zm-3 2.4q3 .3 6.3 0-4 1-8.1.4l-.5-.1 1-.4zM81 91.3l-1.6 1h-.5q-4 .7-8 .2l-.4-.1 3.1-2.5.5-.1.8-.1q3.7-.3 7.4-1.3L85 87l-1 1.4-2.6 2.7zM89.2 81l-.1.4-2.7 4-.4.4-3.4 1.3a12 12 0 0 0 2.5-2.4l2-2.8zm1-11q.4 4.8-.6 9.7l-1.8.8a27 27 0 0 0 2-7.4v-2.5zm-1-5.4.5 1.5h-.1zm2 .8-.6.3-1-3.6.2-1.2 1.5 4.3zm-7 28.8-1.7 1-1.6 1.7 2.3-1.1q2.5-1 4.4-2.7l.4-.3h-.2q-1.2.7-2.7 1.1zM38.5 77.8l2.2 3.3-2.3-1.7-.2-1.8zm-3.8-6.3a17 17 0 0 0 2.2 3.4l-1.2-2.5zm-.1-.4.9.8-1.3-3.6-.7-.7zm-1.1-4.4.5.5-.5-2.3h-.1v1.8m-2-9.1 2.8-4.6q.3-1.8.8-3.4l.6-1.6-.2-.4L34 50v-.2l-2.3 5a26 26 0 0 0-1.2 4.9zm4-10 .2.3.6-1.3-.4.4zm1.5.5a20 20 0 0 1 2-3.7l.8-.7zm0-2.7v-.2zm5-4.4 1-.8-1.7 1.8-1 .7zm5.8-3.6.2-.1-2.3 2-.5.3zm3.5-1 1.9.2-3.3 1zm1.3-.2q1.5-.2 3 0-.8 0-1.6.3l-.6-.1zm20.1 5.5 2 1.3-.8.2-2.1.6-.7-.4-4.7-2a19 19 0 0 0-4.6-3.6l3.2 3-3.4-1.8a32 32 0 0 0-5.5-2l3-.5 3.5.8a38 38 0 0 1 10.1 4.4m5.6 2.6-1.4-.2 2.2 1.7-.6-1.5zm-6.5-9 .4.2h-.4l-2-2.1-.6-.6 3.2.8 1.7.5.4.2 2.2 2-4.3-.7H72zM76 44l1.4 1.1-1.4-.4zm4.2 5.5-.6-2-1.4-.8-2-1 .1.8zm-4 1.3.2-2.5 3 2.3 1.2 1a35 35 0 0 1-2.3 7.3l-.2.5a48 48 0 0 0-4.1-7.9l-1.5-2.2-1.1-2.3-1.3-1.4q.7-.2 1.5-.2l4.6 2.8zm-.3-4.5-1.5-.9 1.4.3zm-6.2-1.7-1-.6.5.7zm-2-.1-1-1.3a35 35 0 0 0-6.9-2l-4.6-.4q-1.5.5-3 1.4a25 25 0 0 0-4.7 4.6 47 47 0 0 0-5.5 9.8l.7.6a37 37 0 0 0 6.8 4.4l1 .5 2-4.2c1.5-3 3.9-5.2 6.3-7.5l1.9-1.8A35 35 0 0 1 68 45zM52.2 42a9 9 0 0 1 2.8-1.4q-3 0-5.8.7l-1.7.5-2.7 1.8q-1.6 3-2.4 6.2a24 24 0 0 0-.5 5.8q2.1-4.9 5.4-9 2-2.8 4.9-4.6m4.8-3.1c-2.5-.6-5.2 0-7.6.8l-.5.2h-.1a21 21 0 0 1 5.5-2.8l.2-.1.5-.1q3.3.7 6.4 2.2 1.5.6 2.8 1.4l-4-1a30 30 0 0 0-5.3-.4h2zm-11.7 2.2-.6.3 1.7-1.7.6-.3-.8 1zm-2.8 1.6-1 .7 1.8-2 .6-.4zM38 52.3a44 44 0 0 0-3 6.3l.1 2.3q.2 1.8.6 3.5l.5.2 2.1.6.1-.4.5-1.6a23 23 0 0 1-1-7.2l.3-3.4zm.1 14.1-2.1-.6 1.6 4.4q.1-1.9.5-3.8m1.1 6-.8-.5a32 32 0 0 0 2.9 4.5q2.3 1.5 4.8 2.4l2.6.6-1.8-2.2a53 53 0 0 1-7.7-4.7m6.8 6.9-3.7-1.7 1.8 2 2.2.5 3.4.4-.2-.2a16 16 0 0 1-3.5-1m-7.2-4.2 2.4 3.3-1.2-.8-.5-.9-1.2-2zM37.5 73l-.3-.6zm8.7 7.7-1.3-.3a31 31 0 0 0 8 6l2.8-.2A49 49 0 0 1 50 81zm35.4-25.4.7 4.4-2.7 4-.7-2.1.5-.8-.5.6 1-2 1.6-4.6zm1.8 2A7 7 0 0 0 82 53l1.8 2.2-.5 2.3zm.8-3.7-1.8-2 .1-1 1.8 2.8zM60.7 81.2l2.1.5q3.4.8 6.8.3l.8-.4a43 43 0 0 0 6.2-8q.9-1.2 1.6-2.7h-.5l-3.7.4-2.5 2q-3.6 2.4-7.8 4.3l-.7.3-2.9 1.3-.5.2zM71 83l-1 .1-.7.3h1.3zm7.4-3.3-1.7 1-3.3 1.6-1 1.1 3-.2 2.2-2.5zM57.7 81l-1.6-.8-.6.1zm-5.8-.5h-.5zm-1.5-1h1.1l-.1-.3h-.2L51 79l-1.6-.6.6.6zm2.9 0q.7 0 1.3-.2L51 76.6l1.3 2.6zm-3.5-4.1v.2l1.2 3-2.3-1a48 48 0 0 1-6.5-9.4l-.6-1 2.8.6a30 30 0 0 0 5.4 7.6M45.1 68a27 27 0 0 0 4.3 5.8 18 18 0 0 1-.4-5.1zM44 66.8l-3-.8-1.2-3.3 1.4-4.2.3-.8a30 30 0 0 0 1.3 6.1zm-2-10q.3 3.5 1.4 7l1.3 3.2 4.5 1.1.2-1.7q.3-2.1 1.1-4.1l-1-.5a38 38 0 0 1-7.5-5.2zm-.5 0V56l-1.1-1-1.1-1.2-.2 1.8q-.1 3 .5 5.8l1.2-3zm-2.2-3 1.1 1.2 1 1a24 24 0 0 1 .5-6.2q.6-2.7 1.8-5.2l-.7.6-2.4 3a25 25 0 0 0-1.3 5.5m9-14.7-.2.2.5-.3zm17.8-7.5a20 20 0 0 0-4.9.2l-.8.2a28 28 0 0 1 5-.3h.8zm2.4.4-1-.2h.1zm9.7 4A44 44 0 0 1 84 39l-4.7-2zm2.3 3.4 2.7 1.3q5.6 3.1 9.6 8a28 28 0 0 1 3.2 5.6l1 2.3-2.4-3.3v-.4.3L92 50.5l-.9-1.2.3-2-.5 1.7-1.3-1.5-1-1v-.1l.1-1.1-.3-.6-.8-1.2q.6 1.2.4 2.4L85.7 44v-.4q-.5-2-1.5-2.2l.3.2q.6.6.8 1.2v1l-.8-.6-3-1.6zm-5.1 25.2 2-3.7-.4-.9a69 69 0 0 0-3.5-6.8l.1.9-.1-1-.6-1-4-6-3.3 2.2a18 18 0 0 0-3 3.3q-1.7 2-3 4.5l-.5 1.3-.5 1.2-1.1 2.5-.7 3.3a45 45 0 0 0 8.1 1.4q4 .4 8-.5zm2.9-1.7.6 2a49 49 0 0 1-4.8 5l-.8.1a38 38 0 0 0 5-7M71 70a42 42 0 0 0 4-5.1l-1.7.5a27 27 0 0 1-8.2.6q-4.4 0-8.2-1.2h-.3v4.7q6 .6 12.3.6zm.8 1.4h.4l-1.5 1.2-1.2 1zm-12.8 7 .7-.3a26 26 0 0 0 6-3.2 33 33 0 0 0 4-3.5h-.5a156 156 0 0 1-12.5-1.5q0 2 .5 3.7a17 17 0 0 0 1.8 4.7m-.5.2a18 18 0 0 1-1.8-5l-.6-3.6-3.7-.6-3-.5q-.3 3 .8 6l.6.5a29 29 0 0 0 5.2 3.9zm.7 1 .7 1.4-2.3-1q.8-.1 1.5-.4m21-7.9q.2 2-.1 4v.1l-3.6 2.4q1.8-2.6 3.4-5.7zM67 86.6l2.8-2.3-1.3-.1q-1.2 1-2.5 1.8zm-3 2 2-1.2.4-.4-1-.7-3.6 2.2h1.5zM54.3 93l.7.4h-.2l-1-.3zM51 91.8l1.5.2-.4-.2zM30 67.4q.3 3.2 1.4 6.2l.5.5q-.6-4.1-.2-8.4l-1.2-1.5-.4 2zm4.7 12.2-.1-.3 1.7 1.3 2 1.3v.4a14 14 0 0 1-3-2.1zm-1.1-4a25 25 0 0 0 4.2 3.4l-.2-1.8a18 18 0 0 1-4.6-6.8q0 2.7.6 5.3m5.7-3.6-1-.9q.1-2.3.6-4.5l1.4.4 1 2a55 55 0 0 0 4.9 7.3 54 54 0 0 1-6.9-4.3m-.2-6.5.2-1 .4 1.1zm2 18-2-1.2v.3zm-2.1.7-.2-.7-.6-.3-1-.6zm-7.1-19.9v.4l-.6-.6zm4.4-12-.1.2zm1.7-.2.4-.6-.2 1v-.3zm9 41.2-2-1.3q1.7.8 3.5 1.3l1 .3.6.3q-1.3-.1-2.7-.5zm6.1 2.2-1.8.1h.1l3 1.4 1.7-.2h1.7l-4-1.3zm50.8-24a35 35 0 0 1-1.5 6.2 32 32 0 0 1-2.7 5.6l.7-2v.1a25 25 0 0 0 1.9-10.6l.5-1.3.6-2.3.2 1.5zm-79-9.3.4-.7-2.2-1.5.7 2.2.4 1.3zm.6-.6-.4.7q-.5.7-.7 1.5.5 1.3 1.4 2.3l1.9 3a23 23 0 0 1-.4-6.7zm.1-.8L23 59.5l-.1-.8a9 9 0 0 1 0-3.7 6 6 0 0 1 1-3.6q.4-1 1-1.8l-.2 1A14 14 0 0 0 26 57l.4 1-.6 2.4zm.9-2.7q-.2 1.2-.6 2.3v.5l1.5.6.2-1.4zm.1-1.4q.4-2.3 1.4-4.4-1 2.1-1.3 4.6l1.1 2 .5-1.6a30 30 0 0 1 3.7-6.8l.7-1.3 2.2-3.3-.5-2.6a15 15 0 0 1 .7-5L32.2 40q-2.7 1.4-4.6 3.9l-1.7 3v.2a28 28 0 0 1 6-4.7l.1.2a32 32 0 0 0-5.5 5.1l-.8.7-.3 1.9a13 13 0 0 0 1.2 6.4zm33.8 40.6-3.2.6a36 36 0 0 0 7.5 1.3h4.8a58 58 0 0 1-7.1-1.5zM96.7 77l-.7 2 1-1.2v.2l.8-1.1q.3-1.6.4-3.3l-.6.8zm1.7-13.6.3 1.4.1-1.8-.1-.5zm1 3.2-.2 1.3.1 2.5v-3.8m-70.5-4.5-1-1.4-.1 1zm-.2 4.3v-3.2l-.6-.3-.4-.2a22 22 0 0 0 .5 6.2l.5-2.3zm.3-5.6.1-1.1q.5-2.9 1.4-5.4l.8-1.7a25 25 0 0 0-2.6 5.2l-.5 1.7zm44.8 19 1.1-1.8-2.4 2.5 1-.5zm8-17L80 65.3l.3 1.7 1.4-3.8zm-5.6 6.7 3.2-3.4.3 2q0 .3-.2.5v.2l-.2.2-2 .3zM61.4 82.9a60 60 0 0 1-7.1-2.3l-1.1.1a27 27 0 0 0 4.5 5.2h.5l5-1.3-.3-.1zm-8-.2-1.2-1.9h-.6zm-22.6-20 1.2.4q0-2.5.7-5l-.1.2v.1a26 26 0 0 0-1.8 4.3M86 67.3l-.5.2a46 46 0 0 0 1.7-6l-.4 3-.3 1.5zm-.3 5.6 1.8-1.7 1.3-1.4v.3L84 78l-3 4.2-.6.2 1.8-2.6q1.9-2.8 3-6zM67.5 84l-2.1 1.5-.8-.5zm-3.8.3 1.8-.6-1.7-.3-1.6-.4 1.1 1.1zm.2.8 1 .8-4.3 2.2-2.3-1.8zM86.8 70l.4-1 1-.5zm7.5-10.8-.8 3 .7-1.3q.4-1 .1-1.7m-7 4.1.3-.8-.3-1v-.3l-.1.2zm1 2.4.1.6-.3.2zM77.3 83l1-1 .3-.9.5-1.5-1.2 1.6-1.6 2 .7-.2zM27 72.7l1.6 2.6.6 1.7-.6-.8a6 6 0 0 1-1.5-2.5zm32 22.6h-.5l1.1.3-.4-.2zm39.2-33.1.2-.2h-.1zm.7-6.6-.3-.7 1.7 3-.5.6-.3-1v-.3.2zm-33.2 37q-1.3.7-2.7 1.1a16 16 0 0 0 3.9-.7zm2.7-1.5-.6.3-.2.1 1.6.5 3.4-2-1.2.1-2 .8zm4.5-1-3.1 2.1h.3zm2.7-1.9 5.2-.9a12 12 0 0 0 5.3-5.3l-2.1.7-3 .6-1 1a39 39 0 0 1-4.4 4m-.4-.2a30 30 0 0 0 5-4.7l-.6.1-1.3 1.4zm6.8-6 2.5-3.2a76 76 0 0 0 4.2-6.7v1a22 22 0 0 1-2 7.5zm-7.2 6.3 3-3.5 1-1.2-.7.1a13 13 0 0 1-2.3 2.8l-2 2zM56 64.5v4.8l-6.7-1.1q0-1 .3-2 0-2 .9-3.9zM50.7 62l5.5 2q.2-1.7.7-3.4l1-2.5 1.1-2.5a33 33 0 0 1 3-4.7q1.4-2.1 3.3-3.6l.6-.5a31 31 0 0 0-13.2 11l-.8 1.6zm50-3.1-.6.8q.6 2.6.9 5.2l.2 1 .2.6 1.1-2.6-1-3.2zm-25-14.4-.2-.6-2 .2q1.1.1 2.1.4M71.2 47l.8 1.5-2.2-3zm-2.8-3.2.7.8-.6-.6zm33.2 23.4q.7-1.4 1-2.7l.2.6-.8 3.5zM97 58.9l.7 2 .2-.3-1.1-2.2z" clip-rule="evenodd"/><path fill="#b19346" d="m104.8 58.7-1.1-4.2v5zm-35.1 7-1 5.3-2 3.8zm3.3 9.8h-1.6L68 77.8zm-49.4 8.6 4.5 3.9 1.4 3.1zm21.5 19.7-8.5-2.2 6.7 2.7zm40.9.8 5.2-5.7-1.3 3z"/><path fill="#e8a556" fill-rule="evenodd" d="M109.6 62.9a6 6 0 0 0-.6-4.2 9 9 0 0 0-1.6-3.9v-.2l-1-3.3a14 14 0 0 0-4-5q-1.3-1.6-3.1-2.8l-.4-1.6-1.6-3-2.6-3a22 22 0 0 0-8.5-4.8 25 25 0 0 0-10-1.2l-4.3.7a15 15 0 0 0-6.3-.3 12 12 0 0 0-4.3 1.3h-.5c-2.2 0-14.5.3-26.8 14l-3 3.2-1-2.9h-.2q.3 1.6.9 3.2l-2 2.7-.6.8q.2-1.7 1.2-3.2A7 7 0 0 0 28 53l-.2.1V53s0-.2.2-.2q.1-2.6.8-4.9a43 43 0 0 1 2-6L32 39q.5-1.5 1.3-2.9l-.3.2-1.5 2.7-1.5 2.9a32 32 0 0 0-2.4 6 39 39 0 0 0-1.1 7.6q0 .2-.2.3l-1.7 3.6v-5l-1.2 4.1 1.2.9q-.8 2-1.3 4.2c-.5 2.2-.4 2.8-.5 4.3q-.3 4.3.5 8.6l1.8 7.2a27 27 0 0 0 14 14.8l.3.4a27 27 0 0 0 5.4 4.4 30 30 0 0 0 6.2 3 24 24 0 0 0 13.8-.2q2.3-.7 4.4-1.7 7.6.5 15.1-2.3l1.2-.5 2.2-.9a38 38 0 0 0 9-5.3l-.1-.2a31 31 0 0 1-6.6 3.7 34 34 0 0 0 7.4-7.2 40 40 0 0 0 4.2-7.4 33 33 0 0 0 2.7-8.1l.5-2.7a13 13 0 0 0 2.2-3 13 13 0 0 0 1.7-3.4l.5-.3v-.2q-.2 0-.3.2v-.2q.8-1.4.6-3.7M102 46.7a17 17 0 0 1 3.8 4.7l.5 1.7a27 27 0 0 0-4-4.7l-.2.4a23 23 0 0 1 4.4 6.2s0 .2.2.2l-.2 3.2a16 16 0 0 1-2.5 6q.1-2.4-.5-4.7c.5 1.7.3 3.4.3 5l-1.5 2-.2-1.6a21 21 0 0 0-1.8-6.6l-.5-2.7-1.4-3.3q.6-1 .9-2.2.7-2.8.3-5.6a9 9 0 0 1 2.4 2m1.7 21.4.1.7-1.7.3v-1.5l1.6-1.7zm-.4 5.4-2.8 2.7A26 26 0 0 0 102 70l2-.5q.5 1.2.6 2.6zm-3.2 7.7a8 8 0 0 1-2 2.2q-.7.5-1.3 1.2l.1-.2 1-1.7 2.6-2.5q0 .5-.4 1m-12.8 14 .7-.4a26 26 0 0 1-5 3.2 25 25 0 0 1-6 3l-2.1.7 2.4-1.6 1-1q2.4-1.1 4.8-1.9l2-1.2zm-29.4 9q-2.5.3-5-.4a13 13 0 0 1-4.4-1.4l-3.9-1.7.5.2q2.6.5 5.4.5h3a50 50 0 0 0 9.8 3zm-18.3-6.8a8 8 0 0 1-2.5-2l-2.4-3.7.3.2a38 38 0 0 0 6 2.7q.5 0 1.1.3 1.5 1.3 2.9 2 1.8 1.2 3.8 2l1 .4 1.6.7 1 .5h-2a35 35 0 0 1-8.5-1.5zm-9.4-14.1.5.7 2.3 5.7-.5-.3a16 16 0 0 1-1.7-4zm-5-20.5 1-2.9.3-1v1.5l.3 2.2-.3 2.2a31 31 0 0 0 .1 7.9q0 2 .5 3.7a28 28 0 0 1-2-7.4zm65.2-22.2a21 21 0 0 1 5 4.4l.3-.2a18 18 0 0 0-4.4-4.4 27 27 0 0 1 7 3.4l.5.3a16 16 0 0 1-.1 5.7l-.7 1.9-.5-1.2a25 25 0 0 0-3.7-5.5 24 24 0 0 0-4.7-4.6l-1.3-.8q.8 0 1.3.3zm11.1 26.6-.6.6.1-1.1q.2-2.6-.1-5 .5 1.4.6 3.3zm-29 33 2.8-.6 1.5-.3-.1.1-4 3q-1.2 0-2.3.4l-.6.2H69a34 34 0 0 1-8.2-1.5q-.4 0-.9-.4h1.9a50 50 0 0 0 7.2-1zm-21-.1 1.5.5.9.1h.1-.8zm45-48.8.3.8-.5-.6-.5-1.6zm-41 48.4q-1.2-.7-2.5-1.2L50.8 97h.2l.5.1q3.1 1.2 6.2 1.5 3.8.5 7.6.5l.5.2q-2 .5-4.2.5-3 .4-6-.2M30.4 80q-.2-.1-.3-.6V79l.5 1.2zm8.8-32.6.3-.2-1.5 1.4.1-.3zM37 87.6l-1-1 .5.2a9 9 0 0 0 2.3 1.5l.7.3q1.3 1.5 2.5 2.5l.9 1.4q0 .3.3.3L40.8 91a12 12 0 0 1-3.7-3.4m-5-32.3.3-.3zm65.4 14.5v-2.4zM37.4 56l-.5-1.7q-.2-1 .3-1.7zm24.5-19.4-1 1.2h-1.8l.5-.5zm2.6-.6 1.8-.4q4.3.5 8.3 1.7H73l-6.1.9q-2.8-.5-5.7-.7l1.3-1.4q1.3.2 1.9-.1m-15 59.5-1.2-.7-1.8-1.6-2.2-2.7 3 .6 1.7 1.4a20 20 0 0 0 6.6 3.3H54q-2.5 0-4.5-.3M30.7 70.3l-.4-.9q-.1-2 .4-4.2l.1.2.5 4.2.4 1.9q-.6-.5-1-1.2m14-22.9q-.4.7-.4 1.7-.3 1.3-.3 2.7l-.2.1-.4.4.2-.9q.3-2.2 1-4-.2 0 0 0m14.3-9q.6 0 .9-.2h1l-1 1.3-.9 1.2-1.8-.4 1.5-2 1.2.4v-.2zm-9.6 54a30 30 0 0 0 8.4 2.4l1.5 1.2a19 19 0 0 1-9.9-3.7M42 55v.8a20 20 0 0 0-2.2 4.2l-.5-.5A20 20 0 0 1 42 55m40.9-14.5q1.9 1.3 3.2 3l-1.5-.6a18 18 0 0 0-6.4-2.4v.2q1.8.3 3.2 1a37 37 0 0 0-6.2-1l-5.2.1a15 15 0 0 1 3.8-1q3-.5 6-.6 1.5.5 3.1 1.3M55.8 92q0-.3 0 0m31.5-20.2-1 1.2a49 49 0 0 1-7.4 7q-1.6.5-3.3.7l1.6-2.7.2-.1a30 30 0 0 0 6.7-6.3q1.7.3 3.3.2m3.8 13.1-.8.5-3 1.4.1-.4 2-.8q1.3-.3 1.7-.7.3 0 0 0m-5.7 4-.5.9-3.9 1.8-4.1 1.6h-1q-.7 0-1.3-.2l.6-.2v-.2l-1 .4-.8-.2a42 42 0 0 0 6.2-3l1-.7L83 89l3-.6zm-5.7-19.6-.2 1.5h-3.4l-3.8-.2.3-1.7a9 9 0 0 0 .5-2.8 40 40 0 0 0 6.2-1zm-4.9 11.6-2.7.5-.7-.4a30 30 0 0 0 5.3-2.5zm11.4 1.5-1 .3 2.2-1.8.5-.4-.7.9q-.4.7-1 1M68.3 93l-2.1-.7-1.7-1h1.8a9 9 0 0 0 2.9 1.5q-.3 0-.4.2-.2-.3-.5 0M39.7 80 38 75.5v-1l.8.7q.5 2.4 1.7 4.7l.9 1.3-1.4-.8zm0-12v-.4q1.1 3.3 2.4 6.5l1.7 3.6-1.2-.7c-2-5.2-2.7-9.2-2.9-9q.6 4.5 1.6 8.2-.7-.3-1.4-.9a36 36 0 0 1-.2-7.4m1.4-5.2 1.3.9.2.8v1.2l-.2-.2-1.3-2.4q-.3-.2 0-.3m.8-2.5q0 .7.2 1.3l-.5-.3zm14.7-12 .5-2.5q2.3-1 4.8-1.7.7.4 1.4.4l-1 .8-1.9 2.4-1.6 1.5a46 46 0 0 0-5.8 7q-.8-4-.6-7.9l1.3-.8 3.2-1.5zM72.2 69l-.3 1.7q-6-.5-12.1-1.8l-1-2.9.5 2.7-1.6-.5-2.7-5.4v-.1l1.7 1a25 25 0 0 0 8 2.3 66 66 0 0 0 8.2.5q-.5 1.2-.7 2.5M55 90.5q-1.7-1.5-3.3-3.2h1.2l2 1.5 1 .3.8.9.2.1zm-7.3-18.9q.1-2 .7-3.8l.2.5q.9 3.6 2.5 7.4-1.8-1.5-3.2-3.4zm3.9-15.3.3 1.5-.1.4-.4-.7.4.8-1 1.9q-1-2.1-1.7-4.2l1.6-4.2.4-.7a18 18 0 0 0 .5 5.2m7.7 13.5.2 1.2.8 1.3-1.8-2.9zM73.7 83l.7.1-2.7 1.7a7 7 0 0 0 2-1.8m-23.2 2.8q.4 0 .7.2l.6.2q-.6 0-1.1-.2zm2.4-8.7-.7-1.9 1.7 2.9-.9-.8zm10.6.3 2 1.4 1.3 1q-.5.8-1.3 1.5h-2a18 18 0 0 1-6.8-1.2l-1-.5-.2-.2a35 35 0 0 1-4.2-8.7q-.7-1.8-1.1-3.5l1 .3 3 1 2.5 3a44 44 0 0 0 6.8 6m3.7 2.6 1.3.7-2.2.3zm-5 7.7-1-.1-1.1-.2-1.4-1.2-.1-.3 1.2-.5h.1zm-2.4 1.4-1.5-.7q1.1.5 2.4.7h.3zM46.5 73.8v-.5l.6.8.2.7v1.5l-.5-1.3zm9.7 7.7h-.7l-.5-.1-.3-.7 1.4.7zm-3-1.6.7 1.1-3.6-1q-.8-1.2-1.3-2.5l-.7-1.7 1.7 1.9zm1.5 2.7 2.7 3.2-.8.1-.9.2-1.5-.8-2.4-3-1-1.6 3.4.8zm3.5 4.3.7.5-.5-.1-1.5-.7 1-.3zm-8.9-6.5.7.1 2.4 3.6-1-.9q-1-1.2-2-2.8M48 77.5q-.3-.6-.2-1.3l.7 1.5 1.2 2.2-.5-.2-.2-.2-.7-1.3zm10 8-2.6-3.4v-.2h.1l1.4.2 2.5 2.8zm-.5-3.4 3.5 2-1.3.5a11 11 0 0 1-2.2-2.5m-5.9-16-2-.8V65q0-.4-.2-.4v-.1l.8-2 2.4 4zm-2.4-2.5q-.5-2-.6-4.2v-1l1.3 3.4zm19.2 24.6H67l1.2-.7.1-.2 1.7.5zm-2.3-.7-1.5.5h-1l-3.4-2.8 1.5-.7q2.3 1.2 4.9 2.2l.6.1q-.5.5-1.1.7m-4-3.9-.4.2-2.5-1.5h1.5q1.3.3 2.3.2h.5q-.4.7-1.5 1.1m7.8-2.1q.2 0 0 0m-13-12 1.5 2.4-.8-1-1.3-1.9q.3 0 .5.2zm-2-2.3a46 46 0 0 1-3.6-6.3l1-1.6.4.5a44 44 0 0 0 3.2 7.7q-.8 0-1-.3m-9.4 6.4v.3q.4 2.3 1.5 4.7l-.4-.2q-1.4-3.8-2.3-7.7.5 1.5 1.2 2.9m1.8 5.8a17 17 0 0 0 2.4 3.7q.6 1.4 1.5 2.4l-1.4-.5-2-3.5q-.5-1-.8-2.2zm-.2 1.9q-.8-1.3-1.3-2.5h.2a6 6 0 0 0 1.1 2.5m-1.5-1.2q1.4 2.3 3.2 4.5-.9-.1-1.7-.6a37 37 0 0 1-3.8-6.3l1.3.7zM71 87.8l-2-.7a47 47 0 0 0 6.2-3.7q2.3.6 4.6.7h.3a33 33 0 0 1-9 3.7m0-5.7 2 .8a23 23 0 0 1-5.3 3.9l-1-.4-4.3-2 2.3-1.7 2.2-.3 3.5-.3zm-3.8-3.2a26 26 0 0 1-5.2-4.4l-.8-1-1.2-3.6q5.8 1 11.6 1.2l-1.3 3.7q-1 2.3-3 4 .2.3 0 0m-3-13.6a25 25 0 0 1-7.7-2.2q-1-.4-2-1.1-.8-2.1-1.3-4.4l.5-.7q2.2-3 4.7-5.9l-.2.5.4-.8.8-.8 5-5q1.5 1.4 2.7 2.8a13 13 0 0 1 2.2 3.8 32 32 0 0 1 2 5l.5 2.8.5 2.7a10 10 0 0 1 0 3.2q-3.8.8-8 .1m-2-19.8 1.1-.9h.2l-2.5 2.2zm10.7 16.8-.5-2.7-.5-2.7q-.8-2.7-1.8-5.2a15 15 0 0 0-2.4-4.2l-.5-.7a28 28 0 0 1 4.2 3.6c2.9 2.8 5.6 6 6.6 10l1 4.4q-3 .7-6 .9a11 11 0 0 0 0-3.4m-22.4-13v.4l-.9 1.7-1.2 2.7v-.4q.3-1.4.9-2.7zm-3 14 .2 1.4-1.2-.5.3-1.5.5-1.8.2 2.3m.4 3.4a25 25 0 0 0-1 5q-.4-.3-.4-.6l-.7-2.7.2-2.8 1.8 1m-3.5 0 .5 2.2-.5-1.2-.5-2.9h.2zm-.7-3.9-.1-1.5-.2-1.5q0-.7.2-1.2-.2 2 .1 4.2m-.6-4.9v-.5q0-.3.3-.6zm-2 8.3 1.2 1.9.2 1.8a28 28 0 0 0 1.6 6.4l1 2.2h-.1l-2-4.6-2.9-8.9.2-.3zm.2 11.1q1.1 3.3 2.7 5.9a15 15 0 0 1-2.9-3.5q-.7-1.4-1.2-3.2zm6 8q.9 0 1.7.6.4.3.4.5l-1.7-.5q0-.5-.3-.7m2.8 2.2 2.2 2.7-3.4-3zm10 3.9q.2 0 .3-.2l2.7.3 2.5 1.5 1.3.5-2.5.6h-.2zm7.8 0q.7 0 1.3-.2 3.6-.2 7-.8a30 30 0 0 1-5.3 2.2zm13.3-5q-1.5.6-3.2.8l4-2.2 1-.6 1.4-.2-2.2 1.9zm-.1-2.7h-1.6l-2.2-.2 3-.1 1.8-.4zm-8.8-1.9q1 0 1.9-.3l-.7.7q-.5 0-1.2-.4m3.9-3.8a31 31 0 0 1-6.4 2.8q-1.1-.4-2.2-1.1a20 20 0 0 0 2.9-4.4q.9-1.8 1.3-3.9l4 .4 3.4.1q-.3 2.9-1.9 5.4zm2.8-13.1-1-4.4A23 23 0 0 0 72 49.9a36 36 0 0 0-5.6-4.5l-1-.9.8-.8 1.4-1a53 53 0 0 1 7.4-.5q2 0 3.7.5A10 10 0 0 1 82 45a21 21 0 0 1 3.7 5.6A47 47 0 0 1 89 61l-1 .5a37 37 0 0 1-7.6 2.9zM65.8 43l-1 .9h-.2zq-.2 0 0 0m-1.5.5-.2-.1.7-.2zm-1 .2s-.2 0-.2-.2q0 .3.2.2-.3 0 0 0m-9.8 2.4.4-.5 1.8-.5zm-1 .5V46l.4-.2zm-4.4 6.7v-2.4l2-1.5a10 10 0 0 0-2 3.9m-1.3-1 .5 1.7q0 2.3.2 4.3l-1.2 4-.3 1.4-.5-.3a73 73 0 0 1-.7-8.6v-.3l.7-1.2zm-8 22.2-1-.7q0-4.5 1.3-9l-.5 2.8a19 19 0 0 0 .1 6.9m4.9 12.4q0-.2 0 0-1.3-1.7-2.2-3.3l-1-2 1.9 1a9 9 0 0 0 2.3 2q.6.5 1.4.8a21 21 0 0 0 4.8 4.7 23 23 0 0 1-4.8-1.3q-1.3-.8-2.4-1.9m25.2 7.6-.6-.2q.5 0 1.1-.3l.5-.2h.5a2 2 0 0 1-1.5.7m2-.8.6-.2.6.2zm12.9-6 3-1-.1.4zm4-3.9-1.8.8 1.7-1.6.5-.2q0 .5-.4 1m.9-4-.4.1.9-.8zm-4.9 1.8q-1.7.5-3.4.7a14 14 0 0 1-3.7 0l.2-.2 2.9-2.2a54 54 0 0 0 8.7-3q.3 0 .5-.3a29 29 0 0 1-5.2 5m-7.2.2-.7.5-1.2-.2.9-1h.1q1.5-.2 2.9-.7zm1.7-5.4q1-2.3 1.5-5l3.8.1a25 25 0 0 1-5.3 5m1.5-5.8.1-1.5q0-2-.3-4l1-.4a41 41 0 0 0 8.4-3.5 29 29 0 0 1-2.8 6.5q-.7 1.5-1.7 2.7-2.5.3-4.7.2m6.4-20.4q-1.4-3.1-4-5.5-1.2-1.3-3-2 3 .6 6 2l1.6 1q1.1 1 1.9 2a24 24 0 0 1 1.2 6.7 19 19 0 0 1-.7 5.4 32 32 0 0 0-3-9.6m-28.5-6.9q-1.8.6-3.5 1.4l.3-.5 1.2-.5zM53.5 45l-.3.5-.7.3v-.1zM51 46.7q0 .6-.2 1l-2.7 1.9v-.2l2.4-2.5zq-.2 0 0 0M38.2 61.5l.4 1.4A35 35 0 0 0 37 73q0-.6-.3-1.1a22 22 0 0 1 1.5-10.5m4.6 26-.9-.6-.8-1.5q.9 1.3 1.7 2m7.9 4.2q1.1.3 2.7.2 1 .8 2.1 1.2l.4.3a21 21 0 0 1-5.6-1.6zm7.7-.3 3.2 2.2h-.2a17 17 0 0 1-4.5-1.8zm12.8 2.9.5.1q-.7 0-1.2.2zm15.1-5q-.2 0 0 0l.7-1.3h.2q1.3-.2 2.7-.8l-1.2.8zm5.6-5-.9.3q.6-.4.9-.3 0-.3 0 0m-.2-5.6.5-.3-1.5 1.5zm-1-3.8q.3-1.5.2-3.2l2-.2zm-.8 1.1-.2.2-1.2.7a69 69 0 0 1-8.2 3 59 59 0 0 0 6.5-6.4l1.2-1.5 2.2-.2zm-.9-5.3 1-1.7v1.6zm-.7 0-3.2.2 1.7-2.5a36 36 0 0 0 2.5-5.9l.2 1 .5 4.2q-.9 1.8-1.7 3m1.9-7.2-.5-2.2 2.7-1.8-.2 2a19 19 0 0 1-1.7 5.2q0-1.6-.3-3.2m-.4-2.7q.8-3 .9-6 0-2.8-.7-5.6l.5.5 1.9 4q.4 2.6.1 5.3zm3.4-4.3.5 1.6-.5.5zM60 42.9l-1.5-.2.5-1.2q1.3.3 2.4.9-.7.5-1.4.5m-1.8 0q-1.2 0-2.2.3l2.5-1.2zM46.3 50l-1.5 2.2v-.7zm-2.7 3.5-.5.7.2-1 .5-.7zM38 60.4q0 .4-.3.8zm55.3 21a21 21 0 0 1-4.3 2.2l.3-1.2a16 16 0 0 0 5.4-5.2zm-.6-3.7-.5.3 2.6-4.5.4-.2a19 19 0 0 1-2.5 4.4m2.5-4.9.3-.7zq.2-.2 0 0m0-5.9q-.3 1-.9 2l-.5 1H93l-2 .2v-.3l-.2-2.4a27 27 0 0 0 2.5-8.9l.7-.6a56 56 0 0 1 1.7 7.2zm-8.4-24-.4-.4.4.2zm-4.2-3.4q-.3 0-.5-.3h.3l1.7.1h.3l1.4 1.9q-1.6-1-3.2-1.7m-1.7-1q-.2-.2-.7-.3l1.4.1q-.4.3-.7.2m-4.4-.5.5.2 1.5.5q-2.3.1-4.7.7l-2.2.5 2.4-1.4v-.2l-5 2.4q-.4 0-.7.3l-2.3.4q-1.7.1-3.4.6l-1.7-.8-.6-.2 2.3-.8A40 40 0 0 1 73.4 38zm-14.1 1.9-2.9 1h-.1l.6-1.2 1.2-1.7 5.7.3zM58 41.5q-1.3.5-2.3 1.2l.6-1 .2-.2zm-3.2 1.7-1.7 1 .5-1.7.4-.8.8-.2H56q-.7.7-1.2 1.7m-3-.5-.2.7-.5 2-1 .7-1.8 1.5q0-1.8.3-3.5l2-1.2 1.4-.5zm-4.4 5.6-.5.5-.3-1.4-.2-1.7.5-.5.7-.5q.2 1.5-.2 3.6m-1-3.7.5-.2-.2.2zm.7-.4h-.4l1.4-1q0 .3-.2.5zm-1.4 1q0-.2 0 0m.2 1q0 .7.2 1.2 0 1 .3 2-.6.7-1.3 1.2l.1-1.5.4-2.5q0-.4.3-.4m-2.9 4v-.8q.4-.2.4-.5zm-1 3.5-3.2 4.7-.1-.7a39 39 0 0 1 2.8-6.5l.4-.7zm-6.2 14.5v-.4l.2-.3q-.2.2-.2.7m-.5 3.2-.3-.5.1-.5zm.3 1 .5 1.3 1 4.6-.1-.2-2.7-2.9.5-3.8q.4.7.8 1m-2.2 1.7a24 24 0 0 1-1-4.7l-.1-1.4q.7 1.4 1.7 2.4zm3 4.7q.5.5 1 .6l.8 2.7.7 1.7.3.9q0 .4.4 1l-.2-.2-1-.2-1.9-3.2q-1.4-2.7-2.3-5.5zm5.5 11q.3 0 .4.6l-.7-.7zm19.7 6-1.3-.9h2.5q.5.4 1.2.4l-1.5.3H62q-.2.3-.5.2m35.5-24 .3-.1a42 42 0 0 1-1.2 5.7q.6-2.7.9-5.5m-8.6-27.1-.7-1.4.2.2 1.2 1.7zm-5.9-7q.3.4.5.4-2.5-.6-5.2-.8l-.5-.2-.3-.1a44 44 0 0 0-6.8-1.9h.7a29 29 0 0 1 10 1.5l.4.3-4.5-.6v.1a22 22 0 0 1 5.7 1.4m-24-.2h-1l.3-.2q.5 0 1-.3zm-3.2 1 2.8-.5-1.6 2.2h-2.4q.5-.9 1.2-1.7m-5 3.6-1.7.8v-.5l2.7-.7zM36.4 60.2 35 65.6v-.3a60 60 0 0 1-1.5-7.6l-.2-1.2.5-1 3.2 3.7-.3 1m-4-2.3 1 7.7.6 2.5q-.3 1-.3 1.9l-2-2.9q-.5-3.5-.4-6.9l.5-1.7.5-.7m-.3 17 1.1 3.6q0 1.5.4 3-1.2-2-2-4.2c-.8-2.2-.9-3.2-1.2-4.9zm2.3 8-.3-2.4 1.3 2.7 1.6 2.3q-1.5-1.2-2.6-2.7m10.1 10.6.5.5-1-.5-.8-1-.2-.1q.7.7 1.5 1.1m53-22.3-.3.3V71zM91 46.9l-.7-1.3.3.1.9 1.5q-.2 0-.5-.3m-1.7-3.2-.5-.7zq.2.3 0 0m-36.7-3-1.1.1L53 40zm-5 1.2.8-.5v.1q-.4.4-.8.4m-9.3 12.9-.1-2.9.8-.6-.2-.2q-.2.3-.8.5v-2l.2-.2 4-3.7-.2 2.4a43 43 0 0 0-3.7 6.7m-1-2.7-.3.2a4 4 0 0 0-.5 2.2q.3 1.7.8 3.2v.1l-3-3.2a27 27 0 0 1 3.2-4.3zm.4-3q-.4.3-.4.5zm17.1 48.1a43 43 0 0 0 6.6 0l2.7 1.4q-3 .1-6.3-.4l-3.3-.7-.9-.1q.5-.2 1.2-.2m40-45.7q-.4-1.3-1.1-2.6l1.5 1.9.8 3.2q-.5-1.3-1.2-2.5m-2.1-4.6-1.4-2.2-1.2-1.5q1.5 1.3 2.7 2.9 1 1.2 1.7 2.8zM68.5 32.6l2.5.2q3 .4 5.8 1.7a31 31 0 0 0-10.8.1h-.5l1.8-1.1q.4-.7 1.2-.9m-19.7 9v-.4l1.2-.5zM45.5 44l-.4.5-.1.3-2.2 2.4v-2zM30.7 59.7l-.4.8.4-1.1zm-1.9 16v.3l-.3-1.3zM40.1 92a13 13 0 0 0 3.5 2.3l-1.8-.5q-1.3-1-2.6-2.3zm5.4 4.3-1.2-.6 1.5.3 1.2 1.2zm.6-.3 1.6.3.8.7 1.7 1.4-.9-.4-1.8-.8q-.7-.4-1.4-1.2m25.4 1.5q-1.7.5-3.8.7l-.9-.2q-1.2-.2-2.5-.8 2.5 0 4.9-.3l.6.1zq0-.2 0 0m4.2-1.3h-1.6l1.1-.2 1.7-.3-1 .3zM97 82l-.6.5 1.1-1.5q-.2.7-.5 1m-.2-29 .3.3.3.3q0 .4-.3.4zM84.3 38l-.3-.3.3.1 2.5 1-1-.1zm-19.8-5.4 2.6-.2-.3.2q-1.3.7-2.3 1.7h-.7l.7-.2V34l-1.2.3-3.6-.2 2.2-1.3zM61 35.3l-.2.2-4.3 1.5 1.5-1.5zm-7.4 3q-.7.5-1.7.9l-.6.1-2.2.9 1-.7v-.2q-.5.7-1.2 1l.2-.5 1-.5a15 15 0 0 1 3.8-1.1zm-5.2 2.4q-.2.3-.5.3L46 42v-.6l2.4-1.4zm-2.7 1.7-.7.5-1.7.6 1-.6q.6-.7 1.4-1.2zM31 83l1.4 1.5q.4.5 1.1 1a11 11 0 0 0 2.6 3l1.1 1.4 2.2 2.7-2-1.7a41 41 0 0 1-5.7-6.2l-.5-.9q0-.5-.2-.8m6.2 8 2.4 2q-2.2-.8-4.2-2l-1.5-.8q-1.2-2.4-2-4.7a42 42 0 0 0 5.3 5.6m17.5 9.7 1.5.5a41 41 0 0 0 7.6 2.2 46 46 0 0 1-9.8-2.7q.3.3.7 0m44.4-21 .4-1 .6-.5.7-.5zm.9-6q0-.3 0 0l.3-1.4.3-2 .7-.2h.2a19 19 0 0 1-1.5 5.2zm.8-4.6v-.5l.9-.7v1.2zm-2.5-13.1 1.2 5.4.1 4.5q0-.9-.3-1.7-.7-2.6-1.7-4.9v-.3l-.2-3-.3-1.5.3-.5.2.1zm-16-20.4-.8-.8 1.5 1q-.5 0-.7-.2m-28.1 2Q52 38.2 50 39l-.7.3.2-.5q.5-.7 1.3-1.2v-.1q-.8.3-1.6 1.2l-.2.6-2.5 1.4q.1-1.1.8-1.9l-.2-.1a4 4 0 0 0-1.1 2v.1L44 42l-1.2 1v-1.3h-.2l-.2 1.7-2.2 1.8-1.8 1.4h-.2v.2l-3.5 3 1.7-2.5 4.2-4.7q4.9-4.1 11-6l4-.8zM33.7 91.1q.5 1.1 1.2 1.9l-1.4-2zm45.6 6.3q-.7 0-1.2.3l-2.7.3 1.5-.6zm22-19.5.5-.9q1-.8 1.7-1.7l-.8 1.4-2 2.2-.2.1zM76.4 30.6q5-.3 9.6 1.2 4.7 1.5 8.4 4.7l2.5 2.7 1.7 3 .2 1.2a26 26 0 0 0-8-3.5l-1.3-.4a23 23 0 0 0-4-2q-1.2-.7-2.5-1.2a23 23 0 0 0-9.3-5.4zm-18.2 2.9-1 .8-5.2.8a34 34 0 0 1 6-1.6zM33.5 48.3l-.3.6-.4 1v-.1h-.1l-.2.7-.3.6q-.4-.4-.4-.8.7-1 1.7-2M30 52.6q.5-.9 1.2-1.7l.3 1-1.7 4.1-.8 1.7-.5 1-.5-2.5v-.4zm-2 3.6.5 2.8-.7 1.4-.2-3.7zM24.4 68q0-1.4.4-2.9l.1 4a35 35 0 0 0 2.2 8.3 27 27 0 0 0 2.6 4.9 10 10 0 0 0 1 3.2q.3 1.8 1.1 3.2-.7-.5-1.5-1.4a20 20 0 0 1-3.7-5.2 11 11 0 0 1-1-3q-.2-1.6-.7-3.2h-.1v.3-.1q-.7-3.9-.4-8.1m2 15.5-.1-.9q1.2 3 3.5 5.4 1.4 1.4 2.9 2.5a14 14 0 0 0 2.8 4l1.7 2 .5.8c-5-3.2-9.2-8.1-11.2-13.8m38.3 22.3a25 25 0 0 1-13.6.4 25 25 0 0 1-11.1-7q1 .2 1.8.6a51 51 0 0 0 6 3q2.4 1 4.6 1.4 2.5.7 5.2.5 3 .2 6-.2 1.1 0 2.1-.2l1.7.2h.7a12 12 0 0 1-3.4 1.3m36.5-21.7a39 39 0 0 1-4.2 7.3 29 29 0 0 1-10.6 9q-1.8.9-4 1l-5 1-4.3.3H73a18 18 0 0 0 4.2-1.6 20 20 0 0 0 6.1-3 19 19 0 0 0 5.2-3.2l.9-.7q4.5-1.8 7.9-5.5l-.2-.2a20 20 0 0 1-5 3.2l2.3-2.3q-1.3 1.3-2.9 2.5l-3.7 1.5 1.6-1.7-.2-.2-3 2.4q-2.3.7-4.4 1l.2-.2.1-.3 1.2-.7A43 43 0 0 0 93.4 89l5.2-3.8L101 83l.5-.5q.1.9-.2 1.6m2.7-7.9-1.3 4.2q0-.2-.2-.3h-.2q.2.8-.3 1.5l-1 1.2-2.6 2-4.3 2.9 1.3-1.5a12 12 0 0 0 3.2-2.6 7 7 0 0 0 1.9-2.5l.1-1.5.7-.7 1.9-2.3.8-2q.1-.3.2-.2l.1-.2q0 1-.3 2m2-6.2-1 1.7-.7-2.4 2.7-1zm-1.8-1.3-.2-.7q-.2-1.2-.2-2.7l.5-.7a15 15 0 0 0 2.7-6.2v-2.2q.7 1.4.9 2.7.7 1.8.3 3.7v.2q0 1.9-.8 3.5l-.4 1.2c-.6.7-1.8.8-2.8 1.2" clip-rule="evenodd"/><path fill="#ffd48c" d="m74.2 100.7 12-4.4-20.4 5.8zm7.6-14-1 2.4q1.2-2.3 1-2.4m-37.5 4a32 32 0 0 0 5.6 3c.6.7 7.8 7.5 17.8 6.3C75 99 79 92.7 80.8 89c-1.2 2-3.8 5.2-9.4 8.5-9.4 5.5-20.5-3-21.5-3.8 14.5 6 27.5-1.6 27.5-1.6a40 40 0 0 1-33.1-1.5"/><path fill="#ffd48c" d="m44.3 90.7-.5-.3zm13.6-1.5c15 1 28.3-7.2 28.3-7.2s-12.6 6.4-27.6 6C43.8 87.7 38 75.7 38 75.7S42.8 88 57.9 89.2m41.7-4.9S83 97.4 72.2 98.6c.8 0 14.3.7 27.4-14.3M78.1 42.1l-1.9-.3zm-2-.3A35 35 0 0 0 39 61.6s6.5-24.9 37.3-19.8m-30.4-1.2s-1 .6-2.5 2zm-9.7 29c0 .2-7-14.9 7.2-27-3.6 3.3-9.5 11.5-7.2 27m57.2-7.1s-2.7-20.6-22-27.1c0 0 20.3 1.8 22 27"/><path fill="#fcca8f" d="m47.1 34 13-7.1 7.4 1.2zm13.3 43.9-3.3-2.4h-1.7zM99 91l5.8-7-4.5 3.8zm-7.1 10.5-6.7 2.7-1.9-.5zm-53.3.3 3.8 2.7-5.2-5.7z"/><defs><linearGradient id="a" x1="45.8" x2="83.1" y1="59.1" y2="70.2" gradientUnits="userSpaceOnUse"><stop stop-color="#570a11"/><stop offset="1" stop-color="#553915"/></linearGradient><linearGradient id="b" x1="53.9" x2="66.6" y1="100.1" y2="40.9" gradientUnits="userSpaceOnUse"><stop stop-color="#8b4047"/><stop offset="1" stop-color="#b07c3b"/></linearGradient></defs></svg>