<?xml version="1.0" encoding="UTF-8" standalone="no"?>
<svg
   version="1.1"
   viewBox="0 0 128 128"
   fill="none"
   stroke="none"
   stroke-linecap="square"
   stroke-miterlimit="10"
   id="svg53"
   width="128"
   height="128"
   xmlns="http://www.w3.org/2000/svg"
   xmlns:svg="http://www.w3.org/2000/svg">
  <defs
     id="defs53" />
  <clipPath
     id="p.0">
    <path
       d="M 0,0 H 128 V 128 H 0 Z"
       clip-rule="nonzero"
       id="path1" />
  </clipPath>
  <g
     clip-path="url(#p.0)"
     id="g53"
     transform="scale(1.1551151)">
    <path
       fill="#000000"
       fill-opacity="0"
       d="M -7.5963299,-12.533945 H 120.78349 V 115.84588 H -7.5963299 Z"
       fill-rule="evenodd"
       id="path2"
       style="stroke-width:1.00297" />
    <path
       fill="#000000"
       fill-opacity="0"
       d="m 43.649349,66.21965 v 0 c -0.440527,-0.346537 -0.51701,-0.984808 -0.170827,-1.425612 l 2.507192,-3.192513 v 0 c 0.16624,-0.211685 0.409712,-0.348588 0.676849,-0.380596 0.26714,-0.03201 0.536063,0.04349 0.747612,0.20991 l 3.207101,2.52286 c 0.440523,0.346539 0.517005,0.98481 0.170823,1.425612 l -2.507188,3.192513 v 0 c -0.346182,0.44081 -0.983933,0.517223 -1.424461,0.170686 z"
       fill-rule="evenodd"
       id="path3"
       style="stroke-width:1.00297" />
    <path
       stroke="#323232"
       stroke-width="1.13985"
       stroke-miterlimit="8"
       stroke-linecap="round"
       d="m 43.649349,66.21965 v 0 c -0.440527,-0.346537 -0.51701,-0.984808 -0.170827,-1.425612 l 2.507192,-3.192513 v 0 c 0.16624,-0.211685 0.409712,-0.348588 0.676849,-0.380596 0.26714,-0.03201 0.536063,0.04349 0.747612,0.20991 l 3.207101,2.52286 c 0.440523,0.346539 0.517005,0.98481 0.170823,1.425612 l -2.507188,3.192513 v 0 c -0.346182,0.44081 -0.983933,0.517223 -1.424461,0.170686 z"
       fill-rule="evenodd"
       id="path4" />
    <path
       fill="#323232"
       d="m 30.016115,72.390532 -0.623909,-6.188298 27.988873,-27.988869 1.284271,1.284266 -3.783788,3.783786 4.634534,4.634534 -25.370313,27.268798 z"
       fill-rule="evenodd"
       id="path5"
       style="stroke-width:1.00297" />
    <path
       stroke="#323232"
       stroke-width="3.66702"
       stroke-miterlimit="8"
       stroke-linecap="round"
       d="m 30.016115,72.390532 -0.623909,-6.188298 27.988873,-27.988869 1.284271,1.284266 -3.783788,3.783786 4.634534,4.634534 -25.370313,27.268798 z"
       fill-rule="evenodd"
       id="path6" />
    <path
       fill="#ffffff"
       d="m 30.016115,72.390532 -0.623909,-6.188298 27.988873,-27.988869 1.284271,1.284266 -3.783788,3.783786 4.634534,4.634534 -25.370313,27.268798 z"
       fill-rule="evenodd"
       id="path7"
       style="stroke-width:1.00297" />
    <path
       stroke="#ffffff"
       stroke-width="0.571244"
       stroke-linejoin="round"
       stroke-linecap="butt"
       d="m 30.016115,72.390532 -0.623909,-6.188298 27.988873,-27.988869 1.284271,1.284266 -3.783788,3.783786 4.634534,4.634534 -25.370313,27.268798 z"
       fill-rule="evenodd"
       id="path8" />
    <path
       fill="#323232"
       d="m 52.778262,40.840017 4.30536,-4.305356 2.727735,2.727743 -4.305352,4.305356 z"
       fill-rule="evenodd"
       id="path9"
       style="stroke-width:1.00297" />
    <path
       fill="#323232"
       d="m 39.648962,75.694281 4.595237,-5.00834 1.899901,1.824957 -0.604137,1.045527 3.594035,7.223704 1.710129,1.270359 -4.458144,2.471148 -4.476252,-7.886491 z"
       fill-rule="evenodd"
       id="path10"
       style="stroke-width:1.00297" />
    <path
       stroke="#323232"
       stroke-width="3.66702"
       stroke-miterlimit="8"
       stroke-linecap="round"
       d="m 39.648962,75.694281 4.595237,-5.00834 1.899901,1.824957 -0.604137,1.045527 3.594035,7.223704 1.710129,1.270359 -4.458144,2.471148 -4.476252,-7.886491 z"
       fill-rule="evenodd"
       id="path11" />
    <path
       fill="#ffffff"
       d="m 39.648962,75.694281 4.595237,-5.00834 1.899901,1.824957 -0.604137,1.045527 3.594035,7.223704 1.710129,1.270359 -4.458144,2.471148 -4.476252,-7.886491 z"
       fill-rule="evenodd"
       id="path12"
       style="stroke-width:1.00297" />
    <path
       stroke="#ffffff"
       stroke-width="0.571244"
       stroke-linejoin="round"
       stroke-linecap="butt"
       d="m 39.648962,75.694281 4.595237,-5.00834 1.899901,1.824957 -0.604137,1.045527 3.594035,7.223704 1.710129,1.270359 -4.458144,2.471148 -4.476252,-7.886491 z"
       fill-rule="evenodd"
       id="path13" />
    <path
       fill="#323232"
       d="m 44.730942,65.736942 1.596103,-0.4049 -0.427017,-1.342817 z"
       fill-rule="evenodd"
       id="path14"
       style="stroke-width:1.00297" />
    <path
       fill="#000000"
       fill-opacity="0"
       d="m 48.195703,66.332725 v 0 c -0.48248,0.128607 -0.99693,0.06011 -1.430174,-0.190429 -0.433242,-0.250535 -0.749791,-0.662582 -0.880006,-1.145502 l 1.819202,-0.484901 z"
       fill-rule="evenodd"
       id="path15"
       style="stroke-width:1.00297" />
    <path
       fill="#000000"
       fill-opacity="0"
       d="m 48.195703,66.332725 v 0 c -0.48248,0.128607 -0.99693,0.06011 -1.430174,-0.190429 -0.433242,-0.250535 -0.749791,-0.662582 -0.880006,-1.145502"
       fill-rule="evenodd"
       id="path16"
       style="stroke-width:1.00297" />
    <path
       stroke="#323232"
       stroke-width="0.705499"
       stroke-linejoin="round"
       stroke-linecap="round"
       d="m 48.195703,66.332725 v 0 c -0.48248,0.128607 -0.99693,0.06011 -1.430174,-0.190429 -0.433242,-0.250535 -0.749791,-0.662582 -0.880006,-1.145502"
       fill-rule="evenodd"
       id="path17" />
    <path
       fill="#323232"
       d="m 72.565859,24.496631 1.117633,-1.105929 4.174107,4.174107 -0.03108,0.765017 1.100302,1.100297 -0.892495,0.892494 z"
       fill-rule="evenodd"
       id="path18"
       style="stroke-width:1.00297" />
    <path
       fill="#323232"
       d="m 73.260143,23.830049 6.301962,-6.301966 1.638682,1.638681 -6.301961,6.301968 z"
       fill-rule="evenodd"
       id="path19"
       style="stroke-width:1.00297" />
    <path
       fill="#323232"
       d="M 75.87748,26.447392 97.884318,4.4405483 99.523008,6.0792303 77.516163,28.086072 Z"
       fill-rule="evenodd"
       id="path20"
       style="stroke-width:1.00297" />
    <path
       fill="#323232"
       d="M 78.859648,29.497466 99.650198,8.7069113 v -0.72604 l -0.36302,-0.36302 -21.15357,21.1535747 z"
       fill-rule="evenodd"
       id="path21"
       style="stroke-width:1.00297" />
    <path
       fill="#323232"
       d="m 83.72249,15.528138 -4.18883,2.028392 5.401095,5.401094 3.108608,-3.108608 z"
       fill-rule="evenodd"
       id="path22"
       style="stroke-width:1.00297" />
    <path
       fill="#323232"
       d="m 97.576948,9.9164447 -3.54897,-0.0062 -1.01432,-1.0143134 -0.882401,-3.272897 -2.023129,-2.023131 1.988939,-1.988939 6.870691,6.870684 z"
       fill-rule="evenodd"
       id="path23"
       style="stroke-width:1.00297" />
    <path
       fill="#323232"
       d="m 54.628922,59.413644 1.260734,1.181994 1.349256,0.967815 2.203901,1.592296 2.429451,1.670063 2.203449,1.274615 2.157797,1.131751 2.786894,1.359484 1.865458,0.794694 3.146027,1.321514 2.045021,0.774798 0.831171,-7.586646 -2.651039,-0.841028 -3.16899,-1.438207 -3.552379,-1.970459 -3.394863,-2.106016 -4.611299,-3.462951 z"
       fill-rule="evenodd"
       id="path24"
       style="stroke-width:1.00297" />
    <path
       stroke="#323232"
       stroke-width="3.66702"
       stroke-miterlimit="8"
       stroke-linecap="round"
       d="m 54.628922,59.413644 1.260734,1.181994 1.349256,0.967815 2.203901,1.592296 2.429451,1.670063 2.203449,1.274615 2.157797,1.131751 2.786894,1.359484 1.865458,0.794694 3.146027,1.321514 2.045021,0.774798 0.831171,-7.586646 -2.651039,-0.841028 -3.16899,-1.438207 -3.552379,-1.970459 -3.394863,-2.106016 -4.611299,-3.462951 z"
       fill-rule="evenodd"
       id="path25" />
    <path
       fill="#ffffff"
       d="m 54.628922,59.413644 1.260734,1.181994 1.349256,0.967815 2.203901,1.592296 2.429451,1.670063 2.203449,1.274615 2.157797,1.131751 2.786894,1.359484 1.865458,0.794694 3.146027,1.321514 2.045021,0.774798 0.831171,-7.586646 -2.651039,-0.841028 -3.16899,-1.438207 -3.552379,-1.970459 -3.394863,-2.106016 -4.611299,-3.462951 z"
       fill-rule="evenodd"
       id="path26"
       style="stroke-width:1.00297" />
    <path
       stroke="#ffffff"
       stroke-width="0.571244"
       stroke-linejoin="round"
       stroke-linecap="butt"
       d="m 54.628922,59.413644 1.260734,1.181994 1.349256,0.967815 2.203901,1.592296 2.429451,1.670063 2.203449,1.274615 2.157797,1.131751 2.786894,1.359484 1.865458,0.794694 3.146027,1.321514 2.045021,0.774798 0.831171,-7.586646 -2.651039,-0.841028 -3.16899,-1.438207 -3.552379,-1.970459 -3.394863,-2.106016 -4.611299,-3.462951 z"
       fill-rule="evenodd"
       id="path27" />
    <path
       fill="#000000"
       fill-opacity="0"
       d="m 58.202348,54.413817 3.227053,2.531277 2.572079,1.702815 4.272298,2.533313 3.486611,1.748069 3.050529,1.224356 2.962585,0.876158"
       fill-rule="evenodd"
       id="path28"
       style="stroke-width:1.00297" />
    <path
       stroke="#323232"
       stroke-width="1.13985"
       stroke-linejoin="round"
       stroke-linecap="butt"
       d="m 58.202348,54.413817 3.227053,2.531277 2.572079,1.702815 4.272298,2.533313 3.486611,1.748069 3.050529,1.224356 2.962585,0.876158"
       fill-rule="evenodd"
       id="path29" />
    <path
       fill="#323232"
       d="m 43.867227,61.031902 14.955084,-14.955088 0.72604,0.726044 -14.955084,14.955084 z"
       fill-rule="evenodd"
       id="path30"
       style="stroke-width:1.00297" />
    <path
       fill="#323232"
       d="M 28.963403,73.018094 42.66997,59.311526 43.396011,60.037566 29.689443,73.744134 Z"
       fill-rule="evenodd"
       id="path31"
       style="stroke-width:1.00297" />
    <path
       fill="#323232"
       d="m 43.131339,58.850152 3.881265,3.881265 -0.722647,0.72265 -3.881265,-3.881265 z"
       fill-rule="evenodd"
       id="path32"
       style="stroke-width:1.00297" />
    <path
       fill="#323232"
       d="m 37.765818,65.706923 5.539491,-7.062864 -3.827424,7.559834 z"
       fill-rule="evenodd"
       id="path33"
       style="stroke-width:1.00297" />
    <path
       fill="#323232"
       fill-opacity="0.6045"
       d="M 29.181127,73.037782 28.739154,69.378977 55.300567,42.817568 57.30706,44.737307 Z"
       fill-rule="evenodd"
       id="path34"
       style="stroke-width:1.00297" />
    <path
       fill="#323232"
       d="m 28.314283,76.771258 -2.764431,5.659436 -2.661919,1.080046 -10.218258,12.724033 8.200581,7.669977 10.965496,-24.831248 z"
       fill-rule="evenodd"
       id="path35"
       style="stroke-width:1.00297" />
    <path
       stroke="#323232"
       stroke-width="3.66702"
       stroke-miterlimit="8"
       stroke-linecap="round"
       d="m 28.314283,76.771258 -2.764431,5.659436 -2.661919,1.080046 -10.218258,12.724033 8.200581,7.669977 10.965496,-24.831248 z"
       fill-rule="evenodd"
       id="path36" />
    <path
       fill="#ffffff"
       d="m 28.314283,76.771258 -2.764431,5.659436 -2.661919,1.080046 -10.218258,12.724033 8.200581,7.669977 10.965496,-24.831248 z"
       fill-rule="evenodd"
       id="path37"
       style="stroke-width:1.00297" />
    <path
       stroke="#ffffff"
       stroke-width="0.571244"
       stroke-linejoin="round"
       stroke-linecap="butt"
       d="m 28.314283,76.771258 -2.764431,5.659436 -2.661919,1.080046 -10.218258,12.724033 8.200581,7.669977 10.965496,-24.831248 z"
       fill-rule="evenodd"
       id="path38" />
    <path
       fill="#323232"
       fill-opacity="0.6045"
       d="m 18.182478,98.539493 v 0 c -0.513406,-0.29699 -0.689561,-0.95436 -0.393454,-1.46828 L 24.479259,85.4598 c 0.142195,-0.246793 0.376507,-0.426815 0.651388,-0.500481 0.27488,-0.07366 0.567816,-0.03491 0.814364,0.107702 v 0 0 c 0.513405,0.296984 0.689563,0.954354 0.393456,1.468273 l -6.690236,11.611409 c -0.296107,0.51392 -0.952345,0.68978 -1.465753,0.39279 z"
       fill-rule="evenodd"
       id="path39"
       style="stroke-width:1.00297" />
    <path
       fill="#323232"
       fill-opacity="0.2955"
       d="m 17.396538,99.900132 v 0 C 16.3716,99.308029 16.019815,97.996623 16.610802,96.971053 l 7.193203,-12.482866 c 0.283802,-0.4925 0.751504,-0.851877 1.300213,-0.999071 0.548711,-0.147195 1.133487,-0.07015 1.625677,0.214187 v 0 0 c 1.02494,0.592107 1.376727,1.903497 0.785738,2.929084 l -7.193201,12.482852 c -0.590989,1.025591 -1.900956,1.377001 -2.925894,0.784893 z"
       fill-rule="evenodd"
       id="path40"
       style="stroke-width:1.00297" />
    <path
       fill="#323232"
       d="m 37.976957,66.712532 v 0 c -0.357886,-0.357885 -0.359026,-0.936991 -0.0025,-1.293468 v 0 c 0.171187,-0.171192 0.403637,-0.267095 0.646206,-0.266613 0.242574,4.74e-4 0.475402,0.0973 0.647266,0.269153 v 0 c 0.357886,0.357885 0.359023,0.936999 0.0025,1.293477 v 0 c -0.356482,0.356478 -0.935587,0.355337 -1.293473,-0.0025 z"
       fill-rule="evenodd"
       id="path41"
       style="stroke-width:1.00297" />
    <path
       fill="#323232"
       d="m 43.361149,56.614297 0.817934,-4.078334 4.238614,-4.238619 4.078335,-0.817933 z"
       fill-rule="evenodd"
       id="path42"
       style="stroke-width:1.00297" />
    <path
       stroke="#323232"
       stroke-width="3.66702"
       stroke-miterlimit="8"
       stroke-linecap="round"
       d="m 43.361149,56.614297 0.817934,-4.078334 4.238614,-4.238619 4.078335,-0.817933 z"
       fill-rule="evenodd"
       id="path43" />
    <path
       fill="#282828"
       d="m 43.421253,56.568186 0.817937,-4.078335 4.238611,-4.23861 4.078335,-0.817938 z"
       fill-rule="evenodd"
       id="path44"
       style="stroke-width:1.00297" />
    <path
       stroke="#282828"
       stroke-width="0.571244"
       stroke-linejoin="round"
       stroke-linecap="butt"
       d="m 43.421253,56.568186 0.817937,-4.078335 4.238611,-4.23861 4.078335,-0.817938 z"
       fill-rule="evenodd"
       id="path45" />
    <path
       fill="#323232"
       d="m 31.855006,73.071722 v 0 c -0.200491,-0.200491 -0.201248,-0.524791 -0.0017,-0.724349 v 0 c 0.09582,-0.09582 0.22598,-0.149482 0.361818,-0.149169 0.135843,3.22e-4 0.266246,0.05459 0.362524,0.150868 v 0 c 0.20049,0.20049 0.201251,0.524792 0.0017,0.724341 v 0 c -0.199553,0.199558 -0.523854,0.1988 -0.724345,-0.0017 z"
       fill-rule="evenodd"
       id="path46"
       style="stroke-width:1.00297" />
    <path
       fill="#323232"
       d="m 61.162214,35.742435 9.790096,-9.01892 6.111075,6.437041 -9.240771,10.406768 -2.044142,4.504519 -4.662017,-4.662017 3.800597,-3.800593 z"
       fill-rule="evenodd"
       id="path47"
       style="stroke-width:1.00297" />
    <path
       stroke="#323232"
       stroke-width="3.66702"
       stroke-miterlimit="8"
       stroke-linecap="round"
       d="m 61.162214,35.742435 9.790096,-9.01892 6.111075,6.437041 -9.240771,10.406768 -2.044142,4.504519 -4.662017,-4.662017 3.800597,-3.800593 z"
       fill-rule="evenodd"
       id="path48" />
    <path
       fill="#ffffff"
       d="m 61.162214,35.742435 9.790096,-9.01892 6.111075,6.437041 -9.240771,10.406768 -2.044142,4.504519 -4.662017,-4.662017 3.800597,-3.800593 z"
       fill-rule="evenodd"
       id="path49"
       style="stroke-width:1.00297" />
    <path
       stroke="#ffffff"
       stroke-width="0.571244"
       stroke-linejoin="round"
       stroke-linecap="butt"
       d="m 61.162214,35.742435 9.790096,-9.01892 6.111075,6.437041 -9.240771,10.406768 -2.044142,4.504519 -4.662017,-4.662017 3.800597,-3.800593 z"
       fill-rule="evenodd"
       id="path50" />
    <path
       fill="#323232"
       d="m 60.61311,43.940043 14.345826,-14.345826 -0.725513,-0.725504 -10.607165,10.607169 0.282667,0.282673 -3.69506,3.69506 z"
       fill-rule="evenodd"
       id="path51"
       style="stroke-width:1.00297" />
    <path
       fill="#323232"
       fill-opacity="0.6045"
       d="m 68.382065,43.536361 -1.96342,-2.137363 7.651482,-7.389886 2.223512,1.528176 z"
       fill-rule="evenodd"
       id="path52"
       style="stroke-width:1.00297" />
    <path
       fill="#323232"
       d="m 56.619418,46.940382 v 0 c -0.200491,-0.200491 -0.201252,-0.524792 -0.0017,-0.724345 v 0 c 0.09583,-0.09583 0.225981,-0.149486 0.361827,-0.14917 0.135839,3.18e-4 0.266245,0.05459 0.362522,0.150868 v 0 c 0.200492,0.200491 0.201249,0.524788 0.0017,0.724342 v 0 c -0.199549,0.199553 -0.523849,0.198796 -0.724341,-0.0017 z"
       fill-rule="evenodd"
       id="path53"
       style="stroke-width:1.00297" />
  </g>
</svg>
