<?xml version="1.0" encoding="UTF-8" standalone="no"?>
<svg
   width="128"
   height="128"
   version="1.1"
   id="svg13"
   sodipodi:docname="loot-melee-karambit-rugged3.svg"
   inkscape:version="1.3.2 (091e20e, 2023-11-25, custom)"
   xml:space="preserve"
   xmlns:inkscape="http://www.inkscape.org/namespaces/inkscape"
   xmlns:sodipodi="http://sodipodi.sourceforge.net/DTD/sodipodi-0.dtd"
   xmlns:xlink="http://www.w3.org/1999/xlink"
   xmlns="http://www.w3.org/2000/svg"
   xmlns:svg="http://www.w3.org/2000/svg"><sodipodi:namedview
     id="namedview13"
     pagecolor="#ffffff"
     bordercolor="#000000"
     borderopacity="0.25"
     inkscape:showpageshadow="2"
     inkscape:pageopacity="0.0"
     inkscape:pagecheckerboard="0"
     inkscape:deskcolor="#d1d1d1"
     inkscape:zoom="11.313709"
     inkscape:cx="70.62229"
     inkscape:cy="54.31464"
     inkscape:window-width="3440"
     inkscape:window-height="1417"
     inkscape:window-x="1917"
     inkscape:window-y="1562"
     inkscape:window-maximized="1"
     inkscape:current-layer="svg13" /><defs
     id="defs9"><linearGradient
       id="d"><stop
         offset="0"
         stop-color="#303030"
         id="stop1" /><stop
         offset="1"
         stop-color="#6c6c6c"
         id="stop2" /></linearGradient><linearGradient
       id="c"><stop
         offset="0"
         stop-color="#13163d"
         id="stop3" /><stop
         offset="1"
         stop-color="#0e1019"
         id="stop4" /></linearGradient><linearGradient
       id="b"><stop
         offset="0"
         stop-color="#1a27de"
         id="stop5" /><stop
         offset=".397"
         stop-color="#20e195"
         id="stop6" /><stop
         offset=".594"
         stop-color="#7db146"
         id="stop7" /><stop
         offset="1"
         stop-color="#940cec"
         id="stop8" /></linearGradient><clipPath
       id="g"><path
         d="M77.722 36.303S65.15 57.353 45.464 50.922l.975 14.472s25.095-.487 31.283-29.091z"
         fill="url(#a)"
         id="path8" /></clipPath><radialGradient
       xlink:href="#b"
       id="a"
       gradientUnits="userSpaceOnUse"
       gradientTransform="matrix(-.85001 .89724 -.65467 -.62022 158.448 19.155)"
       cx="68.14"
       cy="49.473"
       fx="68.14"
       fy="49.473"
       r="16.129" /><clipPath
       id="e"><path
         d="M25.8 44.505c1.586 3.445 3.097 3.856 6.896 3.143 2.767 4.826 5.43 3.982 7.796 3.118 2.929 6.343 8.886 3.151 10.33-2.631l2.608 1.023 1.047 16.08s-4.864-1.9-7.931-2.245c-3.446-.276-5.466.64-5.466.64-16.435-3.997-23.231-8.818-26.024-13.16 2.095 1.17 8.454 2.315 10.744-5.968z"
         fill="#303030"
         fill-opacity=".753"
         id="path9" /></clipPath><linearGradient
       xlink:href="#c"
       id="f"
       x1="48.825"
       y1="49.481"
       x2="24.675"
       y2="62.805"
       gradientUnits="userSpaceOnUse" /><linearGradient
       xlink:href="#d"
       id="h"
       x1="56.109"
       y1="61.853"
       x2="56.864"
       y2="44.879"
       gradientUnits="userSpaceOnUse" /></defs><path
     d="m 25.8,44.505 c 1.586,3.445 3.097,3.856 6.896,3.143 2.767,4.826 5.43,3.982 7.796,3.118 2.929,6.343 8.886,3.151 10.33,-2.631 l 2.608,1.023 1.047,16.08 c 0,0 -4.864,-1.9 -7.931,-2.245 -3.446,-0.276 -5.466,0.64 -5.466,0.64 -16.435,-3.997 -23.231,-8.818 -26.024,-13.16 2.095,1.17 8.454,2.315 10.744,-5.968 z"
     clip-path="url(#e)"
     transform="matrix(1.355,0,0,1.355,0.128,-3.883)"
     fill="url(#f)"
     stroke="#000000"
     stroke-width="6"
     id="path10"
     style="fill:#00e5ff;fill-opacity:1" /><path
     d="m 77.722,36.303 c 0,0 -12.572,21.05 -32.258,14.619 l 0.975,14.472 c 0,0 25.095,-0.487 31.283,-29.091 z"
     clip-path="url(#g)"
     transform="matrix(1.355,0,0,1.355,8.335,-5.706)"
     fill="url(#h)"
     stroke="#000000"
     stroke-width="6"
     id="path11" /><path
     d="m 19.996,51.954 c -0.286,0.286 -1.188,1.09 -1.823,1.336 -2.068,0.803 -3.989,1.108 -3.385,2.079 2.165,3.484 2.256,5.202 3.21,7.348 a 9.639,9.639 0 0 0 1.998,2.901 9.662,9.662 0 1 0 0,-13.664 z m 2.329,2.33 a 6.368,6.368 0 1 1 9.006,9.005 6.3682037,6.3682037 0 0 1 -9.006,-9.006 z"
     stroke="#000000"
     stroke-width="0.678"
     id="path12" /><path
     d="m 101.41435,62.005168 -3.097824,1.936238 c 0,0 -0.0265,1.9525 0,1.925393 1.939044,-1.983165 3.097824,-3.861631 3.097824,-3.861631 z"
     style="display:inline;fill:#00e4fe;fill-rule:evenodd;stroke:none;stroke-width:0.09;stroke-linecap:round;stroke-linejoin:round;stroke-miterlimit:1;fill-opacity:1"
     id="path19"
     sodipodi:nodetypes="ccsc" /><path
     d="m 86.351292,74.65991 c 0.127801,-0.06381 0,-6.241564 0,-6.241564 -6.295364,1.250901 -11.985201,0.12642 -11.985201,0.12642 l 0.6583,9.83339 c 0,0 5.516863,-0.817508 11.326901,-3.718246 z"
     style="display:inline;fill:#00e4fe;fill-opacity:1;fill-rule:evenodd;stroke:none;stroke-width:0.09;stroke-linecap:round;stroke-linejoin:round;stroke-miterlimit:1"
     id="path10-5"
     sodipodi:nodetypes="ssccs" /><path
     d="m 98.316526,65.866799 c 0.04291,-0.04392 0.136751,-2.002014 0,-1.925393 -6.821832,3.822261 -11.965234,4.47694 -11.965234,4.47694 v 6.241564 c 0,0 5.521169,-2.1977 11.965234,-8.793111 z"
     style="display:inline;fill:#00e4fe;fill-opacity:1;fill-rule:evenodd;stroke:none;stroke-width:0.083677;stroke-linecap:round;stroke-linejoin:round;stroke-miterlimit:1"
     id="path18"
     sodipodi:nodetypes="ssccs" /><path
     d="m 72.248,62.594 1.704,11.064 c 0.357,0.92 2.442,-1.187 3.841,-0.113 1.288,0.989 1.202,2.894 0.312,3.543 -1.382,1.007 -2.84,-0.3 -3.714,0.41 -0.694,0.99 -0.724,6.886 -0.724,6.886 z"
     id="path13" /></svg>
