<svg width="128" height="129" xmlns="http://www.w3.org/2000/svg" fill="none" viewBox="0 0 128 129"><path fill="#040d1f" d="M96.107 48.536c1.058-17.518-12.285-32.578-29.802-33.638-17.518-1.06-32.577 12.282-33.635 29.8-1.058 17.517 12.285 32.577 29.802 33.637 17.518 1.06 32.576-12.281 33.635-29.799"/><mask id="a" width="65" height="65" x="32" y="14" mask-type="alpha" maskUnits="userSpaceOnUse"><path fill="#040d1f" d="M96.107 48.536c1.058-17.518-12.285-32.578-29.802-33.638-17.518-1.06-32.577 12.282-33.635 29.8-1.058 17.517 12.285 32.577 29.802 33.637 17.518 1.06 32.576-12.281 33.635-29.799"/></mask><g mask="url(#a)"><path fill="#4d84e8" d="M30.168 33.311 16.996 31.83l-8.101 8.496-3.42-.985 10.873-10.144c11.596-.12 31.201 5.378 39.554 8.142l-1.843.618c-9.195-2.72-19.759-4.23-23.891-4.645"/><path fill="#000" d="m12.128 26.847-2.722 3.9c-2.89 3.69-7.083 6.725-8.266 7.195l2.289 1.032c3.611-2.205 8.482-7.655 10.517-9.858l29.146 4.419c-2.857-2.984-21.08-6.392-24.988-6.891-2.34-.877-4.959-.23-5.976.203"/><path fill="#47e3c0" d="m10.97 25.768-.103 3.52 1.577-2.41c2.157-.81 9.986.788 13.63 1.69l21.73 5.23-13.744-4.75-7.477-2.035c-4.06-.568-12.47-1.7-13.63-1.689-1.16.012-1.805.3-1.983.443"/><path fill="#000" d="M9.176 24.624c-.132 2.17.402 5.123.686 6.329l1.246-.999v-4.012c13.245-.983 29.82 4.383 36.453 7.189-24.156-12.055-35.655-10.694-38.385-8.507"/><path fill="#4d84e8" d="m73.387 34.34 19.687-3.406 12.947 12.061 5.058-1.787-17.265-14.293c-17.458.853-46.466 10.876-58.788 15.78l2.83.765c13.591-4.913 29.35-8.127 35.53-9.12"/><path fill="#47e3c0" d="m110.601 41.284 3.437-1.283c-10.55-7.473-15.178-12.678-16.313-14.446l-3.999.886c2.12 4.146 12.134 11.623 16.875 14.843"/><path fill="#000" d="m99.954 23.003 4.443 5.625c4.677 5.295 11.258 9.488 13.08 10.09l-3.352 1.756c-5.63-2.996-13.445-10.761-16.703-13.895l-43.46 9.25c4.033-4.743 31.148-11.498 36.983-12.598 3.441-1.528 7.44-.789 9.01-.228"/><path fill="#47e3c0" d="m101.598 21.276.468 5.288-2.588-3.485c-3.317-1.027-14.953 2.077-20.357 3.757l-32.227 9.809L67.15 28.27l11.067-3.727c6.058-1.217 18.611-3.672 20.357-3.758s2.744.291 3.024.49"/><path fill="#000" d="M104.193 19.396c.393 3.252-.147 7.744-.466 9.583l-1.965-1.391-.359-6.037c-20.014-.296-44.476 9.256-54.205 14.07 35.27-20.293 52.693-19.272 56.995-16.225"/></g><path fill="#000" fill-rule="evenodd" d="M64 12.98c18.778 0 34 15.221 34 33.999s-15.222 34-34 34.001-34-15.22-34-33.999c0-18.777 15.222-34 34-34m28.81 34c0-15.912-12.899-28.81-28.81-28.81-15.911.001-28.81 12.9-28.81 28.811S48.09 75.791 64 75.79s28.81-12.9 28.81-28.81" clip-rule="evenodd"/><path fill="#040d1f" d="M23 71.479c0-22.367 18.144-40.5 40.5-40.5s40.5 18.133 40.5 40.5-18.144 40.5-40.5 40.5S23 93.847 23 71.479"/><path fill="#2a54a8" d="m28.613 38.997 28.323 27.917 3.59-3.518-29.412-28.417c-1.975 2.275-2.874 3.801-2.5 4.018"/><path fill="#4ee5cd" d="m60.399 63.27 3.117-3.054-29.082-28.88c-1.148.463-2.929 1.452-4.158 2.806z"/><path fill="#4a81e6" d="M60.71 63.944c-6.292-3.284-25.111-20.671-31.964-27.11.803-3.391 3.475-4.602 4.535-5.027 17.382 18.1 24.35 25.874 27.429 32.137"/><path fill="#fff" d="m32.152 36.648 1.927 2.179 1.472-.229.041-1.286-2.052-2.054-.145 1.182zm4.953 4.959 1.927 2.179 1.472-.229.041-1.286-2.052-2.054-.145 1.182zm4.995 5 1.927 2.179 1.471-.228.042-1.287-2.052-2.054-.145 1.183zm5.43 5.436 1.927 2.18 1.471-.23.042-1.285-2.052-2.055-.145 1.183zm4.994 5.001 1.927 2.179 1.472-.229.041-1.286-2.051-2.054-.145 1.182z"/><path fill="#4ee5cd" d="m30.152 36.487.305-2.988 2.985-.102-.068 3.022zm5.156 5.162.305-2.989 2.985-.101-.068 3.022zm5.037 5.042.305-2.988 2.985-.102-.068 3.023zm5.105 5.111.305-2.988 2.984-.102-.067 3.022zm5.257 5.264.305-2.989 2.985-.101-.068 3.022zm5.071 5.077.305-2.989 2.985-.102L59 62.075z"/><mask id="b" width="40.282" height="40.329" x="25.13" y="28.442" fill="#000" maskUnits="userSpaceOnUse"><path fill="#fff" d="M25.13 28.442h40.282v40.329H25.13z"/><path fill-rule="evenodd" d="M29.42 39.813q.379-.11.771-.214-.106-1.477-.09-2.877h-.005l.006-.134q.016-1.206.11-2.35l.025-.546q-.26.027-.516.059l.777-.778-.06.517.542-.025q1.14-.094 2.347-.11l.139-.007v.005q1.398-.014 2.873.09.045-.173.093-.344l.192.192-.047.17.237.02.143.144-.414-.033a34 34 0 0 0-.844 4.32l-.084.724a35 35 0 0 1 5.847-.064q.045-.173.093-.344l.192.192-.047.17.237.02.192.193-.475-.038a34 34 0 0 0-.918 5h.014a35 35 0 0 1 5.835-.064l.092-.345.193.193-.047.17.236.02.193.192-.475-.037a34 34 0 0 0-.842 4.352l-.075.648a35 35 0 0 1 5.848-.064q.044-.173.092-.345l.193.193-.047.17.236.02.192.192-.474-.037a34 34 0 0 0-.836 4.304l-.078.677.45-.021a35 35 0 0 1 2.417-.114l.105-.005v.004q1.372-.014 2.817.087l.104-.386.236.238-.046.17.236.02.192.192-.474-.038a34 34 0 0 0-.913 4.951 35 35 0 0 1 6.037-.04l.047-.171 1.416 1.418-2.197 2.2c.182-1.143.413-2.223.677-3.233q-1.559-.108-3.032-.084l-.141 3.011-3.008.141q-.024 1.475.084 3.036a34 34 0 0 1 3.23-.678l-2.472 2.474-1.57-1.572q.295-.084.598-.167a35 35 0 0 1 .04-6.044 34 34 0 0 0-4.944.914q.038.535.094 1.08l-.192-.193a36 36 0 0 1-.077-.84q-.302.081-.596.166l-.237-.237q.398-.116.811-.224a35 35 0 0 1-.086-2.82h-.004l.005-.101q.016-1.243.113-2.42l.021-.456-.654.076a34 34 0 0 0-4.321.84q.039.535.094 1.08l-.192-.192q-.043-.424-.076-.842-.303.082-.597.168l-.193-.193q.38-.11.772-.214c-.15-2.066-.11-4.026.063-5.854l-.624.072c-1.57.198-3.032.493-4.37.846q.039.535.094 1.08l-.192-.192a36 36 0 0 1-.076-.842q-.303.082-.597.168l-.192-.193q.378-.11.77-.214c-.148-2.06-.11-4.014.063-5.836V44c-1.807.195-3.48.52-4.993.92q.039.534.094 1.08l-.192-.193q-.043-.423-.076-.841-.303.081-.597.167l-.192-.193q.378-.11.77-.213a35 35 0 0 1 .064-5.85v-.004l-.724.084c-1.549.2-2.993.494-4.314.845q.037.506.09 1.02l-.143-.144a36 36 0 0 1-.077-.841q-.302.081-.597.167zm.826-3.098q-.021 1.387.076 2.85a34 34 0 0 1 3.905-.768l-2.164-2.167zm5.258 1.027q-.057.446-.104.905h-.012v.012q-.458.046-.904.104l-2.143-2.146.974-.046.045-.976zm-2.13-2.425 2.164 2.167a34 34 0 0 1 .767-3.909 35 35 0 0 0-2.846-.077zm-.209.073.086-1.827-2.81.132-.13 2.812 1.812-.085.97-.074zM35.576 39l.015-.15.145-.014 2.657-.125-.11 2.35-.035.45-.464.035-2.332.11zm-.159 2.862 1.788-.084 2.145 2.148a34 34 0 0 0-3.86.756 35 35 0 0 1-.073-2.82m5.101 1.913h-.008v.008l-.907.105-2.112-2.115.302-.023.664-.03.03-.65.024-.318 2.112 2.114zm.898-5.026a34 34 0 0 0-.755 3.864l-2.146-2.148.084-1.789q1.372-.02 2.817.072m-.803 11.062a35 35 0 0 1-.073-2.821l1.787-.084 2.145 2.148a34 34 0 0 0-3.86.757m2.804-3.883-.053.704-.716.054-2.074.097.124-2.643.016-.161.157-.016 2.644-.124zm.162.92-.922.043-.05.004 2.123 2.125q.45-.057.915-.105.046-.463.105-.916l-2.123-2.126-.006.065zm2.205.893-2.146-2.148.084-1.788q1.37-.02 2.817.072a34 34 0 0 0-.755 3.864m-.049 7.199a35 35 0 0 1-.072-2.805l1.802-.084 2.13 2.132a34 34 0 0 0-3.86.757m5.035-.926q.047-.448.102-.886l-2.103-2.106-.033.565-.019.405-.449.02-.52.03 2.105 2.107q.436-.056.884-.102l.002-.031zm.136-1.144-2.13-2.133.085-1.803q1.363-.02 2.8.072a34 34 0 0 0-.755 3.864m-2.252-3.886-.122 2.595-.012.214-.26.015-2.547.12.131-2.813zm2.306 5.253q-.03.285-.054.577l-.103 2.21 2.665-.125.14-.01.01-.125.126-2.684-2.212.103q-.288.025-.572.054m2.847 2.85-.33.016-.626.048 2.08 2.082q.45-.057.915-.105.046-.463.105-.916l-2.08-2.082-.05.644zm-1.252.06-1.769.082q-.021 1.356.069 2.784a34 34 0 0 1 3.819-.745zm4.174-3.015a34 34 0 0 0-.744 3.823l-2.119-2.122.083-1.77q1.354-.021 2.78.069m-.816 8.007 2.808-.131.132-2.812h-.032l-1.724.082a35 35 0 0 0-1.015.087q-.05.502-.088 1.02l-.08 1.728z" clip-rule="evenodd"/></mask><path fill="#000" fill-rule="evenodd" d="M29.42 39.813q.379-.11.771-.214-.106-1.477-.09-2.877h-.005l.006-.134q.016-1.206.11-2.35l.025-.546q-.26.027-.516.059l.777-.778-.06.517.542-.025q1.14-.094 2.347-.11l.139-.007v.005q1.398-.014 2.873.09.045-.173.093-.344l.192.192-.047.17.237.02.143.144-.414-.033a34 34 0 0 0-.844 4.32l-.084.724a35 35 0 0 1 5.847-.064q.045-.173.093-.344l.192.192-.047.17.237.02.192.193-.475-.038a34 34 0 0 0-.918 5h.014a35 35 0 0 1 5.835-.064l.092-.345.193.193-.047.17.236.02.193.192-.475-.037a34 34 0 0 0-.842 4.352l-.075.648a35 35 0 0 1 5.848-.064q.044-.173.092-.345l.193.193-.047.17.236.02.192.192-.474-.037a34 34 0 0 0-.836 4.304l-.078.677.45-.021a35 35 0 0 1 2.417-.114l.105-.005v.004q1.372-.014 2.817.087l.104-.386.236.238-.046.17.236.02.192.192-.474-.038a34 34 0 0 0-.913 4.951 35 35 0 0 1 6.037-.04l.047-.171 1.416 1.418-2.197 2.2c.182-1.143.413-2.223.677-3.233q-1.559-.108-3.032-.084l-.141 3.011-3.008.141q-.024 1.475.084 3.036a34 34 0 0 1 3.23-.678l-2.472 2.474-1.57-1.572q.295-.084.598-.167a35 35 0 0 1 .04-6.044 34 34 0 0 0-4.944.914q.038.535.094 1.08l-.192-.193a36 36 0 0 1-.077-.84q-.302.081-.596.166l-.237-.237q.398-.116.811-.224a35 35 0 0 1-.086-2.82h-.004l.005-.101q.016-1.243.113-2.42l.021-.456-.654.076a34 34 0 0 0-4.321.84q.039.535.094 1.08l-.192-.192q-.043-.424-.076-.842-.303.082-.597.168l-.193-.193q.38-.11.772-.214c-.15-2.066-.11-4.026.063-5.854l-.624.072c-1.57.198-3.032.493-4.37.846q.039.535.094 1.08l-.192-.192a36 36 0 0 1-.076-.842q-.303.082-.597.168l-.192-.193q.378-.11.77-.214c-.148-2.06-.11-4.014.063-5.836V44c-1.807.195-3.48.52-4.993.92q.039.534.094 1.08l-.192-.193q-.043-.423-.076-.841-.303.081-.597.167l-.192-.193q.378-.11.77-.213a35 35 0 0 1 .064-5.85v-.004l-.724.084c-1.549.2-2.993.494-4.314.845q.037.506.09 1.02l-.143-.144a36 36 0 0 1-.077-.841q-.302.081-.597.167zm.826-3.098q-.021 1.387.076 2.85a34 34 0 0 1 3.905-.768l-2.164-2.167zm5.258 1.027q-.057.446-.104.905h-.012v.012q-.458.046-.904.104l-2.143-2.146.974-.046.045-.976zm-2.13-2.425 2.164 2.167a34 34 0 0 1 .767-3.909 35 35 0 0 0-2.846-.077zm-.209.073.086-1.827-2.81.132-.13 2.812 1.812-.085.97-.074zM35.576 39l.015-.15.145-.014 2.657-.125-.11 2.35-.035.45-.464.035-2.332.11zm-.159 2.862 1.788-.084 2.145 2.148a34 34 0 0 0-3.86.756 35 35 0 0 1-.073-2.82m5.101 1.913h-.008v.008l-.907.105-2.112-2.115.302-.023.664-.03.03-.65.024-.318 2.112 2.114zm.898-5.026a34 34 0 0 0-.755 3.864l-2.146-2.148.084-1.789q1.372-.02 2.817.072m-.803 11.062a35 35 0 0 1-.073-2.821l1.787-.084 2.145 2.148a34 34 0 0 0-3.86.757m2.804-3.883-.053.704-.716.054-2.074.097.124-2.643.016-.161.157-.016 2.644-.124zm.162.92-.922.043-.05.004 2.123 2.125q.45-.057.915-.105.046-.463.105-.916l-2.123-2.126-.006.065zm2.205.893-2.146-2.148.084-1.788q1.37-.02 2.817.072a34 34 0 0 0-.755 3.864m-.049 7.199a35 35 0 0 1-.072-2.805l1.802-.084 2.13 2.132a34 34 0 0 0-3.86.757m5.035-.926q.047-.448.102-.886l-2.103-2.106-.033.565-.019.405-.449.02-.52.03 2.105 2.107q.436-.056.884-.102l.002-.031zm.136-1.144-2.13-2.133.085-1.803q1.363-.02 2.8.072a34 34 0 0 0-.755 3.864m-2.252-3.886-.122 2.595-.012.214-.26.015-2.547.12.131-2.813zm2.306 5.253q-.03.285-.054.577l-.103 2.21 2.665-.125.14-.01.01-.125.126-2.684-2.212.103q-.288.025-.572.054m2.847 2.85-.33.016-.626.048 2.08 2.082q.45-.057.915-.105.046-.463.105-.916l-2.08-2.082-.05.644zm-1.252.06-1.769.082q-.021 1.356.069 2.784a34 34 0 0 1 3.819-.745zm4.174-3.015a34 34 0 0 0-.744 3.823l-2.119-2.122.083-1.77q1.354-.021 2.78.069m-.816 8.007 2.808-.131.132-2.812h-.032l-1.724.082a35 35 0 0 0-1.015.087q-.05.502-.088 1.02l-.08 1.728z" clip-rule="evenodd"/><path stroke="#000" stroke-width=".819" d="M29.42 39.813q.379-.11.771-.214-.106-1.477-.09-2.877h-.005l.006-.134q.016-1.206.11-2.35l.025-.546q-.26.027-.516.059l.777-.778-.06.517.542-.025q1.14-.094 2.347-.11l.139-.007v.005q1.398-.014 2.873.09.045-.173.093-.344l.192.192-.047.17.237.02.143.144-.414-.033a34 34 0 0 0-.844 4.32l-.084.724a35 35 0 0 1 5.847-.064q.045-.173.093-.344l.192.192-.047.17.237.02.192.193-.475-.038a34 34 0 0 0-.918 5h.014a35 35 0 0 1 5.835-.064l.092-.345.193.193-.047.17.236.02.193.192-.475-.037a34 34 0 0 0-.842 4.352l-.075.648a35 35 0 0 1 5.848-.064q.044-.173.092-.345l.193.193-.047.17.236.02.192.192-.474-.037a34 34 0 0 0-.836 4.304l-.078.677.45-.021a35 35 0 0 1 2.417-.114l.105-.005v.004q1.372-.014 2.817.087l.104-.386.236.238-.046.17.236.02.192.192-.474-.038a34 34 0 0 0-.913 4.951 35 35 0 0 1 6.037-.04l.047-.171 1.416 1.418-2.197 2.2c.182-1.143.413-2.223.677-3.233q-1.559-.108-3.032-.084l-.141 3.011-3.008.141q-.024 1.475.084 3.036a34 34 0 0 1 3.23-.678l-2.472 2.474-1.57-1.572q.295-.084.598-.167a35 35 0 0 1 .04-6.044 34 34 0 0 0-4.944.914q.038.535.094 1.08l-.192-.193a36 36 0 0 1-.077-.84q-.302.081-.596.166l-.237-.237q.398-.116.811-.224a35 35 0 0 1-.086-2.82h-.004l.005-.101q.016-1.243.113-2.42l.021-.456-.654.076a34 34 0 0 0-4.321.84q.039.535.094 1.08l-.192-.192q-.043-.424-.076-.842-.303.082-.597.168l-.193-.193q.38-.11.772-.214c-.15-2.066-.11-4.026.063-5.854l-.624.072c-1.57.198-3.032.493-4.37.846q.039.535.094 1.08l-.192-.192a36 36 0 0 1-.076-.842q-.303.082-.597.168l-.192-.193q.378-.11.77-.214c-.148-2.06-.11-4.014.063-5.836V44c-1.807.195-3.48.52-4.993.92q.039.534.094 1.08l-.192-.193q-.043-.423-.076-.841-.303.081-.597.167l-.192-.193q.378-.11.77-.213a35 35 0 0 1 .064-5.85v-.004l-.724.084c-1.549.2-2.993.494-4.314.845q.037.506.09 1.02l-.143-.144a36 36 0 0 1-.077-.841q-.302.081-.597.167zm.826-3.098q-.021 1.387.076 2.85a34 34 0 0 1 3.905-.768l-2.164-2.167zm5.258 1.027q-.057.446-.104.905h-.012v.012q-.458.046-.904.104l-2.143-2.146.974-.046.045-.976zm-2.13-2.425 2.164 2.167a34 34 0 0 1 .767-3.909 35 35 0 0 0-2.846-.077zm-.209.073.086-1.827-2.81.132-.13 2.812 1.812-.085.97-.074zM35.576 39l.015-.15.145-.014 2.657-.125-.11 2.35-.035.45-.464.035-2.332.11zm-.159 2.862 1.788-.084 2.145 2.148a34 34 0 0 0-3.86.756 35 35 0 0 1-.073-2.82Zm5.101 1.913h-.008v.008l-.907.105-2.112-2.115.302-.023.664-.03.03-.65.024-.318 2.112 2.114zm.898-5.026a34 34 0 0 0-.755 3.864l-2.146-2.148.084-1.789q1.372-.02 2.817.072Zm-.803 11.062a35 35 0 0 1-.073-2.821l1.787-.084 2.145 2.148a34 34 0 0 0-3.86.757Zm2.804-3.883-.053.704-.716.054-2.074.097.124-2.643.016-.161.157-.016 2.644-.124zm.162.92-.922.043-.05.004 2.123 2.125q.45-.057.915-.105.046-.463.105-.916l-2.123-2.126-.006.065zm2.205.893-2.146-2.148.084-1.788q1.37-.02 2.817.072a34 34 0 0 0-.755 3.864Zm-.049 7.199a35 35 0 0 1-.072-2.805l1.802-.084 2.13 2.132a34 34 0 0 0-3.86.757Zm5.035-.926q.047-.448.102-.886l-2.103-2.106-.033.565-.019.405-.449.02-.52.03 2.105 2.107q.436-.056.884-.102l.002-.031zm.136-1.144-2.13-2.133.085-1.803q1.363-.02 2.8.072a34 34 0 0 0-.755 3.864Zm-2.252-3.886-.122 2.595-.012.214-.26.015-2.547.12.131-2.813zm2.306 5.253q-.03.285-.054.577l-.103 2.21 2.665-.125.14-.01.01-.125.126-2.684-2.212.103q-.288.025-.572.054Zm2.847 2.85-.33.016-.626.048 2.08 2.082q.45-.057.915-.105.046-.463.105-.916l-2.08-2.082-.05.644zm-1.252.06-1.769.082q-.021 1.356.069 2.784a34 34 0 0 1 3.819-.745zm4.174-3.015a34 34 0 0 0-.744 3.823l-2.119-2.122.083-1.77q1.354-.021 2.78.069Zm-.816 8.007 2.808-.131.132-2.812h-.032l-1.724.082a35 35 0 0 0-1.015.087q-.05.502-.088 1.02l-.08 1.728z" clip-rule="evenodd" mask="url(#b)"/><path fill="#4a81e8" stroke="#000" stroke-linecap="round" stroke-width="1.228" d="M19.693 30.639a.59.59 0 0 1-.156-.575c.739-1.818 1.53-3.124 2.602-4.196 1.073-1.074 2.462-1.948 4.447-2.852a.59.59 0 0 1 .567.159l2.34 2.342c-1.657 1.108-2.962 2.104-4.136 3.263-1.177 1.162-2.207 2.473-3.328 4.196zm10.805-3.581 3.043 3.047-3.78 3.053-.05.042-.042.05-3.05 3.785-3.047-3.05c.922-1.742 1.782-2.988 2.833-4.036 1.052-1.05 2.321-1.924 4.093-2.89Z"/><path stroke="#000" stroke-width="1.228" d="M27.56 38.132c1.745-3.707 3.326-5.248 7.077-7.085l29.1 29.135-7.076 7.084z"/><path fill="#2e59a8" stroke="#000" stroke-linecap="round" stroke-width="1.228" d="M33.83 29.488c-1.898 1.003-3.344 1.957-4.583 3.193-1.238 1.236-2.212 2.698-3.244 4.643-.367.691-.036 1.506.57 1.881.62.385 1.51.282 1.897-.448.97-1.83 1.808-3.052 2.802-4.044.993-.991 2.199-1.808 3.984-2.752.73-.386.836-1.276.453-1.898-.373-.607-1.187-.94-1.878-.575Zm-4.26-4.269c-1.9 1.003-3.346 1.957-4.584 3.193s-2.213 2.698-3.245 4.643c-.367.691-.036 1.506.57 1.881.62.385 1.51.282 1.897-.448.971-1.83 1.808-3.052 2.802-4.044.993-.991 2.2-1.808 3.985-2.752.73-.386.835-1.276.452-1.899-.373-.607-1.187-.94-1.878-.574Z"/><path fill="#000" d="M23.683 30.228c-.62-1.107-1.488-1.49-2.596-1.373 3.557-4.955 6.892-4.22 8.052-2.972-.954-.232-4.34 3.12-5.456 4.345m4.328 3.687c-.583-1.734-1.9-2.231-2.687-2.045 2.423-3.148 4.919-4.236 5.864-4.387l2.397 2.4c-1.52.026-4.35 2.699-5.574 4.032"/><path fill="#2a54a8" d="M97.57 38.997 69.248 66.913l-3.59-3.518L95.07 34.98c1.974 2.274 2.873 3.8 2.5 4.018"/><path fill="#4ee5cd" d="m65.785 63.27-3.117-3.054 29.082-28.88c1.148.463 2.929 1.452 4.158 2.806z"/><path fill="#4a81e6" d="M65.472 63.945c6.292-3.284 25.11-20.671 31.963-27.11-.802-3.391-3.475-4.602-4.534-5.027-17.382 18.1-24.35 25.874-27.429 32.136"/><path fill="#fff" d="m94.032 36.648-1.927 2.179-1.472-.229-.041-1.286 2.051-2.054.145 1.182zm-4.953 4.959-1.928 2.179-1.471-.229-.042-1.286 2.052-2.054.145 1.182zm-4.995 5-1.927 2.179-1.472-.228-.041-1.287 2.051-2.054.146 1.183zm-5.43 5.436-1.927 2.18-1.472-.23-.041-1.285 2.052-2.055.145 1.183zm-4.994 5.001-1.928 2.179-1.471-.229-.042-1.286 2.052-2.054.145 1.182z"/><path fill="#4ee5cd" d="m96.031 36.487-.305-2.988-2.985-.102.068 3.022zm-5.155 5.162-.305-2.989-2.985-.101.068 3.022zm-5.037 5.042-.305-2.988-2.985-.102.068 3.023zm-5.105 5.111-.305-2.988-2.985-.102.068 3.022zm-5.257 5.264-.306-2.989-2.984-.101.067 3.022zm-5.071 5.077-.305-2.989-2.985-.102.068 3.023z"/><mask id="c" width="40.281" height="40.329" x="60.775" y="28.442" fill="#000" maskUnits="userSpaceOnUse"><path fill="#fff" d="M60.775 28.442h40.281v40.329H60.775z"/><path fill-rule="evenodd" d="M96.766 39.813q-.38-.11-.771-.214.104-1.477.09-2.877h.005l-.006-.134a35 35 0 0 0-.11-2.35l-.026-.546q.26.028.517.06l-.777-.779.059.517-.54-.025q-1.143-.093-2.348-.11l-.14-.007.001.005q-1.398-.014-2.873.091l-.093-.345-.192.193.046.17-.236.02-.144.144.415-.034c.35 1.323.644 2.769.844 4.32l.083.725a35 35 0 0 0-5.846-.064l-.093-.345-.192.193.046.17-.236.02-.192.192.475-.038c.398 1.516.723 3.19.917 5h-.013a35 35 0 0 0-5.835-.063q-.045-.174-.093-.345l-.192.192.046.17-.236.02-.192.193.475-.038c.35 1.333.644 2.79.842 4.352l.075.649a35 35 0 0 0-5.848-.064l-.093-.345-.192.192.047.17-.237.02-.192.193.475-.038c.347 1.32.638 2.76.836 4.305l.078.676-.45-.02a35 35 0 0 0-2.417-.114l-.106-.005v.004a35 35 0 0 0-2.817.087q-.05-.195-.103-.386l-.237.237.047.17-.237.02-.192.193q.239-.021.475-.038c.395 1.502.717 3.16.913 4.951a35 35 0 0 0-6.038-.041l-.046-.17-1.416 1.417 2.197 2.2a34 34 0 0 0-.677-3.232 35 35 0 0 1 3.031-.084l.142 3.01 3.007.142c.015.983-.01 1.995-.084 3.036a34 34 0 0 0-3.229-.678l2.471 2.473 1.57-1.571a32 32 0 0 0-.597-.167c.169-2.136.135-4.16-.041-6.044 1.788.195 3.445.517 4.945.913q-.038.535-.095 1.08l.193-.192q.043-.423.076-.841.303.081.597.167l.237-.237a33 33 0 0 0-.812-.225 35 35 0 0 0 .087-2.82h.004l-.005-.1q-.017-1.244-.113-2.42l-.022-.456.655.076c1.551.198 2.997.49 4.32.84q-.037.534-.094 1.08l.192-.193q.044-.423.077-.841.302.081.597.167l.192-.193q-.379-.11-.771-.213c.15-2.067.11-4.027-.064-5.855l.624.072c1.57.199 3.033.493 4.37.846q-.037.536-.094 1.08l.192-.192q.045-.423.077-.841.302.081.597.167l.192-.192q-.379-.11-.771-.214a35 35 0 0 0-.062-5.837l-.001-.018c1.807.194 3.48.52 4.993.919q-.038.535-.094 1.08l.192-.193q.045-.423.077-.841.302.082.597.167l.192-.192q-.379-.11-.771-.214a35 35 0 0 0-.064-5.849v-.004l.724.084c1.55.2 2.993.494 4.315.844q-.038.507-.09 1.02l.143-.144q.044-.423.076-.84.303.082.597.166zm-.826-3.097a35 35 0 0 1-.077 2.849 34 34 0 0 0-3.904-.768l2.164-2.167zm-5.258 1.026q.057.447.104.905h.012v.012q.457.047.904.104l2.143-2.146-.974-.045-.046-.976zm2.13-2.425-2.164 2.167a34 34 0 0 0-.767-3.908 35 35 0 0 1 2.846-.077zm.208.074-.085-1.828 2.809.132.131 2.813-1.812-.085-.97-.074zM90.61 39l-.016-.15-.144-.014-2.657-.125.11 2.35.034.45.465.035 2.331.11zm.158 2.862-1.787-.084-2.145 2.148c1.376.188 2.666.448 3.86.756q.093-1.447.072-2.82m-5.1 1.913h.007v.008l.907.105 2.112-2.114-.302-.023-.663-.031-.03-.65-.025-.317-2.111 2.114zm-.898-5.026c.307 1.195.568 2.487.755 3.864l2.145-2.148-.084-1.788a35 35 0 0 0-2.816.072m.803 11.062q.093-1.448.072-2.82l-1.786-.084-2.146 2.148c1.376.187 2.666.448 3.86.756m-2.805-3.882.054.703.716.055 2.073.097-.123-2.644-.016-.16-.157-.016-2.645-.124zm-.161.919.921.043.051.004-2.123 2.126a34 34 0 0 0-.915-.105q-.047-.465-.105-.916l2.123-2.126.005.065zm-2.205.894 2.146-2.148-.084-1.788a35 35 0 0 0-2.817.072c.307 1.195.568 2.487.755 3.864m.048 7.198q.093-1.44.073-2.805l-1.802-.084-2.13 2.133c1.375.187 2.666.448 3.86.756m-5.035-.925q-.046-.45-.102-.887l2.104-2.106.032.566.02.404.448.021.52.03-2.104 2.107a35 35 0 0 0-.885-.102l-.001-.032zm-.136-1.144 2.13-2.133-.084-1.804q-1.364-.02-2.801.073c.307 1.195.568 2.487.755 3.864m2.253-3.887.122 2.595.012.215.26.015 2.547.12-.132-2.813zm-2.306 5.253q.03.286.053.577l.104 2.21-2.666-.125-.14-.01-.01-.124-.125-2.685 2.211.104q.29.024.573.053m-2.848 2.851.33.016.626.048-2.08 2.082q-.45-.059-.914-.105-.047-.465-.105-.916l2.08-2.083.049.645zm1.252.059 1.77.083q.021 1.355-.07 2.784a34 34 0 0 0-3.818-.746zm-4.174-3.015a34 34 0 0 1 .745 3.823l2.119-2.121-.083-1.77q-1.354-.022-2.78.068m.816 8.008-2.808-.132-.132-2.812.033.001 1.724.081q.514.037 1.014.088.051.503.088 1.019l.08 1.728z" clip-rule="evenodd"/></mask><path fill="#000" fill-rule="evenodd" d="M96.766 39.813q-.38-.11-.771-.214.104-1.477.09-2.877h.005l-.006-.134a35 35 0 0 0-.11-2.35l-.026-.546q.26.028.517.06l-.777-.779.059.517-.54-.025q-1.143-.093-2.348-.11l-.14-.007.001.005q-1.398-.014-2.873.091l-.093-.345-.192.193.046.17-.236.02-.144.144.415-.034c.35 1.323.644 2.769.844 4.32l.083.725a35 35 0 0 0-5.846-.064l-.093-.345-.192.193.046.17-.236.02-.192.192.475-.038c.398 1.516.723 3.19.917 5h-.013a35 35 0 0 0-5.835-.063q-.045-.174-.093-.345l-.192.192.046.17-.236.02-.192.193.475-.038c.35 1.333.644 2.79.842 4.352l.075.649a35 35 0 0 0-5.848-.064l-.093-.345-.192.192.047.17-.237.02-.192.193.475-.038c.347 1.32.638 2.76.836 4.305l.078.676-.45-.02a35 35 0 0 0-2.417-.114l-.106-.005v.004a35 35 0 0 0-2.817.087q-.05-.195-.103-.386l-.237.237.047.17-.237.02-.192.193q.239-.021.475-.038c.395 1.502.717 3.16.913 4.951a35 35 0 0 0-6.038-.041l-.046-.17-1.416 1.417 2.197 2.2a34 34 0 0 0-.677-3.232 35 35 0 0 1 3.031-.084l.142 3.01 3.007.142c.015.983-.01 1.995-.084 3.036a34 34 0 0 0-3.229-.678l2.471 2.473 1.57-1.571a32 32 0 0 0-.597-.167c.169-2.136.135-4.16-.041-6.044 1.788.195 3.445.517 4.945.913q-.038.535-.095 1.08l.193-.192q.043-.423.076-.841.303.081.597.167l.237-.237a33 33 0 0 0-.812-.225 35 35 0 0 0 .087-2.82h.004l-.005-.1q-.017-1.244-.113-2.42l-.022-.456.655.076c1.551.198 2.997.49 4.32.84q-.037.534-.094 1.08l.192-.193q.044-.423.077-.841.302.081.597.167l.192-.193q-.379-.11-.771-.213c.15-2.067.11-4.027-.064-5.855l.624.072c1.57.199 3.033.493 4.37.846q-.037.536-.094 1.08l.192-.192q.045-.423.077-.841.302.081.597.167l.192-.192q-.379-.11-.771-.214a35 35 0 0 0-.062-5.837l-.001-.018c1.807.194 3.48.52 4.993.919q-.038.535-.094 1.08l.192-.193q.045-.423.077-.841.302.082.597.167l.192-.192q-.379-.11-.771-.214a35 35 0 0 0-.064-5.849v-.004l.724.084c1.55.2 2.993.494 4.315.844q-.038.507-.09 1.02l.143-.144q.044-.423.076-.84.303.082.597.166zm-.826-3.097a35 35 0 0 1-.077 2.849 34 34 0 0 0-3.904-.768l2.164-2.167zm-5.258 1.026q.057.447.104.905h.012v.012q.457.047.904.104l2.143-2.146-.974-.045-.046-.976zm2.13-2.425-2.164 2.167a34 34 0 0 0-.767-3.908 35 35 0 0 1 2.846-.077zm.208.074-.085-1.828 2.809.132.131 2.813-1.812-.085-.97-.074zM90.61 39l-.016-.15-.144-.014-2.657-.125.11 2.35.034.45.465.035 2.331.11zm.158 2.862-1.787-.084-2.145 2.148c1.376.188 2.666.448 3.86.756q.093-1.447.072-2.82m-5.1 1.913h.007v.008l.907.105 2.112-2.114-.302-.023-.663-.031-.03-.65-.025-.317-2.111 2.114zm-.898-5.026c.307 1.195.568 2.487.755 3.864l2.145-2.148-.084-1.788a35 35 0 0 0-2.816.072m.803 11.062q.093-1.448.072-2.82l-1.786-.084-2.146 2.148c1.376.187 2.666.448 3.86.756m-2.805-3.882.054.703.716.055 2.073.097-.123-2.644-.016-.16-.157-.016-2.645-.124zm-.161.919.921.043.051.004-2.123 2.126a34 34 0 0 0-.915-.105q-.047-.465-.105-.916l2.123-2.126.005.065zm-2.205.894 2.146-2.148-.084-1.788a35 35 0 0 0-2.817.072c.307 1.195.568 2.487.755 3.864m.048 7.198q.093-1.44.073-2.805l-1.802-.084-2.13 2.133c1.375.187 2.666.448 3.86.756m-5.035-.925q-.046-.45-.102-.887l2.104-2.106.032.566.02.404.448.021.52.03-2.104 2.107a35 35 0 0 0-.885-.102l-.001-.032zm-.136-1.144 2.13-2.133-.084-1.804q-1.364-.02-2.801.073c.307 1.195.568 2.487.755 3.864m2.253-3.887.122 2.595.012.215.26.015 2.547.12-.132-2.813zm-2.306 5.253q.03.286.053.577l.104 2.21-2.666-.125-.14-.01-.01-.124-.125-2.685 2.211.104q.29.024.573.053m-2.848 2.851.33.016.626.048-2.08 2.082q-.45-.059-.914-.105-.047-.465-.105-.916l2.08-2.083.049.645zm1.252.059 1.77.083q.021 1.355-.07 2.784a34 34 0 0 0-3.818-.746zm-4.174-3.015a34 34 0 0 1 .745 3.823l2.119-2.121-.083-1.77q-1.354-.022-2.78.068m.816 8.008-2.808-.132-.132-2.812.033.001 1.724.081q.514.037 1.014.088.051.503.088 1.019l.08 1.728z" clip-rule="evenodd"/><path stroke="#000" stroke-width=".819" d="M96.766 39.813q-.38-.11-.771-.214.104-1.477.09-2.877h.005l-.006-.134a35 35 0 0 0-.11-2.35l-.026-.546q.26.028.517.06l-.777-.779.059.517-.54-.025q-1.143-.093-2.348-.11l-.14-.007.001.005q-1.398-.014-2.873.091l-.093-.345-.192.193.046.17-.236.02-.144.144.415-.034c.35 1.323.644 2.769.844 4.32l.083.725a35 35 0 0 0-5.846-.064l-.093-.345-.192.193.046.17-.236.02-.192.192.475-.038c.398 1.516.723 3.19.917 5h-.013a35 35 0 0 0-5.835-.063q-.045-.174-.093-.345l-.192.192.046.17-.236.02-.192.193.475-.038c.35 1.333.644 2.79.842 4.352l.075.649a35 35 0 0 0-5.848-.064l-.093-.345-.192.192.047.17-.237.02-.192.193.475-.038c.347 1.32.638 2.76.836 4.305l.078.676-.45-.02a35 35 0 0 0-2.417-.114l-.106-.005v.004a35 35 0 0 0-2.817.087q-.05-.195-.103-.386l-.237.237.047.17-.237.02-.192.193q.239-.021.475-.038c.395 1.502.717 3.16.913 4.951a35 35 0 0 0-6.038-.041l-.046-.17-1.416 1.417 2.197 2.2a34 34 0 0 0-.677-3.232 35 35 0 0 1 3.031-.084l.142 3.01 3.007.142c.015.983-.01 1.995-.084 3.036a34 34 0 0 0-3.229-.678l2.471 2.473 1.57-1.571a32 32 0 0 0-.597-.167c.169-2.136.135-4.16-.041-6.044 1.788.195 3.445.517 4.945.913q-.038.535-.095 1.08l.193-.192q.043-.423.076-.841.303.081.597.167l.237-.237a33 33 0 0 0-.812-.225 35 35 0 0 0 .087-2.82h.004l-.005-.1q-.017-1.244-.113-2.42l-.022-.456.655.076c1.551.198 2.997.49 4.32.84q-.037.534-.094 1.08l.192-.193q.044-.423.077-.841.302.081.597.167l.192-.193q-.379-.11-.771-.213c.15-2.067.11-4.027-.064-5.855l.624.072c1.57.199 3.033.493 4.37.846q-.037.536-.094 1.08l.192-.192q.045-.423.077-.841.302.081.597.167l.192-.192q-.379-.11-.771-.214a35 35 0 0 0-.062-5.837l-.001-.018c1.807.194 3.48.52 4.993.919q-.038.535-.094 1.08l.192-.193q.045-.423.077-.841.302.082.597.167l.192-.192q-.379-.11-.771-.214a35 35 0 0 0-.064-5.849v-.004l.724.084c1.55.2 2.993.494 4.315.844q-.038.507-.09 1.02l.143-.144q.044-.423.076-.84.303.082.597.166zm-.826-3.097a35 35 0 0 1-.077 2.849 34 34 0 0 0-3.904-.768l2.164-2.167zm-5.258 1.026q.057.447.104.905h.012v.012q.457.047.904.104l2.143-2.146-.974-.045-.046-.976zm2.13-2.425-2.164 2.167a34 34 0 0 0-.767-3.908 35 35 0 0 1 2.846-.077zm.208.074-.085-1.828 2.809.132.131 2.813-1.812-.085-.97-.074zM90.61 39l-.016-.15-.144-.014-2.657-.125.11 2.35.034.45.465.035 2.331.11zm.158 2.862-1.787-.084-2.145 2.148c1.376.188 2.666.448 3.86.756q.093-1.447.072-2.82Zm-5.1 1.913h.007v.008l.907.105 2.112-2.114-.302-.023-.663-.031-.03-.65-.025-.317-2.111 2.114zm-.898-5.026c.307 1.195.568 2.487.755 3.864l2.145-2.148-.084-1.788a35 35 0 0 0-2.816.072Zm.803 11.062q.093-1.448.072-2.82l-1.786-.084-2.146 2.148c1.376.187 2.666.448 3.86.756Zm-2.805-3.882.054.703.716.055 2.073.097-.123-2.644-.016-.16-.157-.016-2.645-.124zm-.161.919.921.043.051.004-2.123 2.126a34 34 0 0 0-.915-.105q-.047-.465-.105-.916l2.123-2.126.005.065zm-2.205.894 2.146-2.148-.084-1.788a35 35 0 0 0-2.817.072c.307 1.195.568 2.487.755 3.864Zm.048 7.198q.093-1.44.073-2.805l-1.802-.084-2.13 2.133c1.375.187 2.666.448 3.86.756Zm-5.035-.925q-.046-.45-.102-.887l2.104-2.106.032.566.02.404.448.021.52.03-2.104 2.107a35 35 0 0 0-.885-.102l-.001-.032zm-.136-1.144 2.13-2.133-.084-1.804q-1.364-.02-2.801.073c.307 1.195.568 2.487.755 3.864Zm2.253-3.887.122 2.595.012.215.26.015 2.547.12-.132-2.813zm-2.306 5.253q.03.286.053.577l.104 2.21-2.666-.125-.14-.01-.01-.124-.125-2.685 2.211.104q.29.024.573.053Zm-2.848 2.851.33.016.626.048-2.08 2.082q-.45-.059-.914-.105-.047-.465-.105-.916l2.08-2.083.049.645zm1.252.059 1.77.083q.021 1.355-.07 2.784a34 34 0 0 0-3.818-.746zm-4.174-3.015a34 34 0 0 1 .745 3.823l2.119-2.121-.083-1.77q-1.354-.022-2.78.068Zm.816 8.008-2.808-.132-.132-2.812.033.001 1.724.081q.514.037 1.014.088.051.503.088 1.019l.08 1.728z" clip-rule="evenodd" mask="url(#c)"/><path fill="#4a81e8" stroke="#000" stroke-linecap="round" stroke-width="1.228" d="M106.49 30.64a.59.59 0 0 0 .156-.576c-.739-1.82-1.53-3.126-2.6-4.199-1.073-1.074-2.46-1.949-4.444-2.853a.59.59 0 0 0-.567.158l-2.338 2.345c1.656 1.108 2.96 2.105 4.133 3.264 1.176 1.163 2.205 2.475 3.326 4.2zm-10.803-3.58-3.043 3.046 3.78 3.053.051.042.041.05 3.05 3.785 3.047-3.05c-.922-1.742-1.782-2.989-2.832-4.036-1.053-1.05-2.322-1.924-4.094-2.89Z"/><path stroke="#000" stroke-width="1.228" d="M98.623 38.132c-1.745-3.708-3.325-5.248-7.077-7.085l-29.1 29.134 7.077 7.085z"/><path fill="#2e59a8" stroke="#000" stroke-linecap="round" stroke-width="1.228" d="M92.353 29.488c1.899 1.004 3.345 1.958 4.583 3.194s2.213 2.697 3.245 4.642c.367.692.036 1.507-.57 1.882-.62.384-1.51.281-1.897-.449-.971-1.83-1.808-3.051-2.802-4.043-.993-.992-2.2-1.809-3.985-2.753-.73-.386-.835-1.275-.452-1.898.373-.607 1.186-.94 1.878-.575Zm4.261-4.268c1.9 1.003 3.345 1.957 4.584 3.193s2.212 2.697 3.245 4.642c.367.691.035 1.507-.57 1.882-.621.384-1.51.281-1.897-.449-.971-1.83-1.809-3.052-2.802-4.043s-2.2-1.809-3.985-2.753c-.73-.386-.835-1.275-.453-1.898.374-.607 1.187-.94 1.878-.575Z"/><path fill="#000" d="M102.501 30.229c.619-1.107 1.487-1.49 2.596-1.373-3.557-4.955-6.892-4.22-8.052-2.972.954-.232 4.339 3.12 5.456 4.345m-4.328 3.687c.583-1.735 1.899-2.231 2.686-2.045-2.422-3.148-4.918-4.236-5.863-4.387l-2.397 2.4c1.52.026 4.35 2.699 5.574 4.032"/><path fill="#040d1f" d="M22.941 71.6c0-22.302 18.07-40.38 40.333-40.38s40.333 18.078 40.333 40.38c0 22.3-18.07 40.379-40.333 40.379S22.941 93.9 22.941 71.599"/><path stroke="#2d57a9" stroke-miterlimit="10" stroke-width="2.423" d="M25.975 71.903c0 19.45 16.71 37.04 37.3 37.04s37.3-17.59 37.3-37.04"/><path stroke="#50e4c2" stroke-miterlimit="10" stroke-width="2.423" d="M26.303 70.136c0-18.757 16.563-35.719 36.972-35.719 20.408 0 36.971 16.962 36.971 35.719"/><path fill="#2d57a9" d="M59.782 100.543c-1.382-.323-6.405-2.133-8.743-2.998l2.714 2.177-2.911-.372 2.236 1.884-3.802-.819 3.475 2.341-4.627-1.124 3.604 2.625-5.181-1.212 4.442 2.582-5.79-1.789 5.191 3.093 8.602 3.064-2.725-1.83 3.313.873-3.769-1.863 5.693.461-4.888-1.689 3.748.329-3.91-1.798 4.161.482-4.051-1.733 3.27.035-3.986-1.591 3.683.188-3.356-1.71zm7.765 0c1.382-.323 6.405-2.133 8.743-2.998l-2.714 2.177 2.911-.372-2.236 1.884 3.802-.819-3.475 2.341 4.627-1.124-3.605 2.625 5.182-1.212-4.442 2.582 5.79-1.789-5.191 3.093-8.602 3.064 2.725-1.83-3.313.873 3.769-1.863-5.693.461 4.888-1.689-3.748.329 3.91-1.798-4.161.482 4.05-1.733-3.27.035 3.987-1.591-3.683.188 3.355-1.71z"/><mask id="d" width="82" height="81" x="22" y="31" mask-type="alpha" maskUnits="userSpaceOnUse"><path fill="#040d1f" d="M22.941 71.6c0-22.302 18.07-40.38 40.333-40.38s40.333 18.078 40.333 40.38c0 22.3-18.07 40.379-40.333 40.379S22.941 93.9 22.941 71.599"/></mask><g mask="url(#d)"><path fill="#4d84e8" d="m48.974 80.148-7.531-7.724-9.368 1.287-1.653-2.39 11.94-.92c7.347 5.885 16.898 19.493 20.756 25.562l-1.47-.552c-4.408-6.473-10.286-12.873-12.674-15.263"/><path fill="#47e3c0" d="m30.606 71.504-1.102-1.655c6.906 0 10.531-.858 11.572-1.288l1.47 1.656c-2.205 1.177-8.879 1.349-11.94 1.287"/><path fill="#000" d="m40.893 66.723-3.674 1.103c-3.674.883-7.837.675-8.817.368l.919 1.84c3.38.44 9.184-.552 11.572-.92l16.09 17.821c-.293-3.383-10.028-14.94-12.233-17.27-1.028-1.765-3-2.697-3.857-2.942"/><path fill="#47e3c0" d="m40.71 65.436-1.837 2.206 2.204-.735c1.764.588 5.878 5.64 7.715 8.091l11.021 14.528-6.245-10.114-3.674-5.15c-2.265-2.451-6.98-7.502-7.715-8.09-.734-.59-1.285-.736-1.47-.736"/><path fill="#000" d="M40.158 63.78c-1.176 1.324-2.327 3.494-2.756 4.414h1.286l2.02-2.575c8.818 6.18 16.532 18.145 19.288 23.356C50.885 68.819 42.974 63.78 40.158 63.78"/><path fill="#4d84e8" d="m34.417 82.577-7.53-7.724-9.369 1.288-1.653-2.39 11.94-.92c7.347 5.884 16.899 19.493 20.756 25.562l-1.47-.552c-4.408-6.473-10.286-12.873-12.674-15.264"/><path fill="#47e3c0" d="m16.05 73.934-1.103-1.655c6.907 0 10.532-.859 11.572-1.288l1.47 1.656c-2.204 1.177-8.878 1.348-11.94 1.287"/><path fill="#000" d="m26.336 69.153-3.673 1.103c-3.674.883-7.838.674-8.817.368l.918 1.839c3.38.441 9.184-.552 11.572-.92l16.09 17.822c-.293-3.384-10.028-14.94-12.232-17.27-1.029-1.765-3-2.697-3.858-2.942"/><path fill="#47e3c0" d="m26.153 67.865-1.837 2.207 2.205-.736c1.763.589 5.877 5.64 7.714 8.092l11.022 14.528-6.246-10.114-3.674-5.15c-2.265-2.452-6.98-7.503-7.714-8.091-.735-.589-1.286-.736-1.47-.736"/><path fill="#000" d="M25.601 66.21c-1.176 1.324-2.327 3.494-2.755 4.414h1.285l2.021-2.575c8.817 6.179 16.532 18.145 19.287 23.355C36.329 71.25 28.418 66.21 25.6 66.21"/><path fill="#4d84e8" d="m77.118 80.148 7.53-7.724 9.369 1.287 1.653-2.39-11.94-.92c-7.347 5.885-16.899 19.493-20.756 25.562l1.47-.552c4.408-6.473 10.286-12.873 12.674-15.263"/><path fill="#47e3c0" d="m95.486 71.504 1.102-1.655c-6.907 0-10.531-.858-11.572-1.288l-1.47 1.656c2.204 1.177 8.878 1.349 11.94 1.287"/><path fill="#000" d="m85.199 66.723 3.674 1.103c3.673.883 7.837.675 8.816.368l-.918 1.84c-3.38.44-9.184-.552-11.572-.92l-16.09 17.821c.293-3.383 10.028-14.94 12.233-17.27 1.028-1.765 3-2.697 3.857-2.942"/><path fill="#47e3c0" d="m85.382 65.436 1.837 2.206-2.204-.735c-1.764.588-5.878 5.64-7.715 8.091L66.279 89.526l6.245-10.114 3.674-5.15c2.265-2.451 6.98-7.502 7.714-8.09.735-.59 1.286-.736 1.47-.736"/><path fill="#000" d="M85.934 63.78c1.176 1.324 2.327 3.494 2.755 4.414h-1.285l-2.02-2.575c-8.818 6.18-16.532 18.145-19.288 23.356C75.207 68.819 83.118 63.78 85.934 63.78"/><path fill="#4d84e8" d="m91.673 82.577 7.53-7.724 9.368 1.288 1.654-2.39-11.94-.92c-7.347 5.884-16.899 19.493-20.756 25.562l1.47-.552c4.408-6.473 10.286-12.873 12.674-15.264"/><path fill="#47e3c0" d="m110.04 73.934 1.103-1.655c-6.907 0-10.532-.859-11.573-1.288l-1.469 1.656c2.204 1.177 8.878 1.348 11.939 1.287"/><path fill="#000" d="m99.754 69.153 3.673 1.103c3.674.883 7.837.674 8.817.368l-.918 1.839c-3.38.441-9.185-.552-11.572-.92l-16.09 17.822c.293-3.384 10.028-14.94 12.232-17.27 1.029-1.765 3-2.697 3.858-2.942"/><path fill="#47e3c0" d="m99.937 67.865 1.836 2.207-2.204-.736c-1.763.589-5.878 5.64-7.715 8.092l-11.02 14.528 6.245-10.114 3.673-5.15c2.266-2.452 6.98-7.503 7.715-8.091.735-.589 1.286-.736 1.47-.736"/><path fill="#000" d="M100.489 66.21c1.175 1.324 2.327 3.494 2.755 4.414h-1.286l-2.02-2.575C91.12 74.228 83.406 86.194 80.65 91.404 89.76 71.25 97.672 66.21 100.489 66.21"/><path fill="#50e4c2" d="m47.43 41.97 9.136-6.13c9.486-2.668 17.873.107 20.88 1.828l-13.898 1.506 4.728 2.797-7.88 1.434 4.8 2.367-12.608 3.443 3.978-3.443-6.844 1.507 9.6-6.097z"/></g><path fill="#bb5334" d="M22 103.474c0 6.904 5.596 12.501 12.5 12.503 6.904.001 12.5-5.594 12.5-12.498s-5.596-12.501-12.5-12.502S22 96.57 22 103.474"/><path fill="#040d1f" d="M34.995 116.344c7.128 0 12.906-5.678 12.906-12.683 0-7.004-5.778-12.682-12.906-12.682-7.127 0-12.905 5.678-12.905 12.682s5.778 12.683 12.905 12.683"/><path fill="#000" fill-rule="evenodd" d="M34.5 88.976c8.008.002 14.5 6.495 14.5 14.503s-6.492 14.499-14.5 14.497S20 111.481 20 103.473s6.492-14.499 14.5-14.497m10.07 14.502c0-5.561-4.509-10.07-10.07-10.071s-10.07 4.506-10.07 10.067 4.509 10.07 10.07 10.071c5.561.002 10.07-4.506 10.07-10.067" clip-rule="evenodd"/><path fill="#bb5334" d="M80 103.474c0 6.904 5.596 12.501 12.5 12.503 6.904.001 12.5-5.594 12.5-12.498s-5.596-12.501-12.5-12.502S80 96.57 80 103.474"/><path fill="#040d1f" d="M92.995 116.344c-7.128 0-12.906-5.678-12.906-12.683 0-7.004 5.778-12.682 12.906-12.682 7.127 0 12.905 5.678 12.905 12.682s-5.778 12.683-12.905 12.683"/><path fill="#000" fill-rule="evenodd" d="M92.5 88.976c8.008.002 14.5 6.495 14.5 14.503s-6.492 14.499-14.5 14.497S78 111.481 78 103.473s6.492-14.499 14.5-14.497m10.069 14.502c0-5.561-4.508-10.07-10.069-10.071s-10.07 4.506-10.07 10.067 4.509 10.07 10.07 10.071c5.561.002 10.069-4.506 10.069-10.067" clip-rule="evenodd"/></svg>