<svg width="256" height="256" viewBox="0 0 256 256" fill="none" xmlns="http://www.w3.org/2000/svg">
<circle cx="128" cy="128" r="120" fill="#333333"/>
<circle cx="128" cy="128" r="100" fill="#444444"/>
<path d="M128 28c-44 0-79.5 35.5-79.5 79.5 0 29.3 15.7 54.8 39.3 68.5v37h12.3v-31.1c3.4 1.3 6.9 2.3 10.5 3.1v28h12.2v-26.2c3.4.3 6.9.5 10.3.5s6.9-.2 10.3-.5v26.2h12.2v-28c3.6-.8 7.1-1.8 10.5-3.1v31.1h12.3v-37c23.5-13.7 39.3-39.2 39.3-68.5 0-44-35.5-79.5-79.5-79.5zm-43.8 57.8c13 0 23.6 10.6 23.6 23.6s-10.6 23.6-23.6 23.6-23.6-10.6-23.6-23.6 10.6-23.6 23.6-23.6zm87.6 0c13 0 23.6 10.6 23.6 23.6s-10.6 23.6-23.6 23.6-23.6-10.6-23.6-23.6 10.6-23.6 23.6-23.6zM128 120l19.6 31.6H108.4L128 120z" fill="#FFFFFF"/>
</svg>
