<svg version="1.1" width="128" height= "128" viewBox="0.0 0.0 1428.0 1516.0" preserveAspectRatio="xMidYMid meet" fill="none" stroke="none" stroke-linecap="square" stroke-miterlimit="10" xmlns:xlink="http://www.w3.org/1999/xlink" xmlns="http://www.w3.org/2000/svg"><g><path fill="#000000" fill-opacity="0.0" d="m0 0l1428.0 0l0 1516.0l-1428.0 0z" fill-rule="evenodd"/><path fill="#323232" d="m611.74786 383.73166l235.80463 -235.80466l7.1154175 7.1153717l-235.80469 235.80467z" fill-rule="evenodd"/><path fill="#323232" d="m703.66986 286.13358l10.668945 -10.668915l7.1153564 7.115387l-10.668884 10.668915z" fill-rule="evenodd"/><path fill="#323232" d="m721.3213 268.48218l10.668884 -10.668915l7.1154175 7.115387l-10.668945 10.668884z" fill-rule="evenodd"/><path fill="#323232" d="m738.9727 250.83075l10.668884 -10.6689l7.1154175 7.1153717l-10.668945 10.668915z" fill-rule="evenodd"/><path fill="#323232" d="m756.62415 233.17934l10.668884 -10.6689l7.1153564 7.1153717l-10.668884 10.668915z" fill-rule="evenodd"/><path fill="#323232" d="m774.2755 215.52792l10.668945 -10.6689l7.1153564 7.1153717l-10.668884 10.6689z" fill-rule="evenodd"/><path fill="#323232" d="m791.92694 197.87651l10.668945 -10.668915l7.1153564 7.115387l-10.668945 10.6689z" fill-rule="evenodd"/><path fill="#323232" d="m809.57837 180.2251l10.668884 -10.668915l7.1154175 7.115387l-10.668945 10.6689z" fill-rule="evenodd"/><path fill="#323232" d="m827.2298 162.57368l10.668884 -10.668915l7.1153564 7.115387l-10.668884 10.6689z" fill-rule="evenodd"/><path fill="#323232" d="m615.7124 374.09106l10.668884 -10.668915l7.1154175 7.115387l-10.668945 10.668884z" fill-rule="evenodd"/><path fill="#323232" d="m633.36383 356.43964l10.668884 -10.668915l7.1154175 7.115387l-10.668945 10.668915z" fill-rule="evenodd"/><path fill="#323232" d="m651.01526 338.78824l10.668884 -10.668915l7.1153564 7.115387l-10.668884 10.668884z" fill-rule="evenodd"/><path fill="#323232" d="m668.6666 321.1368l10.668945 -10.668915l7.1153564 7.115387l-10.668884 10.668915z" fill-rule="evenodd"/><path fill="#323232" d="m686.31805 303.4854l10.668945 -10.668915l7.1153564 7.1153564l-10.668945 10.668915z" fill-rule="evenodd"/><path fill="#323232" d="m1126.7954 205.48409l10.78479 -10.7847595l46.90735 46.907257l-10.78479 10.784775z" fill-rule="evenodd"/><path fill="#323232" d="m1091.9375 240.34209l18.736816 -18.736908l46.90735 46.907272l-18.736938 18.736908z" fill-rule="evenodd"/><path fill="#323232" d="m887.88214 198.55661l-4.1558228 -58.062347l7.8395386 -14.440338l88.69501 50.333267l81.453125 84.31612l-49.63806 49.638092l-32.178894 -32.178894l-4.8618164 -12.324524l-8.064758 -12.131775l-19.269653 -7.6013184l-51.154053 25.188293z" fill-rule="evenodd"/><path stroke="#323232" stroke-width="30.04724409448819" stroke-miterlimit="8.0" stroke-linecap="round" d="m887.88214 198.55661l-4.1558228 -58.062347l7.8395386 -14.440338l88.69501 50.333267l81.453125 84.31612l-49.63806 49.638092l-32.178894 -32.178894l-4.8618164 -12.324524l-8.064758 -12.131775l-19.269653 -7.6013184l-51.154053 25.188293z" fill-rule="evenodd"/><path fill="#323232" d="m780.49677 561.1318l290.66913 -290.6691l37.551758 37.55179l-290.66907 290.66907z" fill-rule="evenodd"/><path stroke="#323232" stroke-width="30.04724409448819" stroke-miterlimit="8.0" stroke-linecap="round" d="m780.49677 561.1318l290.66913 -290.6691l37.551758 37.55179l-290.66907 290.66907z" fill-rule="evenodd"/><path fill="#ffffff" d="m780.49677 561.1318l290.66913 -290.6691l37.551758 37.55179l-290.66907 290.66907z" fill-rule="evenodd"/><path stroke="#ffffff" stroke-width="4.666666666666667" stroke-linejoin="round" stroke-linecap="butt" d="m780.49677 561.1318l290.66913 -290.6691l37.551758 37.55179l-290.66907 290.66907z" fill-rule="evenodd"/><path fill="#323232" d="m1002.2375 714.2484l-37.129456 -38.779663l-8.664673 -18.565857l2.0638428 -14.438171l11.962891 -30.942322l-72.608826 72.608826l0 64.35779l71.78589 0z" fill-rule="evenodd"/><path stroke="#323232" stroke-width="30.04724409448819" stroke-miterlimit="8.0" stroke-linecap="round" d="m1002.2375 714.2484l-37.129456 -38.779663l-8.664673 -18.565857l2.0638428 -14.438171l11.962891 -30.942322l-72.608826 72.608826l0 64.35779l71.78589 0z" fill-rule="evenodd"/><path fill="#ffffff" d="m1002.2375 714.2484l-37.129456 -38.779663l-8.664673 -18.565857l2.0638428 -14.438171l11.962891 -30.942322l-72.608826 72.608826l0 64.35779l71.78589 0z" fill-rule="evenodd"/><path stroke="#ffffff" stroke-width="4.666666666666667" stroke-linejoin="round" stroke-linecap="butt" d="m1002.2375 714.2484l-37.129456 -38.779663l-8.664673 -18.565857l2.0638428 -14.438171l11.962891 -30.942322l-72.608826 72.608826l0 64.35779l71.78589 0z" fill-rule="evenodd"/><path fill="#323232" d="m830.5214 681.1492l184.30267 -184.30267l35.16089 35.16095l-184.30261 184.30267z" fill-rule="evenodd"/><path fill="#323232" d="m1006.41284 724.1886l30.160522 7.28302l18.520386 6.7437134l18.60913 8.5216675l1.6069336 -10.58551l12.374268 6.600769l11.965088 13.615234l11.551392 -83.33722l-26.403198 -1.6502075l-18.152222 -1.6502075l-23.51648 21.86621z" fill-rule="evenodd"/><path stroke="#323232" stroke-width="30.04724409448819" stroke-miterlimit="8.0" stroke-linecap="round" d="m1006.41284 724.1886l30.160522 7.28302l18.520386 6.7437134l18.60913 8.5216675l1.6069336 -10.58551l12.374268 6.600769l11.965088 13.615234l11.551392 -83.33722l-26.403198 -1.6502075l-18.152222 -1.6502075l-23.51648 21.86621z" fill-rule="evenodd"/><path fill="#323232" d="m871.39526 605.6774l85.810425 -85.810425l22.539734 -1.3859863l17.478699 0.14941406l23.65503 2.2024536l19.349731 5.3252563l22.641602 10.262817l23.618164 26.91864l14.327759 20.928528l2.6745605 20.826721l-1.0264893 16.302795l-8.376709 13.075989l-7.800537 14.695862l-4.5369873 6.187134l-10.314819 10.31488l-11.776611 10.282349l-19.388794 19.388733l27.029175 27.029053l23.843384 33.74469l26.366333 37.09485l13.745239 29.640747l77.71533 -77.62433l16.29187 -31.563904l0.59558105 -46.432983l-4.5369873 -34.24054l-9.188721 -33.118774l-13.9053955 -29.5802l-17.262085 -23.862915l-23.20459 -27.332214l-19.566406 -20.389313l-4.8638916 -13.94223l-0.5609131 -17.062897l7.2006836 -14.251923l23.51416 -23.514282l14.540039 -2.7893066l15.475464 -0.19921875l18.117554 6.5661316l42.305298 42.30533l21.86621 -21.866241l-109.331055 -123.35568l-47.056763 -14.052704l-260.73157 260.7316z" fill-rule="evenodd"/><path stroke="#323232" stroke-width="30.04724409448819" stroke-miterlimit="8.0" stroke-linecap="round" d="m871.39526 605.6774l85.810425 -85.810425l22.539734 -1.3859863l17.478699 0.14941406l23.65503 2.2024536l19.349731 5.3252563l22.641602 10.262817l23.618164 26.91864l14.327759 20.928528l2.6745605 20.826721l-1.0264893 16.302795l-8.376709 13.075989l-7.800537 14.695862l-4.5369873 6.187134l-10.314819 10.31488l-11.776611 10.282349l-19.388794 19.388733l27.029175 27.029053l23.843384 33.74469l26.366333 37.09485l13.745239 29.640747l77.71533 -77.62433l16.29187 -31.563904l0.59558105 -46.432983l-4.5369873 -34.24054l-9.188721 -33.118774l-13.9053955 -29.5802l-17.262085 -23.862915l-23.20459 -27.332214l-19.566406 -20.389313l-4.8638916 -13.94223l-0.5609131 -17.062897l7.2006836 -14.251923l23.51416 -23.514282l14.540039 -2.7893066l15.475464 -0.19921875l18.117554 6.5661316l42.305298 42.30533l21.86621 -21.866241l-109.331055 -123.35568l-47.056763 -14.052704l-260.73157 260.7316z" fill-rule="evenodd"/><path fill="#ffffff" d="m871.39526 605.6774l85.810425 -85.810425l22.539734 -1.3859863l17.478699 0.14941406l23.65503 2.2024536l19.349731 5.3252563l22.641602 10.262817l23.618164 26.91864l14.327759 20.928528l2.6745605 20.826721l-1.0264893 16.302795l-8.376709 13.075989l-7.800537 14.695862l-4.5369873 6.187134l-10.314819 10.31488l-11.776611 10.282349l-19.388794 19.388733l27.029175 27.029053l23.843384 33.74469l26.366333 37.09485l13.745239 29.640747l77.71533 -77.62433l16.29187 -31.563904l0.59558105 -46.432983l-4.5369873 -34.24054l-9.188721 -33.118774l-13.9053955 -29.5802l-17.262085 -23.862915l-23.20459 -27.332214l-19.566406 -20.389313l-4.8638916 -13.94223l-0.5609131 -17.062897l7.2006836 -14.251923l23.51416 -23.514282l14.540039 -2.7893066l15.475464 -0.19921875l18.117554 6.5661316l42.305298 42.30533l21.86621 -21.866241l-109.331055 -123.35568l-47.056763 -14.052704l-260.73157 260.7316z" fill-rule="evenodd"/><path stroke="#ffffff" stroke-width="4.666666666666667" stroke-linejoin="round" stroke-linecap="butt" d="m871.39526 605.6774l85.810425 -85.810425l22.539734 -1.3859863l17.478699 0.14941406l23.65503 2.2024536l19.349731 5.3252563l22.641602 10.262817l23.618164 26.91864l14.327759 20.928528l2.6745605 20.826721l-1.0264893 16.302795l-8.376709 13.075989l-7.800537 14.695862l-4.5369873 6.187134l-10.314819 10.31488l-11.776611 10.282349l-19.388794 19.388733l27.029175 27.029053l23.843384 33.74469l26.366333 37.09485l13.745239 29.640747l77.71533 -77.62433l16.29187 -31.563904l0.59558105 -46.432983l-4.5369873 -34.24054l-9.188721 -33.118774l-13.9053955 -29.5802l-17.262085 -23.862915l-23.20459 -27.332214l-19.566406 -20.389313l-4.8638916 -13.94223l-0.5609131 -17.062897l7.2006836 -14.251923l23.51416 -23.514282l14.540039 -2.7893066l15.475464 -0.19921875l18.117554 6.5661316l42.305298 42.30533l21.86621 -21.866241l-109.331055 -123.35568l-47.056763 -14.052704l-260.73157 260.7316z" fill-rule="evenodd"/><path fill="#323232" d="m350.34354 1396.7815l-140.79973 -140.79968l130.01497 151.58447z" fill-rule="evenodd"/><path stroke="#323232" stroke-width="30.04724409448819" stroke-miterlimit="8.0" stroke-linecap="round" d="m350.34354 1396.7815l-140.79973 -140.79968l130.01497 151.58447z" fill-rule="evenodd"/><path fill="#323232" d="m112.706085 1159.144l100.6752 100.67529l-106.73026 -94.62024z" fill-rule="evenodd"/><path stroke="#323232" stroke-width="30.04724409448819" stroke-miterlimit="8.0" stroke-linecap="round" d="m112.706085 1159.144l100.6752 100.67529l-106.73026 -94.62024z" fill-rule="evenodd"/><path fill="#323232" d="m369.74747 977.2063l436.58835 -436.58838l65.12445 65.12445l-436.58835 436.58832z" fill-rule="evenodd"/><path stroke="#323232" stroke-width="30.04724409448819" stroke-miterlimit="8.0" stroke-linecap="round" d="m369.74747 977.2063l436.58835 -436.58838l65.12445 65.12445l-436.58835 436.58832z" fill-rule="evenodd"/><path fill="#323232" d="m332.19568 939.6545l68.47681 -68.47681l37.55179 37.55182l-68.47681 68.47681z" fill-rule="evenodd"/><path stroke="#323232" stroke-width="30.04724409448819" stroke-miterlimit="8.0" stroke-linecap="round" d="m332.19568 939.6545l68.47681 -68.47681l37.55179 37.55182l-68.47681 68.47681z" fill-rule="evenodd"/><path fill="#323232" d="m358.18958 913.6606l198.0232 198.02325l0 79.21118l-198.8548 198.85474l-237.62878 -237.62878z" fill-rule="evenodd"/><path stroke="#323232" stroke-width="30.04724409448819" stroke-miterlimit="8.0" stroke-linecap="round" d="m358.18958 913.6606l198.0232 198.02325l0 79.21118l-198.8548 198.85474l-237.62878 -237.62878z" fill-rule="evenodd"/><path fill="#ffffff" d="m358.18958 913.6606l198.0232 198.02325l0 79.21118l-198.8548 198.85474l-237.62878 -237.62878z" fill-rule="evenodd"/><path stroke="#ffffff" stroke-width="4.666666666666667" stroke-linejoin="round" stroke-linecap="butt" d="m358.18958 913.6606l198.0232 198.02325l0 79.21118l-198.8548 198.85474l-237.62878 -237.62878z" fill-rule="evenodd"/><path fill="#ffffff" d="m332.19568 939.6545l68.47681 -68.47681l37.55179 37.55182l-68.47681 68.47681z" fill-rule="evenodd"/><path stroke="#ffffff" stroke-width="4.666666666666667" stroke-linejoin="round" stroke-linecap="butt" d="m332.19568 939.6545l68.47681 -68.47681l37.55179 37.55182l-68.47681 68.47681z" fill-rule="evenodd"/><path fill="#ffffff" d="m369.74747 977.2063l436.58835 -436.58838l65.12445 65.12445l-436.58835 436.58832z" fill-rule="evenodd"/><path stroke="#ffffff" stroke-width="4.666666666666667" stroke-linejoin="round" stroke-linecap="butt" d="m369.74747 977.2063l436.58835 -436.58838l65.12445 65.12445l-436.58835 436.58832z" fill-rule="evenodd"/><path fill="#323232" d="m347.45352 954.91235l68.47681 -68.47681l9.953186 9.953186l-68.47681 68.47681z" fill-rule="evenodd"/><path stroke="#323232" stroke-width="30.04724409448819" stroke-miterlimit="8.0" stroke-linecap="round" d="m347.45352 954.91235l68.47681 -68.47681l9.953186 9.953186l-68.47681 68.47681z" fill-rule="evenodd"/><path fill="#282828" d="m378.6027 923.7654l37.3179 -37.317932l9.953186 9.953186l-37.317932 37.317932z" fill-rule="evenodd"/><path stroke="#282828" stroke-width="4.666666666666667" stroke-linejoin="round" stroke-linecap="butt" d="m378.6027 923.7654l37.3179 -37.317932l9.953186 9.953186l-37.317932 37.317932z" fill-rule="evenodd"/><path fill="#323232" d="m429.5575 842.2927l528.89557 -528.8956l8.627808 8.627838l-528.89557 528.8956z" fill-rule="evenodd"/><path stroke="#323232" stroke-width="30.04724409448819" stroke-miterlimit="8.0" stroke-linecap="round" d="m429.5575 842.2927l528.89557 -528.8956l8.627808 8.627838l-528.89557 528.8956z" fill-rule="evenodd"/><path fill="#ffffff" d="m429.5575 842.2927l528.89557 -528.8956l8.627808 8.627838l-528.89557 528.8956z" fill-rule="evenodd"/><path stroke="#ffffff" stroke-width="4.666666666666667" stroke-linejoin="round" stroke-linecap="butt" d="m429.5575 842.2927l528.89557 -528.8956l8.627808 8.627838l-528.89557 528.8956z" fill-rule="evenodd"/><path fill="#323232" d="m495.6299 1016.04065l393.05942 -393.05945l8.627869 8.627869l-393.05948 393.0594z" fill-rule="evenodd"/><path fill="#323232" d="m532.17957 1032.5746l105.201355 105.201416l159.24426 -77.561646l17.738586 5.364258l97.36182 -97.36182l-108.49957 -27.63977l-18.56366 18.56372l-23.51648 9.487549l-25.989563 2.0638428l-25.578064 -7.4259033l-20.216064 -16.088379l-9.901184 -13.201599l-5.775696 -23.10498l-0.41149902 -23.514282l8.662476 -25.9917l-160.32709 159.82037z" fill-rule="evenodd"/><path stroke="#323232" stroke-width="30.04724409448819" stroke-miterlimit="8.0" stroke-linecap="round" d="m532.17957 1032.5746l105.201355 105.201416l159.24426 -77.561646l17.738586 5.364258l97.36182 -97.36182l-108.49957 -27.63977l-18.56366 18.56372l-23.51648 9.487549l-25.989563 2.0638428l-25.578064 -7.4259033l-20.216064 -16.088379l-9.901184 -13.201599l-5.775696 -23.10498l-0.41149902 -23.514282l8.662476 -25.9917l-160.32709 159.82037z" fill-rule="evenodd"/><path fill="#323232" d="m759.49567 783.8059l20.627502 -9.076111l14.438171 -1.2365723l18.154419 4.1254883l16.088318 15.265442l8.251038 14.024536l3.300354 17.329285l-1.2387085 13.613037l-35.47711 102.31238l113.092834 15.527527l11.239563 -5.67395l6.8584595 -27.180664l19.388794 -43.318848l4.9506226 -35.47711l4.5369263 -36.718018l-2.8867798 -33.417664l37.95465 -37.95459l-5.10437 -3.6533813l-12.376526 4.1254883l-22.899231 -1.0308228l-18.977295 -4.1254883l-16.088379 -10.726318l-11.965027 -15.67688l-6.600769 -16.502014l1.032959 -15.468994l2.0097046 -9.550354l-13.9227295 -13.922791z" fill-rule="evenodd"/><path stroke="#323232" stroke-width="30.04724409448819" stroke-miterlimit="8.0" stroke-linecap="round" d="m759.49567 783.8059l20.627502 -9.076111l14.438171 -1.2365723l18.154419 4.1254883l16.088318 15.265442l8.251038 14.024536l3.300354 17.329285l-1.2387085 13.613037l-35.47711 102.31238l113.092834 15.527527l11.239563 -5.67395l6.8584595 -27.180664l19.388794 -43.318848l4.9506226 -35.47711l4.5369263 -36.718018l-2.8867798 -33.417664l37.95465 -37.95459l-5.10437 -3.6533813l-12.376526 4.1254883l-22.899231 -1.0308228l-18.977295 -4.1254883l-16.088379 -10.726318l-11.965027 -15.67688l-6.600769 -16.502014l1.032959 -15.468994l2.0097046 -9.550354l-13.9227295 -13.922791z" fill-rule="evenodd"/><path fill="#ffffff" d="m532.17957 1032.5746l105.201355 105.201416l159.24426 -77.561646l17.738586 5.364258l97.36182 -97.36182l-108.49957 -27.63977l-18.56366 18.56372l-23.51648 9.487549l-25.989563 2.0638428l-25.578064 -7.4259033l-20.216064 -16.088379l-9.901184 -13.201599l-5.775696 -23.10498l-0.41149902 -23.514282l8.662476 -25.9917l-160.32709 159.82037z" fill-rule="evenodd"/><path stroke="#ffffff" stroke-width="4.666666666666667" stroke-linejoin="round" stroke-linecap="butt" d="m532.17957 1032.5746l105.201355 105.201416l159.24426 -77.561646l17.738586 5.364258l97.36182 -97.36182l-108.49957 -27.63977l-18.56366 18.56372l-23.51648 9.487549l-25.989563 2.0638428l-25.578064 -7.4259033l-20.216064 -16.088379l-9.901184 -13.201599l-5.775696 -23.10498l-0.41149902 -23.514282l8.662476 -25.9917l-160.32709 159.82037z" fill-rule="evenodd"/><path fill="#ffffff" d="m759.49567 783.8059l20.627502 -9.076111l14.438171 -1.2365723l18.154419 4.1254883l16.088318 15.265442l8.251038 14.024536l3.300354 17.329285l-1.2387085 13.613037l-35.47711 102.31238l108.24182 28.010132l16.090576 -18.156555l6.8584595 -27.180664l19.388794 -43.318848l4.9506226 -35.47711l4.5369263 -36.718018l-2.8867798 -33.417664l37.95465 -37.95459l-5.10437 -3.6533813l-12.376526 4.1254883l-22.899231 -1.0308228l-18.977295 -4.1254883l-16.088379 -10.726318l-11.965027 -15.67688l-6.600769 -16.502014l1.032959 -15.468994l2.0097046 -9.550354l-13.9227295 -13.922791z" fill-rule="evenodd"/><path stroke="#ffffff" stroke-width="4.666666666666667" stroke-linejoin="round" stroke-linecap="butt" d="m759.49567 783.8059l20.627502 -9.076111l14.438171 -1.2365723l18.154419 4.1254883l16.088318 15.265442l8.251038 14.024536l3.300354 17.329285l-1.2387085 13.613037l-35.47711 102.31238l108.24182 28.010132l16.090576 -18.156555l6.8584595 -27.180664l19.388794 -43.318848l4.9506226 -35.47711l4.5369263 -36.718018l-2.8867798 -33.417664l37.95465 -37.95459l-5.10437 -3.6533813l-12.376526 4.1254883l-22.899231 -1.0308228l-18.977295 -4.1254883l-16.088379 -10.726318l-11.965027 -15.67688l-6.600769 -16.502014l1.032959 -15.468994l2.0097046 -9.550354l-13.9227295 -13.922791z" fill-rule="evenodd"/><path fill="#323232" d="m985.6207 732.51544l77.96216 -77.96222l13.669434 13.669373l-77.96222 77.96222z" fill-rule="evenodd"/><path fill="#282828" d="m996.4618 730.74396l30.769165 -30.769104l4.5997314 4.5997925l-30.769104 30.769043z" fill-rule="evenodd"/><path fill="#323232" d="m745.3207 616.9159l-31.35382 -31.35382l-48.68091 -106.4379l77.55939 -59.407196l37.95459 95.71161l33.209778 32.79828z" fill-rule="evenodd"/><path stroke="#323232" stroke-width="30.04724409448819" stroke-miterlimit="8.0" stroke-linecap="round" d="m745.3207 616.9159l-31.35382 -31.35382l-48.68091 -106.4379l77.55939 -59.407196l37.95459 95.71161l33.209778 32.79828z" fill-rule="evenodd"/><path fill="#ffffff" d="m745.3207 616.9159l-31.35382 -31.35382l-48.68091 -106.4379l77.55939 -59.407196l37.95459 95.71161l33.209778 32.79828z" fill-rule="evenodd"/><path stroke="#ffffff" stroke-width="4.666666666666667" stroke-linejoin="round" stroke-linecap="butt" d="m745.3207 616.9159l-31.35382 -31.35382l-48.68091 -106.4379l77.55939 -59.407196l37.95459 95.71161l33.209778 32.79828z" fill-rule="evenodd"/><path fill="#323232" d="m666.05585 445.8679l-50.311646 -50.311615l37.525818 63.097412z" fill-rule="evenodd"/><path stroke="#323232" stroke-width="30.04724409448819" stroke-miterlimit="8.0" stroke-linecap="round" d="m666.05585 445.8679l-50.311646 -50.311615l37.525818 63.097412z" fill-rule="evenodd"/><path fill="#323232" d="m911.53284 200.39088l-245.47699 245.477l281.39154 -209.56241z" fill-rule="evenodd"/><path stroke="#323232" stroke-width="30.04724409448819" stroke-miterlimit="8.0" stroke-linecap="round" d="m911.53284 200.39088l-245.47699 245.477l281.39154 -209.56241z" fill-rule="evenodd"/><path fill="#323232" d="m624.11316 403.09796l80.8468 -80.84683l7.7962036 7.796234l-80.8468 80.8468z" fill-rule="evenodd"/><path stroke="#323232" stroke-width="30.04724409448819" stroke-miterlimit="8.0" stroke-linecap="round" d="m624.11316 403.09796l80.8468 -80.84683l7.7962036 7.796234l-80.8468 80.8468z" fill-rule="evenodd"/><path fill="#323232" d="m693.00824 334.20193l176.16858 -176.16858l42.567383 42.567352l-176.16858 176.16861z" fill-rule="evenodd"/><path stroke="#323232" stroke-width="30.04724409448819" stroke-miterlimit="8.0" stroke-linecap="round" d="m693.00824 334.20193l176.16858 -176.16858l42.567383 42.567352l-176.16858 176.16861z" fill-rule="evenodd"/><path fill="#323232" fill-opacity="0.6045" d="m779.35535 638.7692l-34.590088 -0.8870239l84.25763 -84.25763l17.738586 17.738525z" fill-rule="evenodd"/><path fill="#ffffff" d="m624.6643 403.6491l80.8468 -80.84683l7.7962036 7.796234l-80.8468 80.8468z" fill-rule="evenodd"/><path stroke="#ffffff" stroke-width="4.666666666666667" stroke-linejoin="round" stroke-linecap="butt" d="m624.6643 403.6491l80.8468 -80.84683l7.7962036 7.796234l-80.8468 80.8468z" fill-rule="evenodd"/><path fill="#ffffff" d="m693.5594 334.75308l176.16858 -176.16858l42.567383 42.567368l-176.16858 176.1686z" fill-rule="evenodd"/><path stroke="#ffffff" stroke-width="4.666666666666667" stroke-linejoin="round" stroke-linecap="butt" d="m693.5594 334.75308l176.16858 -176.16858l42.567383 42.567368l-176.16858 176.1686z" fill-rule="evenodd"/><path fill="#323232" d="m1110.8602 249.66707l59.407227 -59.407196l18.658936 18.65895l-59.407227 59.407196z" fill-rule="evenodd"/><path stroke="#323232" stroke-width="30.04724409448819" stroke-miterlimit="8.0" stroke-linecap="round" d="m1110.8602 249.66707l59.407227 -59.407196l18.658936 18.65895l-59.407227 59.407196z" fill-rule="evenodd"/><path fill="#ffffff" d="m1110.8605 249.66733l59.407227 -59.407196l18.658936 18.65895l-59.407104 59.40721z" fill-rule="evenodd"/><path stroke="#ffffff" stroke-width="4.666666666666667" stroke-linejoin="round" stroke-linecap="butt" d="m1110.8605 249.66733l59.407227 -59.407196l18.658936 18.65895l-59.407104 59.40721z" fill-rule="evenodd"/><path fill="#282828" d="m179.01619 1178.7223l0 0c-2.9781342 -2.9780273 -2.9781342 -7.8065186 0 -10.784668l0 0c1.4301453 -1.4301758 3.3698425 -2.2336426 5.3923798 -2.2336426c2.0225372 0 3.9622498 0.8034668 5.392395 2.2336426l0 0c2.9781342 2.9781494 2.9781342 7.8066406 0 10.784668l0 0c-2.9781342 2.9781494 -7.8066406 2.9781494 -10.784775 0z" fill-rule="evenodd"/><path fill="#282828" d="m307.9007 1000.6697l0 0c-2.978119 -2.9781494 -2.978119 -7.8066406 0 -10.78479l0 0c1.4301758 -1.4301147 3.369873 -2.2335815 5.392395 -2.2335815c2.0225525 0 3.9622498 0.8034668 5.392395 2.2335815l0 0c2.978119 2.9781494 2.978119 7.8066406 0 10.78479l0 0c-2.9781494 2.9781494 -7.8066406 2.9781494 -10.78479 0z" fill-rule="evenodd"/><path fill="#282828" d="m400.99625 1300.3694l0 0c-2.9781494 -2.9781494 -2.9781494 -7.8066406 0 -10.78479l0 0c1.4301453 -1.4301758 3.3698425 -2.2336426 5.392395 -2.2336426c2.022522 0 3.9622192 0.8034668 5.3923645 2.2336426l0 0c2.9781494 2.9781494 2.9781494 7.8066406 0 10.78479l0 0c-2.978119 2.9781494 -7.8066406 2.9781494 -10.7847595 0z" fill-rule="evenodd"/><path fill="#282828" d="m510.04803 1128.558l0 0c-2.978119 -2.9781494 -2.978119 -7.8066406 0 -10.78479l0 0c1.4301453 -1.4300537 3.369873 -2.2335205 5.392395 -2.2335205c2.022522 0 3.9622192 0.8034668 5.392395 2.2335205l0 0c2.9781494 2.9781494 2.9781494 7.8066406 0 10.78479l0 0c-2.9781494 2.9781494 -7.8066406 2.9781494 -10.78479 0z" fill-rule="evenodd"/><path fill="#282828" d="m369.46594 1354.1752l0 0c-2.3825073 -2.3824463 -2.3825073 -6.2452393 0 -8.627808l30.561188 -30.561157c1.1441345 -1.144165 2.6958923 -1.7868652 4.313904 -1.7868652c1.618042 0 3.1697998 0.6427002 4.313904 1.7868652l0 0l0 0c2.3825073 2.3824463 2.3825073 6.2453613 0 8.627808l-30.561188 30.561157c-2.3825073 2.3825684 -6.2453003 2.3825684 -8.627808 0z" fill-rule="evenodd"/><path fill="#000000" fill-opacity="0.0" d="m217.86736 1269.256l256.20978 -256.20984" fill-rule="evenodd"/><path stroke="#323232" stroke-width="9.335958005249344" stroke-linejoin="round" stroke-linecap="butt" d="m217.86736 1269.256l256.20978 -256.20984" fill-rule="evenodd"/><path fill="#282828" d="m640.3597 937.92523l0 0c-1.8442383 -1.8442993 -1.8442383 -4.8344727 0 -6.678772l0 0c0.88568115 -0.8856201 2.086914 -1.3831787 3.3394165 -1.3831787c1.2525024 0 2.4537354 0.4975586 3.3393555 1.3831787l0 0c1.8442993 1.8442993 1.8442993 4.8344727 0 6.678772l0 0c-1.8442993 1.8442993 -4.8344727 1.8442993 -6.678772 0z" fill-rule="evenodd"/><path fill="#282828" d="m788.10455 998.18787l0 0c-2.9780884 -2.9781494 -2.9780884 -7.8066406 0 -10.78479l0 0c1.4301758 -1.4301147 3.369873 -2.2335815 5.392395 -2.2335815c2.022522 0 3.9622803 0.8034668 5.392395 2.2335815l0 0c2.9781494 2.9781494 2.9781494 7.8066406 0 10.78479l0 0c-2.9781494 2.9781494 -7.8066406 2.9781494 -10.78479 0z" fill-rule="evenodd"/><path fill="#282828" d="m868.02344 894.2523l0 0c-2.9781494 -2.9780884 -2.9781494 -7.8066406 0 -10.784729l0 0c1.4301147 -1.4301758 3.369812 -2.2336426 5.392395 -2.2336426c2.022522 0 3.9622192 0.8034668 5.392334 2.2336426l0 0c2.9781494 2.9780884 2.9781494 7.8066406 0 10.784729l0 0c-2.9780884 2.9781494 -7.8066406 2.9781494 -10.784729 0z" fill-rule="evenodd"/><path fill="#282828" d="m818.11676 756.0622l0 0c-2.9780884 -2.9781494 -2.9780884 -7.8066406 0 -10.78479l0 0c1.4301758 -1.4301758 3.369873 -2.2335815 5.392395 -2.2335815c2.022522 0 3.9622192 0.80340576 5.392395 2.2335815l0 0c2.9781494 2.9781494 2.9781494 7.8066406 0 10.78479l0 0c-2.9781494 2.9780884 -7.8066406 2.9780884 -10.78479 0z" fill-rule="evenodd"/><path fill="#282828" d="m1141.7 703.53186l0 0c-2.9781494 -2.9780884 -2.9781494 -7.8066406 0 -10.784729l0 0c1.4301758 -1.4301758 3.369873 -2.2336426 5.392456 -2.2336426c2.022461 0 3.9621582 0.8034668 5.392334 2.2336426l0 0c2.9781494 2.9780884 2.9781494 7.8066406 0 10.784729l0 0c-2.9781494 2.9781494 -7.8066406 2.9781494 -10.78479 0z" fill-rule="evenodd"/><path fill="#282828" d="m1054.1224 485.58853l0 0c-2.9781494 -2.978119 -2.9781494 -7.8066406 0 -10.7847595l0 0c1.4301758 -1.4301453 3.369873 -2.233612 5.392456 -2.233612c2.022461 0 3.9621582 0.8034668 5.392334 2.233612l0 0c2.9781494 2.978119 2.9781494 7.8066406 0 10.7847595l0 0c-2.9781494 2.9781494 -7.8066406 2.9781494 -10.78479 0z" fill-rule="evenodd"/><path fill="#323232" d="m718.3325 349.9493l118.53485 -118.53485l22.58368 22.583649l-118.53485 118.53485z" fill-rule="evenodd"/><path stroke="#323232" stroke-width="30.04724409448819" stroke-miterlimit="8.0" stroke-linecap="round" d="m718.3325 349.9493l118.53485 -118.53485l22.58368 22.583649l-118.53485 118.53485z" fill-rule="evenodd"/><path fill="#ffffff" d="m718.3325 349.9493l118.53485 -118.53485l22.58368 22.583649l-118.53485 118.53485z" fill-rule="evenodd"/><path stroke="#ffffff" stroke-width="4.666666666666667" stroke-linejoin="round" stroke-linecap="butt" d="m718.3325 349.9493l118.53485 -118.53485l22.58368 22.583649l-118.53485 118.53485z" fill-rule="evenodd"/><path fill="#282828" d="m736.19415 355.2005l0 0c-4.198059 -4.1980896 -4.198059 -11.004547 0 -15.202637l0 0c2.0159912 -2.0159912 4.750305 -3.1485596 7.6013184 -3.1485596c2.8510742 0 5.585327 1.1325684 7.6013184 3.1485596l0 0c4.19812 4.1980896 4.19812 11.004547 0 15.202637l0 0c-4.198059 4.1980896 -11.004517 4.1980896 -15.202637 0z" fill-rule="evenodd"/><path fill="#282828" d="m826.91187 264.48282l0 0c-4.19812 -4.1980896 -4.19812 -11.004547 0 -15.202637l0 0c2.0159912 -2.0159912 4.750244 -3.1485596 7.6013184 -3.1485596c2.8510132 0 5.585327 1.1325684 7.6013184 3.1485596l0 0c4.198059 4.1980896 4.198059 11.004547 0 15.202637l0 0c-4.19812 4.1980896 -11.004578 4.1980896 -15.202637 0z" fill-rule="evenodd"/><path fill="#000000" fill-opacity="0.0" d="m488.158 895.11536l0 0c-6.43396 -6.43396 -10.048492 -15.160278 -10.048492 -24.259277c0 -9.098938 3.6145325 -17.825256 10.048492 -24.259216l24.259247 24.259216z" fill-rule="evenodd"/><path fill="#000000" fill-opacity="0.0" d="m488.158 895.11536l0 0c-6.43396 -6.43396 -10.048492 -15.160278 -10.048492 -24.259277c0 -9.098938 3.6145325 -17.825256 10.048492 -24.259216" fill-rule="evenodd"/><path stroke="#323232" stroke-width="9.335958005249344" stroke-linejoin="round" stroke-linecap="butt" d="m488.158 895.11536l0 0c-6.43396 -6.43396 -10.048492 -15.160278 -10.048492 -24.259277c0 -9.098938 3.6145325 -17.825256 10.048492 -24.259216" fill-rule="evenodd"/><path fill="#000000" fill-opacity="0.0" d="m491.87094 891.4024l-48.674408 48.674377" fill-rule="evenodd"/><path stroke="#323232" stroke-width="9.335958005249344" stroke-linejoin="round" stroke-linecap="butt" d="m491.87094 891.4024l-48.674408 48.674377" fill-rule="evenodd"/><path fill="#323232" d="m857.75836 566.4146l141.09076 -141.09076l4.6000977 4.6000977l-141.09076 141.09076z" fill-rule="evenodd"/><path stroke="#323232" stroke-width="30.04724409448819" stroke-miterlimit="8.0" stroke-linecap="round" d="m857.75836 566.4146l141.09076 -141.09076l4.6000977 4.6000977l-141.09076 141.09076z" fill-rule="evenodd"/><path fill="#ffffff" d="m857.75836 566.4146l141.09076 -141.09076l4.6000977 4.6000977l-141.09076 141.09076z" fill-rule="evenodd"/><path stroke="#ffffff" stroke-width="4.666666666666667" stroke-linejoin="round" stroke-linecap="butt" d="m857.75836 566.4146l141.09076 -141.09076l4.6000977 4.6000977l-141.09076 141.09076z" fill-rule="evenodd"/><path fill="#323232" d="m980.1796 422.59726l32.172424 -32.172424l33.80957 33.8096l-32.172363 32.172424z" fill-rule="evenodd"/><path fill="#323232" d="m1015.52356 418.19778l0 0c-13.087219 -13.087219 -13.481445 -34.18103 -0.89227295 -47.748108c12.589172 -13.567078 33.653503 -14.749115 47.681458 -2.6756592c14.027954 12.073456 15.996094 33.07895 4.4552 47.548187c-11.540894 14.469269 -32.45813 17.220917 -47.34851 6.2286377l9.522461 -12.899231c7.9537354 5.871643 19.126953 4.401825 25.291626 -3.3270874c6.164673 -7.728882 5.1134033 -18.949188 -2.3797607 -25.398315c-7.493164 -6.4491577 -18.744995 -5.8177795 -25.469604 1.4291992c-6.7246094 7.2470093 -6.514038 18.514465 0.47668457 25.505157z" fill-rule="evenodd"/></g></svg>