<svg version="1.1" viewBox="0.0 0.0 128.0 128.0" fill="none" stroke="none" stroke-linecap="square" stroke-miterlimit="10" xmlns:xlink="http://www.w3.org/1999/xlink" xmlns="http://www.w3.org/2000/svg"><clipPath id="p.0"><path d="m0 0l128.0 0l0 128.0l-128.0 0l0 -128.0z" clip-rule="nonzero"/></clipPath><g clip-path="url(#p.0)"><path fill="#000000" fill-opacity="0.0" d="m0 0l128.0 0l0 128.0l-128.0 0z" fill-rule="evenodd"/><path fill="#323232" d="m56.73354 37.485867l17.15636 -17.156357l0.5044632 0.5044632l-17.15636 17.156357z" fill-rule="evenodd"/><path fill="#323232" d="m63.426754 30.390234l0.7762337 -0.7762337l0.5044632 0.5044632l-0.7762337 0.7762337z" fill-rule="evenodd"/><path fill="#323232" d="m64.71101 29.105976l0.77622986 -0.7762337l0.5044632 0.5044632l-0.77622986 0.7762337z" fill-rule="evenodd"/><path fill="#323232" d="m65.99527 27.821718l0.7762375 -0.7762337l0.5044632 0.5044632l-0.7762375 0.7762337z" fill-rule="evenodd"/><path fill="#323232" d="m67.279526 26.53746l0.7762375 -0.7762337l0.5044632 0.5044632l-0.7762375 0.7762337z" fill-rule="evenodd"/><path fill="#323232" d="m68.56379 25.253202l0.77622986 -0.7762337l0.5044632 0.5044632l-0.77622986 0.7762337z" fill-rule="evenodd"/><path fill="#323232" d="m69.848045 23.968945l0.77622986 -0.7762337l0.5044632 0.5044632l-0.77622986 0.7762337z" fill-rule="evenodd"/><path fill="#323232" d="m71.1323 22.684687l0.7762375 -0.7762337l0.5044632 0.5044632l-0.7762375 0.7762337z" fill-rule="evenodd"/><path fill="#323232" d="m72.41656 21.400429l0.7762375 -0.7762337l0.5044632 0.5044632l-0.7762375 0.7762356z" fill-rule="evenodd"/><path fill="#323232" d="m57.027264 36.789726l0.7762337 -0.7762375l0.5044632 0.504467l-0.7762337 0.7762337z" fill-rule="evenodd"/><path fill="#323232" d="m58.311523 35.505466l0.7762337 -0.7762337l0.5044632 0.5044632l-0.7762337 0.7762337z" fill-rule="evenodd"/><path fill="#323232" d="m59.59578 34.22121l0.7762337 -0.7762337l0.5044632 0.5044632l-0.7762337 0.7762337z" fill-rule="evenodd"/><path fill="#323232" d="m60.880035 32.93695l0.7762375 -0.7762337l0.5044632 0.5044632l-0.7762337 0.7762337z" fill-rule="evenodd"/><path fill="#323232" d="m62.164295 31.652695l0.7762337 -0.7762356l0.5044632 0.5044632l-0.7762337 0.7762356z" fill-rule="evenodd"/><path fill="#323232" d="m95.09549 24.319117l0.7839432 -0.78393745l2.0032272 2.0032291l-0.78393555 0.78393745z" fill-rule="evenodd"/><path fill="#323232" d="m91.89824 26.194107l1.362915 -1.3629131l3.3257523 3.3257484l-1.362915 1.3629131z" fill-rule="evenodd"/><path fill="#323232" d="m76.73443 23.928804l-0.24451447 -4.166506l0.57650757 -1.0444756l6.323784 3.5327587l5.7720337 5.9803333l-3.611435 3.6114426l-2.2813568 -2.281355l-0.33774567 -0.88069725l-0.5679779 -0.86387444l-1.3769913 -0.5280552l-3.697586 1.8567257z" fill-rule="evenodd"/><path stroke="#323232" stroke-width="3.026246719160105" stroke-miterlimit="8.0" stroke-linecap="round" d="m76.73443 23.928804l-0.24451447 -4.166506l0.57650757 -1.0444756l6.323784 3.5327587l5.7720337 5.9803333l-3.611435 3.6114426l-2.2813568 -2.281355l-0.33774567 -0.88069725l-0.5679779 -0.86387444l-1.3769913 -0.5280552l-3.697586 1.8567257z" fill-rule="evenodd"/><path fill="#323232" d="m68.6843 50.070854l21.14775 -21.147755l2.6622696 2.6622715l-21.14775 21.147753z" fill-rule="evenodd"/><path stroke="#323232" stroke-width="3.026246719160105" stroke-miterlimit="8.0" stroke-linecap="round" d="m68.6843 50.070854l21.14775 -21.147755l2.6622696 2.6622715l-21.14775 21.147753z" fill-rule="evenodd"/><path fill="#ffffff" d="m68.6843 50.070854l21.14775 -21.147755l2.6622696 2.6622715l-21.14775 21.147753z" fill-rule="evenodd"/><path stroke="#ffffff" stroke-width="0.46981627296587924" stroke-linejoin="round" stroke-linecap="butt" d="m68.6843 50.070854l21.14775 -21.147755l2.6622696 2.6622715l-21.14775 21.147753z" fill-rule="evenodd"/><path fill="#323232" d="m84.46863 60.862404l-2.6307983 -2.7508583l-0.6050873 -1.3254471l0.16165924 -1.0389519l0.88801575 -2.233574l-5.2826843 5.2826843l-0.05983734 4.6225433l5.156067 -0.06674194z" fill-rule="evenodd"/><path stroke="#323232" stroke-width="3.026246719160105" stroke-miterlimit="8.0" stroke-linecap="round" d="m84.46863 60.862404l-2.6307983 -2.7508583l-0.6050873 -1.3254471l0.16165924 -1.0389519l0.88801575 -2.233574l-5.2826843 5.2826843l-0.05983734 4.6225433l5.156067 -0.06674194z" fill-rule="evenodd"/><path fill="#ffffff" d="m84.46863 60.862404l-2.6307983 -2.7508583l-0.6050873 -1.3254471l0.16165924 -1.0389519l0.88801575 -2.233574l-5.2826843 5.2826843l-0.05983734 4.6225433l5.156067 -0.06674194z" fill-rule="evenodd"/><path stroke="#ffffff" stroke-width="0.46981627296587924" stroke-linejoin="round" stroke-linecap="butt" d="m84.46863 60.862404l-2.6307983 -2.7508583l-0.6050873 -1.3254471l0.16165924 -1.0389519l0.88801575 -2.233574l-5.2826843 5.2826843l-0.05983734 4.6225433l5.156067 -0.06674194z" fill-rule="evenodd"/><path fill="#323232" d="m72.49818 58.97719l13.40921 -13.409214l2.6629944 2.6629906l-13.40921 13.409214z" fill-rule="evenodd"/><path fill="#323232" d="m84.75928 61.572483l2.1595306 0.49506378l1.323967 0.46715164l1.3286896 0.59477615l0.1252594 -0.7618065l0.8826599 0.4626007l0.8467331 0.9668007l0.90717316 -5.996498l-1.8948975 -0.09397888l-1.3022537 -0.10165024l-1.7094193 1.5924225z" fill-rule="evenodd"/><path stroke="#323232" stroke-width="3.026246719160105" stroke-miterlimit="8.0" stroke-linecap="round" d="m84.75928 61.572483l2.1595306 0.49506378l1.323967 0.46715164l1.3286896 0.59477615l0.1252594 -0.7618065l0.8826599 0.4626007l0.8467331 0.9668007l0.90717316 -5.996498l-1.8948975 -0.09397888l-1.3022537 -0.10165024l-1.7094193 1.5924225z" fill-rule="evenodd"/><path fill="#323232" d="m75.17173 53.185863l6.2431717 -6.2431717l1.620224 -0.12050629l1.2552795 -0.0055160522l1.696991 0.13619614l1.3848648 0.36449814l1.6166992 0.71608734l1.6713638 1.9114914l1.0096436 1.4898834l0.17273712 1.4934082l-0.088890076 1.1719093l-0.6138077 0.94698334l-0.5739441 1.0627937l-0.3316269 0.44861603l-0.75045776 0.75045776l-0.855423 0.749485l-1.4106369 1.4106407l1.9162521 1.9162483l1.6811981 2.4015656l1.8592911 2.6398468l0.95970154 2.1161957l5.6541214 -5.6476784l1.1995316 -2.2822456l0.08594513 -3.3356361l-0.29403687 -2.4551315l-0.62919617 -2.3702354l-0.9712677 -2.1116867l-1.2176743 -1.6979256l-1.6412735 -1.9415817l-1.3864136 -1.4462814l-0.33639526 -0.996891l-0.024421692 -1.2250328l0.5304489 -1.0303497l1.7107849 -1.7107887l1.046936 -0.21386337l1.1117249 -0.028697968l1.2952042 0.45477295l2.9992752 2.9992752l1.590889 -1.5908852l-7.738098 -8.758457l-3.3668137 -0.96559525l-18.969643 18.969639z" fill-rule="evenodd"/><path stroke="#323232" stroke-width="3.026246719160105" stroke-miterlimit="8.0" stroke-linecap="round" d="m75.17173 53.185863l6.2431717 -6.2431717l1.620224 -0.12050629l1.2552795 -0.0055160522l1.696991 0.13619614l1.3848648 0.36449814l1.6166992 0.71608734l1.6713638 1.9114914l1.0096436 1.4898834l0.17273712 1.4934082l-0.088890076 1.1719093l-0.6138077 0.94698334l-0.5739441 1.0627937l-0.3316269 0.44861603l-0.75045776 0.75045776l-0.855423 0.749485l-1.4106369 1.4106407l1.9162521 1.9162483l1.6811981 2.4015656l1.8592911 2.6398468l0.95970154 2.1161957l5.6541214 -5.6476784l1.1995316 -2.2822456l0.08594513 -3.3356361l-0.29403687 -2.4551315l-0.62919617 -2.3702354l-0.9712677 -2.1116867l-1.2176743 -1.6979256l-1.6412735 -1.9415817l-1.3864136 -1.4462814l-0.33639526 -0.996891l-0.024421692 -1.2250328l0.5304489 -1.0303497l1.7107849 -1.7107887l1.046936 -0.21386337l1.1117249 -0.028697968l1.2952042 0.45477295l2.9992752 2.9992752l1.590889 -1.5908852l-7.738098 -8.758457l-3.3668137 -0.96559525l-18.969643 18.969639z" fill-rule="evenodd"/><path fill="#ffffff" d="m75.17173 53.185863l6.2431717 -6.2431717l1.620224 -0.12050629l1.2552795 -0.0055160522l1.696991 0.13619614l1.3848648 0.36449814l1.6166992 0.71608734l1.6713638 1.9114914l1.0096436 1.4898834l0.17273712 1.4934082l-0.088890076 1.1719093l-0.6138077 0.94698334l-0.5739441 1.0627937l-0.3316269 0.44861603l-0.75045776 0.75045776l-0.855423 0.749485l-1.4106369 1.4106407l1.9162521 1.9162483l1.6811981 2.4015656l1.8592911 2.6398468l0.95970154 2.1161957l5.6541214 -5.6476784l1.1995316 -2.2822456l0.08594513 -3.3356361l-0.29403687 -2.4551315l-0.62919617 -2.3702354l-0.9712677 -2.1116867l-1.2176743 -1.6979256l-1.6412735 -1.9415817l-1.3864136 -1.4462814l-0.33639526 -0.996891l-0.024421692 -1.2250328l0.5304489 -1.0303497l1.7107849 -1.7107887l1.046936 -0.21386337l1.1117249 -0.028697968l1.2952042 0.45477295l2.9992752 2.9992752l1.590889 -1.5908852l-7.738098 -8.758457l-3.3668137 -0.96559525l-18.969643 18.969639z" fill-rule="evenodd"/><path stroke="#ffffff" stroke-width="0.46981627296587924" stroke-linejoin="round" stroke-linecap="butt" d="m75.17173 53.185863l6.2431717 -6.2431717l1.620224 -0.12050629l1.2552795 -0.0055160522l1.696991 0.13619614l1.3848648 0.36449814l1.6166992 0.71608734l1.6713638 1.9114914l1.0096436 1.4898834l0.17273712 1.4934082l-0.088890076 1.1719093l-0.6138077 0.94698334l-0.5739441 1.0627937l-0.3316269 0.44861603l-0.75045776 0.75045776l-0.855423 0.749485l-1.4106369 1.4106407l1.9162521 1.9162483l1.6811981 2.4015656l1.8592911 2.6398468l0.95970154 2.1161957l5.6541214 -5.6476784l1.1995316 -2.2822456l0.08594513 -3.3356361l-0.29403687 -2.4551315l-0.62919617 -2.3702354l-0.9712677 -2.1116867l-1.2176743 -1.6979256l-1.6412735 -1.9415817l-1.3864136 -1.4462814l-0.33639526 -0.996891l-0.024421692 -1.2250328l0.5304489 -1.0303497l1.7107849 -1.7107887l1.046936 -0.21386337l1.1117249 -0.028697968l1.2952042 0.45477295l2.9992752 2.9992752l1.590889 -1.5908852l-7.738098 -8.758457l-3.3668137 -0.96559525l-18.969643 18.969639z" fill-rule="evenodd"/><path fill="#323232" d="m37.010918 110.4915l-9.981733 -9.981728l9.197794 10.765671z" fill-rule="evenodd"/><path stroke="#323232" stroke-width="3.026246719160105" stroke-miterlimit="8.0" stroke-linecap="round" d="m37.010918 110.4915l-9.981733 -9.981728l9.197794 10.765671z" fill-rule="evenodd"/><path fill="#323232" d="m20.163528 93.64412l7.137718 7.1377106l-7.5775604 -6.6978683z" fill-rule="evenodd"/><path stroke="#323232" stroke-width="3.026246719160105" stroke-miterlimit="8.0" stroke-linecap="round" d="m20.163528 93.64412l7.137718 7.1377106l-7.5775604 -6.6978683z" fill-rule="evenodd"/><path fill="#323232" d="m38.79511 80.33758l31.764408 -31.764404l4.616852 4.616848l-31.764408 31.764408z" fill-rule="evenodd"/><path stroke="#323232" stroke-width="3.026246719160105" stroke-miterlimit="8.0" stroke-linecap="round" d="m38.79511 80.33758l31.764408 -31.764404l4.616852 4.616848l-31.764408 31.764408z" fill-rule="evenodd"/><path fill="#323232" d="m36.13284 77.67531l4.9818916 -4.981888l2.6629906 2.6629944l-4.981888 4.981888z" fill-rule="evenodd"/><path stroke="#323232" stroke-width="3.026246719160105" stroke-miterlimit="8.0" stroke-linecap="round" d="m36.13284 77.67531l4.9818916 -4.981888l2.6629906 2.6629944l-4.981888 4.981888z" fill-rule="evenodd"/><path fill="#323232" d="m38.024036 75.78411l14.039249 14.039253l0 5.6158295l-14.541927 14.541931l-16.847164 -16.847168z" fill-rule="evenodd"/><path stroke="#323232" stroke-width="3.026246719160105" stroke-miterlimit="8.0" stroke-linecap="round" d="m38.024036 75.78411l14.039249 14.039253l0 5.6158295l-14.541927 14.541931l-16.847164 -16.847168z" fill-rule="evenodd"/><path fill="#ffffff" d="m38.024036 75.78411l14.039249 14.039253l0 5.6158295l-14.541927 14.541931l-16.847164 -16.847168z" fill-rule="evenodd"/><path stroke="#ffffff" stroke-width="0.46981627296587924" stroke-linejoin="round" stroke-linecap="butt" d="m38.024036 75.78411l14.039249 14.039253l0 5.6158295l-14.541927 14.541931l-16.847164 -16.847168z" fill-rule="evenodd"/><path fill="#ffffff" d="m36.13284 77.67531l4.9818916 -4.981888l2.6629906 2.6629944l-4.981888 4.981888z" fill-rule="evenodd"/><path stroke="#ffffff" stroke-width="0.46981627296587924" stroke-linejoin="round" stroke-linecap="butt" d="m36.13284 77.67531l4.9818916 -4.981888l2.6629906 2.6629944l-4.981888 4.981888z" fill-rule="evenodd"/><path fill="#ffffff" d="m38.79511 80.33758l31.764408 -31.764404l4.616852 4.616848l-31.764408 31.764408z" fill-rule="evenodd"/><path stroke="#ffffff" stroke-width="0.46981627296587924" stroke-linejoin="round" stroke-linecap="butt" d="m38.79511 80.33758l31.764408 -31.764404l4.616852 4.616848l-31.764408 31.764408z" fill-rule="evenodd"/><path fill="#323232" d="m37.11965 78.66201l4.9818916 -4.981888l0.44732285 0.44731903l-4.9818916 4.9818954z" fill-rule="evenodd"/><path stroke="#323232" stroke-width="3.026246719160105" stroke-miterlimit="8.0" stroke-linecap="round" d="m37.11965 78.66201l4.9818916 -4.981888l0.44732285 0.44731903l-4.9818916 4.9818954z" fill-rule="evenodd"/><path fill="#282828" d="m39.38587 76.39589l2.715355 -2.715355l0.44732285 0.44731903l-2.715355 2.715355z" fill-rule="evenodd"/><path stroke="#282828" stroke-width="0.46981627296587924" stroke-linejoin="round" stroke-linecap="butt" d="m39.38587 76.39589l2.715355 -2.715355l0.44732285 0.44731903l-2.715355 2.715355z" fill-rule="evenodd"/><path fill="#323232" d="m43.21636 70.59175l39.279133 -39.279137l0.6118927 0.6118908l-39.279137 39.27913z" fill-rule="evenodd"/><path stroke="#323232" stroke-width="3.026246719160105" stroke-miterlimit="8.0" stroke-linecap="round" d="m43.21636 70.59175l39.279133 -39.279137l0.6118927 0.6118908l-39.279137 39.27913z" fill-rule="evenodd"/><path fill="#ffffff" d="m43.21644 70.59171l38.48024 -38.480236l0.6118851 0.6118889l-38.480232 38.480232z" fill-rule="evenodd"/><path stroke="#ffffff" stroke-width="0.46981627296587924" stroke-linejoin="round" stroke-linecap="butt" d="m43.21644 70.59171l38.48024 -38.480236l0.6118851 0.6118889l-38.480232 38.480232z" fill-rule="evenodd"/><path fill="#323232" d="m48.70803 82.73891l28.055672 -28.055672l0.57897186 0.5789795l-28.055664 28.055664z" fill-rule="evenodd"/><path fill="#323232" d="m51.20913 83.807144l7.059845 7.059845l11.192322 -5.7107697l1.2168274 0.33355713l6.949646 -6.949646l-7.453888 -1.6821442l-1.3250656 1.3250656l-1.6486282 0.70718384l-1.8040237 0.19841766l-1.7552605 -0.45957184l-1.3654709 -1.0708389l-0.6573982 -0.8929825l-0.35058594 -1.5875397l0.02173233 -1.6273346l0.6553345 -1.8182678l-11.442993 11.408989z" fill-rule="evenodd"/><path stroke="#323232" stroke-width="3.026246719160105" stroke-miterlimit="8.0" stroke-linecap="round" d="m51.20913 83.807144l7.059845 7.059845l11.192322 -5.7107697l1.2168274 0.33355713l6.949646 -6.949646l-7.453888 -1.6821442l-1.3250656 1.3250656l-1.6486282 0.70718384l-1.8040237 0.19841766l-1.7552605 -0.45957184l-1.3654709 -1.0708389l-0.6573982 -0.8929825l-0.35058594 -1.5875397l0.02173233 -1.6273346l0.6553345 -1.8182678l-11.442993 11.408989z" fill-rule="evenodd"/><path fill="#323232" d="m67.480675 66.09591l1.4477081 -0.67251587l1.0023956 -0.11646271l1.2484055 0.2470398l1.0812683 1.0225296l0.54138184 0.9534836l0.19151306 1.192894l-0.114845276 0.9452667l-2.675087 7.160263l7.797806 0.8336334l1.1823807 -0.83242035l0.14096832 -1.4812012l1.4350662 -3.0409698l0.41856384 -2.4668427l0.39243317 -2.55233l-0.12836456 -2.307953l2.7091827 -2.709179l-0.3456421 -0.24207306l-0.8658066 0.31209946l-1.5834274 -0.022468567l-1.3052444 -0.24513626l-1.0909653 -0.70822144l-0.795166 -1.0601158l-0.4218216 -1.1285629l0.10456848 -1.0733376l0.15956116 -0.665596l-0.9343262 -0.9343262z" fill-rule="evenodd"/><path stroke="#323232" stroke-width="3.026246719160105" stroke-miterlimit="8.0" stroke-linecap="round" d="m67.480675 66.09591l1.4477081 -0.67251587l1.0023956 -0.11646271l1.2484055 0.2470398l1.0812683 1.0225296l0.54138184 0.9534836l0.19151306 1.192894l-0.114845276 0.9452667l-2.675087 7.160263l7.797806 0.8336334l1.1823807 -0.83242035l0.14096832 -1.4812012l1.4350662 -3.0409698l0.41856384 -2.4668427l0.39243317 -2.55233l-0.12836456 -2.307953l2.7091827 -2.709179l-0.3456421 -0.24207306l-0.8658066 0.31209946l-1.5834274 -0.022468567l-1.3052444 -0.24513626l-1.0909653 -0.70822144l-0.795166 -1.0601158l-0.4218216 -1.1285629l0.10456848 -1.0733376l0.15956116 -0.665596l-0.9343262 -0.9343262z" fill-rule="evenodd"/><path fill="#ffffff" d="m51.20913 83.807144l7.059845 7.059845l11.192322 -5.7107697l1.2168274 0.33355713l6.949646 -6.949646l-7.453888 -1.6821442l-1.3250656 1.3250656l-1.6486282 0.70718384l-1.8040237 0.19841766l-1.7552605 -0.45957184l-1.3654709 -1.0708389l-0.6573982 -0.8929825l-0.35058594 -1.5875397l0.02173233 -1.6273346l0.6553345 -1.8182678l-11.442993 11.408989z" fill-rule="evenodd"/><path stroke="#ffffff" stroke-width="0.46981627296587924" stroke-linejoin="round" stroke-linecap="butt" d="m51.20913 83.807144l7.059845 7.059845l11.192322 -5.7107697l1.2168274 0.33355713l6.949646 -6.949646l-7.453888 -1.6821442l-1.3250656 1.3250656l-1.6486282 0.70718384l-1.8040237 0.19841766l-1.7552605 -0.45957184l-1.3654709 -1.0708389l-0.6573982 -0.8929825l-0.35058594 -1.5875397l0.02173233 -1.6273346l0.6553345 -1.8182678l-11.442993 11.408989z" fill-rule="evenodd"/><path fill="#ffffff" d="m67.480675 66.09591l1.4477081 -0.67251587l1.0023956 -0.11646271l1.2484055 0.2470398l1.0812683 1.0225296l0.54138184 0.9534836l0.19151306 1.192894l-0.114845276 0.9452667l-2.675087 7.160263l7.4352417 1.7083435l1.4857025 -1.481636l0.20021057 -1.7066956l1.4350662 -3.0409698l0.41856384 -2.4668427l0.39243317 -2.55233l-0.12836456 -2.307953l2.7091827 -2.709179l-0.3456421 -0.24207306l-0.8658066 0.31209946l-1.5834274 -0.022468567l-1.3052444 -0.24513626l-1.0909653 -0.70822144l-0.795166 -1.0601158l-0.4218216 -1.1285629l0.10456848 -1.0733376l0.15956116 -0.665596l-0.9343262 -0.9343262z" fill-rule="evenodd"/><path stroke="#ffffff" stroke-width="0.46981627296587924" stroke-linejoin="round" stroke-linecap="butt" d="m67.480675 66.09591l1.4477081 -0.67251587l1.0023956 -0.11646271l1.2484055 0.2470398l1.0812683 1.0225296l0.54138184 0.9534836l0.19151306 1.192894l-0.114845276 0.9452667l-2.675087 7.160263l7.4352417 1.7083435l1.4857025 -1.481636l0.20021057 -1.7066956l1.4350662 -3.0409698l0.41856384 -2.4668427l0.39243317 -2.55233l-0.12836456 -2.307953l2.7091827 -2.709179l-0.3456421 -0.24207306l-0.8658066 0.31209946l-1.5834274 -0.022468567l-1.3052444 -0.24513626l-1.0909653 -0.70822144l-0.795166 -1.0601158l-0.4218216 -1.1285629l0.10456848 -1.0733376l0.15956116 -0.665596l-0.9343262 -0.9343262z" fill-rule="evenodd"/><path fill="#323232" d="m83.25813 62.18989l5.67157 -5.6715736l0.9694519 0.9694481l-5.6715775 5.6715736z" fill-rule="evenodd"/><path fill="#282828" d="m84.038445 62.052574l2.2381134 -2.2381096l0.32614136 0.32614136l-2.2381134 2.2381096z" fill-rule="evenodd"/><path fill="#323232" d="m66.10589 54.11029l-2.2228584 -2.2228584l-3.3975792 -7.5997124l5.625992 -4.339073l2.637123 6.839264l2.3548203 2.3248787z" fill-rule="evenodd"/><path stroke="#323232" stroke-width="3.026246719160105" stroke-miterlimit="8.0" stroke-linecap="round" d="m66.10589 54.11029l-2.2228584 -2.2228584l-3.3975792 -7.5997124l5.625992 -4.339073l2.637123 6.839264l2.3548203 2.3248787z" fill-rule="evenodd"/><path fill="#ffffff" d="m66.10589 54.11029l-2.2228584 -2.2228584l-3.3975792 -7.5997124l5.625992 -4.339073l2.637123 6.839264l2.3548203 2.3248787z" fill-rule="evenodd"/><path stroke="#ffffff" stroke-width="0.46981627296587924" stroke-linejoin="round" stroke-linecap="butt" d="m66.10589 54.11029l-2.2228584 -2.2228584l-3.3975792 -7.5997124l5.625992 -4.339073l2.637123 6.839264l2.3548203 2.3248787z" fill-rule="evenodd"/><path fill="#323232" d="m60.433826 41.7604l-3.7161217 -3.7161255l2.7858849 4.6463623z" fill-rule="evenodd"/><path stroke="#323232" stroke-width="3.026246719160105" stroke-miterlimit="8.0" d="m60.433826 41.7604l-3.7161217 -3.7161255l2.7858849 4.6463623z" fill-rule="evenodd"/><path fill="#323232" d="m78.43145 24.038563l-17.859783 17.859783l20.40598 -15.313583z" fill-rule="evenodd"/><path stroke="#323232" stroke-width="3.026246719160105" stroke-miterlimit="8.0" stroke-linecap="round" d="m78.43145 24.038563l-17.859783 17.859783l20.40598 -15.313583z" fill-rule="evenodd"/><path fill="#323232" d="m57.59887 38.86536l5.8820457 -5.882042l0.5527153 0.5527191l-5.882038 5.8820457z" fill-rule="evenodd"/><path stroke="#323232" stroke-width="3.026246719160105" stroke-miterlimit="8.0" stroke-linecap="round" d="m57.59887 38.86536l5.8820457 -5.882042l0.5527153 0.5527191l-5.882038 5.8820457z" fill-rule="evenodd"/><path fill="#323232" d="m62.611362 33.852806l12.817219 -12.817223l3.0178528 3.0178547l-12.817215 12.817221z" fill-rule="evenodd"/><path stroke="#323232" stroke-width="3.026246719160105" stroke-miterlimit="8.0" stroke-linecap="round" d="m62.611362 33.852806l12.817219 -12.817223l3.0178528 3.0178547l-12.817215 12.817221z" fill-rule="evenodd"/><path fill="#323232" fill-opacity="0.6045" d="m68.32557 55.900246l-2.2162704 0.3499298l6.415497 -6.415493l0.9331665 0.9331703z" fill-rule="evenodd"/><path fill="#ffffff" d="m57.637943 38.904434l5.8820457 -5.882042l0.5527191 0.5527191l-5.882042 5.8820457z" fill-rule="evenodd"/><path stroke="#ffffff" stroke-width="0.46981627296587924" stroke-linejoin="round" stroke-linecap="butt" d="m57.637943 38.904434l5.8820457 -5.882042l0.5527191 0.5527191l-5.882042 5.8820457z" fill-rule="evenodd"/><path fill="#ffffff" d="m62.650436 33.89188l12.817223 -12.817223l3.0178528 3.0178547l-12.817223 12.817221z" fill-rule="evenodd"/><path stroke="#ffffff" stroke-width="0.46981627296587924" stroke-linejoin="round" stroke-linecap="butt" d="m62.650436 33.89188l12.817223 -12.817223l3.0178528 3.0178547l-12.817223 12.817221z" fill-rule="evenodd"/><path fill="#323232" d="m93.51174 27.109291l4.3221283 -4.3221264l0.7974014 0.79740334l-4.3221283 4.3221245z" fill-rule="evenodd"/><path stroke="#323232" stroke-width="3.026246719160105" stroke-miterlimit="8.0" stroke-linecap="round" d="m93.51174 27.109291l4.3221283 -4.3221264l0.7974014 0.79740334l-4.3221283 4.3221245z" fill-rule="evenodd"/><path fill="#ffffff" d="m93.51176 27.109303l4.3221283 -4.3221264l0.7974014 0.7974014l-4.3221283 4.3221264z" fill-rule="evenodd"/><path stroke="#ffffff" stroke-width="0.46981627296587924" stroke-linejoin="round" stroke-linecap="butt" d="m93.51176 27.109303l4.3221283 -4.3221264l0.7974014 0.7974014l-4.3221283 4.3221264z" fill-rule="evenodd"/><path fill="#282828" d="m24.908295 94.988884l0 0c-0.21110916 -0.21110535 -0.20675468 -0.5577316 0.009723663 -0.77420807l0 0c0.10395622 -0.10395813 0.243927 -0.16338348 0.3891201 -0.16520691c0.1451931 -0.0018234253 0.2837143 0.054100037 0.38509178 0.15547943l0 0c0.21110916 0.21110535 0.20675468 0.5577316 -0.009723663 0.7742157l0 0c-0.21647835 0.21647644 -0.5631046 0.22083282 -0.7742119 0.009719849z" fill-rule="evenodd"/><path fill="#282828" d="m34.331055 82.0803l0 0c-0.21110535 -0.21110535 -0.20675278 -0.5577316 0.009723663 -0.77420807l0 0c0.10395813 -0.10395813 0.243927 -0.16338348 0.389122 -0.16520691c0.1451912 -0.0018234253 0.2837143 0.054100037 0.38508987 0.15547943l0 0c0.21110916 0.21110535 0.20675659 0.5577316 -0.009723663 0.7742157l0 0c-0.21647644 0.21647644 -0.5631027 0.22083282 -0.7742119 0.009719849z" fill-rule="evenodd"/><path fill="#282828" d="m40.739063 103.51988l0 0c-0.21110535 -0.21110535 -0.20675278 -0.5577316 0.009723663 -0.77420807l0 0c0.10395813 -0.10395813 0.24393082 -0.16338348 0.389122 -0.16520691c0.145195 -0.0018234253 0.2837143 0.054100037 0.3850937 0.15547943l0 0c0.21110535 0.21110535 0.20675278 0.5577316 -0.009727478 0.7742157l0 0c-0.21647644 0.21647644 -0.5631027 0.22083282 -0.7742119 0.009719849z" fill-rule="evenodd"/><path fill="#282828" d="m48.731525 91.078026l0 0c-0.21110916 -0.21110535 -0.20675659 -0.5577316 0.009723663 -0.7742157l0 0c0.103954315 -0.1039505 0.243927 -0.16338348 0.3891182 -0.16520691c0.145195 -0.0018234253 0.2837181 0.054107666 0.3850937 0.15548706l0 0c0.21110916 0.21110535 0.20675278 0.5577316 -0.009723663 0.77420807l0 0c-0.21648026 0.21648407 -0.56310654 0.22083282 -0.7742119 0.009727478z" fill-rule="evenodd"/><path fill="#282828" d="m38.424515 107.414l0 0c-0.1689682 -0.1689682 -0.1689682 -0.4429245 0 -0.6118927l2.239605 -2.2396011c0.081142426 -0.08114624 0.19119263 -0.12673187 0.30594635 -0.12673187c0.11474991 0 0.22480392 0.045585632 0.30594254 0.12673187l0 0l0 0c0.16897202 0.1689682 0.16897202 0.44291687 0 0.6118851l-2.239605 2.2396088c-0.1689682 0.1689682 -0.44292068 0.1689682 -0.6118889 0z" fill-rule="evenodd"/><path fill="#000000" fill-opacity="0.0" d="m27.757187 101.59796l18.640945 -18.640945" fill-rule="evenodd"/><path stroke="#323232" stroke-width="0.9396325459317585" stroke-linejoin="round" stroke-linecap="butt" d="m27.757187 101.59796l18.640945 -18.640945" fill-rule="evenodd"/><path fill="#282828" d="m58.89573 77.0205l0 0c-0.12352371 -0.1235199 -0.1171608 -0.33016205 0.014213562 -0.4615326l0 0c0.06308746 -0.06308746 0.14715576 -0.10002899 0.23371124 -0.10269165c0.08655548 -0.002670288 0.16850662 0.029159546 0.22782516 0.08847809l0 0c0.12352371 0.12352753 0.1171608 0.33016205 -0.014213562 0.46154022l0 0c-0.13137436 0.13137054 -0.33800888 0.13773346 -0.4615364 0.014205933z" fill-rule="evenodd"/><path fill="#282828" d="m68.997635 80.87816l0 0c-0.19995117 -0.1999588 -0.18990326 -0.5341873 0.02243805 -0.74653625l0 0c0.10197449 -0.10197449 0.23791504 -0.16162872 0.37792206 -0.16583252c0.13999939 -0.004211426 0.27259827 0.04737091 0.3686142 0.14338684l0 0c0.1999588 0.1999588 0.18991089 0.53419495 -0.02243805 0.74653625l0 0c-0.21234894 0.21234894 -0.5465851 0.22239685 -0.74653625 0.022445679z" fill-rule="evenodd"/><path fill="#282828" d="m74.753334 73.51082l0 0c-0.19995117 -0.19995117 -0.18990326 -0.5341873 0.022445679 -0.74653625l0 0c0.10196686 -0.10197449 0.23790741 -0.1616211 0.37791443 -0.16583252c0.13999939 -0.0042037964 0.27259827 0.04737091 0.3686142 0.14339447l0 0c0.1999588 0.19995117 0.18991089 0.5341873 -0.02243805 0.74653625l0 0c-0.21234894 0.21234131 -0.5465851 0.22238922 -0.74653625 0.02243805z" fill-rule="evenodd"/><path fill="#282828" d="m71.59295 64.04899l0 0c-0.19995117 -0.19995117 -0.18990326 -0.5341873 0.022445679 -0.74653625l0 0c0.10196686 -0.10197067 0.23790741 -0.16162491 0.37791443 -0.16583252c0.13999939 -0.004207611 0.27259827 0.04737091 0.3686142 0.14339447l0 0c0.1999588 0.19995117 0.18991089 0.5341873 -0.02243805 0.74653625l0 0c-0.21234894 0.21234131 -0.5465851 0.22238922 -0.74653625 0.02243805z" fill-rule="evenodd"/><path fill="#282828" d="m94.49552 59.962963l0 0c-0.21110535 -0.21110916 -0.20675659 -0.55773544 0.009727478 -0.7742119l0 0c0.1039505 -0.10395813 0.243927 -0.16338348 0.38911438 -0.16520691c0.145195 -0.0018234253 0.2837143 0.05410385 0.3850937 0.15547943l0 0c0.21111298 0.21110916 0.20675659 0.55773544 -0.009719849 0.7742157l0 0c-0.21648407 0.21647644 -0.56311035 0.22082901 -0.7742157 0.009723663z" fill-rule="evenodd"/><path fill="#282828" d="m88.40784 44.390457l0 0c-0.21111298 -0.21110916 -0.20675659 -0.55773544 0.009719849 -0.7742157l0 0c0.10395813 -0.103954315 0.243927 -0.16337967 0.389122 -0.1652031c0.145195 -0.00182724 0.2837143 0.05410385 0.3850937 0.15547943l0 0c0.21110535 0.21110916 0.20674896 0.55773544 -0.009727478 0.7742119l0 0c-0.21647644 0.21648026 -0.5631027 0.22083282 -0.77420807 0.009727478z" fill-rule="evenodd"/><path fill="#323232" d="m64.795654 35.340324l8.624054 -8.624052l1.6010895 1.6010895l-8.624054 8.624052z" fill-rule="evenodd"/><path stroke="#323232" stroke-width="3.026246719160105" stroke-miterlimit="8.0" stroke-linecap="round" d="m64.795654 35.340324l8.624054 -8.624052l1.6010895 1.6010895l-8.624054 8.624052z" fill-rule="evenodd"/><path fill="#ffffff" d="m64.795654 35.340324l8.624054 -8.624052l1.6010895 1.6010895l-8.624054 8.624052z" fill-rule="evenodd"/><path stroke="#ffffff" stroke-width="0.46981627296587924" stroke-linejoin="round" stroke-linecap="butt" d="m64.795654 35.340324l8.624054 -8.624052l1.6010895 1.6010895l-8.624054 8.624052z" fill-rule="evenodd"/><path fill="#282828" d="m66.0737 35.70089l0 0c-0.2976303 -0.2976265 -0.29130554 -0.78650665 0.014129639 -1.0919418l0 0c0.14667511 -0.1466713 0.34412384 -0.23056412 0.5488968 -0.23321152c0.20478058 -0.0026512146 0.40011597 0.0761528 0.54304504 0.21907806l0 0c0.2976303 0.2976303 0.2912979 0.78650665 -0.014137268 1.0919418l0 0c-0.30543518 0.30543137 -0.7943115 0.31175995 -1.0919342 0.014133453z" fill-rule="evenodd"/><path fill="#282828" d="m72.673904 29.100685l0 0c-0.2976303 -0.2976284 -0.29130554 -0.78650475 0.014129639 -1.0919399l0 0c0.14667511 -0.1466732 0.3441162 -0.23056412 0.5488968 -0.23321533c0.20478058 -0.0026493073 0.40011597 0.076156616 0.54304504 0.21908188l0 0c0.29762268 0.2976265 0.2912979 0.78650475 -0.014137268 1.0919399l0 0c-0.30543518 0.30543327 -0.7943115 0.31176186 -1.0919342 0.014133453z" fill-rule="evenodd"/><path fill="#000000" fill-opacity="0.0" d="m47.28151 74.23641l0 0c-0.45610046 -0.45610046 -0.70752716 -1.0795135 -0.6989708 -1.7330933c0.008556366 -0.6535797 0.2763977 -1.2837906 0.7445984 -1.7519913l1.7197266 1.7197266z" fill-rule="evenodd"/><path fill="#000000" fill-opacity="0.0" d="m47.28151 74.23641l0 0c-0.45610046 -0.45610046 -0.70752716 -1.0795135 -0.6989708 -1.7330933c0.008556366 -0.6535797 0.2763977 -1.2837906 0.7445984 -1.7519913" fill-rule="evenodd"/><path stroke="#323232" stroke-width="0.9396325459317585" stroke-linejoin="round" stroke-linecap="butt" d="m47.28151 74.23641l0 0c-0.45610046 -0.45610046 -0.70752716 -1.0795135 -0.6989708 -1.7330933c0.008556366 -0.6535797 0.2763977 -1.2837906 0.7445984 -1.7519913" fill-rule="evenodd"/><path fill="#000000" fill-opacity="0.0" d="m47.741486 73.96612l-3.5411797 3.5411758" fill-rule="evenodd"/><path stroke="#323232" stroke-width="0.9396325459317585" stroke-linejoin="round" stroke-linecap="butt" d="m47.741486 73.96612l-3.5411797 3.5411758" fill-rule="evenodd"/><path fill="#323232" d="m74.55864 50.053898l10.264305 -10.264305l0.32621765 0.32621765l-10.264305 10.264305z" fill-rule="evenodd"/><path stroke="#323232" stroke-width="3.026246719160105" stroke-miterlimit="8.0" stroke-linecap="round" d="m74.55864 50.053898l10.264305 -10.264305l0.32621765 0.32621765l-10.264305 10.264305z" fill-rule="evenodd"/><path fill="#ffffff" d="m74.55864 50.053898l10.264305 -10.264305l0.32621765 0.32621765l-10.264305 10.264305z" fill-rule="evenodd"/><path stroke="#ffffff" stroke-width="0.46981627296587924" stroke-linejoin="round" stroke-linecap="butt" d="m74.55864 50.053898l10.264305 -10.264305l0.32621765 0.32621765l-10.264305 10.264305z" fill-rule="evenodd"/><path fill="#323232" d="m82.96546 39.554863l2.3407135 -2.3407173l2.396965 2.396965l-2.3407135 2.3407173z" fill-rule="evenodd"/><path fill="#323232" d="m85.508156 39.20601l0 0c-0.9271927 -0.92718506 -0.936615 -2.4405975 -0.021347046 -3.426941c0.9152756 -0.9863434 2.4279633 -1.092926 3.4253082 -0.24134445c0.997345 0.8515816 1.1227264 2.356823 0.28390503 3.4084435c-0.8388214 1.0516167 -2.3419037 1.2735825 -3.4035492 0.50260925l0.67513275 -0.91454315c0.56993866 0.40786362 1.382225 0.27674866 1.8398743 -0.296978c0.45764923 -0.57372665 0.39722443 -1.3851776 -0.13687134 -1.8379822c-0.53408813 -0.45280075 -1.3511124 -0.3852501 -1.8506012 0.1530075c-0.4994812 0.5382576 -0.50305176 1.3549995 -0.008087158 1.8499641z" fill-rule="evenodd"/></g></svg>