<?xml version="1.0" encoding="UTF-8" standalone="no"?>
<svg
   width="128"
   height="128"
   version="1.1"
   id="svg8"
   sodipodi:docname="loot-melee-bowie-dark-ice.svg"
   xml:space="preserve"
   inkscape:version="1.4.3 (0d15f75, 2025-12-25)"
   xmlns:inkscape="http://www.inkscape.org/namespaces/inkscape"
   xmlns:sodipodi="http://sodipodi.sourceforge.net/DTD/sodipodi-0.dtd"
   xmlns:xlink="http://www.w3.org/1999/xlink"
   xmlns="http://www.w3.org/2000/svg"
   xmlns:svg="http://www.w3.org/2000/svg"><sodipodi:namedview
     id="namedview8"
     pagecolor="#ffffff"
     bordercolor="#000000"
     borderopacity="0.25"
     inkscape:showpageshadow="2"
     inkscape:pageopacity="0.0"
     inkscape:pagecheckerboard="0"
     inkscape:deskcolor="#d1d1d1"
     inkscape:zoom="6.3046875"
     inkscape:cx="64"
     inkscape:cy="69.710037"
     inkscape:window-width="1920"
     inkscape:window-height="1009"
     inkscape:window-x="-8"
     inkscape:window-y="-8"
     inkscape:window-maximized="1"
     inkscape:current-layer="svg8" /><defs
     id="defs4"><linearGradient
       xlink:href="#a"
       id="d"
       x1="54.5"
       y1="45.956"
       x2="72.5"
       y2="50.956"
       gradientUnits="userSpaceOnUse" /><linearGradient
       id="a"><stop
         offset="0"
         stop-color="#272727"
         id="stop1" /><stop
         offset="1"
         stop-color="#dfdfdf"
         id="stop2" /></linearGradient><clipPath
       id="c"><path
         d="M58.856 78l-1.532-3.836-2.043-.714s-3.064-19.293-3.064-35.014c0-20.007 13.904-29.556 13.904-29.556s-1.647 20.982 6.524 35.273V78z"
         fill="#393a3c"
         fill-opacity=".434"
         stroke-width="1.536"
         id="path2" /></clipPath><linearGradient
       xlink:href="#b"
       id="f"
       x1="64.015"
       y1="105"
       x2="67.644"
       y2="89"
       gradientUnits="userSpaceOnUse" /><linearGradient
       id="b"><stop
         stop-color="#b66622"
         offset="0"
         id="stop3" /><stop
         stop-color="#6b3f1b"
         offset="1"
         id="stop4" /></linearGradient><clipPath
       id="e"><path
         d="M60.387 76v5c0 13 1.708 22 .907 29.079-.224 4.028-4.201 6.535-3.734 7.936 2.103 4.476 6.974 6.644 10.376 7.002 0 0 1.4.21 1.867-.933C72.58 117.638 72.18 108 72.18 108V76z"
         fill="#3d3522"
         fill-opacity=".606"
         stroke-width="10.494"
         id="path4" /></clipPath><linearGradient
       id="_Linear1"
       x1="0"
       y1="0"
       x2="1"
       y2="0"
       gradientUnits="userSpaceOnUse"
       gradientTransform="matrix(-13.981762,43.099516,-234.09456,-75.941791,66.5,78.979562)"><stop
         offset="0"
         style="stop-color:rgb(0,50,178);stop-opacity:1"
         id="stop3-5" /><stop
         offset="0.52"
         style="stop-color:rgb(28,117,234);stop-opacity:1"
         id="stop4-1" /><stop
         offset="1"
         style="stop-color:rgb(38,142,255);stop-opacity:1"
         id="stop5" /></linearGradient><linearGradient
       id="_Linear2"
       x1="0"
       y1="0"
       x2="1"
       y2="0"
       gradientUnits="userSpaceOnUse"
       gradientTransform="matrix(30.546465,-17.665423,78.008964,134.89052,44.372252,48.532715)"><stop
         offset="0"
         style="stop-color:rgb(26,170,255);stop-opacity:1"
         id="stop6" /><stop
         offset="0.51"
         style="stop-color:rgb(78,190,255);stop-opacity:1"
         id="stop7" /><stop
         offset="1"
         style="stop-color:rgb(242,255,253);stop-opacity:1"
         id="stop8" /></linearGradient></defs><g
     style="clip-rule:evenodd;fill-rule:evenodd;stroke-linejoin:round;stroke-miterlimit:2"
     id="g9"
     transform="matrix(0.99997501,0,0,0.99997501,0.00213931,1.4804076e-4)"><path
       d="m 73.636,115.001 c -0.007,0.019 -0.011,0.04 -0.02,0.058 -0.911,1.902 -2.954,3.862 -5.082,4.998 -0.661,0.353 -1.644,0.826 -2.461,1.118 -0.856,0.305 -1.696,0.535 -2.678,0.718 -0.414,0.077 -0.98,0.159 -1.393,0.183 -0.103,0.006 -0.164,0.001 -0.249,0 -0.165,-0.002 -0.401,-0.043 -0.587,-0.094 -0.132,-0.036 -0.223,-0.076 -0.32,-0.122 0,0 -0.175,-0.082 -0.256,-0.142 -0.31,-0.229 -0.402,-0.449 -0.465,-0.573 -0.309,-0.609 -1.065,-2.562 -1.195,-3.177 -0.153,-0.715 -0.261,-0.866 -0.474,-1.853 -0.153,-0.714 -0.416,-2.209 -0.528,-3.028 -0.18,-1.307 -0.308,-2.831 -0.383,-4.011 -0.046,-0.726 -0.057,-1.774 -0.069,-2.285 -0.006,-0.258 0.006,-0.537 0,-0.785 l 0.022,-28.369 -5.497,0.002 C 50.178,77.592 47.749,76.246 45.459,73.281 44.258,71.725 43.041,69.552 43.1,68.1 l 2.901,-2.099 c 0.928,2.584 2.679,4.504 2.679,4.504 1.05,1.119 1.409,1.389 2.309,1.877 0,0 0.5,0.255 1.011,0.255 h 4.855 v -31.44 c 3.387,-6.149 4.765,-12.085 5.589,-17.013 0,0 0.657,-4.205 0.893,-7.896 0.069,-1.093 0.175,-3.378 0.174,-5.238 0,-2.787 -0.132,-5.126 -0.132,-5.126 0.795,0.579 1.279,1 1.94,1.6 5.31,4.81 8.152,10.359 9.878,15.143 1.831,5.073 2.145,9.793 2.07,14.863 -0.121,8.229 -1.539,24.219 -3.048,32.964 l -2.043,0.714 -0.57,1.429 4.393,0.001 c 3.132,-0.126 7.748,4.543 8.756,8.192 0,0 0.164,0.5 0.146,1.072 l -2.907,2.097 c -0.635,-1.966 -3.237,-6.138 -5.991,-6.361 l -5.477,0.01 c 0.277,10.426 -2.112,24.212 -0.888,30.338 0.715,3.577 4.409,5.773 3.998,7.015 z"
       style="fill:#001326"
       id="path1" /><path
       d="m 61.461,77.001 5.079,0.002 c 0.003,4.116 -0.015,8.439 -0.796,17.46 -0.205,2.371 -0.421,6.18 -0.432,7.759 -0.014,2.165 0.091,3.84 0.216,5.025 0.037,0.349 0.095,0.981 0.213,1.536 0.168,0.793 0.426,1.541 0.654,2.048 0.668,1.484 1.252,2.263 1.769,2.948 0.349,0.461 0.803,1.024 0.803,1.024 -2.3,2.456 -5.889,3.114 -5.889,3.114 -0.552,-1.583 -0.954,-3.345 -1.314,-5.997 -0.101,-0.74 -0.121,-0.989 -0.168,-1.591 -0.048,-0.615 -0.123,-1.495 -0.127,-2.146 -0.003,-0.446 -0.021,-1.074 -0.024,-1.633 -0.002,-0.521 -0.003,-1.087 -0.005,-1.691 -0.021,-9.393 0.021,-27.858 0.021,-27.858 z"
       style="fill:url(#_Linear1)"
       id="path2-5" /><g
       transform="matrix(1.063209,0,0,0.987826,-4.203369,1.408301)"
       id="g2">
        <ellipse
   cx="64.962997"
   cy="114.022"
   rx="1.5369999"
   ry="1.6619999"
   style="fill:#001326"
   id="ellipse2" />
    </g><path
       d="m 60.805,71.094 h 7.163 l 1.207,-3.021 1.488,-0.521 c 0,0 0.58,-4.19 0.832,-6.29 0.277,-2.309 0.628,-5.52 0.833,-7.561 0.899,-8.944 1.023,-15.517 0.994,-19.171 -0.03,-3.689 -0.784,-7.521 -1.865,-10.62 -1.727,-4.952 -4.143,-8.134 -4.143,-8.134 -0.58,7.782 -1.146,10.709 -2.231,15.116 -1.065,4.326 -2.709,8.393 -4.278,11.324 v 1.828 H 63.5 l 10e-4,2 h -2.696 l -10e-4,2 H 63.5 l 10e-4,2.001 -2.698,-0.001 0.002,2 2.694,0.001 10e-4,1.999 h -2.691 l -0.003,2.002 2.69,0.003 0.004,1.989 h -2.695 l -0.006,2.01 2.699,-0.024 v 1.985 l -2.685,0.03 -0.009,2.005 2.692,0.003 -0.002,1.992 -2.685,0.003 z"
       style="fill:url(#_Linear2)"
       id="path3" /></g></svg>
