<?xml version="1.0" encoding="UTF-8" standalone="no"?>
<svg
   width="128"
   height="128"
   viewBox="0 0 128 128"
   fill="none"
   version="1.1"
   id="svg38"
   sodipodi:docname="loot-shirt-outfitMeow.svg"
   xml:space="preserve"
   inkscape:version="1.4.2 (ebf0e940d0, 2025-05-08)"
   xmlns:inkscape="http://www.inkscape.org/namespaces/inkscape"
   xmlns:sodipodi="http://sodipodi.sourceforge.net/DTD/sodipodi-0.dtd"
   xmlns="http://www.w3.org/2000/svg"
   xmlns:svg="http://www.w3.org/2000/svg"><sodipodi:namedview
     id="namedview38"
     pagecolor="#ffffff"
     bordercolor="#000000"
     borderopacity="0.25"
     inkscape:showpageshadow="2"
     inkscape:pageopacity="0.0"
     inkscape:pagecheckerboard="0"
     inkscape:deskcolor="#d1d1d1"
     inkscape:zoom="3.1054687"
     inkscape:cx="22.379874"
     inkscape:cy="96.442768"
     inkscape:window-width="1920"
     inkscape:window-height="1017"
     inkscape:window-x="0"
     inkscape:window-y="0"
     inkscape:window-maximized="1"
     inkscape:current-layer="svg38" /><path
     d="M29 46.5024C29 65.5562 44.4462 81.0019 63.5 81.0012C82.5538 81.0005 98 65.5538 98 46.5C98 27.4462 82.5538 12.0005 63.5 12.0012C44.4462 12.0019 29 27.4486 29 46.5024Z"
     fill="#D03215"
     id="path1"
     style="fill:#ffffff;fill-opacity:1;stroke:#000000;stroke-opacity:1;stroke-width:7;stroke-dasharray:none" /><path
     d="M63.5 33C42.237 33 25.0006 50.237 25.0013 71.5C25.0021 92.763 42.2397 110 63.5027 110C84.7656 110 102.002 92.763 102.001 71.5C102.001 50.237 84.763 33 63.5 33Z"
     fill="#BB2B10"
     id="path2"
     style="fill:#787878;fill-opacity:1" /><mask
     id="mask0"
     mask-type="alpha"
     maskUnits="userSpaceOnUse"
     x="74"
     y="82"
     width="36"
     height="36"><rect
       x="109.132"
       y="82"
       width="35.1316"
       height="35.1316"
       transform="rotate(90 109.132 82)"
       fill="#C4C4C4"
       id="rect14" /></mask><defs
     id="defs38"><linearGradient
       id="paint0_linear"
       x1="62.5273"
       y1="22.5"
       x2="62.5273"
       y2="78.4025"
       gradientUnits="userSpaceOnUse"><stop
         offset="0.135417"
         stop-color="#FFA31A"
         id="stop17" /><stop
         offset="1"
         stop-color="#FF831A"
         stop-opacity="0"
         id="stop18" /></linearGradient><linearGradient
       id="paint1_linear"
       x1="30.2595"
       y1="44.1936"
       x2="59.1224"
       y2="92.0686"
       gradientUnits="userSpaceOnUse"><stop
         offset="0.135417"
         stop-color="#FFA31A"
         id="stop19" /><stop
         offset="1"
         stop-color="#FF831A"
         stop-opacity="0"
         id="stop20" /></linearGradient><linearGradient
       id="paint2_linear"
       x1="98.4204"
       y1="50.5874"
       x2="63.7772"
       y2="94.4615"
       gradientUnits="userSpaceOnUse"><stop
         offset="0.135417"
         stop-color="#FFA31A"
         id="stop21" /><stop
         offset="1"
         stop-color="#FF831A"
         stop-opacity="0"
         id="stop22" /></linearGradient><linearGradient
       id="paint3_linear"
       x1="63.2846"
       y1="43.4951"
       x2="63.2846"
       y2="99.6637"
       gradientUnits="userSpaceOnUse"><stop
         offset="0.135417"
         stop-color="#FFCD1A"
         id="stop23" /><stop
         offset="1"
         stop-color="#FF831A"
         stop-opacity="0"
         id="stop24" /></linearGradient><linearGradient
       id="paint4_linear"
       x1="63.2846"
       y1="65.8525"
       x2="63.2846"
       y2="107.843"
       gradientUnits="userSpaceOnUse"><stop
         offset="0.135417"
         stop-color="#FFCD1A"
         id="stop25" /><stop
         offset="1"
         stop-color="#FF831A"
         stop-opacity="0"
         id="stop26" /></linearGradient><linearGradient
       id="paint5_linear"
       x1="31.3469"
       y1="62.0971"
       x2="48.3953"
       y2="97.2797"
       gradientUnits="userSpaceOnUse"><stop
         offset="0.135417"
         stop-color="#FFCD1A"
         id="stop27" /><stop
         offset="1"
         stop-color="#FF831A"
         stop-opacity="0"
         id="stop28" /></linearGradient><linearGradient
       id="paint6_linear"
       x1="99.1933"
       y1="64.6206"
       x2="77.5657"
       y2="97.1891"
       gradientUnits="userSpaceOnUse"><stop
         offset="0.135417"
         stop-color="#FFCD1A"
         id="stop29" /><stop
         offset="1"
         stop-color="#FF831A"
         stop-opacity="0"
         id="stop30" /></linearGradient><linearGradient
       id="paint7_linear"
       x1="83.5649"
       y1="34.3473"
       x2="77.2178"
       y2="72.9242"
       gradientUnits="userSpaceOnUse"><stop
         offset="0.135417"
         stop-color="#FFCD1A"
         id="stop31" /><stop
         offset="1"
         stop-color="#FF831A"
         stop-opacity="0"
         id="stop32" /></linearGradient><linearGradient
       id="paint8_linear"
       x1="40.0754"
       y1="38.2285"
       x2="54.6735"
       y2="74.4963"
       gradientUnits="userSpaceOnUse"><stop
         offset="0.135417"
         stop-color="#FFCD1A"
         id="stop33" /><stop
         offset="1"
         stop-color="#FF831A"
         stop-opacity="0"
         id="stop34" /></linearGradient><linearGradient
       id="paint9_linear"
       x1="36.4317"
       y1="85.9695"
       x2="36.4317"
       y2="114.234"
       gradientUnits="userSpaceOnUse"><stop
         offset="0.36327353"
         stop-color="#FFCD1A"
         id="stop35" /><stop
         offset="1"
         stop-color="#FF831A"
         stop-opacity="0"
         id="stop36" /></linearGradient><linearGradient
       id="paint10_linear"
       x1="91.5661"
       y1="86.3016"
       x2="91.5661"
       y2="114.566"
       gradientUnits="userSpaceOnUse"><stop
         offset="0.135417"
         stop-color="#FFCD1A"
         id="stop37" /><stop
         offset="1"
         stop-color="#FF831A"
         stop-opacity="0"
         id="stop38" /></linearGradient></defs><ellipse
     style="fill:#ffffff;stroke:#000000;stroke-width:3.38642;stroke-miterlimit:4.6;stroke-dasharray:none;stroke-opacity:1;fill-opacity:1"
     id="path38"
     cx="36.870438"
     cy="103.32702"
     rx="13.905313"
     ry="14.02729" /><ellipse
     style="fill:#ffffff;stroke:#000000;stroke-width:3.38642;stroke-miterlimit:4.6;stroke-dasharray:none;stroke-opacity:1;fill-opacity:1"
     id="path38-4"
     cx="90.374626"
     cy="103.11044"
     rx="13.905313"
     ry="14.02729" /><path
     style="fill:#c2c4c6;stroke-width:1.93616"
     d="m 112.03734,73.466786 c -0.39111,-5.264418 -0.9584,-10.561751 -1.81612,-15.773893 -0.78027,-4.737782 -1.91873,-9.487183 -3.98075,-13.845478 -2.06587,-4.364104 -5.06305,-8.145423 -8.952793,-11.020621 -3.721299,-2.751283 -8.060234,-4.540294 -12.482421,-5.823968 -1.035848,-0.300105 -2.079438,-0.563422 -3.128839,-0.803507 -0.03871,-0.0484 -0.091,-0.09487 -0.164574,-0.131658 -0.298169,-0.156829 -0.592461,-0.348509 -0.909994,-0.460806 -0.393037,-0.139404 -0.807378,-0.222659 -1.212036,-0.315595 -0.751231,-0.170381 -1.504395,-0.32721 -2.261436,-0.466614 -1.48697,-0.274934 -2.98362,-0.491784 -4.489951,-0.636996 -3.051389,-0.294297 -6.129882,-0.342701 -9.190951,-0.160701 -0.904186,0.05228 -1.808373,0.131658 -2.71256,0.230403 -0.01743,-0.03292 -0.05421,-0.05227 -0.120042,-0.04066 -0.358189,0.06196 -0.716378,0.123914 -1.072632,0.183935 -1.415333,0.185871 -2.826793,0.424018 -4.228573,0.716379 -2.896495,0.503401 -5.779434,1.064888 -8.608164,1.885819 -4.420255,1.283674 -8.761122,3.074622 -12.482422,5.823968 -3.891683,2.875198 -6.886919,6.656518 -8.952803,11.020621 -2.062013,4.35636 -3.20047,9.107696 -3.980748,13.845478 -0.857719,5.210206 -1.425013,10.50754 -1.816117,15.773894 -0.422084,5.661331 -0.427887,11.46013 0.987444,16.993676 1.175246,4.590633 3.256623,9.018632 6.522921,12.499848 3.638046,3.87812 8.538464,5.92465 13.560862,7.35933 1.951653,0.55762 3.932344,1.02811 5.936265,1.4134 1.152018,1.38242 2.520884,2.54412 4.017536,3.54511 3.06881,2.04846 6.691365,3.19273 10.337153,3.71549 0.06002,0.0251 0.121979,0.0465 0.187808,0.0561 1.438567,0.18394 2.894559,0.27882 4.348615,0.29043 0.127787,0.002 0.255573,0.002 0.381423,0.002 0.127787,0 0.255573,0 0.38336,-0.002 1.454056,-0.0116 2.908112,-0.10843 4.348615,-0.29043 0.06583,-0.008 0.127786,-0.029 0.187807,-0.0561 3.647725,-0.52276 7.270281,-1.6651 10.337155,-3.71549 1.498591,-1.00099 2.867458,-2.16269 4.017537,-3.54511 2.001988,-0.38529 3.984612,-0.85578 5.936264,-1.4134 5.022399,-1.43468 9.922821,-3.48121 13.560861,-7.35933 3.2663,-3.481216 5.34768,-7.909215 6.52292,-12.499848 1.41727,-5.533546 1.40952,-11.332345 0.98938,-16.993676 z"
     id="path15" /><path
     style="fill:#9c5f31;stroke-width:1.93616"
     d="m 60.736852,24.255415 c -0.01936,-0.03292 -0.05421,-0.05228 -0.120042,-0.04066 -0.35819,0.06196 -0.71638,0.123915 -1.072633,0.183935 -1.415333,0.185871 -2.826793,0.424019 -4.226636,0.716379 -1.304972,0.22653 -2.606071,0.466614 -3.903298,0.73574 -2.14139,1.779331 -4.205342,3.657406 -6.215073,5.580013 -1.45793,1.394035 -3.082367,2.780325 -4.1337,4.520933 -1.241082,2.056201 -1.252696,4.280849 -0.528572,6.517113 0.791892,2.439562 2.048459,4.704868 2.9449,7.105706 0.545997,1.465673 1.00293,2.935219 1.273993,4.476402 0.272995,1.545055 0.422083,3.109472 0.646675,4.662272 0.106488,0.731868 0.22847,1.461801 0.396915,2.183988 0.08131,0.348509 0.164574,0.698954 0.276866,1.037782 0.108428,0.329147 0.303981,0.545997 0.544065,0.788017 0.85772,0.873208 2.009731,1.645735 2.501521,2.807431 1.090054,2.575093 0.189741,5.580012 1.322395,8.120254 1.031971,-0.31172 2.063945,-0.627314 3.093982,-0.950653 4.234381,-1.326269 8.451337,-2.714495 12.767037,-3.760022 2.30403,-0.557614 4.629357,-1.01842 6.974047,-1.363056 2.251753,-0.33302 4.509318,-0.48404 6.782369,-0.565359 4.553844,-0.162637 9.148355,-0.118106 13.638311,-1.000995 3.845212,-0.757038 7.612976,-2.234328 10.666306,-4.731974 2.09879,-1.717373 3.85295,-3.775511 5.42124,-5.984669 -0.76285,-3.932341 -1.83354,-7.825958 -3.54705,-11.446577 -2.06587,-4.364104 -5.06305,-8.145423 -8.952793,-11.020621 -3.721299,-2.751283 -8.060234,-4.540294 -12.482421,-5.823968 -1.035848,-0.300105 -2.079438,-0.563422 -3.128839,-0.803507 -0.03871,-0.0484 -0.091,-0.09487 -0.164574,-0.131658 -0.298169,-0.156829 -0.592461,-0.348509 -0.909994,-0.460806 -0.393037,-0.139404 -0.807378,-0.222659 -1.212036,-0.315595 -0.751231,-0.170381 -1.504395,-0.32721 -2.261436,-0.466614 -1.48697,-0.274934 -2.98362,-0.491784 -4.489951,-0.636996 -3.051389,-0.294297 -6.129882,-0.342701 -9.190951,-0.160701 -0.902251,0.05228 -1.806437,0.129722 -2.710623,0.228466 z"
     id="path16" /><path
     style="fill:#3c3d3f;stroke-width:1.93616"
     d="m 22.66808,68.306921 c 0.950655,0.431763 1.97101,0.772527 3.020411,0.832549 0.958398,0.05615 1.831603,-0.160702 2.662216,-0.638933 1.477288,-0.849974 2.468603,-2.300158 3.291473,-3.752278 0.836424,-1.477289 1.525691,-3.049451 2.497642,-4.447359 0.439508,-0.629252 0.937102,-1.223652 1.543123,-1.699948 0.637,-0.503401 1.355313,-0.791889 2.137523,-0.991314 1.577966,-0.400785 3.215956,-0.371742 4.830718,-0.3427 1.425013,0.02517 2.941021,0.08906 4.290531,-0.445316 1.560541,-0.615699 2.427943,-2.075564 2.898429,-3.618683 0.240084,-0.786081 0.402719,-1.5528 0.37368,-2.375668 -0.02905,-0.848038 -0.15296,-1.692203 -0.273002,-2.532497 -0.247827,-1.728991 -0.621507,-3.535427 -0.44144,-5.285716 0.06392,-0.619571 0.207167,-1.258504 0.627311,-1.740607 0.342701,-0.394977 0.805444,-0.631189 1.289484,-0.807379 1.465673,-0.536316 3.103664,-0.648613 4.646783,-0.789953 1.839352,-0.168446 3.690321,-0.271062 5.519991,-0.542125 0.764783,-0.112297 1.531502,-0.251701 2.269179,-0.487912 0.776401,-0.247829 1.500524,-0.658295 2.182052,-1.097803 1.457929,-0.937101 2.689326,-2.209158 3.405706,-3.800681 0.656357,-1.459864 0.824803,-3.090111 0.716378,-4.675826 -0.118105,-1.738672 -0.530507,-3.444428 -1.091994,-5.107589 -1.87033,-0.0639 -3.746469,-0.05034 -5.612926,0.06002 -0.904187,0.05228 -1.808374,0.131659 -2.712561,0.230403 -0.01936,-0.03292 -0.05421,-0.05227 -0.120041,-0.04066 -0.35819,0.06196 -0.716379,0.123914 -1.072633,0.183935 -1.415333,0.185871 -2.826793,0.424019 -4.226637,0.716379 -2.896495,0.503402 -5.779439,1.064888 -8.608168,1.885819 -4.420249,1.283674 -8.761123,3.074622 -12.482422,5.823969 -3.891677,2.875197 -6.886919,6.656517 -8.952796,11.020621 -2.062013,4.356359 -3.200478,9.107695 -3.980748,13.845478 -0.499526,3.03977 -0.89838,6.11052 -1.22365,9.185141 0.836417,0.532444 1.694136,1.026165 2.596388,1.436631 z"
     id="path17" /><path
     style="fill:#cb7c44;stroke-width:1.93616"
     d="m 97.287677,32.826794 c -2.123969,-1.570225 -4.453173,-2.819048 -6.879176,-3.847149 -0.02905,0.03485 -0.06,0.0697 -0.08713,0.106488 -1.175246,1.564417 -1.475348,3.760023 -1.711561,5.643906 -0.242024,1.930351 -0.302041,3.883937 -0.5944,5.806543 -0.02324,0.149084 -0.249767,0.201361 -0.344641,0.091 -0.302041,-0.35819 -0.623439,-0.714443 -1.016483,-0.977761 -0.495654,-0.331083 -1.006801,-0.393041 -1.506334,-0.04453 -0.487911,0.338828 -0.84997,0.851911 -1.22946,1.301099 -0.865463,1.026165 -1.967139,1.78514 -3.279852,2.131713 -0.607954,0.160701 -1.237204,0.168445 -1.86065,0.168445 -0.942912,0.002 -1.876142,0.07551 -2.817115,0.102617 -1.721243,0.05034 -3.461852,0.271062 -5.086289,0.863527 -2.427945,0.882889 -4.232445,2.666092 -5.217951,5.043696 -1.016484,2.453114 -1.279802,5.16761 -1.523757,7.787235 -0.265254,2.853899 -0.456934,5.72716 -1.111356,8.524911 -0.02517,0.108425 -0.149085,0.172318 -0.253637,0.143275 -1.343695,-0.381423 -2.766772,-0.714442 -4.172424,-0.600209 -0.820932,0.06777 -1.624438,0.334955 -2.247882,0.884825 -0.625379,0.549869 -1.039717,1.291419 -1.368864,2.04652 -0.919676,2.120096 -1.384355,4.437679 -2.071692,6.639092 1.8258,0.652486 3.698065,1.186866 5.585821,1.626375 1.905182,0.44338 3.868447,0.824803 5.831713,0.834484 0.747358,0.0038 1.531503,-0.03292 2.232393,-0.313657 0.81125,-0.325276 1.516013,-0.85772 2.11235,-1.488907 2.335009,-2.480221 3.057196,-6.288647 5.965308,-8.259658 0.106488,-0.07164 0.276871,-0.002 0.302041,0.123914 0.284616,1.357249 0.902252,2.788071 1.849035,3.827788 1.591519,-1.426949 2.563471,-3.403769 4.199529,-4.791995 0.08906,-0.07551 0.265252,-0.08906 0.323337,0.04066 0.149088,0.340764 0.286555,0.687336 0.416273,1.035845 0.650553,1.740608 1.181057,3.5393 2.056201,5.186972 0.402727,0.757039 0.879017,1.504396 1.53538,2.069755 0.590529,0.507274 1.357246,0.778336 2.127834,0.863527 3.206281,0.356253 5.489014,-2.999111 7.092154,-5.272163 1.748351,-2.48022 3.459919,-5.609055 6.735898,-6.189903 1.56055,-0.27687 2.98556,0.300105 4.37766,0.942911 1.75803,0.81125 3.50638,1.508268 5.47158,1.550863 0.091,0.002 0.18394,-0.0038 0.27494,-0.0038 -0.3156,-2.923601 -0.69895,-5.841394 -1.17525,-8.732081 -0.78027,-4.737782 -1.91873,-9.487182 -3.98075,-13.845478 -2.06587,-4.364104 -5.06112,-8.143487 -8.952791,-11.020621 z"
     id="path18" /><path
     style="fill:#c2c4c6;stroke-width:1.93616"
     d="m 58.785203,85.16119 c -0.336893,-0.939034 -0.71638,-1.870332 -1.045527,-2.815176 -0.296232,-0.429827 -0.636996,-0.828676 -1.0281,-1.19461 -1.359185,1.091993 -2.638987,2.290475 -3.750342,3.636106 -1.789011,2.168501 -3.107534,4.751336 -3.467661,7.560708 -0.377551,2.941022 0.300102,5.882056 1.504395,8.561692 1.279801,-0.84029 2.455051,-1.843216 3.548981,-2.910046 1.157824,-1.12878 2.236264,-2.350497 3.161749,-3.676764 0.834485,-1.19655 1.585715,-2.507325 1.949712,-3.930405 0.211042,-0.826742 0.05615,-1.800632 -0.11036,-2.623496 -0.180064,-0.888698 -0.456934,-1.75416 -0.762847,-2.608009 z"
     id="path19" /><path
     style="opacity:0.59;fill:#bcbec0;stroke-width:1.93616"
     d="m 112.03734,73.466786 c -0.39111,-5.264418 -0.9584,-10.561751 -1.81612,-15.773893 -0.78027,-4.737782 -1.91873,-9.487183 -3.98075,-13.845478 -2.06587,-4.364104 -5.06305,-8.145423 -8.952793,-11.020621 -3.721299,-2.751283 -8.060234,-4.540294 -12.482421,-5.823968 -1.035848,-0.300105 -2.079438,-0.563422 -3.128839,-0.803507 -0.03871,-0.0484 -0.091,-0.09487 -0.164574,-0.131658 -0.298169,-0.156829 -0.592461,-0.348509 -0.909994,-0.460806 -0.393037,-0.139404 -0.807378,-0.222659 -1.212036,-0.315595 -0.751231,-0.170381 -1.504395,-0.32721 -2.261436,-0.466614 -1.48697,-0.274934 -2.98362,-0.491784 -4.489951,-0.636996 -3.051389,-0.294297 -6.129882,-0.342701 -9.190951,-0.160701 -0.904186,0.05228 -1.808373,0.131658 -2.71256,0.230403 -0.01743,-0.03292 -0.05421,-0.05227 -0.120042,-0.04066 -0.358189,0.06196 -0.716378,0.123914 -1.072632,0.183935 -1.415333,0.185871 -2.826793,0.424018 -4.228573,0.716379 -2.896495,0.503401 -5.779434,1.064888 -8.608164,1.885819 -4.420255,1.283674 -8.761122,3.074622 -12.482422,5.823968 -3.891683,2.875198 -6.886919,6.656518 -8.952803,11.020621 -2.062013,4.35636 -3.20047,9.107696 -3.980748,13.845478 -0.857719,5.210206 -1.425013,10.50754 -1.816117,15.773894 -0.422084,5.661331 -0.427887,11.46013 0.987444,16.993676 1.175246,4.590633 3.256623,9.018632 6.522921,12.499848 3.638046,3.87812 8.538464,5.92271 13.560862,7.35933 1.951653,0.55762 3.932344,1.02811 5.936265,1.4134 1.152018,1.38242 2.520884,2.54412 4.017536,3.54511 3.06881,2.04846 6.691365,3.19273 10.337153,3.71549 0.06002,0.0251 0.121979,0.0465 0.187808,0.0561 1.440503,0.18394 2.894559,0.27882 4.348615,0.29043 0.127787,0.002 0.255573,0.002 0.381423,0.002 0.127787,0 0.255573,0 0.38336,-0.002 1.454056,-0.0116 2.908112,-0.10843 4.348615,-0.29043 0.06583,-0.008 0.127786,-0.029 0.187807,-0.0561 3.647725,-0.52276 7.270281,-1.6651 10.337155,-3.71549 1.498591,-1.00099 2.867458,-2.16269 4.017537,-3.54511 2.001988,-0.38529 3.984612,-0.85578 5.936264,-1.4134 5.022399,-1.43468 9.922821,-3.48121 13.560861,-7.35933 3.2663,-3.481216 5.34768,-7.909215 6.52292,-12.499848 1.41727,-5.533546 1.40952,-11.332345 0.98938,-16.993676 z m -10.11063,-4.842335 c -0.12391,0.149084 -0.33883,0.01355 -0.35238,-0.145212 -0.0949,-1.262376 0.10843,-2.505391 0.37368,-3.744533 -0.53438,1.436631 -1.19267,2.836474 -2.02135,4.122084 -0.96421,1.496652 -2.209157,2.919729 -3.854897,3.674831 -0.158763,0.07357 -0.350444,-0.04646 -0.302041,-0.232339 0.203302,-0.803506 0.443387,-1.597332 0.689275,-2.387285 -0.131657,0.19168 -0.25557,0.385296 -0.391105,0.575039 -2.594449,3.643853 -5.719416,6.854006 -8.960547,9.920883 -0.900312,0.85191 -1.808374,1.686397 -2.61188,2.63318 -0.782203,0.91967 -1.481159,1.905182 -2.143327,2.913915 -1.316585,2.000056 -2.526688,4.069811 -4.060129,5.916907 -0.112292,0.135528 -0.363998,0.02513 -0.352377,-0.14521 0.168446,-2.263375 0.753164,-4.464787 1.198482,-6.687495 -0.04837,0.121974 -0.09293,0.245888 -0.141338,0.367869 -0.621507,1.560541 -1.295296,3.109474 -2.118159,4.575141 -0.749299,1.334017 -1.63799,2.673837 -2.848093,3.634174 -0.154893,0.123914 -0.394977,0.01358 -0.344636,-0.201363 0.420146,-1.758032 0.880952,-3.510254 1.303035,-5.272158 -0.319466,0.507269 -0.646677,1.008734 -0.997122,1.494713 -0.940974,1.312714 -1.994244,2.573159 -3.254685,3.589643 -0.121978,0.09874 -0.371743,0.0523 -0.352381,-0.145217 0.365935,-3.419258 1.363057,-6.741703 1.670906,-10.166772 -0.313658,0.538254 -0.621507,1.08038 -0.921612,1.628309 -1.550864,2.844222 -2.952643,5.791054 -4.822973,8.449399 -0.108426,0.154899 -0.394977,0.116171 -0.38336,-0.104549 0.149084,-2.97394 0.286552,-5.955629 0.611826,-8.917954 -1.243015,3.527686 -2.48022,7.057304 -3.889745,10.523033 -0.07357,0.181999 -0.333019,0.207167 -0.396912,0 -0.805443,-2.598327 -1.097803,-5.339932 -1.932288,-7.924706 0.247829,2.422139 0.363998,4.855892 0.205233,7.289646 -0.01355,0.199424 -0.274935,0.286548 -0.38336,0.104549 -0.871272,-1.45793 -1.632182,-2.973939 -2.325327,-4.520934 0.389167,3.198538 1.00293,6.366091 2.120094,9.400055 0.06196,0.16845 -0.158765,0.32528 -0.30204,0.23234 -1.022293,-0.65829 -1.953586,-1.44825 -2.772581,-2.34663 -2.561539,-2.805491 -3.926532,-6.381581 -5.609055,-9.736943 0.311722,1.819989 0.631188,3.638046 0.935165,5.458035 0.03679,0.216849 -0.259445,0.379484 -0.375614,0.158764 -0.35819,-0.673782 -0.666039,-1.370799 -0.962272,-2.073627 -0.540187,-1.275925 -1.049395,-2.648663 -1.707691,-3.920723 0.642803,2.168501 1.068758,4.395081 1.310781,6.66426 0.02709,0.251706 -0.327215,0.247834 -0.404658,0.05419 -0.114238,-0.282677 -0.236213,-0.561482 -0.369808,-0.834484 -1.124911,-2.329197 -2.846155,-4.313767 -4.699062,-6.093096 -2.007798,-1.928417 -4.203399,-3.647721 -6.377711,-5.380586 -2.15688,-1.71931 -4.321503,-3.446365 -6.269284,-5.405758 -1.769647,-1.781267 -3.384409,-3.785192 -4.373785,-6.112456 -0.617635,-1.45212 -0.940973,-2.975878 -0.995187,-4.520933 -0.269123,1.370801 -0.505336,2.751283 -0.735738,4.129829 -0.03675,0.224594 -0.33108,0.164573 -0.396916,0 -0.735738,-1.812246 -0.923548,-3.829725 -0.830613,-5.769757 0.0523,-1.099738 0.197492,-2.201413 0.443387,-3.279854 -0.329148,0.644741 -0.700896,1.26044 -1.206232,1.777395 -0.120042,0.123913 -0.360126,0.03485 -0.350444,-0.145212 0.172316,-3.206281 1.268188,-6.342859 2.851965,-9.148355 -0.559551,0.658294 -1.117162,1.318525 -1.725122,1.932287 -0.154892,0.156829 -0.377551,-0.0077 -0.344634,-0.199424 0.398848,-2.27886 1.124911,-4.488018 2.083309,-6.592624 1.773518,-3.893617 4.331192,-7.429044 7.34192,-10.461071 2.37179,-2.389221 5.064992,-4.489954 8.007953,-6.139562 2.3505,-1.692204 5.018527,-2.869389 7.814339,-3.634172 3.85296,-1.055207 7.899534,-1.326269 11.878342,-1.229461 3.83166,0.09294 7.684618,0.513082 11.456257,1.198483 3.494766,0.63506 6.931449,1.620565 10.199686,3.020409 3.241138,1.388226 6.306073,3.196599 9.018632,5.454161 2.536371,2.110415 4.745532,4.631295 6.538415,7.401939 1.653479,2.553795 2.962329,5.347673 3.936219,8.226743 1.00099,2.960388 1.6709,6.102775 1.6012,9.24129 -0.0658,2.819048 -0.79577,5.649714 -2.61963,7.856936 z"
     id="path20" /><path
     style="opacity:0.59;fill:#bcbec0;stroke-width:1.93616"
     d="m 112.03734,73.466786 c -0.15102,-2.038776 -0.33108,-4.081424 -0.54019,-6.122136 -0.13553,1.107483 -0.30398,2.21303 -0.49759,3.320513 -0.75704,4.3157 -1.90518,9.545267 -5.8201,12.133913 -0.0949,0.06196 -0.22653,0.01743 -0.28268,-0.07357 -0.20716,-0.334959 -0.3911,-0.683464 -0.55761,-1.039721 -0.68734,-1.469545 -1.10749,-3.053323 -1.83742,-4.503507 -0.64667,-1.287546 -1.61669,-2.389221 -3.17142,-2.338881 -1.74449,0.05808 -3.438626,1.175249 -4.815236,2.147201 -1.663158,1.173313 -3.190788,2.536369 -4.662272,3.938149 -2.396964,2.286602 -4.803611,4.623549 -6.964369,7.134752 -1.146208,1.332077 -2.26724,2.75128 -3.030086,4.342806 -0.300109,0.625378 -0.553746,1.308842 -0.596339,2.005859 -0.04649,0.753164 0.199424,1.531502 0.453062,2.23046 0.563421,1.55086 1.556669,2.88487 2.220776,4.385396 0.753163,1.69994 0.867395,3.47153 0.474358,5.28378 -0.04453,0.20716 -0.340763,0.18393 -0.396916,0 -0.683464,-2.22078 -1.324328,-4.50351 -2.443428,-6.551956 0.08518,1.299156 0.187802,2.596376 0.288487,3.895536 0.323338,4.15113 0.549868,8.40488 -0.267191,12.48049 0.482101,-0.26719 0.958398,-0.54794 1.419202,-0.85579 1.498591,-1.00098 2.867458,-2.16268 4.017537,-3.5451 2.001988,-0.38529 3.984612,-0.85579 5.936264,-1.4134 5.022399,-1.43469 9.922821,-3.48121 13.560861,-7.35934 3.2663,-3.481216 5.34768,-7.909205 6.52292,-12.499845 1.41727,-5.535478 1.40952,-11.334276 0.98938,-16.995609 z"
     id="path21" /><path
     style="opacity:0.59;fill:#bcbec0;stroke-width:1.93616"
     d="m 51.348413,112.43587 c -1.018423,-3.7852 -1.394035,-7.92277 -0.389168,-11.75443 -0.735744,0.90806 -1.285612,1.9381 -1.643799,3.06882 -0.435637,1.37854 -0.619575,2.82098 -0.799635,4.24987 -0.01743,0.14134 -0.166506,0.27493 -0.309784,0.17813 -0.727995,-0.48985 -1.517948,-1.05328 -1.959395,-1.83355 -0.561489,-0.99131 -0.133596,-1.97488 0.396915,-2.87133 0.679593,-1.15007 1.33401,-2.25562 1.688326,-3.527666 -1.378542,1.409516 -2.733855,2.863566 -4.373784,3.969116 -0.181999,0.12392 -0.36787,-0.11036 -0.280738,-0.28074 0.869334,-1.71738 2.154941,-3.18886 3.20047,-4.795866 1.024226,-1.57603 1.934221,-3.394092 1.649605,-5.316698 -0.462737,0.091 -0.923548,0.181999 -1.384353,0.280745 -3.427001,0.729934 -7.053426,1.920674 -10.586922,1.262378 -3.98268,-0.741549 -7.07279,-3.899427 -9.440715,-6.985666 -2.609942,-3.399894 -4.50738,-7.310938 -5.769752,-11.398171 -0.714442,-2.313712 -1.219785,-4.68938 -1.548926,-7.090217 -0.11811,1.293354 -0.226531,2.586709 -0.321405,3.876191 -0.422083,5.661332 -0.427894,11.46013 0.987444,16.993676 1.175246,4.590633 3.256616,9.018632 6.522922,12.499848 3.638039,3.87812 8.538463,5.92271 13.560861,7.35933 1.951646,0.55762 3.932338,1.02811 5.936265,1.4134 1.152011,1.38242 2.520878,2.54412 4.017529,3.54511 0.73187,0.48791 1.496653,0.92161 2.282733,1.31078 -0.569231,-1.35338 -1.055206,-2.74354 -1.434694,-4.15306 z"
     id="path22" /><path
     style="fill:#3c3d3f;stroke-width:1.93616"
     d="m 50.351293,94.203057 c -0.673789,-1.142336 -1.345631,-2.286604 -2.021352,-3.42894 -0.664107,-1.122972 -1.448249,-2.164623 -2.195608,-3.231448 -0.178128,-0.255577 -6.131817,-5.963373 -9.345841,-8.234489 -2.687391,-1.897436 -5.599373,-3.469598 -8.683673,-4.621613 -1.574101,-0.586656 -3.605135,-1.459864 -4.687447,0.398849 -0.458872,0.789953 -0.720253,1.725118 -1.018422,2.584773 -0.315588,0.909995 -0.609886,1.825799 -0.886759,2.747411 -2.253687,7.492938 -3.148196,15.376984 -2.625435,23.18551 0.133596,1.98263 0.358195,3.96138 0.675721,5.92271 0.154892,0.95065 0.331088,1.89744 0.530511,2.83841 0.164574,0.78027 0.280745,1.65154 0.652486,2.36792 0.369808,0.71251 1.020354,1.17332 1.847096,1.092 0.937101,-0.0929 1.779329,-0.72607 2.56541,-1.19074 1.657354,-0.97776 3.289534,-1.99424 4.898485,-3.05139 6.445479,-4.22857 12.484361,-9.09027 18.017899,-14.455356 0.679592,-0.66024 1.351442,-1.328209 2.017481,-2.001998 0.203295,-0.203295 0.431765,-0.62925 0.259448,-0.921609 z"
     id="path23" /><path
     style="opacity:0.53;fill:#c2c4c6;stroke-width:1.93616"
     d="m 21.014597,109.72718 c 0.114239,-1.78514 0.33302,-3.56253 0.642804,-5.32444 -0.232335,0.75123 -0.458866,1.50247 -0.706693,2.24789 -0.05811,0.17231 -0.365937,0.21684 -0.396915,0 -0.193613,-1.37855 -0.26332,-2.77065 -0.234274,-4.16081 0.09681,-4.470586 1.101676,-8.857927 2.15688,-13.191058 -0.367869,0.766724 -0.735738,1.531501 -1.287546,2.187865 -0.118103,0.141339 -0.352383,0.02128 -0.350444,-0.145217 0.0021,-1.45018 0.125853,-2.898429 0.311723,-4.335056 0.40853,-3.155945 1.101676,-6.311884 2.26143,-9.280017 0.493722,-1.264311 1.090061,-2.578964 1.860649,-3.761958 -0.720246,0.01936 -1.378542,0.30785 -1.8529,1.122973 -0.458872,0.789953 -0.720252,1.725118 -1.018422,2.584774 -0.315595,0.909994 -0.609893,1.825798 -0.886759,2.74741 -2.253694,7.492941 -3.148196,15.37698 -2.625434,23.185514 0.133595,1.98262 0.358187,3.96138 0.675721,5.92271 0.154892,0.95065 0.33108,1.89744 0.530504,2.83841 0.164574,0.78027 0.280744,1.65154 0.652485,2.36792 0.07939,0.15296 0.174256,0.29236 0.280745,0.42015 -0.139399,-1.80838 -0.129724,-3.62449 -0.01358,-5.42706 z"
     id="path24" /><path
     style="opacity:0.59;fill:#d8ad8c;stroke-width:1.93616"
     d="m 50.351293,94.203057 c -0.673789,-1.142336 -1.345631,-2.286604 -2.021352,-3.42894 -0.664107,-1.122972 -1.448249,-2.164623 -2.195608,-3.231448 -0.178128,-0.255577 -6.131817,-5.963373 -9.345841,-8.234489 -2.687391,-1.897436 -5.599373,-3.469598 -8.683673,-4.621613 -1.539251,-0.575039 -3.516072,-1.415333 -4.613869,0.290424 0.834485,-0.284615 1.721244,-0.412402 2.615752,-0.358189 1.616687,0.09874 3.165621,0.700889 4.559655,1.500523 3.221767,1.849032 5.858815,4.706805 8.029256,7.68268 1.014544,1.390164 1.941963,2.850026 2.726112,4.383467 0.807377,1.581844 1.63799,3.376665 1.442438,5.190844 -0.120042,1.109418 -0.578914,2.131712 -1.173314,3.064938 -0.666039,1.04747 -1.448249,2.06589 -2.271119,2.99524 -1.750282,1.978756 -3.589636,3.876186 -5.390268,5.808476 -2.352432,2.52282 -4.673886,5.1347 -6.59456,8.00602 0.880955,-0.546 1.7561,-1.10168 2.623502,-1.6709 6.445472,-4.22858 12.484354,-9.09027 18.017899,-14.455366 0.679593,-0.66023 1.351442,-1.328208 2.017481,-2.00199 0.201356,-0.201363 0.429826,-0.627318 0.257509,-0.919677 z"
     id="path25" /><path
     style="fill:#cb7c44;stroke-width:1.93616"
     d="m 80.520535,95.124666 c 0.666039,0.673789 1.337881,1.341758 2.017473,2.001998 5.533546,5.367026 11.572428,10.228726 18.017902,14.455356 1.60895,1.05521 3.24307,2.0717 4.89848,3.05139 0.78802,0.46467 1.63025,1.0978 2.56542,1.19074 0.82674,0.0813 1.47923,-0.37949 1.8471,-1.092 0.37174,-0.71638 0.48791,-1.58765 0.65248,-2.36792 0.19942,-0.94097 0.37755,-1.88776 0.53051,-2.83841 0.31753,-1.96327 0.54406,-3.94008 0.67572,-5.92271 0.52276,-7.808526 -0.36981,-15.690633 -2.62544,-23.18551 -0.27686,-0.921612 -0.57116,-1.837416 -0.88676,-2.747411 -0.29817,-0.857719 -0.55955,-1.79482 -1.01841,-2.584773 -1.08232,-1.858713 -3.11335,-0.985505 -4.68745,-0.398849 -3.0843,1.152015 -5.996289,2.722241 -8.683673,4.621613 -3.21403,2.271116 -9.16772,7.978912 -9.345847,8.234489 -0.747353,1.066825 -1.531502,2.108476 -2.195601,3.231448 -0.675721,1.142336 -1.347571,2.286604 -2.021353,3.42894 -0.170384,0.292359 0.05811,0.718314 0.259449,0.921609 z"
     id="path26" /><path
     style="opacity:0.53;fill:#c2c4c6;stroke-width:1.93616"
     d="m 109.10406,80.415663 c -0.27687,-0.921611 -0.57117,-1.837415 -0.88677,-2.74741 -0.29817,-0.857719 -0.55955,-1.79482 -1.01841,-2.584773 -1.08232,-1.858713 -3.11335,-0.985506 -4.68745,-0.398849 -1.76577,0.66023 -3.47347,1.4618 -5.115332,2.377604 0.09875,-0.02905 0.197492,-0.06583 0.29817,-0.08906 1.728992,-0.422083 3.591572,-0.232339 5.165672,0.607953 1.6709,0.89257 2.84422,2.456987 3.38247,4.257616 0.0562,0.189746 -0.2091,0.360124 -0.34463,0.199421 -0.25558,-0.303974 -0.54213,-0.5731 -0.83642,-0.834481 0.0426,0.06002 0.0871,0.120041 0.12778,0.181999 0.82287,1.229458 1.46955,2.578967 1.95746,3.974934 0.45887,1.314653 0.77834,2.693202 0.8461,4.087236 0.008,0.164574 -0.17812,0.245888 -0.30978,0.178128 -0.25171,-0.129725 -0.48017,-0.288488 -0.7009,-0.462744 0.77641,1.579905 1.36887,3.254684 1.81806,4.95657 0.47436,1.798693 0.80545,3.643847 0.9371,5.500627 0.0116,0.17426 -0.23814,0.27687 -0.35238,0.14521 -0.33689,-0.3911 -0.61957,-0.81512 -0.88289,-1.25269 0.27687,0.80544 0.5247,1.620556 0.73768,2.441496 0.91774,3.54123 1.35337,7.21994 1.38822,10.87928 0.1549,-0.76672 0.30011,-1.53731 0.42596,-2.30984 0.31753,-1.96327 0.54406,-3.94009 0.67572,-5.92272 0.52277,-7.808523 -0.37174,-15.690629 -2.62543,-23.185504 z"
     id="path27" /><path
     style="opacity:0.59;fill:#d8ad8c;stroke-width:1.93616"
     d="m 99.22384,106.27114 c -0.828684,-0.92548 -1.645743,-1.86453 -2.433756,-2.82486 -0.606021,-0.73768 -1.192679,-1.48697 -1.821928,-2.20335 -1.310782,-1.490836 -2.668027,-2.944896 -3.841342,-4.549976 -1.107486,-1.516006 -2.125901,-3.233385 -2.360175,-5.128884 -0.222659,-1.800625 0.497586,-3.527679 1.469545,-5.006906 1.126843,-1.71544 2.59832,-3.194667 4.124018,-4.555786 1.496652,-1.33595 3.084299,-2.561539 4.670015,-3.789064 1.591523,-1.231398 3.138513,-2.575093 4.913973,-3.5393 0.51308,-0.276871 1.0494,-0.520827 1.60508,-0.698953 -0.97389,-0.100681 -2.08718,0.354317 -3.03784,0.708634 -3.0843,1.152014 -5.99628,2.72224 -8.683671,4.621613 -3.214024,2.271115 -9.16772,7.978912 -9.345848,8.234489 -0.747353,1.066819 -1.531501,2.108477 -2.195601,3.231449 -0.675721,1.142336 -1.34757,2.286604 -2.021352,3.42894 -0.172317,0.292359 0.05615,0.718314 0.257509,0.921609 0.666039,0.673789 1.337888,1.341759 2.017481,2.001989 5.533545,5.367036 11.572427,10.228726 18.017902,14.455366 1.60895,1.0552 3.24307,2.07169 4.89848,3.05139 0.67185,0.39691 1.38435,0.91386 2.16075,1.11523 -2.60026,-3.32051 -5.58388,-6.33318 -8.39324,-9.47363 z"
     id="path28" /><g
     id="g30"
     transform="matrix(1.9361597,0,0,1.9361597,-232.20992,-585.22056)">
				<path
   style="fill:#3f4143"
   d="m 157.114,363.447 c -0.038,-0.018 -0.077,-0.032 -0.116,-0.048 -0.004,-0.002 -0.006,-0.005 -0.01,-0.007 -0.011,-0.004 -0.023,-0.008 -0.034,-0.012 -0.201,-0.079 -0.409,-0.135 -0.619,-0.165 -0.279,-0.052 -0.564,-0.081 -0.851,-0.108 -0.557,-0.054 -1.12,-0.072 -1.679,-0.069 -1.092,0.007 -2.209,0.084 -3.28,0.31 -0.208,0.044 -0.497,0.391 -0.218,0.545 1.051,0.582 2.159,0.945 3.371,0.951 1.187,0.006 2.345,-0.303 3.364,-0.912 0.146,-0.088 0.286,-0.387 0.072,-0.485 z"
   id="path29" />
				<path
   style="fill:#3f4143"
   d="m 155.197,363.692 c -0.023,-0.01 -0.046,-0.019 -0.069,-0.029 -0.002,-0.001 -0.003,-0.003 -0.006,-0.004 -0.007,-0.003 -0.014,-0.004 -0.02,-0.007 -0.119,-0.047 -0.242,-0.08 -0.366,-0.097 -0.165,-0.03 -0.333,-0.048 -0.503,-0.064 -0.329,-0.032 -0.662,-0.043 -0.993,-0.041 -0.646,0.004 -1.306,0.05 -1.939,0.183 -0.123,0.026 -0.294,0.231 -0.129,0.322 0.621,0.344 1.276,0.559 1.993,0.562 0.701,0.003 1.386,-0.179 1.989,-0.539 0.086,-0.051 0.169,-0.228 0.043,-0.286 z"
   id="path30" />
			</g><path
     style="fill:#c2c4c6;stroke-width:1.93616"
     d="m 74.427437,104.4008 c -0.19168,-0.52276 -0.882889,-0.0271 -1.014548,0.26719 -0.143276,0.32334 -0.272999,0.65443 -0.385296,0.98938 -0.38336,-1.29142 -1.06876,-2.58089 -2.472476,-2.91972 -0.303976,-0.0736 -0.698953,0.24782 -0.782208,0.51889 -0.02711,0.0891 -0.05421,0.17812 -0.08132,0.26719 -0.3427,-0.89257 -0.795761,-1.74835 -1.353375,-2.54218 -0.28268,-0.40272 -0.877081,0.12392 -0.999059,0.3911 -0.53438,1.16944 -0.830612,2.46473 -0.979696,3.7639 -0.495658,-0.78995 -1.076505,-1.5257 -1.738672,-2.18206 -0.375615,-0.37174 -0.774464,-0.71638 -1.196547,-1.0339 -0.416274,-0.31173 -0.859654,-0.66798 -1.38629,-0.76479 -1.370801,-0.24976 -1.69414,1.36887 -1.897436,2.35243 -0.03098,0.14715 -0.0484,0.29624 -0.07357,0.44339 -0.4337,-1.20623 -1.012611,-2.35631 -1.71931,-3.37666 -0.147147,-0.21105 -0.48404,0.06 -0.540188,0.21103 -0.118106,0.3156 -0.218786,0.63313 -0.311722,0.95453 -0.162637,-0.11036 -0.325275,-0.18974 -0.487912,-0.22846 -0.313658,-0.25751 -0.63506,-0.50728 -0.966144,-0.76285 -0.261381,-0.20136 -0.58472,-0.0387 -0.757038,0.2033 -1.47729,2.07943 -2.307903,4.57127 -2.511199,7.10764 -0.197489,2.44924 0.121977,5.1831 1.320461,7.36515 0.300105,0.54406 0.983569,-0.0755 0.97776,-0.50147 -0.0077,-0.55954 0.03291,-1.1249 0.100681,-1.68639 0.156829,0.6641 0.391104,1.31465 0.720251,1.94584 0.197488,0.37949 0.710571,0.004 0.757038,-0.29236 0.03485,-0.23041 0.06583,-0.46274 0.10068,-0.69315 0.03872,0.11811 0.07164,0.23816 0.118106,0.35432 0.265254,0.68153 0.720252,1.76384 1.548928,1.90905 0.888698,0.1549 1.1191,-0.7822 1.243015,-1.44437 0.05808,-0.31559 0.112297,-0.63119 0.168446,-0.94678 0.118106,0.31172 0.265253,0.61182 0.460806,0.88288 0.733804,1.02423 1.90518,1.08425 3.0146,0.66023 0.755103,-0.28849 1.45212,-0.72412 2.085244,-1.25462 -0.06196,0.19168 -0.127786,0.38142 -0.187807,0.5731 -0.137467,0.43369 0.2517,0.67185 0.619571,0.44144 0.813187,-0.50727 1.564417,-1.12103 2.232392,-1.81612 -0.180063,0.55568 -0.360126,1.11136 -0.547933,1.6651 -0.06002,0.17812 -0.06002,0.44726 0.152956,0.53051 1.421142,0.55181 2.820985,-0.37949 3.703874,-1.45212 0.799634,-0.97389 1.359184,-2.14526 1.69414,-3.36117 0.01549,0.10843 0.03292,0.21685 0.05421,0.32334 0.07357,0.63893 0.149084,1.27593 0.222658,1.91486 0.07938,0.68346 1.041654,0.29623 1.173313,-0.16264 0.782209,-2.74741 0.913866,-5.89174 -0.07938,-8.61398 z m -13.665415,1.97295 c -0.0213,-0.0562 -0.0484,-0.11036 -0.07164,-0.1665 -0.02711,-0.14328 -0.0639,-0.28462 -0.09487,-0.42596 0.0077,-0.0794 0.01355,-0.15683 0.02323,-0.23621 0.0058,0.0193 0.0058,0.0368 0.01161,0.0562 0.04066,0.14715 0.118105,0.23814 0.212978,0.28849 0,0.0658 0.0038,0.12972 0.0058,0.19361 -0.02905,0.0968 -0.05808,0.19362 -0.08713,0.29043 z"
     id="path31" /><path
     style="opacity:0.53;fill:#c4c3b7;stroke-width:1.93616"
     d="M 88.394891,36.90241 C 86.797562,33.998171 83.587409,32.685455 80.588295,31.717375 76.748893,30.478232 72.799127,29.593408 68.797084,29.08807 62.080547,28.240032 54.916755,28.259393 48.513872,30.710572 c -1.07069,0.410466 -2.096855,0.898378 -3.080428,1.450183 -3.922655,1.763842 -7.392256,4.398955 -10.157089,7.785298 -1.074569,1.314653 -2.01942,2.72805 -2.82873,4.220829 -0.273002,0.505337 0.232335,0.844165 0.640864,0.449189 1.219786,-1.186866 2.511203,-2.276924 3.864577,-3.285664 -3.50445,4.203403 -5.986607,9.190951 -7.08054,14.588964 -0.100678,0.497593 0.559551,0.362062 0.735746,0.09681 0.412401,-0.619571 0.826741,-1.239142 1.241075,-1.858713 -0.970012,2.795814 -1.378542,5.775564 -1.07263,8.743697 0.05034,0.493721 0.716382,0.187808 0.820931,-0.114233 0.0042,-0.0097 0.0078,-0.01936 0.0097,-0.02904 -0.0056,1.392099 0.199424,2.791943 0.631189,4.154999 0.102618,0.321403 0.582779,0.09294 0.689268,-0.09487 0.336898,-0.602146 0.623446,-1.221717 0.86353,-1.856778 0.493722,5.299269 3.669025,9.940244 7.322556,13.769968 1.243014,1.301099 2.544114,2.544114 3.845213,3.785191 0.334959,0.319466 0.92742,-0.234281 0.760913,-0.613762 -0.716381,-1.647671 -1.363056,-3.324385 -1.934227,-5.024334 0.422083,0.656358 0.869334,1.297227 1.353374,1.916799 0.282684,0.362061 0.919676,-0.203298 0.846105,-0.553742 -1.30691,-6.127945 -2.340818,-12.732187 -0.478229,-18.80592 0.147142,1.670906 0.513079,3.328259 1.11329,4.910102 0.162635,0.427891 0.77446,-0.01549 0.805445,-0.311722 0.329141,-3.144323 0.900313,-6.25186 1.752222,-9.289694 0.08712,1.624438 0.313655,3.237259 0.685403,4.828782 0.14327,0.615699 0.848035,0.137467 0.948715,-0.247828 1.41146,-5.427057 3.086239,-11.036111 6.404817,-15.636426 -0.573104,1.457928 -1.066825,2.948771 -1.463737,4.472529 -0.123915,0.476295 0.501465,0.412402 0.720251,0.211041 2.37954,-2.176244 4.697123,-4.422189 7.005026,-6.675879 -1.436631,2.038776 -2.97975,4.002043 -4.637103,5.868501 -0.274935,0.309785 -0.286551,0.822868 0.228467,0.811251 4.154999,-0.08713 7.694298,-2.377605 10.662431,-5.217951 -0.307849,1.142334 -0.600209,2.294349 -0.985504,3.411513 -0.176192,0.511147 0.427891,0.735741 0.749293,0.356254 1.053271,-1.244951 2.038776,-2.557668 3.018473,-3.870383 -0.218786,1.304971 -0.439509,2.609943 -0.658294,3.914914 -0.114234,0.683465 0.76091,0.505338 1.010675,0.131659 0.828676,-1.235269 1.554736,-2.536369 2.174311,-3.885872 0.09487,1.277865 0.121975,2.559603 0.06,3.843277 -0.03871,0.782208 0.915798,0.505338 1.126843,-0.0097 0.276866,-0.677655 0.513079,-1.370801 0.714442,-2.073627 0.02709,-0.02904 0.0523,-0.06196 0.07551,-0.10068 1.394034,-2.377604 1.41533,-5.339929 0.154891,-7.727213 2.373729,1.026164 4.46091,2.679645 5.986607,4.778442 0.323338,0.445317 0.96227,-0.259446 0.939034,-0.613763 -0.133595,-1.980692 -0.96033,-3.864575 -2.259497,-5.339929 1.885824,0.606018 3.771642,1.213972 5.66133,1.812246 0.437576,0.137467 1.167504,-0.38336 0.894509,-0.882889 z"
     id="path32" /><path
     style="opacity:0.53;fill:#c2c4c6;stroke-width:1.93616"
     d="m 99.54717,53.17196 c -0.0891,-0.416274 -0.18781,-0.834484 -0.29623,-1.248822 0.031,-0.05421 0.0523,-0.110362 0.0542,-0.16651 0.24589,-4.853953 -3.068814,-9.504608 -7.334177,-11.593724 -0.505337,-0.247829 -1.07844,0.433699 -0.915806,0.906122 2.482164,7.223812 4.884932,14.463113 7.00503,21.801158 0.143278,0.497594 0.832545,0.09681 0.999058,-0.137467 0.935165,-1.320461 1.045525,-2.941027 1.033905,-4.509316 -0.0136,-1.698012 -0.19361,-3.390216 -0.54599,-5.051441 z"
     id="path33" /></svg>
