<svg width="129" height="129" xmlns="http://www.w3.org/2000/svg" fill="none" viewBox="0 0 129 129"><path fill="#232323" d="M33.469 46.801c0 17.397 14.327 31.5 32 31.499 17.673 0 32-14.104 32-31.501s-14.327-31.5-32-31.5c-17.673.002-32 14.105-32 31.502"/><path fill="#000" fill-rule="evenodd" d="M65.969 12.3c19.054 0 34.5 15.221 34.5 33.999 0 18.777-15.446 34-34.5 34.001s-34.5-15.221-34.5-33.999 15.446-34 34.5-34.001m29.233 33.999c0-15.911-13.088-28.81-29.233-28.809s-29.234 12.9-29.234 28.811S49.824 75.111 65.97 75.11s29.233-12.9 29.233-28.811" clip-rule="evenodd"/><path fill="#333" d="M63.972 112.299c22.92 0 41.499-18.58 41.498-41.5S86.889 29.3 63.969 29.3s-41.5 18.58-41.499 41.5 18.582 41.5 41.502 41.5"/><mask id="a" width="84" height="84" x="22" y="29" maskUnits="userSpaceOnUse" style="mask-type:alpha"><path fill="#3ca3cf" d="M63.972 112.299c22.92 0 41.499-18.58 41.498-41.5S86.889 29.3 63.969 29.3s-41.5 18.58-41.499 41.5 18.582 41.5 41.502 41.5"/></mask><g mask="url(#a)"><path fill="#848484" d="M22.469 112.299h83v-83h-83z"/><mask id="b" width="84" height="84" x="22" y="29" maskUnits="userSpaceOnUse" style="mask-type:alpha"><path fill="#848484" d="M22.469 112.299h83v-83h-83z"/></mask><g mask="url(#b)"><path fill="#232323" d="M63.002 87.909c1.164-.37 2.417-.455 3.533-.948 1.117-.494 2.111-1.591 1.907-2.786-.262-1.516-2.254-2.307-2.454-3.832-.233-1.77 2.113-3.233 1.651-4.957-.237-.866-1.166-1.413-2.063-1.468s-1.788.284-2.605.677-1.612.855-2.493 1.069c-2.117.516-4.282-.447-6.26-1.352-1.98-.906-4.203-1.795-6.28-1.138-1.466.465-2.683 1.664-4.225 1.756-1.048.063-2.051-.408-2.945-.96-.893-.554-1.754-1.182-2.755-1.496s-2.214-.239-2.949.504c-.774.781-.765 2.123-.136 3.02.63.898 1.752 1.377 2.856 1.428.873.047 1.758-.139 2.617.018.858.157 1.735.816 1.682 1.687-.025.385-.231.74-.267 1.124-.09.995.985 1.74 1.988 1.86 1.37.165 2.716-.386 3.987-.918s2.623-1.073 3.99-.883c1.37.19 2.684 1.407 2.455 2.751-.132.749-.696 1.348-1.288 1.836-.592.487-1.249.916-1.694 1.535-.446.62-.62 1.508-.188 2.132.64.905 2.063.693 3.054.175.6-.314 1.335-.708 1.905-.343.458.294.528.943.386 1.463s-.467 1-.586 1.523a2.4 2.4 0 0 0 .167 1.493 2.44 2.44 0 0 0 1.023 1.11c1.96 1.048 3.546-.745 3.527-2.584-.018-1.84.504-2.874 2.46-3.496m-9-36.219c1.164.369 2.417.454 3.533.948s2.111 1.59 1.907 2.786c-.262 1.515-2.254 2.307-2.454 3.832-.233 1.77 2.113 3.233 1.651 4.956-.237.867-1.166 1.413-2.064 1.468-.897.056-1.787-.283-2.604-.677-.817-.393-1.612-.854-2.493-1.068-2.117-.516-4.282.446-6.26 1.352-1.98.905-4.203 1.795-6.28 1.138-1.466-.465-2.683-1.664-4.225-1.756-1.048-.063-2.051.408-2.945.96-.893.553-1.754 1.181-2.755 1.495s-2.214.24-2.949-.503c-.774-.781-.765-2.123-.136-3.02.63-.898 1.752-1.377 2.856-1.428.873-.047 1.758.138 2.617-.019.858-.157 1.735-.816 1.682-1.686-.025-.386-.231-.74-.267-1.124-.09-.995.985-1.74 1.988-1.86 1.37-.165 2.716.385 3.987.918 1.271.532 2.623 1.072 3.99.883 1.37-.19 2.684-1.407 2.455-2.752-.132-.748-.696-1.348-1.288-1.835-.592-.488-1.249-.916-1.694-1.536-.446-.62-.62-1.507-.188-2.131.64-.906 2.063-.694 3.054-.175.6.314 1.335.707 1.905.342.458-.294.528-.942.386-1.462s-.467-1-.586-1.524a2.4 2.4 0 0 1 .167-1.492 2.44 2.44 0 0 1 1.023-1.11c1.96-1.048 3.546.744 3.527 2.584s.504 2.874 2.46 3.496m20.933 33.219c-1.163-.37-2.416-.455-3.533-.948-1.116-.494-2.11-1.591-1.906-2.786.262-1.516 2.253-2.307 2.453-3.832.234-1.77-2.113-3.233-1.65-4.957.237-.866 1.165-1.413 2.063-1.468s1.787.284 2.604.677 1.612.855 2.493 1.069c2.118.516 4.282-.447 6.261-1.352 1.98-.906 4.202-1.795 6.28-1.138 1.465.465 2.683 1.664 4.225 1.756 1.048.063 2.05-.408 2.944-.96.894-.554 1.755-1.182 2.755-1.496s2.215-.239 2.949.504c.774.781.766 2.123.137 3.02-.63.898-1.753 1.377-2.857 1.428-.873.047-1.758-.139-2.616.018s-1.736.816-1.682 1.687c.025.385.23.74.266 1.124.09.995-.984 1.74-1.987 1.86-1.37.165-2.716-.386-3.987-.918-1.272-.532-2.623-1.073-3.991-.883-1.369.19-2.683 1.407-2.454 2.751.132.749.695 1.348 1.288 1.836.592.487 1.248.916 1.694 1.535.446.62.619 1.508.188 2.132-.64.905-2.064.693-3.055.175-.6-.314-1.335-.708-1.904-.343-.459.294-.529.943-.386 1.463.142.52.466 1 .586 1.523a2.4 2.4 0 0 1-.168 1.493 2.44 2.44 0 0 1-1.023 1.11c-1.96 1.048-3.545-.745-3.527-2.584.019-1.84-.503-2.874-2.46-3.496m0-34.219c-1.163.369-2.416.454-3.533.948s-2.11 1.59-1.906 2.786c.262 1.515 2.253 2.307 2.453 3.832.234 1.77-2.113 3.233-1.65 4.956.237.867 1.165 1.413 2.063 1.468.898.056 1.787-.283 2.604-.677.818-.393 1.612-.854 2.493-1.068 2.118-.516 4.282.446 6.261 1.352 1.98.905 4.202 1.795 6.28 1.138 1.465-.465 2.683-1.664 4.225-1.756 1.048-.063 2.05.408 2.944.96.894.553 1.755 1.181 2.755 1.495s2.215.24 2.949-.503c.774-.781.766-2.123.137-3.02-.63-.898-1.753-1.377-2.857-1.428-.873-.047-1.758.138-2.616-.019s-1.736-.816-1.682-1.686c.025-.386.23-.74.266-1.124.09-.995-.984-1.74-1.987-1.86-1.37-.165-2.716.385-3.987.918-1.272.532-2.623 1.072-3.991.883-1.369-.19-2.683-1.407-2.454-2.752.132-.748.695-1.348 1.288-1.835.592-.488 1.248-.916 1.694-1.536s.619-1.507.188-2.131c-.64-.906-2.064-.694-3.055-.175-.6.314-1.335.707-1.904.342-.459-.294-.529-.942-.386-1.462.142-.52.466-1 .586-1.524a2.4 2.4 0 0 0-.168-1.492 2.44 2.44 0 0 0-1.023-1.11c-1.96-1.048-3.545.744-3.527 2.584.019 1.84-.503 2.874-2.46 3.496"/><path fill="#bbb" d="M43.595 32.958c-1.22.098-2.448-.142-3.673-.081s-2.542.521-3.144 1.606a2.48 2.48 0 0 0 .125 2.598c.26.377.618.672 1.036.851.417.18.876.236 1.324.162.836-.137 1.547-.711 2.371-.905 1.328-.313 2.66.392 3.858 1.056 1.199.663 2.563 1.329 3.87.938 1.234-.367 2.046-1.57 3.228-2.065 1.79-.749 3.757.305 5.633.793 1.05.273 2.185.363 3.207 0s1.903-1.27 2.026-2.366c.124-1.095-.69-2.276-1.773-2.333-.759-.04-1.44.418-2.101.8-.758.43-1.59.774-2.467.774-.875 0-1.773-.403-2.199-1.17-.353-.637-.44-1.55-1.116-1.803-.446-.167-.937.06-1.328.334-.39.273-.77.607-1.233.684-.462.077-1.04-.263-.988-.743.049-.21.14-.408.269-.58a2.155 2.155 0 0 0-.402-2.66 2.075 2.075 0 0 0-2.649-.133c-1.027.763-.511 1.744-.94 2.693-.461 1.024-1.939 1.458-2.934 1.55"/><path fill="#dfdfdf" d="M56.651 98.263c.05.82.35 1.606.864 2.255a4.16 4.16 0 0 0 2.011 1.382l.602.188c.5.155 1.055.311 1.537.13.855-.314 1.026-1.535.523-2.276-.502-.741-1.418-1.114-2.3-1.352-.883-.238-1.814-.414-2.557-.927s-1.237-1.531-.826-2.33 1.449-1 2.322-1.211c.875-.211 1.9-.718 1.93-1.61.019-.716-.684-1.292-1.406-1.412s-1.45.095-2.155.29-1.453.375-2.158.188c-.943-.25-1.596-1.103-1.999-1.976-.403-.874-.633-1.826-1.146-2.645-.513-.82-1.398-1.517-2.37-1.426-.845.078-1.546.724-2.386.84-.878.122-1.746-.364-2.339-1.01s-.98-1.449-1.437-2.19c-.573-.931-1.29-1.81-2.249-2.357-.958-.546-2.193-.714-3.183-.226-.99.489-1.607 1.72-1.195 2.73.313.766 1.079 1.242 1.676 1.817.598.576 1.056 1.526.568 2.205-.521.736-1.64.567-2.554.56a3.2 3.2 0 0 0-1.978.574c-.551.424-.887 1.157-.701 1.821.169.6.703 1.025 1.227 1.379.523.353 1.076.7 1.37 1.241a1.21 1.21 0 0 1-.162 1.377q-.166.187-.394.298c-.55.263-1.095.828-1.545 1.21-.487.414-.844 1.02-.76 1.642.12.917 1.15 1.5 2.092 1.488s1.816-.462 2.658-.878 1.748-.828 2.687-.745c2.018.168 3.166 2.368 4.98 3.245a4.19 4.19 0 0 0 4.517-.654c.794-.722 1.254-1.724 1.934-2.55s1.765-1.508 2.805-1.2c.883.263 1.425 1.188 1.5 2.088zm20-16c.05.82.35 1.606.864 2.255a4.16 4.16 0 0 0 2.011 1.382l.602.188c.5.155 1.055.31 1.537.13.855-.314 1.026-1.535.523-2.276-.502-.741-1.418-1.114-2.3-1.352-.883-.238-1.814-.414-2.557-.927s-1.237-1.531-.826-2.33 1.449-1 2.323-1.211 1.9-.718 1.929-1.61c.019-.716-.684-1.292-1.406-1.412s-1.45.095-2.155.29-1.453.375-2.158.188c-.943-.25-1.596-1.103-1.999-1.976-.403-.874-.633-1.826-1.146-2.645-.513-.82-1.397-1.517-2.37-1.426-.845.078-1.546.724-2.386.84-.878.122-1.746-.364-2.339-1.01s-.98-1.449-1.437-2.19c-.573-.931-1.29-1.81-2.249-2.357-.958-.546-2.193-.714-3.183-.226-.99.489-1.607 1.72-1.195 2.73.313.766 1.079 1.242 1.676 1.817.598.576 1.056 1.526.568 2.205-.521.736-1.64.567-2.554.56a3.2 3.2 0 0 0-1.978.574c-.551.424-.887 1.157-.701 1.821.169.6.703 1.025 1.227 1.379.523.353 1.076.7 1.37 1.241a1.21 1.21 0 0 1-.162 1.377q-.166.187-.394.298c-.55.263-1.095.828-1.545 1.21-.487.414-.844 1.02-.76 1.642.12.917 1.15 1.5 2.092 1.488s1.816-.462 2.658-.878 1.748-.828 2.687-.745c2.018.168 3.167 2.368 4.98 3.245.735.34 1.556.46 2.36.343a4.15 4.15 0 0 0 2.157-.997c.794-.722 1.254-1.724 1.934-2.55s1.765-1.508 2.805-1.2c.883.263 1.425 1.188 1.5 2.088zm-13-37.928c.05-.82.35-1.605.864-2.254a4.16 4.16 0 0 1 2.011-1.382l.602-.188c.5-.156 1.055-.31 1.537-.13.855.314 1.026 1.535.523 2.276-.502.74-1.418 1.113-2.3 1.351-.883.238-1.814.414-2.557.927s-1.237 1.532-.826 2.331 1.449 1 2.322 1.21c.874.212 1.9.719 1.93 1.61.019.717-.684 1.292-1.406 1.412s-1.45-.095-2.155-.29-1.453-.374-2.158-.188c-.943.25-1.596 1.103-1.999 1.977-.403.873-.633 1.825-1.146 2.645s-1.398 1.517-2.37 1.426c-.845-.079-1.546-.724-2.386-.84-.878-.123-1.746.364-2.339 1.01-.593.645-.98 1.448-1.437 2.19-.573.93-1.29 1.81-2.249 2.357-.958.546-2.193.714-3.183.225-.99-.488-1.607-1.72-1.195-2.73.313-.765 1.079-1.241 1.676-1.817.598-.575 1.056-1.525.568-2.204-.521-.737-1.64-.567-2.554-.56a3.2 3.2 0 0 1-1.978-.574c-.551-.424-.887-1.157-.701-1.822.169-.6.703-1.024 1.227-1.378.523-.354 1.076-.7 1.37-1.242a1.21 1.21 0 0 0-.162-1.376 1.3 1.3 0 0 0-.394-.298c-.55-.263-1.095-.828-1.545-1.21-.487-.415-.844-1.021-.76-1.642.12-.917 1.15-1.5 2.092-1.488s1.816.461 2.658.877 1.748.828 2.687.745c2.018-.167 3.166-2.367 4.98-3.245a4.2 4.2 0 0 1 2.36-.343 4.15 4.15 0 0 1 2.157.997c.794.723 1.254 1.724 1.934 2.55s1.765 1.509 2.805 1.2c.883-.262 1.425-1.187 1.5-2.088z"/><path fill="#dfdfdf" d="M53.858 65.684c.03-.484.217-.948.536-1.332a2.6 2.6 0 0 1 1.248-.817l.374-.11c.31-.093.655-.184.954-.078.53.186.636.907.325 1.345-.312.438-.88.658-1.429.799-.547.14-1.125.245-1.586.548s-.768.905-.513 1.377c.256.472.9.59 1.442.715s1.179.425 1.197.952c.012.423-.424.763-.872.834s-.9-.056-1.338-.171-.902-.222-1.34-.111c-.585.147-.99.651-1.24 1.167s-.393 1.08-.712 1.563c-.318.485-.867.897-1.47.843-.525-.046-.96-.428-1.481-.496-.546-.073-1.084.215-1.452.596-.368.382-.608.856-.893 1.294-.355.55-.8 1.07-1.395 1.393s-1.361.422-1.976.133c-.614-.288-.997-1.016-.741-1.613.194-.452.67-.733 1.04-1.073s.655-.902.352-1.303c-.323-.435-1.018-.335-1.585-.331-.438.018-.87-.1-1.228-.34-.342-.25-.55-.683-.435-1.075.105-.355.437-.606.761-.815.325-.209.669-.413.85-.734a.69.69 0 0 0-.1-.813.8.8 0 0 0-.244-.176c-.342-.155-.68-.49-.959-.715-.303-.245-.524-.603-.471-.97.074-.542.714-.887 1.298-.88s1.127.273 1.65.519 1.084.49 1.668.44c1.252-.099 1.965-1.399 3.09-1.917a2.7 2.7 0 0 1 1.465-.203 2.64 2.64 0 0 1 1.34.59c.492.426.778 1.018 1.2 1.506s1.095.891 1.74.71c.549-.156.885-.703.931-1.235zm23 33c.03-.484.217-.948.536-1.332a2.6 2.6 0 0 1 1.248-.817l.374-.11c.31-.093.655-.184.954-.078.53.186.636.907.325 1.345-.312.438-.88.658-1.429.799-.547.14-1.125.245-1.586.548s-.768.905-.513 1.377c.256.472.9.591 1.442.715.542.125 1.179.425 1.197.952.012.423-.424.763-.872.834-.449.071-.9-.056-1.338-.171s-.902-.222-1.34-.112c-.585.148-.99.652-1.24 1.168-.25.517-.393 1.079-.712 1.563-.318.485-.867.897-1.47.843-.525-.046-.96-.428-1.481-.497-.546-.072-1.084.216-1.452.597-.369.382-.608.856-.893 1.294-.355.551-.8 1.07-1.395 1.393s-1.361.422-1.976.134c-.614-.289-.997-1.017-.741-1.614.194-.452.67-.733 1.04-1.073s.655-.902.352-1.303c-.323-.435-1.018-.335-1.585-.331a2.06 2.06 0 0 1-1.228-.339c-.342-.251-.55-.684-.435-1.076.105-.355.437-.606.761-.815.325-.209.669-.413.85-.734a.68.68 0 0 0-.1-.813.8.8 0 0 0-.244-.176c-.342-.155-.68-.489-.959-.715-.303-.245-.524-.603-.471-.97.074-.542.714-.887 1.298-.88s1.127.273 1.65.519 1.084.49 1.668.44c1.252-.099 1.965-1.399 3.09-1.917a2.7 2.7 0 0 1 1.465-.203 2.64 2.64 0 0 1 1.34.59c.492.426.778 1.018 1.2 1.506s1.095.891 1.74.71c.549-.156.885-.703.931-1.235z"/><path fill="#232323" d="M72.651 22.335c.05-.82.35-1.605.864-2.254a4.16 4.16 0 0 1 2.011-1.382l.602-.188c.5-.156 1.055-.31 1.537-.13.855.314 1.026 1.535.523 2.276-.502.74-1.418 1.113-2.3 1.351-.883.238-1.814.414-2.557.928-.743.513-1.237 1.531-.826 2.33s1.449 1 2.323 1.21c.873.212 1.9.719 1.929 1.61.019.717-.684 1.292-1.406 1.412s-1.45-.095-2.155-.29-1.453-.374-2.158-.188c-.943.25-1.596 1.104-1.999 1.977s-.633 1.825-1.146 2.645-1.397 1.517-2.37 1.426c-.845-.079-1.546-.724-2.386-.84-.878-.123-1.746.364-2.339 1.01-.593.645-.98 1.448-1.437 2.19-.573.93-1.29 1.81-2.249 2.357-.958.546-2.193.714-3.183.225-.99-.488-1.607-1.72-1.195-2.73.313-.765 1.079-1.241 1.676-1.817.598-.575 1.056-1.525.568-2.204-.521-.737-1.64-.567-2.554-.56a3.2 3.2 0 0 1-1.978-.574c-.551-.424-.887-1.157-.701-1.822.169-.6.703-1.024 1.227-1.378.523-.354 1.076-.7 1.37-1.242a1.21 1.21 0 0 0-.162-1.376 1.3 1.3 0 0 0-.394-.298c-.55-.263-1.095-.828-1.545-1.21-.487-.415-.844-1.021-.76-1.642.12-.917 1.15-1.5 2.092-1.488s1.816.461 2.658.877 1.748.828 2.687.745c2.018-.167 3.166-2.367 4.98-3.245a4.2 4.2 0 0 1 2.36-.343 4.15 4.15 0 0 1 2.157.997c.794.723 1.254 1.724 1.934 2.55s1.765 1.509 2.805 1.2c.883-.262 1.425-1.187 1.5-2.088z"/><path fill="#dfdfdf" d="M79.286 98.263a4.03 4.03 0 0 1-.863 2.255 4.16 4.16 0 0 1-2.012 1.382l-.601.188c-.5.155-1.056.311-1.537.13-.855-.314-1.026-1.535-.524-2.276.503-.741 1.419-1.114 2.301-1.352s1.814-.414 2.557-.927 1.237-1.531.825-2.33-1.448-1-2.322-1.211-1.9-.718-1.93-1.61c-.018-.716.684-1.292 1.406-1.412s1.45.095 2.156.29c.705.195 1.452.375 2.157.188.944-.25 1.596-1.103 2-1.976.402-.874.632-1.826 1.145-2.645.514-.82 1.398-1.517 2.371-1.426.844.078 1.545.724 2.385.84.879.122 1.746-.364 2.34-1.01s.979-1.449 1.437-2.19c.572-.931 1.29-1.81 2.248-2.357.959-.546 2.194-.714 3.183-.226.99.489 1.607 1.72 1.195 2.73-.312.766-1.078 1.242-1.676 1.817-.597.576-1.055 1.526-.568 2.205.522.736 1.64.567 2.555.56a3.2 3.2 0 0 1 1.978.574c.551.424.886 1.157.7 1.821-.168.6-.702 1.025-1.226 1.379-.524.353-1.077.7-1.37 1.241a1.21 1.21 0 0 0 .161 1.377q.167.187.394.298c.551.263 1.096.828 1.545 1.21.488.414.845 1.02.76 1.642-.12.917-1.15 1.5-2.092 1.488-.941-.013-1.815-.462-2.657-.878s-1.748-.828-2.688-.745c-2.018.168-3.166 2.368-4.98 3.245a4.19 4.19 0 0 1-4.517-.654c-.794-.722-1.254-1.724-1.934-2.55s-1.764-1.508-2.805-1.2c-.882.263-1.425 1.188-1.499 2.088zm-8-54.928a4.03 4.03 0 0 0-.863-2.254 4.16 4.16 0 0 0-2.012-1.382l-.601-.188c-.5-.156-1.056-.31-1.537-.13-.855.314-1.026 1.535-.524 2.276.503.74 1.419 1.113 2.301 1.351s1.814.414 2.557.927 1.237 1.532.825 2.331-1.448 1-2.322 1.21c-.874.212-1.9.719-1.93 1.61-.018.717.684 1.292 1.406 1.412s1.45-.095 2.156-.29c.705-.194 1.452-.374 2.157-.188.944.25 1.596 1.103 2 1.977.402.873.632 1.825 1.145 2.645.514.82 1.398 1.517 2.371 1.426.844-.079 1.545-.724 2.385-.84.879-.123 1.746.364 2.34 1.01.593.645.979 1.448 1.437 2.19.572.93 1.29 1.81 2.248 2.357.959.546 2.194.714 3.183.225.99-.488 1.607-1.72 1.195-2.73-.312-.765-1.078-1.241-1.676-1.817s-1.055-1.525-.568-2.204c.522-.737 1.64-.567 2.555-.56a3.2 3.2 0 0 0 1.978-.574c.55-.424.886-1.157.7-1.822-.168-.6-.702-1.024-1.226-1.378-.523-.354-1.077-.7-1.37-1.242a1.21 1.21 0 0 1 .161-1.376q.167-.188.394-.298c.551-.263 1.096-.828 1.545-1.21.488-.415.845-1.021.76-1.642-.12-.917-1.15-1.5-2.092-1.488-.941.012-1.815.461-2.657.877s-1.748.828-2.688.745c-2.018-.167-3.166-2.367-4.98-3.245a4.2 4.2 0 0 0-2.359-.343 4.15 4.15 0 0 0-2.158.997c-.794.723-1.254 1.724-1.934 2.55s-1.764 1.509-2.805 1.2c-.882-.262-1.425-1.187-1.499-2.088z"/><path fill="#232323" d="M52.282 108.091c.598-.122 1.209-.312 1.655-.727.446-.414.686-1.101.421-1.649-.368-.766-1.473-.913-1.922-1.631-.608-.958.274-2.168.276-3.303a2.12 2.12 0 0 0-1.155-1.884 2.15 2.15 0 0 0-2.214.15c-.736.522-1.08 1.466-1.793 2.012-.998.773-2.463.597-3.594.036s-2.071-1.442-3.158-2.076-2.478-1.005-3.61-.444c-.924.454-1.461 1.4-2.025 2.237-.565.838-1.35 1.69-2.369 1.75-1.263.078-2.566-1.073-3.66-.447-.725.418-.86 1.496-.392 2.185s1.364.994 2.197.94c.834-.055 1.615-.419 2.342-.823.254-.169.54-.286.842-.343a.72.72 0 0 1 .758.381c.147.381-.186.776-.222 1.183-.063.713.82 1.186 1.53 1.067.712-.119 1.29-.596 1.92-.925.531-.272 1.237-.456 1.799-.168.51.26.631.89 1.107 1.196.716.464 1.592.1 2.392.209 1.473.195 2.918.852 4.42 1.091a12.5 12.5 0 0 0 4.455-.017m6.395 10.022c.122.598.312 1.208.727 1.655.414.446 1.1.686 1.65.421.765-.369.912-1.474 1.63-1.922.959-.609 2.168.273 3.303.275a2.13 2.13 0 0 0 1.884-1.154 2.15 2.15 0 0 0-.15-2.214c-.522-.737-1.466-1.08-2.012-1.794-.773-.998-.597-2.463-.036-3.593.561-1.131 1.442-2.072 2.076-3.158s1.005-2.478.444-3.611c-.454-.924-1.4-1.461-2.237-2.025s-1.69-1.35-1.75-2.368c-.078-1.263 1.073-2.567.447-3.661-.418-.724-1.496-.86-2.185-.392s-.994 1.364-.94 2.198.419 1.615.823 2.341c.17.255.286.541.343.842a.72.72 0 0 1-.38.758c-.382.147-.777-.185-1.184-.221-.713-.063-1.186.819-1.067 1.53.12.712.596 1.289.925 1.92.272.531.456 1.236.168 1.798-.26.51-.89.632-1.196 1.108-.464.715-.1 1.591-.209 2.391-.195 1.474-.852 2.918-1.09 4.421a12.5 12.5 0 0 0 .016 4.455m-6.395-84.605c.598.121 1.209.312 1.655.726.446.415.686 1.101.421 1.65-.368.766-1.473.912-1.922 1.63-.608.96.274 2.169.276 3.303a2.12 2.12 0 0 1-1.155 1.885 2.15 2.15 0 0 1-2.214-.151c-.736-.521-1.08-1.465-1.793-2.012-.998-.772-2.463-.596-3.594-.035s-2.071 1.442-3.158 2.076-2.478 1.005-3.61.444c-.924-.454-1.461-1.4-2.025-2.238-.565-.837-1.35-1.69-2.369-1.75-1.263-.077-2.566 1.074-3.66.448-.725-.419-.86-1.497-.392-2.185.467-.689 1.364-.995 2.197-.94.834.054 1.615.419 2.342.822.254.17.54.287.842.344a.72.72 0 0 0 .758-.381c.147-.381-.186-.777-.222-1.183-.063-.714.82-1.187 1.53-1.067.712.119 1.29.596 1.92.925.531.272 1.237.456 1.799.167.51-.26.631-.89 1.107-1.195.716-.465 1.592-.1 2.392-.21 1.473-.194 2.918-.851 4.42-1.09a12.5 12.5 0 0 1 4.455.017m24.373 74.583c-.598-.122-1.208-.312-1.655-.727-.446-.414-.686-1.101-.42-1.649.368-.766 1.473-.913 1.921-1.631.609-.958-.273-2.168-.275-3.303a2.12 2.12 0 0 1 1.154-1.884 2.15 2.15 0 0 1 2.214.15c.737.522 1.08 1.466 1.794 2.012.998.773 2.463.597 3.593.036s2.072-1.442 3.158-2.076c1.087-.635 2.478-1.005 3.61-.444.925.454 1.462 1.4 2.026 2.237s1.35 1.69 2.368 1.75c1.263.078 2.567-1.073 3.661-.447.725.418.859 1.496.392 2.185s-1.364.994-2.198.94-1.615-.419-2.341-.823a2.3 2.3 0 0 0-.842-.343.72.72 0 0 0-.758.381c-.147.381.185.776.221 1.183.063.713-.819 1.186-1.53 1.067s-1.289-.596-1.92-.925c-.53-.272-1.236-.456-1.798-.168-.51.26-.632.89-1.108 1.196-.715.464-1.591.1-2.391.209-1.474.195-2.918.852-4.421 1.091a12.5 12.5 0 0 1-4.455-.017"/><path fill="#bbb" d="M66.655 38.09c-.598-.12-1.208-.311-1.655-.726-.446-.414-.686-1.1-.42-1.649.368-.766 1.473-.913 1.921-1.63.609-.96-.273-2.17-.275-3.304a2.12 2.12 0 0 1 1.154-1.884 2.15 2.15 0 0 1 2.214.15c.737.522 1.08 1.466 1.794 2.012.998.773 2.463.597 3.593.036s2.072-1.442 3.158-2.076c1.087-.635 2.478-1.005 3.61-.444.925.454 1.462 1.4 2.026 2.238.564.837 1.35 1.689 2.368 1.75 1.263.077 2.567-1.074 3.661-.449.725.42.86 1.497.392 2.186s-1.364.994-2.198.94-1.615-.419-2.341-.823a2.3 2.3 0 0 0-.842-.343.72.72 0 0 0-.758.38c-.147.382.185.777.221 1.184.063.713-.819 1.186-1.53 1.067-.712-.12-1.289-.596-1.92-.925-.53-.272-1.236-.456-1.798-.168-.51.26-.632.89-1.108 1.196-.715.464-1.591.1-2.391.209-1.474.195-2.918.852-4.421 1.09a12.5 12.5 0 0 1-4.455-.016"/><path fill="#232323" d="M83.655 36.508c-.598.121-1.208.312-1.655.726-.446.415-.686 1.101-.42 1.65.368.766 1.473.912 1.921 1.63.609.96-.273 2.169-.275 3.303a2.12 2.12 0 0 0 1.154 1.885 2.15 2.15 0 0 0 2.214-.151c.737-.521 1.08-1.465 1.794-2.012.998-.772 2.463-.596 3.593-.035s2.072 1.442 3.158 2.076c1.087.634 2.478 1.005 3.61.444.925-.454 1.462-1.4 2.026-2.238.564-.837 1.349-1.69 2.368-1.75 1.263-.077 2.567 1.074 3.661.448.725-.419.859-1.497.392-2.185-.467-.689-1.364-.995-2.198-.94-.834.054-1.615.419-2.341.822-.255.17-.541.287-.842.344a.72.72 0 0 1-.758-.381c-.147-.381.185-.777.221-1.183.063-.714-.819-1.187-1.53-1.067-.712.119-1.289.596-1.92.925-.53.272-1.236.456-1.798.167-.51-.26-.632-.89-1.108-1.195-.715-.465-1.591-.1-2.391-.21-1.474-.194-2.918-.851-4.421-1.09a12.5 12.5 0 0 0-4.455.017M65.258 64.573c-.578-.194-1.203-.334-1.796-.198-.594.135-1.145.61-1.19 1.218-.064.847.82 1.527.85 2.373.047 1.135-1.322 1.741-1.89 2.723a2.13 2.13 0 0 0 .919 2.975c.35.171.742.244 1.13.21.9-.083 1.669-.729 2.56-.845 1.25-.17 2.431.715 3.13 1.766.698 1.05 1.073 2.284 1.696 3.377.624 1.092 1.644 2.109 2.905 2.19 1.028.068 1.966-.483 2.873-.926s2.013-.788 2.926-.331c1.133.564 1.686 2.213 2.947 2.218.836 0 1.492-.866 1.431-1.697-.06-.83-.684-1.543-1.433-1.912-.75-.37-1.608-.445-2.439-.459a2.3 2.3 0 0 1-.9-.123.72.72 0 0 1-.467-.71c.063-.403.55-.579.783-.913.412-.586-.116-1.437-.791-1.69-.676-.252-1.414-.127-2.126-.158-.595-.03-1.298-.223-1.64-.754-.312-.48-.103-1.087-.362-1.59-.387-.76-1.328-.882-1.966-1.376-1.18-.906-2.101-2.197-3.284-3.155a12.5 12.5 0 0 0-3.866-2.213m-42.535 42.22q.515.192.97.506.2-.041.393-.109c1.7-.581 2.578-2.658 2.346-4.482-.173-1.356-1.169-4.194-2.714-4.39a4.6 4.6 0 0 0-1.25.057v8.329q.128.04.255.089m0-71.987q.515-.193.97-.507.2.042.393.11c1.7.58 2.578 2.657 2.346 4.482-.173 1.356-1.169 4.193-2.714 4.39a4.7 4.7 0 0 1-1.25-.057v-8.33q.128-.041.255-.088m82.492 71.987a4.4 4.4 0 0 0-.97.506 3 3 0 0 1-.394-.109c-1.7-.581-2.578-2.658-2.345-4.482.173-1.356 1.168-4.194 2.713-4.39a4.6 4.6 0 0 1 1.25.057v8.329a5 5 0 0 0-.254.089"/><path fill="#232323" d="M105.215 34.806a4.4 4.4 0 0 1-.97-.507 3 3 0 0 0-.394.11c-1.7.58-2.578 2.657-2.345 4.482.173 1.356 1.168 4.193 2.713 4.39.417.037.838.018 1.25-.057v-8.33a6 6 0 0 1-.254-.088"/><path fill="#dfdfdf" d="M23.202 83.295c.869.054 1.818-.364 2.084-1.11.265-.746-.183-1.57.076-2.313.39-1.12 2.081-1.398 2.794-2.38.612-.848.282-2.101-.614-2.708-.895-.606-2.198-.626-3.2-.16-.721.338-1.288.882-1.873 1.4v7.133q.357.111.733.138m0-25.991c.869-.055 1.818.364 2.084 1.11.265.746-.183 1.57.076 2.312.39 1.12 2.081 1.4 2.794 2.382.612.846.282 2.1-.614 2.706-.895.607-2.198.627-3.2.16-.721-.338-1.288-.882-1.873-1.399v-7.134a3.2 3.2 0 0 1 .733-.137m82.533 25.991c-.868.054-1.818-.364-2.083-1.11s.182-1.57-.077-2.313c-.389-1.12-2.081-1.398-2.794-2.38-.612-.848-.281-2.101.614-2.708.896-.606 2.198-.626 3.2-.16.722.338 1.289.882 1.874 1.4v7.133a3.2 3.2 0 0 1-.734.138m0-25.991c-.868-.055-1.818.364-2.083 1.11s.182 1.57-.077 2.312c-.389 1.12-2.081 1.4-2.794 2.382-.612.846-.281 2.1.614 2.706.896.607 2.198.627 3.2.16.722-.338 1.289-.882 1.874-1.399v-7.134a3.2 3.2 0 0 0-.734-.137"/><path fill="#bbb" d="M24.182 95.723c.475-1.061.506-2.27.914-3.36.557-1.486.44-2.673-.022-4.18a4 4 0 0 0-.593-1.337c-.301-.383-.79-.637-1.248-.516a2.04 2.04 0 0 0-.764.516v10.453c.746-.189 1.378-.834 1.713-1.576m0-50.848c.475 1.062.506 2.27.914 3.36.557 1.487.44 2.674-.022 4.18a4 4 0 0 1-.593 1.338c-.301.382-.79.637-1.248.516a2.04 2.04 0 0 1-.764-.516V43.299c.746.19 1.378.835 1.713 1.576m79.574 50.848c-.476-1.061-.506-2.27-.915-3.36-.557-1.486-.439-2.673.023-4.18a4 4 0 0 1 .593-1.337c.301-.383.79-.637 1.248-.516.288.11.549.286.764.516v10.453c-.746-.189-1.378-.834-1.713-1.576m0-50.848c-.476 1.062-.506 2.27-.915 3.36-.557 1.487-.439 2.674.023 4.18.114.481.316.935.593 1.338.301.382.79.637 1.248.516.288-.11.549-.286.764-.516V43.299c-.746.19-1.378.835-1.713 1.576"/><path fill="#232323" d="M42.413 111.746a.2.2 0 0 1 .017-.069c.15-.705-.133-1.535-.799-1.817-.448-.202-.966-.113-1.45-.033l-.374.061c-1.403.22-2.896.335-4.096-.37-.894-.523-1.488-1.413-2.289-2.076a5.1 5.1 0 0 0-2.911-1.137c-.748-.044-1.62.16-1.933.828-.41.869.41 1.818 1.228 2.305.961.558 2.04.887 3.153.961.41.026.82.022 1.186.188.367.165.666.563.555.945s-.526.549-.895.68l-.27.087h8.653q.15-.262.225-.553m0-81.893q0 .034.017.068c.15.705-.133 1.535-.799 1.818-.448.202-.966.113-1.45.032l-.374-.06c-1.403-.22-2.896-.335-4.096.37-.894.522-1.488 1.413-2.289 2.075a5.1 5.1 0 0 1-2.911 1.138c-.748.044-1.62-.16-1.933-.828-.41-.869.41-1.818 1.228-2.305a7.24 7.24 0 0 1 3.153-.961c.41-.026.82-.023 1.186-.188.367-.166.666-.564.555-.945-.11-.382-.526-.55-.895-.68l-.27-.088h8.653q.15.262.225.554m43.111 81.893a.2.2 0 0 0-.016-.069c-.15-.705.133-1.535.798-1.817.449-.202.967-.113 1.45-.033l.375.061c1.402.22 2.895.335 4.095-.37.895-.523 1.489-1.413 2.29-2.076a5.1 5.1 0 0 1 2.91-1.137c.748-.044 1.62.16 1.934.828.41.869-.41 1.818-1.229 2.305a7.24 7.24 0 0 1-3.153.961c-.41.026-.82.022-1.186.188-.366.165-.665.563-.555.945.111.382.527.549.895.68l.27.087H85.75q-.15-.262-.225-.553m-.001-81.893a.2.2 0 0 1-.016.068c-.15.705.133 1.535.798 1.818.449.202.967.113 1.45.032l.375-.06c1.402-.22 2.895-.335 4.095.37.895.522 1.489 1.413 2.29 2.075a5.1 5.1 0 0 0 2.91 1.138c.748.044 1.62-.16 1.934-.828.41-.869-.41-1.818-1.229-2.305a7.24 7.24 0 0 0-3.153-.961c-.41-.026-.82-.023-1.186-.188-.366-.166-.665-.564-.555-.945.111-.382.527-.55.895-.68l.27-.088H85.75q-.15.262-.225.554"/><path fill="#dfdfdf" d="M25.349 109.832c-.276-1.184-.897-2.211-1.752-2.896a4 4 0 0 0-.894-.544q-.114-.05-.234-.093v6h2.771c.262-.786.3-1.653.109-2.467m0-78.065c-.276 1.184-.897 2.211-1.752 2.896a3.9 3.9 0 0 1-1.128.636v-6h2.771c.262.786.3 1.653.109 2.468m77.24 78.065c.275-1.184.897-2.211 1.752-2.896q.418-.337.894-.544.114-.05.234-.093v6h-2.772a4.56 4.56 0 0 1-.108-2.467m0-78.065c.275 1.184.897 2.211 1.752 2.896a3.9 3.9 0 0 0 1.128.636v-6h-2.772a4.57 4.57 0 0 0-.108 2.468"/><path fill="#bbb" d="M45.342 84.64c1.221-.097 2.448.142 3.673.082s2.543-.522 3.145-1.606a2.48 2.48 0 0 0-.125-2.598 2.4 2.4 0 0 0-1.036-.852 2.4 2.4 0 0 0-1.324-.162c-.836.138-1.548.712-2.372.906-1.328.313-2.66-.392-3.858-1.056-1.198-.663-2.563-1.329-3.87-.939-1.233.367-2.045 1.571-3.227 2.066-1.79.749-3.757-.305-5.634-.793-1.05-.273-2.185-.363-3.206 0-1.022.363-1.904 1.27-2.027 2.366-.123 1.095.69 2.276 1.774 2.332.758.04 1.439-.417 2.1-.799.759-.43 1.591-.774 2.467-.774s1.774.403 2.2 1.17c.353.637.44 1.55 1.115 1.803.446.167.938-.06 1.328-.334.39-.273.77-.607 1.233-.684s1.04.263.989.743a1.6 1.6 0 0 1-.27.58 2.156 2.156 0 0 0 .402 2.66 2.075 2.075 0 0 0 2.649.133c1.028-.763.512-1.744.941-2.693.46-1.025 1.938-1.459 2.933-1.55m18 30c1.221-.098 2.448.141 3.673.081 1.225-.061 2.543-.522 3.145-1.606a2.48 2.48 0 0 0-.125-2.598 2.4 2.4 0 0 0-1.036-.852 2.4 2.4 0 0 0-1.324-.162c-.837.138-1.548.712-2.372.906-1.328.313-2.66-.392-3.858-1.056-1.198-.663-2.563-1.329-3.87-.939-1.233.367-2.045 1.571-3.227 2.066-1.79.749-3.757-.305-5.634-.793-1.05-.273-2.185-.363-3.206 0-1.022.363-1.904 1.27-2.027 2.366-.123 1.095.69 2.276 1.774 2.332.758.04 1.439-.417 2.1-.799.759-.43 1.591-.774 2.467-.774s1.774.403 2.2 1.17c.353.637.44 1.551 1.115 1.803.446.167.938-.061 1.328-.334s.77-.607 1.233-.684 1.04.263.989.743a1.6 1.6 0 0 1-.27.58 2.155 2.155 0 0 0 .402 2.66 2.08 2.08 0 0 0 2.649.133c1.028-.764.512-1.744.941-2.693.46-1.025 1.938-1.459 2.933-1.55m11-23.683c1.221.098 2.448-.142 3.673-.081s2.543.521 3.145 1.606a2.48 2.48 0 0 1-.125 2.598c-.26.377-.619.672-1.036.851-.418.18-.876.236-1.324.162-.837-.137-1.548-.711-2.372-.905-1.328-.313-2.66.392-3.858 1.056-1.198.663-2.563 1.328-3.87.938-1.233-.367-2.045-1.57-3.227-2.065-1.79-.749-3.757.305-5.634.793-1.05.273-2.185.363-3.206 0-1.022-.363-1.904-1.27-2.027-2.366-.123-1.095.69-2.276 1.774-2.332.758-.04 1.439.417 2.1.799.759.43 1.591.774 2.467.774s1.774-.403 2.2-1.17c.353-.637.44-1.55 1.115-1.803.446-.167.938.06 1.328.334.39.273.77.607 1.233.684s1.04-.263.989-.743a1.6 1.6 0 0 0-.27-.58 2.155 2.155 0 0 1 .402-2.66 2.075 2.075 0 0 1 2.649-.133c1.028.763.512 1.744.941 2.693.46 1.024 1.938 1.458 2.933 1.55"/><path fill="#dfdfdf" d="M78.595 70.64c-1.22-.097-2.448.142-3.673.082s-2.542-.522-3.144-1.606a2.48 2.48 0 0 1 .125-2.598c.26-.377.618-.672 1.036-.852.417-.18.876-.235 1.324-.162.836.138 1.547.712 2.371.906 1.328.313 2.66-.392 3.858-1.056 1.199-.663 2.563-1.329 3.87-.939 1.234.367 2.046 1.571 3.228 2.066 1.79.749 3.757-.305 5.633-.793 1.05-.273 2.185-.363 3.207 0s1.903 1.27 2.026 2.366c.124 1.095-.69 2.276-1.773 2.332-.759.04-1.44-.417-2.101-.799-.758-.43-1.59-.774-2.466-.774s-1.774.403-2.2 1.17c-.353.637-.44 1.55-1.116 1.803-.446.167-.937-.06-1.328-.334-.39-.273-.77-.607-1.233-.684-.462-.077-1.04.263-.989.743.05.21.142.407.27.58a2.156 2.156 0 0 1-.402 2.66 2.075 2.075 0 0 1-2.649.133c-1.027-.763-.511-1.744-.94-2.693-.461-1.025-1.939-1.459-2.934-1.55m-48-16.001c-1.22-.097-2.448.142-3.673.082s-2.542-.522-3.145-1.606a2.48 2.48 0 0 1 .126-2.598c.26-.377.618-.672 1.036-.852.417-.18.876-.235 1.323-.162.837.138 1.548.712 2.372.906 1.328.313 2.66-.392 3.858-1.056 1.199-.663 2.563-1.329 3.87-.939 1.234.367 2.046 1.571 3.228 2.066 1.79.749 3.757-.305 5.633-.793 1.05-.273 2.185-.363 3.207 0s1.903 1.27 2.026 2.366c.124 1.095-.69 2.276-1.773 2.332-.759.04-1.44-.417-2.101-.799-.758-.43-1.59-.774-2.467-.774-.875 0-1.773.403-2.199 1.17-.353.637-.44 1.55-1.116 1.803-.446.167-.937-.06-1.328-.334-.39-.273-.77-.607-1.233-.684-.462-.077-1.04.263-.988.743.049.21.14.407.269.58a2.156 2.156 0 0 1-.402 2.66 2.075 2.075 0 0 1-2.649.133c-1.027-.764-.511-1.744-.94-2.693-.461-1.025-1.939-1.459-2.934-1.55"/><path fill="#bbb" d="M59.595 55.958c-1.22.098-2.448-.142-3.673-.081s-2.542.521-3.144 1.606a2.48 2.48 0 0 0 .125 2.598c.26.377.618.672 1.036.851.417.18.876.236 1.324.162.836-.137 1.547-.711 2.371-.905 1.328-.313 2.66.392 3.858 1.056 1.199.663 2.563 1.329 3.87.938 1.234-.367 2.046-1.57 3.228-2.065 1.79-.749 3.757.305 5.633.793 1.05.273 2.185.363 3.207 0s1.903-1.27 2.026-2.366c.124-1.095-.69-2.276-1.773-2.333-.759-.04-1.44.418-2.101.8-.758.43-1.59.774-2.466.774s-1.774-.403-2.2-1.17c-.353-.637-.44-1.55-1.116-1.803-.446-.167-.937.06-1.328.334-.39.273-.77.607-1.233.684-.462.077-1.04-.263-.989-.743.05-.21.142-.407.27-.58a2.155 2.155 0 0 0-.402-2.66 2.075 2.075 0 0 0-2.649-.133c-1.027.763-.511 1.744-.94 2.693-.461 1.024-1.939 1.458-2.934 1.55"/><path fill="#232323" d="M29.63 72.32c1.508.456 3.11.39 4.583-.185 1.605-.634 3.163-1.884 4.838-1.526.64.137 1.288.597 1.4 1.296.105.64-.283 1.278-.787 1.623s-1.113.454-1.7.558c-.56-.247-.992.125-1.53.427-.537.302-1.06.681-1.666.77-.717.097-1.411-.255-2.115-.427-1.042-.257-2.132-.123-3.203-.114-1.071.01-2.207-.134-3.055-.846-.929-.781-1.327-2.433-.396-3.337a.9.9 0 0 1 .368-.223.8.8 0 0 1 .42-.017c.544.134.571.772.898 1.135.163.154.362.254.575.288.213.035.43.002.627-.093q.108-.049.209-.111a.4.4 0 0 1 .302-.054.44.44 0 0 1 .263.174.51.51 0 0 1-.02.626z"/><path fill="#bbb" d="M33.686 95.733c.88-.213 1.791-.237 2.681-.396s1.796-.467 2.426-1.118.907-1.714.448-2.5c-.746-1.276-2.846-1.153-3.595-2.426-.748-1.273.351-2.842.24-4.308a2.68 2.68 0 0 0-.897-1.716 2.65 2.65 0 0 0-1.812-.656c-.948.06-1.87.639-2.791.426-.878-.213-1.41-1.077-2-1.765s-1.584-1.277-2.354-.804c-.698.425-.7 1.511-.265 2.211.436.7 1.17 1.144 1.808 1.665s1.235 1.233 1.208 2.058c-.026.756-.56 1.38-.996 1.997s-.802 1.429-.467 2.106c.372.753 1.4.917 1.924 1.573a1.96 1.96 0 0 1 .27 1.747 4.5 4.5 0 0 1-.917 1.576c-.495.602-1.043 1.162-1.48 1.809s-.753 1.407-.713 2.186c.047.933.793 2.033 1.837 1.888.859-.119.814-.779.965-1.49.463-2.116 2.463-3.585 4.48-4.063m0-49.867c.88.213 1.791.236 2.681.396s1.796.466 2.426 1.118c.63.651.907 1.713.448 2.499-.746 1.277-2.846 1.154-3.595 2.426-.748 1.273.351 2.842.24 4.309a2.68 2.68 0 0 1-.897 1.716 2.65 2.65 0 0 1-1.812.655c-.948-.06-1.87-.638-2.791-.425-.878.212-1.41 1.077-2 1.764s-1.584 1.278-2.354.805c-.698-.426-.7-1.511-.265-2.212.436-.7 1.17-1.143 1.808-1.664.639-.522 1.235-1.233 1.208-2.059-.026-.756-.56-1.38-.996-1.997s-.802-1.428-.467-2.105c.372-.753 1.4-.917 1.924-1.573a1.96 1.96 0 0 0 .27-1.748 4.5 4.5 0 0 0-.917-1.575c-.495-.602-1.043-1.162-1.48-1.81-.438-.647-.753-1.407-.713-2.186.047-.932.793-2.033 1.837-1.888.859.12.814.78.965 1.49.463 2.116 2.463 3.585 4.48 4.064m60.565 49.867c-.88-.213-1.79-.237-2.68-.396s-1.796-.467-2.426-1.118-.907-1.714-.448-2.5c.746-1.276 2.846-1.153 3.594-2.426.749-1.273-.35-2.842-.239-4.308a2.68 2.68 0 0 1 .897-1.716 2.65 2.65 0 0 1 1.812-.656c.947.06 1.87.639 2.791.426.877-.213 1.41-1.077 2-1.765s1.584-1.277 2.354-.804c.697.425.7 1.511.264 2.211s-1.169 1.144-1.808 1.665c-.638.522-1.235 1.233-1.207 2.058.025.756.56 1.38.996 1.997s.801 1.429.467 2.106c-.372.753-1.4.917-1.924 1.573a1.96 1.96 0 0 0-.27 1.747 4.5 4.5 0 0 0 .917 1.576c.495.602 1.042 1.162 1.48 1.809s.753 1.407.713 2.186c-.047.933-.793 2.033-1.838 1.888-.858-.119-.814-.779-.964-1.49-.463-2.116-2.463-3.585-4.48-4.063m-.001-49.867c-.88.213-1.79.236-2.68.396s-1.796.466-2.426 1.118c-.63.651-.907 1.713-.448 2.499.746 1.277 2.846 1.154 3.594 2.426.749 1.273-.35 2.842-.239 4.309a2.68 2.68 0 0 0 .897 1.716 2.65 2.65 0 0 0 1.812.655c.947-.06 1.87-.638 2.791-.425.877.212 1.41 1.077 2 1.764s1.584 1.278 2.354.805c.697-.426.7-1.511.264-2.212-.436-.7-1.169-1.143-1.808-1.664-.638-.522-1.235-1.233-1.207-2.059.025-.756.56-1.38.996-1.997s.801-1.428.467-2.105c-.372-.753-1.4-.917-1.924-1.573a1.96 1.96 0 0 1-.27-1.748 4.5 4.5 0 0 1 .917-1.575c.495-.602 1.042-1.162 1.48-1.81.438-.647.753-1.407.713-2.186-.047-.932-.793-2.033-1.838-1.888-.858.12-.814.78-.964 1.49-.463 2.116-2.463 3.585-4.48 4.064"/><path fill="#232323" d="M30.048 93.024c.825-.137 1.708-.125 2.453-.498.744-.374 1.266-1.346.777-2.003-.375-.507-1.153-.567-1.77-.38-.616.187-1.155.56-1.761.777-.607.217-1.37.23-1.818-.219-.398-.397-.412-1.019-.68-1.508a1.7 1.7 0 0 0-.952-.798c-.41-.14-.86-.126-1.26.04-.4.167-.72.473-.894.858a1.6 1.6 0 0 0-.049 1.214c.242.671.923 1.192.935 1.903.012.662-.561 1.175-.939 1.727-.412.616-.932 2.134-.385 2.822.641.806 1.33 0 1.68-.563 1.057-1.697 2.567-3.026 4.663-3.372m23 17c.825-.137 1.708-.125 2.453-.498.744-.374 1.266-1.346.777-2.003-.375-.507-1.153-.567-1.77-.38-.616.187-1.155.56-1.761.777-.607.217-1.37.231-1.818-.218-.398-.398-.412-1.02-.68-1.509a1.7 1.7 0 0 0-.952-.798c-.41-.14-.86-.126-1.26.041-.4.166-.72.472-.894.857a1.6 1.6 0 0 0-.049 1.214c.242.671.923 1.192.935 1.903.012.662-.561 1.175-.939 1.727-.412.616-.932 2.134-.385 2.822.641.806 1.33 0 1.68-.563 1.057-1.697 2.567-3.026 4.663-3.372m-23-61.45c.825.137 1.708.126 2.453.499.744.374 1.266 1.345.777 2.003-.375.507-1.153.566-1.77.38-.616-.187-1.155-.56-1.761-.778-.607-.216-1.37-.23-1.818.22-.398.396-.412 1.018-.68 1.507-.201.373-.541.658-.952.798s-.86.127-1.26-.04c-.4-.166-.72-.473-.894-.857a1.6 1.6 0 0 1-.049-1.214c.242-.672.923-1.192.935-1.904.012-.661-.561-1.174-.939-1.727-.412-.615-.932-2.134-.385-2.821.641-.807 1.33 0 1.68.562 1.057 1.697 2.567 3.026 4.663 3.372m67.842 44.45c-.826-.137-1.708-.125-2.453-.498-.745-.374-1.267-1.346-.778-2.003.376-.507 1.153-.567 1.77-.38s1.155.56 1.762.777c.606.217 1.37.23 1.817-.219.398-.397.413-1.019.681-1.508.201-.372.541-.657.951-.798a1.8 1.8 0 0 1 1.261.04c.4.167.719.473.894.858.175.384.192.818.048 1.214-.241.671-.922 1.192-.934 1.903-.013.662.561 1.175.938 1.727.413.616.933 2.134.386 2.822-.642.806-1.331 0-1.681-.563-1.057-1.697-2.567-3.026-4.662-3.372m-68-9c-.826-.137-1.708-.125-2.453-.498-.745-.374-1.267-1.346-.778-2.003.376-.507 1.153-.567 1.77-.38s1.155.56 1.762.777c.606.217 1.37.23 1.817-.219.398-.397.413-1.019.68-1.508.202-.372.542-.657.952-.798.41-.14.86-.126 1.26.04.4.167.72.473.895.858.175.384.192.818.048 1.214-.241.671-.922 1.192-.935 1.903-.012.662.562 1.175.94 1.727.412.616.931 2.134.385 2.822-.642.806-1.33 0-1.681-.563-1.056-1.697-2.567-3.026-4.662-3.372m68-35.45c-.826.137-1.708.126-2.453.499-.745.374-1.267 1.345-.778 2.003.376.507 1.153.566 1.77.38.617-.187 1.155-.56 1.762-.778.606-.216 1.37-.23 1.817.22.398.396.413 1.018.681 1.507.201.373.541.658.951.798s.861.127 1.261-.04c.4-.166.719-.473.894-.857s.192-.818.048-1.214c-.241-.672-.922-1.192-.934-1.904-.013-.661.561-1.174.938-1.727.413-.615.933-2.134.386-2.821-.642-.807-1.331 0-1.681.562-1.057 1.697-2.567 3.026-4.662 3.372"/><path fill="#bbb" d="M44.573 92.809c.488.247 1 .486 1.547.49s1.132-.29 1.3-.814c.188-.586-.192-1.202-.615-1.648s-.93-.867-1.085-1.464c-.173-.675.151-1.362.367-2.024.216-.663.274-1.509-.266-1.942-.748-.599-1.931.108-2.78-.332s-.8-1.693-.98-2.655a3.96 3.96 0 0 0-1.024-1.96 3.9 3.9 0 0 0-1.908-1.095c-1.014-.228-2.294.136-2.6 1.138-.209.717.147 1.504.688 2.016s1.235.819 1.885 1.172c.804.434 1.583.969 2.113 1.718s.78 1.751.46 2.617c-.483 1.32-2.755 1.163-1.07 2.375a30 30 0 0 0 3.968 2.407m0-44.018c.488-.247 1-.486 1.547-.49s1.132.29 1.3.814c.188.586-.192 1.201-.615 1.648s-.93.867-1.085 1.464c-.173.674.151 1.362.367 2.024s.274 1.508-.266 1.942c-.748.599-1.931-.108-2.78.332s-.8 1.692-.98 2.655a3.96 3.96 0 0 1-1.024 1.96 3.9 3.9 0 0 1-1.908 1.095c-1.014.228-2.294-.136-2.6-1.139-.209-.717.147-1.504.688-2.015s1.235-.82 1.885-1.172c.804-.434 1.583-.97 2.113-1.718.53-.749.78-1.752.46-2.617-.483-1.32-2.755-1.163-1.07-2.376a30 30 0 0 1 3.968-2.407m42.792 40.019c-.488.247-1.001.486-1.548.49s-1.131-.29-1.299-.814c-.188-.586.191-1.202.614-1.648s.93-.867 1.085-1.464c.174-.675-.15-1.362-.367-2.024-.215-.663-.274-1.509.267-1.942.747-.599 1.93.108 2.779-.332.848-.44.8-1.693.98-2.655a3.96 3.96 0 0 1 1.025-1.96 3.9 3.9 0 0 1 1.908-1.095c1.013-.228 2.293.136 2.599 1.138.21.717-.147 1.504-.687 2.016s-1.236.819-1.885 1.172c-.805.434-1.584.969-2.114 1.718s-.779 1.751-.46 2.617c.484 1.32 2.756 1.163 1.07 2.375a30 30 0 0 1-3.967 2.407m-3-40.018c-.488-.247-1.001-.486-1.548-.49s-1.131.29-1.299.814c-.188.586.191 1.201.614 1.648s.93.867 1.085 1.464c.174.674-.15 1.362-.367 2.024-.215.662-.274 1.508.267 1.942.747.599 1.93-.108 2.779.332.848.44.8 1.692.98 2.655.15.738.505 1.419 1.025 1.96s1.181.92 1.908 1.095c1.013.228 2.293-.136 2.599-1.139.21-.717-.147-1.504-.687-2.015s-1.236-.82-1.885-1.172c-.805-.434-1.584-.97-2.114-1.718-.53-.749-.779-1.752-.46-2.617.484-1.32 2.756-1.163 1.07-2.376a30 30 0 0 0-3.967-2.407m-4 59c-.488-.247-1.001-.486-1.548-.491-.547-.004-1.131.29-1.299.815-.188.586.191 1.201.614 1.648s.93.867 1.085 1.464c.174.674-.15 1.362-.367 2.024-.215.662-.274 1.508.267 1.942.747.599 1.93-.108 2.779.332.848.44.8 1.692.98 2.655.15.739.505 1.419 1.025 1.96s1.181.921 1.908 1.095c1.013.228 2.293-.136 2.599-1.139.21-.717-.147-1.504-.687-2.016-.54-.511-1.236-.818-1.885-1.171-.805-.434-1.584-.969-2.114-1.718s-.779-1.752-.46-2.617c.484-1.32 2.756-1.163 1.07-2.376a30 30 0 0 0-3.967-2.407"/><path fill="#232323" d="M49.471 87.168c.04.576.739.617 1.171.744 1.002.297 3.337 2.294 4.156.895.207-.342.172-.783.34-1.145.389-.845 1.518-.837 2.42-.86s1.846-.235 2.551-.829c.475-.4.788-.973.875-1.603a.5.5 0 0 1 .06-.174q.117-.214.29-.381c.569-.519 1.26-.86 1.862-1.336s1.164-1.104 1.261-1.885c.098-.782-.448-1.672-1.206-1.668-.484 0-.897.34-1.299.622s-.906.531-1.355.34c-.536-.228-.697-.947-1.148-1.324-.666-.555-1.686-.159-2.294.463a2.23 2.23 0 0 0-.642 1.112c-.047.215-.034.44.038.647.071.208.198.39.366.524.598.418 1.562 0 2.035.575a.47.47 0 0 1 .095.38.47.47 0 0 1-.22.319q-.09.05-.168.116c-.414.344-.571.913-.863 1.369-.592.923-1.68 1.33-2.69 1.68-1.087.375-2.217.756-3.355.618-.58-.06-2.358-.38-2.28.8m3-45.736c.04-.577.739-.617 1.171-.744 1.002-.297 3.337-2.294 4.156-.896.207.343.172.784.34 1.145.389.846 1.518.837 2.42.861s1.846.235 2.551.828c.475.401.788.974.875 1.604a.5.5 0 0 0 .06.174q.117.214.29.38c.569.52 1.26.861 1.862 1.337s1.164 1.104 1.261 1.885c.098.781-.448 1.672-1.206 1.668-.484 0-.897-.34-1.299-.622s-.906-.532-1.355-.34c-.536.228-.697.947-1.148 1.323-.666.556-1.686.16-2.294-.462a2.23 2.23 0 0 1-.642-1.113 1.2 1.2 0 0 1 .038-.647c.071-.207.198-.389.366-.523.598-.418 1.562 0 2.035-.575a.47.47 0 0 0 .095-.38.47.47 0 0 0-.22-.32 1 1 0 0 1-.168-.116c-.414-.344-.571-.912-.863-1.368-.592-.923-1.68-1.33-2.69-1.68-1.087-.375-2.217-.756-3.355-.618-.58.06-2.358.38-2.28-.8m31.995 53.736c-.04.576-.738.617-1.17.744-1.002.297-3.338 2.294-4.157.895-.207-.342-.172-.783-.34-1.145-.388-.845-1.518-.837-2.42-.86s-1.845-.235-2.55-.829a2.55 2.55 0 0 1-.876-1.603.5.5 0 0 0-.06-.174 1.6 1.6 0 0 0-.29-.381c-.568-.519-1.26-.86-1.861-1.336-.602-.476-1.165-1.104-1.262-1.885-.097-.782.449-1.672 1.206-1.668.484 0 .898.34 1.3.622.4.282.905.531 1.354.34.536-.228.697-.947 1.148-1.324.667-.555 1.686-.159 2.295.463.316.296.54.683.641 1.112.047.215.034.44-.037.647s-.199.39-.366.524c-.598.418-1.562 0-2.036.575a.47.47 0 0 0-.095.38.47.47 0 0 0 .221.319q.09.05.168.116c.413.344.57.913.862 1.369.592.923 1.68 1.33 2.69 1.68 1.088.375 2.218.756 3.355.618.58-.06 2.359-.38 2.28.8m-2 21c-.04.577-.738.618-1.17.745-1.002.297-3.338 2.294-4.157.895-.207-.342-.172-.783-.34-1.145-.388-.845-1.518-.837-2.42-.86s-1.845-.235-2.55-.829a2.55 2.55 0 0 1-.876-1.603.5.5 0 0 0-.06-.174 1.6 1.6 0 0 0-.29-.381c-.568-.519-1.26-.861-1.861-1.336-.602-.476-1.165-1.104-1.262-1.885-.097-.782.449-1.672 1.206-1.668.484 0 .898.34 1.3.622.4.282.905.531 1.354.34.536-.228.697-.947 1.148-1.324.667-.555 1.686-.159 2.295.463.316.296.54.683.641 1.112.047.215.034.44-.037.647a1.15 1.15 0 0 1-.366.524c-.598.418-1.562 0-2.036.575a.47.47 0 0 0-.095.38.47.47 0 0 0 .221.319q.09.05.168.116c.413.345.57.913.862 1.369.592.923 1.68 1.33 2.69 1.68 1.088.375 2.218.756 3.355.618.58-.06 2.359-.381 2.28.8m2-70.736c-.04-.577-.738-.617-1.17-.744-1.002-.297-3.338-2.294-4.157-.896-.207.343-.172.784-.34 1.145-.388.846-1.518.837-2.42.861s-1.845.235-2.55.828a2.56 2.56 0 0 0-.876 1.604.5.5 0 0 1-.06.174q-.116.214-.29.38c-.568.52-1.26.861-1.861 1.337-.602.476-1.165 1.104-1.262 1.885s.449 1.672 1.206 1.668c.484 0 .898-.34 1.3-.622.4-.282.905-.532 1.354-.34.536.228.697.947 1.148 1.323.667.556 1.686.16 2.295-.462.316-.296.54-.684.641-1.113.047-.215.034-.44-.037-.647a1.15 1.15 0 0 0-.366-.523c-.598-.418-1.562 0-2.036-.575a.47.47 0 0 1-.095-.38.47.47 0 0 1 .221-.32q.09-.05.168-.116c.413-.344.57-.912.862-1.368.592-.923 1.68-1.33 2.69-1.68 1.088-.375 2.218-.756 3.355-.618.58.06 2.359.38 2.28-.8M22.469 81.3a1.86 1.86 0 0 0 .772-.543c.966-1.075.528-3.096 1.5-4.16.44-.481 1.075-.645 1.635-.942s1.12-.827 1.092-1.515c-.033-.755-.732-1.226-1.352-1.525a19.7 19.7 0 0 0-3.62-1.316h-.021zm0-22c.293.106.559.292.772.541.966 1.075.528 3.096 1.5 4.16.44.482 1.075.646 1.635.942.56.297 1.12.828 1.092 1.516-.033.755-.732 1.226-1.352 1.525-1.17.558-2.38.999-3.62 1.315h-.021zm83 22a1.86 1.86 0 0 1-.773-.543c-.966-1.075-.527-3.096-1.499-4.16-.44-.481-1.076-.645-1.636-.942s-1.12-.827-1.091-1.515c.033-.755.732-1.226 1.352-1.525a19.7 19.7 0 0 1 3.62-1.316h.021z"/><path fill="#bbb" d="M105.469 59.3a1.86 1.86 0 0 0-.773.541c-.966 1.075-.527 3.096-1.499 4.16-.44.482-1.076.646-1.636.942-.56.297-1.12.828-1.091 1.516.033.755.732 1.226 1.352 1.525 1.169.558 2.38.999 3.62 1.315h.021z"/><path fill="#dfdfdf" d="M37.589 109.02c.804.232 1.757.491 2.42 0 .719-.527.54-1.68-.158-2.23s-1.7-.626-2.611-.531c-.522.055-1.065.157-1.563 0-.741-.232-1.15-.949-1.528-1.585s-.913-1.319-1.683-1.37c-1.035-.081-1.832.988-2.872 1.008-.71.011-1.313-.468-1.994-.652-1.162-.311-2.491.368-2.946 1.413-.454 1.046-.04 2.32.87 3.06.683.556 1.76.916 2.673.757.735-.127 1.292-.587 2.056-.673 2.388-.298 5.062.143 7.336.803m0-77.44c.804-.234 1.757-.492 2.42 0 .719.526.54 1.679-.158 2.229s-1.7.626-2.611.53c-.522-.055-1.065-.156-1.563 0-.741.233-1.15.95-1.528 1.586s-.913 1.32-1.683 1.37c-1.035.08-1.832-.989-2.872-1.008-.71-.012-1.313.468-1.994.652-1.162.311-2.491-.368-2.946-1.414-.454-1.045-.04-2.32.87-3.06.683-.555 1.76-.915 2.673-.757.735.128 1.292.587 2.056.674 2.388.297 5.062-.143 7.336-.803m52.76 77.441c-.804.232-1.757.491-2.42 0-.72-.527-.54-1.68.158-2.23s1.7-.626 2.61-.531c.522.055 1.065.157 1.564 0 .74-.232 1.149-.949 1.527-1.585.379-.636.913-1.319 1.683-1.37 1.036-.081 1.833.988 2.872 1.008.711.011 1.313-.468 1.995-.652 1.161-.311 2.491.368 2.945 1.413.455 1.046.04 2.32-.869 3.06-.684.556-1.761.916-2.674.757-.734-.127-1.292-.587-2.055-.673-2.388-.298-5.062.143-7.337.803m.001-77.44c-.804-.234-1.757-.492-2.42 0-.72.526-.54 1.679.158 2.229s1.7.626 2.61.53c.522-.055 1.065-.156 1.564 0 .74.233 1.149.95 1.527 1.586.379.636.913 1.32 1.683 1.37 1.036.08 1.833-.989 2.872-1.008.711-.012 1.313.468 1.995.652 1.161.311 2.491-.368 2.945-1.414.455-1.045.04-2.32-.869-3.06-.684-.555-1.761-.915-2.674-.757-.734.128-1.292.587-2.055.674-2.388.297-5.062-.143-7.337-.803"/></g></g><path fill="#e40000" stroke="#000" stroke-miterlimit="10" stroke-width="2.863" d="M63.828 119.639c5.858.353 10.895-4.109 11.25-9.966.354-5.858-4.108-10.894-9.966-11.248s-10.894 4.108-11.249 9.966c-.354 5.858 4.107 10.894 9.965 11.248Z"/><path fill="#ebb4b4" d="M69.277 114.447c.792.048 2.726-2.338 2.907-5.329.18-2.991-1.46-5.455-2.251-5.503-.793-.047-.436 2.339-.617 5.329-.181 2.991-.83 5.455-.039 5.503"/><path fill="#82592d" stroke="#000" stroke-width="3.436" d="M82.433 68.282c1.224-5.718-7.357-2.54-11.8-.236-3.51-.127 3.198-14.174 25.617-12.562s21.771 22.45 19.163 26.215c-2.607 3.764-11.13 7.106-8.857-1.993s-.611-11.947-2.243-12.752-5.492.916-5.2 7c.29 6.086-2.667 8.37-4.706 8.196s-2.986-4.978-.699-8.782c2.287-3.803 3.41-10.32-1.486-10.24-4.894.082-4.909 6.432-4.152 9.777.758 3.344-1.311 7.552-4.035 6.387s-3.132-3.862-1.602-11.01Zm-36.647-.001c-1.224-5.718 7.356-2.54 11.8-.235 3.51-.128-3.198-14.174-25.617-12.562-22.42 1.612-21.771 22.45-19.164 26.214 2.608 3.764 11.13 7.106 8.857-1.992-2.272-9.099.612-11.947 2.243-12.752 1.632-.805 5.492.915 5.201 7-.29 6.086 2.666 8.37 4.706 8.196s2.986-4.979.699-8.782-3.41-10.32 1.485-10.24 4.91 6.432 4.152 9.776c-.757 3.345 1.312 7.553 4.036 6.387 2.724-1.165 3.132-3.862 1.602-11.01Z"/><path fill="#454545" stroke="#000" stroke-miterlimit="10" stroke-width="3.16" d="M93.473 91.299c-6.627 0-12 5.503-12.002 12.291-.001 5.468 3.484 10.102 8.304 11.698 1.164.385 2.405-9.182 3.694-9.182 1.288 0 2.53 9.567 3.693 9.182 4.821-1.596 8.308-6.23 8.309-11.698.001-6.788-5.37-12.291-11.998-12.291Z"/><path fill="#82592d" stroke="#000" stroke-miterlimit="10" stroke-width="3.16" d="M93.472 90.299c-5.523 0-10 4.127-10.001 9.218-.001 4.101 2.903 7.577 6.92 8.773.97.289 2.004-6.885 3.078-6.885s2.108 7.174 3.078 6.885c4.017-1.196 6.923-4.672 6.923-8.773.001-5.091-4.475-9.218-9.998-9.218Z"/><path fill="#454545" stroke="#000" stroke-miterlimit="10" stroke-width="3.16" d="M35.473 91.299c-6.627 0-12 5.503-12.002 12.291-.001 5.468 3.485 10.102 8.305 11.698 1.163.385 2.404-9.182 3.693-9.182 1.288 0 2.53 9.567 3.693 9.182 4.82-1.596 8.308-6.23 8.309-11.698.001-6.788-5.37-12.291-11.998-12.291Z"/><path fill="#82592d" stroke="#000" stroke-miterlimit="10" stroke-width="3.16" d="M35.472 90.299c-5.523 0-10 4.127-10.001 9.218-.001 4.101 2.903 7.577 6.92 8.773.97.289 2.004-6.885 3.078-6.885s2.108 7.174 3.078 6.885c4.017-1.196 6.923-4.672 6.924-8.773 0-5.091-4.476-9.218-9.999-9.218Z"/></svg>