<svg width="256" height="256" xmlns="http://www.w3.org/2000/svg" fill="none" viewBox="0 0 256 256"><path fill="#c0ffbe" d="M132.867 188.967c-6.715 20.071-.575 34.75 4.002 41.225l25.039-3.002c-9.547-6.08-12.61-29.093-4.818-40.187z"/><path fill="#78c476" d="M134.441 190.972c-5.521 16.717.664 31.696 4.447 37.095l18.857-2.26c-7.884-5.076-10.866-27.86-4.448-37.095z"/><ellipse cx="144.598" cy="221.425" fill="#c0ffbe" rx="3.425" ry="4.981" transform="rotate(-96.837 144.598 221.425)"/><ellipse cx="141.707" cy="197.315" fill="#c0ffbe" rx="3.425" ry="4.981" transform="rotate(-96.837 141.707 197.315)"/><path fill="#f9ffed" d="M144.136 208.321q-.613.073-.931.462-.326.383-.534 1.238a15 15 0 0 1-.436 1.486q-.236.63-.573 1.106-.345.469-.848.772-.503.297-1.235.385-1.263.152-2.168-.564-.906-.715-1.201-2.044l-1.6.192-.144-1.203 1.622-.194q.028-1.353.857-2.215.822-.862 2.28-1.036l.26 2.172q-.897.108-1.293.537-.404.422-.329 1.046.074.616.465.912.385.297.998.224.569-.069.872-.44.305-.372.556-1.31.25-.945.503-1.562.244-.617.601-1.064.348-.445.839-.718.483-.271 1.163-.353 1.272-.152 2.159.55.888.701 1.198 2.082l1.488-.178.143 1.195-1.48.178q.02 1.56-.798 2.52-.826.952-2.359 1.137l-.26-2.173q.89-.107 1.318-.584.418-.486.324-1.282-.08-.662-.469-1.004-.398-.34-.988-.27"/><path fill="#c0ffbe" d="M119.993 199.227c14.366-15.542 14.796-31.447 13.282-39.231l-24.063-7.546c6.208 9.464-.45 31.705-12.11 38.62z"/><path fill="#78c476" d="M119.382 196.752c11.9-12.974 12.411-29.172 11.179-35.649l-18.121-5.682c5.104 7.865-1.534 29.864-11.179 35.649z"/><ellipse cx="122.628" cy="164.814" fill="#c0ffbe" rx="3.425" ry="4.981" transform="rotate(107.411 122.628 164.814)"/><ellipse cx="115.362" cy="187.986" fill="#c0ffbe" rx="3.425" ry="4.981" transform="rotate(107.411 115.362 187.986)"/><path fill="#f9ffed" d="M117.667 176.954q.59.185 1.038-.04.455-.214.996-.909t1.008-1.176q.473-.478.976-.773.507-.285 1.09-.356.58-.064 1.285.157 1.214.381 1.745 1.404t.255 2.357l1.538.482-.363 1.156-1.559-.489q-.58 1.222-1.691 1.668-1.103.447-2.504.008l.655-2.088q.862.27 1.399.042.543-.219.73-.818.187-.593-.05-1.023-.228-.43-.817-.614-.546-.171-.977.043t-1.044.966q-.617.759-1.1 1.218a4.2 4.2 0 0 1-.984.723 2.8 2.8 0 0 1-1.06.31q-.552.05-1.206-.156-1.222-.383-1.743-1.388t-.237-2.391l-1.43-.448.361-1.149 1.422.446q.623-1.431 1.762-1.97 1.145-.53 2.618-.068l-.655 2.088q-.855-.268-1.441-.008-.582.27-.822 1.036-.2.635.015 1.107.223.475.79.653"/><path fill="#c0ffbe" d="M155.903 111.882c-21.086-1.823-33.916 7.588-39.138 13.556l8.789 23.637c3.672-10.707 25.325-19.08 37.937-14.106z"/><path fill="#78c476" d="M154.322 113.882c-17.546-1.449-30.657 8.077-35.019 13.02l6.619 17.801c3.085-8.854 24.535-17.095 35.018-13.021z"/><ellipse cx="127.099" cy="130.895" fill="#c0ffbe" rx="3.425" ry="4.981" transform="rotate(-20.396 127.099 130.895)"/><ellipse cx="149.861" cy="122.431" fill="#c0ffbe" rx="3.425" ry="4.981" transform="rotate(-20.396 149.861 122.431)"/><path fill="#f9ffed" d="M139.731 127.373q-.215-.578-.667-.796-.448-.226-1.329-.229a15 15 0 0 1-1.547-.075 4.8 4.8 0 0 1-1.209-.298 2.9 2.9 0 0 1-.95-.643q-.406-.419-.663-1.111-.444-1.193.039-2.24t1.706-1.646l-.561-1.511 1.135-.422.569 1.532q1.322-.29 2.354.313 1.03.598 1.542 1.974l-2.051.762q-.315-.846-.824-1.131-.505-.294-1.095-.075-.581.216-.777.667-.199.443.016 1.022.2.536.633.745.432.209 1.403.233.977.022 1.637.123.656.093 1.174.334.515.234.895.647.377.407.616 1.049.446 1.2-.028 2.227-.474 1.028-1.744 1.653l.522 1.404-1.128.42-.52-1.397q-1.512.385-2.637-.185-1.12-.58-1.658-2.026l2.051-.763q.312.84.878 1.144.569.294 1.322.015.624-.233.865-.692.239-.466.031-1.024"/><path fill="#c0ffbe" d="M175.125 205.417c14.952 14.979 30.828 16.048 38.666 14.848l8.507-23.74c-9.706 5.822-31.661-1.724-38.102-13.654z"/><path fill="#78c476" d="M177.623 204.907c12.486 12.412 28.65 13.574 35.171 12.604l6.407-17.878c-8.064 4.783-29.778-2.734-35.171-12.604z"/><ellipse cx="209.405" cy="209.433" fill="#c0ffbe" rx="3.425" ry="4.981" transform="rotate(-160.285 209.405 209.433)"/><ellipse cx="186.543" cy="201.241" fill="#c0ffbe" rx="3.425" ry="4.981" transform="rotate(-160.285 186.543 201.241)"/><path fill="#f9ffed" d="M197.474 203.988q-.209.581-.003 1.039.197.462.869 1.031.674.569 1.134 1.054.459.493.733 1.007.265.519.312 1.104.04.582-.208 1.277-.429 1.197-1.473 1.687t-2.366.16l-.543 1.517-1.141-.408.552-1.538q-1.198-.63-1.599-1.757-.402-1.12.093-2.502l2.06.738q-.305.85-.099 1.396.197.55.789.763.584.208 1.024-.009.438-.211.646-.793.193-.538-.004-.977t-.923-1.082a13 13 0 0 1-1.172-1.148 4.2 4.2 0 0 1-.683-1.013 2.75 2.75 0 0 1-.267-1.072q-.027-.553.204-1.198.432-1.205 1.456-1.686 1.026-.48 2.399-.14l.505-1.411 1.134.406-.503 1.404q1.404.68 1.898 1.84.483 1.164-.038 2.618l-2.06-.738q.303-.844.066-1.44-.246-.593-1.001-.863-.628-.225-1.108-.029-.483.202-.683.763"/><path fill="#c0ffbe" d="M73.513 116.252c21.153-.678 33.455 9.413 38.346 15.655l-10.055 23.126c-3.088-10.889-24.255-20.422-37.118-16.138z"/><path fill="#78c476" d="M74.984 118.334c17.598-.497 30.174 9.724 34.263 14.897l-7.573 17.416c-2.602-9.007-23.574-18.398-34.262-14.897z"/><ellipse fill="#c0ffbe" rx="3.425" ry="4.981" transform="rotate(-156.501 64.849 57.87)scale(1 -1)"/><ellipse fill="#c0ffbe" rx="3.425" ry="4.981" transform="rotate(-156.501 52.707 55.344)scale(1 -1)"/><path fill="#f9ffed" d="M91.093 127.375q-.247.566-.071 1.036.165.475.798 1.087.634.612 1.063 1.126.425.522.665 1.053.23.535.238 1.122.002.584-.292 1.261-.507 1.167-1.581 1.586-1.075.42-2.371.004l-.643 1.478-1.11-.483.65-1.499q-1.152-.706-1.478-1.858-.328-1.144.258-2.491l2.006.873q-.36.828-.19 1.387.16.562.736.813.57.247 1.023.058.45-.181.697-.748.228-.524.06-.975-.167-.45-.849-1.141-.69-.693-1.094-1.223a4.2 4.2 0 0 1-.615-1.055 2.75 2.75 0 0 1-.196-1.087q.01-.555.283-1.183.51-1.173 1.565-1.586 1.053-.411 2.402.019l.598-1.375 1.104.48-.595 1.368q1.357.77 1.773 1.961.405 1.194-.21 2.61l-2.007-.873q.358-.821.16-1.432-.206-.608-.942-.927-.61-.266-1.103-.102-.495.17-.733.716"/><path fill="#c0ffbe" d="M76.495 72.165c21.154-.68 33.456 9.412 38.347 15.654l-10.056 23.127c-3.087-10.89-24.255-20.423-37.117-16.139z"/><path fill="#78c476" d="M77.967 74.246c17.597-.496 30.174 9.725 34.262 14.897l-7.573 17.416c-2.601-9.007-23.574-18.397-34.262-14.897z"/><ellipse fill="#c0ffbe" rx="3.425" ry="4.981" transform="rotate(-156.501 61.755 35.515)scale(1 -1)"/><ellipse fill="#c0ffbe" rx="3.425" ry="4.981" transform="rotate(-156.501 49.613 32.99)scale(1 -1)"/><path fill="#f9ffed" d="M94.075 83.287q-.246.566-.071 1.036.165.475.799 1.087.633.612 1.062 1.127.425.52.665 1.052.23.535.239 1.122.002.585-.293 1.26-.507 1.168-1.581 1.588t-2.37.003l-.643 1.478-1.111-.483.651-1.498q-1.154-.707-1.478-1.859-.329-1.144.257-2.49l2.006.872q-.36.829-.19 1.387.16.563.737.813.569.247 1.022.059.45-.183.697-.748.228-.525.06-.976-.166-.45-.849-1.14-.689-.694-1.094-1.224a4.2 4.2 0 0 1-.614-1.055 2.75 2.75 0 0 1-.197-1.087q.01-.555.284-1.183.51-1.172 1.564-1.586 1.055-.411 2.403.019l.597-1.374 1.104.48-.594 1.367q1.356.77 1.772 1.96.405 1.195-.21 2.61l-2.007-.871q.358-.822.161-1.433-.207-.608-.942-.927-.612-.266-1.104-.102-.495.17-.732.716"/><path fill="#c0ffbe" d="M62.412 29.917c21.154-.68 33.456 9.412 38.347 15.654L90.703 68.698c-3.087-10.89-24.255-20.423-37.117-16.139z"/><path fill="#78c476" d="M63.884 31.998c17.597-.497 30.174 9.724 34.262 14.897L90.573 64.31C87.973 55.304 67 45.913 56.311 49.414z"/><ellipse fill="#c0ffbe" rx="3.425" ry="4.981" transform="rotate(-156.501 50.32 15.856)scale(1 -1)"/><ellipse fill="#c0ffbe" rx="3.425" ry="4.981" transform="rotate(-156.501 38.178 13.33)scale(1 -1)"/><path fill="#f9ffed" d="M79.992 41.039q-.246.566-.071 1.036.165.475.799 1.087.633.611 1.062 1.127.425.52.665 1.052.23.535.239 1.122.002.585-.293 1.26-.507 1.168-1.581 1.587t-2.37.004l-.643 1.478-1.111-.483.651-1.498q-1.154-.708-1.478-1.859-.329-1.144.257-2.49l2.006.872q-.36.828-.19 1.387.16.563.737.813.569.247 1.022.059.45-.183.697-.749.228-.525.06-.975-.166-.45-.849-1.14-.689-.695-1.094-1.224a4.2 4.2 0 0 1-.614-1.055 2.75 2.75 0 0 1-.197-1.087q.01-.555.284-1.183.51-1.173 1.564-1.586 1.055-.411 2.403.019l.597-1.374 1.104.48-.594 1.367q1.356.77 1.772 1.96.405 1.196-.21 2.61l-2.007-.872q.358-.821.161-1.432-.207-.607-.942-.927-.612-.266-1.104-.102-.495.17-.732.716"/><path fill="#c0ffbe" d="M172.275 52.383c13.757 16.083 13.574 31.994 11.762 39.713l-24.336 6.615c6.568-9.219.77-31.699-10.615-39.058z"/><path fill="#78c476" d="M171.569 54.834c11.392 13.423 11.279 29.628 9.799 36.053l-18.326 4.98c5.402-7.662-.384-29.9-9.799-36.052z"/><ellipse fill="#c0ffbe" rx="3.425" ry="4.981" transform="rotate(74.795 29.974 156.966)scale(-1 1)"/><ellipse fill="#c0ffbe" rx="3.425" ry="4.981" transform="rotate(74.795 42.117 141.082)scale(-1 1)"/><path fill="#f9ffed" d="M174.588 73.058q-.595.162-.853.593-.267.425-.348 1.303a14 14 0 0 1-.216 1.533 4.8 4.8 0 0 1-.405 1.177 2.9 2.9 0 0 1-.727.888q-.453.366-1.166.56-1.228.334-2.227-.242t-1.486-1.848l-1.554.423-.318-1.169 1.577-.428q-.17-1.343.525-2.317.688-.971 2.105-1.356l.574 2.111q-.872.237-1.202.719-.338.477-.174 1.083.163.6.594.835.423.238 1.019.076.553-.15.8-.563.246-.411.359-1.376.111-.971.27-1.619.153-.645.439-1.14.28-.491.726-.832.438-.34 1.1-.518 1.235-.336 2.216.229.981.564 1.488 1.886l1.446-.393.316 1.162-1.439.39q.247 1.542-.422 2.61-.68 1.064-2.169 1.468l-.573-2.111q.864-.235 1.218-.77.345-.542.134-1.316-.174-.643-.61-.924-.442-.28-1.017-.124"/><circle cx="148.956" cy="171.274" r="6.227" fill="#ffd130" transform="rotate(-135 148.956 171.274)"/><path fill="#bc991e" d="M149.279 169.546q-.277.278-.282.598-.011.32.224.833t.371.919q.133.41.152.782.013.371-.117.721a2 2 0 0 1-.465.678q-.573.572-1.308.567t-1.411-.559l-.725.724-.549-.549.735-.734q-.523-.692-.45-1.451.069-.756.729-1.416l.992.992q-.406.406-.434.777a.79.79 0 0 0 .25.656q.281.282.595.277.31-.002.587-.279.258-.257.262-.564t-.241-.877a8 8 0 0 1-.368-.984 2.7 2.7 0 0 1-.122-.771 1.8 1.8 0 0 1 .135-.691q.134-.325.442-.634.575-.575 1.297-.57.723.006 1.425.579l.674-.673.545.546-.67.67q.63.778.601 1.581-.035.804-.729 1.498l-.991-.992q.402-.402.427-.811.017-.409-.347-.773-.302-.302-.632-.321-.334-.016-.602.251"/><circle cx="191.806" cy="55.805" r="6.227" fill="#ffd130" transform="rotate(-135 191.806 55.805)"/><path fill="#bc991e" d="M192.129 54.076q-.278.278-.282.597-.012.32.224.833t.371.92q.132.41.152.78.013.372-.117.722a2 2 0 0 1-.466.678q-.571.572-1.308.567-.736-.005-1.411-.558l-.724.724-.549-.55.734-.734q-.522-.691-.45-1.45.07-.757.73-1.417l.992.992q-.406.406-.435.777a.8.8 0 0 0 .25.656q.282.282.595.277.31 0 .588-.279.256-.257.262-.563.004-.307-.242-.878a9 9 0 0 1-.368-.984 2.7 2.7 0 0 1-.121-.77q-.003-.362.135-.691.133-.327.442-.634.574-.576 1.297-.57.723.005 1.425.579l.673-.674.546.546-.67.67q.629.778.601 1.582-.036.804-.729 1.497l-.992-.991q.403-.404.427-.812.017-.408-.346-.772-.302-.303-.633-.322-.334-.015-.601.252"/><circle cx="185.644" cy="109.503" r="6.227" fill="#ffd130" transform="rotate(-135 185.644 109.503)"/><path fill="#bc991e" d="M185.967 107.773q-.278.277-.282.598-.012.32.224.833.235.512.371.919.132.41.152.781.013.372-.118.722a2 2 0 0 1-.465.678q-.571.572-1.308.566-.736-.005-1.411-.558l-.724.724-.549-.549.734-.734q-.522-.692-.45-1.452.07-.755.73-1.415l.991.991q-.405.406-.434.778a.79.79 0 0 0 .25.656q.282.28.595.276.31 0 .588-.278.257-.258.261-.564t-.241-.877a9 9 0 0 1-.368-.984 2.7 2.7 0 0 1-.121-.771 1.7 1.7 0 0 1 .135-.691q.134-.326.441-.634.576-.575 1.298-.57.723.004 1.425.579l.673-.673.546.545-.67.67q.628.778.601 1.582-.036.804-.729 1.498l-.992-.992q.403-.403.427-.812.017-.408-.346-.772-.302-.301-.633-.321-.333-.016-.601.251"/><circle cx="78.625" cy="173.141" r="6.227" fill="#ffd130" transform="rotate(-135 78.625 173.141)"/><path fill="#bc991e" d="M78.948 171.412q-.278.277-.282.597-.011.32.224.833t.371.919q.134.41.152.782.013.371-.117.721-.135.346-.466.678-.571.573-1.307.567-.736-.005-1.411-.558l-.725.724-.549-.549.735-.735q-.523-.692-.45-1.451.07-.756.73-1.416l.99.992q-.406.406-.433.777a.79.79 0 0 0 .25.656q.281.282.595.277.31-.002.587-.279.257-.257.262-.563.005-.307-.241-.878a9 9 0 0 1-.368-.984 2.7 2.7 0 0 1-.122-.771q-.003-.36.135-.69.135-.327.442-.634.575-.576 1.297-.57.723.004 1.425.579l.674-.674.545.546-.67.67q.63.778.601 1.582-.035.804-.729 1.497l-.992-.992q.403-.402.427-.811.018-.408-.346-.772-.302-.303-.632-.322a.78.78 0 0 0-.602.252"/><circle cx="117.868" cy="149.991" r="6.227" fill="#ffd130" transform="rotate(-135 117.868 149.991)"/><path fill="#bc991e" d="M118.192 148.263q-.278.277-.282.598-.011.32.223.833.236.513.372.919.132.41.152.781.012.372-.118.722a2 2 0 0 1-.465.678q-.573.571-1.308.567-.736-.006-1.411-.559l-.724.724-.549-.549.734-.734q-.523-.692-.45-1.451.069-.756.729-1.416l.992.992q-.406.405-.434.777a.79.79 0 0 0 .25.656q.282.281.595.277.31-.001.587-.279.258-.256.262-.564t-.241-.877a9 9 0 0 1-.368-.984 2.7 2.7 0 0 1-.122-.771 1.8 1.8 0 0 1 .135-.691q.134-.326.442-.634.575-.575 1.298-.57.722.006 1.425.579l.673-.673.545.546-.669.669q.629.778.6 1.582-.035.804-.729 1.498l-.991-.992q.402-.403.427-.811.017-.409-.347-.773-.302-.302-.632-.321-.334-.016-.601.251"/><circle cx="45.691" cy="118.305" r="6.227" fill="#ffd130" transform="rotate(-135 45.691 118.305)"/><path fill="#bc991e" d="M46.015 116.578q-.278.278-.282.597-.012.32.224.833.235.514.37.919.134.41.153.782.013.371-.118.721-.134.346-.465.678-.572.573-1.308.567-.736-.005-1.411-.558l-.724.724-.55-.549.735-.735q-.523-.692-.45-1.451.07-.756.73-1.416l.991.992q-.405.407-.434.777a.79.79 0 0 0 .25.656q.282.282.595.277.31-.001.587-.279.258-.257.262-.563.005-.307-.241-.878a9 9 0 0 1-.368-.984 2.7 2.7 0 0 1-.121-.771q-.003-.36.134-.69.135-.327.442-.634.575-.576 1.298-.57.722.005 1.425.579l.673-.674.546.546-.67.67q.63.778.6 1.582-.035.804-.728 1.497l-.992-.992q.402-.402.427-.811.018-.409-.346-.772-.303-.303-.633-.322a.78.78 0 0 0-.601.252"/><circle cx="196.88" cy="181.854" r="6.227" fill="#ffd130" transform="rotate(-135 196.88 181.854)"/><path fill="#bc991e" d="M197.204 180.124q-.277.278-.282.598-.011.32.224.833t.371.919q.132.41.152.782.013.371-.117.721a2 2 0 0 1-.466.678q-.572.572-1.307.567-.737-.006-1.412-.559l-.724.724-.549-.549.734-.734q-.522-.692-.449-1.451.069-.756.729-1.416l.992.992q-.407.406-.434.777a.79.79 0 0 0 .25.656q.281.282.594.277.31-.001.588-.279.257-.256.262-.564.004-.306-.242-.877a9 9 0 0 1-.368-.984 2.7 2.7 0 0 1-.121-.771 1.7 1.7 0 0 1 .135-.69 1.9 1.9 0 0 1 .442-.634q.575-.576 1.297-.571.723.006 1.425.58l.674-.674.545.546-.67.67q.63.777.601 1.582-.036.804-.729 1.497l-.992-.992q.403-.402.427-.811.018-.409-.346-.772-.302-.303-.632-.322a.78.78 0 0 0-.602.251"/><path fill="#c0ffbe" d="M133.188 75.257c11.682-17.649 9.55-33.417 6.805-40.856L115.03 30.82c7.648 8.344 4.651 31.365-5.747 40.064z"/><path fill="#78c476" d="M132.188 72.912c9.66-14.718 7.562-30.787 5.305-36.982l-18.799-2.697c6.301 6.943 3.285 29.722-5.305 36.982z"/><ellipse cx="130.259" cy="40.868" fill="#c0ffbe" rx="3.425" ry="4.981" transform="rotate(98.163 130.259 40.868)"/><ellipse cx="126.81" cy="64.907" fill="#c0ffbe" rx="3.425" ry="4.981" transform="rotate(98.163 126.81 64.907)"/><path fill="#f9ffed" d="M127.313 53.647q.612.088 1.019-.206.413-.284.836-1.058.423-.773.806-1.322.39-.548.839-.92a2.9 2.9 0 0 1 1.019-.526q.563-.157 1.293-.052 1.26.18 1.949 1.105t.63 2.286l1.595.229-.172 1.199-1.617-.232q-.377 1.299-1.401 1.917-1.017.62-2.47.41l.311-2.165q.894.129 1.387-.183.5-.303.59-.925.087-.615-.214-1.002-.295-.387-.906-.474-.566-.082-.956.199-.392.28-.876 1.121a13 13 0 0 1-.89 1.379 4.1 4.1 0 0 1-.856.871 2.7 2.7 0 0 1-.996.477q-.537.138-1.215.04-1.268-.181-1.943-1.09-.676-.908-.618-2.321l-1.484-.213.171-1.192 1.476.212q.385-1.512 1.423-2.228 1.044-.707 2.572-.488l-.31 2.166q-.888-.127-1.424.224-.531.36-.645 1.154-.095.66.193 1.091.296.432.884.517"/><path fill="#c0ffbe" d="M192.324 97.962c19.896 7.218 34.724 1.449 41.312-2.964l-2.371-25.107c-6.318 9.391-29.401 11.875-40.295 3.807z"/><path fill="#78c476" d="M194.369 96.44c16.573 5.939 31.702.132 37.195-3.514l-1.786-18.907c-5.272 7.753-28.124 10.162-37.195 3.513z"/><ellipse cx="225.067" cy="87.052" fill="#c0ffbe" rx="3.425" ry="4.981" transform="rotate(174.604 225.067 87.052)"/><ellipse cx="200.891" cy="89.335" fill="#c0ffbe" rx="3.425" ry="4.981" transform="rotate(174.604 200.891 89.335)"/><path fill="#f9ffed" d="M211.954 87.185q.058.614.439.941.374.336 1.225.565.85.23 1.474.474.624.25 1.091.6.46.357.751.867.284.51.353 1.245.12 1.266-.618 2.153-.737.887-2.074 1.149l.152 1.604-1.206.114-.154-1.627q-1.352-.06-2.192-.912-.84-.843-.978-2.305l2.178-.206q.085.9.503 1.306.412.416 1.038.356.618-.058.924-.442.306-.377.248-.992-.054-.57-.418-.883t-1.295-.589a13 13 0 0 1-1.549-.542 4.2 4.2 0 0 1-1.048-.627 2.8 2.8 0 0 1-.697-.857q-.259-.49-.323-1.172-.12-1.275.603-2.144.725-.87 2.112-1.145l-.141-1.492 1.199-.113.14 1.484q1.561.02 2.5.86.931.85 1.077 2.387l-2.179.206q-.084-.892-.551-1.332-.475-.432-1.273-.356-.664.063-1.015.444-.352.389-.296.98"/><path fill="#c0ffbe" d="M21.284 102.071c19.896 7.219 34.724 1.449 41.312-2.964l-2.371-25.106c-6.318 9.39-29.4 11.875-40.295 3.806z"/><path fill="#78c476" d="M23.33 100.549c16.573 5.94 31.702.132 37.195-3.514L58.74 78.128c-5.272 7.753-28.124 10.162-37.195 3.514z"/><ellipse cx="54.028" cy="91.16" fill="#c0ffbe" rx="3.425" ry="4.981" transform="rotate(174.604 54.028 91.16)"/><ellipse cx="29.851" cy="93.443" fill="#c0ffbe" rx="3.425" ry="4.981" transform="rotate(174.604 29.851 93.443)"/><path fill="#f9ffed" d="M40.914 91.294q.059.615.44.942.373.334 1.224.565.85.229 1.474.473.624.252 1.09.6.46.359.752.867.284.51.353 1.245.12 1.268-.618 2.153-.737.888-2.074 1.15l.152 1.604-1.206.114-.154-1.627q-1.351-.061-2.192-.912-.84-.844-.978-2.306l2.178-.205q.084.9.503 1.306.412.414 1.038.356.618-.06.924-.443.306-.377.248-.992-.054-.57-.418-.883t-1.295-.588a13 13 0 0 1-1.55-.542 4.2 4.2 0 0 1-1.047-.628 2.75 2.75 0 0 1-.697-.856q-.259-.49-.323-1.172-.12-1.275.603-2.145.724-.87 2.112-1.145l-.14-1.492 1.198-.113.14 1.484q1.56.02 2.5.861.93.85 1.077 2.387l-2.179.205q-.084-.891-.551-1.332-.474-.43-1.273-.356-.663.063-1.016.444-.35.39-.295.98"/><path fill="#c0ffbe" d="M72.43 157.732c-10.567-18.339-25.625-23.48-33.506-24.35l-14.362 20.729c10.882-3.111 30.136 9.861 33.27 23.051z"/><path fill="#78c476" d="M69.884 157.578c-8.848-15.22-24.16-20.526-30.71-21.276l-10.816 15.61c9.028-2.533 28.056 10.348 30.71 21.277z"/><ellipse cx="40.358" cy="144.979" fill="#c0ffbe" rx="3.425" ry="4.981" transform="rotate(34.715 40.358 144.979)"/><ellipse cx="60.32" cy="158.809" fill="#c0ffbe" rx="3.425" ry="4.981" transform="rotate(34.715 60.32 158.809)"/><path fill="#f9ffed" d="M50.472 153.327q.351-.508.27-1.003-.07-.498-.572-1.221t-.822-1.312a4.8 4.8 0 0 1-.448-1.162 2.9 2.9 0 0 1-.016-1.147q.112-.574.532-1.18.724-1.046 1.86-1.249 1.135-.202 2.326.458l.918-1.325.996.69-.93 1.343q.993.918 1.088 2.11.099 1.186-.737 2.394l-1.798-1.246q.514-.743.456-1.324-.048-.583-.564-.94-.51-.354-.992-.257-.477.091-.829.598-.325.471-.249.945.077.475.611 1.285.541.815.836 1.412.3.593.397 1.155.103.556-.019 1.104-.117.542-.507 1.105-.728 1.053-1.844 1.251-1.114.2-2.353-.485l-.853 1.232-.99-.686.85-1.225q-1.181-1.02-1.358-2.269-.165-1.25.714-2.519l1.799 1.246q-.51.737-.437 1.374.085.636.745 1.093.547.38 1.062.314.519-.071.858-.559"/><path fill="#c0ffbe" d="M209.757 168.211c-20.608-4.82-29.879-17.751-32.988-25.046l15.698-19.736c.164 11.317 18.143 26.004 31.676 25.195z"/><path fill="#78c476" d="M208.875 165.819c-17.127-4.075-26.629-17.202-29.239-23.257l11.822-14.863c.182 9.374 18.009 23.872 29.239 23.257z"/><ellipse fill="#c0ffbe" rx="3.425" ry="4.981" transform="rotate(218.499 118.795 37.719)scale(-1 1)"/><ellipse fill="#c0ffbe" rx="3.425" ry="4.981" transform="rotate(218.499 130.937 41.96)scale(-1 1)"/><path fill="#f9ffed" d="M195.654 152.919q.385-.483.337-.983-.037-.5-.491-1.256a15 15 0 0 1-.734-1.363 4.8 4.8 0 0 1-.37-1.189 3 3 0 0 1 .06-1.146q.15-.564.609-1.142.792-.995 1.938-1.123t2.291.61l1.003-1.261.948.754-1.017 1.279q.932.981.947 2.177.02 1.191-.893 2.34l-1.712-1.362q.563-.708.542-1.291-.01-.584-.5-.975-.487-.387-.973-.322-.482.059-.867.542-.356.448-.311.927.045.478.525 1.322.486.848.741 1.464.26.61.32 1.179a2.7 2.7 0 0 1-.092 1.1q-.153.534-.579 1.069-.797 1.002-1.922 1.127-1.125.126-2.316-.639l-.933 1.173-.942-.75.928-1.167q-1.111-1.095-1.204-2.353-.082-1.258.878-2.466l1.713 1.362q-.558.701-.526 1.342.043.64.67 1.139.522.415 1.039.384.523-.036.893-.502"/><path fill="#c0ffbe" d="M56.79 210.07c7.122-19.93 21.02-27.677 28.62-29.94l17.832 17.832c-11.263-1.119-27.891 15.082-28.62 28.619z"/><path fill="#78c476" d="M59.268 209.464c5.988-16.555 20.107-24.51 26.418-26.418l13.429 13.429c-9.335-.88-25.758 15.191-26.418 26.418z"/><ellipse fill="#c0ffbe" rx="3.425" ry="4.981" transform="rotate(135 3.313 113.724)scale(1 -1)"/><ellipse fill="#c0ffbe" rx="3.425" ry="4.981" transform="rotate(135 -8.83 118.753)scale(1 -1)"/><path fill="#f9ffed" d="M73.582 197.79q.436.436.939.446.502.02 1.303-.346a15 15 0 0 1 1.438-.575 4.8 4.8 0 0 1 1.223-.233q.582-.017 1.131.19.544.212 1.066.733.9.9.897 2.053-.002 1.154-.866 2.208l1.14 1.139-.857.857-1.155-1.156q-1.08.815-2.271.695-1.185-.114-2.223-1.152l1.547-1.548q.64.64 1.22.686.582.057 1.027-.387.439-.44.43-.93-.005-.486-.441-.923-.405-.405-.885-.414t-1.373.372a13 13 0 0 1-1.54.57 4.1 4.1 0 0 1-1.207.185 2.75 2.75 0 0 1-1.083-.216q-.511-.212-.996-.697-.905-.905-.902-2.037.002-1.131.897-2.228l-1.06-1.06.852-.851 1.054 1.054q1.215-.98 2.475-.93 1.26.06 2.35 1.152l-1.546 1.547q-.634-.633-1.275-.674-.64-.031-1.208.537-.47.47-.499.989-.022.523.398.944"/><circle cx="164.657" cy="129.162" r="6.227" fill="#ffd130" transform="rotate(60 164.657 129.162)"/><path fill="#bc991e" d="M163.898 130.749q.339-.196.427-.505.093-.306-.001-.862a10 10 0 0 1-.121-.984 3 3 0 0 1 .056-.794 1.9 1.9 0 0 1 .3-.667q.219-.3.625-.534.7-.405 1.41-.209.71.195 1.219.905l.886-.512.389.672-.9.519q.327.804.059 1.518-.263.712-1.071 1.179l-.701-1.215q.497-.287.62-.638a.79.79 0 0 0-.071-.698q-.199-.345-.503-.422-.3-.078-.64.118-.315.182-.399.476-.083.295.006.91.093.62.101 1.046.014.424-.082.776a1.75 1.75 0 0 1-.309.632 2 2 0 0 1-.591.498q-.703.407-1.401.215-.696-.192-1.226-.928l-.825.476-.386-.668.821-.474q-.406-.913-.171-1.683.242-.768 1.092-1.258l.701 1.215q-.493.284-.623.673-.122.39.135.836.213.369.528.474.318.102.646-.087"/><circle cx="116.688" cy="221.869" r="6.227" fill="#ffd130" transform="rotate(60 116.688 221.869)"/><path fill="#bc991e" d="M115.928 223.454q.34-.196.427-.505.094-.306-.001-.862a9 9 0 0 1-.12-.984 3 3 0 0 1 .055-.794 1.9 1.9 0 0 1 .3-.667q.22-.3.625-.534.7-.404 1.41-.209t1.219.905l.887-.512.388.672-.899.519q.326.804.058 1.518-.263.713-1.07 1.179l-.702-1.214q.498-.288.621-.639a.79.79 0 0 0-.072-.698q-.199-.345-.503-.421-.3-.08-.639.117-.315.182-.399.476-.084.295.006.91.092.62.101 1.046.012.424-.083.776-.09.35-.309.632a2 2 0 0 1-.591.498q-.704.407-1.4.215-.697-.192-1.227-.928l-.825.476-.385-.668.82-.474q-.407-.913-.171-1.683.243-.768 1.092-1.258l.701 1.215q-.493.284-.622.673-.123.39.134.836.213.369.528.474a.78.78 0 0 0 .646-.087"/><circle cx="117.984" cy="67.688" r="6.227" fill="#ffd130" transform="rotate(60 117.984 67.688)"/><path fill="#bc991e" d="M117.225 69.274q.34-.196.427-.504.093-.307-.001-.863a9 9 0 0 1-.12-.984 3 3 0 0 1 .055-.794q.084-.362.3-.666.22-.3.625-.535.7-.405 1.41-.209.71.195 1.219.905l.886-.512.389.672-.899.52q.325.802.058 1.518-.263.712-1.071 1.178l-.701-1.214q.497-.287.621-.639a.79.79 0 0 0-.072-.698q-.199-.345-.503-.421-.3-.08-.64.117-.314.181-.398.477-.084.294.006.91.092.62.101 1.045.012.425-.083.776-.09.35-.309.633a2 2 0 0 1-.591.498q-.704.406-1.401.215-.696-.192-1.226-.929l-.825.477-.386-.669.821-.473q-.406-.915-.171-1.684.242-.766 1.092-1.258l.701 1.215q-.493.285-.622.673-.123.39.134.836.213.369.528.474.318.102.646-.087"/><circle cx="233.072" cy="145.563" r="6.227" fill="#ffd130" transform="rotate(60 233.072 145.563)"/><path fill="#bc991e" d="M232.313 147.149q.34-.197.427-.504.093-.307-.001-.863a10 10 0 0 1-.121-.984 3 3 0 0 1 .056-.794q.084-.362.3-.666.219-.301.625-.535.7-.405 1.41-.209t1.219.905l.886-.512.389.672-.9.52q.326.802.059 1.518-.263.712-1.071 1.178l-.701-1.214q.498-.287.62-.639a.79.79 0 0 0-.071-.698q-.199-.345-.503-.421-.3-.08-.64.117-.315.181-.398.477-.084.295.006.91.092.619.1 1.045.014.425-.082.776a1.8 1.8 0 0 1-.309.633 2 2 0 0 1-.591.498q-.704.407-1.401.215-.696-.192-1.226-.929l-.825.477-.386-.669.821-.473q-.406-.915-.171-1.684.241-.767 1.092-1.258l.701 1.215q-.493.285-.623.673-.122.39.135.836.213.37.528.474.318.102.646-.087"/><circle cx="78.376" cy="97.668" r="6.227" fill="#ffd130" transform="rotate(60 78.376 97.668)"/><path fill="#bc991e" d="M77.617 99.253q.341-.197.427-.505.095-.306 0-.862a9 9 0 0 1-.12-.984 3 3 0 0 1 .054-.794q.084-.363.3-.667.22-.3.626-.535.7-.405 1.41-.208.71.195 1.218.904l.887-.511.388.672-.899.52q.326.802.059 1.517-.263.712-1.071 1.179l-.701-1.215q.497-.287.62-.638a.79.79 0 0 0-.072-.698q-.198-.345-.502-.422-.3-.078-.64.118-.315.181-.399.476t.006.91q.093.62.101 1.046.013.424-.082.776-.09.35-.31.632-.213.28-.59.498-.705.407-1.401.215t-1.227-.928l-.824.476-.386-.668.82-.474q-.405-.914-.17-1.683.242-.768 1.091-1.258l.702 1.215q-.495.285-.623.673-.123.39.135.835.213.37.528.475.318.1.645-.088"/><circle cx="170.379" cy="196.344" r="6.227" fill="#ffd130" transform="rotate(60 170.379 196.344)"/><path fill="#bc991e" d="M169.62 197.93q.34-.197.427-.504.094-.306 0-.863a9 9 0 0 1-.121-.984 3 3 0 0 1 .055-.794q.084-.362.301-.666.219-.3.625-.535.7-.404 1.41-.209t1.218.905l.887-.512.388.673-.899.519q.326.804.059 1.518-.263.712-1.071 1.179l-.701-1.215q.497-.287.62-.638a.79.79 0 0 0-.072-.699q-.199-.344-.502-.421-.3-.08-.64.117-.315.181-.399.477-.084.295.006.91.093.619.101 1.046.013.423-.082.776a1.8 1.8 0 0 1-.309.632q-.215.28-.591.498-.705.407-1.401.215t-1.227-.928l-.824.476-.386-.668.82-.474q-.405-.915-.17-1.684.242-.767 1.091-1.257l.701 1.214q-.493.285-.622.673-.123.391.135.836.213.37.527.474a.77.77 0 0 0 .646-.087"/><circle cx="121.103" cy="106.539" r="6.227" fill="#ffd130" transform="rotate(60 121.103 106.539)"/><path fill="#bc991e" d="M120.344 108.124q.34-.196.427-.505.094-.306-.001-.862a9 9 0 0 1-.12-.984 3 3 0 0 1 .055-.794 1.9 1.9 0 0 1 .3-.667q.22-.3.625-.534.7-.405 1.41-.209.71.195 1.219.905l.887-.512.388.672-.899.519q.326.804.059 1.518-.264.712-1.071 1.179l-.702-1.215q.498-.287.621-.638a.79.79 0 0 0-.072-.698q-.199-.345-.503-.422-.3-.078-.639.118-.315.182-.399.476-.084.295.006.91.092.62.101 1.046.012.424-.083.776-.09.35-.309.632a2 2 0 0 1-.591.498q-.704.407-1.4.215-.697-.192-1.227-.928l-.825.476-.385-.668.82-.474q-.406-.914-.171-1.683.243-.768 1.092-1.258l.701 1.215q-.493.284-.622.673-.123.39.134.836.213.369.528.474a.78.78 0 0 0 .646-.087"/></svg>