<?xml version="1.0" encoding="UTF-8" standalone="no"?>
<svg
   style="isolation:isolate"
   width="128"
   height="128"
   version="1.1"
   id="svg5"
   xml:space="preserve"
   sodipodi:docname="loot-throwable-mine.svg"
   inkscape:version="1.4.2 (f4327f4, 2025-05-13)"
   xmlns:inkscape="http://www.inkscape.org/namespaces/inkscape"
   xmlns:sodipodi="http://sodipodi.sourceforge.net/DTD/sodipodi-0.dtd"
   xmlns="http://www.w3.org/2000/svg"
   xmlns:svg="http://www.w3.org/2000/svg"><sodipodi:namedview
     id="namedview1"
     pagecolor="#ffffff"
     bordercolor="#000000"
     borderopacity="0.25"
     inkscape:showpageshadow="2"
     inkscape:pageopacity="0.0"
     inkscape:pagecheckerboard="0"
     inkscape:deskcolor="#d1d1d1"
     inkscape:zoom="4.5585938"
     inkscape:cx="67.34533"
     inkscape:cy="45.518423"
     inkscape:window-width="2560"
     inkscape:window-height="1369"
     inkscape:window-x="-8"
     inkscape:window-y="-8"
     inkscape:window-maximized="1"
     inkscape:current-layer="g6" /><defs
     id="defs5" /><g
     id="g6"
     transform="matrix(-3.4626972,0,0,-3.4626972,674.51032,1483.1406)"
     style="stroke-width:0.999163"><circle
       cx="-165.10526"
       cy="-414.38751"
       r="10.360002"
       fill="#3a3f44"
       stroke="#1a1d20"
       stroke-width="10"
       id="circle2"
       style="isolation:isolate;stroke-width:4.0075696;fill:none;fill-opacity:1;stroke-dasharray:none;stroke:#ffffff;stroke-opacity:1"
       transform="matrix(0.70710679,-0.70710679,-0.70710679,-0.70710679,0,0)" /><circle
       cx="-165.10526"
       cy="-414.38751"
       r="12.960648"
       fill="#3a3f44"
       stroke="#1a1d20"
       stroke-width="10"
       id="circle1"
       style="isolation:isolate;stroke-width:1.90025276;fill:none;fill-opacity:1;stroke-dasharray:none"
       transform="matrix(0.70710679,-0.70710679,-0.70710679,-0.70710679,0,0)" /><ellipse
       style="fill:none;fill-opacity:1;stroke:#1a1d20;stroke-width:1.58864598;stroke-linejoin:round;stroke-dasharray:none;stroke-opacity:1"
       id="path1782-6-8-2"
       cx="-165.10526"
       cy="-414.38751"
       rx="7.8721972"
       ry="7.8722057"
       transform="matrix(0.70710678,-0.70710678,-0.70710678,-0.70710678,0,0)" /><ellipse
       cx="-165.10526"
       cy="-414.38751"
       fill="#e23b2e"
       id="circle3-6-8"
       style="display:inline;isolation:isolate;fill:#ffffff;fill-opacity:1;stroke:#1a1d20;stroke-width:1.37855;stroke-dasharray:none;stroke-opacity:1"
       rx="3.3910286"
       ry="3.3910289"
       transform="matrix(0.70710678,-0.70710678,-0.70710678,-0.70710678,0,0)" /><ellipse
       cx="-165.10565"
       cy="-414.38791"
       fill="#ffd0cb"
       id="circle4-1-4"
       style="display:none;isolation:isolate;stroke-width:0.264362"
       rx="1.1327839"
       ry="1.132784"
       transform="matrix(0.70710678,-0.70710678,-0.70710678,-0.70710678,0,0)" /><path
       id="path7"
       style="isolation:isolate;fill:#ffffff;fill-opacity:1;stroke:#1a1d20;stroke-width:1.72664;stroke-linecap:round;stroke-linejoin:round;stroke-dasharray:none;stroke-opacity:1"
       d="m 165.27793,398.77523 a 13.726372,13.607111 44.997329 0 0 -2.15002,2.82528 l 8.00789,4.65004 a 4.4559645,4.4172485 44.997329 0 1 0.69827,-0.91967 4.4559645,4.4172485 44.997329 0 1 0.91379,-0.69827 l -4.64732,-8.0159 a 13.726372,13.607111 44.997329 0 0 -2.82283,2.15773 z" /><path
       id="path8"
       style="isolation:isolate;fill:#ffffff;fill-opacity:1;stroke:#1a1d20;stroke-width:1.72664;stroke-linecap:round;stroke-linejoin:round;stroke-dasharray:none;stroke-opacity:1"
       d="m 187.25721,398.78597 a 13.607111,13.726372 44.997329 0 0 -2.82528,-2.15002 l -4.65004,8.00789 a 4.4172485,4.4559645 44.997329 0 1 0.91967,0.69826 4.4172485,4.4559645 44.997329 0 1 0.69827,0.91379 l 8.0159,-4.64731 a 13.607111,13.726372 44.997329 0 0 -2.15773,-2.82283 z" /><path
       id="path9"
       style="isolation:isolate;fill:#ffffff;fill-opacity:1;stroke:#1a1d20;stroke-width:1.72664;stroke-linecap:round;stroke-linejoin:round;stroke-dasharray:none;stroke-opacity:1"
       d="m 187.24646,420.76525 a 13.726372,13.607111 44.997329 0 0 2.15003,-2.82528 l -8.0079,-4.65004 a 4.4559645,4.4172485 44.997329 0 1 -0.69826,0.91967 4.4559645,4.4172485 44.997329 0 1 -0.91379,0.69827 l 4.64731,8.0159 a 13.726372,13.607111 44.997329 0 0 2.82283,-2.15773 z" /><path
       id="path10"
       style="isolation:isolate;fill:#ffffff;fill-opacity:1;stroke:#1a1d20;stroke-width:1.72664;stroke-linecap:round;stroke-linejoin:round;stroke-dasharray:none;stroke-opacity:1"
       d="m 165.28114,420.75449 a 13.607111,13.726372 44.997329 0 0 2.82528,2.15002 l 4.65004,-8.00789 a 4.4172485,4.4559645 44.997329 0 1 -0.91967,-0.69827 4.4172485,4.4559645 44.997329 0 1 -0.69827,-0.91379 l -8.0159,4.64732 a 13.607111,13.726372 44.997329 0 0 2.15773,2.82283 z" /><path
       id="path4-3"
       style="isolation:isolate;fill:none;fill-opacity:1;stroke:#1a1d20;stroke-width:1.56932;stroke-linecap:round;stroke-linejoin:round;stroke-dasharray:none;stroke-opacity:1"
       d="m 165.27793,398.77523 a 13.726372,13.607111 44.997329 0 0 -2.15002,2.82528 l 8.00789,4.65004 a 4.4559645,4.4172485 44.997329 0 1 0.69827,-0.91967 4.4559645,4.4172485 44.997329 0 1 0.91379,-0.69827 l -4.64732,-8.0159 a 13.726372,13.607111 44.997329 0 0 -2.82283,2.15773 z" /><path
       id="path5-3"
       style="isolation:isolate;fill:none;fill-opacity:1;stroke:#1a1d20;stroke-width:1.56932;stroke-linecap:round;stroke-linejoin:round;stroke-dasharray:none;stroke-opacity:1"
       d="m 187.25721,398.78597 a 13.607111,13.726372 44.997329 0 0 -2.82528,-2.15002 l -4.65004,8.00789 a 4.4172485,4.4559645 44.997329 0 1 0.91967,0.69826 4.4172485,4.4559645 44.997329 0 1 0.69827,0.91379 l 8.0159,-4.64731 a 13.607111,13.726372 44.997329 0 0 -2.15773,-2.82283 z" /><path
       id="path6"
       style="isolation:isolate;fill:none;fill-opacity:1;stroke:#1a1d20;stroke-width:1.56932;stroke-linecap:round;stroke-linejoin:round;stroke-dasharray:none;stroke-opacity:1"
       d="m 187.24646,420.76525 a 13.726372,13.607111 44.997329 0 0 2.15003,-2.82528 l -8.0079,-4.65004 a 4.4559645,4.4172485 44.997329 0 1 -0.69826,0.91967 4.4559645,4.4172485 44.997329 0 1 -0.91379,0.69827 l 4.64731,8.0159 a 13.726372,13.607111 44.997329 0 0 2.82283,-2.15773 z" /><path
       id="path14"
       style="isolation:isolate;fill:none;fill-opacity:1;stroke:#1a1d20;stroke-width:1.56932;stroke-linecap:round;stroke-linejoin:round;stroke-dasharray:none;stroke-opacity:1"
       d="m 165.28114,420.75449 a 13.607111,13.726372 44.997329 0 0 2.82528,2.15002 l 4.65004,-8.00789 a 4.4172485,4.4559645 44.997329 0 1 -0.91967,-0.69827 4.4172485,4.4559645 44.997329 0 1 -0.69827,-0.91379 l -8.0159,4.64732 a 13.607111,13.726372 44.997329 0 0 2.15773,2.82283 z" /></g></svg>
