<svg version="1.1" width="352" height="352" viewBox="50.0 50.0 250.0 250.0" fill="none" stroke="none" stroke-linecap="square" stroke-miterlimit="10" xmlns:xlink="http://www.w3.org/1999/xlink" xmlns="http://www.w3.org/2000/svg"><clipPath id="p.0"><path d="m0 0l352.0 0l0 352.0l-352.0 0l0 -352.0z" clip-rule="nonzero"/></clipPath><g clip-path="url(#p.0)"><path fill="#000000" fill-opacity="0.0" d="m0 0l352.0 0l0 352.0l-352.0 0z" fill-rule="evenodd"/><path fill="#ffffff" d="m111.93357 176.002c0 -26.125916 15.862305 -49.635323 40.08869 -59.415176l15.363876 38.05899c-8.7079315 3.515274 -14.40947 11.965485 -14.40947 21.356186z" fill-rule="evenodd"/><path fill="#ffffff" d="m240.0811 176.002c0 -26.125916 -15.862305 -49.635323 -40.0887 -59.415176l-15.363876 38.05899c8.707947 3.515274 14.409485 11.965485 14.409485 21.356186z" fill-rule="evenodd"/><path fill="#ffffff" d="m140.37555 229.25444c21.85785 14.625336 50.43318 14.408722 72.0668 -0.54629517l-23.185059 -33.539032c-7.867279 5.438553 -18.258987 5.5173187 -26.20781 0.19866943z" fill-rule="evenodd"/><path fill="#ffffff" d="m164.94069 176.002c0 -6.1119385 4.954712 -11.066635 11.06665 -11.066635c2.9350586 0 5.749893 1.1659393 7.825302 3.2413483c2.0753937 2.0753937 3.2413483 4.8902435 3.2413483 7.825287c0 6.1119537 -4.954712 11.06665 -11.06665 11.06665c-6.1119385 0 -11.06665 -4.9546967 -11.06665 -11.06665z" fill-rule="evenodd"/><path fill="#ffffff" d="m111.93357 176.002c0 -35.386948 28.686806 -64.07375 64.07377 -64.07375c16.993423 0 33.290833 6.7506027 45.30699 18.766762c12.016159 12.016174 18.76677 28.313583 18.76677 45.30699c0 35.386963 -28.686798 64.07378 -64.07376 64.07378c-35.386963 0 -64.07377 -28.686813 -64.07377 -64.07378zm11.77932 0c0 28.881424 23.413025 52.29445 52.29445 52.29445c28.881424 0 52.294434 -23.413025 52.294434 -52.29445c0 -28.881409 -23.41301 -52.294434 -52.294434 -52.294434c-28.881424 0 -52.29445 23.413025 -52.29445 52.294434z" fill-rule="evenodd"/><path fill="#ffffff" d="m89.9783 176.0098c0 -47.513885 38.51761 -86.031494 86.031494 -86.031494c22.81697 0 44.699417 9.064003 60.83345 25.198044c16.134033 16.134033 25.198044 38.01648 25.198044 60.83345c0 47.513885 -38.51761 86.031494 -86.031494 86.031494c-47.513885 0 -86.031494 -38.51761 -86.031494 -86.031494zm11.22023 0c0 41.317123 33.49414 74.811264 74.811264 74.811264c41.317123 0 74.811264 -33.49414 74.811264 -74.811264c0 -41.317123 -33.49414 -74.811264 -74.811264 -74.811264c-41.317123 0 -74.811264 33.49414 -74.811264 74.811264z" fill-rule="evenodd"/><path fill="#ffffff" d="m185.25246 73.74733l0 25.688797l-18.504349 0l0 -25.688797z" fill-rule="evenodd"/><path fill="#ffffff" d="m185.25246 252.55856l0 25.688782l-18.504349 0l0 -25.688782z" fill-rule="evenodd"/><path fill="#ffffff" d="m278.2608 185.26265l-25.688812 0l0 -18.504364l25.688812 0z" fill-rule="evenodd"/><path fill="#ffffff" d="m99.44956 185.26265l-25.68879 0l0 -18.504364l25.68879 0z" fill-rule="evenodd"/></g></svg>