<svg width="129" height="129" xmlns="http://www.w3.org/2000/svg" fill="none" viewBox="0 0 129 129"><path fill="#603008" d="M33.051 47.085c0 17.075 13.843 30.918 30.92 30.917 17.076 0 30.92-13.844 30.92-30.92S81.047 16.164 63.97 16.165s-30.92 13.844-30.92 30.92"/><path fill="#000" fill-rule="evenodd" d="M91.308 47.083c0-15.1-12.24-27.339-27.34-27.338S36.63 31.985 36.63 47.085c0 15.098 12.24 27.338 27.34 27.337 15.099 0 27.34-12.24 27.34-27.34M63.97 12.584c19.055-.001 34.5 15.444 34.5 34.497s-15.445 34.5-34.5 34.5c-19.053 0-34.5-15.444-34.5-34.497 0-19.054 15.447-34.5 34.5-34.5" clip-rule="evenodd"/><path fill="#008c88" fill-rule="evenodd" d="M64.198 113.295c-7.057 0-13.937-.423-19.734-3.566-8.272-4.484-15.077-11.81-18.672-20.587-1.961-4.786-1.996-10.338-1.996-15.83 0-5.016.346-10.88 1.996-15.453 2.566-7.114 8.173-12.772 13.783-17.636 7.05-6.114 14.819-10.573 24.623-10.574 9.38 0 17.453 3.45 24.358 9.102 9.747 7.978 16.6 20.344 16.6 33.584 0 7.057-2.542 13.103-5.685 18.9-3.87 7.14-7.205 13.833-14.4 17.616-5.686 2.991-14.001 4.443-20.873 4.444" clip-rule="evenodd"/><path fill="#008883" d="M38.536 42.614c.855.144 2.339-.688 3.184-1.411.677-.579 2.367-2.024 2.146-2.797-1.58-4.244-3.33-8.343-6.18-11.676-.864-1.01-1.77-2.071-2.72-3.009-.517-.606-1.207-1.24-2.358-1.218s-2.545 1.303-3.56 2.17c-.845.723-2.707 2.14-3.252 3.044-.46.83.656 1.45 1.001 1.854 2.938 3.608 5.667 7.482 8.605 11.09.82.96 1.683 1.796 3.134 1.953"/><path fill="#00706c" d="M38.537 42.613c.855.144 2.339-.688 3.184-1.411.676-.579 2.367-2.024 2.146-2.797-.218-.426-.308-.873-.526-1.3-.087-.1-1.02.349-1.105.42-2.034 1.216-4.965-1.698-6.304-3.264-1.294-1.341-2.546-2.806-4.01-4.003-1.591-1.349-3.353-2.553-5.41-3.417-.294.34-.548.557-.63.802-.461.831.654 1.45 1 1.855 2.938 3.607 5.667 7.482 8.605 11.09.736 1.031 1.598 1.868 3.05 2.025"/><path fill="#009691" d="M23.257 61.4c.566 2.01 1.1 7.796 1.1 7.796 0 .002.749 1.443 1.171 1.082 0 0 .165-1.465.226-2.25.038-1.495 1.652-6.438 4.103-9.392 2.012-2.141 4.29-3.66 5.185-5.01 1.22-1.483 2.5-2.724 3.865-4.038a65 65 0 0 1 4.988-4.265l2.233-1.91c1.225-.786 1.228-.82 2.387-1.52.833-.565 1.313-1.25 1.916-1.912.774-.808 2.398-2.415 3.472-3.042 1.075-.626 3.183-1.374 4.738-1.952.868-.012 5.71-1.47 6.363-1.735 1.05-.313-5.206-3.762-5.206-3.762s-2.925-1.852-4.409-2.047c-1.64-.207-3.27.455-4.67 1.213-.906.482-1.739 1.048-2.644 1.53-3.55 2.01-6.75 4.6-9.733 7.445-.773.807-1.534 1.458-2.235 2.35-1.293 1.398-2.525 3.038-3.962 4.267-2.718 2.47-6.243 4.167-8.514 6.988-1.136 1.41-1.922 3.4-1.357 5.259.36 1.448.602 3.55.983 4.905"/><path fill="#00b3ad" d="M16.206 36.355c.3.18.77.215 1.155.323.855.144 1.668.41 2.481.676 1.585.656 3.044 1.506 4.293 2.624.69.635 1.378 1.27 1.983 1.977.648.757 1.254 1.638 1.902 2.395.518.606 1.037 1.212 1.386 1.963.304.526.608 1.053.785 1.602.22.599.439 1.198.743 1.725a5.64 5.64 0 0 0 1.77 2.07c1.247.945 3.89.783 6.01-.504.677-.405 1.312-.86 1.776-1.345.464-.484.885-1.02 1.306-1.554.21-.267.673-.925 1.056-.99 1.106-.247 2.376-1.158 3.047-2.256.208-.44.332-.81.413-1.228.1-.513.13-.497 1.245-1.225-.593.333-1.637.424-1.806.568-.507.434-.93.795-1.48 1.179-.932.622-1.456-.504-1.758-.858-.864-1.01-1.855-1.998-2.72-3.008-.906-1.06-1.854-1.998-2.846-2.986-.603-.534-1.078-1.09-1.68-1.623-.733-.685-1.55-1.298-2.323-1.86-1.59-1.176-3.435-2.135-5.152-3.115-1.072-.57-2.144-1.138-3.258-1.585-.729-.339-1.585-.655-2.609-.654-2.855.255-6.687 4.845-6.196 6.96-.037.47.22.599.477.729"/><path fill="url(#a)" d="M25.469 72.086c0 21.263 17.237 38.5 38.5 38.499s38.5-17.238 38.5-38.501-17.237-38.5-38.5-38.5c-21.263.002-38.5 17.24-38.5 38.502"/><path fill="#ff881b" d="M66.562 114.198c-.799 1.707-3.225 1.707-4.024 0l-3.722-7.95c-.69-1.474.386-3.164 2.012-3.164h7.444c1.626 0 2.701 1.69 2.012 3.164z"/><path fill="#000" fill-rule="evenodd" d="m60.325 105.541 3.722 7.951c.2.426.806.426 1.006 0l3.722-7.951a.556.556 0 0 0-.503-.791h-7.444a.556.556 0 0 0-.503.791m2.213 8.657c.799 1.707 3.225 1.707 4.024 0l3.722-7.95c.69-1.474-.386-3.164-2.012-3.164h-7.444c-1.626 0-2.702 1.69-2.012 3.164z" clip-rule="evenodd"/><path fill="#008883" d="M23.685 103.081c0 6.783 5.5 12.283 12.284 12.284s12.285-5.496 12.285-12.28-5.5-12.283-12.285-12.284-12.285 5.496-12.285 12.28"/><mask id="b" width="23" height="23" x="24" y="91" maskUnits="userSpaceOnUse" style="mask-type:alpha"><path fill="#008883" d="M24.098 102.459c0 6.195 5.023 11.219 11.22 11.22s11.221-5.02 11.221-11.216-5.024-11.22-11.22-11.22c-6.198-.002-11.221 5.02-11.221 11.216"/></mask><g mask="url(#b)"><path fill="#00826a" d="M13.03 126.943h43.923V83.021H13.031z"/><mask id="c" width="44" height="44" x="13" y="83" maskUnits="userSpaceOnUse" style="mask-type:alpha"><path fill="#848484" d="M13.03 126.943h43.923V83.021H13.031z"/></mask><g mask="url(#c)"><path fill="#112e2e" d="M34.216 113.913c.622-.2 1.291-.246 1.888-.513.596-.266 1.127-.859 1.018-1.505-.14-.819-1.203-1.247-1.31-2.071-.125-.957 1.129-1.747.882-2.678-.127-.469-.623-.764-1.103-.794-.48-.029-.955.153-1.391.366s-.861.462-1.332.578c-1.131.279-2.288-.242-3.345-.731s-2.244-.97-3.354-.615c-.783.251-1.434.899-2.257.949-.56.034-1.096-.221-1.573-.519-.478-.299-.937-.638-1.472-.808s-1.183-.129-1.576.272c-.413.422-.409 1.148-.072 1.632.336.485.936.744 1.525.772.467.025.94-.075 1.398.01.459.085.928.441.899.911-.013.209-.124.4-.142.608-.049.537.525.94 1.061 1.005.732.089 1.451-.209 2.13-.496.68-.288 1.401-.58 2.132-.477s1.433.76 1.311 1.486c-.07.405-.371.729-.688.992-.316.264-.667.495-.905.83s-.33.815-.1 1.152c.342.489 1.102.375 1.631.095.321-.17.714-.383 1.018-.185.245.158.282.509.206.79s-.249.54-.313.823a1.31 1.31 0 0 0 .636 1.406c1.047.567 1.894-.402 1.884-1.396s.27-1.553 1.314-1.889M29.923 95.06c.622.2 1.291.246 1.888.513.596.266 1.128.86 1.018 1.505-.14.82-1.203 1.247-1.31 2.071-.125.957 1.129 1.747.882 2.678-.127.469-.623.764-1.103.794s-.955-.153-1.391-.366-.861-.462-1.332-.578c-1.131-.278-2.287.242-3.345.731-1.057.49-2.244.97-3.354.615-.783-.251-1.434-.899-2.257-.949-.56-.034-1.096.221-1.573.519-.478.299-.937.638-1.472.808s-1.183.129-1.576-.272c-.413-.422-.409-1.147-.072-1.632s.936-.744 1.525-.772c.467-.025.94.075 1.398-.01.459-.085.928-.441.899-.911-.013-.209-.124-.4-.142-.608-.049-.537.526-.94 1.061-1.005.732-.089 1.451.209 2.13.496.68.288 1.401.58 2.132.478.731-.103 1.434-.76 1.311-1.487-.07-.405-.371-.729-.688-.992-.316-.264-.667-.495-.905-.83s-.33-.814-.1-1.152c.342-.49 1.102-.374 1.631-.094.321.17.714.382 1.018.185.245-.16.282-.51.206-.79-.076-.282-.249-.54-.313-.824a1.31 1.31 0 0 1 .636-1.406c1.047-.567 1.894.402 1.884 1.396s.27 1.553 1.314 1.89m11.127 17.201c-.622-.2-1.292-.246-1.888-.513s-1.128-.86-1.019-1.505c.14-.819 1.204-1.247 1.311-2.071.125-.957-1.129-1.747-.882-2.679.127-.468.623-.763 1.102-.793s.955.153 1.392.366.86.462 1.332.577c1.13.279 2.287-.241 3.344-.73 1.058-.49 2.245-.97 3.355-.615.783.251 1.433.899 2.257.949.56.034 1.096-.221 1.573-.52.477-.298.937-.638 1.472-.807s1.183-.129 1.575.272c.414.422.41 1.147.073 1.632s-.936.744-1.526.772c-.466.025-.94-.075-1.398.009-.458.085-.927.441-.898.912.013.208.123.4.142.607.049.538-.526.94-1.062 1.005-.732.09-1.45-.208-2.13-.496-.679-.287-1.4-.579-2.132-.477-.73.103-1.433.761-1.31 1.487.07.404.371.728.687.992.317.263.667.495.905.83.239.335.331.814.1 1.152-.341.489-1.102.374-1.63.094-.322-.169-.714-.382-1.018-.185-.245.159-.283.509-.206.79s.249.54.313.824a1.31 1.31 0 0 1-.636 1.406c-1.048.566-1.895-.402-1.885-1.396.01-.995-.269-1.553-1.314-1.889m-.328-18.192c-.622.199-1.29.245-1.887.512s-1.128.86-1.019 1.506c.14.818 1.204 1.246 1.31 2.07.126.957-1.128 1.747-.881 2.679.127.468.623.763 1.102.793s.955-.153 1.392-.366c.436-.212.86-.462 1.331-.577 1.131-.279 2.288.241 3.345.73 1.057.49 2.245.97 3.355.615.783-.251 1.433-.899 2.257-.949.56-.034 1.095.221 1.573.52.477.298.937.638 1.472.807s1.183.129 1.575-.272c.413-.422.409-1.147.073-1.632-.337-.485-.936-.744-1.526-.772-.466-.025-.94.075-1.398-.01-.459-.084-.927-.44-.898-.91.013-.21.123-.401.142-.608.048-.538-.526-.94-1.062-1.005-.732-.09-1.45.208-2.13.496-.679.287-1.401.58-2.132.477-.73-.103-1.433-.76-1.31-1.487.07-.404.37-.728.687-.992.317-.263.667-.495.905-.83.239-.335.331-.814.1-1.151-.341-.49-1.102-.375-1.63-.095-.322.17-.714.382-1.018.185-.245-.159-.283-.51-.207-.79.076-.281.25-.54.313-.824a1.31 1.31 0 0 0-.636-1.406c-1.047-.566-1.894.402-1.884 1.396.01.995-.269 1.553-1.314 1.89"/><path fill="#52ded6" d="M31.449 119.539c.026.43.183.843.452 1.184s.636.594 1.054.726l.315.099c.262.082.553.163.805.069.448-.166.537-.807.274-1.196-.263-.39-.743-.585-1.205-.71-.462-.126-.95-.218-1.34-.488-.389-.269-.647-.804-.432-1.224s.759-.525 1.217-.636.995-.377 1.01-.846c.01-.376-.358-.679-.736-.742s-.76.05-1.13.153c-.368.102-.76.196-1.13.099-.494-.132-.835-.58-1.046-1.039s-.332-.959-.6-1.39c-.27-.43-.733-.797-1.243-.749-.442.042-.81.381-1.25.442-.46.064-.914-.192-1.224-.531-.311-.339-.513-.761-.753-1.15-.3-.49-.676-.952-1.178-1.239s-1.149-.375-1.668-.118c-.518.256-.841.903-.625 1.434.163.402.565.652.878.955.312.302.552.801.297 1.158-.273.387-.86.298-1.338.294a1.68 1.68 0 0 0-1.036.301c-.289.223-.465.608-.367.957.088.316.368.539.642.725s.564.367.718.652a.637.637 0 0 1-.291.88c-.289.138-.574.435-.81.636-.255.217-.442.536-.398.862.064.482.603.788 1.096.782s.951-.243 1.392-.461c.442-.219.916-.435 1.408-.392 1.057.088 1.659 1.244 2.609 1.705a2.19 2.19 0 0 0 2.366-.343c.416-.38.657-.906 1.013-1.34s.924-.793 1.47-.631c.462.139.746.625.785 1.098zm10.238-8.586c.026.43.184.843.452 1.184.27.341.636.594 1.054.726l.315.099c.262.082.553.163.805.069.448-.166.538-.807.274-1.196-.263-.39-.743-.585-1.205-.71s-.95-.218-1.339-.488c-.39-.269-.648-.804-.432-1.224.215-.42.758-.525 1.216-.636s.995-.377 1.01-.846c.01-.376-.358-.679-.736-.742s-.76.05-1.129.153c-.37.102-.76.196-1.13.099-.494-.132-.836-.58-1.047-1.039s-.332-.959-.6-1.39c-.27-.43-.733-.797-1.242-.749-.443.042-.81.381-1.25.442-.46.064-.914-.192-1.225-.531-.31-.339-.513-.761-.753-1.15-.3-.49-.676-.952-1.178-1.239s-1.149-.375-1.667-.118c-.519.256-.842.903-.626 1.434.163.402.565.652.878.955s.553.801.297 1.158c-.273.387-.859.298-1.338.294-.37-.016-.735.09-1.036.302-.288.222-.464.607-.367.956.088.316.368.539.642.725.275.186.564.367.718.652a.637.637 0 0 1-.29.88c-.29.138-.575.435-.81.636-.256.217-.442.536-.398.862.063.482.602.788 1.096.782.493-.007.95-.243 1.392-.461s.915-.435 1.407-.392c1.058.089 1.66 1.244 2.609 1.705a2.19 2.19 0 0 0 2.366-.343c.416-.38.657-.906 1.013-1.34s.925-.793 1.47-.631c.462.139.746.625.785 1.098zm-6.934-20.197a2.1 2.1 0 0 1 .453-1.185 2.2 2.2 0 0 1 1.053-.726l.316-.099c.262-.081.552-.163.805-.068.447.165.537.807.274 1.196-.263.39-.743.585-1.206.71s-.95.217-1.339.487-.648.805-.432 1.224c.216.42.759.526 1.216.636.458.112.996.378 1.011.847.01.376-.358.678-.736.741-.379.063-.76-.05-1.13-.152s-.76-.197-1.13-.1c-.494.133-.836.58-1.047 1.04-.21.458-.331.958-.6 1.389-.269.43-.732.797-1.242.75-.442-.042-.81-.381-1.25-.442-.46-.064-.914.191-1.225.53-.31.34-.513.762-.753 1.15-.3.49-.675.952-1.177 1.24-.503.286-1.15.375-1.668.118-.519-.257-.841-.904-.626-1.434.164-.403.565-.653.878-.955s.553-.802.298-1.158c-.273-.387-.86-.298-1.338-.295-.37.017-.735-.09-1.037-.301-.288-.223-.464-.608-.367-.957.089-.315.369-.538.643-.724s.564-.368.718-.653a.64.64 0 0 0-.291-.88c-.289-.137-.574-.434-.81-.635-.255-.218-.442-.536-.398-.863.063-.481.603-.788 1.096-.781.493.006.951.242 1.392.46.441.22.916.436 1.408.392 1.057-.088 1.659-1.244 2.608-1.705a2.19 2.19 0 0 1 2.367.344c.416.38.657.905 1.013 1.34.356.433.924.792 1.47.63.462-.138.746-.624.784-1.097z"/><path fill="#52ded6" d="M29.34 102.187a1.36 1.36 0 0 1 .276-.745c.163-.214.387-.373.641-.456l.192-.062c.16-.051.336-.103.49-.043.273.104.327.507.167.752-.16.244-.453.367-.734.446-.281.078-.578.137-.815.306-.237.17-.394.506-.263.77s.462.33.74.4c.279.069.606.237.616.531.006.237-.219.427-.449.466s-.462-.031-.687-.095c-.225-.065-.463-.124-.688-.062-.3.082-.509.364-.637.652-.129.289-.202.603-.366.874-.163.27-.445.501-.756.471-.269-.026-.492-.24-.76-.278-.28-.04-.557.12-.746.334-.19.213-.312.478-.459.723-.182.307-.41.598-.716.778s-.7.236-1.015.075c-.316-.161-.512-.568-.381-.902.1-.253.344-.41.534-.6s.337-.503.181-.728c-.166-.243-.523-.187-.814-.185a1 1 0 0 1-.63-.189c-.177-.14-.284-.382-.224-.602.053-.198.224-.338.39-.455.168-.117.344-.231.438-.41a.41.41 0 0 0-.177-.553c-.176-.087-.35-.273-.493-.4-.156-.136-.27-.337-.242-.542.038-.303.366-.495.666-.491s.58.152.848.29.557.273.857.246c.643-.056 1.01-.782 1.588-1.072a1.29 1.29 0 0 1 1.44.216c.253.238.4.569.617.842s.562.498.894.396c.282-.086.454-.392.478-.689zm13.489 17.022a2.1 2.1 0 0 1-.453 1.184 2.2 2.2 0 0 1-1.053.726l-.316.099c-.262.082-.552.163-.804.069-.448-.166-.538-.807-.275-1.196.263-.39.743-.585 1.206-.711.462-.125.95-.217 1.339-.487.389-.269.648-.804.432-1.224s-.759-.525-1.216-.636c-.458-.111-.996-.378-1.011-.846-.01-.376.358-.679.736-.742.379-.063.76.05 1.13.152.369.103.76.197 1.13.099.494-.131.836-.579 1.047-1.038s.332-.959.6-1.39c.269-.43.732-.797 1.242-.749.442.041.81.381 1.25.442.46.064.914-.192 1.225-.531.31-.339.513-.761.753-1.15.3-.49.675-.952 1.178-1.239s1.148-.375 1.667-.119c.519.257.841.904.626 1.435-.164.402-.565.652-.878.954-.313.303-.553.802-.298 1.158.273.388.86.298 1.338.295.37-.017.735.09 1.037.301.288.223.464.608.367.957-.089.316-.369.539-.643.724-.274.186-.564.368-.718.653a.636.636 0 0 0 .291.88c.289.138.574.435.81.636.255.217.442.536.398.862-.063.482-.603.788-1.096.782s-.95-.243-1.392-.461-.916-.435-1.408-.392c-1.057.088-1.659 1.244-2.608 1.705a2.19 2.19 0 0 1-2.367-.343c-.416-.38-.657-.906-1.013-1.34s-.924-.793-1.47-.631c-.462.138-.746.625-.784 1.098zm-3.965-29.114a2.1 2.1 0 0 0-.453-1.184 2.2 2.2 0 0 0-1.053-.727l-.315-.098c-.262-.082-.553-.163-.805-.069-.448.165-.538.807-.275 1.196.264.39.743.585 1.206.71s.95.218 1.339.487c.39.27.648.805.432 1.225-.215.42-.758.525-1.216.636s-.995.377-1.01.846c-.01.376.357.678.736.742.378.063.76-.05 1.129-.153.369-.102.76-.197 1.13-.099.494.132.836.58 1.047 1.039s.332.959.6 1.39c.269.43.732.796 1.242.749.443-.042.81-.381 1.25-.442.46-.064.914.191 1.225.53.31.34.513.762.753 1.151.3.49.676.952 1.178 1.239s1.149.375 1.667.118c.519-.256.842-.903.626-1.434-.164-.402-.565-.652-.878-.955s-.553-.801-.297-1.158c.273-.387.859-.298 1.338-.294.37.016.734-.09 1.036-.302.288-.223.464-.608.367-.957-.089-.315-.368-.538-.643-.724-.274-.186-.564-.367-.717-.652a.637.637 0 0 1 .29-.88c.29-.138.574-.435.81-.636.255-.217.442-.536.398-.862-.063-.482-.603-.789-1.096-.782-.493.006-.95.242-1.392.461-.441.218-.916.435-1.408.391-1.057-.088-1.658-1.243-2.608-1.705a2.19 2.19 0 0 0-2.367.344c-.415.38-.657.906-1.013 1.34s-.924.792-1.47.63c-.461-.138-.745-.624-.784-1.097z"/><path fill="#112e2e" d="M45.54 86.764c-.31.064-.628.165-.86.384-.233.219-.358.582-.22.871.192.405.767.483 1 .862.318.507-.142 1.146-.143 1.745a1.13 1.13 0 0 0 .602.996 1.1 1.1 0 0 0 1.152-.08c.384-.275.563-.774.934-1.063.52-.408 1.283-.315 1.872-.019.589.297 1.079.763 1.645 1.098.565.335 1.29.53 1.88.234.481-.24.76-.74 1.054-1.182.294-.443.703-.893 1.234-.925.658-.04 1.336.567 1.906.237.377-.221.448-.791.204-1.155-.243-.364-.71-.525-1.144-.497-.434.03-.841.222-1.22.435-.132.09-.281.151-.438.181a.37.37 0 0 1-.395-.2c-.077-.202.097-.411.115-.626.033-.377-.426-.627-.797-.564-.37.063-.67.315-1 .49-.276.143-.643.24-.936.087-.265-.137-.329-.47-.577-.631-.372-.246-.828-.053-1.245-.11-.767-.103-1.52-.45-2.302-.577a6.4 6.4 0 0 0-2.32.009m-10.114 14.755c-.302-.1-.627-.172-.938-.099-.31.074-.6.325-.626.645-.036.447.424.802.436 1.247.021.597-.696.921-.997 1.44a1.13 1.13 0 0 0 .023 1.163 1.11 1.11 0 0 0 1.038.507c.47-.047.875-.389 1.34-.453.655-.094 1.27.368 1.63.919.363.551.554 1.199.877 1.772.322.574.852 1.105 1.51 1.144.537.032 1.03-.261 1.505-.497.476-.236 1.055-.422 1.53-.184.59.293.874 1.159 1.533 1.158.438-.003.783-.461.754-.898s-.352-.81-.743-1.002c-.39-.193-.838-.229-1.273-.233a1.2 1.2 0 0 1-.47-.063.38.38 0 0 1-.241-.371c.034-.213.288-.307.412-.484.217-.31-.056-.756-.408-.887-.353-.131-.74-.062-1.11-.077-.312-.013-.679-.112-.856-.391-.161-.251-.05-.572-.183-.835-.2-.399-.692-.461-1.024-.719-.613-.473-1.09-1.149-1.706-1.65a6.4 6.4 0 0 0-2.013-1.152"/><path fill="#2ab79d" d="M25.048 112.207c.657-.053 1.317.076 1.976.044.66-.033 1.369-.282 1.693-.869a1.34 1.34 0 0 0-.068-1.403 1.28 1.28 0 0 0-1.27-.548c-.45.074-.833.384-1.276.489-.715.169-1.431-.212-2.076-.57-.645-.359-1.38-.718-2.083-.508-.664.199-1.1.849-1.737 1.117-.963.404-2.022-.165-3.032-.429-.565-.148-1.176-.196-1.726 0s-1.024.687-1.09 1.279.371 1.23.954 1.26c.409.021.775-.225 1.13-.432.41-.232.857-.418 1.328-.418s.955.218 1.184.632c.19.344.237.838.6.975.24.09.505-.033.715-.181s.415-.328.664-.37.56.142.532.402a.9.9 0 0 1-.145.313 1.17 1.17 0 0 0 .216 1.438 1.115 1.115 0 0 0 1.425.072c.553-.413.276-.943.507-1.456.248-.553 1.043-.788 1.579-.837m15.519 3.384c.657.053 1.318-.077 1.977-.044s1.368.282 1.692.868a1.34 1.34 0 0 1-.067 1.404c-.14.204-.333.363-.558.46a1.27 1.27 0 0 1-.712.087c-.45-.074-.833-.384-1.277-.489-.714-.169-1.431.212-2.076.571-.645.358-1.38.718-2.083.507-.663-.198-1.1-.849-1.736-1.116-.964-.405-2.022.164-3.032.428-.566.148-1.176.196-1.726 0s-1.024-.686-1.09-1.278.371-1.23.954-1.261c.408-.021.774.226 1.13.432.409.232.857.418 1.328.418s.954-.217 1.183-.632c.19-.344.237-.838.601-.974.24-.09.504.033.715.18.21.148.414.328.663.37s.56-.142.532-.401a.9.9 0 0 0-.145-.314 1.17 1.17 0 0 1 .216-1.438 1.11 1.11 0 0 1 1.425-.071c.554.412.276.942.508 1.455.247.554 1.043.788 1.578.838"/><path fill="#52ded6" d="M42.624 104.611c-.657-.053-1.317.077-1.976.044-.66-.032-1.369-.282-1.693-.868a1.34 1.34 0 0 1 .068-1.404c.14-.203.333-.363.557-.46a1.27 1.27 0 0 1 .713-.087c.45.074.833.384 1.276.489.715.169 1.431-.212 2.076-.57.645-.359 1.38-.719 2.083-.508.664.199 1.1.849 1.737 1.116.963.405 2.022-.164 3.032-.428.565-.148 1.176-.196 1.725 0s1.025.687 1.091 1.278c.066.592-.372 1.23-.955 1.261-.408.021-.774-.226-1.13-.432-.408-.232-.856-.418-1.327-.418-.472 0-.955.217-1.184.632-.19.344-.237.838-.6.974-.24.09-.505-.032-.715-.18s-.415-.328-.664-.37-.56.142-.532.401a.85.85 0 0 0 .145.314 1.17 1.17 0 0 1-.216 1.438 1.11 1.11 0 0 1-1.425.071c-.554-.412-.276-.942-.507-1.455-.248-.554-1.043-.788-1.579-.838m-25.425-8.586c-.658-.053-1.318.077-1.977.044-.66-.033-1.368-.282-1.693-.868a1.34 1.34 0 0 1 .068-1.404 1.28 1.28 0 0 1 1.27-.548c.45.075.833.385 1.276.49.715.169 1.432-.212 2.076-.57.645-.36 1.38-.719 2.083-.508.664.198 1.101.849 1.737 1.116.963.405 2.022-.165 3.032-.428.565-.148 1.176-.197 1.726 0 .55.196 1.024.686 1.09 1.278s-.371 1.23-.954 1.26c-.409.022-.775-.225-1.13-.431-.409-.233-.857-.419-1.328-.419s-.955.218-1.184.633c-.19.344-.236.837-.6.974-.24.09-.505-.033-.715-.18-.21-.148-.415-.329-.664-.37-.249-.042-.56.142-.532.401q.041.172.145.313a1.17 1.17 0 0 1-.216 1.438 1.12 1.12 0 0 1-1.425.072c-.553-.413-.276-.942-.507-1.455-.248-.554-1.043-.788-1.579-.838"/><path fill="#2ab79d" d="M33.05 97.097c-.657.053-1.317-.076-1.977-.044-.659.033-1.368.282-1.692.868a1.34 1.34 0 0 0 .067 1.404c.14.204.333.363.558.46s.471.127.712.088c.45-.075.833-.385 1.277-.49.714-.169 1.431.213 2.076.571s1.38.718 2.083.507c.664-.198 1.1-.849 1.737-1.116.963-.405 2.022.165 3.032.429.565.147 1.175.196 1.725 0 .55-.197 1.024-.687 1.09-1.279s-.37-1.23-.954-1.26c-.408-.022-.774.225-1.13.431-.408.233-.856.419-1.328.419-.47 0-.954-.218-1.183-.633-.19-.344-.237-.837-.6-.974-.24-.09-.505.033-.715.18-.21.148-.415.329-.664.37-.249.042-.56-.142-.532-.401a.9.9 0 0 1 .145-.313 1.17 1.17 0 0 0-.216-1.438 1.11 1.11 0 0 0-1.425-.072c-.554.413-.276.942-.507 1.456-.248.553-1.043.787-1.579.837m-8.618 19.354c.25.128.511.252.79.255.279.002.577-.151.663-.423.096-.304-.098-.624-.313-.855-.216-.232-.475-.45-.554-.76-.089-.35.077-.707.187-1.051s.14-.782-.136-1.007c-.381-.311-.985.056-1.418-.173s-.409-.878-.5-1.377a2.07 2.07 0 0 0-.523-1.018 2 2 0 0 0-.974-.568c-.518-.118-1.17.071-1.327.591-.107.372.075.781.35 1.046.276.266.631.425.963.608.41.225.808.503 1.078.892.27.388.398.909.236 1.358-.247.685-1.407.604-.547 1.233q.966.704 2.025 1.249m0-23.268c.25-.129.511-.253.79-.255s.577.15.663.423c.096.304-.098.623-.313.855-.216.232-.475.45-.554.76-.089.35.077.707.187 1.05s.14.783-.136 1.008c-.381.31-.985-.056-1.418.172-.433.229-.409.879-.5 1.378a2.07 2.07 0 0 1-.523 1.017 2 2 0 0 1-.974.568c-.518.119-1.17-.07-1.327-.59-.107-.372.075-.78.35-1.046.276-.266.631-.425.963-.609.41-.225.808-.502 1.078-.891s.398-.909.236-1.358c-.247-.685-1.407-.604-.547-1.233q.966-.704 2.025-1.25M47.2 114.469c-.248.129-.51.253-.79.255-.278.002-.576-.15-.662-.423-.096-.304.097-.623.313-.855s.475-.45.554-.759c.089-.351-.077-.707-.187-1.051s-.14-.783.136-1.008c.381-.31.985.056 1.418-.172s.409-.878.5-1.378a2.07 2.07 0 0 1 .523-1.017c.265-.281.603-.478.974-.568.517-.119 1.17.07 1.327.591.107.372-.075.78-.35 1.046-.277.265-.632.425-.963.608-.41.225-.808.503-1.079.891-.27.389-.397.909-.235 1.358.247.685 1.407.604.546 1.233-.642.469-1.32.887-2.024 1.249m-1.649-21.286c-.249-.129-.51-.253-.79-.255-.279-.002-.577.15-.662.423-.097.304.097.623.313.855s.474.45.554.76c.088.35-.077.707-.187 1.05s-.14.783.135 1.008c.382.31.986-.056 1.419.172.433.229.408.879.5 1.378.076.383.258.736.523 1.017s.603.478.974.568c.517.119 1.17-.07 1.326-.59.107-.372-.075-.78-.35-1.046-.276-.266-.631-.425-.963-.609-.41-.225-.808-.502-1.078-.891s-.398-.909-.235-1.358c.247-.685 1.407-.604.546-1.233a15 15 0 0 0-2.025-1.25"/><path fill="#112e2e" d="M27.232 113.966c.02.295.39.315.619.38.529.152 1.763 1.171 2.196.457.109-.175.09-.4.179-.584.205-.432.802-.427 1.279-.44.476-.012.975-.119 1.348-.422.25-.205.416-.497.462-.819a.2.2 0 0 1 .032-.089.8.8 0 0 1 .153-.194c.3-.265.665-.439.983-.682.319-.243.616-.563.667-.962s-.237-.853-.637-.851c-.256 0-.474.173-.686.317s-.48.272-.716.174c-.284-.117-.369-.483-.607-.676-.352-.283-.891-.081-1.212.236a1.13 1.13 0 0 0-.34.568.59.59 0 0 0 .214.598c.316.213.825 0 1.076.293a.24.24 0 0 1-.067.357 1 1 0 0 0-.089.059c-.218.176-.301.466-.455.699-.313.471-.888.678-1.422.857-.575.192-1.171.386-1.773.316-.306-.031-1.246-.195-1.204.408m1.98-24.573c.021-.295.39-.316.619-.38.529-.152 1.763-1.171 2.196-.457.11.175.09.4.18.584.205.432.802.427 1.278.44.477.011.975.12 1.348.422.251.205.416.497.462.819a.2.2 0 0 0 .032.088q.062.11.153.195c.3.264.666.44.984.682s.615.563.667.962c.051.399-.237.853-.638.851-.255 0-.474-.174-.686-.317s-.479-.272-.716-.174c-.283.117-.368.483-.607.676-.352.283-.89.08-1.212-.237a1.13 1.13 0 0 1-.339-.567.59.59 0 0 1 .213-.598c.316-.213.826 0 1.076-.293a.236.236 0 0 0-.067-.357 1 1 0 0 1-.088-.06c-.219-.175-.302-.465-.456-.698-.313-.47-.888-.678-1.421-.858-.575-.19-1.172-.385-1.773-.315-.306.031-1.246.195-1.205-.408m16.513 28.867c-.02.294-.39.315-.618.38-.53.151-1.764 1.17-2.197.456-.109-.174-.09-.399-.179-.584-.205-.431-.802-.427-1.279-.439s-.975-.12-1.348-.423a1.3 1.3 0 0 1-.462-.818.2.2 0 0 0-.032-.089.8.8 0 0 0-.153-.194c-.3-.265-.665-.44-.983-.682-.319-.243-.616-.564-.667-.963-.052-.398.237-.853.637-.851.256 0 .474.174.686.318s.48.271.716.173c.284-.116.369-.483.607-.675.352-.284.891-.081 1.212.236.167.151.285.349.34.568a.59.59 0 0 1-.214.597c-.316.213-.825 0-1.075.293a.237.237 0 0 0 .066.357q.047.025.089.06c.218.175.301.465.456.698.312.471.887.679 1.42.858.576.191 1.172.385 1.774.315.306-.031 1.246-.194 1.204.409m0-26.556c-.02-.294-.39-.315-.618-.38-.53-.151-1.764-1.17-2.197-.457-.109.175-.09.4-.179.585-.205.431-.802.427-1.279.439s-.975.12-1.348.423a1.3 1.3 0 0 0-.462.818.2.2 0 0 1-.032.089.8.8 0 0 1-.153.194c-.3.265-.665.44-.983.682-.319.243-.616.564-.667.962-.052.4.237.854.637.852.256 0 .474-.174.686-.318s.48-.271.716-.173c.284.116.369.483.607.675.352.283.891.081 1.212-.236a1.13 1.13 0 0 0 .34-.568.59.59 0 0 0-.214-.597c-.316-.213-.825 0-1.075-.294a.237.237 0 0 1 .066-.357 1 1 0 0 0 .089-.059c.218-.175.301-.465.456-.698.312-.471.887-.679 1.42-.858.576-.191 1.172-.385 1.774-.315.306.03 1.246.194 1.204-.409"/></g></g><path fill="#000" fill-rule="evenodd" d="M35.969 88.586c8.008.002 14.5 6.494 14.5 14.5s-6.492 14.496-14.5 14.495-14.5-6.494-14.5-14.5 6.492-14.496 14.5-14.495m10.07 14.5c0-5.56-4.509-10.069-10.07-10.07s-10.07 4.505-10.07 10.065c0 5.561 4.508 10.069 10.07 10.07 5.561.001 10.07-4.505 10.07-10.065" clip-rule="evenodd"/><path fill="#008883" d="M80.685 103.081c0 6.783 5.5 12.283 12.284 12.284s12.285-5.496 12.285-12.28-5.5-12.283-12.285-12.284c-6.784-.002-12.284 5.496-12.284 12.28"/><mask id="d" width="23" height="23" x="81" y="91" maskUnits="userSpaceOnUse" style="mask-type:alpha"><path fill="#008883" d="M103.539 102.459c0 6.195-5.024 11.219-11.22 11.22-6.198.002-11.221-5.02-11.221-11.216s5.023-11.22 11.22-11.22c6.197-.002 11.221 5.02 11.221 11.216"/></mask><g mask="url(#d)"><path fill="#00826a" d="M114.606 126.943H70.684V83.021h43.922z"/><mask id="e" width="45" height="44" x="70" y="83" maskUnits="userSpaceOnUse" style="mask-type:alpha"><path fill="#848484" d="M114.606 126.943H70.684V83.021h43.922z"/></mask><g mask="url(#e)"><path fill="#112e2e" d="M93.42 113.913c-.621-.2-1.29-.246-1.887-.513-.596-.266-1.128-.859-1.019-1.505.14-.819 1.204-1.247 1.311-2.071.125-.957-1.129-1.747-.882-2.678.127-.469.623-.764 1.103-.794.48-.029.954.153 1.39.366.438.213.862.462 1.333.578 1.13.279 2.287-.242 3.344-.731 1.058-.489 2.245-.97 3.355-.615.783.251 1.433.899 2.257.949.56.034 1.096-.221 1.573-.519s.937-.638 1.472-.808 1.183-.129 1.575.272c.414.422.409 1.148.073 1.632-.336.485-.936.744-1.526.772-.466.025-.939-.075-1.398.01s-.927.441-.898.911c.013.209.123.4.142.608.049.537-.526.94-1.062 1.005-.732.089-1.45-.209-2.13-.496s-1.401-.58-2.132-.477c-.73.102-1.433.76-1.31 1.486.07.405.371.729.688.992.316.264.666.495.905.83.238.335.33.815.1 1.152-.342.489-1.102.375-1.632.095-.32-.17-.713-.383-1.017-.185-.245.158-.282.509-.206.79s.249.54.313.823a1.31 1.31 0 0 1-.636 1.406c-1.048.567-1.894-.402-1.885-1.396.01-.994-.268-1.553-1.314-1.889m4.293-18.853c-.621.2-1.29.246-1.887.513-.596.266-1.128.86-1.019 1.505.14.82 1.204 1.247 1.311 2.071.125.957-1.129 1.747-.882 2.678.127.469.623.764 1.103.794s.954-.153 1.39-.366c.437-.213.862-.462 1.333-.578 1.131-.278 2.287.242 3.344.731 1.058.49 2.245.97 3.355.615.783-.251 1.433-.899 2.257-.949.56-.034 1.096.221 1.573.519s.937.638 1.472.808 1.183.129 1.575-.272c.414-.422.409-1.147.073-1.632s-.936-.744-1.526-.772c-.466-.025-.939.075-1.398-.01s-.927-.441-.898-.911c.013-.209.123-.4.142-.608.049-.537-.526-.94-1.062-1.005-.732-.089-1.45.209-2.13.496s-1.401.58-2.132.478c-.731-.103-1.433-.76-1.31-1.487.07-.405.371-.729.687-.992.317-.264.667-.495.906-.83.238-.335.33-.814.1-1.152-.342-.49-1.103-.374-1.632-.094-.321.17-.713.382-1.017.185-.245-.16-.283-.51-.206-.79.076-.282.249-.54.313-.824a1.315 1.315 0 0 0-.636-1.406c-1.048-.567-1.895.402-1.885 1.396s-.269 1.553-1.314 1.89m-11.126 17.201c.622-.2 1.291-.246 1.888-.513.596-.267 1.128-.86 1.019-1.505-.14-.819-1.204-1.247-1.311-2.071-.125-.957 1.129-1.747.882-2.679-.127-.468-.623-.763-1.103-.793s-.955.153-1.391.366-.861.462-1.332.577c-1.13.279-2.287-.241-3.345-.73-1.057-.49-2.244-.97-3.354-.615-.783.251-1.434.899-2.257.949-.56.034-1.096-.221-1.573-.52-.478-.298-.937-.638-1.472-.807s-1.183-.129-1.575.272c-.414.422-.41 1.147-.073 1.632s.936.744 1.526.772c.466.025.939-.075 1.397.009.46.085.928.441.899.912-.013.208-.124.4-.142.607-.049.538.526.94 1.061 1.005.732.09 1.451-.208 2.13-.496.68-.287 1.401-.579 2.133-.477.73.103 1.433.761 1.31 1.487-.07.404-.371.728-.688.992-.316.263-.667.495-.905.83s-.33.814-.1 1.152c.342.489 1.102.374 1.632.094.32-.169.713-.382 1.017-.185.245.159.282.509.206.79s-.249.54-.313.824a1.31 1.31 0 0 0 .636 1.406c1.048.566 1.894-.402 1.884-1.396-.01-.995.27-1.553 1.314-1.889m.329-18.192c.621.199 1.29.245 1.887.512.596.267 1.128.86 1.019 1.506-.14.818-1.204 1.246-1.311 2.07-.125.957 1.129 1.747.882 2.679-.127.468-.623.763-1.103.793s-.954-.153-1.391-.366c-.436-.212-.861-.462-1.332-.577-1.13-.279-2.287.241-3.344.73-1.058.49-2.245.97-3.355.615-.783-.251-1.433-.899-2.257-.949-.56-.034-1.096.221-1.573.52-.477.298-.937.638-1.472.807s-1.183.129-1.575-.272c-.414-.422-.41-1.147-.073-1.632s.936-.744 1.526-.772c.466-.025.939.075 1.398-.01s.927-.44.898-.91c-.013-.21-.123-.401-.142-.608-.049-.538.526-.94 1.061-1.005.733-.09 1.451.208 2.13.496.68.287 1.402.58 2.133.477.73-.103 1.433-.76 1.31-1.487-.07-.404-.371-.728-.687-.992-.317-.263-.668-.495-.906-.83s-.33-.814-.1-1.151c.342-.49 1.102-.375 1.632-.095.32.17.713.382 1.017.185.245-.159.282-.51.206-.79-.076-.281-.249-.54-.313-.824a1.31 1.31 0 0 1 .636-1.406c1.048-.566 1.894.402 1.885 1.396-.01.995.269 1.553 1.314 1.89"/><path fill="#52ded6" d="M96.188 119.539a2.1 2.1 0 0 1-.452 1.184 2.2 2.2 0 0 1-1.054.726l-.315.099c-.262.082-.553.163-.805.069-.448-.166-.538-.807-.274-1.196.263-.39.743-.585 1.205-.71.462-.126.95-.218 1.339-.488.39-.269.648-.804.432-1.224-.215-.42-.758-.525-1.216-.636s-.995-.377-1.01-.846c-.01-.376.358-.679.736-.742s.76.05 1.129.153c.37.102.76.196 1.13.099.494-.132.836-.58 1.047-1.039s.332-.959.6-1.39c.27-.43.733-.797 1.242-.749.443.042.81.381 1.25.442.46.064.914-.192 1.225-.531s.513-.761.753-1.15c.3-.49.676-.952 1.178-1.239s1.149-.375 1.667-.118c.519.256.842.903.626 1.434-.163.402-.565.652-.878.955s-.553.801-.297 1.158c.273.387.859.298 1.338.294.37-.016.735.09 1.036.301.289.223.464.608.367.957-.088.316-.368.539-.642.725-.275.185-.564.367-.718.652a.63.63 0 0 0-.044.5.65.65 0 0 0 .335.38c.288.138.574.435.809.636.256.217.443.536.398.862-.063.482-.602.788-1.096.782-.493-.007-.951-.243-1.392-.461s-.915-.435-1.407-.392c-1.058.088-1.659 1.244-2.609 1.705a2.19 2.19 0 0 1-2.366-.343c-.416-.38-.657-.906-1.013-1.34s-.925-.793-1.47-.631c-.462.139-.746.625-.785 1.098zm-10.238-8.586a2.1 2.1 0 0 1-.453 1.184 2.2 2.2 0 0 1-1.053.726l-.315.099c-.263.082-.553.163-.805.069-.448-.166-.538-.807-.275-1.196.263-.39.743-.585 1.206-.71s.95-.218 1.339-.488c.389-.269.648-.804.432-1.224-.215-.42-.758-.525-1.216-.636s-.996-.377-1.011-.846c-.01-.376.358-.679.736-.742.379-.063.76.05 1.13.153.369.102.76.196 1.13.099.494-.132.836-.58 1.047-1.039s.332-.959.6-1.39c.269-.43.732-.797 1.242-.749.442.042.81.381 1.25.442.46.064.914-.192 1.225-.531.31-.339.513-.761.753-1.15.3-.49.675-.952 1.178-1.239s1.148-.375 1.667-.118c.519.256.842.903.626 1.434-.164.402-.565.652-.878.955s-.553.801-.297 1.158c.273.387.859.298 1.338.294.37-.016.734.09 1.036.302.288.222.464.607.367.956-.089.316-.368.539-.643.725-.274.186-.564.367-.717.652a.636.636 0 0 0 .29.88c.29.138.574.435.81.636.255.217.442.536.398.862-.063.482-.603.788-1.096.782s-.95-.243-1.392-.461-.916-.435-1.408-.392c-1.057.089-1.658 1.244-2.608 1.705a2.19 2.19 0 0 1-2.367-.343c-.415-.38-.656-.906-1.013-1.34s-.924-.793-1.47-.631c-.461.139-.746.625-.784 1.098zm6.933-20.197a2.1 2.1 0 0 0-.452-1.185 2.2 2.2 0 0 0-1.054-.726l-.315-.099c-.262-.081-.553-.163-.805-.068-.448.165-.537.807-.274 1.196.263.39.743.585 1.205.71s.95.217 1.34.487c.389.27.647.805.432 1.224-.216.42-.759.526-1.217.636-.457.112-.995.378-1.01.847-.01.376.358.678.736.741s.76-.05 1.13-.152c.368-.102.76-.197 1.13-.1.493.133.835.58 1.046 1.04.212.458.332.958.6 1.389.27.43.733.797 1.243.75.442-.042.81-.381 1.25-.442.46-.064.914.191 1.224.53.311.34.514.762.754 1.15.299.49.675.952 1.177 1.24.502.286 1.149.375 1.668.118s.841-.904.626-1.434c-.164-.403-.566-.653-.878-.955s-.553-.802-.298-1.158c.273-.387.859-.298 1.338-.295.37.017.735-.09 1.036-.301.289-.223.465-.608.367-.957-.088-.315-.368-.538-.642-.724s-.564-.368-.718-.653a.63.63 0 0 1-.043-.5.64.64 0 0 1 .334-.38c.289-.137.574-.434.81-.635.255-.218.442-.536.398-.863-.063-.481-.603-.788-1.096-.781-.493.006-.951.242-1.392.46-.442.22-.916.436-1.408.392-1.057-.088-1.659-1.244-2.609-1.705a2.19 2.19 0 0 0-2.366.344c-.416.38-.657.905-1.013 1.34-.356.433-.924.792-1.47.63-.462-.138-.746-.624-.785-1.097z"/><path fill="#52ded6" d="M98.296 102.187a1.36 1.36 0 0 0-.275-.745 1.33 1.33 0 0 0-.641-.456l-.192-.062c-.16-.051-.337-.103-.49-.043-.273.104-.327.507-.167.752.16.244.452.367.733.446.282.078.579.137.816.306.237.17.394.506.263.77s-.462.33-.74.4c-.28.069-.606.237-.616.531-.006.237.218.427.449.466.23.04.462-.031.687-.095.224-.065.463-.124.688-.062.3.082.508.364.637.652s.202.603.366.874c.163.27.445.501.755.471.27-.026.493-.24.761-.278.28-.04.557.12.746.334.189.213.312.478.458.723.183.307.411.598.717.778s.699.236 1.015.075.512-.568.381-.902c-.1-.253-.344-.41-.534-.6s-.337-.503-.181-.728c.166-.243.522-.187.814-.185a1 1 0 0 0 .631-.189c.175-.14.282-.382.223-.602-.054-.198-.224-.338-.391-.455s-.343-.231-.437-.41a.4.4 0 0 1-.044-.154.4.4 0 0 1 .018-.16.4.4 0 0 1 .203-.239c.176-.087.35-.273.493-.4.155-.136.269-.337.242-.542-.038-.303-.367-.495-.667-.491s-.579.152-.847.29c-.269.137-.558.273-.857.246-.644-.056-1.01-.782-1.588-1.072a1.29 1.29 0 0 0-1.44.216c-.253.238-.4.569-.617.842s-.563.498-.894.396c-.282-.086-.455-.392-.478-.689zm-13.488 17.022c.026.43.184.843.452 1.184.27.341.636.594 1.054.726l.315.099c.262.082.553.163.805.069.448-.166.538-.807.275-1.196-.264-.39-.744-.585-1.206-.711-.462-.125-.95-.217-1.339-.487-.39-.269-.648-.804-.432-1.224.215-.42.758-.525 1.216-.636s.995-.378 1.01-.846c.01-.376-.358-.679-.736-.742s-.76.05-1.129.152c-.369.103-.76.197-1.13.099-.494-.131-.836-.579-1.047-1.038s-.332-.959-.6-1.39c-.27-.43-.733-.797-1.242-.749-.443.041-.81.381-1.25.442-.46.064-.914-.192-1.225-.531-.31-.339-.513-.761-.753-1.15-.3-.49-.676-.952-1.178-1.239s-1.149-.375-1.667-.119c-.519.257-.842.904-.626 1.435.163.402.565.652.878.954.313.303.553.802.297 1.158-.273.388-.859.298-1.338.295-.37-.017-.735.09-1.036.301-.288.223-.464.608-.367.957.088.316.368.539.642.724.275.186.565.368.718.653a.637.637 0 0 1-.29.88c-.29.138-.575.435-.81.636-.255.217-.442.536-.398.862.063.482.602.788 1.096.782.493-.007.95-.243 1.392-.461s.915-.435 1.407-.392c1.058.088 1.66 1.244 2.61 1.705a2.19 2.19 0 0 0 2.365-.343c.416-.38.657-.906 1.013-1.34s.925-.793 1.47-.631c.462.138.746.625.785 1.098zm3.965-29.114c.026-.43.184-.843.452-1.184a2.2 2.2 0 0 1 1.054-.727l.315-.098c.262-.082.553-.163.805-.069.448.165.537.807.274 1.196-.263.39-.743.585-1.205.71s-.95.218-1.34.487c-.388.27-.647.805-.431 1.225.215.42.758.525 1.216.636s.995.377 1.01.846c.01.376-.358.678-.736.742s-.76-.05-1.129-.153c-.37-.102-.76-.197-1.13-.099-.494.132-.836.58-1.047 1.039s-.332.959-.6 1.39c-.27.43-.733.796-1.242.749-.443-.042-.81-.381-1.25-.442-.46-.064-.915.191-1.225.53-.31.34-.513.762-.753 1.151-.3.49-.676.952-1.178 1.239s-1.149.375-1.667.118c-.519-.256-.842-.903-.626-1.434.163-.402.565-.652.878-.955s.553-.801.297-1.158c-.273-.387-.86-.298-1.338-.294a1.67 1.67 0 0 1-1.036-.302c-.289-.223-.464-.608-.367-.957.088-.315.368-.538.642-.724.275-.186.564-.367.718-.652a.637.637 0 0 0-.29-.88c-.29-.138-.575-.435-.81-.636-.256-.217-.443-.536-.398-.862.063-.482.602-.789 1.096-.782.493.006.95.242 1.392.461.44.218.915.435 1.407.391 1.057-.088 1.66-1.243 2.609-1.705a2.19 2.19 0 0 1 2.366.344c.416.38.657.906 1.013 1.34s.925.792 1.47.63c.462-.138.746-.624.785-1.097z"/><path fill="#112e2e" d="M82.096 86.764c.311.064.63.165.861.384.233.219.358.582.22.871-.192.405-.768.483-1.001.862-.317.507.142 1.146.143 1.745a1.13 1.13 0 0 1-.6.996 1.1 1.1 0 0 1-1.154-.08c-.383-.275-.562-.774-.934-1.063-.52-.408-1.282-.315-1.871-.019-.589.297-1.079.763-1.645 1.098s-1.29.53-1.88.234c-.481-.24-.76-.74-1.055-1.182-.294-.443-.702-.893-1.233-.925-.658-.04-1.337.567-1.907.237-.377-.221-.447-.791-.204-1.155s.71-.525 1.145-.497c.434.03.841.222 1.22.435.132.09.281.151.438.181a.37.37 0 0 0 .394-.2c.077-.202-.096-.411-.115-.626-.033-.377.427-.627.797-.564s.671.315 1 .49c.276.143.644.24.936.087.266-.137.33-.47.577-.631.373-.246.829-.053 1.246-.11.767-.103 1.52-.45 2.302-.577a6.4 6.4 0 0 1 2.32.009m10.114 14.755c.301-.1.627-.172.938-.099.31.074.6.325.626.645.036.447-.424.802-.436 1.247-.022.597.696.921.997 1.44a1.13 1.13 0 0 1-.023 1.163 1.11 1.11 0 0 1-1.039.507c-.47-.047-.874-.389-1.34-.453-.654-.094-1.269.368-1.63.919-.362.551-.553 1.199-.876 1.772-.322.574-.852 1.105-1.51 1.144-.538.032-1.03-.261-1.505-.497-.476-.236-1.055-.422-1.53-.184-.591.293-.875 1.159-1.534 1.158-.437-.003-.782-.461-.754-.898.03-.437.353-.81.743-1.002.39-.193.84-.229 1.273-.233.16.011.32-.01.47-.063a.37.37 0 0 0 .182-.145.4.4 0 0 0 .06-.226c-.034-.213-.289-.307-.412-.484-.217-.31.056-.756.408-.887.353-.131.739-.062 1.11-.077.312-.013.678-.112.856-.391.16-.251.05-.572.183-.835.2-.399.691-.461 1.023-.719.614-.473 1.091-1.149 1.706-1.65a6.4 6.4 0 0 1 2.014-1.152"/><path fill="#2ab79d" d="M102.589 112.207c-.657-.053-1.317.076-1.977.044-.659-.033-1.368-.282-1.692-.869a1.337 1.337 0 0 1 .625-1.864 1.3 1.3 0 0 1 .712-.087c.451.074.833.384 1.277.489.714.169 1.431-.212 2.076-.57.645-.359 1.38-.718 2.083-.508.664.199 1.101.849 1.737 1.117.963.404 2.022-.165 3.032-.429.565-.148 1.175-.196 1.725 0s1.025.687 1.091 1.279-.372 1.23-.955 1.26c-.408.021-.774-.225-1.13-.432-.408-.232-.856-.418-1.328-.418-.471 0-.954.218-1.183.632-.19.344-.237.838-.601.975-.24.09-.504-.033-.714-.181-.211-.148-.415-.328-.664-.37s-.56.142-.532.402q.04.172.145.313a1.164 1.164 0 0 1-.216 1.438 1.116 1.116 0 0 1-1.426.072c-.553-.413-.275-.943-.506-1.456-.248-.553-1.043-.788-1.579-.837m-15.519 3.384c-.657.053-1.318-.077-1.977-.044-.66.033-1.368.282-1.693.868a1.34 1.34 0 0 0 .068 1.404c.14.204.333.363.557.46s.472.127.713.087c.45-.074.833-.384 1.276-.489.715-.169 1.432.212 2.077.571.645.358 1.379.718 2.083.507.663-.198 1.1-.849 1.736-1.116.964-.405 2.022.164 3.032.428.565.148 1.176.196 1.726 0s1.024-.686 1.09-1.278-.371-1.23-.954-1.261c-.408-.021-.775.226-1.13.432-.409.232-.857.418-1.328.418s-.955-.217-1.184-.632c-.19-.344-.236-.838-.6-.974-.24-.09-.505.033-.715.18-.21.148-.415.328-.664.37s-.56-.142-.532-.401a.85.85 0 0 1 .145-.314 1.17 1.17 0 0 0-.216-1.438 1.11 1.11 0 0 0-1.425-.071c-.553.412-.276.942-.507 1.455-.248.554-1.043.788-1.578.838"/><path fill="#52ded6" d="M85.012 104.611c.657-.053 1.318.077 1.977.044.66-.032 1.368-.282 1.692-.868a1.34 1.34 0 0 0-.067-1.404 1.3 1.3 0 0 0-.558-.46 1.27 1.27 0 0 0-.712-.087c-.45.074-.833.384-1.276.489-.715.169-1.432-.212-2.077-.57-.644-.359-1.379-.719-2.082-.508-.664.199-1.101.849-1.737 1.116-.964.405-2.022-.164-3.032-.428-.565-.148-1.176-.196-1.726 0s-1.024.687-1.09 1.278c-.067.592.371 1.23.954 1.261.408.021.775-.226 1.13-.432.409-.232.857-.418 1.328-.418s.955.217 1.184.632c.19.344.236.838.6.974.24.09.505-.032.715-.18s.415-.328.664-.37c.248-.042.56.142.532.401a.9.9 0 0 1-.145.314 1.17 1.17 0 0 0 .216 1.438 1.11 1.11 0 0 0 1.425.071c.553-.412.276-.942.507-1.455.248-.554 1.043-.788 1.578-.838m25.426-8.586c.657-.053 1.318.077 1.977.044s1.368-.282 1.692-.868a1.337 1.337 0 0 0-.625-1.864 1.27 1.27 0 0 0-.712-.088c-.45.075-.833.385-1.277.49-.714.169-1.431-.212-2.076-.57-.645-.36-1.379-.719-2.083-.508-.663.198-1.1.849-1.736 1.116-.964.405-2.022-.165-3.032-.428-.566-.148-1.176-.197-1.726 0-.55.196-1.024.686-1.09 1.278s.371 1.23.954 1.26c.408.022.774-.225 1.131-.431.408-.233.856-.419 1.327-.419s.955.218 1.183.633c.191.344.237.837.601.974.24.09.505-.033.715-.18.21-.148.415-.329.663-.37.249-.042.56.142.532.401a.8.8 0 0 1-.144.313 1.165 1.165 0 0 0 .216 1.438 1.116 1.116 0 0 0 1.425.072c.553-.413.276-.942.507-1.455.247-.554 1.043-.788 1.578-.838"/><path fill="#2ab79d" d="M94.587 97.097c.657.053 1.317-.076 1.976-.044.66.033 1.369.282 1.693.868a1.34 1.34 0 0 1-.068 1.404c-.14.204-.333.363-.557.46a1.27 1.27 0 0 1-.713.088c-.45-.075-.833-.385-1.276-.49-.715-.169-1.431.213-2.076.571s-1.38.718-2.083.507c-.664-.198-1.1-.849-1.737-1.116-.963-.405-2.022.165-3.032.429-.565.147-1.176.196-1.725 0-.55-.197-1.025-.687-1.091-1.279s.371-1.23.955-1.26c.408-.022.774.225 1.13.431.408.233.856.419 1.327.419.472 0 .955-.218 1.184-.633.19-.344.237-.837.6-.974.24-.09.505.033.715.18.21.148.415.329.664.37.249.042.56-.142.532-.401a.9.9 0 0 0-.145-.313 1.17 1.17 0 0 1 .216-1.438 1.12 1.12 0 0 1 1.425-.072c.554.413.276.942.507 1.456.248.553 1.043.787 1.579.837m8.618 19.354c-.249.128-.511.252-.79.255-.279.002-.578-.151-.663-.423-.096-.304.097-.624.313-.855.216-.232.475-.45.554-.76.089-.35-.077-.707-.187-1.051s-.14-.782.136-1.007c.381-.311.985.056 1.418-.173s.408-.878.5-1.377c.077-.384.258-.737.523-1.018.265-.28.603-.478.974-.568.517-.118 1.171.071 1.327.591.107.372-.075.781-.351 1.046-.276.266-.631.425-.962.608-.411.225-.808.503-1.079.892-.27.388-.397.909-.235 1.358.247.685 1.407.604.546 1.233q-.965.704-2.024 1.249m0-23.268c-.249-.129-.511-.253-.79-.255s-.578.15-.663.423c-.096.304.097.623.313.855s.475.45.554.76c.089.35-.077.707-.187 1.05s-.14.783.136 1.008c.381.31.985-.056 1.418.172.433.229.408.879.5 1.378.077.383.258.736.523 1.017s.603.478.974.568c.517.119 1.171-.07 1.327-.59.107-.372-.075-.78-.351-1.046s-.631-.425-.962-.609c-.411-.225-.808-.502-1.079-.891s-.397-.909-.235-1.358c.247-.685 1.407-.604.546-1.233a15 15 0 0 0-2.024-1.25m-22.769 21.287c.249.129.51.253.79.255.279.002.577-.15.663-.423.096-.304-.098-.623-.313-.855-.216-.231-.475-.45-.554-.759-.089-.351.077-.707.187-1.051s.14-.783-.136-1.008c-.382-.31-.985.056-1.418-.172s-.409-.878-.5-1.378a2.07 2.07 0 0 0-.524-1.017 2 2 0 0 0-.973-.568c-.518-.119-1.17.07-1.327.591-.107.372.075.78.35 1.046.276.265.631.425.963.608.41.225.808.503 1.078.891.27.389.398.909.236 1.358-.247.685-1.407.604-.547 1.233q.966.705 2.025 1.249m1.648-21.286c.25-.129.511-.253.79-.255.28-.002.578.15.663.423.096.304-.097.623-.313.855s-.475.45-.554.76c-.088.35.077.707.187 1.05s.14.783-.135 1.008c-.382.31-.986-.056-1.42.172-.432.229-.407.879-.5 1.378a2.07 2.07 0 0 1-.522 1.017 2 2 0 0 1-.974.568c-.517.119-1.17-.07-1.327-.59-.106-.372.075-.78.351-1.046s.63-.425.962-.609c.41-.225.808-.502 1.079-.891s.398-.909.235-1.358c-.247-.685-1.407-.604-.546-1.233a15 15 0 0 1 2.024-1.25"/><path fill="#112e2e" d="M100.405 113.966c-.021.295-.39.315-.619.38-.529.152-1.763 1.171-2.196.457-.11-.175-.09-.4-.18-.584-.205-.432-.801-.427-1.278-.44-.477-.012-.975-.119-1.348-.422a1.3 1.3 0 0 1-.462-.819.2.2 0 0 0-.032-.089.8.8 0 0 0-.153-.194c-.3-.265-.666-.439-.984-.682s-.615-.563-.667-.962c-.051-.399.238-.853.638-.851.255 0 .474.173.686.317s.479.272.716.174c.283-.117.368-.483.607-.676.352-.283.89-.081 1.212.236.167.151.285.349.339.568a.59.59 0 0 1-.213.598c-.316.213-.826 0-1.076.293a.24.24 0 0 0 .067.357 1 1 0 0 1 .088.059c.219.176.302.466.456.699.313.471.888.678 1.421.857.575.192 1.172.386 1.773.316.306-.031 1.246-.195 1.205.408m-1.98-24.573c-.021-.295-.39-.316-.62-.38-.528-.152-1.762-1.171-2.195-.457-.11.175-.091.4-.18.584-.205.432-.802.427-1.279.44-.476.011-.975.12-1.347.422a1.3 1.3 0 0 0-.463.819.2.2 0 0 1-.031.088.8.8 0 0 1-.154.195c-.3.264-.665.44-.983.682s-.616.563-.667.962.237.853.637.851c.256 0 .475-.174.687-.317s.478-.272.716-.174c.283.117.368.483.606.676.352.283.891.08 1.213-.237.167-.15.285-.348.339-.567a.59.59 0 0 0-.214-.598c-.316-.213-.825 0-1.075-.293a.236.236 0 0 1 .066-.357 1 1 0 0 0 .089-.06c.219-.175.302-.465.456-.698.312-.47.887-.678 1.42-.858.576-.19 1.173-.385 1.774-.315.306.031 1.246.195 1.204-.408M81.912 118.26c.02.294.39.315.618.38.53.151 1.763 1.17 2.196.456.11-.174.091-.399.18-.584.205-.431.802-.427 1.278-.439.477-.012.975-.12 1.348-.423.251-.204.416-.497.463-.818a.2.2 0 0 1 .031-.089.8.8 0 0 1 .153-.194c.301-.265.666-.44.984-.682s.616-.564.667-.963c.051-.398-.237-.853-.637-.851-.256 0-.475.174-.687.318s-.478.271-.716.173c-.283-.116-.368-.483-.606-.675-.352-.284-.891-.081-1.213.236a1.13 1.13 0 0 0-.339.568.59.59 0 0 0 .214.597c.316.213.825 0 1.075.293a.24.24 0 0 1 .01.289.24.24 0 0 1-.076.068 1 1 0 0 0-.089.06c-.219.175-.302.465-.456.698-.312.471-.887.679-1.42.858-.576.191-1.173.385-1.774.315-.306-.031-1.246-.194-1.204.409m0-26.556c.02-.294.39-.315.618-.38.53-.151 1.763-1.17 2.196-.457.11.175.091.4.18.585.205.431.802.427 1.278.439.477.012.975.12 1.348.423.251.204.416.497.463.818a.2.2 0 0 0 .031.089.8.8 0 0 0 .153.194c.301.265.666.44.984.682s.616.564.667.962c.051.4-.237.854-.637.852-.256 0-.475-.174-.687-.318s-.478-.271-.716-.173c-.283.116-.368.483-.606.675-.352.283-.891.081-1.213-.236a1.13 1.13 0 0 1-.339-.568.59.59 0 0 1 .214-.597c.316-.213.825 0 1.075-.294a.24.24 0 0 0 .01-.288.24.24 0 0 0-.076-.069 1 1 0 0 1-.089-.059c-.219-.175-.302-.465-.456-.698-.312-.471-.887-.679-1.42-.858-.576-.191-1.173-.385-1.774-.315-.306.03-1.246.194-1.204-.409"/></g></g><path fill="#000" fill-rule="evenodd" d="M92.969 88.586c8.008.002 14.5 6.494 14.5 14.5s-6.492 14.496-14.5 14.495-14.5-6.494-14.5-14.5 6.492-14.496 14.5-14.495m10.069 14.5c0-5.56-4.508-10.069-10.07-10.07-5.56-.001-10.069 4.505-10.069 10.065 0 5.561 4.508 10.069 10.07 10.07 5.561.001 10.069-4.505 10.069-10.065" clip-rule="evenodd"/><defs><radialGradient id="a" cx="0" cy="0" r="1" gradientTransform="rotate(179.998 31.984 36.043)scale(38.5)" gradientUnits="userSpaceOnUse"><stop offset=".479" stop-color="#fff"/><stop offset="1" stop-color="#8abff0"/></radialGradient></defs></svg>