<?xml version="1.0" encoding="UTF-8" standalone="no"?>
<svg
   width="128"
   height="128"
   version="1.1"
   id="svg10"
   sodipodi:docname="loot-melee-huntsman-pink.svg"
   xml:space="preserve"
   inkscape:version="1.4.3 (0d15f75, 2025-12-25)"
   xmlns:inkscape="http://www.inkscape.org/namespaces/inkscape"
   xmlns:sodipodi="http://sodipodi.sourceforge.net/DTD/sodipodi-0.dtd"
   xmlns:xlink="http://www.w3.org/1999/xlink"
   xmlns="http://www.w3.org/2000/svg"
   xmlns:svg="http://www.w3.org/2000/svg"><sodipodi:namedview
     id="namedview10"
     pagecolor="#ffffff"
     bordercolor="#000000"
     borderopacity="0.25"
     inkscape:showpageshadow="2"
     inkscape:pageopacity="0.0"
     inkscape:pagecheckerboard="0"
     inkscape:deskcolor="#d1d1d1"
     inkscape:zoom="6.3046875"
     inkscape:cx="64"
     inkscape:cy="64"
     inkscape:window-width="1920"
     inkscape:window-height="1009"
     inkscape:window-x="-8"
     inkscape:window-y="-8"
     inkscape:window-maximized="1"
     inkscape:current-layer="svg10" /><defs
     id="defs8"><linearGradient
       id="d"><stop
         offset="0"
         stop-color="#a3441c"
         id="stop1" /><stop
         offset="1"
         stop-color="#361105"
         id="stop2" /></linearGradient><linearGradient
       id="f"><stop
         offset="0"
         stop-color="#b14427"
         id="stop3" /><stop
         offset="1"
         stop-color="#5b2d1e"
         id="stop4" /></linearGradient><linearGradient
       id="c"><stop
         offset="0"
         stop-color="#0e0e0f"
         id="stop5" /><stop
         offset="1"
         stop-color="#6c6e72"
         id="stop6" /></linearGradient><linearGradient
       xlink:href="#a"
       id="j"
       x1="53.462"
       y1="65.108"
       x2="88.445"
       y2="39.13"
       gradientUnits="userSpaceOnUse" /><clipPath
       id="i"><path
         d="M34.835 48.759s.128-2.363.64-2.534c5.165 8.869 7.554.56 7.53-.245 6.724 3.265 22.466-3.557 33.868-4.093 10.172-.593 16.759 10.97 16.759 10.97s-18.76-4.23-29.286 3.371c-9.247-.418-12.16 1.023-16.375 2.655l-13.599.195s3.996-4.813.463-10.32z"
         fill="url(#b)"
         id="path6" /></clipPath><linearGradient
       xlink:href="#c"
       id="b"
       gradientUnits="userSpaceOnUse"
       x1="86.264"
       y1="43.856"
       x2="35.469"
       y2="58.534" /><linearGradient
       xlink:href="#d"
       id="h"
       gradientUnits="userSpaceOnUse"
       x1="30.756"
       y1="49.493"
       x2="8.975"
       y2="58.407"
       gradientTransform="translate(.069 -.517)" /><clipPath
       id="g"><path
         d="M11.594 47.214c10.629 4.574 10.856 3.356 15.897 1.541 3.997 4.792 6.678 1.297 7.368-.357.606-.101 6.636 3.033 7.176 5.516.262 1.209.182 1.76-.583 2.875-.878 1.28-4.928 1.958-6.178 2.27-8.986.602-16.032.217-21.494-.47-11.853-2.274-10.52-5.681-10.52-5.681 1.38-6.444 6.645-6.693 8.334-5.694z"
         fill="url(#e)"
         id="path7" /></clipPath><linearGradient
       xlink:href="#f"
       id="e"
       gradientUnits="userSpaceOnUse"
       gradientTransform="translate(.069 -.517)"
       x1="29.885"
       y1="48.621"
       x2="8.975"
       y2="58.407" /><linearGradient
       id="a"><stop
         offset="0"
         stop-color="#1f2021"
         id="stop7" /><stop
         offset="1"
         stop-color="#a1a3a6"
         id="stop8" /></linearGradient><linearGradient
       id="_Linear1"
       x1="0"
       y1="0"
       x2="1"
       y2="0"
       gradientUnits="userSpaceOnUse"
       gradientTransform="matrix(82.981679,-82.721007,82.461153,82.721007,22.528759,105.32101)"><stop
         offset="0"
         style="stop-color:black;stop-opacity:1"
         id="stop4-0" /><stop
         offset="1"
         style="stop-color:rgb(45,0,51);stop-opacity:1"
         id="stop5-9" /></linearGradient><radialGradient
       id="_Radial2"
       cx="0"
       cy="0"
       r="1"
       gradientUnits="userSpaceOnUse"
       gradientTransform="matrix(-79.91325,-46.610507,36.473111,-62.532785,117.87578,39.004229)"><stop
         offset="0"
         style="stop-color:white;stop-opacity:1"
         id="stop6-4" /><stop
         offset="0"
         style="stop-color:rgb(162,149,180);stop-opacity:1"
         id="stop7-8" /><stop
         offset="0.48"
         style="stop-color:rgb(207,166,255);stop-opacity:1"
         id="stop8-8" /><stop
         offset="1"
         style="stop-color:rgb(255,13,187);stop-opacity:1"
         id="stop9" /></radialGradient><linearGradient
       id="_Linear3"
       x1="0"
       y1="0"
       x2="1"
       y2="0"
       gradientUnits="userSpaceOnUse"
       gradientTransform="matrix(27.273372,0,0,30.056441,26.342347,86.508794)"><stop
         offset="0"
         style="stop-color:rgb(140,0,49);stop-opacity:1"
         id="stop10" /><stop
         offset="1"
         style="stop-color:rgb(70,0,89);stop-opacity:1"
         id="stop11" /></linearGradient><linearGradient
       id="_Linear4"
       x1="0"
       y1="0"
       x2="1"
       y2="0"
       gradientUnits="userSpaceOnUse"
       gradientTransform="matrix(-82.981679,82.721007,-82.721007,-82.981679,105.51044,22.6)"><stop
         offset="0"
         style="stop-color:black;stop-opacity:1"
         id="stop12" /><stop
         offset="1"
         style="stop-color:rgb(45,0,51);stop-opacity:1"
         id="stop13" /></linearGradient></defs><g
     style="clip-rule:evenodd;fill-rule:evenodd;stroke-linejoin:round;stroke-miterlimit:2"
     id="g10"
     transform="matrix(0.70659985,-0.70659985,0.70659985,0.70659985,-28.607965,64.711527)"><path
       d="m 23.6,103.4 c -1.407,-0.803 -1.263,-3.33 -0.512,-5.534 0.813,-2.386 2.113,-4.976 4.812,-8.966 0,0 4.025,-5.112 7.145,-8.409 2.46,-2.598 5.324,-5.541 7.572,-7.607 L 46.7,69.2 c 0.195,-0.109 0.59,-0.358 0.59,-0.358 L 58.3,58.1 c 2.026,-0.872 4.144,-1.801 5.7,-2.67 1.809,-1.01 2.918,-1.852 2.918,-1.852 0.93,-0.643 1.888,-1.425 2.814,-2.236 C 72.698,48.744 75.3,45.8 75.3,45.8 c 4.969,-0.814 9.352,-3.143 13.391,-6.119 3.77,-2.778 6.869,-5.961 8.89,-8.179 4.117,-4.517 6.919,-8.902 6.919,-8.902 1.061,4.19 1.006,8.312 1.006,8.312 0.036,2.108 -0.175,3.999 -0.449,5.503 -0.407,2.235 -0.943,3.62 -0.943,3.62 -1.64,4.743 -4.506,7.082 -4.506,7.082 -2.24,2.18 -5.525,4.565 -9.175,6.99 -1.489,0.989 -3.033,1.969 -4.601,2.968 -2.717,1.732 -5.133,3.199 -7.328,4.615 -3.946,2.545 -6.914,4.771 -9.032,6.707 -1.389,1.269 -2.514,2.649 -3.176,3.681 C 65.638,73.106 65.3,74.1 65.3,74.1 c -0.164,-0.178 -0.534,-0.403 -0.534,-0.403 -1.211,-0.74 -2.345,-1.108 -2.96,-1.237 -1.966,-0.415 -3.103,0.123 -3.718,1.277 -0.937,1.761 -0.169,5.208 -0.169,5.208 0.098,0.566 0.381,1.655 0.381,1.655 -0.185,0.099 -0.553,-0.075 -0.553,-0.075 -0.146,-0.065 -0.226,-0.11 -0.226,-0.11 -0.561,-0.259 -1.72,-1.252 -1.72,-1.252 -0.696,-0.252 -1.378,-0.352 -1.378,-0.352 -4.378,-0.643 -5.358,2.48 -5.46,4.686 C 48.91,84.657 49,85.5 49,85.5 c -0.527,0.251 -1.483,0.684 -1.483,0.684 0,0 -1.157,0.503 -1.636,0.736 -0.898,0.438 -1.506,0.787 -1.506,0.787 -1.507,0.814 -2.794,2.256 -3.97,4.226 -0.43,0.721 -0.86,1.492 -1.26,2.359 -1.562,3.383 -2.299,5.091 -2.666,6.138 -1.398,3.981 -5.113,4.89 -6.957,4.891 -1.09,0.001 -2.257,-0.194 -3.227,-0.562 C 24.603,104.116 23.6,103.4 23.6,103.4 Z"
       style="fill:url(#_Linear1)"
       id="path1" /><path
       d="m 52.913,68.665 c 1.638,1.046 2.608,2.098 2.608,2.098 3.124,-3.691 8.239,-1.704 8.239,-1.704 2.259,-3.195 7.078,-7.214 16.198,-12.788 3.122,-1.908 6.103,-3.786 8.383,-5.317 2.805,-1.884 4.576,-3.225 4.576,-3.225 3.253,-2.473 5.157,-4.061 6.441,-6.399 2.391,-4.35 2.311,-8.719 2.311,-8.719 C 88.767,47.737 77.25,49.299 77.25,49.299 69.121,58.111 63.438,59.982 60.465,61.296 Z"
       style="fill:url(#_Radial2)"
       id="path2" /><path
       d="m 26.342,100.607 c 1.083,0.631 2.453,1.038 3.512,0.905 1.335,-0.169 2.435,-0.923 2.829,-1.825 0.767,-1.755 0.778,-2.324 3.473,-7.915 1.027,-2.13 2.614,-4.426 4.118,-5.777 1.418,-1.273 3.534,-2.372 4.907,-2.935 0,0 0.146,-2.596 1.231,-4.316 0,0 1.077,-2.149 3.566,-3.182 0,0 1.457,-0.693 3.489,-0.645 l 0.149,-0.573 C 52.949,73.498 51.753,72.25 50.235,71.481 l -1.301,0.813 c -5.963,5.308 -9.144,8.724 -9.144,8.724 0,0 -3.999,4.187 -6.782,7.592 -0.486,0.594 -1.461,1.759 -1.806,2.235 -2.325,3.21 -3.551,5.735 -4.203,7.393 -0.649,1.652 -0.657,2.369 -0.657,2.369 z"
       style="fill:url(#_Linear3)"
       id="path3" /><path
       d="m 63.4,65.5 15,-11.3 C 79.3,52 77,52.4 77,52.4 L 62.2,63.8 c -0.6,2 1.3,1.6 1.3,1.6 z"
       style="fill:url(#_Linear4);fill-rule:nonzero"
       id="path4" /></g></svg>
