<?xml version="1.0" encoding="UTF-8" standalone="no"?>
<svg
   width="128"
   height="128"
   version="1.1"
   id="svg10"
   sodipodi:docname="loot-melee-huntsman-dark-ice.svg"
   xml:space="preserve"
   inkscape:version="1.4.3 (0d15f75, 2025-12-25)"
   xmlns:inkscape="http://www.inkscape.org/namespaces/inkscape"
   xmlns:sodipodi="http://sodipodi.sourceforge.net/DTD/sodipodi-0.dtd"
   xmlns:xlink="http://www.w3.org/1999/xlink"
   xmlns="http://www.w3.org/2000/svg"
   xmlns:svg="http://www.w3.org/2000/svg"><sodipodi:namedview
     id="namedview10"
     pagecolor="#ffffff"
     bordercolor="#000000"
     borderopacity="0.25"
     inkscape:showpageshadow="2"
     inkscape:pageopacity="0.0"
     inkscape:pagecheckerboard="0"
     inkscape:deskcolor="#d1d1d1"
     inkscape:zoom="3.1523438"
     inkscape:cx="25.219331"
     inkscape:cy="82.636927"
     inkscape:window-width="1920"
     inkscape:window-height="1009"
     inkscape:window-x="-8"
     inkscape:window-y="-8"
     inkscape:window-maximized="1"
     inkscape:current-layer="svg10" /><defs
     id="defs8"><linearGradient
       id="d"><stop
         offset="0"
         stop-color="#a3441c"
         id="stop1" /><stop
         offset="1"
         stop-color="#361105"
         id="stop2" /></linearGradient><linearGradient
       id="f"><stop
         offset="0"
         stop-color="#b14427"
         id="stop3" /><stop
         offset="1"
         stop-color="#5b2d1e"
         id="stop4" /></linearGradient><linearGradient
       id="c"><stop
         offset="0"
         stop-color="#0e0e0f"
         id="stop5" /><stop
         offset="1"
         stop-color="#6c6e72"
         id="stop6" /></linearGradient><linearGradient
       xlink:href="#a"
       id="j"
       x1="53.462"
       y1="65.108"
       x2="88.445"
       y2="39.13"
       gradientUnits="userSpaceOnUse" /><clipPath
       id="i"><path
         d="M34.835 48.759s.128-2.363.64-2.534c5.165 8.869 7.554.56 7.53-.245 6.724 3.265 22.466-3.557 33.868-4.093 10.172-.593 16.759 10.97 16.759 10.97s-18.76-4.23-29.286 3.371c-9.247-.418-12.16 1.023-16.375 2.655l-13.599.195s3.996-4.813.463-10.32z"
         fill="url(#b)"
         id="path6" /></clipPath><linearGradient
       xlink:href="#c"
       id="b"
       gradientUnits="userSpaceOnUse"
       x1="86.264"
       y1="43.856"
       x2="35.469"
       y2="58.534" /><linearGradient
       xlink:href="#d"
       id="h"
       gradientUnits="userSpaceOnUse"
       x1="30.756"
       y1="49.493"
       x2="8.975"
       y2="58.407"
       gradientTransform="translate(.069 -.517)" /><clipPath
       id="g"><path
         d="M11.594 47.214c10.629 4.574 10.856 3.356 15.897 1.541 3.997 4.792 6.678 1.297 7.368-.357.606-.101 6.636 3.033 7.176 5.516.262 1.209.182 1.76-.583 2.875-.878 1.28-4.928 1.958-6.178 2.27-8.986.602-16.032.217-21.494-.47-11.853-2.274-10.52-5.681-10.52-5.681 1.38-6.444 6.645-6.693 8.334-5.694z"
         fill="url(#e)"
         id="path7" /></clipPath><linearGradient
       xlink:href="#f"
       id="e"
       gradientUnits="userSpaceOnUse"
       gradientTransform="translate(.069 -.517)"
       x1="29.885"
       y1="48.621"
       x2="8.975"
       y2="58.407" /><linearGradient
       id="a"><stop
         offset="0"
         stop-color="#1f2021"
         id="stop7" /><stop
         offset="1"
         stop-color="#a1a3a6"
         id="stop8" /></linearGradient><linearGradient
       id="_Linear2"
       x1="0"
       y1="0"
       x2="1"
       y2="0"
       gradientUnits="userSpaceOnUse"
       gradientTransform="matrix(-117.96898,49.02607,-49.02607,-117.96898,226.297,339.80603)"><stop
         offset="0"
         style="stop-color:#0032b3;stop-opacity:1"
         id="stop5-0" /><stop
         offset="0.2"
         style="stop-color:#0f56d1;stop-opacity:1"
         id="stop6-9" /><stop
         offset="0.42"
         style="stop-color:#1f7cf0;stop-opacity:1"
         id="stop7-4" /><stop
         offset="1"
         style="stop-color:#268eff;stop-opacity:1"
         id="stop8-8" /></linearGradient><linearGradient
       id="_Linear4"
       x1="0"
       y1="0"
       x2="1"
       y2="0"
       gradientUnits="userSpaceOnUse"
       gradientTransform="matrix(248.45969,-30.534715,30.534715,248.45969,241.53355,222.39555)"><stop
         offset="0"
         style="stop-color:#1aaaff;stop-opacity:1"
         id="stop9" /><stop
         offset="0.56"
         style="stop-color:#b2e6fe;stop-opacity:1"
         id="stop10" /><stop
         offset="1"
         style="stop-color:#f2fffd;stop-opacity:1"
         id="stop11" /></linearGradient></defs><g
     style="clip-rule:evenodd;fill-rule:evenodd;stroke-miterlimit:5.1"
     id="g10"
     transform="matrix(0.16958794,-0.16958794,0.16958794,0.16958794,-28.597574,64.713054)"><g
       id="g3"><clipPath
         id="_clip1"><path
           d="m 150.833,421.25 c 22.5,-56.667 27.917,-52.917 53.333,-65 -2.917,-32.917 20,-29.583 28.75,-26.25 2.5,-2.083 13.333,-36.25 6.25,-47.5 -3.333,-5.417 -5.833,-7.083 -12.917,-8.75 -7.917,-1.667 -25.833,11.25 -31.667,14.583 -35.833,31.25 -60.417,59.167 -78.333,82.083 -35.833,52.5 -17.917,60.417 -17.917,60.417 29.167,18.75 49.583,0 52.5,-10 v 0.417 z"
           id="path1" /></clipPath><g
         clip-path="url(#_clip1)"
         id="g2"><path
           d="m 150.833,421.25 c 22.5,-56.667 27.917,-52.917 53.333,-65 -2.917,-32.917 20,-29.583 28.75,-26.25 2.5,-2.083 13.333,-36.25 6.25,-47.5 -3.333,-5.417 -5.833,-7.083 -12.917,-8.75 -7.917,-1.667 -25.833,11.25 -31.667,14.583 -35.833,31.25 -60.417,59.167 -78.333,82.083 -35.833,52.5 -17.917,60.417 -17.917,60.417 29.167,18.75 49.583,0 52.5,-10 v 0.417 z"
           style="fill:url(#_Linear2);fill-rule:nonzero;stroke:#001326;stroke-width:31.67px"
           id="path2" /></g></g><g
       id="g5"><clipPath
         id="_clip3"><path
           d="m 231.25,328.75 c 0,0 9.167,8.333 11.667,7.083 -13.75,-52.5 26.25,-30.417 29.167,-27.083 12.917,-37.083 97.083,-70.417 141.667,-111.25 40,-35.833 21.667,-103.333 21.667,-103.333 0,0 -54.167,85.833 -121.667,96.667 -32.917,36.25 -49.167,41.667 -70.833,51.25 l -51.25,50 c 0,0 32.917,2.917 40.417,36.667 h -0.833 z"
           id="path3" /></clipPath><g
         clip-path="url(#_clip3)"
         id="g4"><path
           d="m 231.25,328.75 c 0,0 9.167,8.333 11.667,7.083 -13.75,-52.5 26.25,-30.417 29.167,-27.083 12.917,-37.083 97.083,-70.417 141.667,-111.25 40,-35.833 21.667,-103.333 21.667,-103.333 0,0 -54.167,85.833 -121.667,96.667 -32.917,36.25 -49.167,41.667 -70.833,51.25 l -51.25,50 c 0,0 32.917,2.917 40.417,36.667 h -0.833 z"
           style="fill:url(#_Linear4);fill-rule:nonzero;stroke:#001326;stroke-width:31.67px"
           id="path4" /></g></g><path
       d="m 264.167,272.917 62.5,-47.083 c 3.75,-9.167 -5.833,-7.5 -5.833,-7.5 l -61.667,47.5 c -2.5,8.333 5.417,6.667 5.417,6.667 l -0.417,0.417 z"
       style="fill:#001326;fill-rule:nonzero"
       id="path5" /></g></svg>
