<?xml version="1.0" encoding="UTF-8" standalone="no"?>
<svg
   width="27"
   height="89"
   viewBox="0 0 27 89"
   version="1.1"
   id="svg9"
   sodipodi:docname="loot-melee-bayonet-fade2.svg"
   inkscape:version="1.3.2 (091e20e, 2023-11-25, custom)"
   inkscape:export-filename="C:\Users\kjust\Desktop\projects\surviv\client\img\guns\melee-bayonet.png"
   inkscape:export-xdpi="266.66666"
   inkscape:export-ydpi="266.66666"
   xml:space="preserve"
   xmlns:inkscape="http://www.inkscape.org/namespaces/inkscape"
   xmlns:sodipodi="http://sodipodi.sourceforge.net/DTD/sodipodi-0.dtd"
   xmlns:xlink="http://www.w3.org/1999/xlink"
   xmlns="http://www.w3.org/2000/svg"
   xmlns:svg="http://www.w3.org/2000/svg"
   xmlns:rdf="http://www.w3.org/1999/02/22-rdf-syntax-ns#"
   xmlns:cc="http://creativecommons.org/ns#"
   xmlns:dc="http://purl.org/dc/elements/1.1/"><metadata
     id="metadata13"><rdf:RDF><cc:Work
         rdf:about=""><dc:format>image/svg+xml</dc:format><dc:type
           rdf:resource="http://purl.org/dc/dcmitype/StillImage" /></cc:Work></rdf:RDF></metadata><sodipodi:namedview
     pagecolor="#ffffff"
     bordercolor="#666666"
     borderopacity="1"
     objecttolerance="10"
     gridtolerance="10"
     guidetolerance="10"
     inkscape:pageopacity="0"
     inkscape:pageshadow="2"
     inkscape:window-width="3440"
     inkscape:window-height="1417"
     id="namedview11"
     showgrid="false"
     inkscape:showpageshadow="false"
     inkscape:zoom="5.6568543"
     inkscape:cx="14.495689"
     inkscape:cy="64.081552"
     inkscape:window-x="1917"
     inkscape:window-y="1562"
     inkscape:window-maximized="1"
     inkscape:current-layer="svg9"
     inkscape:snap-smooth-nodes="true"
     inkscape:object-paths="true"
     inkscape:snap-intersection-paths="true"
     inkscape:pagecheckerboard="0"
     inkscape:deskcolor="#d1d1d1"><inkscape:grid
       type="xygrid"
       id="grid822"
       empspacing="4"
       spacingx="1"
       spacingy="1"
       originx="-50.5"
       originy="-19.5"
       units="px"
       visible="false" /></sodipodi:namedview><defs
     id="defs5"><linearGradient
       id="linearGradient25"
       inkscape:collect="always"><stop
         style="stop-color:#533311;stop-opacity:1;"
         offset="0"
         id="stop25" /><stop
         style="stop-color:#2d2926;stop-opacity:1;"
         offset="1"
         id="stop26" /></linearGradient><linearGradient
       id="linearGradient23"
       inkscape:collect="always"><stop
         style="stop-color:#46121d;stop-opacity:1;"
         offset="0"
         id="stop23" /><stop
         style="stop-color:#533311;stop-opacity:1;"
         offset="1"
         id="stop24" /></linearGradient><linearGradient
       id="linearGradient21"
       inkscape:collect="always"><stop
         style="stop-color:#211f37;stop-opacity:1;"
         offset="0.00282486"
         id="stop21" /><stop
         style="stop-color:#46121d;stop-opacity:1;"
         offset="1"
         id="stop22" /></linearGradient><linearGradient
       inkscape:collect="always"
       id="linearGradient835"><stop
         style="stop-color:#3d3522;stop-opacity:1;"
         offset="0"
         id="stop831" /><stop
         style="stop-color:#776742;stop-opacity:1"
         offset="1"
         id="stop833" /></linearGradient><linearGradient
       inkscape:collect="always"
       id="linearGradient827"><stop
         style="stop-color:#1f2021;stop-opacity:1"
         offset="0"
         id="stop823" /><stop
         style="stop-color:#a1a3a6;stop-opacity:1"
         offset="1"
         id="stop825" /></linearGradient><clipPath
       id="a"><rect
         ry="3.836"
         rx="2.4690001"
         y="272.65799"
         x="0.52899998"
         height="24.341999"
         width="3.704"
         stroke-miterlimit="10"
         id="rect2"
         style="fill:#515151;stroke-width:1.323;stroke-miterlimit:10;stroke-opacity:0.49" /></clipPath><clipPath
       clipPathUnits="userSpaceOnUse"
       id="clipPath4585"><path
         style="fill:#929292;fill-opacity:1;stroke:none;stroke-width:1.1726px;stroke-linecap:butt;stroke-linejoin:miter;stroke-opacity:1"
         d="M 68,21 V 16 C 68,12 56,5 36,5 16,5 4,12 4,16 v 5 c 0,8 12,-3 32,-3 20,0 32,11 32,3 z"
         id="path4587"
         inkscape:connector-curvature="0"
         sodipodi:nodetypes="cccccsc" /></clipPath><clipPath
       clipPathUnits="userSpaceOnUse"
       id="clipPath853"><path
         style="fill:#393a3c;fill-opacity:1;stroke:none;stroke-width:1px;stroke-linecap:butt;stroke-linejoin:miter;stroke-opacity:1"
         d="M 30,52 V 46 L 29,45 V 20 C 29.430325,9 35,1 35,1 l 8,23 v 24 l -1,1 v 3 z"
         id="path855"
         inkscape:connector-curvature="0"
         sodipodi:nodetypes="cccccccccc" /></clipPath><clipPath
       clipPathUnits="userSpaceOnUse"
       id="clipPath859"><path
         sodipodi:nodetypes="ccccccssssccccc"
         inkscape:connector-curvature="0"
         id="path861"
         d="m 24,52 h 27 v 4 H 41 v 25 l 1,1 v 8 c 0,0.514951 -1,1 -2,1 h -8 c -1,0 -2.000036,-0.485049 -2,-1 L 30.000489,82 31,81 V 56 h -7 z"
         style="fill:#3d3522;fill-opacity:1;stroke:none;stroke-width:7.44853;stroke-miterlimit:4;stroke-dasharray:none;stroke-opacity:1" /></clipPath><linearGradient
       inkscape:collect="always"
       xlink:href="#linearGradient827"
       id="linearGradient829"
       x1="30"
       y1="48"
       x2="41"
       y2="5"
       gradientUnits="userSpaceOnUse" /><linearGradient
       inkscape:collect="always"
       xlink:href="#linearGradient835"
       id="linearGradient837"
       x1="27"
       y1="68"
       x2="44.65696"
       y2="64"
       gradientUnits="userSpaceOnUse" /><clipPath
       clipPathUnits="userSpaceOnUse"
       id="clipPath11"><g
         id="g13"
         transform="rotate(-89.781225,-22.535387,-4.0506899)"><path
           transform="matrix(-1,0,0,1,75,36)"
           clip-path="url(#clipPath859)"
           sodipodi:nodetypes="ccccccssssccccc"
           inkscape:connector-curvature="0"
           id="path11"
           d="m 24,52 h 27 v 4 H 41 v 25 l 1,1 v 8 c 0,0.514951 -1,1 -2,1 h -8 c -1,0 -2.000036,-0.485049 -2,-1 L 30.000489,82 31,81 V 56 h -7 z"
           style="fill:url(#linearGradient13);fill-opacity:1;stroke:#000000;stroke-width:6;stroke-miterlimit:4;stroke-dasharray:none;stroke-opacity:1" /><path
           transform="matrix(-1,0,0,1,75,37)"
           clip-path="url(#clipPath853)"
           style="fill:url(#linearGradient14);fill-opacity:1;stroke:#000000;stroke-width:6;stroke-linecap:butt;stroke-linejoin:miter;stroke-miterlimit:4;stroke-dasharray:none;stroke-opacity:1"
           d="M 30,52 V 46 L 29,45 V 20 C 29.430325,9 35,1 35,1 l 8,23 v 24 l -1,1 v 3 z"
           id="path12"
           inkscape:connector-curvature="0"
           sodipodi:nodetypes="cccccccccc" /><path
           inkscape:connector-curvature="0"
           id="path13"
           d="m 37,64 a 2,2 0 0 0 2,2 2,2 0 0 0 2,-2 2,2 0 0 0 -2,-2 2,2 0 0 0 -2,2 z"
           style="fill:#000000;fill-opacity:1;stroke:none;stroke-width:2.92119;stroke-miterlimit:4;stroke-dasharray:none;stroke-opacity:1" /></g></clipPath><linearGradient
       inkscape:collect="always"
       xlink:href="#linearGradient835"
       id="linearGradient13"
       gradientUnits="userSpaceOnUse"
       x1="27"
       y1="68"
       x2="44.65696"
       y2="64" /><linearGradient
       inkscape:collect="always"
       xlink:href="#linearGradient827"
       id="linearGradient14"
       gradientUnits="userSpaceOnUse"
       x1="30"
       y1="48"
       x2="41"
       y2="5" /><linearGradient
       inkscape:collect="always"
       xlink:href="#linearGradient21"
       id="linearGradient22"
       x1="15.014648"
       y1="47.998047"
       x2="14.984375"
       y2="30.541016"
       gradientUnits="userSpaceOnUse" /><linearGradient
       inkscape:collect="always"
       xlink:href="#linearGradient23"
       id="linearGradient24"
       x1="14.984375"
       y1="30.541016"
       x2="14.628906"
       y2="13.126953"
       gradientUnits="userSpaceOnUse" /><linearGradient
       inkscape:collect="always"
       xlink:href="#linearGradient25"
       id="linearGradient26"
       x1="16.390625"
       y1="13.126953"
       x2="16.568359"
       y2="7.6738281"
       gradientUnits="userSpaceOnUse" /></defs><g
     id="g837"
     transform="translate(-24,-38)"
     sodipodi:insensitive="true"><path
       transform="matrix(-1,0,0,1,75,36)"
       clip-path="url(#clipPath859)"
       sodipodi:nodetypes="ccccccssssccccc"
       inkscape:connector-curvature="0"
       id="path857"
       d="m 24,52 h 27 v 4 H 41 v 25 l 1,1 v 8 c 0,0.514951 -1,1 -2,1 h -8 c -1,0 -2.000036,-0.485049 -2,-1 L 30.000489,82 31,81 V 56 h -7 z"
       style="fill:url(#linearGradient837);fill-opacity:1;stroke:#000000;stroke-width:6;stroke-miterlimit:4;stroke-dasharray:none;stroke-opacity:1" /><path
       transform="matrix(-1,0,0,1,75,37)"
       clip-path="url(#clipPath853)"
       style="fill:url(#linearGradient829);fill-opacity:1;stroke:#000000;stroke-width:6;stroke-linecap:butt;stroke-linejoin:miter;stroke-miterlimit:4;stroke-dasharray:none;stroke-opacity:1"
       d="M 30,52 V 46 L 29,45 V 20 C 29.430325,9 35,1 35,1 l 8,23 v 24 l -1,1 v 3 z"
       id="path851"
       inkscape:connector-curvature="0"
       sodipodi:nodetypes="cccccccccc" /><path
       inkscape:connector-curvature="0"
       id="path866"
       d="m 37,64 a 2,2 0 0 0 2,2 2,2 0 0 0 2,-2 2,2 0 0 0 -2,-2 2,2 0 0 0 -2,2 z"
       style="fill:#000000;fill-opacity:1;stroke:none;stroke-width:2.92119;stroke-miterlimit:4;stroke-dasharray:none;stroke-opacity:1" /></g><path
     style="fill:#000000;fill-opacity:0.503497;stroke:#000000;stroke-width:0.897523;stroke-opacity:1"
     d="m 8.2031733,23.626943 c 0,0.191434 -0.0044,0.574309 0,0.574309 0.0044,0 0,-0.765722 0,-0.574309 0,0.382869 0,0.765727 0,1.14859 -0.0011,0 -0.0025,-0.03343 -0.0033,0 -0.0034,0.144969 0.004,3.642621 0,4.163623 -0.0039,0.510176 4.74e-4,1.088943 -0.0033,1.579313 -0.0049,0.633761 -0.0033,-0.521654 -0.0033,0.430671 0,0.594774 0.004,3.677309 0,4.020053 -6.98e-4,0.06051 -0.0028,0.07939 -0.0033,0.14352 -0.0018,0.232106 0,0.607471 0,0.861439 0,0.961624 0.0043,2.853767 0,3.589336 -3.74e-4,0.06563 -0.0029,0.07789 -0.0033,0.143576 -0.0023,0.392006 -0.0023,4.252387 0,4.450774 6.98e-4,0.06051 0.0026,0.08302 0.0033,0.143521 0.0036,0.30849 -0.0038,1.991493 0,2.153599 7.73e-4,0.03343 0.0025,-0.03343 0.0033,0 0.0013,0.05599 0,0.486665 0,0.574309"
     id="path14" /><path
     style="fill:#000000;fill-opacity:0.503497;stroke:#000000;stroke-width:0.897523;stroke-opacity:1"
     d="m 21.572285,20.732599 c 0,0.191434 -0.0044,0.574309 0,0.574309 0.0044,0 0,-0.765722 0,-0.574309 0,0.382869 0,0.765727 0,1.14859 -0.0011,0 -0.0025,-0.03343 -0.0033,0 -0.0034,0.144969 0.004,3.642621 0,4.163623 -0.0039,0.510176 4.74e-4,1.088943 -0.0033,1.579313 -0.0049,0.633761 -0.0033,-0.521654 -0.0033,0.430671 0,0.594774 0.004,3.677309 0,4.020053 -6.98e-4,0.06051 -0.0028,0.07939 -0.0033,0.14352 -0.0018,0.232106 0,0.607471 0,0.861439 0,0.961624 0.0043,2.853767 0,3.589336 -3.74e-4,0.06563 -0.0029,0.07789 -0.0033,0.143576 -0.0023,0.392006 -0.0023,4.252387 0,4.450774 6.98e-4,0.06051 0.0026,0.08302 0.0033,0.143521 0.0036,0.30849 -0.0038,1.991493 0,2.153599 7.73e-4,0.03343 0.0025,-0.03343 0.0033,0 0.0013,0.05599 0,0.486665 0,0.574309"
     id="path15" /><path
     style="fill:#000000;fill-opacity:0.503497;stroke:#000000;stroke-width:0.355812;stroke-opacity:1"
     d="m 20.785069,45.09215 c 0,0.01845 -0.0071,0.05536 0,0.05536 0.0071,0 0,-0.07381 0,-0.05536 0,0.03691 0,0.07381 0,0.11072 -0.0018,0 -0.0041,-0.0032 -0.0054,0 -0.0057,0.01397 0.0065,0.351136 0,0.401359 -0.0064,0.04918 7.73e-4,0.10497 -0.0054,0.15224 -0.008,0.06109 -0.0054,-0.05029 -0.0054,0.04152 0,0.05733 0.0065,0.354479 0,0.387519 -0.0011,0.0058 -0.0045,0.0077 -0.0054,0.01384 -0.003,0.02237 0,0.05856 0,0.08304 0,0.0927 0.0069,0.275093 0,0.345999 -6.11e-4,0.0063 -0.0048,0.0075 -0.0054,0.01384 -0.0038,0.03779 -0.0038,0.409915 0,0.429039 0.0011,0.0058 0.0043,0.008 0.0054,0.01384 0.0059,0.02974 -0.0062,0.191973 0,0.2076 0.0012,0.0032 0.0041,-0.0032 0.0054,0 0.0021,0.0054 0,0.04691 0,0.05536"
     id="path16" /><path
     style="fill:#000000;fill-opacity:0.503497;stroke:#000000"
     d="M 8.2913143,23.308263 C 10.890184,15.649718 13.943579,7.688156 16.087924,0.332627"
     id="path1"
     sodipodi:nodetypes="cc" /><path
     style="fill:#000000;fill-opacity:0.503497;stroke:#000000"
     d="m 16.173279,0.588125 c 3.351036,6.583968 5.239512,13.251511 5.37521,20.019212"
     id="path2"
     sodipodi:nodetypes="cc" /><path
     style="fill:#000000;fill-opacity:0.503497;stroke:#000000"
     d="m 8.1449203,46.553062 0.930325,0.930325"
     id="path3" /><path
     style="fill:#000000;fill-opacity:0.503497;stroke:#000000"
     d="m 20.583707,45.071434 0.792499,-1.033695"
     id="path4" /><path
     d="m 16.568359,7.6738281 c -0.0065,-0.018868 -0.910669,2.5373039 -1.939453,5.4531249 h 3.525391 C 17.787417,11.560664 17.281933,9.754606 16.568359,7.6738281 Z"
     style="display:inline;fill:url(#linearGradient26);fill-rule:evenodd;stroke:none;stroke-width:0.09;stroke-linecap:round;stroke-linejoin:round;stroke-miterlimit:1"
     id="path19" /><path
     d="M 18.980469,30.541016 H 10.988281 V 45.740234 L 12.011719,46.763672 12,47.998047 h 6.029297 l -0.01172,-4.263672 0.962891,-0.962891 z"
     style="display:inline;fill:url(#linearGradient22);fill-opacity:1;fill-rule:evenodd;stroke:none;stroke-width:0.09;stroke-linecap:round;stroke-linejoin:round;stroke-miterlimit:1"
     id="path10" /><path
     d="M 18.154297,13.126953 H 14.626953 C 13.006566,17.71952 10.988281,23.46875 10.988281,23.46875 v 7.072266 h 7.992188 v -9.734375 c 0,0 0.402837,-2.432787 -0.826172,-7.679688 z"
     style="display:inline;fill:url(#linearGradient24);fill-opacity:1;fill-rule:evenodd;stroke:none;stroke-width:0.083677;stroke-linecap:round;stroke-linejoin:round;stroke-miterlimit:1"
     id="path18" /><rect
     style="fill:#000000;fill-opacity:1;fill-rule:evenodd;stroke:none;stroke-width:0.055244;stroke-linecap:round;stroke-linejoin:round;stroke-miterlimit:1;stroke-dasharray:none;stroke-opacity:1"
     id="rect27"
     width="3.9995422"
     height="3.9995422"
     x="13"
     y="24.000458"
     ry="1.9997711" /></svg>
