<?xml version="1.0" encoding="UTF-8" standalone="no"?>
<svg
   width="128"
   height="128"
   viewBox="0 0 128 128"
   version="1.1"
   id="svg9"
   sodipodi:docname="loot-melee-wakizashi-rust.svg"
   inkscape:version="1.4.3 (0d15f750, 2025-12-25)"
   inkscape:export-filename="C:\Users\kjust\Desktop\projects\surviv\client\img\melee\melee-huntsman.png"
   inkscape:export-xdpi="256"
   inkscape:export-ydpi="256"
   xml:space="preserve"
   xmlns:inkscape="http://www.inkscape.org/namespaces/inkscape"
   xmlns:sodipodi="http://sodipodi.sourceforge.net/DTD/sodipodi-0.dtd"
   xmlns:xlink="http://www.w3.org/1999/xlink"
   xmlns="http://www.w3.org/2000/svg"
   xmlns:svg="http://www.w3.org/2000/svg"
   xmlns:rdf="http://www.w3.org/1999/02/22-rdf-syntax-ns#"
   xmlns:cc="http://creativecommons.org/ns#"
   xmlns:dc="http://purl.org/dc/elements/1.1/"><metadata
     id="metadata13"><rdf:RDF><cc:Work
         rdf:about=""><dc:format>image/svg+xml</dc:format><dc:type
           rdf:resource="http://purl.org/dc/dcmitype/StillImage" /></cc:Work></rdf:RDF></metadata><sodipodi:namedview
     pagecolor="#ffffff"
     bordercolor="#666666"
     borderopacity="1"
     objecttolerance="10"
     gridtolerance="10"
     guidetolerance="10"
     inkscape:pageopacity="0"
     inkscape:pageshadow="2"
     inkscape:window-width="1470"
     inkscape:window-height="838"
     id="namedview11"
     showgrid="true"
     inkscape:showpageshadow="false"
     inkscape:zoom="3.9801902"
     inkscape:cx="41.87537"
     inkscape:cy="62.672085"
     inkscape:window-x="0"
     inkscape:window-y="33"
     inkscape:window-maximized="0"
     inkscape:current-layer="g1"
     inkscape:snap-smooth-nodes="false"
     inkscape:object-paths="false"
     inkscape:snap-intersection-paths="false"
     inkscape:object-nodes="false"
     inkscape:snap-nodes="false"
     inkscape:pagecheckerboard="0"
     inkscape:deskcolor="#d1d1d1"
     inkscape:rotation="-1"><inkscape:grid
       type="xygrid"
       id="grid822"
       empspacing="4"
       spacingx="1"
       spacingy="1"
       originx="0"
       originy="0"
       units="px" /></sodipodi:namedview><defs
     id="defs5"><linearGradient
       inkscape:collect="always"
       id="linearGradient906"><stop
         style="stop-color:#b14427;stop-opacity:1"
         offset="0"
         id="stop902" /><stop
         style="stop-color:#5b2d1e;stop-opacity:1"
         offset="1"
         id="stop904" /></linearGradient><linearGradient
       id="linearGradient900"
       inkscape:collect="always"><stop
         id="stop896"
         offset="0"
         style="stop-color:#0e0e0f;stop-opacity:1" /><stop
         id="stop898"
         offset="1"
         style="stop-color:#6c6e72;stop-opacity:1" /></linearGradient><clipPath
       clipPathUnits="userSpaceOnUse"
       id="clipPath853"><path
         style="fill:#393a3c;fill-opacity:1;stroke:none;stroke-width:1px;stroke-linecap:butt;stroke-linejoin:miter;stroke-opacity:1"
         d="M 30,52 V 46 L 29,45 V 20 C 29.430325,9 35,1 35,1 l 8,23 v 24 l -1,1 v 3 z"
         id="path855-2"
         inkscape:connector-curvature="0"
         sodipodi:nodetypes="cccccccccc" /></clipPath><clipPath
       clipPathUnits="userSpaceOnUse"
       id="clipPath914"><path
         sodipodi:nodetypes="ccccccccc"
         inkscape:connector-curvature="0"
         id="path916"
         d="m 34.835322,48.758939 c 0,0 0.128178,-2.363347 0.63983,-2.533898 5.165255,8.868644 7.554026,0.559322 7.529661,-0.244704 6.724577,3.264831 22.466103,-3.557203 33.868645,-4.09322 10.17161,-0.59298 16.758474,10.970339 16.758474,10.970339 0,0 -18.760593,-4.230932 -29.286017,3.370763 -9.246714,-0.417869 -12.159178,1.023025 -16.375,2.654661 l -13.598517,0.194915 c 0,0 3.995763,-4.8125 0.462924,-10.318856 z"
         style="fill:url(#linearGradient918);fill-opacity:1;stroke:none;stroke-width:1px;stroke-linecap:butt;stroke-linejoin:miter;stroke-opacity:1" /></clipPath><linearGradient
       inkscape:collect="always"
       xlink:href="#linearGradient900"
       id="linearGradient918"
       gradientUnits="userSpaceOnUse"
       x1="86.26384"
       y1="43.855785"
       x2="35.469406"
       y2="58.534248" /><clipPath
       clipPathUnits="userSpaceOnUse"
       id="clipPath971"><path
         sodipodi:nodetypes="cccsscccc"
         inkscape:connector-curvature="0"
         id="path973"
         d="m 11.593596,47.214146 c 10.629052,4.57427 10.856034,3.356192 15.897715,1.541115 3.9967,4.792147 6.678121,1.296682 7.36725,-0.357229 0.606358,-0.10106 6.635984,3.033079 7.176002,5.516133 0.262797,1.208367 0.182678,1.760738 -0.582149,2.875242 -0.878641,1.280352 -4.928254,1.957585 -6.178099,2.269079 C 26.287762,59.661061 19.242201,59.276477 13.780017,58.589372 1.92699,56.315245 3.2608455,52.907774 3.2608455,52.907774 4.6391044,46.464413 9.9052296,46.214908 11.593596,47.214146 Z"
         style="fill:url(#linearGradient975);fill-opacity:1;stroke:none;stroke-width:1px;stroke-linecap:butt;stroke-linejoin:miter;stroke-opacity:1"
         clip-path="none" /></clipPath><linearGradient
       inkscape:collect="always"
       xlink:href="#linearGradient906"
       id="linearGradient975"
       gradientUnits="userSpaceOnUse"
       gradientTransform="translate(0.06891291,-0.51684712)"
       x1="29.885138"
       y1="48.621422"
       x2="8.9751101"
       y2="58.407059" /><linearGradient
       id="linearGradient927"><stop
         id="stop923"
         offset="0"
         stop-color="#ffc321"
         style="stop-color:#d1ca00;stop-opacity:1;" /><stop
         id="stop925"
         offset="1"
         stop-color="#925d15"
         style="stop-color:#520d6d;stop-opacity:1" /></linearGradient><linearGradient
       id="linearGradient921"><stop
         style="stop-color:#371c16;stop-opacity:1;"
         offset="0"
         stop-color="#c14a2f"
         id="stop915" /><stop
         style="stop-color:#4d1b0f;stop-opacity:1;"
         offset="0.63681579"
         stop-color="#70461e"
         id="stop917" /><stop
         style="stop-color:#92331e;stop-opacity:1;"
         offset="1"
         stop-color="#381611"
         id="stop919" /></linearGradient><linearGradient
       id="linearGradient913"
       inkscape:collect="always"><stop
         id="stop909"
         offset="0"
         style="stop-color:#360500;stop-opacity:1" /><stop
         id="stop911"
         offset="1"
         style="stop-color:#001429;stop-opacity:1" /></linearGradient><linearGradient
       id="linearGradient1334"
       inkscape:collect="always"><stop
         id="stop1330"
         offset="0"
         style="stop-color:#b20000;stop-opacity:1" /><stop
         id="stop1332"
         offset="1"
         style="stop-color:#400000;stop-opacity:1" /></linearGradient><linearGradient
       id="a-0"><stop
         offset="0"
         stop-color="#1f2021"
         id="stop7" /><stop
         offset="1"
         stop-color="#a1a3a6"
         id="stop9" /></linearGradient><linearGradient
       id="a-8"><stop
         stop-color="#ffc321"
         offset="0"
         id="stop3" /><stop
         stop-color="#925d15"
         offset="1"
         id="stop5" /></linearGradient><clipPath
       clipPathUnits="userSpaceOnUse"
       id="clipPath935"><path
         sodipodi:nodetypes="cccccssssssssc"
         inkscape:connector-curvature="0"
         id="path937"
         d="m 444.37672,98.816297 9.03975,-0.852524 -0.45479,-4.687633 14.47819,-1.4419 0.73957,4.894512 9.49234,-0.897079 c 0.70914,-0.06702 1.34032,0.551539 1.41452,1.379222 l 0.26785,2.988015 c 0.0741,0.82769 -0.43722,1.54521 -1.14667,1.60881 l -33.29506,2.98458 c -0.70945,0.0636 -1.34031,-0.55154 -1.41451,-1.37922 l -0.26785,-2.98802 c -0.0741,-0.827684 0.43722,-1.545204 1.14666,-1.608803 z"
         style="fill:url(#radialGradient939);fill-opacity:1;stroke:none;stroke-width:16.6647625;stroke-linecap:butt;stroke-linejoin:miter;stroke-miterlimit:4;stroke-dasharray:none;stroke-opacity:0.70588235" /></clipPath><radialGradient
       inkscape:collect="always"
       xlink:href="#a-8"
       id="radialGradient939"
       gradientUnits="userSpaceOnUse"
       gradientTransform="matrix(0.999427,-0.03384776,0.01142412,0.33732129,318.23274,37.325054)"
       cx="140.84543"
       cy="194.43069"
       fx="140.84543"
       fy="194.43069"
       r="18.058287" /><clipPath
       clipPathUnits="userSpaceOnUse"
       id="clipPath1029"><path
         sodipodi:nodetypes="ccccc"
         inkscape:connector-curvature="0"
         id="path1031"
         d="m 224.42629,71.057014 c 9.91733,5.177264 14.25373,14.383958 14.25373,14.383958 C 180.1902,77.005595 132.82161,78.45388 89.827218,84.134571 l 0.10902,-14.116229 c 0,0 71.846072,-8.315864 134.490052,1.038672 z"
         style="fill:url(#linearGradient1033);fill-opacity:1;stroke:none;stroke-width:11.17650414;stroke-linecap:butt;stroke-linejoin:miter;stroke-miterlimit:4;stroke-dasharray:none;stroke-opacity:0.70588235" /></clipPath><linearGradient
       inkscape:collect="always"
       xlink:href="#a-0"
       id="linearGradient1033"
       gradientUnits="userSpaceOnUse"
       gradientTransform="matrix(0.92265058,0.00712567,-0.00772281,0.99997018,19.047211,-0.73439029)"
       x1="77.419548"
       y1="75.368668"
       x2="238.75258"
       y2="75.368668" /><clipPath
       clipPathUnits="userSpaceOnUse"
       id="clipPath1048"><path
         sodipodi:nodetypes="cccccccc"
         inkscape:connector-curvature="0"
         id="path1050"
         d="m 6.1333402,37.4125 c 0,0 -1.2542567,-0.09745 -1.5994733,-1.451236 L 2.3787365,25.00087 C 2.0899048,23.652116 3.5982922,23.100412 3.5982922,23.100412 19.290499,19.518464 44.490143,15.671446 83.105618,11.569538 c 0.638666,5.008541 1.159647,12.03104 0.572405,13.547279 -33.178509,2.73815 -57.167311,7.722394 -77.5446947,12.295694 z"
         style="fill:url(#linearGradient1052);fill-opacity:1;stroke:none;stroke-width:18.66716766;stroke-miterlimit:4;stroke-dasharray:none;stroke-opacity:1"
         clip-path="none" /></clipPath><linearGradient
       inkscape:collect="always"
       xlink:href="#linearGradient1334"
       id="linearGradient1052"
       gradientUnits="userSpaceOnUse"
       gradientTransform="matrix(1.163701,-0.02510358,0.02502472,0.99973012,-13.104288,-56.607286)"
       x1="11.518591"
       y1="82.321312"
       x2="81.654747"
       y2="82.321312" /><linearGradient
       inkscape:collect="always"
       xlink:href="#linearGradient913"
       id="linearGradient1081"
       gradientUnits="userSpaceOnUse"
       x1="2.3419836"
       y1="24.491024"
       x2="83.934189"
       y2="24.491024" /><linearGradient
       inkscape:collect="always"
       xlink:href="#linearGradient921"
       id="linearGradient1083"
       gradientUnits="userSpaceOnUse"
       gradientTransform="matrix(0.92265058,0.00712567,-0.00772281,0.99997018,19.047211,-0.73439029)"
       x1="92.82383"
       y1="59.684105"
       x2="214.26779"
       y2="94.839348" /><radialGradient
       inkscape:collect="always"
       xlink:href="#linearGradient927"
       id="radialGradient1085"
       gradientUnits="userSpaceOnUse"
       gradientTransform="matrix(0.999427,-0.03384776,0.01142412,0.33732129,318.23274,37.325054)"
       cx="140.84543"
       cy="194.43069"
       fx="140.84543"
       fy="194.43069"
       r="18.058287" /><linearGradient
       inkscape:collect="always"
       id="linearGradient873"><stop
         style="stop-color:#1a27de;stop-opacity:1"
         offset="0"
         id="stop869" /><stop
         id="stop877"
         offset="0.39650702"
         style="stop-color:#20e195;stop-opacity:1" /><stop
         style="stop-color:#7db146;stop-opacity:1"
         offset="0.59444147"
         id="stop879" /><stop
         style="stop-color:#940cec;stop-opacity:1"
         offset="1"
         id="stop871" /></linearGradient><clipPath
       clipPathUnits="userSpaceOnUse"
       id="clipPath885"><path
         style="fill:url(#radialGradient889);fill-opacity:1;stroke:none;stroke-width:1px;stroke-linecap:butt;stroke-linejoin:miter;stroke-opacity:1"
         d="m 77.722459,36.302965 c 0,0 -12.572034,21.050848 -32.258475,14.618644 l 0.974576,14.472458 c 0,0 25.09534,-0.487288 31.283899,-29.091102 z"
         id="path887"
         inkscape:connector-curvature="0"
         sodipodi:nodetypes="cccc" /></clipPath><radialGradient
       inkscape:collect="always"
       xlink:href="#linearGradient873"
       id="radialGradient889"
       gradientUnits="userSpaceOnUse"
       gradientTransform="matrix(-0.85001378,0.89723527,-0.65467282,-0.6202174,158.4485,19.154544)"
       cx="68.139954"
       cy="49.473026"
       fx="68.139954"
       fy="49.473026"
       r="16.129236" /><clipPath
       clipPathUnits="userSpaceOnUse"
       id="clipPath909"><path
         style="fill:#303030;fill-opacity:0.7525253;stroke:none;stroke-width:1px;stroke-linecap:butt;stroke-linejoin:miter;stroke-opacity:1"
         d="m 25.800473,44.504569 c 1.58546,3.445444 3.096052,3.856056 6.895127,3.14301 2.767722,4.826803 5.430648,3.98234 7.796611,3.118642 2.928549,6.342688 8.88579,3.150834 10.330507,-2.631356 l 2.606993,1.023305 1.047669,16.080509 c 0,0 -4.864847,-1.901419 -7.931474,-2.245983 -3.445647,-0.275652 -5.465551,0.639806 -5.465551,0.639806 -16.435739,-3.996951 -23.231324,-8.817773 -26.024586,-13.158653 2.095339,1.169492 8.45445,2.314619 10.744704,-5.96928 z"
         id="path911"
         inkscape:connector-curvature="0"
         sodipodi:nodetypes="cccccccccc" /></clipPath><clipPath
       clipPathUnits="userSpaceOnUse"
       id="clipPath853-3"><path
         style="fill:#393a3c;fill-opacity:1;stroke:none;stroke-width:1px;stroke-linecap:butt;stroke-linejoin:miter;stroke-opacity:1"
         d="M 30,52 V 46 L 29,45 V 20 C 29.430325,9 35,1 35,1 l 8,23 v 24 l -1,1 v 3 z"
         id="path855-2-8"
         inkscape:connector-curvature="0"
         sodipodi:nodetypes="cccccccccc" /></clipPath><clipPath
       clipPathUnits="userSpaceOnUse"
       id="clipPath914-1"><path
         sodipodi:nodetypes="ccccccccc"
         inkscape:connector-curvature="0"
         id="path916-5"
         d="m 34.835322,48.758939 c 0,0 0.128178,-2.363347 0.63983,-2.533898 5.165255,8.868644 7.554026,0.559322 7.529661,-0.244704 6.724577,3.264831 22.466103,-3.557203 33.868645,-4.09322 10.17161,-0.59298 16.758474,10.970339 16.758474,10.970339 0,0 -18.760593,-4.230932 -29.286017,3.370763 -9.246714,-0.417869 -12.159178,1.023025 -16.375,2.654661 l -13.598517,0.194915 c 0,0 3.995763,-4.8125 0.462924,-10.318856 z"
         style="fill:url(#linearGradient918);fill-opacity:1;stroke:none;stroke-width:1px;stroke-linecap:butt;stroke-linejoin:miter;stroke-opacity:1" /></clipPath><clipPath
       clipPathUnits="userSpaceOnUse"
       id="clipPath971-3"><path
         sodipodi:nodetypes="cccsscccc"
         inkscape:connector-curvature="0"
         id="path973-5"
         d="m 11.593596,47.214146 c 10.629052,4.57427 10.856034,3.356192 15.897715,1.541115 3.9967,4.792147 6.678121,1.296682 7.36725,-0.357229 0.606358,-0.10106 6.635984,3.033079 7.176002,5.516133 0.262797,1.208367 0.182678,1.760738 -0.582149,2.875242 -0.878641,1.280352 -4.928254,1.957585 -6.178099,2.269079 C 26.287762,59.661061 19.242201,59.276477 13.780017,58.589372 1.92699,56.315245 3.2608455,52.907774 3.2608455,52.907774 4.6391044,46.464413 9.9052296,46.214908 11.593596,47.214146 Z"
         style="fill:url(#linearGradient975);fill-opacity:1;stroke:none;stroke-width:1px;stroke-linecap:butt;stroke-linejoin:miter;stroke-opacity:1"
         clip-path="none" /></clipPath><linearGradient
       id="linearGradient921-6"><stop
         style="stop-color:#371c16;stop-opacity:1;"
         offset="0"
         stop-color="#c14a2f"
         id="stop915-5" /><stop
         style="stop-color:#4d1b0f;stop-opacity:1;"
         offset="0.63681579"
         stop-color="#70461e"
         id="stop917-9" /><stop
         style="stop-color:#92331e;stop-opacity:1;"
         offset="1"
         stop-color="#381611"
         id="stop919-5" /></linearGradient><clipPath
       clipPathUnits="userSpaceOnUse"
       id="clipPath935-8"><path
         sodipodi:nodetypes="cccccssssssssc"
         inkscape:connector-curvature="0"
         id="path937-8"
         d="m 444.37672,98.816297 9.03975,-0.852524 -0.45479,-4.687633 14.47819,-1.4419 0.73957,4.894512 9.49234,-0.897079 c 0.70914,-0.06702 1.34032,0.551539 1.41452,1.379222 l 0.26785,2.988015 c 0.0741,0.82769 -0.43722,1.54521 -1.14667,1.60881 l -33.29506,2.98458 c -0.70945,0.0636 -1.34031,-0.55154 -1.41451,-1.37922 l -0.26785,-2.98802 c -0.0741,-0.827684 0.43722,-1.545204 1.14666,-1.608803 z"
         style="fill:url(#radialGradient939-3);fill-opacity:1;stroke:none;stroke-width:16.6647625;stroke-linecap:butt;stroke-linejoin:miter;stroke-miterlimit:4;stroke-dasharray:none;stroke-opacity:0.70588235" /></clipPath><radialGradient
       inkscape:collect="always"
       xlink:href="#a-8"
       id="radialGradient939-3"
       gradientUnits="userSpaceOnUse"
       gradientTransform="matrix(0.999427,-0.03384776,0.01142412,0.33732129,318.23274,37.325054)"
       cx="140.84543"
       cy="194.43069"
       fx="140.84543"
       fy="194.43069"
       r="18.058287" /><clipPath
       clipPathUnits="userSpaceOnUse"
       id="clipPath1029-5"><path
         sodipodi:nodetypes="ccccc"
         inkscape:connector-curvature="0"
         id="path1031-2"
         d="m 224.42629,71.057014 c 9.91733,5.177264 14.25373,14.383958 14.25373,14.383958 C 180.1902,77.005595 132.82161,78.45388 89.827218,84.134571 l 0.10902,-14.116229 c 0,0 71.846072,-8.315864 134.490052,1.038672 z"
         style="fill:url(#linearGradient1033);fill-opacity:1;stroke:none;stroke-width:11.17650414;stroke-linecap:butt;stroke-linejoin:miter;stroke-miterlimit:4;stroke-dasharray:none;stroke-opacity:0.70588235" /></clipPath><clipPath
       clipPathUnits="userSpaceOnUse"
       id="clipPath1048-2"><path
         sodipodi:nodetypes="cccccccc"
         inkscape:connector-curvature="0"
         id="path1050-6"
         d="m 6.1333402,37.4125 c 0,0 -1.2542567,-0.09745 -1.5994733,-1.451236 L 2.3787365,25.00087 C 2.0899048,23.652116 3.5982922,23.100412 3.5982922,23.100412 19.290499,19.518464 44.490143,15.671446 83.105618,11.569538 c 0.638666,5.008541 1.159647,12.03104 0.572405,13.547279 -33.178509,2.73815 -57.167311,7.722394 -77.5446947,12.295694 z"
         style="fill:url(#linearGradient1052);fill-opacity:1;stroke:none;stroke-width:18.66716766;stroke-miterlimit:4;stroke-dasharray:none;stroke-opacity:1"
         clip-path="none" /></clipPath><clipPath
       clipPathUnits="userSpaceOnUse"
       id="clipPath885-7"><path
         style="fill:url(#radialGradient889-8);fill-opacity:1;stroke:none;stroke-width:1px;stroke-linecap:butt;stroke-linejoin:miter;stroke-opacity:1"
         d="m 77.722459,36.302965 c 0,0 -12.572034,21.050848 -32.258475,14.618644 l 0.974576,14.472458 c 0,0 25.09534,-0.487288 31.283899,-29.091102 z"
         id="path887-1"
         inkscape:connector-curvature="0"
         sodipodi:nodetypes="cccc" /></clipPath><radialGradient
       inkscape:collect="always"
       xlink:href="#linearGradient873"
       id="radialGradient889-8"
       gradientUnits="userSpaceOnUse"
       gradientTransform="matrix(-0.85001378,0.89723527,-0.65467282,-0.6202174,158.4485,19.154544)"
       cx="68.139954"
       cy="49.473026"
       fx="68.139954"
       fy="49.473026"
       r="16.129236" /><clipPath
       clipPathUnits="userSpaceOnUse"
       id="clipPath909-7"><path
         style="fill:#303030;fill-opacity:0.7525253;stroke:none;stroke-width:1px;stroke-linecap:butt;stroke-linejoin:miter;stroke-opacity:1"
         d="m 25.800473,44.504569 c 1.58546,3.445444 3.096052,3.856056 6.895127,3.14301 2.767722,4.826803 5.430648,3.98234 7.796611,3.118642 2.928549,6.342688 8.88579,3.150834 10.330507,-2.631356 l 2.606993,1.023305 1.047669,16.080509 c 0,0 -4.864847,-1.901419 -7.931474,-2.245983 -3.445647,-0.275652 -5.465551,0.639806 -5.465551,0.639806 -16.435739,-3.996951 -23.231324,-8.817773 -26.024586,-13.158653 2.095339,1.169492 8.45445,2.314619 10.744704,-5.96928 z"
         id="path911-8"
         inkscape:connector-curvature="0"
         sodipodi:nodetypes="cccccccccc" /></clipPath></defs><g
     id="g840"
     transform="translate(16,-16.000001)"><g
       id="g1"
       transform="matrix(0.05165001,-0.40576528,0.40576528,0.05165001,31.638205,124.89431)"><path
         transform="matrix(1.254557,-0.35860883,-0.36928272,-1.8025748,-19.715145,110.0742)"
         sodipodi:nodetypes="cccccccc"
         inkscape:connector-curvature="0"
         id="path1073"
         d="m 6.1333402,37.4125 c 0,0 -1.2542567,-0.09745 -1.5994733,-1.451236 L 2.3787365,25.00087 C 2.0899048,23.652116 3.5982922,23.100412 3.5982922,23.100412 19.290499,19.518464 44.490143,15.671446 83.105618,11.569538 c 0.638666,5.008541 1.159647,12.03104 0.572405,13.547279 -33.178509,2.73815 -57.167311,7.722394 -77.5446947,12.295694 z"
         style="fill:url(#linearGradient1081);fill-opacity:1;stroke:#000000;stroke-width:8;stroke-miterlimit:4;stroke-dasharray:none;stroke-opacity:1"
         clip-path="url(#clipPath1048)" /><path
         transform="matrix(1.247128,-0.39364346,-0.39364347,-1.7952494,-9.368404,221.43893)"
         clip-path="url(#clipPath1029)"
         sodipodi:nodetypes="ccccc"
         inkscape:connector-curvature="0"
         id="path1075"
         d="m 224.42629,71.057014 c 9.91733,5.177264 14.25373,14.383958 14.25373,14.383958 C 180.1902,77.005595 132.82161,78.45388 89.827218,84.134571 l 0.10902,-14.116229 c 0,0 71.846072,-8.315864 134.490052,1.038672 z"
         style="fill:url(#linearGradient1083);fill-opacity:1;stroke:#000000;stroke-width:8;stroke-linecap:butt;stroke-linejoin:miter;stroke-miterlimit:4;stroke-dasharray:none;stroke-opacity:1" /><path
         transform="matrix(-0.41199386,-1.7892486,-1.2411868,0.4200778,388.45813,830.49261)"
         clip-path="url(#clipPath935)"
         sodipodi:nodetypes="cccccssssssssc"
         inkscape:connector-curvature="0"
         id="path1077"
         d="m 444.37672,98.816297 9.03975,-0.852524 -0.45479,-4.687633 14.47819,-1.4419 0.73957,4.894512 9.49234,-0.897079 c 0.70914,-0.06702 1.34032,0.551539 1.41452,1.379222 l 0.26785,2.988015 c 0.0741,0.82769 -0.43722,1.54521 -1.14667,1.60881 l -33.29506,2.98458 c -0.70945,0.0636 -1.34031,-0.55154 -1.41451,-1.37922 l -0.26785,-2.98802 c -0.0741,-0.827684 0.43722,-1.545204 1.14666,-1.608803 z"
         style="fill:url(#radialGradient1085);fill-opacity:1;stroke:#000000;stroke-width:8;stroke-linecap:butt;stroke-linejoin:miter;stroke-miterlimit:4;stroke-dasharray:none;stroke-opacity:1" /><rect
         transform="matrix(-0.68485599,0.72867844,0.83789811,0.54582667,0,0)"
         y="77.774841"
         x="3.1651673"
         height="6.8797488"
         width="6.8490887"
         id="rect1129"
         style="fill:#392121;fill-opacity:1;stroke:none;stroke-width:31.9006;stroke-linecap:butt;stroke-linejoin:miter;stroke-miterlimit:4;stroke-dasharray:none;stroke-opacity:1" /><rect
         style="fill:#392121;fill-opacity:1;stroke:none;stroke-width:31.9006;stroke-linecap:butt;stroke-linejoin:miter;stroke-miterlimit:4;stroke-dasharray:none;stroke-opacity:1"
         id="rect1131"
         width="6.8490887"
         height="6.8797488"
         x="10.495054"
         y="70.469093"
         transform="matrix(-0.68485599,0.72867844,0.83789811,0.54582667,0,0)" /><rect
         transform="matrix(-0.70074047,0.71341628,0.82594982,0.56374364,0,0)"
         y="63.190105"
         x="16.503311"
         height="6.927309"
         width="6.8026676"
         id="rect1133"
         style="fill:#392121;fill-opacity:1;stroke:none;stroke-width:31.9021;stroke-linecap:butt;stroke-linejoin:miter;stroke-miterlimit:4;stroke-dasharray:none;stroke-opacity:1" /><rect
         style="fill:#392121;fill-opacity:1;stroke:none;stroke-width:31.9052;stroke-linecap:butt;stroke-linejoin:miter;stroke-miterlimit:4;stroke-dasharray:none;stroke-opacity:1"
         id="rect1135"
         width="6.7556505"
         height="6.9769416"
         x="22.545944"
         y="56.421722"
         transform="matrix(-0.71697865,0.69709512,0.81341144,0.58168878,0,0)" /><rect
         transform="matrix(-0.72879983,0.68472681,0.80407405,0.59452915,0,0)"
         y="49.138489"
         x="29.019665"
         height="7.0137234"
         width="6.7217231"
         id="rect1137"
         style="fill:#392121;fill-opacity:1;stroke:none;stroke-width:31.9089;stroke-linecap:butt;stroke-linejoin:miter;stroke-miterlimit:4;stroke-dasharray:none;stroke-opacity:1" /><rect
         style="fill:#392121;fill-opacity:1;stroke:none;stroke-width:31.9127;stroke-linecap:butt;stroke-linejoin:miter;stroke-miterlimit:4;stroke-dasharray:none;stroke-opacity:1"
         id="rect1139"
         width="6.6935697"
         height="7.0448966"
         x="35.92569"
         y="41.885635"
         transform="matrix(-0.73868157,0.67405455,0.79612983,0.60512584,0,0)" /><rect
         transform="matrix(-0.7432736,0.66898756,0.79239424,0.61000932,0,0)"
         y="34.485939"
         x="42.912357"
         height="7.0595174"
         width="6.680553"
         id="rect1141"
         style="fill:#392121;fill-opacity:1;stroke:none;stroke-width:31.9148;stroke-linecap:butt;stroke-linejoin:miter;stroke-miterlimit:4;stroke-dasharray:none;stroke-opacity:1" /><rect
         style="fill:#392121;fill-opacity:1;stroke:none;stroke-width:31.928;stroke-linecap:butt;stroke-linejoin:miter;stroke-miterlimit:4;stroke-dasharray:none;stroke-opacity:1"
         id="rect1143"
         width="6.6135616"
         height="7.1369891"
         x="49.174397"
         y="28.555384"
         transform="matrix(-0.7671621,0.64145328,0.77249319,0.63502305,0,0)" /></g></g></svg>
