<svg width="128" height="129" xmlns="http://www.w3.org/2000/svg" fill="none" viewBox="0 0 128 129"><path fill="#d91c1c" d="M94.999 49.019c1.028-17.017-11.934-31.647-28.95-32.677-17.018-1.03-31.646 11.93-32.674 28.948-1.028 17.017 11.934 31.646 28.95 32.676C79.342 78.996 93.971 66.036 95 49.019" style="mix-blend-mode:normal;fill:#1e1f1f;fill-opacity:1"/><path fill="#f6c6c6" d="M57.7 70.657a2.498 2.498 0 1 0-4.534-2.102 2.498 2.498 0 0 0 4.533 2.102m-14.991-5.881a2.498 2.498 0 1 0-4.533-2.102 2.498 2.498 0 0 0 4.533 2.102m29.817 11.697a2.498 2.498 0 1 0-4.534-2.102 2.498 2.498 0 0 0 4.534 2.102M63.19 56.659a2.498 2.498 0 1 0-4.533-2.102 2.498 2.498 0 0 0 4.534 2.102M48.2 50.778a2.498 2.498 0 1 0-4.533-2.102 2.498 2.498 0 0 0 4.533 2.102m29.816 11.697a2.498 2.498 0 1 0-4.533-2.102 2.498 2.498 0 0 0 4.533 2.102M68.682 42.66a2.498 2.498 0 1 0-4.533-2.102 2.498 2.498 0 0 0 4.533 2.102m-14.991-5.88a2.498 2.498 0 1 0-4.533-2.103 2.498 2.498 0 0 0 4.533 2.102m29.817 11.697a2.498 2.498 0 1 0-4.534-2.102 2.498 2.498 0 0 0 4.534 2.102m-31.24 11.876a2.498 2.498 0 1 0-4.533-2.102 2.498 2.498 0 0 0 4.533 2.102M37.277 54.47a2.498 2.498 0 1 0-4.533-2.101 2.498 2.498 0 0 0 4.533 2.102m29.817 11.697a2.499 2.499 0 1 0-4.534-2.102 2.499 2.499 0 0 0 4.534 2.102m16.42 6.442a2.498 2.498 0 1 0-4.533-2.103 2.498 2.498 0 0 0 4.533 2.102M57.76 46.353a2.498 2.498 0 1 0-4.534-2.102 2.498 2.498 0 0 0 4.534 2.102m14.825 5.817a2.498 2.498 0 1 0-4.533-2.103 2.498 2.498 0 0 0 4.533 2.102m16.421 6.442a2.498 2.498 0 1 0-4.534-2.102 2.498 2.498 0 0 0 4.534 2.102m-10.929-20.44a2.498 2.498 0 1 0-4.534-2.102 2.498 2.498 0 0 0 4.534 2.102"/><path fill="#000" fill-rule="evenodd" d="M64 12.68c18.778 0 34 15.222 34 34s-15.222 34-34 34c-18.778.001-34-15.22-34-33.998s15.222-34 34-34.001m28.81 34c0-15.912-12.9-28.811-28.81-28.811s-28.81 12.9-28.81 28.81c0 15.912 12.899 28.81 28.81 28.81s28.81-12.9 28.81-28.811" clip-rule="evenodd"/><g data-name="Layer 1"><path d="M70 3.5C33.27 3.5 3.5 33.27 3.5 70c0 11.16 2.76 21.67 7.62 30.9 11.13 21.16 33.31 35.6 58.88 35.6s47.75-14.44 58.88-35.6A66.1 66.1 0 0 0 136.5 70c0-36.73-29.77-66.5-66.5-66.5" style="isolation:isolate;fill:#080808" transform="translate(21.615 29.425)scale(.61337)"/><path d="m43.4 104.51-10.34-3.18-3.84-1.18-13.39-4.12c-.24 1.87-.43 3.96-.5 6.12l13.83 4.26 3.93 1.21 10 3.08a26.5 26.5 0 0 1 .31-6.18z" style="fill:#c6cccf;fill-opacity:1" transform="translate(21.615 29.425)scale(.61337)"/><path d="m37.06 54.14-17.2-4.85q-.555-.15-1.11-.15c-.78 0-1.55.22-2.22.65-.99.63-1.66 1.66-1.84 2.82l-4.35 27.77c-.32 2.05.94 4.02 2.94 4.58l17.2 4.85q.555.15 1.11.15c.78 0 1.55-.22 2.22-.65.99-.63 1.66-1.66 1.84-2.82L40 58.72c.32-2.05-.94-4.02-2.94-4.58M31.7 85.87l-.13.08-17.2-4.85a.09.09 0 0 1-.07-.11l4.39-27.84s.04-.02.05-.02h.03l17.2 4.85s.08.06.07.11l-4.35 27.77z" style="isolation:isolate;fill:#d8dee2;stroke:none;stroke-opacity:1;fill-opacity:1" transform="translate(21.615 29.425)scale(.61337)"/><path d="M41.917 95.436a31 31 0 0 1-.024-3.858c.122-2.233.448-3.975.62-4.766a4.7 4.7 0 0 0 1.17-.546 4.97 4.97 0 0 0 2.227-3.416l2.669-17.033a4.97 4.97 0 0 0-3.564-5.551l-10.55-2.975a5 5 0 0 0-1.35-.184 4.96 4.96 0 0 0-2.686.785 4.97 4.97 0 0 0-2.227 3.416l-2.668 17.034a4.97 4.97 0 0 0 3.558 5.55l.478.136c-.178.803-.43 2.054-.638 3.563a40 40 0 0 0-.35 3.742c0 .08-.012.153-.012.233a42 42 0 0 0 2.583 4.201 26.5 26.5 0 0 1-.141-3.686c.036-1.33.153-2.613.306-3.754.197-1.52.448-2.803.626-3.625l7.704 2.172c.116.03.233.049.35.073-.16.896-.356 2.257-.46 3.913a36 36 0 0 0-.037 3.84c.128 2.92.656 6.201 2.011 9.293a9.48 9.48 0 0 0 4.312 4.618 40.4 40.4 0 0 0 5.95 2.503c-7.336-3.367-9.476-10.084-9.863-15.672Zm-12.15-13.905a2.513 2.513 0 0 1-1.804-2.81l2.668-17.032a2.517 2.517 0 0 1 3.171-2.036l10.55 2.974c1.227.344 2 1.552 1.804 2.81L43.488 82.47a2.517 2.517 0 0 1-3.171 2.036z"/><path d="m120.68 51.21-17.2 4.85c-1.02.29-1.67 1.3-1.51 2.35l4.35 27.77a2.1 2.1 0 0 0 2.65 1.7l17.2-4.85c1.02-.29 1.67-1.3 1.51-2.35l-4.35-27.77a2.1 2.1 0 0 0-2.65-1.7M18.946 49.885l17.2 4.85c1.02.29 1.67 1.3 1.51 2.35l-4.35 27.77a2.1 2.1 0 0 1-2.65 1.7l-17.2-4.85a2.116 2.116 0 0 1-1.51-2.35l4.35-27.77a2.1 2.1 0 0 1 2.65-1.7" style="opacity:.5;isolation:isolate;fill:#d8dee2;fill-opacity:1" transform="translate(21.615 29.425)scale(.61337)"/><path d="m100 58.72 4.35 27.77c.18 1.16.85 2.19 1.84 2.82.67.43 1.44.65 2.22.65.37 0 .75-.05 1.11-.15l17.2-4.85c2-.56 3.26-2.53 2.94-4.58l-4.35-27.77a4.1 4.1 0 0 0-1.84-2.82c-.67-.43-1.44-.65-2.22-.65-.37 0-.75.05-1.11.15l-17.2 4.85c-2 .56-3.26 2.53-2.94 4.58m3.95-.62c0-.05.02-.1.07-.11l17.2-4.85h.03c.01 0 .03 0 .05.02L125.69 81c0 .05-.02.1-.07.11l-17.2 4.85-.13-.08-4.35-27.77z" style="isolation:isolate;fill:#d8dee2;fill-opacity:1" transform="translate(21.615 29.425)scale(.61337)"/><path d="M77.321 111.108a41 41 0 0 0 5.95-2.503 9.46 9.46 0 0 0 4.312-4.618c1.355-3.098 1.883-6.38 2.012-9.293.06-1.38.036-2.687-.037-3.84a35 35 0 0 0-.46-3.913c.116-.025.233-.043.35-.074l7.703-2.17c.178.827.43 2.11.626 3.624a40 40 0 0 1 .307 3.754 26 26 0 0 1-.141 3.686 40 40 0 0 0 2.582-4.201c0-.08-.012-.16-.012-.233a42 42 0 0 0-.35-3.742 46 46 0 0 0-.638-3.564l.478-.135a4.967 4.967 0 0 0 3.558-5.55l-2.668-17.034a4.97 4.97 0 0 0-2.227-3.416 4.96 4.96 0 0 0-2.686-.785c-.454 0-.908.06-1.35.184l-10.55 2.974a4.977 4.977 0 0 0-3.563 5.551l2.668 17.034a4.97 4.97 0 0 0 2.226 3.416c.368.233.761.411 1.172.546.172.791.49 2.533.62 4.766a30 30 0 0 1-.025 3.858c-.387 5.588-2.527 12.304-9.863 15.672zm11.464-26.602a2.517 2.517 0 0 1-3.171-2.036l-2.668-17.034a2.513 2.513 0 0 1 1.803-2.809l10.55-2.975a2.517 2.517 0 0 1 3.171 2.036l2.668 17.034a2.513 2.513 0 0 1-1.803 2.81z"/><path d="M70 58.88c48.05-3.88 57.63 17.68 58.88 42.02A66.1 66.1 0 0 0 136.5 70c0-36.73-29.77-66.5-66.5-66.5S3.5 33.27 3.5 70c0 11.16 2.76 21.67 7.62 30.9C12.38 76.57 21.95 55 70 58.88" style="isolation:isolate" transform="translate(21.615 29.425)scale(.61337)"/><path d="M30.49 89.8q.555.15 1.11.15c.78 0 1.55-.22 2.22-.65.99-.63 1.66-1.66 1.84-2.82l4.35-27.77c.32-2.05-.94-4.02-2.94-4.58l-17.2-4.85q-.555-.15-1.11-.15c-.78 0-1.55.22-2.22.65-.99.63-1.66 1.66-1.84 2.82l-4.35 27.77c-.32 2.05.94 4.02 2.94 4.58zm-1.09 3.85-12.56-3.54c-.29 1.35-.7 3.44-1.02 5.91l13.39 4.12c.17-2.7.49-4.92.75-6.38-.19-.04-.38-.07-.57-.12zm21.92 19.58-4.07-1.25c.36 2.71 1.2 5.28 2.42 7.61 3.84 7.31 11.5 12.29 20.33 12.29s16.49-4.99 20.33-12.29a22.8 22.8 0 0 0 2.63-10.67c0-12.68-10.28-22.96-22.96-22.96-11.59 0-21.17 8.59-22.73 19.75l5.81 1.79z" style="fill:none" transform="translate(21.615 29.425)scale(.61337)"/><path d="m95.18 101.88 10.34-3.18 3.84-1.18 13.39-4.12c.24 1.87.43 3.96.5 6.12l-13.83 4.26-3.93 1.21-10 3.08a26.5 26.5 0 0 0-.31-6.18z" style="fill:#d8dee2;fill-opacity:1" transform="translate(21.615 29.425)scale(.61337)"/><path d="M86.406 95.742a31 31 0 0 0 .024-3.858 31 31 0 0 0-.62-4.766 4.7 4.7 0 0 1-1.17-.546 4.97 4.97 0 0 1-2.227-3.416l-2.669-17.034a4.97 4.97 0 0 1 3.564-5.55l10.55-2.975q.661-.185 1.35-.185c.956 0 1.882.27 2.686.786a4.97 4.97 0 0 1 2.227 3.416l2.668 17.033a4.97 4.97 0 0 1-3.558 5.551l-.478.135c.178.804.43 2.055.638 3.564.16 1.129.288 2.398.35 3.742 0 .08.011.153.011.233a42 42 0 0 1-2.582 4.201c.141-1.22.172-2.472.141-3.686a36 36 0 0 0-.306-3.754 44 44 0 0 0-.626-3.625l-7.704 2.171c-.117.031-.233.05-.35.074.16.895.356 2.257.46 3.913.074 1.153.099 2.46.037 3.84-.129 2.92-.656 6.201-2.012 9.293a9.48 9.48 0 0 1-4.312 4.618 40.4 40.4 0 0 1-5.95 2.503c7.337-3.368 9.477-10.084 9.864-15.672zm12.15-13.905a2.513 2.513 0 0 0 1.804-2.81l-2.668-17.033a2.517 2.517 0 0 0-3.171-2.036l-10.55 2.975a2.513 2.513 0 0 0-1.804 2.81l2.668 17.032a2.517 2.517 0 0 0 3.171 2.036z"/><path d="M70 133.88c-9.3 0-17.77-5.12-22.1-13.36a25.04 25.04 0 0 1-2.86-11.6c0-13.76 11.2-24.96 24.96-24.96s24.96 11.2 24.96 24.96c0 4.03-.99 8.04-2.86 11.6A24.91 24.91 0 0 1 70 133.88" style="isolation:isolate;fill:#040404" transform="translate(21.615 29.425)scale(.61337)"/><path d="M70 85.96c12.68 0 22.96 10.28 22.96 22.96 0 3.85-.95 7.48-2.63 10.67-3.84 7.31-11.5 12.29-20.33 12.29s-16.49-4.99-20.33-12.29a22.8 22.8 0 0 1-2.63-10.67c0-12.68 10.28-22.96 22.96-22.96m0-4c-14.87 0-26.96 12.09-26.96 26.96 0 4.35 1.07 8.69 3.09 12.53 4.68 8.9 13.83 14.43 23.87 14.43s19.19-5.53 23.87-14.43c2.02-3.84 3.09-8.18 3.09-12.53 0-14.87-12.09-26.96-26.96-26.96" style="isolation:isolate" transform="translate(21.615 29.425)scale(.61337)"/><g style="isolation:isolate"><path d="M53.31 112.07q-.09-.495-.15-.99c-.03-.26-.05-.52-.08-.77-.03-.33-.04-.66-.05-1 0-.13-.01-.26-.01-.39s.02-.26.02-.39c0-.34.02-.67.05-1a18 18 0 0 1 .23-1.76c.05-.26.11-.51.17-.76.08-.33.15-.65.25-.97l-.96-.26-1.08-.29-.96-.26-1.08-.29-.97-.26c-.09.32-.18.64-.26.97a27 27 0 0 0-.43 2.29c-.06.44-.1.88-.14 1.32-.02.33-.04.66-.05 1 0 .22-.02.44-.02.66s.01.44.02.66c.01.33.02.67.05 1 .03.44.08.88.14 1.32q.06.495.15.99a20 20 0 0 0 .55 2.27l.97-.26 1.08-.29.97-.26 1.08-.29.96-.26c-.1-.32-.18-.64-.26-.97-.06-.25-.12-.51-.16-.76zm-1.88 1.3-.97.26-1.08.29c-.1-.4-.18-.79-.26-1.19q-.09-.495-.15-.99c-.05-.4-.1-.81-.13-1.21l1.11-.06c.03.37.07.73.11 1.1q.06.495.15.99l.99-.16q-.09-.495-.15-.99c-.04-.33-.08-.66-.1-.99-.03-.33-.04-.66-.05-1l-1 .05-1.11.06c0-.2-.02-.41-.02-.61s.03-.41.03-.61l1.11.06 1 .05c0-.33.02-.67.05-1s.06-.66.11-.99q.06-.495.15-.99l-.99-.16q-.09.495-.15.99c-.05.36-.09.73-.12 1.1l-1.11-.06c.03-.41.07-.81.13-1.21a17 17 0 0 1 .41-2.18l1.08.29.96.26 1.08.29c-.07.29-.13.57-.19.86q-.09.495-.15.99c-.04.29-.07.58-.09.88-.03.33-.04.66-.05 1 0 .15-.02.29-.02.44s0 .29.01.44c0 .33.03.67.05 1 .02.29.05.59.09.88q.06.495.15.99c.05.29.12.58.19.86l-1.08.29zm7.58 8.5c-.25-.22-.5-.44-.74-.67-.19-.18-.37-.37-.55-.55-.23-.24-.45-.49-.67-.74-.08-.1-.17-.19-.25-.3s-.15-.21-.23-.31c-.2-.27-.4-.53-.59-.81-.15-.22-.29-.43-.42-.65-.18-.28-.35-.57-.5-.86-.12-.23-.24-.46-.35-.69-.15-.3-.29-.6-.42-.91l-.91.41-1.02.45-.91.41-1.02.45-.92.41c.13.31.26.61.41.91.19.4.39.79.6 1.18.16.29.33.58.5.87a21 21 0 0 0 1.31 1.92c.13.18.26.35.4.53s.29.33.43.5c.22.25.44.5.67.74.3.32.62.63.94.94.24.23.49.46.74.67.33.29.68.57 1.03.83.27.2.54.39.81.58l.59-.81.66-.9.59-.81.66-.9.58-.8c-.28-.19-.55-.38-.81-.59-.2-.16-.41-.32-.61-.49zm-.64 2.2-.59.81-.66.9c-.32-.25-.64-.5-.95-.77-.25-.22-.5-.44-.74-.67-.3-.28-.58-.57-.86-.86l.83-.75q.375.405.78.78c.24.23.49.46.74.67l.67-.74c-.25-.22-.5-.44-.74-.67s-.48-.47-.71-.71-.45-.49-.67-.74l-.74.67-.83.75c-.13-.15-.27-.3-.4-.46s-.24-.33-.36-.49l.9-.65.81-.59c-.2-.27-.4-.53-.59-.81q-.285-.42-.54-.84c-.18-.29-.35-.57-.5-.86l-.87.5c.16.29.33.58.5.86q.285.465.6.93l-.9.65q-.345-.51-.66-1.02c-.17-.29-.35-.57-.5-.86-.2-.36-.37-.72-.55-1.09l1.02-.45.91-.41 1.02-.45c.13.26.25.53.39.79.16.29.33.58.5.86.15.25.31.5.48.74.19.27.38.54.59.81.09.12.17.24.26.36s.19.22.29.33c.22.25.44.5.67.74.2.21.41.42.62.63.24.23.49.45.74.67.22.19.45.37.69.55l-.66.9zm1.24-28.6c.26-.2.53-.4.81-.59l-.58-.8-.66-.9-.59-.81-.66-.9-.59-.81c-.27.19-.55.38-.81.58-.35.27-.69.54-1.03.83-.25.22-.5.44-.74.67-.32.3-.63.62-.94.94-.23.24-.45.49-.67.74-.14.17-.29.33-.43.5s-.27.35-.4.53c-.2.27-.4.54-.59.81q-.375.555-.72 1.11c-.17.29-.34.57-.5.87-.21.39-.42.78-.6 1.18-.14.3-.28.61-.41.91l.92.41 1.02.45.91.41 1.02.45.91.41c.13-.31.27-.61.42-.91.11-.23.22-.47.35-.69.16-.29.33-.58.5-.86.14-.22.28-.44.42-.65.19-.27.38-.54.59-.81.08-.1.15-.21.23-.31s.17-.2.25-.3c.22-.26.44-.5.67-.74.18-.19.36-.38.55-.55a15 15 0 0 1 1.35-1.16zm-.58-.8c-.23.18-.46.36-.69.55-.25.22-.5.44-.74.67-.21.2-.42.41-.62.63-.23.24-.45.49-.67.74-.1.11-.2.22-.29.33s-.17.24-.26.36c-.2.27-.4.53-.59.81-.17.24-.33.49-.48.74-.18.29-.35.57-.5.86-.14.26-.27.52-.39.79l-1.02-.45-.91-.41-1.02-.45c.17-.37.35-.73.55-1.09a24 24 0 0 1 1.16-1.88l.9.65q-.315.45-.6.93c-.17.29-.35.57-.5.86l.87.5c.16-.29.33-.58.5-.86q.255-.42.54-.84c.19-.27.38-.54.59-.81l-.81-.59-.9-.65c.12-.16.23-.33.36-.49s.27-.31.4-.46l.83.75.74.67c.22-.25.44-.5.67-.74s.46-.48.71-.71c.24-.23.49-.46.74-.67l-.67-.74c-.25.22-.5.44-.74.67q-.405.375-.78.78l-.83-.75c.28-.3.57-.58.86-.86.24-.23.49-.46.74-.67.31-.26.63-.52.95-.77l.66.9.59.81.66.9zm27.51 18.16c-.08.32-.16.65-.26.97l.96.26 1.08.29.97.26 1.08.29.97.26c.09-.32.19-.64.27-.97.1-.43.2-.86.28-1.3q.09-.495.15-.99c.06-.44.11-.88.14-1.32.03-.33.04-.66.05-1 0-.22.02-.44.02-.66s-.01-.44-.02-.66c0-.33-.03-.67-.05-1-.03-.44-.08-.88-.14-1.32a27 27 0 0 0-.43-2.29c-.08-.33-.17-.65-.26-.97l-.97.26-1.08.29-.96.26-1.08.29-.96.26c.1.32.17.64.25.97.06.25.12.5.17.76q.09.495.15.99c.03.26.06.51.08.77.03.33.04.66.05 1 0 .13.02.26.02.39s0 .26-.01.39c0 .33-.02.67-.05 1-.02.26-.04.52-.08.77q-.06.495-.15.99c-.05.26-.1.51-.16.76zm.96.25c.07-.29.13-.57.19-.86q.09-.495.15-.99c.04-.29.07-.58.09-.88.03-.33.04-.66.05-1 0-.15.01-.29.01-.44s-.02-.29-.02-.44c0-.33-.02-.67-.05-1-.02-.29-.06-.59-.09-.88q-.06-.495-.15-.99c-.05-.29-.12-.58-.19-.86l1.08-.29.96-.26 1.08-.29a17 17 0 0 1 .41 2.18c.05.4.1.8.13 1.21l-1.11.06c-.03-.37-.07-.73-.12-1.1q-.06-.495-.15-.99l-.99.16q.09.495.15.99c.04.33.08.66.11.99s.04.66.05 1l1-.05 1.11-.06c0 .2.03.4.03.61 0 .2-.01.41-.02.61l-1.11-.06-1-.05c0 .33-.03.67-.05 1-.03.33-.06.66-.1.99q-.06.495-.15.99l.99.16q.09-.495.15-.99c.05-.36.09-.73.11-1.1l1.11.06c-.03.41-.07.81-.13 1.21a17 17 0 0 1-.41 2.18l-1.08-.29-.97-.26-1.08-.29zm-7.1 9.28c-.26.2-.53.4-.81.59l.58.8.66.9.59.81.66.9.59.81c.27-.19.55-.38.81-.58.35-.27.69-.54 1.03-.83.25-.22.5-.44.74-.67.32-.3.63-.62.94-.94.23-.24.45-.49.67-.74.14-.17.29-.33.43-.5s.27-.35.4-.53c.2-.27.4-.54.59-.81q.375-.555.72-1.11c.17-.29.34-.57.5-.87.21-.39.42-.78.6-1.18.14-.3.28-.61.41-.91l-.92-.41-1.02-.45-.91-.41-1.02-.45-.91-.41c-.13.31-.27.61-.42.91-.11.23-.22.47-.35.69-.16.29-.33.58-.5.86-.14.22-.28.44-.42.65-.19.27-.38.54-.59.81-.08.1-.15.21-.23.31s-.17.2-.25.3c-.22.26-.44.5-.67.74-.18.19-.36.38-.55.55a15 15 0 0 1-1.35 1.16zm.58.8c.23-.18.46-.36.69-.55.25-.22.5-.44.74-.67.21-.2.42-.41.62-.63.23-.24.45-.49.67-.74.1-.11.2-.22.29-.33s.17-.24.26-.36c.2-.27.4-.53.59-.81.17-.24.33-.49.48-.74.18-.29.35-.57.5-.86.14-.26.27-.52.39-.79l1.02.45.91.41 1.02.45c-.17.37-.35.73-.55 1.09a24 24 0 0 1-1.16 1.88l-.9-.65q.315-.45.6-.93c.17-.29.35-.57.5-.86l-.87-.5c-.16.29-.33.58-.5.86q-.255.42-.54.84c-.19.27-.38.54-.59.81l.81.59.9.65c-.12.16-.23.33-.36.49s-.27.31-.4.46l-.83-.75-.74-.67c-.22.25-.44.5-.67.74s-.46.48-.71.71c-.24.23-.49.46-.74.67l.67.74c.25-.22.5-.44.74-.67q.405-.375.78-.78l.83.75c-.28.3-.57.58-.86.86-.24.23-.49.46-.74.67-.31.26-.63.52-.95.77l-.66-.9-.59-.81-.66-.9zm.02-27.2c.25.22.5.44.74.67.19.18.37.37.55.55.23.24.45.49.67.74.08.1.17.19.25.3s.15.21.23.31c.2.27.4.53.59.81.15.22.29.43.42.65.18.28.35.57.5.86.12.23.24.46.35.69.15.3.29.6.42.91l.91-.41 1.02-.45.91-.41 1.02-.45.92-.41c-.13-.31-.26-.61-.41-.91-.19-.4-.39-.79-.6-1.18-.16-.29-.33-.58-.5-.87q-.345-.57-.72-1.11c-.19-.27-.38-.54-.59-.81-.13-.18-.26-.35-.4-.53s-.29-.33-.43-.5c-.22-.25-.44-.5-.67-.74-.3-.32-.62-.63-.94-.94-.24-.23-.49-.46-.74-.67-.33-.29-.68-.57-1.03-.83-.27-.2-.54-.39-.81-.58l-.59.81-.66.9-.59.81-.66.9-.58.8c.28.19.55.38.81.59.2.16.41.32.61.49zm.64-2.2.59-.81.66-.9c.32.25.64.5.95.77.25.22.5.44.74.67.3.28.58.57.86.86l-.83.75q-.375-.405-.78-.78c-.24-.23-.49-.46-.74-.67l-.67.74c.25.22.5.44.74.67s.48.47.71.71.45.49.67.74l.74-.67.83-.75c.13.15.27.3.4.46s.24.33.36.49l-.9.65-.81.59c.2.27.4.53.59.81q.285.42.54.84c.18.29.35.57.5.86l.87-.5c-.16-.29-.33-.58-.5-.86q-.285-.465-.6-.93l.9-.65q.345.51.66 1.02c.17.29.35.57.5.86.2.36.37.72.55 1.09l-1.02.45-.91.41-1.02.45c-.13-.26-.25-.53-.39-.79-.16-.29-.33-.58-.5-.86-.15-.25-.31-.5-.48-.74-.19-.27-.38-.54-.59-.81-.09-.12-.17-.24-.26-.36s-.19-.22-.29-.33c-.22-.25-.44-.5-.67-.74-.2-.21-.41-.42-.62-.63-.24-.23-.49-.45-.74-.67-.22-.19-.45-.37-.69-.55l.66-.9zm-2-4.86c-.4-.19-.8-.37-1.21-.54q-.465-.195-.93-.36c-.42-.15-.84-.28-1.26-.41-.32-.09-.64-.18-.97-.26a27 27 0 0 0-2.29-.43c-.44-.06-.88-.1-1.32-.14-.33-.02-.66-.04-1-.05-.22 0-.44-.02-.66-.02s-.44.01-.66.02c-.33 0-.67.03-1 .05-.44.03-.88.08-1.32.14a27 27 0 0 0-2.29.43c-.32.08-.65.17-.97.26-.43.12-.85.26-1.26.41q-.465.165-.93.36c-.41.17-.81.34-1.2.53-.3.15-.6.3-.89.46l.45.89.51.99.45.89.51 1 .45.89c.29-.16.6-.3.9-.44.23-.11.46-.23.7-.33.31-.13.62-.23.94-.34.24-.09.49-.18.74-.25.32-.1.64-.17.97-.25.25-.06.5-.12.76-.17q.495-.09.99-.15c.26-.03.51-.06.77-.08.33-.03.66-.04 1-.05l-.05-1-.06-1.11-.05-1c-.34 0-.67.03-1 .05-.37.03-.73.07-1.1.12l-.17-1.1c.4-.05.8-.1 1.21-.13.33-.03.66-.04 1-.05.2 0 .4-.03.61-.03s.41.03.61.03c.33 0 .67.03 1 .05.41.03.81.07 1.21.13l-.17 1.1c-.36-.05-.73-.09-1.1-.12-.33-.03-.66-.04-1-.05l-.05 1-.06 1.11-.05 1c.34 0 .67.02 1 .05a18 18 0 0 1 1.76.23c.26.05.51.11.76.17.33.08.65.15.97.25.25.08.49.17.74.25.31.11.63.22.94.34.24.1.47.22.7.33.3.14.61.28.9.44l.45-.89.51-1 .45-.89.51-.99.45-.89c-.29-.16-.59-.31-.89-.46zm-13.27.26.16.99q.495-.09.99-.15c.33-.04.66-.08.99-.11l.06 1.11c-.29.02-.59.06-.88.09q-.495.06-.99.15c-.29.05-.58.12-.86.19-.32.08-.65.15-.97.25-.28.08-.56.19-.84.28-.31.11-.63.22-.94.34-.27.11-.53.25-.79.37l-.51-.99-.45-.89-.51-.99c.36-.18.72-.35 1.1-.51.31-.13.62-.23.94-.34.38-.14.76-.27 1.16-.39l.29 1.08c-.35.1-.7.23-1.05.35-.31.11-.63.22-.94.34l.36.93c.31-.13.62-.23.94-.34.31-.11.63-.22.95-.32.32-.09.64-.17.97-.25l-.26-.96-.29-1.08c.39-.1.79-.19 1.19-.26l.17 1.1zm12.3 1.65-.45.89-.51.99c-.27-.13-.53-.26-.8-.38-.31-.13-.62-.23-.94-.34-.28-.1-.55-.2-.84-.28-.32-.1-.64-.17-.97-.25-.29-.07-.57-.13-.86-.19q-.495-.09-.99-.15c-.29-.04-.58-.07-.88-.09l.06-1.11c.33.03.66.06.99.11q.495.06.99.15l.16-.99.17-1.1c.4.07.8.16 1.19.26l-.29 1.08-.26.96c.33.08.65.16.97.25.32.1.63.21.95.32.31.11.63.22.94.34l.36-.93c-.31-.13-.62-.23-.94-.34-.35-.12-.69-.25-1.05-.35l.29-1.08c.39.12.78.25 1.16.39.31.11.63.22.94.34.38.16.74.34 1.11.51l-.51.99zm1.86 37.66-.45-.89-.51-.99-.45-.89-.51-1-.45-.89c-.29.16-.6.3-.9.44-.23.11-.46.23-.7.33-.31.13-.62.23-.94.34-.24.09-.49.18-.74.25-.32.1-.64.17-.97.25-.25.06-.5.12-.76.17q-.495.09-.99.15c-.26.03-.51.06-.77.08-.33.03-.66.04-1 .05l.05 1 .06 1.11.05 1c.34 0 .67-.03 1-.05.37-.03.73-.07 1.1-.12l.17 1.1c-.4.05-.8.1-1.21.13-.33.03-.66.04-1 .05-.2 0-.4.03-.61.03s-.4-.03-.61-.03c-.34 0-.67-.03-1-.05-.41-.03-.81-.07-1.21-.13l.17-1.1c.36.05.73.09 1.1.12.33.03.66.04 1 .05l.05-1 .06-1.11.05-1c-.34 0-.67-.02-1-.05a18 18 0 0 1-1.76-.23c-.26-.05-.51-.11-.76-.17-.33-.08-.65-.15-.97-.25-.25-.07-.49-.17-.74-.25-.31-.11-.63-.22-.94-.34-.24-.1-.46-.22-.7-.33-.3-.14-.61-.28-.9-.44l-.45.89-.51 1-.45.89-.51.99-.45.89a18 18 0 0 0 2.09.99q.465.195.93.36c.41.15.84.28 1.26.41.32.09.64.18.97.26a27 27 0 0 0 2.29.43c.44.06.88.1 1.32.14.33.02.66.04 1 .05.22 0 .44.02.66.02s.44-.01.66-.02c.33 0 .67-.03 1-.05.44-.03.88-.08 1.32-.14a27 27 0 0 0 2.29-.43c.33-.08.65-.17.97-.26.43-.12.85-.26 1.26-.41q.465-.165.93-.36c.41-.17.82-.35 1.21-.54.3-.15.6-.3.89-.46zm-14.34 1.3c-.4-.07-.8-.16-1.19-.26l.29-1.08.26-.96c-.32-.08-.65-.16-.97-.25-.32-.1-.63-.21-.95-.32-.31-.11-.63-.22-.94-.34l-.36.93c.31.13.62.23.94.34.35.12.69.25 1.05.35l-.29 1.08c-.39-.12-.77-.25-1.16-.39-.31-.11-.63-.22-.94-.34a16 16 0 0 1-1.1-.51l.51-.99.45-.89.51-.99c.26.13.52.26.79.37.31.13.62.23.94.34.28.1.55.2.84.28a28 28 0 0 0 1.83.44q.495.09.99.15c.29.04.58.07.88.09l-.06 1.11c-.33-.03-.66-.06-.99-.11q-.495-.06-.99-.15l-.16.99-.17 1.1zm12.98-1.75c-.37.18-.73.36-1.11.51-.31.13-.62.23-.94.34-.38.14-.77.27-1.16.39l-.29-1.08c.36-.1.7-.23 1.05-.35.31-.11.63-.22.94-.34l-.36-.93c-.31.13-.62.23-.94.34-.31.11-.63.22-.95.32-.32.09-.64.17-.97.25l.26.96.29 1.08c-.39.1-.79.19-1.19.26l-.17-1.1-.16-.99q-.495.09-.99.15c-.33.04-.66.08-.99.11l-.06-1.11c.29-.02.59-.06.88-.09q.495-.06.99-.15c.29-.05.57-.12.86-.19.33-.08.65-.15.97-.25.28-.08.56-.19.84-.28.31-.11.63-.22.94-.34.27-.11.53-.25.8-.38l.51.99.45.89.51.99z" style="opacity:.98;fill:#d8dee2;fill-opacity:1" transform="translate(21.615 6.746)scale(.61337)"/></g><path d="M63.335 83.491c-4.853-.996-3.68-3.134 2.28-4.157 5.755-.987 13.673.465 13.673 2.507 0 .723-.788 1.159-2.852 1.578-.452.091-.416.137-.417-.537 0-.45-.007-.537-.045-.537-.024 0-.252.027-.507.06-2.942.377-6.412.443-9.604.18-.764-.062-2.052-.2-2.142-.227-.05-.016-.053.023-.053.528 0 .704.014.677-.333.605m-3.053-4.285c-.215-3.278-1.309-7.285-2.666-9.767-.413-.756-.428-.733.3-.469 1.035.377 1.81.806 2.832 1.57.453.339.56.449.635.654.838 2.278 3.812 4.872 6.33 5.522.73.188 1.71.227 1.404.055-3.666-2.05-5.243-3.48-6.3-5.714-.227-.48-.228-.483-.094-.813.332-.818.448-1.42.488-2.528.028-.771-.015-.681.338-.713.366-.034.312-.08.59.502.414.87 1.085 1.709 1.693 2.118.25.168.301.23.425.517.856 1.975 3.078 4.318 7.007 7.385.555.433.563.444.31.396a26 26 0 0 0-1.4-.166c-.656-.066-3.56-.094-4.404-.043-2.709.165-5.52.895-7.058 1.834a9 9 0 0 1-.382.226c-.006 0-.027-.255-.047-.566m18.87.458c-.445-.257-1.591-.776-1.995-.902-.197-.061-.231-.087-.65-.489a24 24 0 0 0-1.097-1c-.06-.049-.359-.3-.666-.559-.306-.258-.822-.686-1.147-.952-1.48-1.21-2.004-1.664-2.72-2.362-1.339-1.302-2.224-2.461-2.88-3.768-.317-.633-.317-.63-.17-.948.396-.852.63-1.836.725-3.055.045-.565.016-.523.318-.466.545.104 1.33.092 1.9-.027.268-.056.254-.082.318.566.307 3.088 1.32 4.844 4.431 7.685 1.318 1.203 2.167 2.114 2.636 2.828.223.34.588 1.018.588 1.094 0 .143.057.003.075-.183.13-1.392-.45-2.4-2.451-4.25-1.49-1.379-2.26-2.19-2.71-2.85-.134-.2-.142-.185.227-.456.63-.463 1.226-1.225 1.68-2.149.21-.43.192-.416.583-.42.265-.004.265-.004.266.307.002 1.582.345 2.928 1.004 3.935.184.282.113.289.518-.049 1.299-1.084 3.229-2.143 4.361-2.394.11-.025.116-.04-.21.562-1.423 2.622-2.565 6.811-2.668 9.783-.022.657-.024.66-.266.52M57.277 67.831c-1.512-.313-1.473-2.522.049-2.771 1.234-.202 2.092 1.227 1.336 2.227-.34.452-.855.654-1.385.544m24.415-.04c-1.326-.47-1.258-2.348.098-2.704 1.364-.358 2.348 1.356 1.352 2.353-.356.357-.996.512-1.45.35m-18.407-1.886c-.77-.129-1.336-.863-1.271-1.65.136-1.647 2.26-2.076 2.99-.603.573 1.159-.426 2.469-1.72 2.253m12.44-.01c-1.596-.364-1.633-2.68-.05-3.087 1.515-.391 2.63 1.466 1.568 2.612a1.63 1.63 0 0 1-1.519.474m-6.32-2.058c-2.624-.512-2.336-4.32.332-4.4.855-.025 1.436.254 1.909.916 1.15 1.611-.3 3.863-2.242 3.484" style="fill:#d8dee2;fill-opacity:1;stroke-width:.110385" transform="translate(21.615 29.425)scale(.61337)"/></g><path d="M56.924 71.382c-3.88-48.05 17.68-57.63 42.02-58.88a66.1 66.1 0 0 0-30.9-7.62c-36.73 0-66.5 29.77-66.5 66.5s29.77 66.5 66.5 66.5c11.16 0 21.67-2.76 30.9-7.62-24.33-1.26-45.9-10.83-42.02-58.88" style="isolation:isolate;fill:#080808;fill-opacity:1" transform="rotate(90 39.03 68.456)scale(.61337)"/><path fill="#e9bf80" d="M80 103.175c0 6.903 5.596 12.501 12.5 12.502s12.5-5.594 12.5-12.497c0-6.904-5.596-12.501-12.5-12.503-6.904-.001-12.5 5.594-12.5 12.498" style="fill:#1e1f1f;fill-opacity:1"/><path fill="#000" fill-rule="evenodd" d="M92.5 88.677c8.008.001 14.5 6.495 14.5 14.503s-6.492 14.498-14.5 14.497c-8.008-.002-14.5-6.495-14.5-14.503s6.492-14.499 14.5-14.497m10.069 14.502c0-5.561-4.508-10.07-10.069-10.072-5.561 0-10.07 4.507-10.07 10.068s4.509 10.07 10.07 10.071 10.069-4.506 10.069-10.067" clip-rule="evenodd"/><g data-name="Layer 1" style="fill:none"><g style="fill:none"><path d="M27.26 2.5C15.48 2.5 5.35 11.29 3.7 22.94c-.16 1.13-.24 2.26-.24 3.37 0 .99.06 1.97.2 2.99l.05.35.2.29c1.2 1.77 3.11 3.12 5.39 3.79l2.33.68-.43-2.38q-.15-.825-.15-1.56c0-3.19 1.59-6 4.26-7.52a9.24 9.24 0 0 1 4.55-1.18c6.89 0 14.43 9.07 15.51 14.77l.95 5.02 1.91-4.74c2.77-6.88 7.81-12.77 14.18-16.6l1.2-.72-.64-1.25C48.36 9.28 37.31 2.51 27.26 2.51ZM136.3 22.94C134.65 11.29 124.52 2.5 112.74 2.5c-10.05 0-21.11 6.76-25.71 15.74l-.64 1.25 1.2.72c6.37 3.82 11.4 9.72 14.17 16.6l1.91 4.74.96-5.02c1.08-5.7 8.62-14.77 15.51-14.77 1.62 0 3.2.41 4.55 1.18 2.67 1.53 4.27 4.34 4.27 7.52q0 .735-.15 1.56l-.42 2.38 2.32-.68c2.28-.67 4.19-2.01 5.39-3.78l.2-.29.05-.35c.13-1.02.2-2 .2-2.99 0-1.11-.08-2.24-.24-3.37z" style="fill:#d8dee2;fill-opacity:1" transform="translate(8.08 20.488)scale(.7908)"/><path d="m10.7 32.11-.11-.61-.59-.17c-1.7-.5-3.16-1.51-4.02-2.79l-2.37-3.5.55 4.19c.94 7.17 5.39 11.75 13.23 13.62l.63-1.89c-3.83-1.64-6.63-5.03-7.31-8.85zm123.33-3.57c-.86 1.27-2.33 2.29-4.02 2.79l-.59.17-.11.61c-.68 3.82-3.48 7.21-7.31 8.85l.63 1.89c7.84-1.87 12.3-6.45 13.23-13.62l.55-4.19-2.37 3.5z" style="fill:#090909" transform="translate(8.08 20.488)scale(.7908)"/><path d="M55.2 17.09C50.11 7.19 38.36 0 27.26 0 12.76 0 .96 11.8.96 26.31c0 3.38.62 6.4 1.83 9.02 2.58 5.6 8.49 9.02 14.65 8.69 2.94-.16 3.91-1.12 4.07-1.29-6.14-4.88-7.55-9.29-7.87-11.23 0-.02 0-.05-.01-.07-.1-.62-.08-.97-.08-.97 0-3.6 2.66-6.21 6.32-6.21 5.48 0 12.14 7.95 13.05 12.74a3.99 3.99 0 0 0 3.54 3.23c.13.01.26.02.39.02 1.62 0 3.09-.98 3.71-2.51 2.55-6.34 7.18-11.78 13.04-15.32 1.82-1.1 2.58-3.42 1.6-5.32M36.84 36.24c-1.16-6.1-9.02-15.99-16.98-15.99-5.83 0-10.32 4.38-10.32 10.21 0 4.33 2.88 9.19 8.07 11.42C10 40.07 4.95 35.42 4.95 26.31c0-3.47.79-6.76 2.21-9.69.06 2.13.63 4.2 1.96 5.95.1.13.28-.03.19-.15-1.54-2.64-1.48-5.67-.6-8.5 4-5.98 10.81-9.91 18.55-9.91.15 0 .31.02.47.02-5.29 1.96-8.53 6.8-8.12 13.97 0 .16.26.13.24-.02C20 9.01 25.58 4.23 33.74 4.94c2.68.75 5.32 1.91 7.76 3.41-5.6.83-10.5 4.89-12.49 10.23-.06.15.17.23.22.09 2.79-5.82 8.5-9.13 14.65-8.68 2.19 1.65 4.14 3.57 5.72 5.69-6.33 1.02-11.34 6.4-13.37 12.42-.06.15.18.22.23.08 2.52-5.73 7.95-10.76 14.36-10.72.29.48.57.96.82 1.45a35.8 35.8 0 0 0-14.79 17.32Zm49.57-13.83a32.03 32.03 0 0 1 13.04 15.32 4.01 4.01 0 0 0 3.71 2.51c.13 0 .26 0 .39-.02a3.99 3.99 0 0 0 3.54-3.23c.91-4.79 7.57-12.74 13.05-12.74 3.66 0 6.32 2.61 6.32 6.21 0 0 .02.35-.08.97 0 .02 0 .05-.01.07-.32 1.94-1.73 6.35-7.87 11.23.15.17 1.13 1.13 4.07 1.29 6.16.34 12.07-3.08 14.65-8.69 1.21-2.62 1.83-5.64 1.83-9.02C139.04 11.8 127.24 0 112.74 0c-11.1 0-22.85 7.19-27.93 17.09-.97 1.9-.22 4.21 1.6 5.32m1.95-3.49c.25-.49.53-.98.82-1.45 6.41-.04 11.84 4.99 14.36 10.72.05.14.28.07.23-.08-2.04-6.02-7.04-11.4-13.37-12.42 1.58-2.12 3.53-4.04 5.72-5.69 6.16-.45 11.86 2.85 14.65 8.68.05.14.29.06.22-.09C109 13.25 104.1 9.18 98.5 8.36c2.44-1.51 5.08-2.67 7.76-3.41 8.16-.71 13.74 4.07 13.89 13.04-.02.15.23.17.24.02.4-7.17-2.83-12.02-8.12-13.97.16 0 .31-.02.47-.02 7.73 0 14.55 3.94 18.55 9.91.88 2.83.94 5.86-.6 8.5-.1.12.09.28.19.15 1.33-1.75 1.9-3.82 1.96-5.95 1.42 2.93 2.21 6.22 2.21 9.69 0 9.11-5.05 13.76-12.66 15.57 5.19-2.22 8.07-7.09 8.07-11.42 0-5.83-4.49-10.21-10.32-10.21-7.96 0-15.82 9.89-16.98 15.99a35.85 35.85 0 0 0-14.79-17.32Z" style="fill:#020202" transform="translate(8.08 20.488)scale(.7908)"/></g><path d="M70.076 48.28c21.026 0 39.493 10.068 50.028 25.236-7.396-20.05-26.993-34.386-50.028-34.386-23.034 0-42.632 14.337-50.027 34.386C30.584 58.348 49.051 48.28 70.076 48.28" style="isolation:isolate;fill:#d8dee2;stroke-width:1.47243;fill-opacity:1" transform="translate(8.165 19.42)scale(.7908)"/><g style="fill:none"><path d="m61.97 30.68-3.08-5.43-3.03 6.24q3.015-.525 6.12-.81zm8.03-.4c1.36 0 2.7.04 4.04.11L70 23.19l-4.04 7.2c1.34-.06 2.68-.11 4.04-.11m14.15 1.22-3.04-6.25-3.08 5.43q3.105.3 6.12.81z" style="isolation:isolate;fill:#d8dee2;fill-opacity:1" transform="translate(8.109 14.844)scale(.7908)"/></g><text xml:space="preserve" x="49.406" y="36.136" style="font-size:9.3075px;writing-mode:lr-tb;direction:ltr;fill:#d8dee2;fill-opacity:1;stroke-width:.93075;paint-order:stroke fill markers" transform="translate(8.165 19.42)scale(.7908)"><tspan x="49.406" y="36.136" style="font-style:normal;font-variant:normal;font-weight:400;font-stretch:normal;font-family:&quot;Noto Sans Malayalam&quot;;-inkscape-font-specification:&quot;Noto Sans Malayalam&quot;;stroke-width:.93075;fill:#d8dee2;fill-opacity:1">SEASON 1</tspan></text></g><path fill="#e9bf80" d="M22 103.175c0 6.903 5.596 12.501 12.5 12.502S47 110.083 47 103.18c0-6.904-5.596-12.501-12.5-12.503-6.904-.001-12.5 5.594-12.5 12.498" style="fill:#1d1e1e;fill-opacity:1"/><path fill="#000" fill-rule="evenodd" d="M34.5 88.677c8.008.001 14.5 6.495 14.5 14.503s-6.492 14.498-14.5 14.497c-8.008-.002-14.5-6.495-14.5-14.503s6.492-14.499 14.5-14.497m10.07 14.502c0-5.561-4.509-10.07-10.07-10.072-5.561 0-10.07 4.507-10.07 10.068s4.509 10.07 10.07 10.071 10.07-4.506 10.07-10.067" clip-rule="evenodd"/></svg>