<?xml version="1.0" encoding="UTF-8" standalone="no"?>
<svg
   width="128"
   height="128"
   viewBox="0 0 128 128"
   fill="none"
   version="1.1"
   id="svg38"
   sodipodi:docname="loot-shirt-outfitPanda.svg"
   xml:space="preserve"
   inkscape:version="1.4.2 (f4327f4, 2025-05-13)"
   xmlns:inkscape="http://www.inkscape.org/namespaces/inkscape"
   xmlns:sodipodi="http://sodipodi.sourceforge.net/DTD/sodipodi-0.dtd"
   xmlns="http://www.w3.org/2000/svg"
   xmlns:svg="http://www.w3.org/2000/svg"><sodipodi:namedview
     id="namedview38"
     pagecolor="#ffffff"
     bordercolor="#000000"
     borderopacity="0.25"
     inkscape:showpageshadow="2"
     inkscape:pageopacity="0.0"
     inkscape:pagecheckerboard="0"
     inkscape:deskcolor="#d1d1d1"
     inkscape:zoom="2.195898"
     inkscape:cx="62.389055"
     inkscape:cy="104.51305"
     inkscape:window-width="1920"
     inkscape:window-height="991"
     inkscape:window-x="-9"
     inkscape:window-y="-9"
     inkscape:window-maximized="1"
     inkscape:current-layer="svg38" /><path
     d="M29 46.5024C29 65.5562 44.4462 81.0019 63.5 81.0012C82.5538 81.0005 98 65.5538 98 46.5C98 27.4462 82.5538 12.0005 63.5 12.0012C44.4462 12.0019 29 27.4486 29 46.5024Z"
     fill="#D03215"
     id="path1"
     style="fill:#595959;fill-opacity:1" /><path
     d="M63.5 33C42.237 33 25.0006 50.237 25.0013 71.5C25.0021 92.763 42.2397 110 63.5027 110C84.7656 110 102.002 92.763 102.001 71.5C102.001 50.237 84.763 33 63.5 33Z"
     fill="#BB2B10"
     id="path2"
     style="fill:#787878;fill-opacity:1" /><mask
     id="mask0"
     mask-type="alpha"
     maskUnits="userSpaceOnUse"
     x="74"
     y="82"
     width="36"
     height="36"><rect
       x="109.132"
       y="82"
       width="35.1316"
       height="35.1316"
       transform="rotate(90 109.132 82)"
       fill="#C4C4C4"
       id="rect14" /></mask><defs
     id="defs38"><linearGradient
       id="paint0_linear"
       x1="62.5273"
       y1="22.5"
       x2="62.5273"
       y2="78.4025"
       gradientUnits="userSpaceOnUse"><stop
         offset="0.135417"
         stop-color="#FFA31A"
         id="stop17" /><stop
         offset="1"
         stop-color="#FF831A"
         stop-opacity="0"
         id="stop18" /></linearGradient><linearGradient
       id="paint1_linear"
       x1="30.2595"
       y1="44.1936"
       x2="59.1224"
       y2="92.0686"
       gradientUnits="userSpaceOnUse"><stop
         offset="0.135417"
         stop-color="#FFA31A"
         id="stop19" /><stop
         offset="1"
         stop-color="#FF831A"
         stop-opacity="0"
         id="stop20" /></linearGradient><linearGradient
       id="paint2_linear"
       x1="98.4204"
       y1="50.5874"
       x2="63.7772"
       y2="94.4615"
       gradientUnits="userSpaceOnUse"><stop
         offset="0.135417"
         stop-color="#FFA31A"
         id="stop21" /><stop
         offset="1"
         stop-color="#FF831A"
         stop-opacity="0"
         id="stop22" /></linearGradient><linearGradient
       id="paint3_linear"
       x1="63.2846"
       y1="43.4951"
       x2="63.2846"
       y2="99.6637"
       gradientUnits="userSpaceOnUse"><stop
         offset="0.135417"
         stop-color="#FFCD1A"
         id="stop23" /><stop
         offset="1"
         stop-color="#FF831A"
         stop-opacity="0"
         id="stop24" /></linearGradient><linearGradient
       id="paint4_linear"
       x1="63.2846"
       y1="65.8525"
       x2="63.2846"
       y2="107.843"
       gradientUnits="userSpaceOnUse"><stop
         offset="0.135417"
         stop-color="#FFCD1A"
         id="stop25" /><stop
         offset="1"
         stop-color="#FF831A"
         stop-opacity="0"
         id="stop26" /></linearGradient><linearGradient
       id="paint5_linear"
       x1="31.3469"
       y1="62.0971"
       x2="48.3953"
       y2="97.2797"
       gradientUnits="userSpaceOnUse"><stop
         offset="0.135417"
         stop-color="#FFCD1A"
         id="stop27" /><stop
         offset="1"
         stop-color="#FF831A"
         stop-opacity="0"
         id="stop28" /></linearGradient><linearGradient
       id="paint6_linear"
       x1="99.1933"
       y1="64.6206"
       x2="77.5657"
       y2="97.1891"
       gradientUnits="userSpaceOnUse"><stop
         offset="0.135417"
         stop-color="#FFCD1A"
         id="stop29" /><stop
         offset="1"
         stop-color="#FF831A"
         stop-opacity="0"
         id="stop30" /></linearGradient><linearGradient
       id="paint7_linear"
       x1="83.5649"
       y1="34.3473"
       x2="77.2178"
       y2="72.9242"
       gradientUnits="userSpaceOnUse"><stop
         offset="0.135417"
         stop-color="#FFCD1A"
         id="stop31" /><stop
         offset="1"
         stop-color="#FF831A"
         stop-opacity="0"
         id="stop32" /></linearGradient><linearGradient
       id="paint8_linear"
       x1="40.0754"
       y1="38.2285"
       x2="54.6735"
       y2="74.4963"
       gradientUnits="userSpaceOnUse"><stop
         offset="0.135417"
         stop-color="#FFCD1A"
         id="stop33" /><stop
         offset="1"
         stop-color="#FF831A"
         stop-opacity="0"
         id="stop34" /></linearGradient><linearGradient
       id="paint9_linear"
       x1="36.4317"
       y1="85.9695"
       x2="36.4317"
       y2="114.234"
       gradientUnits="userSpaceOnUse"><stop
         offset="0.36327353"
         stop-color="#FFCD1A"
         id="stop35" /><stop
         offset="1"
         stop-color="#FF831A"
         stop-opacity="0"
         id="stop36" /></linearGradient><linearGradient
       id="paint10_linear"
       x1="91.5661"
       y1="86.3016"
       x2="91.5661"
       y2="114.566"
       gradientUnits="userSpaceOnUse"><stop
         offset="0.135417"
         stop-color="#FFCD1A"
         id="stop37" /><stop
         offset="1"
         stop-color="#FF831A"
         stop-opacity="0"
         id="stop38" /></linearGradient></defs><ellipse
     style="fill:#e9e9e9;stroke:#000000;stroke-width:3.38642;stroke-miterlimit:4.6;stroke-dasharray:none;stroke-opacity:1;fill-opacity:1"
     id="path38"
     cx="36.870438"
     cy="103.32702"
     rx="13.905313"
     ry="14.02729" /><ellipse
     style="fill:#e0e0e0;stroke:#000000;stroke-width:3.38642;stroke-miterlimit:4.6;stroke-dasharray:none;stroke-opacity:1;fill-opacity:1"
     id="path38-4"
     cx="90.374626"
     cy="103.11044"
     rx="13.905313"
     ry="14.02729" /><g
     id="g24"
     transform="matrix(0.04234096,0,0,0.04234096,18.217274,13.010745)">
	<g
   id="g21">
		<path
   style="fill:#e9e9ea"
   d="M 2075.318,1099.71 C 2059.081,968.524 2036.907,837.003 1992.14,712.181 1951.705,599.436 1891.757,493.325 1806.672,408.208 1734.489,335.998 1645.388,280.12 1546.162,255.17 c 26.044,-9.921 52.111,-19.783 78.164,-29.679 7.181,-2.728 0.066,-11.804 -3.737,-13.722 -26.797,-13.521 -54.508,-25.106 -82.987,-34.594 -91.874,-30.61 -191.402,-40.693 -287.435,-27.042 8.263,-10.141 16.605,-20.22 24.621,-30.552 4.157,-5.357 -2.298,-14.174 -8.711,-13.065 -23.657,4.086 -46.457,11.215 -68.215,21.092 5.293,-22.224 10.606,-44.443 15.821,-66.684 1.064,-4.537 -7.719,-12.32 -11.171,-7.36 -14.177,20.369 -25.779,42.324 -35.214,65.226 -0.604,-1.594 -1.169,-3.205 -1.669,-4.845 -3.761,-12.326 -5.378,-25.247 -5.397,-38.112 -0.01,-4.233 -5.42,-5.693 -8.615,-4.233 -13.719,6.272 -27.835,11.759 -42.178,16.546 13.66,-11.037 27.306,-22.09 40.957,-33.137 5.321,-4.306 4.018,-13.481 -3.627,-13.012 -39.542,2.427 -75.063,20.847 -107.967,42.155 8.07,-12.237 16.825,-24.041 26.377,-35.043 1.956,-2.253 3.915,-5.612 2.453,-8.677 -1.305,-2.737 -4.839,-3.433 -7.476,-2.279 -26.226,11.477 -50.441,27.024 -71.542,46.397 -10.532,9.672 -22.332,21.201 -30.479,34.312 -9.354,-23.188 -20.917,-45.43 -35.114,-66.071 -3.425,-4.977 -12.252,2.755 -11.213,7.298 5.094,22.272 10.283,44.519 15.453,66.772 -21.703,-9.998 -44.463,-17.253 -68.099,-21.468 -6.405,-1.144 -12.908,7.637 -8.783,13.016 7.961,10.377 16.246,20.502 24.453,30.688 -95.956,-14.181 -195.537,-4.648 -287.579,25.454 -28.532,9.332 -56.305,20.763 -83.177,34.135 -3.814,1.897 -10.978,10.934 -3.813,13.701 25.999,10.039 52.009,20.046 77.999,30.11 C 478.9,276.9 389.494,332.284 316.912,404.094 231.359,488.74 170.825,594.519 129.769,707.038 84.312,831.612 61.414,963.008 44.45,1094.102 c -8.927,69.003 -16.146,138.701 -10.885,208.318 4.3,56.919 16.676,113.207 36.095,166.866 13.083,36.15 29.544,71.467 48.959,105.177 13.381,37.771 30.535,74.201 51.329,108.449 21.265,35.026 46.199,67.827 74.565,97.408 5.098,5.317 15.71,-2.915 14.178,-9.229 -0.118,-0.489 -0.255,-0.973 -0.373,-1.46 24.094,39.096 51.813,76.009 82.402,110.078 5.429,6.046 15.6,-3.327 14.712,-9.575 -1.922,-13.534 -5.026,-26.79 -9.021,-39.746 18.775,19.036 39.354,36.299 61.611,51.438 5.401,3.674 14.402,-5.014 13.13,-10.607 -0.155,-0.679 -0.354,-1.339 -0.517,-2.015 36.165,33.728 79.048,60.458 121.286,85.868 57.76,34.748 116.15,68.927 163.241,117.399 24.99,61.278 46.242,124.08 63.385,187.889 13.029,48.503 24.881,99.245 54.13,141.024 13.65,19.498 31.778,35.866 53.392,46.083 28.186,13.325 59.984,15.803 90.627,18.095 6.637,0.498 13.282,0.915 19.927,1.344 14.584,2.664 29.761,3.241 44.664,3.267 8.266,0.013 16.535,-0.081 24.803,-0.214 8.268,0.179 16.535,0.319 24.802,0.351 14.903,0.057 30.083,-0.437 44.682,-3.02 6.648,-0.391 13.295,-0.772 19.935,-1.233 30.656,-2.124 62.466,-4.427 90.726,-17.595 21.671,-10.096 39.889,-26.365 53.646,-45.787 29.479,-41.617 41.61,-92.292 54.908,-140.723 17.496,-63.713 39.093,-126.397 64.422,-187.536 47.358,-48.213 105.936,-82.068 163.888,-116.496 42.376,-25.176 85.407,-51.67 121.758,-85.196 -0.167,0.675 -0.369,1.334 -0.528,2.012 -1.302,5.586 7.649,14.323 13.071,10.68 22.341,-15.016 43.015,-32.166 61.895,-51.097 -4.067,12.934 -7.243,26.171 -9.239,39.694 -0.923,6.244 9.196,15.675 14.659,9.658 30.777,-33.899 58.697,-70.658 83.009,-109.621 -0.123,0.487 -0.261,0.97 -0.382,1.457 -1.568,6.306 8.998,14.597 14.126,9.308 28.529,-29.425 53.645,-62.088 75.103,-96.995 20.983,-34.135 38.338,-70.469 51.927,-108.165 19.601,-33.604 36.258,-68.828 49.539,-104.905 19.716,-53.55 32.402,-109.771 37.018,-166.666 5.644,-69.586 -1.189,-139.322 -9.737,-208.374 z"
   id="path1-2" />
		<path
   style="fill:#d0d0d2"
   d="m 1386.836,1971.871 c -19.437,-46.252 -46.909,-88.639 -80.973,-125.411 1.857,11.266 2.709,22.824 7.729,33.212 1.228,2.636 -2.66,4.939 -3.94,2.289 -4.949,-10.622 -10.665,-20.856 -16.906,-30.769 -20.127,-31.965 -45.094,-60.503 -66.332,-91.687 5.245,26.173 10.429,52.539 10.423,79.299 -10e-4,1.903 -2.557,3.1 -3.894,1.6 -6.498,-7.292 -12.517,-14.99 -18.289,-22.863 -19.703,-26.881 -36.743,-55.968 -59.332,-80.594 5.31,24.906 7.224,50.567 4.408,75.918 -0.248,2.227 -2.934,3.116 -4.248,1.138 -19.74,-29.729 -42.577,-58.279 -70.4,-80.873 -6.139,26.005 -8.755,53.847 -22.131,77.401 -1.044,1.841 -3.491,1.174 -4.161,-0.555 -5.503,-14.184 -6.328,-29.813 -4.335,-44.853 -23.311,25.699 -47.696,50.483 -69.128,77.813 -1.2,1.531 -4.064,0.246 -3.884,-1.621 2.632,-27.379 10.66,-54.671 25.051,-78.167 -23.011,13.263 -46.356,26.013 -68.252,41.089 -23.931,16.475 -45.902,36.033 -61.957,60.448 -1.419,2.16 -4.783,0.774 -4.158,-1.767 2.951,-11.998 3.19,-24.489 3.236,-36.816 -7.369,5.162 -14.367,10.823 -20.986,16.925 -26.988,24.878 -47.97,55.406 -68.31,85.723 -1.221,1.82 -4.256,1.194 -4.242,-1.162 0.108,-19.482 2.698,-38.845 3.265,-58.312 -12.916,14.365 -23.57,30.57 -31.714,48.121 -15.334,33.041 -21.498,69.468 -25.147,105.447 -3.002,29.606 -4.381,59.375 -7.665,88.95 18.409,48.734 34.488,98.331 47.985,148.565 13.029,48.503 24.881,99.245 54.13,141.024 13.65,19.498 31.778,35.866 53.392,46.083 28.186,13.325 59.984,15.803 90.627,18.095 6.637,0.498 13.282,0.915 19.927,1.344 14.584,2.664 29.761,3.241 44.664,3.267 8.266,0.013 16.535,-0.081 24.803,-0.214 8.268,0.179 16.535,0.319 24.802,0.351 14.903,0.057 30.083,-0.437 44.682,-3.02 6.648,-0.391 13.295,-0.772 19.935,-1.233 30.656,-2.124 62.466,-4.427 90.726,-17.595 21.671,-10.096 39.889,-26.365 53.646,-45.787 29.479,-41.617 41.61,-92.292 54.908,-140.723 17.496,-63.713 39.093,-126.397 64.422,-187.536 2.207,-2.247 4.462,-4.433 6.718,-6.619 -6.714,-32.801 -16.117,-65.042 -29.095,-95.925 z"
   id="path2-3" />
		<path
   style="opacity:0.65;fill:#c0c1c3"
   d="M 2075.318,1099.71 C 2059.081,968.524 2036.907,837.003 1992.14,712.181 1951.705,599.436 1891.757,493.325 1806.672,408.208 1734.489,335.998 1645.388,280.12 1546.162,255.17 c 26.044,-9.921 52.111,-19.783 78.164,-29.679 7.181,-2.728 0.066,-11.804 -3.737,-13.722 -26.797,-13.521 -54.508,-25.106 -82.987,-34.594 -91.874,-30.61 -191.402,-40.693 -287.435,-27.042 8.263,-10.141 16.605,-20.22 24.621,-30.552 4.157,-5.357 -2.298,-14.174 -8.711,-13.065 -23.657,4.086 -46.457,11.215 -68.215,21.092 5.293,-22.224 10.606,-44.443 15.821,-66.684 1.064,-4.537 -7.719,-12.32 -11.171,-7.36 -14.177,20.369 -25.779,42.324 -35.214,65.226 -0.604,-1.594 -1.169,-3.205 -1.669,-4.845 -3.761,-12.326 -5.378,-25.247 -5.397,-38.112 -0.01,-4.233 -5.42,-5.693 -8.615,-4.233 -13.719,6.272 -27.835,11.759 -42.178,16.546 13.66,-11.037 27.306,-22.09 40.957,-33.137 5.321,-4.306 4.018,-13.481 -3.627,-13.012 -39.542,2.427 -75.063,20.847 -107.967,42.155 8.07,-12.237 16.825,-24.041 26.377,-35.043 1.956,-2.253 3.915,-5.612 2.453,-8.677 -1.305,-2.737 -4.839,-3.433 -7.476,-2.279 -26.226,11.477 -50.441,27.024 -71.542,46.397 -10.532,9.672 -22.332,21.201 -30.479,34.312 -9.354,-23.188 -20.917,-45.43 -35.114,-66.071 -3.425,-4.977 -12.252,2.755 -11.213,7.298 5.094,22.272 10.283,44.519 15.453,66.772 -21.703,-9.998 -44.463,-17.253 -68.099,-21.468 -6.405,-1.144 -12.908,7.637 -8.783,13.016 7.961,10.377 16.246,20.502 24.453,30.688 -95.956,-14.181 -195.537,-4.648 -287.579,25.454 -28.532,9.332 -56.305,20.763 -83.177,34.135 -3.814,1.897 -10.978,10.934 -3.813,13.701 25.999,10.039 52.009,20.046 77.999,30.11 C 478.9,276.9 389.494,332.284 316.912,404.094 231.359,488.74 170.825,594.519 129.769,707.038 84.312,831.612 61.414,963.008 44.45,1094.102 c -8.927,69.003 -16.146,138.701 -10.885,208.318 4.3,56.919 16.676,113.207 36.095,166.866 13.083,36.15 29.544,71.467 48.959,105.177 13.381,37.771 30.535,74.201 51.329,108.449 21.265,35.026 46.199,67.827 74.565,97.408 5.098,5.317 15.71,-2.915 14.178,-9.229 -0.118,-0.489 -0.255,-0.973 -0.373,-1.46 24.094,39.096 51.813,76.009 82.402,110.078 5.429,6.046 15.6,-3.327 14.712,-9.575 -1.922,-13.534 -5.026,-26.79 -9.021,-39.746 18.775,19.036 39.354,36.299 61.611,51.438 5.401,3.674 14.402,-5.014 13.13,-10.607 -0.155,-0.679 -0.354,-1.339 -0.517,-2.015 36.165,33.728 79.048,60.458 121.286,85.868 57.76,34.748 116.15,68.927 163.241,117.399 24.99,61.278 46.242,124.08 63.385,187.889 13.029,48.503 24.881,99.245 54.13,141.024 13.65,19.498 31.778,35.866 53.392,46.083 28.186,13.325 59.984,15.803 90.627,18.095 6.637,0.498 13.282,0.915 19.927,1.344 14.584,2.664 29.761,3.241 44.664,3.267 8.266,0.013 16.535,-0.081 24.803,-0.214 8.268,0.179 16.535,0.319 24.802,0.351 14.903,0.057 30.083,-0.437 44.682,-3.02 6.648,-0.391 13.295,-0.772 19.935,-1.233 30.656,-2.124 62.466,-4.427 90.726,-17.595 21.671,-10.096 39.889,-26.365 53.646,-45.787 29.479,-41.617 41.61,-92.292 54.908,-140.723 17.496,-63.713 39.093,-126.397 64.422,-187.536 47.358,-48.213 105.936,-82.068 163.888,-116.496 42.376,-25.176 85.407,-51.67 121.758,-85.196 -0.167,0.675 -0.369,1.334 -0.528,2.012 -1.302,5.586 7.649,14.323 13.071,10.68 22.341,-15.016 43.015,-32.166 61.895,-51.097 -4.067,12.934 -7.243,26.171 -9.239,39.694 -0.923,6.244 9.196,15.675 14.659,9.658 30.777,-33.899 58.697,-70.658 83.009,-109.621 -0.123,0.487 -0.261,0.97 -0.382,1.457 -1.568,6.306 8.998,14.597 14.126,9.308 28.529,-29.425 53.645,-62.088 75.103,-96.995 20.983,-34.135 38.338,-70.469 51.927,-108.165 19.601,-33.604 36.258,-68.828 49.539,-104.905 19.716,-53.55 32.402,-109.771 37.018,-166.666 5.644,-69.586 -1.189,-139.322 -9.737,-208.374 z m -153.781,84.866 c -2.775,38.563 -9.974,77.085 -24.05,113.191 -0.784,2.008 -3.739,2.295 -4.394,-0.012 -6.474,-22.825 -14.141,-45.491 -25.063,-66.55 9.232,30.985 14.179,63.943 12.306,95.923 -0.137,2.322 -2.964,3.005 -4.248,1.138 -12.104,-17.61 -18.46,-38.112 -26.836,-57.623 4.295,21.531 9.577,42.921 9.621,65 0,1.82 -1.925,2.71 -3.433,1.957 -36.694,-18.293 -78.876,-20.135 -119.102,-18.506 -33.614,1.361 -67.513,3.732 -100.667,9.602 -2.889,0.511 -5.767,1.075 -8.649,1.634 -0.462,0.217 -0.933,0.427 -1.393,0.646 -37.552,17.876 -72.233,41.545 -104.843,67.22 -30.768,24.226 -60.534,50.23 -87.912,78.239 -28.842,29.503 -54.688,61.839 -76.269,97.033 -22.205,36.215 -39.74,75.026 -54.046,114.98 -0.889,2.484 -4.25,1.941 -4.473,-0.619 -0.955,-11.037 -1.442,-22.108 -1.426,-33.187 0.04,-27.253 2.87,-55.035 10.088,-81.503 -5.034,9.902 -9.962,19.857 -14.54,29.98 -8.13,17.983 -15.069,36.591 -19.226,55.922 -4.418,20.543 -6.685,41.616 -7.236,62.609 -1.112,42.364 4.353,84.547 4.294,126.892 0,2.279 -3.098,3.066 -4.247,1.138 -8.908,-14.96 -17.453,-30.126 -25.826,-45.386 24.148,57.164 46.459,118.657 44.701,181.495 -0.075,2.681 -3.621,2.946 -4.476,0.593 -3.881,-10.669 -8.681,-20.971 -14.199,-30.891 -4.465,-8.023 -9.438,-15.807 -14.755,-23.373 0.462,1.653 0.945,3.302 1.392,4.958 15.949,58.967 24.187,120.404 25.259,181.458 0.434,24.716 0.325,49.748 -4.52,74.08 -4.489,22.549 -13.224,47.731 -33.446,60.857 -1.386,0.899 -3.563,-0.276 -3.423,-1.977 1.734,-20.931 7.36,-41.225 10.808,-61.871 -8.182,22.884 -14.08,47.181 -30.511,65.572 -1.271,1.42 -4.058,0.325 -3.885,-1.622 1.234,-13.831 4.167,-27.889 5.422,-41.898 -4.092,6.29 -8.575,12.33 -13.447,18.022 -18.553,21.683 -42.143,39.024 -67.742,51.497 -25.413,12.383 -53.23,20.277 -81.515,21.811 -26.554,1.439 -53.789,-3.045 -77.361,-15.743 -15.415,-8.305 -28.405,-19.948 -38.677,-33.751 2.006,6.729 3.355,13.616 3.405,20.756 0.012,1.761 -1.947,2.788 -3.433,1.957 -20.13,-11.246 -30.769,-32.052 -39.985,-52.538 2.285,20.295 5.701,40.442 9.007,60.599 0.369,2.248 -2.028,3.767 -3.814,2.207 -10.615,-9.283 -19.492,-20.431 -26.586,-32.598 -0.926,-1.588 -1.758,-3.225 -2.625,-4.843 -1.959,15.757 -4.431,31.456 -7.741,47.052 -0.28,1.321 -2.21,2.226 -3.351,1.352 -15.97,-12.231 -27.308,-29.085 -35.306,-47.386 -16.712,-38.24 -21.164,-81.528 -21.243,-122.88 -0.046,-24.524 1.436,-49.444 5.178,-73.916 -4.107,17.566 -6.567,35.584 -8.991,53.389 -0.314,2.303 -3.952,3.358 -4.477,0.593 -9.766,-51.425 4.124,-103.488 23.74,-151.093 -25.749,28.323 -40.202,64.338 -58.018,97.945 -1.017,1.917 -4.473,1.11 -4.242,-1.162 2.856,-28.195 9.549,-55.724 18.212,-82.663 15.087,-46.921 35.865,-92.069 47.235,-140.156 5.702,-24.118 8.764,-48.886 7.468,-73.687 -1.323,-25.317 -7.302,-50.003 -16.695,-73.463 -4.078,46.955 -6.759,95.312 -25.382,139.123 -0.76,1.789 -3.969,2.49 -4.393,-0.012 -10.113,-59.736 -23.866,-119.135 -45.922,-175.684 -19.309,-49.503 -45.247,-96.495 -78.629,-137.927 -37.635,-46.71 -84.119,-84.624 -134.078,-117.46 -26.673,-17.53 -54.253,-33.636 -82.158,-49.111 -23.972,-13.294 -47.973,-26.273 -72.908,-37.663 -33.719,-15.403 -72.553,-33.626 -89.198,-68.082 1.413,21.219 1.901,42.493 -1.512,63.577 -0.264,1.635 -2.776,2.248 -3.81,0.993 -20.989,-25.464 -29.547,-61.198 -25.588,-94.223 -11.407,27.25 -19.059,55.81 -26.318,84.5 -0.521,2.058 -3.079,2.018 -4.165,0.533 -10.727,-14.677 -14.653,-32.995 -15.257,-50.887 -0.989,-29.33 5.751,-58.939 15.973,-86.78 -13.087,17.056 -25.085,34.932 -35.493,53.775 -18.063,32.7 -30.972,67.954 -38.295,104.586 -0.441,2.207 -3.916,2.124 -4.393,-0.013 -2.422,-10.835 -4.6,-21.727 -6.369,-32.688 -3.368,-20.847 -5.338,-42.121 -4.74,-63.259 -1.972,8.762 -4.383,17.405 -8.117,25.69 -0.812,1.804 -3.758,1.243 -4.161,-0.555 -3.805,-16.993 -6.129,-34.305 -7.165,-51.684 -1.929,-32.368 0.515,-65.064 7.121,-96.805 2.464,-11.84 5.543,-23.585 9.283,-35.115 -2.8,4.316 -5.721,8.557 -8.892,12.64 -1.364,1.758 -4.093,1.24 -4.241,-1.162 -1.308,-21.322 0.651,-42.724 5.221,-63.577 8.217,-37.49 24.555,-72.923 44.632,-105.478 17.874,-28.985 38.903,-55.978 61.796,-81.177 -22.311,11.688 -40.019,30.876 -62.625,42.237 -2.108,1.06 -4.092,-1.066 -3.109,-3.125 8.714,-18.245 19.405,-35.512 31.522,-51.687 22.646,-30.226 50.263,-57.13 82.105,-77.571 30.837,-19.797 66.248,-33.341 103.177,-34.206 2.039,-0.047 2.617,2.112 1.825,3.473 9.205,-0.059 18.414,0.471 27.55,1.624 16.829,2.124 33.698,5.909 49.448,12.29 34.536,13.99 65.127,36.435 89.49,64.574 24.22,27.971 42.277,60.962 54.16,95.936 4.062,11.957 7.347,24.173 9.964,36.531 16.416,-15.986 29.102,-36.021 40.084,-55.876 11.651,-21.061 21.755,-43.185 29.457,-66.003 0.672,-1.99 3.903,-2.322 4.393,0.012 3.968,18.934 -0.929,37.989 -1.997,56.994 1.371,-1.382 2.81,-2.695 4.112,-4.145 23.067,-25.711 34.381,-60.219 40.394,-93.644 6.84,-38.022 7.113,-77.218 3.77,-115.62 C 730.881,596.269 724.928,561.577 714.44,528.443 701.895,488.81 681.079,451.498 652.268,421.368 622.777,390.525 584.11,367.731 540.8,365.254 c -2.171,-0.124 -3.2,-3.097 -1.138,-4.248 23.144,-12.916 46.861,-24.831 71.308,-35.088 30.071,-12.619 61.45,-22.738 93.592,-28.505 -36.063,-34.009 -86.914,-46.026 -124.236,-78.498 -1.051,-0.915 -0.8,-2.971 0.471,-3.577 2.813,-1.34 5.652,-2.626 8.517,-3.853 26.275,-11.246 54.322,-18.082 82.56,-22.122 31.566,-4.517 63.622,-5.602 95.432,-3.45 32.201,2.179 64.324,7.615 95.164,17.22 22.517,7.013 44.521,16.329 64.739,28.566 -8.715,-23.244 -17.347,-46.527 -29.795,-68.111 -0.821,-1.424 0.217,-3.535 1.977,-3.423 8.303,0.536 16.404,2.354 24.075,5.591 23.623,9.965 40.064,30.637 54.508,51.212 -0.221,-4.769 -0.368,-9.542 -0.341,-14.317 0.09,-15.35 1.314,-31.041 5.597,-45.842 3.695,-12.768 10.195,-25.863 22.302,-32.486 1.504,-0.822 3.428,0.217 3.422,1.977 l -0.193,70.149 c 5.192,-6.902 10.851,-13.447 16.963,-19.554 27.667,-27.639 63.982,-47.595 102.558,-54.605 1.658,-0.301 3.298,1.026 2.794,2.809 -6.074,21.508 -19.767,39.678 -32.057,58.191 27.202,-19.25 60.724,-30.668 94.094,-28.744 1.841,0.105 2.679,1.838 1.957,3.432 -6.058,13.404 -12.266,26.74 -18.5,40.061 -5.444,11.636 -10.888,23.277 -16.25,34.953 24.232,-17.242 52.291,-29.098 80.712,-37.36 29.447,-8.56 60.612,-13.859 91.355,-12.832 2.052,0.069 3.357,3.315 1.138,4.248 -9.173,3.853 -18.1,8.265 -26.732,13.213 -29.134,16.696 -56.054,39.592 -73.61,68.521 15.483,-8.747 30.966,-17.501 46.72,-25.752 31.964,-16.737 65.39,-31.749 100.843,-39.266 36.201,-7.674 73.472,-6.462 108.677,5.279 1.705,0.568 2.427,3.277 0.531,4.164 -15.648,7.322 -31.088,15.096 -46.151,23.563 -25.352,14.252 -49.618,30.507 -71.768,49.39 6.365,-1.355 12.805,-2.424 19.38,-3.085 31.705,-3.193 63.751,0.769 94.751,7.51 57.459,12.495 110.966,40.414 157.723,75.615 1.417,1.066 1.57,3.73 -0.555,4.161 -4.465,0.906 -8.911,1.904 -13.331,3.011 -33.527,8.405 -65.292,23.057 -93.133,43.579 -26.415,19.47 -48.921,43.98 -67.086,71.25 -18.586,27.9 -32.758,58.585 -43.135,90.425 -7.478,22.945 -13,46.509 -16.801,70.345 0.145,5.482 0.341,10.963 0.645,16.438 1.672,30.03 5.714,59.94 12.134,89.327 5.107,23.374 11.819,46.441 20.44,68.775 2.92,-27.086 2.059,-54.536 7.779,-81.307 0.549,-2.573 4.473,-1.885 4.473,0.617 -0.01,12.686 1.104,25.346 3.774,37.757 7.662,35.605 28.003,65.241 51.154,92.463 -0.928,-7.521 -2.041,-15 -3.96,-22.28 -0.765,-2.902 3.361,-3.873 4.396,-1.199 9.862,25.513 27.64,46.295 46.519,65.632 -1.156,-16.048 -6.362,-31.64 -10.231,-47.17 -0.622,-2.498 2.874,-4.005 4.168,-1.743 7.841,13.694 17.843,25.742 30.238,35.441 1.461,-21.598 12.018,-41.266 25.944,-57.568 14.647,-17.146 32.922,-31.172 52.21,-42.716 17.88,-10.702 37.151,-19.635 57.214,-25.382 28.331,-8.113 57.366,-7.639 85.835,-0.357 28.997,7.415 56.163,20.698 82.337,34.945 2.314,1.259 0.68,4.814 -1.767,4.158 -21.074,-5.646 -43.523,-3.067 -64.318,3.126 13.825,2.669 26.657,8.783 37.458,18.153 13.664,11.855 23.163,27.729 29.482,44.528 0.493,1.314 -0.812,3.008 -2.205,2.878 -18.336,-1.727 -35.068,-9.496 -52.189,-15.923 15.329,10.668 27.458,25.879 37.021,41.834 14.484,24.165 24.281,51.063 31.934,78.083 7.502,26.477 13.069,53.624 16.891,80.87 5.395,38.447 7.1,77.489 4.313,116.225 z"
   id="path3" />
		<path
   style="opacity:0.65;fill:#c0c1c3"
   d="m 2082.734,1167.276 c -0.133,1.591 -0.219,3.186 -0.357,4.777 -5.686,64.498 -16.621,128.885 -34.109,191.26 -16.137,57.558 -37.52,113.853 -64.739,167.102 -26.162,51.178 -58.035,100.172 -98.381,141.353 -1.568,1.602 -4.483,-0.043 -3.801,-2.226 7.344,-23.488 16.304,-46.632 22.077,-70.574 -21.511,47.277 -43.558,95.519 -80.613,132.656 -1.488,1.491 -4.727,-0.04 -3.801,-2.228 10.156,-23.979 17.836,-48.778 24.165,-73.968 -21.381,36.421 -46.679,70.462 -76.439,100.613 -21.21,21.488 -44.441,40.928 -69.098,58.342 -28.195,19.911 -58.454,36.702 -88.584,53.461 -36.132,20.097 -73.002,38.82 -109.385,58.451 -12.283,6.629 -24.266,13.809 -36.599,20.376 -13.706,7.298 -27.441,14.559 -40.814,22.454 -23.458,13.849 -51.336,30.61 -59.13,58.529 -4.309,15.434 -4.173,31.792 -4.318,47.687 -0.074,7.915 -0.123,15.842 -0.676,23.742 -0.527,7.538 -1.854,14.915 -3.267,22.331 -6.307,33.116 -15.099,65.878 -27.143,97.386 -11.661,30.507 -26.397,60.188 -46.748,85.883 -1.581,1.996 -4.127,-0.282 -3.801,-2.227 1.867,-11.13 3.329,-23.055 3.342,-34.916 -4.669,14.013 -11.001,27.348 -19.805,38.988 -8.96,11.846 -20.732,21.429 -35.055,25.888 -9.035,2.812 -18.46,3.146 -27.857,2.977 -12.287,-0.219 -24.528,-1.522 -36.703,-3.117 -23.975,-3.141 -48.136,-8.188 -72.391,-8.246 -17.076,-0.04 -34.129,1.544 -51.1,3.277 -37.536,3.832 -75.307,9.131 -113.123,7.115 -31.398,-1.673 -63.636,-9.159 -87.49,-30.366 2.757,12.724 7.347,25.024 9.263,37.943 0.338,2.285 -1.988,3.714 -3.813,2.205 -2.039,-1.683 -3.949,-3.512 -5.748,-5.447 -9.214,-9.909 -15.967,-22.032 -21.876,-34.113 -7.894,-16.143 -14.364,-32.976 -20.407,-49.884 -14.593,-40.823 -26.695,-82.493 -40.062,-123.723 -13.459,-41.51 -27.633,-83.226 -47.378,-122.238 -14.625,-28.895 -33.654,-60.861 -63.456,-76.248 -12.367,-6.386 -26.338,-8.83 -40.134,-6.899 -17.056,2.385 -32.742,10.529 -46.779,20.224 5.153,8.911 10.079,17.949 14.919,27.033 47.782,29.01 94.598,59.369 133.642,99.56 24.99,61.278 46.242,124.08 63.385,187.889 13.029,48.503 24.881,99.245 54.13,141.024 13.65,19.498 31.778,35.866 53.392,46.083 28.186,13.325 59.984,15.803 90.627,18.095 6.637,0.498 13.282,0.915 19.927,1.344 14.584,2.664 29.761,3.241 44.664,3.267 8.266,0.013 16.535,-0.081 24.803,-0.214 8.268,0.179 16.535,0.319 24.802,0.351 14.903,0.057 30.083,-0.437 44.682,-3.02 6.648,-0.391 13.295,-0.772 19.935,-1.233 30.656,-2.124 62.466,-4.427 90.726,-17.595 21.671,-10.096 39.889,-26.365 53.646,-45.787 29.479,-41.617 41.61,-92.292 54.908,-140.723 17.496,-63.713 39.093,-126.397 64.422,-187.536 47.358,-48.213 105.936,-82.068 163.888,-116.496 42.376,-25.176 85.407,-51.67 121.758,-85.196 -0.167,0.675 -0.369,1.334 -0.528,2.012 -1.302,5.586 7.649,14.323 13.071,10.68 22.341,-15.016 43.015,-32.166 61.895,-51.097 -4.067,12.934 -7.243,26.171 -9.239,39.694 -0.923,6.244 9.196,15.675 14.659,9.658 30.777,-33.899 58.697,-70.658 83.009,-109.621 -0.123,0.487 -0.261,0.97 -0.382,1.457 -1.568,6.306 8.998,14.597 14.126,9.308 28.529,-29.425 53.645,-62.088 75.103,-96.995 20.983,-34.135 38.338,-70.469 51.927,-108.165 19.601,-33.604 36.258,-68.828 49.539,-104.905 19.716,-53.55 32.402,-109.771 37.018,-166.666 3.808,-46.951 1.926,-93.972 -2.321,-140.806 z"
   id="path4" />
		<path
   style="opacity:0.65;fill:#c0c1c3"
   d="m 1640.568,538.833 c -19.061,15.697 -36.557,33.325 -51.813,52.753 -4.065,5.177 -8.057,10.365 -11.215,16.15 -2.527,4.628 -4.741,9.426 -6.833,14.265 -12.59,29.137 -21.473,60.184 -28.38,91.113 -3.74,16.748 -6.803,33.689 -8.533,50.769 -1.448,14.308 -2.213,29.017 -0.223,43.313 1.339,9.629 3.997,20.599 11.444,27.268 7.158,6.409 17.412,5.662 26.387,2.689 9.288,-3.076 17.753,-8.266 25.603,-14.018 12.532,-9.186 23.702,-20.115 34.891,-30.851 10.581,-10.153 21.188,-20.388 33.026,-29.088 12.953,-9.516 26.84,-17.96 41.014,-25.519 56.35,-30.054 120.503,-42.603 184.112,-38.463 31.344,2.041 63.007,8.3 91.595,21.656 6.141,2.87 11.801,6.489 17.157,10.538 -2.174,-6.423 -4.369,-12.841 -6.66,-19.228 -34.61,-96.503 -83.577,-188.102 -150.307,-265.878 -23.305,5.016 -46.31,11.401 -68.77,19.369 -47.699,16.921 -93.335,40.914 -132.495,73.162 z"
   id="path5" />
		<path
   style="opacity:0.65;fill:#c0c1c3"
   d="m 197.591,678.682 c 26.967,-8.905 55.205,-13.841 83.564,-15.081 28.315,-1.24 56.761,1.24 84.523,6.876 28.232,5.73 55.745,14.792 81.993,26.645 26.384,11.914 51.469,26.709 74.652,44.047 23.116,17.285 44.381,37.038 63.07,59.044 7.448,8.771 14.001,18.438 22.772,25.991 5.06,4.359 11.127,8.244 17.859,9.217 12.21,1.762 21.923,-7.572 28.365,-16.807 10.015,-14.355 16.067,-31.409 21.034,-48.053 5.769,-19.331 9.89,-39.157 13.052,-59.069 2.698,-16.996 4.74,-34.154 5.577,-51.351 1.113,-22.852 -2.616,-45.734 -8.514,-67.777 -7.896,-29.518 -20.809,-57.496 -37.676,-82.951 -16.938,-25.563 -37.734,-48.434 -60.786,-68.608 -22.539,-19.722 -47.259,-36.754 -73.128,-51.797 -20.437,-11.886 -41.694,-22.379 -63.35,-31.844 -17.422,-7.615 -35.19,-14.473 -53.206,-20.578 -28.61,20.195 -55.558,42.851 -80.48,67.508 -85.553,84.646 -146.087,190.425 -187.143,302.944 -0.661,1.811 -1.272,3.64 -1.923,5.456 21.626,-14.286 45.127,-25.682 69.745,-33.812 z"
   id="path6" />
		<g
   id="g12">
			<path
   style="fill:#3d3f41"
   d="m 658.344,779.153 c 4.564,-12.039 6.021,-25.228 7.807,-37.893 2.651,-18.8 4.536,-37.708 5.656,-56.663 1.361,-23.038 1.643,-46.145 0.819,-69.209 -2.254,-21.157 -5.437,-42.208 -9.859,-63.024 -2.859,-13.455 -6.259,-26.812 -10.218,-40 -3.886,1.246 -7.742,4.576 -8.997,8.498 -2.676,-7.109 -5.834,-14.048 -9.583,-20.735 -15.498,-27.639 -39.318,-48.96 -65.222,-66.651 -27.439,-18.739 -57.506,-33.94 -88.079,-46.846 -31.947,-13.484 -65.353,-24.106 -99.571,-29.975 -33.691,-5.78 -68.471,-6.712 -102.244,-1.023 -33.576,5.655 -66.996,17.21 -92.571,40.431 -22.099,20.066 -36.426,47.325 -45.917,75.283 -9.516,28.033 -15.874,57.648 -20.417,86.881 -4.189,26.96 -6.268,58.193 7.781,82.818 15.289,26.8 44,36.082 73.407,34.598 30.117,-1.517 58.675,-12.368 88.186,-17.514 27.767,-4.842 56.056,-5.591 84.063,-2.511 55.992,6.158 110.796,27.171 156.182,60.644 22.822,16.831 43.39,36.782 60.687,59.263 8.145,10.585 15.289,25.668 28.915,29.946 14.737,4.629 28.176,-5.171 35.171,-17.569 1.709,1.278 5.702,-1.525 5.113,-3.825 -0.418,-1.637 -0.731,-3.282 -1.109,-4.924 z"
   id="path7" />
			<path
   style="fill:#3d3f41"
   d="m 672.627,615.388 c -2.254,-21.157 -5.437,-42.208 -9.859,-63.024 -2.859,-13.455 -6.259,-26.812 -10.218,-40 -3.886,1.246 -7.742,4.576 -8.997,8.498 -2.676,-7.109 -5.834,-14.048 -9.583,-20.735 -6.477,-11.552 -14.469,-21.945 -23.399,-31.487 3.425,16.156 5.589,32.594 6.492,49.085 2.013,36.82 -1.882,73.91 -10.474,109.735 -0.441,1.839 -2.548,1.975 -3.81,0.993 -21.386,-16.625 -42.531,-33.668 -65.235,-48.494 -20.125,-13.142 -41.499,-24.279 -64.206,-32.252 -24.893,-8.74 -51.115,-13.775 -76.991,-18.639 -51.03,-9.592 -103.059,-16.733 -152.09,-34.451 3.546,9.122 6.724,18.462 6.823,28.349 0.015,1.529 -1.475,2.524 -2.89,2.189 -16.512,-3.904 -27.079,-16.73 -36.529,-29.898 1.605,12.008 2.94,24.053 2.949,36.185 10e-4,1.566 -2.015,3.048 -3.432,1.957 -15.077,-11.599 -21.721,-30.266 -26.005,-48.562 -1.368,17.186 -0.018,34.629 -4.96,51.402 -0.524,1.782 -2.498,2.04 -3.81,0.995 -11.841,-9.428 -17.712,-24.211 -19.932,-38.817 -2.391,-15.727 -1.243,-31.826 1.709,-47.396 2.247,-11.844 5.667,-23.475 10.051,-34.718 -12.255,16.577 -21.268,35.611 -27.865,55.043 -9.516,28.033 -15.874,57.648 -20.417,86.881 -4.189,26.96 -6.268,58.193 7.781,82.818 15.289,26.8 44,36.082 73.407,34.598 30.117,-1.517 58.675,-12.368 88.186,-17.514 27.767,-4.842 56.056,-5.591 84.063,-2.511 55.992,6.158 110.796,27.171 156.182,60.644 22.822,16.831 43.39,36.782 60.687,59.263 8.145,10.585 15.289,25.668 28.915,29.946 14.737,4.629 28.176,-5.171 35.171,-17.569 1.709,1.278 5.702,-1.525 5.113,-3.825 -0.419,-1.638 -0.732,-3.284 -1.11,-4.926 4.564,-12.039 6.021,-25.228 7.807,-37.893 2.651,-18.8 4.536,-37.708 5.656,-56.663 1.362,-23.036 1.644,-46.143 0.82,-69.207 z"
   id="path8" />
			<path
   style="fill:#3d3f41"
   d="m 1529.541,781.559 c -4.498,-12.066 -5.881,-25.261 -7.598,-37.936 -2.548,-18.814 -4.329,-37.732 -5.344,-56.693 -1.234,-23.045 -1.389,-46.153 -0.437,-69.213 2.37,-21.144 5.668,-42.177 10.207,-62.969 2.933,-13.437 6.406,-26.777 10.438,-39.942 3.879,1.266 7.717,4.619 8.95,8.547 2.714,-7.094 5.91,-14.014 9.698,-20.68 15.65,-27.553 39.586,-48.741 65.588,-66.289 27.543,-18.589 57.694,-33.623 88.338,-46.359 32.021,-13.309 65.484,-23.746 99.734,-29.426 33.722,-5.593 68.506,-6.333 102.247,-0.458 33.544,5.841 66.902,17.579 92.347,40.941 21.988,20.187 36.164,47.526 45.501,75.535 9.363,28.084 15.555,57.733 19.938,86.993 4.04,26.982 5.947,58.227 -8.238,82.773 -15.437,26.716 -44.198,35.838 -73.596,34.194 -30.108,-1.684 -58.606,-12.693 -88.088,-18.001 -27.739,-4.995 -56.026,-5.901 -84.048,-2.976 -56.026,5.85 -110.945,26.558 -156.516,59.781 -22.914,16.705 -43.591,36.543 -61.012,58.926 -8.204,10.541 -15.433,25.584 -29.081,29.786 -14.762,4.548 -28.146,-5.326 -35.074,-17.763 -1.715,1.269 -5.693,-1.556 -5.093,-3.853 0.429,-1.635 0.753,-3.279 1.139,-4.918 z"
   id="path9" />
			<path
   style="fill:#3d3f41"
   d="m 2069.148,563.611 c -4.383,-29.259 -10.575,-58.908 -19.938,-86.993 -3.389,-10.17 -7.441,-20.24 -12.25,-29.924 1.356,20.968 -0.859,54.223 -26.456,59.787 -13.455,2.923 -28.05,-0.403 -41.163,-3.55 -12.844,-3.084 -25.621,-7.67 -38.751,-9.391 -39.006,-5.113 -78.172,-1.547 -116.016,8.894 -37.551,10.358 -73.241,26.311 -109,41.524 -1.86,0.793 -4.545,-1.023 -3.109,-3.125 9.578,-14.016 24.311,-23.466 35.246,-36.337 -9.536,1.608 -18.874,4.295 -27.832,7.944 -37.059,15.093 -66.401,43.755 -100.868,63.411 -1.836,1.047 -4.547,-1.219 -3.109,-3.126 11.127,-14.749 22.254,-29.5 33.379,-44.249 -5.934,3.007 -11.664,6.408 -17.155,10.179 -29.603,20.333 -52.973,49.25 -72.441,79.093 -1.202,1.839 -4.267,1.176 -4.242,-1.162 0.179,-16.969 6.647,-32.404 12.702,-47.932 -15.511,22.982 -17.461,53.209 -21.098,80.067 -0.325,2.397 -3.74,3.261 -4.476,0.592 -3.82,-13.859 -6.341,-28.064 -8.021,-42.335 -1.233,-10.479 -2.002,-21.104 -2.201,-31.75 -2.53,14.089 -4.591,28.26 -6.186,42.49 -0.951,23.06 -0.797,46.168 0.437,69.213 1.016,18.961 2.796,37.878 5.344,56.693 1.717,12.675 3.1,25.87 7.598,37.936 -0.387,1.638 -0.71,3.283 -1.138,4.918 -0.601,2.297 3.377,5.122 5.093,3.853 6.927,12.438 20.311,22.311 35.074,17.763 13.65,-4.202 20.876,-19.245 29.081,-29.786 17.421,-22.384 38.098,-42.221 61.013,-58.926 45.569,-33.223 100.49,-53.931 156.514,-59.781 28.022,-2.926 56.309,-2.019 84.048,2.976 29.482,5.308 57.98,16.317 88.088,18.001 29.398,1.644 58.159,-7.478 73.596,-34.194 14.184,-24.547 12.277,-55.792 8.237,-82.773 z"
   id="path10" />
			<path
   style="opacity:0.47;fill:#ffffff"
   d="m 672.627,615.388 c -2.254,-21.157 -5.437,-42.208 -9.859,-63.024 -2.859,-13.455 -6.259,-26.812 -10.218,-40 -3.886,1.246 -7.742,4.576 -8.997,8.498 -2.676,-7.109 -5.834,-14.048 -9.583,-20.735 -15.498,-27.639 -39.318,-48.96 -65.222,-66.651 -27.439,-18.739 -57.506,-33.94 -88.079,-46.846 -31.947,-13.484 -65.353,-24.106 -99.571,-29.975 -33.691,-5.78 -68.471,-6.712 -102.244,-1.023 -33.576,5.655 -66.996,17.21 -92.571,40.431 -12.545,11.392 -22.517,25.144 -30.589,39.985 0.83,-0.526 1.627,-1.101 2.462,-1.619 35.571,-22.046 75.686,-36.485 117.136,-42.22 37.239,-5.152 74.697,-2.219 111.937,1.396 36.29,3.523 73.017,8.845 107.576,20.869 29.873,10.395 61.133,27.104 75.54,56.772 1.005,2.071 -1.045,4.163 -3.126,3.107 -10.067,-5.104 -19.811,-11.106 -30.499,-14.634 8.682,7.072 17.678,13.754 26.682,20.409 20.825,15.39 42.072,30.774 59.531,50.056 17.639,19.482 29.913,42.651 33.124,68.936 0.208,1.701 -2.106,2.859 -3.432,1.957 -12.319,-8.374 -22.401,-20.031 -35.362,-27.422 5.131,14.265 10.624,28.396 15.911,42.603 5.296,14.23 10.29,28.585 14.303,43.235 1.994,7.283 3.876,14.59 4.864,22.083 0.99,7.528 1.559,15.101 1.854,22.686 1.085,27.927 -1.342,55.95 0.645,83.84 1.873,0.565 5.152,-1.922 4.613,-4.025 -0.419,-1.638 -0.732,-3.284 -1.11,-4.926 4.564,-12.039 6.021,-25.228 7.807,-37.893 2.651,-18.8 4.536,-37.708 5.656,-56.663 1.363,-23.036 1.645,-46.143 0.821,-69.207 z"
   id="path11" />
			<path
   style="opacity:0.47;fill:#ffffff"
   d="m 1532.048,753.135 c -1.703,-40.002 5.504,-79.964 11.205,-119.406 6.908,-47.799 26.109,-92.344 49.99,-133.93 1.33,-2.318 4.71,-0.685 4.158,1.767 -3.479,15.452 -6.938,30.998 -8.161,46.794 3.388,-6.554 6.904,-13.04 10.722,-19.358 18.987,-31.409 43.459,-58.864 70.964,-83.047 1.552,-1.364 4.676,-0.065 3.801,2.228 -5.989,15.692 -13.994,30.644 -19.07,46.657 6.166,-6.626 12.438,-13.151 18.971,-19.417 31.217,-29.935 67.405,-55.082 108.891,-68.332 2.202,-0.703 3.786,2.261 2.207,3.814 -6.104,5.997 -12.956,11.13 -19.601,16.503 24.921,-10.061 50.725,-17.936 77.187,-22.756 51.249,-9.333 104.964,-7.147 153.925,11.579 10.604,4.055 20.795,8.868 30.603,14.293 -6.789,-10.77 -14.705,-20.788 -24.13,-29.441 -25.445,-23.362 -58.801,-35.1 -92.347,-40.941 -33.741,-5.875 -68.525,-5.135 -102.247,0.458 -34.25,5.68 -67.713,16.118 -99.734,29.426 -30.644,12.736 -60.795,27.77 -88.338,46.359 -26.002,17.548 -49.938,38.736 -65.588,66.289 -3.788,6.666 -6.984,13.586 -9.698,20.68 -1.233,-3.928 -5.071,-7.28 -8.95,-8.547 -4.031,13.165 -7.505,26.505 -10.438,39.942 -4.539,20.792 -7.837,41.825 -10.207,62.969 -0.951,23.06 -0.797,46.168 0.437,69.213 1.016,18.961 2.796,37.878 5.344,56.693 1.717,12.675 3.1,25.87 7.598,37.936 -0.387,1.638 -0.71,3.283 -1.138,4.918 -0.601,2.297 3.377,5.122 5.093,3.853 1.951,3.504 4.431,6.787 7.293,9.62 -5.986,-14.727 -8.073,-31.125 -8.742,-46.816 z"
   id="path12" />
		</g>
		<path
   style="fill:#1e1f21"
   d="m 1258.616,2393.649 c -18.265,-14.715 -41.942,-21.612 -64.565,-26.135 -25.476,-5.094 -51.448,-7.115 -77.295,-9.322 -16.385,-1.401 -32.741,-3.677 -49.182,-4.304 -16.769,-0.639 -33.583,-0.363 -50.347,0.319 -21.26,0.864 -42.5,2.492 -63.626,5.035 -21.579,2.596 -43.114,6.142 -64.187,11.517 -17.605,4.489 -35.424,10.139 -51.092,19.532 -5.379,3.225 -10.737,7.124 -15.124,11.791 13.591,19.185 31.522,35.294 52.874,45.386 28.186,13.325 59.984,15.803 90.627,18.095 6.637,0.498 13.282,0.915 19.927,1.344 14.584,2.664 29.761,3.241 44.664,3.267 8.266,0.013 16.535,-0.081 24.803,-0.214 8.268,0.179 16.535,0.319 24.802,0.351 14.903,0.057 30.083,-0.437 44.682,-3.02 6.648,-0.391 13.295,-0.772 19.935,-1.233 30.656,-2.124 62.466,-4.427 90.726,-17.595 15.948,-7.429 30.005,-18.221 41.811,-31.133 -4.715,-9.21 -11.378,-17.191 -19.433,-23.681 z"
   id="path13" />
		<path
   style="fill:#1e1f21"
   d="m 1021,2375.53 c -22.979,-1.373 -46.181,-0.568 -68.916,2.765 -24.152,3.541 -48.872,9.841 -69.936,22.602 7.837,6.14 18.014,9.376 27.494,11.697 25.661,6.28 53.326,6.558 79.417,3.067 12.469,-1.667 24.949,-4.338 36.711,-8.87 8.35,-3.219 16.729,-7.594 22.919,-14.194 -6.338,-6.303 -13.843,-11.226 -22.034,-14.824 -1.859,-0.817 -3.751,-1.547 -5.655,-2.243 z"
   id="path14" />
		<path
   style="fill:#1e1f21"
   d="m 1112.184,2391.494 c -1.917,-0.247 -3.839,-0.452 -5.764,-0.577 -11.931,-0.78 -24.567,1.03 -34.225,8.468 6.049,7.756 16.898,11.007 26.326,11.604 9.484,0.599 20.471,-1.126 27.584,-7.947 -3.235,-5.222 -8.282,-9.01 -13.921,-11.548 z"
   id="path15" />
		<path
   style="fill:#3d3f41"
   d="m 734.234,1766.343 c -17.126,-52.177 -41.538,-102.842 -68.516,-150.597 -52.604,-93.11 -126.176,-177.928 -226.99,-219.568 -24.015,-9.919 -49.262,-17.235 -74.962,-21.151 -12.829,-1.954 -25.794,-3.051 -38.771,-3.217 -14.312,-0.182 -29.023,0.431 -42.438,5.968 -24.54,10.129 -41.49,33.9 -52.028,57.397 -9.843,21.944 -14.817,47.495 -12.565,71.618 -9.254,43.828 -5.975,90.729 7.925,132.692 6.192,18.693 14.618,36.553 25.073,53.234 1.472,2.349 3.556,2.939 5.617,2.481 2.377,9.81 5.358,19.511 9.196,29.138 9.57,24.004 23.139,47.482 40.873,66.391 1.938,2.067 4.79,1.52 7.063,-0.142 16.357,24.918 34.839,48.366 56.463,69.145 34.285,32.947 73.807,60.618 116.441,81.666 42.426,20.946 88.408,36.209 135.272,43.142 11.747,1.739 23.573,3.02 35.432,3.67 12.702,0.697 25.761,1.327 38.196,-1.835 27.745,-7.053 40.802,-34.502 48.592,-59.766 16.276,-52.785 6.999,-108.861 -9.873,-160.266 z"
   id="path16" />
		<path
   style="fill:#3d3f41"
   d="m 1332.698,1928.234 c 7.651,25.306 20.556,52.827 48.263,60.035 12.416,3.23 25.479,2.672 38.185,2.044 11.861,-0.584 23.696,-1.801 35.452,-3.473 46.9,-6.674 92.965,-21.684 135.508,-42.395 42.749,-20.812 82.423,-48.264 116.89,-81.021 21.737,-20.66 40.351,-44.004 56.843,-68.832 2.264,1.674 5.113,2.236 7.063,0.182 17.837,-18.812 31.537,-42.214 41.238,-66.165 3.891,-9.605 6.927,-19.29 9.359,-29.087 2.058,0.468 4.145,-0.109 5.628,-2.45 10.548,-16.624 19.071,-34.436 25.367,-53.096 14.134,-41.886 17.671,-88.767 8.659,-132.646 2.385,-24.109 -2.447,-49.689 -12.169,-71.687 -10.408,-23.554 -27.227,-47.418 -51.711,-57.682 -13.384,-5.612 -28.092,-6.304 -42.404,-6.203 -12.979,0.094 -25.948,1.119 -38.789,3.002 -25.721,3.773 -51.008,10.95 -75.078,20.736 -101.042,41.082 -175.081,125.493 -228.198,218.312 -27.243,47.604 -51.932,98.133 -69.346,150.214 -17.157,51.314 -26.744,107.338 -10.76,160.212 z"
   id="path17" />
		<path
   style="fill:#1a1c1e"
   d="m 1682.052,1588.543 c -18.225,13.561 -35.921,27.835 -53.026,42.785 -33.05,28.887 -64.287,60.159 -92.18,94.075 -27.345,33.252 -52.375,68.639 -72.611,106.696 -17.188,32.325 -30.747,66.755 -38.123,102.638 7.283,-14.447 15.969,-28.408 26.245,-40.804 5.214,-6.291 11.109,-12.613 18.282,-16.696 8.211,-4.676 18.528,-5.636 27.779,-6.145 11.494,-0.633 23.014,-0.077 34.511,0.081 10.777,0.148 21.567,0.124 32.027,-2.732 24.509,-6.693 47.522,-18.178 68.184,-32.895 20.626,-14.69 38.798,-32.538 53.93,-52.836 15.188,-20.372 28.011,-42.997 36.154,-67.126 4.424,-13.102 6.322,-26.534 6.461,-40.337 0.134,-13.509 -1.005,-26.998 -0.796,-40.51 0.17,-10.88 1.262,-21.189 5.188,-31.384 3.532,-9.174 8.399,-17.775 13.902,-25.903 12.422,-18.347 27.86,-34.6 43.976,-49.721 4.149,-3.895 8.378,-7.702 12.65,-11.46 -25.63,10.182 -49.926,24.215 -72.98,38.798 -16.804,10.632 -33.613,21.602 -49.573,33.476 z"
   id="path18" />
		<path
   style="fill:#26282a"
   d="m 1466.947,1879.707 c 6.198,-11.694 12.094,-23.547 18.07,-35.353 8.582,-16.952 16.938,-34.069 26.805,-50.322 10.108,-16.652 21.55,-32.467 34.064,-47.39 27.42,-32.699 59.586,-61.554 92.183,-88.966 33.474,-28.151 68.384,-54.532 103.493,-80.592 4.843,-3.596 9.695,-7.181 14.544,-10.77 10.756,-13.886 23.077,-26.601 35.85,-38.585 4.149,-3.895 8.378,-7.702 12.65,-11.46 -25.63,10.182 -49.926,24.215 -72.98,38.798 -16.805,10.632 -33.614,21.603 -49.573,33.477 -18.225,13.561 -35.921,27.835 -53.026,42.785 -33.05,28.887 -64.287,60.159 -92.18,94.075 -27.345,33.252 -52.375,68.639 -72.611,106.696 -17.188,32.325 -30.747,66.755 -38.123,102.638 7.283,-14.447 15.969,-28.408 26.245,-40.804 4.278,-5.165 9.063,-10.277 14.589,-14.227 z"
   id="path19" />
		<path
   style="fill:#1a1c1e"
   d="m 425.512,1585.074 c 18.152,13.66 35.768,28.031 52.79,43.076 32.889,29.069 63.954,60.514 91.657,94.583 27.162,33.403 51.997,68.927 72.022,107.094 17.009,32.421 30.378,66.925 37.557,102.848 -7.203,-14.485 -15.812,-28.495 -26.021,-40.949 -5.178,-6.319 -11.038,-12.674 -18.189,-16.797 -8.185,-4.721 -18.497,-5.736 -27.745,-6.297 -11.49,-0.697 -23.012,-0.204 -34.511,-0.111 -10.777,0.089 -21.567,0 -32.011,-2.908 -24.472,-6.828 -47.421,-18.441 -68.001,-33.271 -20.544,-14.805 -38.618,-32.752 -53.637,-53.134 -15.076,-20.454 -27.773,-43.151 -35.784,-67.324 -4.35,-13.125 -6.175,-26.57 -6.237,-40.373 -0.06,-13.509 1.154,-26.992 1.018,-40.504 -0.109,-10.88 -1.145,-21.197 -5.014,-31.411 -3.482,-9.193 -8.302,-17.823 -13.759,-25.981 -12.321,-18.413 -27.67,-34.752 -43.702,-49.963 -4.129,-3.918 -8.336,-7.747 -12.587,-11.528 25.572,10.322 49.792,24.49 72.765,39.199 16.748,10.725 33.496,21.789 49.389,33.751 z"
   id="path20-22" />
		<path
   style="fill:#26282a"
   d="m 354.079,1565.732 c 21.606,12.292 41.673,27.326 60.621,43.333 26.564,22.438 51.12,47.132 75.284,72.099 11.666,12.054 23.24,24.196 34.947,36.209 12.497,12.826 24.87,25.663 36.396,39.387 22.574,26.875 42.428,55.872 60.482,85.943 7.682,12.796 15.025,25.786 22.252,38.842 3.423,3.156 6.564,6.651 9.456,10.181 10.209,12.454 18.817,26.464 26.021,40.949 -7.178,-35.922 -20.547,-70.426 -37.557,-102.848 -20.025,-38.168 -44.86,-73.692 -72.022,-107.094 -27.704,-34.068 -58.768,-65.514 -91.657,-94.583 -17.022,-15.044 -34.638,-29.416 -52.79,-43.076 -15.893,-11.962 -32.641,-23.026 -49.387,-33.751 -22.973,-14.709 -47.193,-28.877 -72.765,-39.199 4.251,3.782 8.458,7.611 12.587,11.528 13.704,13.001 26.89,26.84 38.132,42.08 z"
   id="path21" />
	</g>
	<path
   style="opacity:0.79;fill:#ffffff"
   d="m 1777.244,1006.892 c -21.331,-49.867 -65.827,-87.955 -116.367,-106.637 22.021,-7.022 46.106,-7.466 68.333,-0.812 7.223,2.162 19.008,-7.603 12.266,-14.782 -22.908,-24.396 -59.189,-27.27 -89.757,-18.2 -34.717,10.303 -65.078,34.374 -92.94,56.681 -38.02,30.44 -72.893,64.655 -104.188,101.918 -12.057,-24.898 -22.846,-50.402 -31.407,-76.725 -12.787,-39.31 -21.188,-80.027 -24.906,-121.196 -0.859,-9.494 -13.101,-3.1 -15.27,2.064 -8.207,19.527 -13.951,40.008 -17.271,60.883 -11.731,-62.522 -13.292,-127.174 -4.79,-189.984 3.15,-23.281 8.214,-46.144 12.895,-69.147 0.307,-1.513 0.232,-2.731 -0.086,-3.726 2.108,-6.338 4.273,-12.656 6.505,-18.952 10.321,-29.103 21.697,-57.77 34.47,-85.889 1.544,-3.398 0.748,-7.958 -2.785,-9.716 -3.884,-1.931 -8.361,0.449 -11.267,2.985 -28.524,24.893 -54.021,53.341 -76.093,84.19 21.222,-70.18 48.03,-138.712 80.269,-204.535 4.142,-8.46 -5.608,-12.38 -11.961,-8.556 -40.132,24.158 -76.541,54.117 -108.479,88.295 1.848,-10.086 3.962,-20.137 6.455,-30.135 8.886,-35.629 21.765,-70.549 38.01,-103.484 3.335,-6.762 -3.118,-10.61 -8.929,-9.078 -62.569,16.503 -113.846,59.341 -156.662,106.223 -1.978,2.165 -3.861,4.412 -5.811,6.601 15.022,-34.934 32.772,-68.642 53.188,-100.791 4.109,-6.471 0.03,-12.935 -7.491,-10.849 -59.676,16.563 -112.029,58.309 -142.705,111.986 -3.414,5.975 -6.499,12.11 -9.392,18.332 -5.612,-40.228 -5.704,-81.032 0.046,-121.359 0.576,-4.036 -2.003,-7.199 -6.074,-7.245 -4.574,-0.053 -8.249,3.463 -10.111,7.353 -22.089,46.115 -36.45,96.395 -41.779,147.478 -4.481,-13.934 -9.689,-27.642 -15.753,-41.024 -13.49,-29.775 -30.362,-61.013 -54.728,-83.37 -12.909,-11.844 -28.083,-20.533 -45.383,-23.863 -5.481,-1.056 -13.989,7.041 -10.581,12.66 16.246,26.783 31.265,54.017 43.675,82.817 4.005,9.295 7.673,18.713 11.205,28.18 -12.436,-21.28 -28.35,-40.202 -47.696,-56.215 -27.268,-22.57 -59.85,-38.47 -94.36,-46.295 -19.637,-4.452 -39.728,-5.823 -59.806,-4.427 -4.58,0.319 -11.345,9.723 -4.911,12.204 32.426,12.507 61.363,32.527 84.777,58.193 17.31,18.975 32.923,42.1 42.591,66.754 -26.371,-21.771 -55.565,-40.736 -84.773,-57.931 -6.139,-3.615 -15.858,7.344 -10.533,12.694 25.525,25.658 44.736,55.252 58.19,88.878 13.548,33.859 20.882,69.765 24.146,106.012 3.214,35.697 2.666,71.866 -0.828,107.825 -6.114,-9.862 -12.907,-19.302 -20.562,-28.065 -5.481,-6.275 -14.342,3.578 -14.162,9.218 2.4,75.484 -15.917,151.586 -50.106,218.763 -5.054,9.93 -10.536,19.64 -16.355,29.144 1.755,-28.72 -0.579,-57.565 -7.113,-85.708 -2.292,-9.866 -15.306,-3.215 -16.239,4.202 -4.659,37.087 -15.685,73.599 -33.735,106.392 -23.383,-29.794 -49.637,-57.605 -76.946,-83.748 -28.459,-27.246 -58.618,-54.544 -94.353,-71.909 -34.572,-16.799 -73.839,-21.499 -109.103,-3.909 -33.274,16.597 -61.068,45.401 -81.587,76.024 -22.868,34.129 -37.846,73.881 -42.257,114.773 -0.988,9.146 10.886,8.077 14.292,1.91 14.414,-26.102 35.664,-47.57 61.319,-62.286 -22.333,43.973 -32.046,93.73 -27.343,143.052 0.368,3.848 4.179,5.233 7.494,4.422 4.043,-0.986 6.873,-4.434 7.792,-8.377 7.175,-30.784 19.874,-60.168 37.226,-86.516 -8.493,30.682 -10.04,63.418 -3.96,94.513 4.259,21.783 12.097,42.956 24.168,61.642 13.775,21.325 32.03,38.125 53.406,51.702 23.936,15.204 50.245,26.241 75.655,38.671 25.305,12.377 50.165,25.584 74.337,40.054 47.492,28.433 92.006,63.03 126.154,106.956 36.256,46.639 60.379,103.541 60.255,163.203 -0.022,10.234 16.315,3.286 16.897,-4.372 2.257,-29.702 3.221,-59.502 2.994,-89.29 7.59,19.523 16.106,38.622 26.182,56.745 12.089,21.743 27.214,42.004 47.263,57.006 6.04,4.52 15.728,-2.248 14.667,-9.546 -2.859,-19.66 -6.473,-39.313 -10.706,-58.863 0.927,1.399 1.776,2.837 2.734,4.222 19.793,28.634 46.294,53.447 79.082,66.227 6.681,2.604 15.316,-4.487 14.361,-11.604 -5.526,-41.226 -9.742,-82.612 -12.684,-124.086 8.858,31.804 18.565,63.379 29.32,94.668 6.073,17.665 11.759,36.109 27.72,47.333 3.819,2.685 10.176,-2.43 11.223,-5.862 14.588,-47.852 25.751,-96.872 33.894,-146.36 2.945,42.956 7.324,85.813 12.971,128.519 1.151,8.706 11.41,4.192 14.761,-0.072 37.652,-47.907 66.385,-102.56 85.063,-160.482 -3.382,37.728 -6.763,75.456 -10.147,113.185 -0.556,6.213 6.651,6.843 10.203,3.026 31.336,-33.67 57.133,-72.763 76.086,-114.888 -4.793,31.496 -9.624,62.985 -14.566,94.458 -1.684,10.722 12.9,6.84 15.523,-0.103 23.054,-61.019 57.741,-117.449 101.655,-165.68 -7.906,25.033 -15.022,50.319 -21.415,75.76 -2.022,8.046 9.274,5.966 12.066,1.613 15.145,-23.616 32.064,-44.907 52.898,-63.809 20.66,-18.744 43.759,-34.624 67.973,-48.412 50.255,-28.616 105.013,-47.272 160.113,-64.063 30.304,-9.234 60.823,-19.195 87.776,-36.253 23.985,-15.18 43.917,-36.157 57.576,-61.064 26.48,-48.29 30.87,-107.446 9.092,-158.359 z"
   id="path22" />
	<path
   style="opacity:0.65;fill:#e591be"
   d="m 942.692,477.145 c -0.598,-10e-4 -1.182,1.132 -0.455,1.134 0.597,10e-4 1.183,-1.131 0.455,-1.134 z"
   id="path23" />
	<path
   style="opacity:0.79;fill:#ffffff"
   d="m 1174.793,1908.838 c -15.328,-23.247 -33.655,-44.428 -54.143,-63.27 -5.442,-5.005 -13.512,1.758 -14.574,7.519 -3.181,17.271 -4.693,34.758 -4.729,52.241 -3.876,-10.191 -7.693,-20.401 -11.298,-30.678 -2.836,-8.085 -14.987,0.154 -15.368,5.891 -1.396,21.012 -2.632,42.038 -3.822,63.068 l -17.725,-72.214 c -1.966,-8.011 -11.486,-2.154 -12.692,3.284 -2.942,13.276 -5.87,26.552 -8.802,39.83 -5.671,-19.455 -12.377,-38.613 -20.33,-57.252 -0.561,-1.314 -2.201,-2.568 -3.664,-2.619 -18.376,-0.636 -24.363,22.809 -30.288,36.148 -3.813,8.581 -7.63,17.16 -11.444,25.739 0.427,-14.352 0.856,-28.703 1.274,-43.055 0.267,-9.198 -10.432,-5.783 -13.099,0.087 -5.372,11.822 -10.023,23.939 -14.027,36.265 0.195,-4.464 0.453,-8.926 0.853,-13.388 1.779,-19.901 5.876,-39.127 10.702,-58.473 0.564,-2.258 -0.183,-3.646 -1.481,-4.39 -0.179,-1.209 -1.388,-2.061 -2.943,-1.032 -0.189,0.125 -0.369,0.261 -0.558,0.387 -1.854,0.162 -3.766,0.927 -4.909,2.102 -1.225,1.256 -2.391,2.568 -3.599,3.842 -41.39,30.335 -72.623,74.375 -93.04,121.035 -3.494,7.989 6.24,9.599 10.942,5.24 3.447,-3.194 6.848,-6.44 10.277,-9.654 -20.22,38.661 -30.375,82.305 -28.533,126.422 0.384,9.218 12.633,2.751 14.637,-1.979 0.17,-0.401 0.316,-0.81 0.484,-1.21 -1.171,8.821 -1.974,17.724 -2.329,26.723 -1.34,33.928 2.732,67.625 12.075,100.263 1.662,5.807 10.46,-0.256 10.761,-4.124 1.494,-19.253 4.188,-38.345 7.999,-57.217 2.66,15.461 7.992,30.458 15.946,44.141 3.466,5.96 11.162,0.185 12.14,-4.653 0.686,-3.399 1.293,-6.814 1.852,-10.234 4.536,10.188 10.47,19.778 17.725,28.388 22.979,27.271 56.941,39.292 91.734,41.793 34.987,2.514 73.807,-0.217 105.825,-15.642 31.983,-15.407 54.541,-43.483 67.121,-76.3 7.931,-20.689 12.15,-42.782 13.753,-65.136 3.946,-13.681 6.34,-27.845 7.113,-41.954 2.652,-48.407 -13.349,-95.794 -39.816,-135.934 z m -283.13,-7.817 c -4.408,7.752 -8.409,15.741 -11.664,23.981 -2.648,2.534 -5.304,5.063 -7.949,7.602 5.899,-10.96 12.513,-21.442 19.613,-31.583 z"
   id="path24" />
</g></svg>
