<?xml version="1.0" encoding="UTF-8" standalone="no"?>
<!-- Created with Inkscape (http://www.inkscape.org/) -->

<svg
   width="34.988197mm"
   height="37.144333mm"
   viewBox="0 0 34.988197 37.144333"
   version="1.1"
   id="svg1"
   xml:space="preserve"
   xmlns="http://www.w3.org/2000/svg"
   xmlns:svg="http://www.w3.org/2000/svg"><defs
     id="defs1" /><g
     id="layer1"
     transform="translate(-87.545472,-129.85907)"><g
       clip-path="url(#p.0)"
       id="g53"
       transform="matrix(0.02785904,0,0,0.02785904,85.148215,127.31408)"
       style="fill:none;stroke:none;stroke-linecap:square;stroke-miterlimit:10"><path
         fill="#000000"
         fill-opacity="0"
         d="M 0,0 H 1428 V 1516 H 0 Z"
         fill-rule="evenodd"
         id="path2" /><path
         fill="#000000"
         fill-opacity="0"
         d="m 583.0059,897.59973 v 0 c -5.35175,-4.20557 -6.28088,-11.95331 -2.07532,-17.30505 l 30.45862,-38.75971 v 0 c 2.01959,-2.57001 4.97736,-4.23242 8.22272,-4.62164 3.2453,-0.38922 6.51233,0.52673 9.08233,2.54632 l 38.75971,30.45862 c 5.35174,4.20557 6.28088,11.95331 2.07532,17.30506 l -30.45862,38.75964 c -4.20557,5.35181 -11.95331,6.28094 -17.30506,2.07538 z"
         fill-rule="evenodd"
         id="path3" /><path
         stroke="#323232"
         stroke-width="11.4672"
         stroke-miterlimit="8"
         stroke-linecap="round"
         d="m 583.0059,897.59973 v 0 c -5.35175,-4.20557 -6.28088,-11.95331 -2.07532,-17.30505 l 30.45862,-38.75971 v 0 c 2.01959,-2.57001 4.97736,-4.23242 8.22272,-4.62164 3.2453,-0.38922 6.51233,0.52673 9.08233,2.54632 l 38.75971,30.45862 c 5.35174,4.20557 6.28088,11.95331 2.07532,17.30506 l -30.45862,38.75964 c -4.20557,5.35181 -11.95331,6.28094 -17.30506,2.07538 z"
         fill-rule="evenodd"
         id="path4" /><path
         fill="#323232"
         d="m 417.55365,972.6787 -7.43381,-75.01379 339.9274,-339.92743 15.5434,15.54339 -45.95441,45.95441 56.09143,56.09143 -308.16483,331.14199 z"
         fill-rule="evenodd"
         id="path5" /><path
         stroke="#323232"
         stroke-width="36.9108"
         stroke-miterlimit="8"
         stroke-linecap="round"
         d="m 417.55365,972.6787 -7.43381,-75.01379 339.9274,-339.92743 15.5434,15.54339 -45.95441,45.95441 56.09143,56.09143 -308.16483,331.14199 z"
         fill-rule="evenodd"
         id="path6" /><path
         fill="#ffffff"
         d="m 417.55365,972.6787 -7.43381,-75.01379 339.9274,-339.92743 15.5434,15.54339 -45.95441,45.95441 56.09143,56.09143 -308.16483,331.14199 z"
         fill-rule="evenodd"
         id="path7" /><path
         stroke="#ffffff"
         stroke-width="5.73491"
         stroke-linejoin="round"
         stroke-linecap="butt"
         d="m 417.55365,972.6787 -7.43381,-75.01379 339.9274,-339.92743 15.5434,15.54339 -45.95441,45.95441 56.09143,56.09143 -308.16483,331.14199 z"
         fill-rule="evenodd"
         id="path8" /><path
         fill="#323232"
         d="m 694.1873,589.6801 52.2973,-52.2973 33.01312,33.01306 -52.29736,52.29736 z"
         fill-rule="evenodd"
         id="path9" /><path
         fill="#323232"
         d="m 398.14725,1021.9002 -33.6373,68.6741 -32.29629,13.1517 -124.15901,154.4852 99.25923,92.8147 133.47827,-301.289 z"
         fill-rule="evenodd"
         id="path10" /><path
         stroke="#323232"
         stroke-width="36.9108"
         stroke-miterlimit="8"
         stroke-linecap="round"
         d="m 398.14725,1021.9002 -33.6373,68.6741 -32.29629,13.1517 -124.15901,154.4852 99.25923,92.8147 133.47827,-301.289 z"
         fill-rule="evenodd"
         id="path11" /><path
         fill="#ffffff"
         d="m 398.14725,1021.9002 -33.6373,68.6741 -32.29629,13.1517 -124.15901,154.4852 99.25923,92.8147 133.47827,-301.289 z"
         fill-rule="evenodd"
         id="path12" /><path
         stroke="#ffffff"
         stroke-width="5.73491"
         stroke-linejoin="round"
         stroke-linecap="butt"
         d="m 398.14725,1021.9002 -33.6373,68.6741 -32.29629,13.1517 -124.15901,154.4852 99.25923,92.8147 133.47827,-301.289 z"
         fill-rule="evenodd"
         id="path13" /><path
         fill="#323232"
         d="m 532.9757,1007.3085 55.8186,-60.81824 22.995,22.08478 -7.34674,12.6886 43.41888,87.50176 20.70606,15.365 -54.1023,30.0549 -54.10058,-95.5183 z"
         fill-rule="evenodd"
         id="path14" /><path
         stroke="#323232"
         stroke-width="36.9108"
         stroke-miterlimit="8"
         stroke-linecap="round"
         d="m 532.9757,1007.3085 55.8186,-60.81824 22.995,22.08478 -7.34674,12.6886 43.41888,87.50176 20.70606,15.365 -54.1023,30.0549 -54.10058,-95.5183 z"
         fill-rule="evenodd"
         id="path15" /><path
         fill="#ffffff"
         d="m 532.9757,1007.3085 55.8186,-60.81824 22.995,22.08478 -7.34674,12.6886 43.41888,87.50176 20.70606,15.365 -54.1023,30.0549 -54.10058,-95.5183 z"
         fill-rule="evenodd"
         id="path16" /><path
         stroke="#ffffff"
         stroke-width="5.73491"
         stroke-linejoin="round"
         stroke-linecap="butt"
         d="m 532.9757,1007.3085 55.8186,-60.81824 22.995,22.08478 -7.34674,12.6886 43.41888,87.50176 20.70606,15.365 -54.1023,30.0549 -54.10058,-95.5183 z"
         fill-rule="evenodd"
         id="path17" /><path
         fill="#323232"
         d="m 789.41327,527.7103 118.88843,-109.55496 73.95489,77.91388 -112.25787,126.36984 -24.87921,54.65692 -56.42395,-56.42395 46.15979,-46.15979 z"
         fill-rule="evenodd"
         id="path18" /><path
         stroke="#323232"
         stroke-width="36.9108"
         stroke-miterlimit="8"
         stroke-linecap="round"
         d="m 789.41327,527.7103 118.88843,-109.55496 73.95489,77.91388 -112.25787,126.36984 -24.87921,54.65692 -56.42395,-56.42395 46.15979,-46.15979 z"
         fill-rule="evenodd"
         id="path19" /><path
         fill="#ffffff"
         d="m 789.41327,527.7103 118.88843,-109.55496 73.95489,77.91388 -112.25787,126.36984 -24.87921,54.65692 -56.42395,-56.42395 46.15979,-46.15979 z"
         fill-rule="evenodd"
         id="path20" /><path
         stroke="#ffffff"
         stroke-width="5.73491"
         stroke-linejoin="round"
         stroke-linecap="butt"
         d="m 789.41327,527.7103 118.88843,-109.55496 73.95489,77.91388 -112.25787,126.36984 -24.87921,54.65692 -56.42395,-56.42395 46.15979,-46.15979 z"
         fill-rule="evenodd"
         id="path21" /><path
         fill="#323232"
         d="m 596.14886,891.67285 19.36054,-4.94305 -5.14887,-16.27192 z"
         fill-rule="evenodd"
         id="path22" /><path
         fill="#000000"
         fill-opacity="0"
         d="m 638.1448,898.82294 v 0 c -5.8526,1.56946 -12.08862,0.74988 -17.33612,-2.27856 -5.24756,-3.02845 -9.07678,-8.01758 -10.64532,-13.86994 l 22.06719,-5.91778 z"
         fill-rule="evenodd"
         id="path23" /><path
         fill="#000000"
         fill-opacity="0"
         d="m 638.1448,898.82294 v 0 c -5.8526,1.56946 -12.08862,0.74988 -17.33612,-2.27856 -5.24756,-3.02845 -9.07678,-8.01758 -10.64532,-13.86994"
         fill-rule="evenodd"
         id="path24" /><path
         stroke="#323232"
         stroke-width="7.08399"
         stroke-linejoin="round"
         stroke-linecap="round"
         d="m 638.1448,898.82294 v 0 c -5.8526,1.56946 -12.08862,0.74988 -17.33612,-2.27856 -5.24756,-3.02845 -9.07678,-8.01758 -10.64532,-13.86994"
         fill-rule="evenodd"
         id="path25" /><path
         fill="#323232"
         d="m 931.1616,396.99823 13.57355,-13.43185 50.51861,50.51858 -0.393,9.27573 13.31674,13.31674 -10.83939,10.83942 z"
         fill-rule="evenodd"
         id="path26" /><path
         fill="#323232"
         d="m 939.5932,388.90192 76.5303,-76.53037 19.8271,19.82703 -76.53044,76.53037 z"
         fill-rule="evenodd"
         id="path27" /><path
         fill="#323232"
         d="m 971.2706,420.57938 267.2656,-267.2656 19.827,19.82701 -267.26557,267.26562 z"
         fill-rule="evenodd"
         id="path28" /><path
         fill="#323232"
         d="m 1007.3621,457.49564 252.531,-252.53104 v -8.78009 l -4.3901,-4.39003 -256.92097,256.92108 z"
         fill-rule="evenodd"
         id="path29" /><path
         fill="#323232"
         d="m 1066.6138,288.02893 -50.8281,24.68054 65.369,65.36902 37.7543,-37.75436 z"
         fill-rule="evenodd"
         id="path30" /><path
         fill="#323232"
         d="m 1234.7037,219.70058 h -43.0277 l -12.2763,-12.27615 -10.6291,-39.66201 -24.4858,-24.48578 24.1558,-24.15586 83.1554,83.15533 z"
         fill-rule="evenodd"
         id="path31" /><path
         fill="#323232"
         d="m 712.97375,811.5687 15.26025,14.30414 16.33789,11.7055 26.68653,19.25885 29.41937,20.19696 26.68768,15.40723 26.13715,13.67615 33.75958,16.42383 22.59998,9.59576 38.11444,15.95599 24.7774,9.35065 10.23633,-91.99939 -32.12329,-10.14087 -38.39038,-17.3703 -43.02734,-23.81543 -41.11481,-25.4621 -55.83435,-41.88836 z"
         fill-rule="evenodd"
         id="path32" /><path
         stroke="#323232"
         stroke-width="36.9108"
         stroke-miterlimit="8"
         stroke-linecap="round"
         d="m 712.97375,811.5687 15.26025,14.30414 16.33789,11.7055 26.68653,19.25885 29.41937,20.19696 26.68768,15.40723 26.13715,13.67615 33.75958,16.42383 22.59998,9.59576 38.11444,15.95599 24.7774,9.35065 10.23633,-91.99939 -32.12329,-10.14087 -38.39038,-17.3703 -43.02734,-23.81543 -41.11481,-25.4621 -55.83435,-41.88836 z"
         fill-rule="evenodd"
         id="path33" /><path
         fill="#ffffff"
         d="m 712.97375,811.5687 15.26025,14.30414 16.33789,11.7055 26.68653,19.25885 29.41937,20.19696 26.68768,15.40723 26.13715,13.67615 33.75958,16.42383 22.59998,9.59576 38.11444,15.95599 24.7774,9.35065 10.23633,-91.99939 -32.12329,-10.14087 -38.39038,-17.3703 -43.02734,-23.81543 -41.11481,-25.4621 -55.83435,-41.88836 z"
         fill-rule="evenodd"
         id="path34" /><path
         stroke="#ffffff"
         stroke-width="5.73491"
         stroke-linejoin="round"
         stroke-linecap="butt"
         d="m 712.97375,811.5687 15.26025,14.30414 16.33789,11.7055 26.68653,19.25885 29.41937,20.19696 26.68768,15.40723 26.13715,13.67615 33.75958,16.42383 22.59998,9.59576 38.11444,15.95599 24.7774,9.35065 10.23633,-91.99939 -32.12329,-10.14087 -38.39038,-17.3703 -43.02734,-23.81543 -41.11481,-25.4621 -55.83435,-41.88836 z"
         fill-rule="evenodd"
         id="path35" /><path
         fill="#323232"
         fill-opacity="0.6045"
         d="m 274.8393,1286.0353 v 0 c -6.21567,-3.5884 -8.34509,-11.5358 -4.7562,-17.7511 l 81.41325,-140.9933 c 1.72344,-2.9847 4.56204,-5.1627 7.89132,-6.0547 3.32929,-0.8921 6.87656,-0.4251 9.86142,1.298 v 0 0 c 6.21567,3.5884 8.3451,11.5359 4.7562,17.7512 l -81.41324,140.9933 c -3.5889,6.2153 -11.53708,8.345 -17.75275,4.7566 z"
         fill-rule="evenodd"
         id="path36" /><path
         fill="#000000"
         fill-opacity="0"
         d="m 756.4035,750.8753 39.07135,30.62122 31.14795,20.59057 51.74396,30.62384 42.23486,21.12012 36.9588,14.77978 35.89984,10.56006"
         fill-rule="evenodd"
         id="path37" /><path
         stroke="#323232"
         stroke-width="11.4672"
         stroke-linejoin="round"
         stroke-linecap="butt"
         d="m 756.4035,750.8753 39.07135,30.62122 31.14795,20.59057 51.74396,30.62384 42.23486,21.12012 36.9588,14.77978 35.89984,10.56006"
         fill-rule="evenodd"
         id="path38" /><path
         fill="#323232"
         d="m 782.5817,627.1111 174.23132,-174.23138 -8.78076,-8.78076 -128.82507,128.82501 3.4212,3.4212 -44.87689,44.87683 z"
         fill-rule="evenodd"
         id="path39" /><path
         fill="#323232"
         d="m 585.72406,834.6745 181.63593,-181.63586 8.78003,8.78009 -181.63586,181.63586 z"
         fill-rule="evenodd"
         id="path40" /><path
         fill="#323232"
         d="m 404.77728,980.3094 166.47028,-166.47028 8.78009,8.78009 -166.47028,166.47028 z"
         fill-rule="evenodd"
         id="path41" /><path
         fill="#323232"
         d="m 576.8482,808.23846 46.96545,46.96545 -8.78009,8.78009 -46.96545,-46.96545 z"
         fill-rule="evenodd"
         id="path42" /><path
         fill="#323232"
         d="m 511.6521,891.4832 67.30957,-85.74695 -46.56287,91.73633 z"
         fill-rule="evenodd"
         id="path43" /><path
         fill="#323232"
         fill-opacity="0.6045"
         d="m 407.41663,980.5435 -5.28134,-44.35004 322.59073,-322.5907 24.28625,23.23261 z"
         fill-rule="evenodd"
         id="path44" /><path
         fill="#323232"
         fill-opacity="0.2955"
         d="m 265.2863,1302.5546 v 0 c -12.41371,-7.1589 -16.66827,-23.0228 -9.50284,-35.4329 l 87.55414,-151.6373 c 3.44095,-5.9595 9.1091,-10.3092 15.75748,-12.0923 6.64838,-1.7831 13.73242,-0.8534 19.69369,2.5846 v 0 0 c 12.4137,7.159 16.66825,23.0228 9.50281,35.4329 l -87.55411,151.6373 c -7.16543,12.41 -23.03747,16.6668 -35.45117,9.5077 z"
         fill-rule="evenodd"
         id="path45" /><path
         fill="#323232"
         d="m 514.1861,903.6662 v 0 c -4.32895,-4.32898 -4.32895,-11.34753 0,-15.67645 v 0 c 2.0788,-2.07886 4.89832,-3.24671 7.8382,-3.24671 2.93988,0 5.7594,1.16785 7.83819,3.24671 v 0 c 4.32892,4.32892 4.32892,11.34747 0,15.67645 v 0 c -4.32892,4.32892 -11.34747,4.32892 -15.67639,0 z"
         fill-rule="evenodd"
         id="path46" /><path
         fill="#323232"
         d="m 579.6826,781.12714 9.89996,-49.36237 51.68592,-51.68591 49.36236,-9.89996 z"
         fill-rule="evenodd"
         id="path47" /><path
         stroke="#323232"
         stroke-width="36.9108"
         stroke-miterlimit="8"
         stroke-linecap="round"
         d="m 579.6826,781.12714 9.89996,-49.36237 51.68592,-51.68591 49.36236,-9.89996 z"
         fill-rule="evenodd"
         id="path48" /><path
         fill="#282828"
         d="m 580.4123,780.5669 9.89996,-49.36237 51.68592,-51.68591 49.36236,-9.89996 z"
         fill-rule="evenodd"
         id="path49" /><path
         stroke="#282828"
         stroke-width="5.73491"
         stroke-linejoin="round"
         stroke-linecap="butt"
         d="m 580.4123,780.5669 9.89996,-49.36237 51.68592,-51.68591 49.36236,-9.89996 z"
         fill-rule="evenodd"
         id="path50" /><path
         fill="#323232"
         d="m 439.8304,980.8951 v 0 c -2.42453,-2.42456 -2.42453,-6.35553 0,-8.78009 v 0 c 1.16434,-1.16431 2.74347,-1.81842 4.39004,-1.81842 1.64661,0 3.22574,0.65411 4.39005,1.81842 v 0 c 2.42456,2.42456 2.42456,6.35553 0,8.78009 v 0 c -2.42456,2.42456 -6.35553,2.42456 -8.78009,0 z"
         fill-rule="evenodd"
         id="path51" /><path
         fill="#323232"
         fill-opacity="0.6045"
         d="m 876.781,622.0529 -23.7594,-25.87195 92.92248,-89.75638 26.9256,18.48075 z"
         fill-rule="evenodd"
         id="path52" /><path
         fill="#323232"
         d="m 740.6253,663.5564 v 0 c -2.42456,-2.4245 -2.42456,-6.35553 0,-8.78003 v 0 c 1.16431,-1.16431 2.74341,-1.81842 4.39001,-1.81842 1.64661,0 3.22571,0.65411 4.39002,1.81842 v 0 c 2.42456,2.4245 2.42456,6.35553 0,8.78003 v 0 c -2.4245,2.42456 -6.35553,2.42456 -8.78003,0 z"
         fill-rule="evenodd"
         id="path53" /></g></g></svg>
