<?xml version="1.0" encoding="UTF-8" standalone="no"?>
<svg
   version="1.1"
   viewBox="0 0 153.31407 153.31407"
   fill="none"
   stroke="none"
   stroke-linecap="square"
   stroke-miterlimit="10"
   id="svg194"
   width="153.31407"
   height="153.31407"
   xmlns="http://www.w3.org/2000/svg"
   xmlns:svg="http://www.w3.org/2000/svg">
  <defs
     id="defs194" />
  <clipPath
     id="p.0">
    <path
       d="M 0,0 H 234.63518 V 234.63518 H 0 Z"
       clip-rule="nonzero"
       id="path1" />
  </clipPath>
  <g
     clip-path="url(#p.0)"
     id="g194"
     transform="scale(0.65341467)">
    <path
       fill="#000000"
       fill-opacity="0"
       d="M 0,0 H 234.63518 V 234.63518 H 0 Z"
       fill-rule="evenodd"
       id="path2" />
    <path
       fill="#323232"
       d="m 44.32155,148.4695 c -4.166225,-4.16623 -4.197304,-10.88994 -0.06941,-15.01784 1.982284,-1.98228 4.67815,-3.08861 7.494541,-3.07559 2.816391,0.013 5.522598,1.1443 7.523292,3.145 4.166229,4.16623 4.197304,10.88994 0.06941,15.01784 -4.127891,4.12789 -10.851604,4.09682 -15.017833,-0.0694 z"
       fill-rule="evenodd"
       id="path3" />
    <path
       stroke="#323232"
       stroke-width="8.042"
       stroke-miterlimit="8"
       stroke-linecap="round"
       d="m 44.32155,148.4695 c -4.166225,-4.16623 -4.197304,-10.88994 -0.06941,-15.01784 1.982284,-1.98228 4.67815,-3.08861 7.494541,-3.07559 2.816391,0.013 5.522598,1.1443 7.523292,3.145 4.166229,4.16623 4.197304,10.88994 0.06941,15.01784 -4.127891,4.12789 -10.851604,4.09682 -15.017833,-0.0694 z"
       fill-rule="evenodd"
       id="path4" />
    <path
       fill="#323232"
       d="m 38.128036,141.12146 -0.810623,3.31206 -0.534859,4.78586 -0.213112,4.88176 0.532326,4.962 1.413673,5.77988 1.27713,5.04292 2.389279,6.27684 2.757587,4.99283 3.051911,4.45291 3.014537,3.38554 1.972275,1.93102 2.810684,2.60416 2.792748,2.17291 2.652264,1.42209 2.531051,1.10246 3.10643,0.7052 2.980499,0.27628 2.690445,-0.19851 3.266472,-0.59643 3.084298,-1.0762 2.826561,-2.03933 2.381538,-2.34799 1.941116,-2.55002 1.308625,-3.44571 0.792869,-2.88829 -0.467331,-3.33155 -2.998207,-3.19254 -4.052948,-2.6162 -3.275497,-2.10316 -4.352364,-3.30824 -3.013283,-2.27359 -1.868995,-2.04264 -1.45652,-2.48844 -1.372506,-3.03129 -1.030067,-2.61033 -0.763256,-2.6741 -0.261929,-2.31328 0.05728,-2.43087 0.305004,-1.68434 z"
       fill-rule="evenodd"
       id="path5" />
    <path
       stroke="#323232"
       stroke-width="8.042"
       stroke-miterlimit="8"
       stroke-linecap="round"
       d="m 38.128036,141.12146 -0.810623,3.31206 -0.534859,4.78586 -0.213112,4.88176 0.532326,4.962 1.413673,5.77988 1.27713,5.04292 2.389279,6.27684 2.757587,4.99283 3.051911,4.45291 3.014537,3.38554 1.972275,1.93102 2.810684,2.60416 2.792748,2.17291 2.652264,1.42209 2.531051,1.10246 3.10643,0.7052 2.980499,0.27628 2.690445,-0.19851 3.266472,-0.59643 3.084298,-1.0762 2.826561,-2.03933 2.381538,-2.34799 1.941116,-2.55002 1.308625,-3.44571 0.792869,-2.88829 -0.467331,-3.33155 -2.998207,-3.19254 -4.052948,-2.6162 -3.275497,-2.10316 -4.352364,-3.30824 -3.013283,-2.27359 -1.868995,-2.04264 -1.45652,-2.48844 -1.372506,-3.03129 -1.030067,-2.61033 -0.763256,-2.6741 -0.261929,-2.31328 0.05728,-2.43087 0.305004,-1.68434 z"
       fill-rule="evenodd"
       id="path6" />
    <path
       fill="#ffffff"
       d="m 38.128036,141.12146 -0.810623,3.31206 -0.534859,4.78586 -0.213112,4.88176 0.532326,4.962 1.413673,5.77988 1.27713,5.04292 2.389279,6.27684 2.757587,4.99283 3.051911,4.45291 3.014537,3.38554 1.972275,1.93102 2.810684,2.60416 2.792748,2.17291 2.652264,1.42209 2.531051,1.10246 3.10643,0.7052 2.980499,0.27628 2.690445,-0.19851 3.266472,-0.59643 3.084298,-1.0762 2.826561,-2.03933 2.381538,-2.34799 1.941116,-2.55002 1.308625,-3.44571 0.792869,-2.88829 -0.467331,-3.33155 -2.998207,-3.19254 -4.052948,-2.6162 -3.275497,-2.10316 -4.352364,-3.30824 -3.013283,-2.27359 -1.868995,-2.04264 -1.45652,-2.48844 -1.372506,-3.03129 -1.030067,-2.61033 -0.763256,-2.6741 -0.261929,-2.31328 0.05728,-2.43087 0.305004,-1.68434 z"
       fill-rule="evenodd"
       id="path7" />
    <path
       stroke="#ffffff"
       stroke-width="1.24934"
       stroke-linejoin="round"
       stroke-linecap="butt"
       d="m 38.128036,141.12146 -0.810623,3.31206 -0.534859,4.78586 -0.213112,4.88176 0.532326,4.962 1.413673,5.77988 1.27713,5.04292 2.389279,6.27684 2.757587,4.99283 3.051911,4.45291 3.014537,3.38554 1.972275,1.93102 2.810684,2.60416 2.792748,2.17291 2.652264,1.42209 2.531051,1.10246 3.10643,0.7052 2.980499,0.27628 2.690445,-0.19851 3.266472,-0.59643 3.084298,-1.0762 2.826561,-2.03933 2.381538,-2.34799 1.941116,-2.55002 1.308625,-3.44571 0.792869,-2.88829 -0.467331,-3.33155 -2.998207,-3.19254 -4.052948,-2.6162 -3.275497,-2.10316 -4.352364,-3.30824 -3.013283,-2.27359 -1.868995,-2.04264 -1.45652,-2.48844 -1.372506,-3.03129 -1.030067,-2.61033 -0.763256,-2.6741 -0.261929,-2.31328 0.05728,-2.43087 0.305004,-1.68434 z"
       fill-rule="evenodd"
       id="path8" />
    <path
       fill="#ffffff"
       d="m 44.10111,148.69247 c -4.166225,-4.16623 -4.197304,-10.88994 -0.06941,-15.01784 1.982284,-1.98228 4.67815,-3.08861 7.494541,-3.07559 2.816391,0.013 5.522602,1.14432 7.523292,3.145 4.166229,4.16623 4.197304,10.88994 0.06941,15.01784 -4.127895,4.12789 -10.851608,4.09682 -15.017837,-0.0694 z"
       fill-rule="evenodd"
       id="path9" />
    <path
       stroke="#ffffff"
       stroke-width="1.24934"
       stroke-linejoin="round"
       stroke-linecap="butt"
       d="m 44.10111,148.69247 c -4.166225,-4.16623 -4.197304,-10.88994 -0.06941,-15.01784 1.982284,-1.98228 4.67815,-3.08861 7.494541,-3.07559 2.816391,0.013 5.522602,1.14432 7.523292,3.145 4.166229,4.16623 4.197304,10.88994 0.06941,15.01784 -4.127895,4.12789 -10.851608,4.09682 -15.017837,-0.0694 z"
       fill-rule="evenodd"
       id="path10" />
    <path
       fill="#323232"
       d="m 39.61095,144.11766 -0.462929,3.84802 -0.295456,5.45304 0.504772,5.13592 1.14732,5.13892 1.387707,5.22004 1.786369,4.66062 2.897438,5.63086 3.181988,4.61786 3.833309,4.24319 3.794678,3.4527 3.206337,2.52318 4.408112,2.35615 4.43502,0.81056 3.12532,-0.22586 2.677033,-0.46797 2.469307,-0.95062 2.738937,-1.91064 2.359589,-2.35959 1.534706,-2.36301 1.186317,-3.39537 0.434433,-2.64351 -0.451713,-1.06697 -2.417526,-2.75952 -6.788079,-4.46285 -6.99823,-5.28828 -3.003532,-3.27762 -2.289223,-4.68234 -1.423675,-3.27027 -1.185326,-3.71507 -0.393505,-4.02885 z"
       fill-rule="evenodd"
       id="path11" />
    <path
       fill="#323232"
       d="m 64.662994,147.20387 c -2.873982,6.3896 -9.975719,9.71005 -16.770832,7.84126 -6.795116,-1.86879 -11.27972,-8.3757 -10.590443,-15.36615 z"
       fill-rule="evenodd"
       id="path12" />
    <path
       stroke="#323232"
       stroke-width="3.74803"
       stroke-linejoin="round"
       stroke-linecap="butt"
       d="m 64.662994,147.20387 c -2.873982,6.3896 -9.975719,9.71005 -16.770832,7.84126 -6.795116,-1.86879 -11.27972,-8.3757 -10.590443,-15.36615 z"
       fill-rule="evenodd"
       id="path13" />
    <path
       fill="#ffffff"
       d="m 53.464787,178.67657 c -1.020054,-1.75868 -0.428856,-3.99764 1.320473,-5.00087 0.840057,-0.48177 1.840297,-0.60829 2.780681,-0.35178 0.940384,0.25653 1.743882,0.87511 2.233727,1.71965 1.020054,1.75869 0.42886,3.99765 -1.320473,5.00087 -1.749328,1.00322 -3.994354,0.39081 -5.014408,-1.36787 z m 0.692658,-0.39723 c 0.798797,1.37721 2.554351,1.85824 3.921135,1.0744 1.366787,-0.78383 1.827232,-2.53572 1.028434,-3.91293 -0.798801,-1.37722 -2.554351,-1.85823 -3.921138,-1.07441 -1.366788,0.78385 -1.827233,2.53573 -1.028431,3.91294 z"
       fill-rule="evenodd"
       id="path14" />
    <path
       fill="#323232"
       d="m 45.634678,147.15111 c -3.307926,-3.30792 -3.33218,-8.64687 -0.05418,-11.92488 1.574154,-1.57416 3.714874,-2.45279 5.951221,-2.44264 2.236351,0.0102 4.38514,0.90829 5.973663,2.49681 3.307923,3.30794 3.332177,8.64688 0.05417,11.92489 -3.278008,3.278 -8.616959,3.25374 -11.924881,-0.0542 z"
       fill-rule="evenodd"
       id="path15" />
    <path
       stroke="#ffffff"
       stroke-width="2.49869"
       stroke-linejoin="round"
       stroke-linecap="butt"
       d="m 45.634678,147.15111 c -3.307926,-3.30792 -3.33218,-8.64687 -0.05418,-11.92488 1.574154,-1.57416 3.714874,-2.45279 5.951221,-2.44264 2.236351,0.0102 4.38514,0.90829 5.973663,2.49681 3.307923,3.30794 3.332177,8.64688 0.05417,11.92489 -3.278008,3.278 -8.616959,3.25374 -11.924881,-0.0542 z"
       fill-rule="evenodd"
       id="path16" />
    <path
       fill="#323232"
       d="m 90.696205,136.78351 c -3.423202,-3.4232 -1.929031,-10.46746 3.337318,-15.73381 5.26635,-5.26635 12.310617,-6.76052 15.733807,-3.33732 3.42321,3.4232 1.92903,10.46746 -3.33731,15.73382 -5.26635,5.26634 -12.310621,6.76051 -15.733815,3.33731 z m 1.661255,-1.66125 c 2.505707,2.50572 8.06244,1.01155 12.4113,-3.33732 4.34886,-4.34886 5.84303,-9.9056 3.33732,-12.4113 -2.50571,-2.50572 -8.06244,-1.01155 -12.411302,3.33731 -4.348861,4.34887 -5.843033,9.9056 -3.337318,12.41131 z"
       fill-rule="evenodd"
       id="path17" />
    <path
       fill="#323232"
       d="m 84.14918,137.99422 c -0.501259,-1.91331 0.614166,-3.95146 2.585899,-4.72505 1.971733,-0.77359 4.164742,-0.0335 5.084084,1.71582 l -1.801933,0.92203 c -0.440071,-0.8256 -1.52887,-1.15207 -2.5308,-0.75884 -1.001923,0.39322 -1.598168,1.38103 -1.385895,2.29602 z"
       fill-rule="evenodd"
       id="path18" />
    <path
       fill="#323232"
       d="m 80.38871,134.19307 -0.309059,-0.70476 33.984139,-35.395408 -6.76719,7.686298 -3.35077,3.56081 -3.956464,4.16582 -3.765014,4.18509 -2.348908,2.66192 -2.407631,3.03638 -2.4981,3.16666 -2.826874,5.70361 -1.104736,0.59818 -1.442627,3.22386 z"
       fill-rule="evenodd"
       id="path19" />
    <path
       stroke="#323232"
       stroke-width="8.042"
       stroke-miterlimit="8"
       stroke-linecap="round"
       d="m 80.38871,134.19307 -0.309059,-0.70476 33.984139,-35.395408 -6.76719,7.686298 -3.35077,3.56081 -3.956464,4.16582 -3.765014,4.18509 -2.348908,2.66192 -2.407631,3.03638 -2.4981,3.16666 -2.826874,5.70361 -1.104736,0.59818 -1.442627,3.22386 z"
       fill-rule="evenodd"
       id="path20" />
    <path
       fill="#000000"
       fill-opacity="0"
       d="m 102.63783,133.56557 c -1.43547,0.3759 -3.151161,-0.5018 -4.76963,-2.44 -1.618477,-1.93822 -3.007164,-4.77819 -3.860558,-7.89514 l 5.412445,-1.41734 z"
       fill-rule="evenodd"
       id="path21" />
    <path
       fill="#000000"
       fill-opacity="0"
       d="m 102.63783,133.56557 c -1.43547,0.3759 -3.151161,-0.5018 -4.76963,-2.44 -1.618477,-1.93822 -3.007164,-4.77819 -3.860558,-7.89514"
       fill-rule="evenodd"
       id="path22" />
    <path
       stroke="#323232"
       stroke-width="2.88714"
       stroke-linejoin="round"
       stroke-linecap="round"
       d="m 102.63783,133.56557 c -1.43547,0.3759 -3.151161,-0.5018 -4.76963,-2.44 -1.618477,-1.93822 -3.007164,-4.77819 -3.860558,-7.89514"
       fill-rule="evenodd"
       id="path23" />
    <path
       fill="#323232"
       d="m 61.646973,100.26001 0.616848,-10.042625 -4.913761,-4.410523 -7.380344,-3.012474 -1.217995,2.03769 6.454742,7.841415 -5.941955,4.058624 -2.496575,3.05806 0.151799,5.796003 1.226402,0.25733 1.666519,-0.9119 1.718617,-3.27447 6.519134,-1.855214 z"
       fill-rule="evenodd"
       id="path24" />
    <path
       stroke="#323232"
       stroke-width="0.624672"
       stroke-linejoin="round"
       stroke-linecap="butt"
       d="m 61.646973,100.26001 0.616848,-10.042625 -4.913761,-4.410523 -7.380344,-3.012474 -1.217995,2.03769 6.454742,7.841415 -5.941955,4.058624 -2.496575,3.05806 0.151799,5.796003 1.226402,0.25733 1.666519,-0.9119 1.718617,-3.27447 6.519134,-1.855214 z"
       fill-rule="evenodd"
       id="path25" />
    <path
       fill="#323232"
       d="m 65.76215,117.15921 c 8.684807,3.40246 14.321014,11.9032 14.052696,21.19479 l -6.491043,-0.24784 c 0.162498,-6.51363 -3.79998,-12.47682 -9.88945,-14.88273 z"
       fill-rule="evenodd"
       id="path26" />
    <path
       stroke="#323232"
       stroke-width="8.042"
       stroke-miterlimit="8"
       stroke-linecap="round"
       d="m 65.76215,117.15921 c 8.684807,3.40246 14.321014,11.9032 14.052696,21.19479 l -6.491043,-0.24784 c 0.162498,-6.51363 -3.79998,-12.47682 -9.88945,-14.88273 z"
       fill-rule="evenodd"
       id="path27" />
    <path
       fill="#323232"
       d="M 56.91055,118.04852 80.870171,94.088902 83.550492,96.769223 59.590874,120.72884 Z"
       fill-rule="evenodd"
       id="path28" />
    <path
       stroke="#323232"
       stroke-width="8.042"
       stroke-miterlimit="8"
       stroke-linecap="round"
       d="M 56.91055,118.04852 80.870171,94.088902 83.550492,96.769223 59.590874,120.72884 Z"
       fill-rule="evenodd"
       id="path29" />
    <path
       fill="#323232"
       d="m 63.381935,75.84795 v 0 c 11.006943,11.006943 11.006943,28.85272 0,39.85966 l -2.973633,2.97363 v 0 l -1.026588,-1.02658 -1.026585,-1.02659 v 0 l 2.973637,-2.97363 c 9.873009,-9.87301 9.873009,-25.880312 0,-35.753322 v 0 z"
       fill-rule="evenodd"
       id="path30" />
    <path
       stroke="#323232"
       stroke-width="8.042"
       stroke-miterlimit="8"
       stroke-linecap="round"
       d="m 63.381935,75.84795 v 0 c 11.006943,11.006943 11.006943,28.85272 0,39.85966 l -2.973633,2.97363 v 0 l -1.026588,-1.02658 -1.026585,-1.02659 v 0 l 2.973637,-2.97363 c 9.873009,-9.87301 9.873009,-25.880312 0,-35.753322 v 0 z"
       fill-rule="evenodd"
       id="path31" />
    <path
       fill="#323232"
       d="M 63.5129,75.71699 87.112944,99.317034 85.22695,101.20303 61.62691,77.602984 Z"
       fill-rule="evenodd"
       id="path32" />
    <path
       stroke="#323232"
       stroke-width="8.042"
       stroke-miterlimit="8"
       stroke-linecap="round"
       d="M 63.5129,75.71699 87.112944,99.317034 85.22695,101.20303 61.62691,77.602984 Z"
       fill-rule="evenodd"
       id="path33" />
    <path
       fill="#323232"
       d="m 76.90479,134.67691 -0.434196,-0.97026 45.987156,-47.942421 -9.1475,10.420837 -4.53311,4.824144 -5.35309,5.64329 -5.0909,5.67215 -3.17498,3.60901 -3.249809,4.1204 -2.385918,3.11269 -3.13398,4.58582 -3.136902,5.1683 -1.925522,4.39264 z"
       fill-rule="evenodd"
       id="path34" />
    <path
       stroke="#323232"
       stroke-width="8.042"
       stroke-miterlimit="8"
       stroke-linecap="round"
       d="m 76.90479,134.67691 -0.434196,-0.97026 45.987156,-47.942421 -9.1475,10.420837 -4.53311,4.824144 -5.35309,5.64329 -5.0909,5.67215 -3.17498,3.60901 -3.249809,4.1204 -2.385918,3.11269 -3.13398,4.58582 -3.136902,5.1683 -1.925522,4.39264 z"
       fill-rule="evenodd"
       id="path35" />
    <path
       fill="#323232"
       d="m 80.045235,100.13065 21.490235,-21.490227 5.88859,5.888588 -21.490237,21.490229 z"
       fill-rule="evenodd"
       id="path36" />
    <path
       stroke="#323232"
       stroke-width="8.042"
       stroke-miterlimit="8"
       stroke-linecap="round"
       d="m 80.045235,100.13065 21.490235,-21.490227 5.88859,5.888588 -21.490237,21.490229 z"
       fill-rule="evenodd"
       id="path37" />
    <path
       fill="#323232"
       d="M 81.55528,97.53426 69.102712,109.98683 68.986188,84.965168 Z"
       fill-rule="evenodd"
       id="path38" />
    <path
       stroke="#323232"
       stroke-width="8.042"
       stroke-miterlimit="8"
       stroke-linecap="round"
       d="M 81.55528,97.53426 69.102712,109.98683 68.986188,84.965168 Z"
       fill-rule="evenodd"
       id="path39" />
    <path
       fill="#323232"
       d="M 63.537415,116.42104 106.28652,73.671929 117.9571,85.342499 75.207993,128.09161 Z"
       fill-rule="evenodd"
       id="path40" />
    <path
       stroke="#323232"
       stroke-width="8.042"
       stroke-miterlimit="8"
       stroke-linecap="round"
       d="M 63.537415,116.42104 106.28652,73.671929 117.9571,85.342499 75.207993,128.09161 Z"
       fill-rule="evenodd"
       id="path41" />
    <path
       fill="#ffffff"
       d="m 62.97079,116.40928 c 10.053242,2.51957 17.034359,11.71856 16.735928,22.05285 l -6.491043,-0.24783 c 0.18074,-7.24466 -4.723969,-13.69902 -11.771992,-15.49137 z"
       fill-rule="evenodd"
       id="path42" />
    <path
       stroke="#ffffff"
       stroke-width="1.24934"
       stroke-linejoin="round"
       stroke-linecap="butt"
       d="m 62.97079,116.40928 c 10.053242,2.51957 17.034359,11.71856 16.735928,22.05285 l -6.491043,-0.24783 c 0.18074,-7.24466 -4.723969,-13.69902 -11.771992,-15.49137 z"
       fill-rule="evenodd"
       id="path43" />
    <path
       fill="#ffffff"
       d="M 56.802628,118.15644 80.762246,94.196822 85.396974,98.831549 61.437356,122.79117 Z"
       fill-rule="evenodd"
       id="path44" />
    <path
       stroke="#ffffff"
       stroke-width="1.24934"
       stroke-linejoin="round"
       stroke-linecap="butt"
       d="M 56.802628,118.15644 80.762246,94.196822 85.396974,98.831549 61.437356,122.79117 Z"
       fill-rule="evenodd"
       id="path45" />
    <path
       fill="#ffffff"
       d="m 63.273808,75.956085 v 0 c 11.006939,11.006935 11.006939,28.852715 0,39.859655 l -2.973637,2.97363 v 0 l -1.026584,-1.02658 -1.026589,-1.02658 v 0 l 2.973637,-2.97364 c 9.873009,-9.87301 9.873009,-25.880315 0,-35.753315 v 0 z"
       fill-rule="evenodd"
       id="path46" />
    <path
       stroke="#ffffff"
       stroke-width="1.24934"
       stroke-linejoin="round"
       stroke-linecap="butt"
       d="m 63.273808,75.956085 v 0 c 11.006939,11.006935 11.006939,28.852715 0,39.859655 l -2.973637,2.97363 v 0 l -1.026584,-1.02658 -1.026589,-1.02658 v 0 l 2.973637,-2.97364 c 9.873009,-9.87301 9.873009,-25.880315 0,-35.753315 v 0 z"
       fill-rule="evenodd"
       id="path47" />
    <path
       fill="#ffffff"
       d="M 63.40477,75.82512 87.004814,99.425164 85.118828,101.31115 61.51878,77.711106 Z"
       fill-rule="evenodd"
       id="path48" />
    <path
       stroke="#ffffff"
       stroke-width="1.24934"
       stroke-linejoin="round"
       stroke-linecap="butt"
       d="M 63.40477,75.82512 87.004814,99.425164 85.118828,101.31115 61.51878,77.711106 Z"
       fill-rule="evenodd"
       id="path49" />
    <path
       fill="#ffffff"
       d="m 75.7565,136.11032 -1.093948,-2.72009 45.574428,-45.551593 -8.88851,10.325127 -4.42972,4.757986 -5.23483,5.56226 -4.955855,5.61155 -3.085304,3.57518 -3.127449,4.10972 -2.289139,3.10982 -2.970596,4.60858 -2.931519,5.22349 -2.352378,3.81691 z"
       fill-rule="evenodd"
       id="path50" />
    <path
       stroke="#ffffff"
       stroke-width="1.24934"
       stroke-linejoin="round"
       stroke-linecap="butt"
       d="m 75.7565,136.11032 -1.093948,-2.72009 45.574428,-45.551593 -8.88851,10.325127 -4.42972,4.757986 -5.23483,5.56226 -4.955855,5.61155 -3.085304,3.57518 -3.127449,4.10972 -2.289139,3.10982 -2.970596,4.60858 -2.931519,5.22349 -2.352378,3.81691 z"
       fill-rule="evenodd"
       id="path51" />
    <path
       fill="#ffffff"
       d="m 79.9371,100.23878 21.49023,-21.490229 5.88859,5.888596 -21.490225,21.490223 z"
       fill-rule="evenodd"
       id="path52" />
    <path
       stroke="#ffffff"
       stroke-width="1.24934"
       stroke-linejoin="round"
       stroke-linecap="butt"
       d="m 79.9371,100.23878 21.49023,-21.490229 5.88859,5.888596 -21.490225,21.490223 z"
       fill-rule="evenodd"
       id="path53" />
    <path
       fill="#ffffff"
       d="M 81.44715,97.642395 68.994582,110.09496 68.878058,85.073303 Z"
       fill-rule="evenodd"
       id="path54" />
    <path
       stroke="#ffffff"
       stroke-width="1.24934"
       stroke-linejoin="round"
       stroke-linecap="butt"
       d="M 81.44715,97.642395 68.994582,110.09496 68.878058,85.073303 Z"
       fill-rule="evenodd"
       id="path55" />
    <path
       fill="#ffffff"
       d="M 63.54435,116.64423 106.29346,73.895115 120.23825,87.839909 77.489136,130.58902 Z"
       fill-rule="evenodd"
       id="path56" />
    <path
       stroke="#ffffff"
       stroke-width="1.24934"
       stroke-linejoin="round"
       stroke-linecap="butt"
       d="M 63.54435,116.64423 106.29346,73.895115 120.23825,87.839909 77.489136,130.58902 Z"
       fill-rule="evenodd"
       id="path57" />
    <path
       fill="#323232"
       d="M 66.98023,81.333824 79.875059,94.228645 66.313131,104.40463 Z"
       fill-rule="evenodd"
       id="path58" />
    <path
       stroke="#323232"
       stroke-width="8.042"
       stroke-miterlimit="8"
       stroke-linecap="round"
       d="M 66.98023,81.333824 79.875059,94.228645 66.313131,104.40463 Z"
       fill-rule="evenodd"
       id="path59" />
    <path
       fill="#ffffff"
       d="M 66.98023,81.333824 79.875059,94.228645 66.313131,104.40463 Z"
       fill-rule="evenodd"
       id="path60" />
    <path
       stroke="#ffffff"
       stroke-width="1.24934"
       stroke-linejoin="round"
       stroke-linecap="butt"
       d="M 66.98023,81.333824 79.875059,94.228645 66.313131,104.40463 Z"
       fill-rule="evenodd"
       id="path61" />
    <path
       fill="#323232"
       d="M 59.15316,122.79354 57.821506,121.46188 84.778586,94.504798 65.490027,75.216239 v 0 l 20.620216,20.620209 z"
       fill-rule="evenodd"
       id="path62" />
    <path
       stroke="#323232"
       stroke-width="3.74803"
       stroke-linejoin="round"
       stroke-linecap="butt"
       d="M 59.15316,122.79354 57.821506,121.46188 84.778586,94.504798 65.490027,75.216239 v 0 l 20.620216,20.620209 z"
       fill-rule="evenodd"
       id="path63" />
    <path
       fill="#ffffff"
       d="m 74.06324,94.563065 c -1.499924,-1.499931 -1.5112,-3.920517 -0.02518,-5.40654 0.713608,-0.713615 1.684128,-1.111862 2.698051,-1.10714 1.013924,0.0047 1.988198,0.412026 2.708481,1.132317 1.499932,1.499931 1.5112,3.920517 0.02518,5.40654 -1.486023,1.486023 -3.906616,1.474747 -5.40654,-0.02518 z"
       fill-rule="evenodd"
       id="path64" />
    <path
       stroke="#323232"
       stroke-width="2.49869"
       stroke-miterlimit="8"
       stroke-linecap="round"
       d="m 74.06324,94.563065 c -1.499924,-1.499931 -1.5112,-3.920517 -0.02518,-5.40654 0.713608,-0.713615 1.684128,-1.111862 2.698051,-1.10714 1.013924,0.0047 1.988198,0.412026 2.708481,1.132317 1.499932,1.499931 1.5112,3.920517 0.02518,5.40654 -1.486023,1.486023 -3.906616,1.474747 -5.40654,-0.02518 z"
       fill-rule="evenodd"
       id="path65" />
    <path
       fill="#ffffff"
       d="m 75.10431,93.521996 c -0.919586,-0.919579 -0.926498,-2.40361 -0.01544,-3.314659 0.437508,-0.437508 1.032517,-0.681671 1.654137,-0.678772 0.62162,0.0029 1.218933,0.252609 1.66053,0.694206 0.919578,0.919579 0.926491,2.403603 0.01543,3.314659 -0.911056,0.911057 -2.39508,0.904145 -3.314659,-0.01543 z"
       fill-rule="evenodd"
       id="path66" />
    <path
       stroke="#323232"
       stroke-width="2.49869"
       stroke-miterlimit="8"
       stroke-linecap="round"
       d="m 75.10431,93.521996 c -0.919586,-0.919579 -0.926498,-2.40361 -0.01544,-3.314659 0.437508,-0.437508 1.032517,-0.681671 1.654137,-0.678772 0.62162,0.0029 1.218933,0.252609 1.66053,0.694206 0.919578,0.919579 0.926491,2.403603 0.01543,3.314659 -0.911056,0.911057 -2.39508,0.904145 -3.314659,-0.01543 z"
       fill-rule="evenodd"
       id="path67" />
    <path
       fill="#000000"
       fill-opacity="0"
       d="m 74.4101,91.861465 4.689033,0.02184"
       fill-rule="evenodd"
       id="path68" />
    <path
       stroke="#323232"
       stroke-width="2.49869"
       stroke-linejoin="round"
       stroke-linecap="butt"
       d="m 74.4101,91.861465 4.689033,0.02184"
       fill-rule="evenodd"
       id="path69" />
    <path
       fill="#323232"
       d="m 86.81039,107.19973 c -0.591835,-0.59184 -0.596382,-1.54684 -0.01016,-2.13307 0.281517,-0.28152 0.664405,-0.4386 1.064438,-0.4367 0.400024,0.002 0.784423,0.16264 1.068634,0.44685 0.591835,0.59184 0.596382,1.54685 0.01016,2.13307 -0.586227,0.58623 -1.541237,0.58169 -2.133072,-0.0101 z"
       fill-rule="evenodd"
       id="path70" />
    <path
       fill="#323232"
       d="m 78.7954,122.87899 c -0.591835,-0.59183 -0.596382,-1.54684 -0.01015,-2.13307 0.281517,-0.28151 0.664406,-0.4386 1.06443,-0.43669 0.400033,0.002 0.784432,0.16264 1.068642,0.44685 0.591835,0.59184 0.596382,1.54684 0.01015,2.13307 -0.586227,0.58623 -1.541237,0.58168 -2.133072,-0.0102 z"
       fill-rule="evenodd"
       id="path71" />
    <path
       fill="#323232"
       d="m 70.95173,127.34263 c -0.591835,-0.59184 -0.596382,-1.54684 -0.01015,-2.13307 0.28151,-0.28151 0.664398,-0.4386 1.06443,-0.43669 0.400025,0.002 0.784424,0.16264 1.068634,0.44685 0.591843,0.59184 0.59639,1.54684 0.01016,2.13307 -0.586228,0.58623 -1.541237,0.58168 -2.133072,-0.0102 z"
       fill-rule="evenodd"
       id="path72" />
    <path
       fill="#323232"
       d="m 71.441895,122.86668 c -0.591843,-0.59183 -0.59639,-1.54684 -0.01016,-2.13307 0.281517,-0.28152 0.664405,-0.4386 1.06443,-0.4367 0.400032,0.002 0.784431,0.16265 1.068642,0.44686 0.591835,0.59183 0.596382,1.54684 0.01016,2.13307 -0.586227,0.58623 -1.541237,0.58168 -2.133072,-0.0102 z"
       fill-rule="evenodd"
       id="path73" />
    <path
       fill="#ffffff"
       d="m 104.74047,83.539795 c -0.91958,-0.919579 -0.92649,-2.403603 -0.0154,-3.314659 0.4375,-0.437508 1.03251,-0.681671 1.65413,-0.678772 0.62162,0.0029 1.21893,0.252609 1.66052,0.694206 0.91959,0.919579 0.9265,2.403603 0.0155,3.314659 -0.91106,0.911057 -2.39508,0.904145 -3.31467,-0.01543 z"
       fill-rule="evenodd"
       id="path74" />
    <path
       stroke="#323232"
       stroke-width="2.49869"
       stroke-miterlimit="8"
       stroke-linecap="round"
       d="m 104.74047,83.539795 c -0.91958,-0.919579 -0.92649,-2.403603 -0.0154,-3.314659 0.4375,-0.437508 1.03251,-0.681671 1.65413,-0.678772 0.62162,0.0029 1.21893,0.252609 1.66052,0.694206 0.91959,0.919579 0.9265,2.403603 0.0155,3.314659 -0.91106,0.911057 -2.39508,0.904145 -3.31467,-0.01543 z"
       fill-rule="evenodd"
       id="path75" />
    <path
       fill="#000000"
       fill-opacity="0"
       d="m 104.04627,81.879265 4.68903,0.02184"
       fill-rule="evenodd"
       id="path76" />
    <path
       stroke="#323232"
       stroke-width="2.49869"
       stroke-linejoin="round"
       stroke-linecap="butt"
       d="m 104.04627,81.879265 4.68903,0.02184"
       fill-rule="evenodd"
       id="path77" />
    <path
       fill="#323232"
       fill-opacity="0.6045"
       d="m 88.05597,90.86939 2.583389,-2.583382 4.635193,4.635193 -2.583381,2.58339 z"
       fill-rule="evenodd"
       id="path78" />
    <path
       fill="#323232"
       fill-opacity="0.6045"
       d="m 91.80875,87.116615 2.583389,-2.583389 4.635193,4.6352 -2.583381,2.583389 z"
       fill-rule="evenodd"
       id="path79" />
    <path
       fill="#323232"
       fill-opacity="0.6045"
       d="m 95.56132,83.364044 2.583389,-2.583382 4.635191,4.635193 -2.58338,2.58339 z"
       fill-rule="evenodd"
       id="path80" />
    <path
       fill="#323232"
       d="m 96.73299,38.402695 14.12228,-14.122286 13.94622,13.946222 -14.12228,14.122284 z"
       fill-rule="evenodd"
       id="path81" />
    <path
       stroke="#323232"
       stroke-width="8.042"
       stroke-miterlimit="8"
       stroke-linecap="round"
       d="m 96.73299,38.402695 14.12228,-14.122286 13.94622,13.946222 -14.12228,14.122284 z"
       fill-rule="evenodd"
       id="path82" />
    <path
       fill="#323232"
       d="M 68.58131,65.4104 86.631153,47.360561 101.7184,62.447807 83.668552,80.49765 Z"
       fill-rule="evenodd"
       id="path83" />
    <path
       stroke="#323232"
       stroke-width="8.042"
       stroke-miterlimit="8"
       stroke-linecap="round"
       d="M 68.58131,65.4104 86.631153,47.360561 101.7184,62.447807 83.668552,80.49765 Z"
       fill-rule="evenodd"
       id="path84" />
    <path
       fill="#323232"
       d="m 86.49423,49.833546 14.12228,-14.12228 12.75103,12.751022 -14.122288,14.122284 z"
       fill-rule="evenodd"
       id="path85" />
    <path
       stroke="#323232"
       stroke-width="8.042"
       stroke-miterlimit="8"
       stroke-linecap="round"
       d="m 86.49423,49.833546 14.12228,-14.12228 12.75103,12.751022 -14.122288,14.122284 z"
       fill-rule="evenodd"
       id="path86" />
    <path
       fill="#ffffff"
       d="M 68.58131,65.4104 86.631153,47.360561 101.7184,62.447807 83.668552,80.49765 Z"
       fill-rule="evenodd"
       id="path87" />
    <path
       stroke="#ffffff"
       stroke-width="1.24934"
       stroke-linejoin="round"
       stroke-linecap="butt"
       d="M 68.58131,65.4104 86.631153,47.360561 101.7184,62.447807 83.668552,80.49765 Z"
       fill-rule="evenodd"
       id="path88" />
    <path
       fill="#323232"
       fill-opacity="0.6045"
       d="m 71.04193,69.467834 4.696144,-4.696136 5.430862,5.430862 -4.696144,4.696144 z"
       fill-rule="evenodd"
       id="path89" />
    <path
       fill="#323232"
       d="m 134.91853,33.582336 -3.38838,0.635059 -16.66887,-16.668865 0.63506,-3.388385 z"
       fill-rule="evenodd"
       id="path90" />
    <path
       stroke="#323232"
       stroke-width="8.042"
       stroke-miterlimit="8"
       stroke-linecap="round"
       d="m 134.91853,33.582336 -3.38838,0.635059 -16.66887,-16.668865 0.63506,-3.388385 z"
       fill-rule="evenodd"
       id="path91" />
    <path
       fill="#323232"
       d="m 141.81082,35.63377 c -3.52202,3.522011 -12.72728,0.02705 -20.56054,-7.806215 -7.83327,-7.833264 -11.32823,-17.03853 -7.80622,-20.5605403 8.24498,10.3707033 17.99605,20.1217753 28.36676,28.3667553 z"
       fill-rule="evenodd"
       id="path92" />
    <path
       fill="#323232"
       d="m 126.82374,22.25494 c -7.83326,-7.833264 -13.82423,-14.542524 -13.3812,-14.985554 0.21275,-0.21275 1.9111,1.0775294 4.72144,3.586993 2.81033,2.509462 6.50244,6.032546 10.26411,9.794211 7.83326,7.833263 13.82423,14.542524 13.38121,14.985552 -0.21276,0.212749 -1.91111,-1.07753 -4.72144,-3.586991 -2.81035,-2.509464 -6.50246,-6.032547 -10.26412,-9.794211 z"
       fill-rule="evenodd"
       id="path93" />
    <path
       fill="#ffffff"
       d="m 86.49423,49.833546 14.12228,-14.12228 12.75103,12.751022 -14.122288,14.122284 z"
       fill-rule="evenodd"
       id="path94" />
    <path
       stroke="#ffffff"
       stroke-width="1.24934"
       stroke-linejoin="round"
       stroke-linecap="butt"
       d="m 86.49423,49.833546 14.12228,-14.12228 12.75103,12.751022 -14.122288,14.122284 z"
       fill-rule="evenodd"
       id="path95" />
    <path
       fill="#ffffff"
       d="m 96.73299,38.402695 14.12228,-14.122286 13.94622,13.946222 -14.12228,14.122284 z"
       fill-rule="evenodd"
       id="path96" />
    <path
       stroke="#ffffff"
       stroke-width="1.24934"
       stroke-linejoin="round"
       stroke-linecap="butt"
       d="m 96.73299,38.402695 14.12228,-14.122286 13.94622,13.946222 -14.12228,14.122284 z"
       fill-rule="evenodd"
       id="path97" />
    <path
       fill="#323232"
       d="m 82.64045,66.439804 c -0.87513,-0.87513 -0.87513,-2.293999 0,-3.169136 L 108.691,37.220119 c 0.42025,-0.420254 0.99024,-0.656349 1.58457,-0.656349 0.59433,0 1.16431,0.236095 1.58457,0.656349 v 0 c 0.87513,0.87513 0.87513,2.293999 0,3.169132 L 85.809586,66.439803 c -0.875137,0.87513 -2.294006,0.87513 -3.169136,10e-7 z"
       fill-rule="evenodd"
       id="path98" />
    <path
       fill="#323232"
       d="m 95.825485,167.39601 c -4.166229,-4.16623 -4.197304,-10.88995 -0.06941,-15.01784 1.982284,-1.98228 4.678155,-3.08861 7.494545,-3.07559 2.81639,0.013 5.5226,1.1443 7.52329,3.145 4.16623,4.16622 4.1973,10.88994 0.0694,15.01783 -4.1279,4.1279 -10.851604,4.09681 -15.017833,-0.0694 z"
       fill-rule="evenodd"
       id="path99" />
    <path
       stroke="#323232"
       stroke-width="8.042"
       stroke-miterlimit="8"
       stroke-linecap="round"
       d="m 95.825485,167.39601 c -4.166229,-4.16623 -4.197304,-10.88995 -0.06941,-15.01784 1.982284,-1.98228 4.678155,-3.08861 7.494545,-3.07559 2.81639,0.013 5.5226,1.1443 7.52329,3.145 4.16623,4.16622 4.1973,10.88994 0.0694,15.01783 -4.1279,4.1279 -10.851604,4.09681 -15.017833,-0.0694 z"
       fill-rule="evenodd"
       id="path100" />
    <path
       fill="#323232"
       d="m 89.63197,160.04796 -0.810623,3.31207 -0.534859,4.78586 -0.213112,4.88176 0.532326,4.96201 1.413673,5.77986 1.27713,5.04294 2.389275,6.27684 2.757591,4.99282 3.051911,4.45292 3.014538,3.38554 1.97228,1.93101 2.81067,2.60416 2.79275,2.17291 2.65227,1.42208 2.53105,1.10246 3.10643,0.70521 2.9805,0.27627 2.69045,-0.19849 3.26647,-0.59645 3.08429,-1.0762 2.82656,-2.03933 2.38154,-2.34797 1.94112,-2.55002 1.30862,-3.44573 0.79287,-2.88827 -0.46733,-3.33156 -2.9982,-3.19253 -4.05295,-2.6162 -3.2755,-2.10318 -4.35236,-3.30824 -3.01329,-2.27358 -1.86899,-2.04263 -1.45652,-2.48845 -1.37251,-3.03128 -1.03006,-2.61034 -0.76326,-2.6741 -0.26193,-2.31328 0.0573,-2.43088 0.305,-1.68434 z"
       fill-rule="evenodd"
       id="path101" />
    <path
       stroke="#323232"
       stroke-width="8.042"
       stroke-miterlimit="8"
       stroke-linecap="round"
       d="m 89.63197,160.04796 -0.810623,3.31207 -0.534859,4.78586 -0.213112,4.88176 0.532326,4.96201 1.413673,5.77986 1.27713,5.04294 2.389275,6.27684 2.757591,4.99282 3.051911,4.45292 3.014538,3.38554 1.97228,1.93101 2.81067,2.60416 2.79275,2.17291 2.65227,1.42208 2.53105,1.10246 3.10643,0.70521 2.9805,0.27627 2.69045,-0.19849 3.26647,-0.59645 3.08429,-1.0762 2.82656,-2.03933 2.38154,-2.34797 1.94112,-2.55002 1.30862,-3.44573 0.79287,-2.88827 -0.46733,-3.33156 -2.9982,-3.19253 -4.05295,-2.6162 -3.2755,-2.10318 -4.35236,-3.30824 -3.01329,-2.27358 -1.86899,-2.04263 -1.45652,-2.48845 -1.37251,-3.03128 -1.03006,-2.61034 -0.76326,-2.6741 -0.26193,-2.31328 0.0573,-2.43088 0.305,-1.68434 z"
       fill-rule="evenodd"
       id="path102" />
    <path
       fill="#ffffff"
       d="m 89.63197,160.04796 -0.810623,3.31207 -0.534859,4.78586 -0.213112,4.88176 0.532326,4.96201 1.413673,5.77986 1.27713,5.04294 2.389275,6.27684 2.757591,4.99282 3.051911,4.45292 3.014538,3.38554 1.97228,1.93101 2.81067,2.60416 2.79275,2.17291 2.65227,1.42208 2.53105,1.10246 3.10643,0.70521 2.9805,0.27627 2.69045,-0.19849 3.26647,-0.59645 3.08429,-1.0762 2.82656,-2.03933 2.38154,-2.34797 1.94112,-2.55002 1.30862,-3.44573 0.79287,-2.88827 -0.46733,-3.33156 -2.9982,-3.19253 -4.05295,-2.6162 -3.2755,-2.10318 -4.35236,-3.30824 -3.01329,-2.27358 -1.86899,-2.04263 -1.45652,-2.48845 -1.37251,-3.03128 -1.03006,-2.61034 -0.76326,-2.6741 -0.26193,-2.31328 0.0573,-2.43088 0.305,-1.68434 z"
       fill-rule="evenodd"
       id="path103" />
    <path
       stroke="#ffffff"
       stroke-width="1.24934"
       stroke-linejoin="round"
       stroke-linecap="butt"
       d="m 89.63197,160.04796 -0.810623,3.31207 -0.534859,4.78586 -0.213112,4.88176 0.532326,4.96201 1.413673,5.77986 1.27713,5.04294 2.389275,6.27684 2.757591,4.99282 3.051911,4.45292 3.014538,3.38554 1.97228,1.93101 2.81067,2.60416 2.79275,2.17291 2.65227,1.42208 2.53105,1.10246 3.10643,0.70521 2.9805,0.27627 2.69045,-0.19849 3.26647,-0.59645 3.08429,-1.0762 2.82656,-2.03933 2.38154,-2.34797 1.94112,-2.55002 1.30862,-3.44573 0.79287,-2.88827 -0.46733,-3.33156 -2.9982,-3.19253 -4.05295,-2.6162 -3.2755,-2.10318 -4.35236,-3.30824 -3.01329,-2.27358 -1.86899,-2.04263 -1.45652,-2.48845 -1.37251,-3.03128 -1.03006,-2.61034 -0.76326,-2.6741 -0.26193,-2.31328 0.0573,-2.43088 0.305,-1.68434 z"
       fill-rule="evenodd"
       id="path104" />
    <path
       fill="#ffffff"
       d="m 95.60505,167.61899 c -4.166229,-4.16623 -4.197304,-10.88994 -0.06941,-15.01784 1.982284,-1.98228 4.67815,-3.08861 7.49454,-3.07559 2.81639,0.013 5.5226,1.1443 7.5233,3.145 4.16622,4.16623 4.1973,10.88994 0.0694,15.01783 -4.12789,4.1279 -10.851606,4.09683 -15.017828,-0.0694 z"
       fill-rule="evenodd"
       id="path105" />
    <path
       stroke="#ffffff"
       stroke-width="1.24934"
       stroke-linejoin="round"
       stroke-linecap="butt"
       d="m 95.60505,167.61899 c -4.166229,-4.16623 -4.197304,-10.88994 -0.06941,-15.01784 1.982284,-1.98228 4.67815,-3.08861 7.49454,-3.07559 2.81639,0.013 5.5226,1.1443 7.5233,3.145 4.16622,4.16623 4.1973,10.88994 0.0694,15.01783 -4.12789,4.1279 -10.851606,4.09683 -15.017828,-0.0694 z"
       fill-rule="evenodd"
       id="path106" />
    <path
       fill="#323232"
       d="m 91.11489,163.04416 -0.462936,3.84802 -0.295449,5.45305 0.504769,5.13593 1.147323,5.13891 1.387703,5.22003 1.78637,4.66063 2.897438,5.63086 3.181982,4.61786 3.83331,4.2432 3.79468,3.45268 3.20634,2.52319 4.40811,2.35616 4.43502,0.81056 3.12532,-0.22588 2.67703,-0.46795 2.46931,-0.95063 2.73894,-1.91065 2.35959,-2.35958 1.53471,-2.363 1.18631,-3.39539 0.43443,-2.64349 -0.4517,-1.06698 -2.41754,-2.75952 -6.78807,-4.46286 -6.99823,-5.28827 -3.00354,-3.27763 -2.28922,-4.68233 -1.42367,-3.27026 -1.18533,-3.71507 -0.39351,-4.02886 z"
       fill-rule="evenodd"
       id="path107" />
    <path
       fill="#323232"
       d="m 116.16693,166.13039 c -2.87399,6.3896 -9.97572,9.71005 -16.770836,7.84126 -6.795113,-1.86879 -11.279717,-8.3757 -10.590439,-15.36615 z"
       fill-rule="evenodd"
       id="path108" />
    <path
       stroke="#323232"
       stroke-width="3.74803"
       stroke-linejoin="round"
       stroke-linecap="butt"
       d="m 116.16693,166.13039 c -2.87399,6.3896 -9.97572,9.71005 -16.770836,7.84126 -6.795113,-1.86879 -11.279717,-8.3757 -10.590439,-15.36615 z"
       fill-rule="evenodd"
       id="path109" />
    <path
       fill="#ffffff"
       d="m 104.96873,197.60309 c -1.02006,-1.75868 -0.42886,-3.99765 1.32047,-5.00087 0.84006,-0.48177 1.8403,-0.60831 2.78068,-0.35178 0.94038,0.25653 1.74388,0.87511 2.23373,1.71965 1.02005,1.75869 0.42885,3.99765 -1.32048,5.00087 -1.74932,1.00322 -3.99435,0.39081 -5.0144,-1.36787 z m 0.69265,-0.39723 c 0.7988,1.37721 2.55435,1.85823 3.92114,1.0744 1.36679,-0.78384 1.82723,-2.53572 1.02843,-3.91293 -0.7988,-1.37722 -2.55435,-1.85825 -3.92114,-1.07441 -1.36678,0.78385 -1.82723,2.53573 -1.02843,3.91294 z"
       fill-rule="evenodd"
       id="path110" />
    <path
       fill="#323232"
       d="m 97.13861,166.07762 c -3.307922,-3.30792 -3.332176,-8.64688 -0.05417,-11.92488 1.57415,-1.57416 3.71487,-2.45281 5.95122,-2.44264 2.23635,0.0102 4.38514,0.90829 5.97366,2.49681 3.30792,3.30792 3.33218,8.64688 0.0542,11.92488 -3.278,3.27801 -8.61695,3.25375 -11.924881,-0.0542 z"
       fill-rule="evenodd"
       id="path111" />
    <path
       stroke="#ffffff"
       stroke-width="2.49869"
       stroke-linejoin="round"
       stroke-linecap="butt"
       d="m 97.13861,166.07762 c -3.307922,-3.30792 -3.332176,-8.64688 -0.05417,-11.92488 1.57415,-1.57416 3.71487,-2.45281 5.95122,-2.44264 2.23635,0.0102 4.38514,0.90829 5.97366,2.49681 3.30792,3.30792 3.33218,8.64688 0.0542,11.92488 -3.278,3.27801 -8.61695,3.25375 -11.924881,-0.0542 z"
       fill-rule="evenodd"
       id="path112" />
    <path
       fill="#323232"
       d="m 142.20013,155.71002 c -3.42319,-3.4232 -1.92902,-10.46747 3.33733,-15.73381 5.26634,-5.26636 12.3106,-6.76053 15.73381,-3.33733 3.4232,3.42321 1.92903,10.46747 -3.33731,15.73381 -5.26636,5.26636 -12.31063,6.76053 -15.73383,3.33733 z m 1.66125,-1.66125 c 2.50573,2.5057 8.06246,1.01153 12.41132,-3.33733 4.34886,-4.34886 5.84303,-9.90559 3.33731,-12.4113 -2.50571,-2.50571 -8.06244,-1.01154 -12.4113,3.33732 -4.34886,4.34887 -5.84303,9.9056 -3.33733,12.41131 z"
       fill-rule="evenodd"
       id="path113" />
    <path
       fill="#323232"
       d="m 135.65312,156.92073 c -0.50127,-1.91333 0.61415,-3.95146 2.58589,-4.72505 1.97174,-0.77359 4.16475,-0.0335 5.08409,1.7158 l -1.80194,0.92205 c -0.44006,-0.8256 -1.52887,-1.15207 -2.53079,-0.75884 -1.00192,0.39322 -1.59818,1.38101 -1.3859,2.29602 z"
       fill-rule="evenodd"
       id="path114" />
    <path
       fill="#323232"
       d="m 131.89265,153.11958 -0.30907,-0.70477 33.98415,-35.3954 -6.7672,7.6863 -3.35077,3.5608 -3.95646,4.16583 -3.76502,4.18509 -2.34891,2.66191 -2.40763,3.03639 -2.4981,3.16666 -2.82687,5.70361 -1.10474,0.59816 -1.44262,3.22388 z"
       fill-rule="evenodd"
       id="path115" />
    <path
       stroke="#323232"
       stroke-width="8.042"
       stroke-miterlimit="8"
       stroke-linecap="round"
       d="m 131.89265,153.11958 -0.30907,-0.70477 33.98415,-35.3954 -6.7672,7.6863 -3.35077,3.5608 -3.95646,4.16583 -3.76502,4.18509 -2.34891,2.66191 -2.40763,3.03639 -2.4981,3.16666 -2.82687,5.70361 -1.10474,0.59816 -1.44262,3.22388 z"
       fill-rule="evenodd"
       id="path116" />
    <path
       fill="#000000"
       fill-opacity="0"
       d="m 154.14177,152.49207 c -1.43547,0.37592 -3.15115,-0.50179 -4.76964,-2.44 -1.61847,-1.9382 -3.00715,-4.77817 -3.86055,-7.89513 l 5.41245,-1.41734 z"
       fill-rule="evenodd"
       id="path117" />
    <path
       fill="#000000"
       fill-opacity="0"
       d="m 154.14177,152.49207 c -1.43547,0.37592 -3.15115,-0.50179 -4.76964,-2.44 -1.61847,-1.9382 -3.00715,-4.77817 -3.86055,-7.89513"
       fill-rule="evenodd"
       id="path118" />
    <path
       stroke="#323232"
       stroke-width="2.88714"
       stroke-linejoin="round"
       stroke-linecap="round"
       d="m 154.14177,152.49207 c -1.43547,0.37592 -3.15115,-0.50179 -4.76964,-2.44 -1.61847,-1.9382 -3.00715,-4.77817 -3.86055,-7.89513"
       fill-rule="evenodd"
       id="path119" />
    <path
       fill="#323232"
       d="m 113.15091,119.18652 0.61685,-10.04263 -4.91376,-4.41051 -7.38035,-3.01249 -1.218,2.03769 6.45475,7.84143 -5.94196,4.05861 -2.496566,3.05806 0.151795,5.79601 1.226402,0.25734 1.666519,-0.91191 1.71862,-3.27447 6.51913,-1.85522 z"
       fill-rule="evenodd"
       id="path120" />
    <path
       stroke="#323232"
       stroke-width="0.624672"
       stroke-linejoin="round"
       stroke-linecap="butt"
       d="m 113.15091,119.18652 0.61685,-10.04263 -4.91376,-4.41051 -7.38035,-3.01249 -1.218,2.03769 6.45475,7.84143 -5.94196,4.05861 -2.496566,3.05806 0.151795,5.79601 1.226402,0.25734 1.666519,-0.91191 1.71862,-3.27447 6.51913,-1.85522 z"
       fill-rule="evenodd"
       id="path121" />
    <path
       fill="#323232"
       d="m 117.26609,136.08572 c 8.68481,3.40245 14.32102,11.90318 14.0527,21.19479 l -6.49105,-0.24784 c 0.1625,-6.51363 -3.79998,-12.47683 -9.88945,-14.88274 z"
       fill-rule="evenodd"
       id="path122" />
    <path
       stroke="#323232"
       stroke-width="8.042"
       stroke-miterlimit="8"
       stroke-linecap="round"
       d="m 117.26609,136.08572 c 8.68481,3.40245 14.32102,11.90318 14.0527,21.19479 l -6.49105,-0.24784 c 0.1625,-6.51363 -3.79998,-12.47683 -9.88945,-14.88274 z"
       fill-rule="evenodd"
       id="path123" />
    <path
       fill="#323232"
       d="m 108.41449,136.97504 23.95961,-23.95962 2.68033,2.68032 -23.95962,23.95961 z"
       fill-rule="evenodd"
       id="path124" />
    <path
       stroke="#323232"
       stroke-width="8.042"
       stroke-miterlimit="8"
       stroke-linecap="round"
       d="m 108.41449,136.97504 23.95961,-23.95962 2.68033,2.68032 -23.95962,23.95961 z"
       fill-rule="evenodd"
       id="path125" />
    <path
       fill="#323232"
       d="m 114.88587,94.77446 v 0 c 11.00694,11.00694 11.00694,28.85272 0,39.85966 l -2.97363,2.97364 v 0 l -1.02659,-1.02658 -1.02658,-1.0266 v 0 l 2.97363,-2.97363 c 9.87301,-9.87301 9.87301,-25.88031 0,-35.753322 v 0 z"
       fill-rule="evenodd"
       id="path126" />
    <path
       stroke="#323232"
       stroke-width="8.042"
       stroke-miterlimit="8"
       stroke-linecap="round"
       d="m 114.88587,94.77446 v 0 c 11.00694,11.00694 11.00694,28.85272 0,39.85966 l -2.97363,2.97364 v 0 l -1.02659,-1.02658 -1.02658,-1.0266 v 0 l 2.97363,-2.97363 c 9.87301,-9.87301 9.87301,-25.88031 0,-35.753322 v 0 z"
       fill-rule="evenodd"
       id="path127" />
    <path
       fill="#323232"
       d="m 115.01684,94.64349 23.60004,23.60004 -1.88598,1.886 -23.60005,-23.600046 z"
       fill-rule="evenodd"
       id="path128" />
    <path
       stroke="#323232"
       stroke-width="8.042"
       stroke-miterlimit="8"
       stroke-linecap="round"
       d="m 115.01684,94.64349 23.60004,23.60004 -1.88598,1.886 -23.60005,-23.600046 z"
       fill-rule="evenodd"
       id="path129" />
    <path
       fill="#323232"
       d="m 128.40874,153.60341 -0.4342,-0.97026 45.98716,-47.94241 -9.14752,10.42083 -4.5331,4.82415 -5.35308,5.64329 -5.09092,5.67215 -3.17497,3.60901 -3.24982,4.12041 -2.38591,3.11268 -3.13397,4.58582 -3.1369,5.16829 -1.92554,4.39265 z"
       fill-rule="evenodd"
       id="path130" />
    <path
       stroke="#323232"
       stroke-width="8.042"
       stroke-miterlimit="8"
       stroke-linecap="round"
       d="m 128.40874,153.60341 -0.4342,-0.97026 45.98716,-47.94241 -9.14752,10.42083 -4.5331,4.82415 -5.35308,5.64329 -5.09092,5.67215 -3.17497,3.60901 -3.24982,4.12041 -2.38591,3.11268 -3.13397,4.58582 -3.1369,5.16829 -1.92554,4.39265 z"
       fill-rule="evenodd"
       id="path131" />
    <path
       fill="#323232"
       d="m 131.54918,119.05716 21.49022,-21.490227 5.8886,5.888587 -21.49024,21.49023 z"
       fill-rule="evenodd"
       id="path132" />
    <path
       stroke="#323232"
       stroke-width="8.042"
       stroke-miterlimit="8"
       stroke-linecap="round"
       d="m 131.54918,119.05716 21.49022,-21.490227 5.8886,5.888587 -21.49024,21.49023 z"
       fill-rule="evenodd"
       id="path133" />
    <path
       fill="#323232"
       d="m 133.05922,116.46078 -12.45257,12.45257 -0.11652,-25.02166 z"
       fill-rule="evenodd"
       id="path134" />
    <path
       stroke="#323232"
       stroke-width="8.042"
       stroke-miterlimit="8"
       stroke-linecap="round"
       d="m 133.05922,116.46078 -12.45257,12.45257 -0.11652,-25.02166 z"
       fill-rule="evenodd"
       id="path135" />
    <path
       fill="#323232"
       d="m 115.04135,135.34755 42.74911,-42.749115 11.67057,11.670575 -42.7491,42.74912 z"
       fill-rule="evenodd"
       id="path136" />
    <path
       stroke="#323232"
       stroke-width="8.042"
       stroke-miterlimit="8"
       stroke-linecap="round"
       d="m 115.04135,135.34755 42.74911,-42.749115 11.67057,11.670575 -42.7491,42.74912 z"
       fill-rule="evenodd"
       id="path137" />
    <path
       fill="#ffffff"
       d="m 114.47472,135.33578 c 10.05325,2.51958 17.03437,11.71857 16.73593,22.05286 l -6.49104,-0.24784 c 0.18074,-7.24466 -4.72397,-13.69902 -11.77199,-15.49136 z"
       fill-rule="evenodd"
       id="path138" />
    <path
       stroke="#ffffff"
       stroke-width="1.24934"
       stroke-linejoin="round"
       stroke-linecap="butt"
       d="m 114.47472,135.33578 c 10.05325,2.51958 17.03437,11.71857 16.73593,22.05286 l -6.49104,-0.24784 c 0.18074,-7.24466 -4.72397,-13.69902 -11.77199,-15.49136 z"
       fill-rule="evenodd"
       id="path139" />
    <path
       fill="#ffffff"
       d="m 108.30656,137.08295 23.95963,-23.95961 4.63472,4.63472 -23.95962,23.95963 z"
       fill-rule="evenodd"
       id="path140" />
    <path
       stroke="#ffffff"
       stroke-width="1.24934"
       stroke-linejoin="round"
       stroke-linecap="butt"
       d="m 108.30656,137.08295 23.95963,-23.95961 4.63472,4.63472 -23.95962,23.95963 z"
       fill-rule="evenodd"
       id="path141" />
    <path
       fill="#ffffff"
       d="m 114.77774,94.88259 v 0 c 11.00694,11.00694 11.00694,28.85271 0,39.85966 l -2.97363,2.97363 v 0 l -1.02659,-1.02658 -1.02658,-1.02658 v 0 l 2.97363,-2.97365 c 9.87301,-9.873 9.87301,-25.8803 0,-35.75331 v 0 z"
       fill-rule="evenodd"
       id="path142" />
    <path
       stroke="#ffffff"
       stroke-width="1.24934"
       stroke-linejoin="round"
       stroke-linecap="butt"
       d="m 114.77774,94.88259 v 0 c 11.00694,11.00694 11.00694,28.85271 0,39.85966 l -2.97363,2.97363 v 0 l -1.02659,-1.02658 -1.02658,-1.02658 v 0 l 2.97363,-2.97365 c 9.87301,-9.873 9.87301,-25.8803 0,-35.75331 v 0 z"
       fill-rule="evenodd"
       id="path143" />
    <path
       fill="#ffffff"
       d="m 114.90871,94.751625 23.60005,23.600045 -1.886,1.88599 -23.60004,-23.600041 z"
       fill-rule="evenodd"
       id="path144" />
    <path
       stroke="#ffffff"
       stroke-width="1.24934"
       stroke-linejoin="round"
       stroke-linecap="butt"
       d="m 114.90871,94.751625 23.60005,23.600045 -1.886,1.88599 -23.60004,-23.600041 z"
       fill-rule="evenodd"
       id="path145" />
    <path
       fill="#ffffff"
       d="m 127.26044,155.03683 -1.09395,-2.72009 45.57443,-45.55159 -8.88852,10.32512 -4.42971,4.75798 -5.23482,5.56226 -4.95586,5.61155 -3.08531,3.57518 -3.12744,4.10973 -2.28914,3.10981 -2.9706,4.60857 -2.93153,5.22351 -2.35237,3.81691 z"
       fill-rule="evenodd"
       id="path146" />
    <path
       stroke="#ffffff"
       stroke-width="1.24934"
       stroke-linejoin="round"
       stroke-linecap="butt"
       d="m 127.26044,155.03683 -1.09395,-2.72009 45.57443,-45.55159 -8.88852,10.32512 -4.42971,4.75798 -5.23482,5.56226 -4.95586,5.61155 -3.08531,3.57518 -3.12744,4.10973 -2.28914,3.10981 -2.9706,4.60857 -2.93153,5.22351 -2.35237,3.81691 z"
       fill-rule="evenodd"
       id="path147" />
    <path
       fill="#ffffff"
       d="m 131.44104,119.16529 21.49023,-21.490227 5.88858,5.888587 -21.49022,21.49023 z"
       fill-rule="evenodd"
       id="path148" />
    <path
       stroke="#ffffff"
       stroke-width="1.24934"
       stroke-linejoin="round"
       stroke-linecap="butt"
       d="m 131.44104,119.16529 21.49023,-21.490227 5.88858,5.888587 -21.49022,21.49023 z"
       fill-rule="evenodd"
       id="path149" />
    <path
       fill="#ffffff"
       d="M 132.95108,116.56891 120.49852,129.02147 120.382,103.99982 Z"
       fill-rule="evenodd"
       id="path150" />
    <path
       stroke="#ffffff"
       stroke-width="1.24934"
       stroke-linejoin="round"
       stroke-linecap="butt"
       d="M 132.95108,116.56891 120.49852,129.02147 120.382,103.99982 Z"
       fill-rule="evenodd"
       id="path151" />
    <path
       fill="#ffffff"
       d="m 115.04829,135.57074 42.74911,-42.749107 13.94479,13.944787 -42.74911,42.74911 z"
       fill-rule="evenodd"
       id="path152" />
    <path
       stroke="#ffffff"
       stroke-width="1.24934"
       stroke-linejoin="round"
       stroke-linecap="butt"
       d="m 115.04829,135.57074 42.74911,-42.749107 13.94479,13.944787 -42.74911,42.74911 z"
       fill-rule="evenodd"
       id="path153" />
    <path
       fill="#323232"
       d="m 118.48417,100.26033 12.89483,12.89483 -13.56193,10.17598 z"
       fill-rule="evenodd"
       id="path154" />
    <path
       stroke="#323232"
       stroke-width="8.042"
       stroke-miterlimit="8"
       stroke-linecap="round"
       d="m 118.48417,100.26033 12.89483,12.89483 -13.56193,10.17598 z"
       fill-rule="evenodd"
       id="path155" />
    <path
       fill="#ffffff"
       d="m 118.48417,100.26033 12.89483,12.89483 -13.56193,10.17598 z"
       fill-rule="evenodd"
       id="path156" />
    <path
       stroke="#ffffff"
       stroke-width="1.24934"
       stroke-linejoin="round"
       stroke-linecap="butt"
       d="m 118.48417,100.26033 12.89483,12.89483 -13.56193,10.17598 z"
       fill-rule="evenodd"
       id="path157" />
    <path
       fill="#323232"
       d="m 110.6571,141.72005 -1.33166,-1.33165 26.95709,-26.95709 -19.28856,-19.288561 v 0 l 20.62021,20.620221 z"
       fill-rule="evenodd"
       id="path158" />
    <path
       stroke="#323232"
       stroke-width="3.74803"
       stroke-linejoin="round"
       stroke-linecap="butt"
       d="m 110.6571,141.72005 -1.33166,-1.33165 26.95709,-26.95709 -19.28856,-19.288561 v 0 l 20.62021,20.620221 z"
       fill-rule="evenodd"
       id="path159" />
    <path
       fill="#ffffff"
       d="m 125.56718,113.48957 c -1.49992,-1.49992 -1.5112,-3.92052 -0.0252,-5.40654 0.71361,-0.71361 1.68413,-1.11186 2.69805,-1.10714 1.01392,0.005 1.98819,0.41203 2.70849,1.13232 1.49992,1.49993 1.5112,3.92052 0.0252,5.40654 -1.48602,1.48602 -3.90661,1.47474 -5.40653,-0.0252 z"
       fill-rule="evenodd"
       id="path160" />
    <path
       stroke="#323232"
       stroke-width="2.49869"
       stroke-miterlimit="8"
       stroke-linecap="round"
       d="m 125.56718,113.48957 c -1.49992,-1.49992 -1.5112,-3.92052 -0.0252,-5.40654 0.71361,-0.71361 1.68413,-1.11186 2.69805,-1.10714 1.01392,0.005 1.98819,0.41203 2.70849,1.13232 1.49992,1.49993 1.5112,3.92052 0.0252,5.40654 -1.48602,1.48602 -3.90661,1.47474 -5.40653,-0.0252 z"
       fill-rule="evenodd"
       id="path161" />
    <path
       fill="#ffffff"
       d="m 126.60825,112.4485 c -0.91959,-0.91958 -0.9265,-2.4036 -0.0155,-3.31466 0.43751,-0.43751 1.03252,-0.68166 1.65415,-0.67877 0.62161,0.003 1.21892,0.25261 1.66052,0.69421 0.91959,0.91958 0.9265,2.40361 0.0154,3.31466 -0.91105,0.91106 -2.39509,0.90415 -3.31466,-0.0154 z"
       fill-rule="evenodd"
       id="path162" />
    <path
       stroke="#323232"
       stroke-width="2.49869"
       stroke-miterlimit="8"
       stroke-linecap="round"
       d="m 126.60825,112.4485 c -0.91959,-0.91958 -0.9265,-2.4036 -0.0155,-3.31466 0.43751,-0.43751 1.03252,-0.68166 1.65415,-0.67877 0.62161,0.003 1.21892,0.25261 1.66052,0.69421 0.91959,0.91958 0.9265,2.40361 0.0154,3.31466 -0.91105,0.91106 -2.39509,0.90415 -3.31466,-0.0154 z"
       fill-rule="evenodd"
       id="path163" />
    <path
       fill="#000000"
       fill-opacity="0"
       d="m 125.91404,110.78798 4.68903,0.0218"
       fill-rule="evenodd"
       id="path164" />
    <path
       stroke="#323232"
       stroke-width="2.49869"
       stroke-linejoin="round"
       stroke-linecap="butt"
       d="m 125.91404,110.78798 4.68903,0.0218"
       fill-rule="evenodd"
       id="path165" />
    <path
       fill="#323232"
       d="m 138.31432,126.12624 c -0.59183,-0.59184 -0.59637,-1.54685 -0.0102,-2.13308 0.28151,-0.28151 0.6644,-0.43859 1.06443,-0.43669 0.40004,0.002 0.78443,0.16265 1.06864,0.44686 0.59183,0.59183 0.59638,1.54684 0.0102,2.13306 -0.58623,0.58623 -1.54123,0.58168 -2.13307,-0.0102 z"
       fill-rule="evenodd"
       id="path166" />
    <path
       fill="#323232"
       d="m 130.29935,141.8055 c -0.59184,-0.59183 -0.59639,-1.54684 -0.0102,-2.13307 0.28151,-0.28151 0.6644,-0.4386 1.06444,-0.43669 0.40002,0.002 0.78442,0.16264 1.06863,0.44685 0.59183,0.59184 0.59639,1.54684 0.0102,2.13307 -0.58623,0.58623 -1.54124,0.58168 -2.13307,-0.0102 z"
       fill-rule="evenodd"
       id="path167" />
    <path
       fill="#323232"
       d="m 122.45567,146.26913 c -0.59184,-0.59183 -0.59639,-1.54684 -0.0102,-2.13307 0.28151,-0.28151 0.6644,-0.4386 1.06443,-0.43669 0.40003,0.002 0.78443,0.16264 1.06864,0.44685 0.59184,0.59184 0.59639,1.54684 0.0102,2.13307 -0.58623,0.58623 -1.54124,0.58168 -2.13307,-0.0102 z"
       fill-rule="evenodd"
       id="path168" />
    <path
       fill="#323232"
       d="m 122.94583,141.7932 c -0.59184,-0.59184 -0.59639,-1.54684 -0.0102,-2.13307 0.28151,-0.28153 0.6644,-0.4386 1.06444,-0.43671 0.40002,0.002 0.78442,0.16264 1.06863,0.44686 0.59183,0.59184 0.59638,1.54684 0.0102,2.13307 -0.58623,0.58622 -1.54123,0.58168 -2.13307,-0.0101 z"
       fill-rule="evenodd"
       id="path169" />
    <path
       fill="#ffffff"
       d="m 156.24442,102.4663 c -0.91959,-0.91958 -0.9265,-2.4036 -0.0154,-3.314659 0.4375,-0.437508 1.03251,-0.681664 1.65413,-0.678772 0.62162,0.0029 1.21893,0.252609 1.66053,0.694206 0.91958,0.919585 0.92649,2.403615 0.0154,3.314665 -0.91106,0.91106 -2.39508,0.90415 -3.31465,-0.0154 z"
       fill-rule="evenodd"
       id="path170" />
    <path
       stroke="#323232"
       stroke-width="2.49869"
       stroke-miterlimit="8"
       stroke-linecap="round"
       d="m 156.24442,102.4663 c -0.91959,-0.91958 -0.9265,-2.4036 -0.0154,-3.314659 0.4375,-0.437508 1.03251,-0.681664 1.65413,-0.678772 0.62162,0.0029 1.21893,0.252609 1.66053,0.694206 0.91958,0.919585 0.92649,2.403615 0.0154,3.314665 -0.91106,0.91106 -2.39508,0.90415 -3.31465,-0.0154 z"
       fill-rule="evenodd"
       id="path171" />
    <path
       fill="#000000"
       fill-opacity="0"
       d="m 155.5502,100.80578 4.68904,0.0218"
       fill-rule="evenodd"
       id="path172" />
    <path
       stroke="#323232"
       stroke-width="2.49869"
       stroke-linejoin="round"
       stroke-linecap="butt"
       d="m 155.5502,100.80578 4.68904,0.0218"
       fill-rule="evenodd"
       id="path173" />
    <path
       fill="#323232"
       fill-opacity="0.6045"
       d="m 139.5599,109.79591 2.58339,-2.58339 4.63519,4.6352 -2.58339,2.58338 z"
       fill-rule="evenodd"
       id="path174" />
    <path
       fill="#323232"
       fill-opacity="0.6045"
       d="m 143.31268,106.04312 2.58339,-2.58338 4.63519,4.63519 -2.58339,2.58339 z"
       fill-rule="evenodd"
       id="path175" />
    <path
       fill="#323232"
       fill-opacity="0.6045"
       d="m 147.06526,102.29056 2.58337,-2.583389 4.63521,4.635199 -2.58339,2.58338 z"
       fill-rule="evenodd"
       id="path176" />
    <path
       fill="#323232"
       d="M 148.23692,57.3292 162.3592,43.20692 176.30542,57.15314 162.18313,71.27542 Z"
       fill-rule="evenodd"
       id="path177" />
    <path
       stroke="#323232"
       stroke-width="8.042"
       stroke-miterlimit="8"
       stroke-linecap="round"
       d="M 148.23692,57.3292 162.3592,43.20692 176.30542,57.15314 162.18313,71.27542 Z"
       fill-rule="evenodd"
       id="path178" />
    <path
       fill="#323232"
       d="m 120.08524,84.336914 18.04984,-18.049843 15.08724,15.087242 -18.04984,18.049843 z"
       fill-rule="evenodd"
       id="path179" />
    <path
       stroke="#323232"
       stroke-width="8.042"
       stroke-miterlimit="8"
       stroke-linecap="round"
       d="m 120.08524,84.336914 18.04984,-18.049843 15.08724,15.087242 -18.04984,18.049843 z"
       fill-rule="evenodd"
       id="path180" />
    <path
       fill="#323232"
       d="m 137.99817,68.760056 14.12228,-14.122284 12.75103,12.751022 -14.12229,14.122284 z"
       fill-rule="evenodd"
       id="path181" />
    <path
       stroke="#323232"
       stroke-width="8.042"
       stroke-miterlimit="8"
       stroke-linecap="round"
       d="m 137.99817,68.760056 14.12228,-14.122284 12.75103,12.751022 -14.12229,14.122284 z"
       fill-rule="evenodd"
       id="path182" />
    <path
       fill="#ffffff"
       d="m 120.08524,84.336914 18.04984,-18.049843 15.08724,15.087242 -18.04984,18.049843 z"
       fill-rule="evenodd"
       id="path183" />
    <path
       stroke="#ffffff"
       stroke-width="1.24934"
       stroke-linejoin="round"
       stroke-linecap="butt"
       d="m 120.08524,84.336914 18.04984,-18.049843 15.08724,15.087242 -18.04984,18.049843 z"
       fill-rule="evenodd"
       id="path184" />
    <path
       fill="#323232"
       fill-opacity="0.6045"
       d="m 122.54587,88.39435 4.69614,-4.696144 5.43087,5.430862 -4.69615,4.696144 z"
       fill-rule="evenodd"
       id="path185" />
    <path
       fill="#323232"
       d="m 186.42247,52.508846 -3.38838,0.635059 -16.66887,-16.668865 0.63505,-3.388385 z"
       fill-rule="evenodd"
       id="path186" />
    <path
       stroke="#323232"
       stroke-width="8.042"
       stroke-miterlimit="8"
       stroke-linecap="round"
       d="m 186.42247,52.508846 -3.38838,0.635059 -16.66887,-16.668865 0.63505,-3.388385 z"
       fill-rule="evenodd"
       id="path187" />
    <path
       fill="#323232"
       d="m 193.31476,54.56028 c -3.52202,3.522011 -12.72728,0.02705 -20.56055,-7.806217 C 164.92096,38.9208 161.426,29.715535 164.948,26.193526 c 8.24498,10.370703 17.99605,20.121775 28.36676,28.366755 z"
       fill-rule="evenodd"
       id="path188" />
    <path
       fill="#323232"
       d="m 178.32768,41.18145 c -7.83327,-7.833263 -13.82423,-14.542524 -13.38121,-14.985554 0.21275,-0.212749 1.9111,1.07753 4.72144,3.586992 2.81033,2.509463 6.50245,6.032545 10.26411,9.79421 7.83327,7.833264 13.82423,14.542526 13.38121,14.985554 -0.21275,0.21275 -1.9111,-1.07753 -4.72144,-3.586994 -2.81034,-2.50946 -6.50245,-6.032543 -10.26411,-9.794208 z"
       fill-rule="evenodd"
       id="path189" />
    <path
       fill="#ffffff"
       d="m 137.99817,68.760056 14.12228,-14.122284 12.75103,12.751022 -14.12229,14.122284 z"
       fill-rule="evenodd"
       id="path190" />
    <path
       stroke="#ffffff"
       stroke-width="1.24934"
       stroke-linejoin="round"
       stroke-linecap="butt"
       d="m 137.99817,68.760056 14.12228,-14.122284 12.75103,12.751022 -14.12229,14.122284 z"
       fill-rule="evenodd"
       id="path191" />
    <path
       fill="#ffffff"
       d="M 148.23692,57.3292 162.3592,43.20692 176.30542,57.15314 162.18313,71.27542 Z"
       fill-rule="evenodd"
       id="path192" />
    <path
       stroke="#ffffff"
       stroke-width="1.24934"
       stroke-linejoin="round"
       stroke-linecap="butt"
       d="M 148.23692,57.3292 162.3592,43.20692 176.30542,57.15314 162.18313,71.27542 Z"
       fill-rule="evenodd"
       id="path193" />
    <path
       fill="#323232"
       d="m 134.14438,85.36631 c -0.87512,-0.87513 -0.87512,-2.293999 0,-3.169128 l 26.05055,-26.050556 c 0.42026,-0.42025 0.99025,-0.656346 1.58458,-0.656346 0.59432,0 1.16431,0.236096 1.58457,0.656346 v 0 c 0.87512,0.875133 0.87512,2.294002 0,3.169136 l -26.05056,26.050549 c -0.87513,0.875137 -2.294,0.875137 -3.16914,-10e-7 z"
       fill-rule="evenodd"
       id="path194" />
  </g>
</svg>
