<svg width="153.314" height="153.314" xmlns="http://www.w3.org/2000/svg" fill="none" stroke-linecap="square" stroke-miterlimit="10" viewBox="0 0 153.314 153.314"><clipPath id="a"><path d="M0 0h234.635v234.635H0Z"/></clipPath><g clip-path="url(#a)" transform="scale(.65341)"><path d="M0 0h234.635v234.635H0Z"/><path fill="#323232" fill-rule="evenodd" d="M44.322 148.47c-4.167-4.167-4.198-10.89-.07-15.018a10.52 10.52 0 0 1 7.495-3.076 10.72 10.72 0 0 1 7.523 3.145c4.166 4.166 4.197 10.89.07 15.018-4.129 4.128-10.852 4.097-15.018-.07"/><path stroke="#323232" stroke-linecap="round" stroke-miterlimit="8" stroke-width="8.042" d="M44.322 148.47c-4.167-4.167-4.198-10.89-.07-15.018a10.52 10.52 0 0 1 7.495-3.076 10.72 10.72 0 0 1 7.523 3.145c4.166 4.166 4.197 10.89.07 15.018-4.129 4.128-10.852 4.097-15.018-.07z"/><path fill="#323232" fill-rule="evenodd" d="m38.128 141.121-.81 3.313-.535 4.785-.214 4.882.533 4.962 1.413 5.78 1.278 5.043 2.389 6.277 2.757 4.993 3.052 4.453 3.015 3.385 1.972 1.931 2.81 2.604 2.794 2.173 2.652 1.422 2.53 1.103 3.107.705 2.98.276 2.691-.198 3.267-.597 3.084-1.076 2.827-2.04 2.381-2.347 1.941-2.55 1.309-3.446.793-2.888-.468-3.332-2.998-3.192-4.053-2.617-3.275-2.103-4.353-3.308-3.013-2.274-1.869-2.042-1.456-2.489-1.373-3.031-1.03-2.61-.763-2.674-.262-2.314.057-2.43.305-1.685z"/><path stroke="#323232" stroke-linecap="round" stroke-miterlimit="8" stroke-width="8.042" d="m38.128 141.121-.81 3.313-.535 4.785-.214 4.882.533 4.962 1.413 5.78 1.278 5.043 2.389 6.277 2.757 4.993 3.052 4.453 3.015 3.385 1.972 1.931 2.81 2.604 2.794 2.173 2.652 1.422 2.53 1.103 3.107.705 2.98.276 2.691-.198 3.267-.597 3.084-1.076 2.827-2.04 2.381-2.347 1.941-2.55 1.309-3.446.793-2.888-.468-3.332-2.998-3.192-4.053-2.617-3.275-2.103-4.353-3.308-3.013-2.274-1.869-2.042-1.456-2.489-1.373-3.031-1.03-2.61-.763-2.674-.262-2.314.057-2.43.305-1.685z"/><path fill="#fff" fill-rule="evenodd" d="m38.128 141.121-.81 3.313-.535 4.785-.214 4.882.533 4.962 1.413 5.78 1.278 5.043 2.389 6.277 2.757 4.993 3.052 4.453 3.015 3.385 1.972 1.931 2.81 2.604 2.794 2.173 2.652 1.422 2.53 1.103 3.107.705 2.98.276 2.691-.198 3.267-.597 3.084-1.076 2.827-2.04 2.381-2.347 1.941-2.55 1.309-3.446.793-2.888-.468-3.332-2.998-3.192-4.053-2.617-3.275-2.103-4.353-3.308-3.013-2.274-1.869-2.042-1.456-2.489-1.373-3.031-1.03-2.61-.763-2.674-.262-2.314.057-2.43.305-1.685z"/><path stroke="#fff" stroke-linecap="butt" stroke-linejoin="round" stroke-width="1.249" d="m38.128 141.121-.81 3.313-.535 4.785-.214 4.882.533 4.962 1.413 5.78 1.278 5.043 2.389 6.277 2.757 4.993 3.052 4.453 3.015 3.385 1.972 1.931 2.81 2.604 2.794 2.173 2.652 1.422 2.53 1.103 3.107.705 2.98.276 2.691-.198 3.267-.597 3.084-1.076 2.827-2.04 2.381-2.347 1.941-2.55 1.309-3.446.793-2.888-.468-3.332-2.998-3.192-4.053-2.617-3.275-2.103-4.353-3.308-3.013-2.274-1.869-2.042-1.456-2.489-1.373-3.031-1.03-2.61-.763-2.674-.262-2.314.057-2.43.305-1.685z"/><path fill="#fff" fill-rule="evenodd" d="M44.101 148.692c-4.166-4.166-4.197-10.89-.07-15.017a10.52 10.52 0 0 1 7.495-3.076 10.72 10.72 0 0 1 7.524 3.145c4.166 4.166 4.197 10.89.069 15.018s-10.852 4.097-15.018-.07"/><path stroke="#fff" stroke-linecap="butt" stroke-linejoin="round" stroke-width="1.249" d="M44.101 148.692c-4.166-4.166-4.197-10.89-.07-15.017a10.52 10.52 0 0 1 7.495-3.076 10.72 10.72 0 0 1 7.524 3.145c4.166 4.166 4.197 10.89.069 15.018s-10.852 4.097-15.018-.07z"/><path fill="#323232" fill-rule="evenodd" d="m39.611 144.118-.463 3.848-.295 5.453.504 5.136 1.148 5.139 1.387 5.22 1.787 4.66 2.897 5.631 3.182 4.618 3.833 4.243 3.795 3.453 3.206 2.523 4.409 2.356 4.435.81 3.125-.225 2.677-.468 2.47-.95 2.738-1.911 2.36-2.36 1.535-2.363 1.186-3.395.434-2.644-.451-1.067-2.418-2.76-6.788-4.462-6.998-5.288-3.004-3.278-2.289-4.682-1.424-3.27-1.185-3.716-.394-4.029z"/><path fill="#323232" fill-rule="evenodd" d="M64.663 147.204c-2.874 6.39-9.976 9.71-16.77 7.841-6.796-1.869-11.28-8.376-10.591-15.366z"/><path stroke="#323232" stroke-linecap="butt" stroke-linejoin="round" stroke-width="3.748" d="M64.663 147.204c-2.874 6.39-9.976 9.71-16.77 7.841-6.796-1.869-11.28-8.376-10.591-15.366z"/><path fill="#fff" fill-rule="evenodd" d="M53.465 178.677c-1.02-1.76-.43-3.998 1.32-5.001a3.65 3.65 0 0 1 2.78-.352 3.7 3.7 0 0 1 2.235 1.72c1.02 1.758.429 3.997-1.32 5s-3.995.391-5.015-1.367m.692-.398c.8 1.378 2.555 1.859 3.922 1.075s1.827-2.536 1.028-3.913-2.554-1.858-3.921-1.075-1.827 2.536-1.029 3.913"/><path fill="#323232" fill-rule="evenodd" d="M45.635 147.151c-3.308-3.308-3.333-8.647-.055-11.925a8.36 8.36 0 0 1 5.952-2.442 8.5 8.5 0 0 1 5.973 2.496c3.308 3.308 3.333 8.647.055 11.925s-8.617 3.254-11.925-.054"/><path stroke="#fff" stroke-linecap="butt" stroke-linejoin="round" stroke-width="2.499" d="M45.635 147.151c-3.308-3.308-3.333-8.647-.055-11.925a8.36 8.36 0 0 1 5.952-2.442 8.5 8.5 0 0 1 5.973 2.496c3.308 3.308 3.333 8.647.055 11.925s-8.617 3.254-11.925-.054z"/><path fill="#323232" fill-rule="evenodd" d="M90.696 136.784c-3.423-3.424-1.929-10.468 3.338-15.734 5.266-5.267 12.31-6.76 15.733-3.338 3.424 3.424 1.93 10.468-3.337 15.734-5.266 5.267-12.31 6.76-15.734 3.338m1.661-1.662c2.506 2.506 8.063 1.012 12.412-3.337s5.843-9.906 3.337-12.411c-2.506-2.506-8.062-1.012-12.411 3.337s-5.843 9.906-3.338 12.411"/><path fill="#323232" fill-rule="evenodd" d="M84.15 137.994c-.502-1.913.613-3.951 2.585-4.725s4.165-.033 5.084 1.716l-1.802.922c-.44-.826-1.529-1.152-2.53-.759-1.002.393-1.599 1.381-1.386 2.296z"/><path fill="#323232" fill-rule="evenodd" d="m80.389 134.193-.31-.705 33.985-35.395-6.767 7.686-3.351 3.561-3.957 4.166-3.765 4.185-2.349 2.662-2.407 3.036-2.498 3.167-2.827 5.703-1.105.599-1.443 3.224z"/><path stroke="#323232" stroke-linecap="round" stroke-miterlimit="8" stroke-width="8.042" d="m80.389 134.193-.31-.705 33.985-35.395-6.767 7.686-3.351 3.561-3.957 4.166-3.765 4.185-2.349 2.662-2.407 3.036-2.498 3.167-2.827 5.703-1.105.599-1.443 3.224z"/><path d="M102.638 133.566c-1.436.375-3.151-.502-4.77-2.44-1.618-1.939-3.007-4.779-3.86-7.896l5.412-1.417z"/><path d="M102.638 133.566c-1.436.375-3.151-.502-4.77-2.44-1.618-1.939-3.007-4.779-3.86-7.896"/><path stroke="#323232" stroke-linecap="round" stroke-linejoin="round" stroke-width="2.887" d="M102.638 133.566c-1.436.375-3.151-.502-4.77-2.44-1.618-1.939-3.007-4.779-3.86-7.896"/><path fill="#323232" fill-rule="evenodd" d="m61.647 100.26.617-10.043-4.914-4.41-7.38-3.013-1.218 2.038 6.454 7.841-5.941 4.06-2.497 3.057.152 5.796 1.226.258 1.667-.912 1.718-3.275 6.52-1.855z"/><path stroke="#323232" stroke-linecap="butt" stroke-linejoin="round" stroke-width=".625" d="m61.647 100.26.617-10.043-4.914-4.41-7.38-3.013-1.218 2.038 6.454 7.841-5.941 4.06-2.497 3.057.152 5.796 1.226.258 1.667-.912 1.718-3.275 6.52-1.855z"/><path fill="#323232" fill-rule="evenodd" d="M65.762 117.16c8.685 3.402 14.321 11.902 14.053 21.194l-6.491-.248c.162-6.513-3.8-12.477-9.89-14.883z"/><path stroke="#323232" stroke-linecap="round" stroke-miterlimit="8" stroke-width="8.042" d="M65.762 117.16c8.685 3.402 14.321 11.902 14.053 21.194l-6.491-.248c.162-6.513-3.8-12.477-9.89-14.883z"/><path fill="#323232" fill-rule="evenodd" d="m56.91 118.049 23.96-23.96 2.68 2.68-23.96 23.96Z"/><path stroke="#323232" stroke-linecap="round" stroke-miterlimit="8" stroke-width="8.042" d="m56.91 118.049 23.96-23.96 2.68 2.68-23.96 23.96Z"/><path fill="#323232" fill-rule="evenodd" d="M63.382 75.848c11.007 11.007 11.007 28.853 0 39.86l-2.974 2.973-1.026-1.026-1.027-1.027 2.974-2.974c9.873-9.873 9.873-25.88 0-35.753z"/><path stroke="#323232" stroke-linecap="round" stroke-miterlimit="8" stroke-width="8.042" d="M63.382 75.848v0c11.007 11.007 11.007 28.853 0 39.86l-2.974 2.973-1.026-1.026-1.027-1.027 2.974-2.974c9.873-9.873 9.873-25.88 0-35.753z"/><path fill="#323232" fill-rule="evenodd" d="m63.513 75.717 23.6 23.6-1.886 1.886-23.6-23.6Z"/><path stroke="#323232" stroke-linecap="round" stroke-miterlimit="8" stroke-width="8.042" d="m63.513 75.717 23.6 23.6-1.886 1.886-23.6-23.6Z"/><path fill="#323232" fill-rule="evenodd" d="m76.905 134.677-.434-.97 45.987-47.943-9.148 10.421-4.533 4.824-5.353 5.644-5.09 5.672-3.176 3.609-3.25 4.12-2.386 3.113-3.134 4.586-3.136 5.168-1.926 4.393z"/><path stroke="#323232" stroke-linecap="round" stroke-miterlimit="8" stroke-width="8.042" d="m76.905 134.677-.434-.97 45.987-47.943-9.148 10.421-4.533 4.824-5.353 5.644-5.09 5.672-3.176 3.609-3.25 4.12-2.386 3.113-3.134 4.586-3.136 5.168-1.926 4.393z"/><path fill="#323232" fill-rule="evenodd" d="m80.045 100.13 21.49-21.49 5.89 5.889-21.491 21.49z"/><path stroke="#323232" stroke-linecap="round" stroke-miterlimit="8" stroke-width="8.042" d="m80.045 100.13 21.49-21.49 5.89 5.889-21.491 21.49z"/><path fill="#323232" fill-rule="evenodd" d="m81.555 97.534-12.452 12.453-.117-25.022Z"/><path stroke="#323232" stroke-linecap="round" stroke-miterlimit="8" stroke-width="8.042" d="m81.555 97.534-12.452 12.453-.117-25.022Z"/><path fill="#323232" fill-rule="evenodd" d="m63.537 116.421 42.75-42.75 11.67 11.671-42.749 42.75Z"/><path stroke="#323232" stroke-linecap="round" stroke-miterlimit="8" stroke-width="8.042" d="m63.537 116.421 42.75-42.75 11.67 11.671-42.749 42.75Z"/><path fill="#fff" fill-rule="evenodd" d="M62.97 116.41c10.054 2.519 17.035 11.718 16.737 22.052l-6.491-.248c.18-7.244-4.724-13.699-11.772-15.491z"/><path stroke="#fff" stroke-linecap="butt" stroke-linejoin="round" stroke-width="1.249" d="M62.97 116.41c10.054 2.519 17.035 11.718 16.737 22.052l-6.491-.248c.18-7.244-4.724-13.699-11.772-15.491z"/><path fill="#fff" fill-rule="evenodd" d="m56.803 118.156 23.96-23.96 4.634 4.636-23.96 23.96Z"/><path stroke="#fff" stroke-linecap="butt" stroke-linejoin="round" stroke-width="1.249" d="m56.803 118.156 23.96-23.96 4.634 4.636-23.96 23.96Z"/><path fill="#fff" fill-rule="evenodd" d="M63.274 75.956c11.007 11.007 11.007 28.853 0 39.86l-2.974 2.973-1.026-1.026-1.027-1.027 2.974-2.973c9.873-9.873 9.873-25.88 0-35.754z"/><path stroke="#fff" stroke-linecap="butt" stroke-linejoin="round" stroke-width="1.249" d="M63.274 75.956c11.007 11.007 11.007 28.853 0 39.86l-2.974 2.973-1.026-1.026-1.027-1.027 2.974-2.973c9.873-9.873 9.873-25.88 0-35.754z"/><path fill="#fff" fill-rule="evenodd" d="m63.405 75.825 23.6 23.6-1.886 1.886-23.6-23.6Z"/><path stroke="#fff" stroke-linecap="butt" stroke-linejoin="round" stroke-width="1.249" d="m63.405 75.825 23.6 23.6-1.886 1.886-23.6-23.6Z"/><path fill="#fff" fill-rule="evenodd" d="m75.757 136.11-1.094-2.72 45.574-45.551-8.889 10.325-4.43 4.758-5.234 5.562-4.956 5.612-3.085 3.575-3.128 4.11-2.289 3.11-2.97 4.608-2.932 5.223-2.352 3.817z"/><path stroke="#fff" stroke-linecap="butt" stroke-linejoin="round" stroke-width="1.249" d="m75.757 136.11-1.094-2.72 45.574-45.551-8.889 10.325-4.43 4.758-5.234 5.562-4.956 5.612-3.085 3.575-3.128 4.11-2.289 3.11-2.97 4.608-2.932 5.223-2.352 3.817z"/><path fill="#fff" fill-rule="evenodd" d="m79.937 100.239 21.49-21.49 5.889 5.888-21.49 21.49z"/><path stroke="#fff" stroke-linecap="butt" stroke-linejoin="round" stroke-width="1.249" d="m79.937 100.239 21.49-21.49 5.889 5.888-21.49 21.49z"/><path fill="#fff" fill-rule="evenodd" d="m81.447 97.642-12.452 12.453-.117-25.022Z"/><path stroke="#fff" stroke-linecap="butt" stroke-linejoin="round" stroke-width="1.249" d="m81.447 97.642-12.452 12.453-.117-25.022Z"/><path fill="#fff" fill-rule="evenodd" d="m63.544 116.644 42.75-42.749 13.944 13.945-42.749 42.749Z"/><path stroke="#fff" stroke-linecap="butt" stroke-linejoin="round" stroke-width="1.249" d="m63.544 116.644 42.75-42.749 13.944 13.945-42.749 42.749Z"/><path fill="#323232" fill-rule="evenodd" d="m66.98 81.334 12.895 12.895-13.562 10.176Z"/><path stroke="#323232" stroke-linecap="round" stroke-miterlimit="8" stroke-width="8.042" d="m66.98 81.334 12.895 12.895-13.562 10.176Z"/><path fill="#fff" fill-rule="evenodd" d="m66.98 81.334 12.895 12.895-13.562 10.176Z"/><path stroke="#fff" stroke-linecap="butt" stroke-linejoin="round" stroke-width="1.249" d="m66.98 81.334 12.895 12.895-13.562 10.176Z"/><path fill="#323232" fill-rule="evenodd" d="m59.153 122.794-1.331-1.332 26.957-26.957L65.49 75.216l20.62 20.62z"/><path stroke="#323232" stroke-linecap="butt" stroke-linejoin="round" stroke-width="3.748" d="m59.153 122.794-1.331-1.332 26.957-26.957L65.49 75.216l20.62 20.62z"/><path fill="#fff" fill-rule="evenodd" d="M74.063 94.563c-1.5-1.5-1.511-3.92-.025-5.406a3.8 3.8 0 0 1 2.698-1.108 3.86 3.86 0 0 1 2.709 1.133c1.5 1.5 1.51 3.92.025 5.406s-3.907 1.475-5.407-.025"/><path stroke="#323232" stroke-linecap="round" stroke-miterlimit="8" stroke-width="2.499" d="M74.063 94.563c-1.5-1.5-1.511-3.92-.025-5.406a3.8 3.8 0 0 1 2.698-1.108 3.86 3.86 0 0 1 2.709 1.133c1.5 1.5 1.51 3.92.025 5.406s-3.907 1.475-5.407-.025z"/><path fill="#fff" fill-rule="evenodd" d="M75.104 93.522a2.344 2.344 0 0 1-.015-3.315 2.32 2.32 0 0 1 1.654-.678 2.37 2.37 0 0 1 1.66.694c.92.92.927 2.403.016 3.314a2.344 2.344 0 0 1-3.315-.015"/><path stroke="#323232" stroke-linecap="round" stroke-miterlimit="8" stroke-width="2.499" d="M75.104 93.522a2.344 2.344 0 0 1-.015-3.315 2.32 2.32 0 0 1 1.654-.678 2.37 2.37 0 0 1 1.66.694c.92.92.927 2.403.016 3.314a2.344 2.344 0 0 1-3.315-.015z"/><path d="m74.41 91.861 4.69.022"/><path stroke="#323232" stroke-linecap="butt" stroke-linejoin="round" stroke-width="2.499" d="m74.41 91.861 4.69.022"/><path fill="#323232" fill-rule="evenodd" d="M86.81 107.2a1.51 1.51 0 0 1-.01-2.133 1.5 1.5 0 0 1 1.065-.437c.4.002.784.163 1.068.447.592.592.597 1.547.01 2.133a1.51 1.51 0 0 1-2.133-.01m-8.015 15.679a1.51 1.51 0 0 1-.01-2.133 1.5 1.5 0 0 1 1.065-.437c.4.002.784.163 1.068.447.592.592.597 1.547.01 2.133a1.51 1.51 0 0 1-2.133-.01m-7.843 4.464a1.51 1.51 0 0 1-.01-2.133 1.5 1.5 0 0 1 1.064-.437c.4.002.784.163 1.069.447a1.51 1.51 0 0 1 .01 2.133 1.51 1.51 0 0 1-2.133-.01m.49-4.476a1.51 1.51 0 0 1-.01-2.133 1.5 1.5 0 0 1 1.064-.437c.4.002.785.163 1.069.447.592.592.596 1.547.01 2.133a1.51 1.51 0 0 1-2.133-.01"/><path fill="#fff" fill-rule="evenodd" d="M104.74 83.54a2.344 2.344 0 0 1-.015-3.315 2.32 2.32 0 0 1 1.654-.679 2.37 2.37 0 0 1 1.66.695c.92.92.927 2.403.016 3.314a2.344 2.344 0 0 1-3.314-.015"/><path stroke="#323232" stroke-linecap="round" stroke-miterlimit="8" stroke-width="2.499" d="M104.74 83.54a2.344 2.344 0 0 1-.015-3.315 2.32 2.32 0 0 1 1.654-.679 2.37 2.37 0 0 1 1.66.695c.92.92.927 2.403.016 3.314a2.344 2.344 0 0 1-3.314-.015z"/><path d="m104.046 81.88 4.69.021"/><path stroke="#323232" stroke-linecap="butt" stroke-linejoin="round" stroke-width="2.499" d="m104.046 81.88 4.69.021"/><path fill="#323232" fill-opacity=".605" fill-rule="evenodd" d="m88.056 90.87 2.583-2.584 4.636 4.635-2.584 2.584zm3.753-3.753 2.583-2.584 4.635 4.635-2.583 2.584zm3.752-3.753 2.584-2.583 4.635 4.635-2.583 2.583z"/><path fill="#323232" fill-rule="evenodd" d="m96.733 38.403 14.122-14.123 13.946 13.947-14.122 14.122z"/><path stroke="#323232" stroke-linecap="round" stroke-miterlimit="8" stroke-width="8.042" d="m96.733 38.403 14.122-14.123 13.946 13.947-14.122 14.122z"/><path fill="#323232" fill-rule="evenodd" d="m68.581 65.41 18.05-18.05 15.087 15.088-18.05 18.05Z"/><path stroke="#323232" stroke-linecap="round" stroke-miterlimit="8" stroke-width="8.042" d="m68.581 65.41 18.05-18.05 15.087 15.088-18.05 18.05Z"/><path fill="#323232" fill-rule="evenodd" d="m86.494 49.834 14.123-14.123 12.75 12.751-14.122 14.123z"/><path stroke="#323232" stroke-linecap="round" stroke-miterlimit="8" stroke-width="8.042" d="m86.494 49.834 14.123-14.123 12.75 12.751-14.122 14.123z"/><path fill="#fff" fill-rule="evenodd" d="m68.581 65.41 18.05-18.05 15.087 15.088-18.05 18.05Z"/><path stroke="#fff" stroke-linecap="butt" stroke-linejoin="round" stroke-width="1.249" d="m68.581 65.41 18.05-18.05 15.087 15.088-18.05 18.05Z"/><path fill="#323232" fill-opacity=".605" fill-rule="evenodd" d="m71.042 69.468 4.696-4.696 5.43 5.43-4.695 4.697z"/><path fill="#323232" fill-rule="evenodd" d="m134.919 33.582-3.389.635-16.669-16.668.635-3.389z"/><path stroke="#323232" stroke-linecap="round" stroke-miterlimit="8" stroke-width="8.042" d="m134.919 33.582-3.389.635-16.669-16.668.635-3.389z"/><path fill="#323232" fill-rule="evenodd" d="M141.81 35.634c-3.521 3.522-12.726.027-20.56-7.806s-11.328-17.039-7.806-20.561c8.245 10.37 17.996 20.122 28.367 28.367"/><path fill="#323232" fill-rule="evenodd" d="M126.824 22.255C118.99 14.422 113 7.712 113.443 7.269c.212-.212 1.91 1.078 4.721 3.587s6.502 6.033 10.264 9.795c7.833 7.833 13.824 14.542 13.381 14.985-.212.213-1.91-1.077-4.721-3.587s-6.503-6.032-10.264-9.794"/><path fill="#fff" fill-rule="evenodd" d="m86.494 49.834 14.123-14.123 12.75 12.751-14.122 14.123z"/><path stroke="#fff" stroke-linecap="butt" stroke-linejoin="round" stroke-width="1.249" d="m86.494 49.834 14.123-14.123 12.75 12.751-14.122 14.123z"/><path fill="#fff" fill-rule="evenodd" d="m96.733 38.403 14.122-14.123 13.946 13.947-14.122 14.122z"/><path stroke="#fff" stroke-linecap="butt" stroke-linejoin="round" stroke-width="1.249" d="m96.733 38.403 14.122-14.123 13.946 13.947-14.122 14.122z"/><path fill="#323232" fill-rule="evenodd" d="M82.64 66.44a2.24 2.24 0 0 1 0-3.17l26.051-26.05a2.24 2.24 0 0 1 3.17 0 2.24 2.24 0 0 1 0 3.17L85.81 66.44a2.24 2.24 0 0 1-3.17 0m13.185 100.956c-4.166-4.166-4.197-10.89-.069-15.018a10.52 10.52 0 0 1 7.495-3.075 10.72 10.72 0 0 1 7.523 3.145c4.166 4.166 4.197 10.89.07 15.017-4.129 4.128-10.852 4.097-15.019-.069"/><path stroke="#323232" stroke-linecap="round" stroke-miterlimit="8" stroke-width="8.042" d="M95.825 167.396c-4.166-4.166-4.197-10.89-.069-15.018a10.52 10.52 0 0 1 7.495-3.075 10.72 10.72 0 0 1 7.523 3.145c4.166 4.166 4.197 10.89.07 15.017-4.129 4.128-10.852 4.097-15.019-.069z"/><path fill="#323232" fill-rule="evenodd" d="m89.632 160.048-.81 3.312-.536 4.786-.213 4.882.533 4.962 1.413 5.78 1.278 5.042 2.389 6.277 2.757 4.993 3.052 4.453 3.015 3.386 1.972 1.93 2.81 2.605 2.794 2.173 2.652 1.422 2.53 1.102 3.107.705 2.98.277 2.691-.199 3.267-.596 3.084-1.076 2.827-2.04 2.381-2.348 1.941-2.55 1.309-3.446.793-2.888-.468-3.331-2.998-3.193-4.053-2.616-3.275-2.103-4.353-3.308-3.013-2.274-1.869-2.043-1.456-2.488-1.373-3.031-1.03-2.61-.763-2.675-.262-2.313.057-2.431.305-1.684z"/><path stroke="#323232" stroke-linecap="round" stroke-miterlimit="8" stroke-width="8.042" d="m89.632 160.048-.81 3.312-.536 4.786-.213 4.882.533 4.962 1.413 5.78 1.278 5.042 2.389 6.277 2.757 4.993 3.052 4.453 3.015 3.386 1.972 1.93 2.81 2.605 2.794 2.173 2.652 1.422 2.53 1.102 3.107.705 2.98.277 2.691-.199 3.267-.596 3.084-1.076 2.827-2.04 2.381-2.348 1.941-2.55 1.309-3.446.793-2.888-.468-3.331-2.998-3.193-4.053-2.616-3.275-2.103-4.353-3.308-3.013-2.274-1.869-2.043-1.456-2.488-1.373-3.031-1.03-2.61-.763-2.675-.262-2.313.057-2.431.305-1.684z"/><path fill="#fff" fill-rule="evenodd" d="m89.632 160.048-.81 3.312-.536 4.786-.213 4.882.533 4.962 1.413 5.78 1.278 5.042 2.389 6.277 2.757 4.993 3.052 4.453 3.015 3.386 1.972 1.93 2.81 2.605 2.794 2.173 2.652 1.422 2.53 1.102 3.107.705 2.98.277 2.691-.199 3.267-.596 3.084-1.076 2.827-2.04 2.381-2.348 1.941-2.55 1.309-3.446.793-2.888-.468-3.331-2.998-3.193-4.053-2.616-3.275-2.103-4.353-3.308-3.013-2.274-1.869-2.043-1.456-2.488-1.373-3.031-1.03-2.61-.763-2.675-.262-2.313.057-2.431.305-1.684z"/><path stroke="#fff" stroke-linecap="butt" stroke-linejoin="round" stroke-width="1.249" d="m89.632 160.048-.81 3.312-.536 4.786-.213 4.882.533 4.962 1.413 5.78 1.278 5.042 2.389 6.277 2.757 4.993 3.052 4.453 3.015 3.386 1.972 1.93 2.81 2.605 2.794 2.173 2.652 1.422 2.53 1.102 3.107.705 2.98.277 2.691-.199 3.267-.596 3.084-1.076 2.827-2.04 2.381-2.348 1.941-2.55 1.309-3.446.793-2.888-.468-3.331-2.998-3.193-4.053-2.616-3.275-2.103-4.353-3.308-3.013-2.274-1.869-2.043-1.456-2.488-1.373-3.031-1.03-2.61-.763-2.675-.262-2.313.057-2.431.305-1.684z"/><path fill="#fff" fill-rule="evenodd" d="M95.605 167.619c-4.166-4.166-4.197-10.89-.07-15.018a10.52 10.52 0 0 1 7.495-3.075 10.72 10.72 0 0 1 7.523 3.145c4.167 4.166 4.198 10.89.07 15.017-4.128 4.128-10.852 4.097-15.018-.069"/><path stroke="#fff" stroke-linecap="butt" stroke-linejoin="round" stroke-width="1.249" d="M95.605 167.619c-4.166-4.166-4.197-10.89-.07-15.018a10.52 10.52 0 0 1 7.495-3.075 10.72 10.72 0 0 1 7.523 3.145c4.167 4.166 4.198 10.89.07 15.017-4.128 4.128-10.852 4.097-15.018-.069z"/><path fill="#323232" fill-rule="evenodd" d="m91.115 163.044-.463 3.848-.295 5.453.504 5.136 1.148 5.14 1.387 5.22 1.787 4.66 2.897 5.63 3.182 4.618 3.833 4.244 3.795 3.452 3.206 2.524 4.409 2.356 4.435.81 3.125-.226 2.677-.468 2.47-.95 2.738-1.91 2.36-2.36 1.534-2.363 1.187-3.396.434-2.643-.452-1.067-2.417-2.76-6.788-4.463-6.998-5.288-3.004-3.278-2.29-4.682-1.423-3.27-1.185-3.715-.394-4.03z"/><path fill="#323232" fill-rule="evenodd" d="M116.167 166.13c-2.874 6.39-9.976 9.71-16.77 7.842-6.796-1.87-11.28-8.376-10.591-15.366z"/><path stroke="#323232" stroke-linecap="butt" stroke-linejoin="round" stroke-width="3.748" d="M116.167 166.13c-2.874 6.39-9.976 9.71-16.77 7.842-6.796-1.87-11.28-8.376-10.591-15.366z"/><path fill="#fff" fill-rule="evenodd" d="M104.969 197.603c-1.02-1.759-.43-3.998 1.32-5a3.65 3.65 0 0 1 2.78-.353 3.72 3.72 0 0 1 2.235 1.72c1.02 1.759.428 3.998-1.32 5.001-1.75 1.003-3.995.39-5.015-1.368m.692-.397c.8 1.377 2.555 1.858 3.922 1.074s1.827-2.535 1.028-3.913-2.554-1.858-3.921-1.074-1.827 2.536-1.029 3.913"/><path fill="#323232" fill-rule="evenodd" d="M97.139 166.078c-3.308-3.308-3.333-8.647-.055-11.925a8.36 8.36 0 0 1 5.952-2.443 8.5 8.5 0 0 1 5.973 2.497c3.308 3.308 3.333 8.647.055 11.925s-8.617 3.254-11.925-.054"/><path stroke="#fff" stroke-linecap="butt" stroke-linejoin="round" stroke-width="2.499" d="M97.139 166.078c-3.308-3.308-3.333-8.647-.055-11.925a8.36 8.36 0 0 1 5.952-2.443 8.5 8.5 0 0 1 5.973 2.497c3.308 3.308 3.333 8.647.055 11.925s-8.617 3.254-11.925-.054z"/><path fill="#323232" fill-rule="evenodd" d="M142.2 155.71c-3.423-3.423-1.929-10.467 3.337-15.734 5.267-5.266 12.311-6.76 15.734-3.337s1.93 10.467-3.337 15.734c-5.266 5.266-12.31 6.76-15.734 3.337m1.661-1.661c2.506 2.505 8.063 1.011 12.412-3.338 4.349-4.348 5.843-9.905 3.337-12.41-2.506-2.507-8.062-1.012-12.411 3.336-4.35 4.35-5.843 9.906-3.338 12.412"/><path fill="#323232" fill-rule="evenodd" d="M135.653 156.92c-.501-1.913.614-3.95 2.586-4.724s4.165-.034 5.084 1.715l-1.802.923c-.44-.826-1.529-1.153-2.53-.76-1.003.394-1.599 1.382-1.387 2.297z"/><path fill="#323232" fill-rule="evenodd" d="m131.893 153.12-.31-.705 33.985-35.396-6.767 7.687-3.351 3.56-3.957 4.166-3.765 4.185-2.349 2.662-2.407 3.037-2.498 3.166-2.827 5.704-1.105.598-1.443 3.224z"/><path stroke="#323232" stroke-linecap="round" stroke-miterlimit="8" stroke-width="8.042" d="m131.893 153.12-.31-.705 33.985-35.396-6.767 7.687-3.351 3.56-3.957 4.166-3.765 4.185-2.349 2.662-2.407 3.037-2.498 3.166-2.827 5.704-1.105.598-1.443 3.224z"/><path d="M154.142 152.492c-1.436.376-3.151-.502-4.77-2.44s-3.007-4.778-3.86-7.895l5.412-1.417z"/><path d="M154.142 152.492c-1.436.376-3.151-.502-4.77-2.44s-3.007-4.778-3.86-7.895"/><path stroke="#323232" stroke-linecap="round" stroke-linejoin="round" stroke-width="2.887" d="M154.142 152.492c-1.436.376-3.151-.502-4.77-2.44s-3.007-4.778-3.86-7.895"/><path fill="#323232" fill-rule="evenodd" d="m113.15 119.187.618-10.043-4.914-4.41-7.38-3.013-1.218 2.038 6.454 7.841-5.942 4.059-2.496 3.058.152 5.796 1.226.257 1.667-.912 1.718-3.274 6.52-1.856z"/><path stroke="#323232" stroke-linecap="butt" stroke-linejoin="round" stroke-width=".625" d="m113.15 119.187.618-10.043-4.914-4.41-7.38-3.013-1.218 2.038 6.454 7.841-5.942 4.059-2.496 3.058.152 5.796 1.226.257 1.667-.912 1.718-3.274 6.52-1.856z"/><path fill="#323232" fill-rule="evenodd" d="M117.266 136.086c8.685 3.402 14.321 11.903 14.053 21.195l-6.491-.248c.162-6.514-3.8-12.477-9.89-14.883z"/><path stroke="#323232" stroke-linecap="round" stroke-miterlimit="8" stroke-width="8.042" d="M117.266 136.086c8.685 3.402 14.321 11.903 14.053 21.195l-6.491-.248c.162-6.514-3.8-12.477-9.89-14.883z"/><path fill="#323232" fill-rule="evenodd" d="m108.414 136.975 23.96-23.96 2.68 2.68-23.96 23.96z"/><path stroke="#323232" stroke-linecap="round" stroke-miterlimit="8" stroke-width="8.042" d="m108.414 136.975 23.96-23.96 2.68 2.68-23.96 23.96z"/><path fill="#323232" fill-rule="evenodd" d="M114.886 94.774c11.007 11.007 11.007 28.853 0 39.86l-2.974 2.974-1.026-1.027-1.027-1.026 2.974-2.974c9.873-9.873 9.873-25.88 0-35.753z"/><path stroke="#323232" stroke-linecap="round" stroke-miterlimit="8" stroke-width="8.042" d="M114.886 94.774v0c11.007 11.007 11.007 28.853 0 39.86l-2.974 2.974-1.026-1.027-1.027-1.026 2.974-2.974c9.873-9.873 9.873-25.88 0-35.753z"/><path fill="#323232" fill-rule="evenodd" d="m115.017 94.643 23.6 23.6-1.886 1.887-23.6-23.6z"/><path stroke="#323232" stroke-linecap="round" stroke-miterlimit="8" stroke-width="8.042" d="m115.017 94.643 23.6 23.6-1.886 1.887-23.6-23.6z"/><path fill="#323232" fill-rule="evenodd" d="m128.409 153.603-.434-.97 45.987-47.942-9.148 10.42-4.533 4.825-5.353 5.643-5.09 5.672-3.176 3.61-3.25 4.12-2.386 3.112-3.134 4.586-3.136 5.168-1.926 4.393z"/><path stroke="#323232" stroke-linecap="round" stroke-miterlimit="8" stroke-width="8.042" d="m128.409 153.603-.434-.97 45.987-47.942-9.148 10.42-4.533 4.825-5.353 5.643-5.09 5.672-3.176 3.61-3.25 4.12-2.386 3.112-3.134 4.586-3.136 5.168-1.926 4.393z"/><path fill="#323232" fill-rule="evenodd" d="m131.55 119.057 21.49-21.49 5.888 5.889-21.49 21.49z"/><path stroke="#323232" stroke-linecap="round" stroke-miterlimit="8" stroke-width="8.042" d="m131.55 119.057 21.49-21.49 5.888 5.889-21.49 21.49z"/><path fill="#323232" fill-rule="evenodd" d="m133.06 116.46-12.453 12.453-.117-25.021z"/><path stroke="#323232" stroke-linecap="round" stroke-miterlimit="8" stroke-width="8.042" d="m133.06 116.46-12.453 12.453-.117-25.021z"/><path fill="#323232" fill-rule="evenodd" d="m115.041 135.348 42.75-42.75 11.67 11.671-42.75 42.75z"/><path stroke="#323232" stroke-linecap="round" stroke-miterlimit="8" stroke-width="8.042" d="m115.041 135.348 42.75-42.75 11.67 11.671-42.75 42.75z"/><path fill="#fff" fill-rule="evenodd" d="M114.475 135.336c10.053 2.52 17.034 11.718 16.736 22.053l-6.491-.248c.18-7.245-4.724-13.7-11.772-15.492z"/><path stroke="#fff" stroke-linecap="butt" stroke-linejoin="round" stroke-width="1.249" d="M114.475 135.336c10.053 2.52 17.034 11.718 16.736 22.053l-6.491-.248c.18-7.245-4.724-13.7-11.772-15.492z"/><path fill="#fff" fill-rule="evenodd" d="m108.307 137.083 23.96-23.96 4.634 4.635-23.96 23.96z"/><path stroke="#fff" stroke-linecap="butt" stroke-linejoin="round" stroke-width="1.249" d="m108.307 137.083 23.96-23.96 4.634 4.635-23.96 23.96z"/><path fill="#fff" fill-rule="evenodd" d="M114.778 94.883c11.007 11.007 11.007 28.852 0 39.86l-2.974 2.973-1.026-1.027-1.027-1.026 2.974-2.974c9.873-9.873 9.873-25.88 0-35.753z"/><path stroke="#fff" stroke-linecap="butt" stroke-linejoin="round" stroke-width="1.249" d="M114.778 94.883c11.007 11.007 11.007 28.852 0 39.86l-2.974 2.973-1.026-1.027-1.027-1.026 2.974-2.974c9.873-9.873 9.873-25.88 0-35.753z"/><path fill="#fff" fill-rule="evenodd" d="m114.909 94.752 23.6 23.6-1.886 1.886-23.6-23.6z"/><path stroke="#fff" stroke-linecap="butt" stroke-linejoin="round" stroke-width="1.249" d="m114.909 94.752 23.6 23.6-1.886 1.886-23.6-23.6z"/><path fill="#fff" fill-rule="evenodd" d="m127.26 155.037-1.094-2.72 45.575-45.552-8.889 10.325-4.43 4.758-5.234 5.563-4.956 5.611-3.085 3.575-3.128 4.11-2.289 3.11-2.97 4.608-2.932 5.224-2.352 3.817z"/><path stroke="#fff" stroke-linecap="butt" stroke-linejoin="round" stroke-width="1.249" d="m127.26 155.037-1.094-2.72 45.575-45.552-8.889 10.325-4.43 4.758-5.234 5.563-4.956 5.611-3.085 3.575-3.128 4.11-2.289 3.11-2.97 4.608-2.932 5.224-2.352 3.817z"/><path fill="#fff" fill-rule="evenodd" d="m131.441 119.165 21.49-21.49 5.889 5.889-21.49 21.49z"/><path stroke="#fff" stroke-linecap="butt" stroke-linejoin="round" stroke-width="1.249" d="m131.441 119.165 21.49-21.49 5.889 5.889-21.49 21.49z"/><path fill="#fff" fill-rule="evenodd" d="M132.951 116.569 120.5 129.02l-.118-25.02Z"/><path stroke="#fff" stroke-linecap="butt" stroke-linejoin="round" stroke-width="1.249" d="M132.951 116.569 120.5 129.02l-.118-25.02Z"/><path fill="#fff" fill-rule="evenodd" d="m115.048 135.57 42.75-42.748 13.944 13.944-42.749 42.75z"/><path stroke="#fff" stroke-linecap="butt" stroke-linejoin="round" stroke-width="1.249" d="m115.048 135.57 42.75-42.748 13.944 13.944-42.749 42.75z"/><path fill="#323232" fill-rule="evenodd" d="m118.484 100.26 12.895 12.895-13.562 10.176z"/><path stroke="#323232" stroke-linecap="round" stroke-miterlimit="8" stroke-width="8.042" d="m118.484 100.26 12.895 12.895-13.562 10.176z"/><path fill="#fff" fill-rule="evenodd" d="m118.484 100.26 12.895 12.895-13.562 10.176z"/><path stroke="#fff" stroke-linecap="butt" stroke-linejoin="round" stroke-width="1.249" d="m118.484 100.26 12.895 12.895-13.562 10.176z"/><path fill="#323232" fill-rule="evenodd" d="m110.657 141.72-1.332-1.332 26.958-26.957-19.289-19.288 20.62 20.62z"/><path stroke="#323232" stroke-linecap="butt" stroke-linejoin="round" stroke-width="3.748" d="m110.657 141.72-1.332-1.332 26.958-26.957-19.289-19.288 20.62 20.62z"/><path fill="#fff" fill-rule="evenodd" d="M125.567 113.49c-1.5-1.5-1.511-3.92-.025-5.407a3.8 3.8 0 0 1 2.698-1.107 3.86 3.86 0 0 1 2.709 1.132c1.5 1.5 1.51 3.92.025 5.407-1.486 1.486-3.907 1.474-5.407-.025"/><path stroke="#323232" stroke-linecap="round" stroke-miterlimit="8" stroke-width="2.499" d="M125.567 113.49c-1.5-1.5-1.511-3.92-.025-5.407a3.8 3.8 0 0 1 2.698-1.107 3.86 3.86 0 0 1 2.709 1.132c1.5 1.5 1.51 3.92.025 5.407-1.486 1.486-3.907 1.474-5.407-.025z"/><path fill="#fff" fill-rule="evenodd" d="M126.608 112.449a2.344 2.344 0 0 1-.015-3.315 2.32 2.32 0 0 1 1.654-.679 2.37 2.37 0 0 1 1.66.694c.92.92.927 2.404.016 3.315a2.344 2.344 0 0 1-3.315-.015"/><path stroke="#323232" stroke-linecap="round" stroke-miterlimit="8" stroke-width="2.499" d="M126.608 112.449a2.344 2.344 0 0 1-.015-3.315 2.32 2.32 0 0 1 1.654-.679 2.37 2.37 0 0 1 1.66.694c.92.92.927 2.404.016 3.315a2.344 2.344 0 0 1-3.315-.015z"/><path d="m125.914 110.788 4.69.022"/><path stroke="#323232" stroke-linecap="butt" stroke-linejoin="round" stroke-width="2.499" d="m125.914 110.788 4.69.022"/><path fill="#323232" fill-rule="evenodd" d="M138.314 126.126a1.51 1.51 0 0 1-.01-2.133 1.5 1.5 0 0 1 1.065-.437c.4.002.784.163 1.068.447.592.592.597 1.547.01 2.133a1.51 1.51 0 0 1-2.133-.01m-8.014 15.68a1.51 1.51 0 0 1-.01-2.134 1.5 1.5 0 0 1 1.064-.436c.4.002.784.162 1.068.447.592.591.597 1.546.01 2.133a1.51 1.51 0 0 1-2.133-.01m-7.843 4.464a1.51 1.51 0 0 1-.01-2.134 1.5 1.5 0 0 1 1.064-.437c.4.002.784.163 1.069.447a1.51 1.51 0 0 1 .01 2.133 1.51 1.51 0 0 1-2.133-.01m.49-4.476a1.51 1.51 0 0 1-.01-2.133 1.5 1.5 0 0 1 1.064-.437c.4.002.784.163 1.069.447.592.592.596 1.547.01 2.133a1.51 1.51 0 0 1-2.133-.01"/><path fill="#fff" fill-rule="evenodd" d="M156.244 102.466a2.344 2.344 0 0 1-.015-3.314 2.32 2.32 0 0 1 1.654-.68 2.37 2.37 0 0 1 1.66.695c.92.92.927 2.404.016 3.315a2.344 2.344 0 0 1-3.315-.016"/><path stroke="#323232" stroke-linecap="round" stroke-miterlimit="8" stroke-width="2.499" d="M156.244 102.466a2.344 2.344 0 0 1-.015-3.314 2.32 2.32 0 0 1 1.654-.68 2.37 2.37 0 0 1 1.66.695c.92.92.927 2.404.016 3.315a2.344 2.344 0 0 1-3.315-.016z"/><path d="m155.55 100.806 4.69.022"/><path stroke="#323232" stroke-linecap="butt" stroke-linejoin="round" stroke-width="2.499" d="m155.55 100.806 4.69.022"/><path fill="#323232" fill-opacity=".605" fill-rule="evenodd" d="m139.56 109.796 2.583-2.583 4.635 4.635-2.583 2.583zm3.753-3.753 2.583-2.583 4.635 4.635-2.583 2.583zm3.752-3.753 2.584-2.583 4.635 4.635-2.584 2.584z"/><path fill="#323232" fill-rule="evenodd" d="m148.237 57.33 14.122-14.123 13.946 13.946-14.122 14.122Z"/><path stroke="#323232" stroke-linecap="round" stroke-miterlimit="8" stroke-width="8.042" d="m148.237 57.33 14.122-14.123 13.946 13.946-14.122 14.122Z"/><path fill="#323232" fill-rule="evenodd" d="m120.085 84.337 18.05-18.05 15.087 15.087-18.05 18.05z"/><path stroke="#323232" stroke-linecap="round" stroke-miterlimit="8" stroke-width="8.042" d="m120.085 84.337 18.05-18.05 15.087 15.087-18.05 18.05z"/><path fill="#323232" fill-rule="evenodd" d="m137.998 68.76 14.122-14.122 12.751 12.75-14.122 14.123z"/><path stroke="#323232" stroke-linecap="round" stroke-miterlimit="8" stroke-width="8.042" d="m137.998 68.76 14.122-14.122 12.751 12.75-14.122 14.123z"/><path fill="#fff" fill-rule="evenodd" d="m120.085 84.337 18.05-18.05 15.087 15.087-18.05 18.05z"/><path stroke="#fff" stroke-linecap="butt" stroke-linejoin="round" stroke-width="1.249" d="m120.085 84.337 18.05-18.05 15.087 15.087-18.05 18.05z"/><path fill="#323232" fill-opacity=".605" fill-rule="evenodd" d="m122.546 88.394 4.696-4.696 5.43 5.431-4.695 4.696z"/><path fill="#323232" fill-rule="evenodd" d="m186.422 52.509-3.388.635-16.669-16.669.635-3.388z"/><path stroke="#323232" stroke-linecap="round" stroke-miterlimit="8" stroke-width="8.042" d="m186.422 52.509-3.388.635-16.669-16.669.635-3.388z"/><path fill="#323232" fill-rule="evenodd" d="M193.315 54.56c-3.522 3.522-12.728.027-20.56-7.806-7.834-7.833-11.329-17.038-7.807-20.56 8.245 10.37 17.996 20.121 28.367 28.366"/><path fill="#323232" fill-rule="evenodd" d="M178.328 41.181c-7.834-7.833-13.825-14.542-13.382-14.985.213-.213 1.912 1.077 4.722 3.587s6.502 6.032 10.264 9.794c7.833 7.833 13.824 14.543 13.381 14.986-.213.212-1.91-1.078-4.721-3.587s-6.503-6.033-10.264-9.795"/><path fill="#fff" fill-rule="evenodd" d="m137.998 68.76 14.122-14.122 12.751 12.75-14.122 14.123z"/><path stroke="#fff" stroke-linecap="butt" stroke-linejoin="round" stroke-width="1.249" d="m137.998 68.76 14.122-14.122 12.751 12.75-14.122 14.123z"/><path fill="#fff" fill-rule="evenodd" d="m148.237 57.33 14.122-14.123 13.946 13.946-14.122 14.122Z"/><path stroke="#fff" stroke-linecap="butt" stroke-linejoin="round" stroke-width="1.249" d="m148.237 57.33 14.122-14.123 13.946 13.946-14.122 14.122Z"/><path fill="#323232" fill-rule="evenodd" d="M134.144 85.366a2.24 2.24 0 0 1 0-3.169l26.05-26.05a2.24 2.24 0 0 1 3.17 0 2.24 2.24 0 0 1 0 3.169l-26.05 26.05a2.24 2.24 0 0 1-3.17 0"/></g></svg>