<svg version="1.1" width="352" height="352" viewBox="0.0 0.0 352.0 352.0" fill="none" stroke="none" stroke-linecap="square" stroke-miterlimit="10" xmlns:xlink="http://www.w3.org/1999/xlink" xmlns="http://www.w3.org/2000/svg"><clipPath id="p.0"><path d="m0 0l352.0 0l0 352.0l-352.0 0l0 -352.0z" clip-rule="nonzero"/></clipPath><g clip-path="url(#p.0)"><path fill="#000000" fill-opacity="0.0" d="m0 0l352.0 0l0 352.0l-352.0 0z" fill-rule="evenodd"/><defs><radialGradient id="p.1" gradientUnits="userSpaceOnUse" gradientTransform="matrix(14.62018897748038 0.01647898979667978 -0.01647898979667978 14.62018897748038 0.0 0.0)" spreadMethod="pad" cx="12.051696304366978" cy="12.024546034320045" fx="12.051696304366978" fy="12.024546034320045" r="14.62018871307373"><stop offset="0.0" stop-color="#000000"/><stop offset="0.99999994" stop-color="#000000" stop-opacity="0.0"/><stop offset="1.0" stop-color="#ffffff" stop-opacity="0.0"/></radialGradient></defs><path fill="url(#p.1)" d="m24.770445 175.82928l44.29409 -106.764725l106.93539 -44.123547l106.93538 44.364605l44.294098 106.86458l-44.294098 106.76471l-106.93538 44.123566l-106.93539 -44.364624z" fill-rule="evenodd"/><path stroke="#434343" stroke-width="11.272965879265092" stroke-miterlimit="8.0" stroke-linecap="butt" d="m24.770445 175.82928l44.29409 -106.764725l106.93539 -44.123547l106.93538 44.364605l44.294098 106.86458l-44.294098 106.76471l-106.93538 44.123566l-106.93539 -44.364624z" fill-rule="evenodd"/><path fill="#000000" fill-opacity="0.0" d="m29.525959 175.8293l42.90125 -103.41396l103.57278 -42.73561l103.57277 42.976677l42.901245 103.51381l-42.901245 103.413956l-103.57277 42.735596l-103.57278 -42.976654z" fill-rule="evenodd"/><path stroke="#2f2f2f" stroke-width="7.514435695538058" stroke-miterlimit="8.0" stroke-linecap="butt" d="m29.525959 175.8293l42.90125 -103.41396l103.57278 -42.73561l103.57277 42.976677l42.901245 103.51381l-42.901245 103.413956l-103.57277 42.735596l-103.57278 -42.976654z" fill-rule="evenodd"/><path fill="#ffffff" d="m187.54803 127.12209l16.2473 0l0 -16.247292l15.319702 0l0 16.247292l16.247284 0l0 15.3196945l-16.247284 0l0 16.2473l-15.319702 0l0 -16.2473l-16.2473 0z" fill-rule="evenodd"/><path fill="#ffffff" d="m113.09863 181.77849l8.423195 0l0 -8.4232025l7.942299 0l0 8.4232025l8.4232025 0l0 7.9422913l-8.4232025 0l0 8.4232025l-7.942299 0l0 -8.4232025l-8.423195 0z" fill-rule="evenodd"/><path fill="#ffffff" d="m202.67914 229.25853l5.955261 0l0 -5.955261l5.641571 0l0 5.955261l5.955246 0l0 5.6152496l-5.955246 0l0 5.955261l-5.641571 0l0 -5.955261l-5.955261 0z" fill-rule="evenodd"/><path fill="#ffffff" fill-opacity="0.2127" d="m90.56864 175.99994c0 -47.182526 38.248985 -85.43152 85.43151 -85.43152c47.182526 0 85.43152 38.248993 85.43152 85.43152l-42.71576 0c0 -23.591263 -19.124496 -42.71576 -42.71576 -42.71576c-23.591263 0 -42.71576 19.124496 -42.71576 42.71576z" fill-rule="evenodd"/><path fill="#ffffff" fill-opacity="0.3982" d="m261.43167 175.99994c0 47.182526 -38.248993 85.43152 -85.43152 85.43152c-47.182526 0 -85.43151 -38.248993 -85.43151 -85.43152l42.71575 0c0 23.591263 19.124496 42.71576 42.71576 42.71576c23.591263 0 42.71576 -19.124496 42.71576 -42.71576z" fill-rule="evenodd"/><path fill="#ffffff" d="m170.89615 176.00104c0 -2.8194733 2.2856293 -5.1051025 5.1051025 -5.1051025c1.3539581 0 2.6524658 0.53785706 3.6098633 1.4952545c0.9573822 0.9573822 1.4952393 2.25589 1.4952393 3.609848c0 2.8194733 -2.2856293 5.1051025 -5.1051025 5.1051025c-2.8194733 0 -5.1051025 -2.2856293 -5.1051025 -5.1051025z" fill-rule="evenodd"/><path fill="#ffffff" d="m80.98999 176.01091c0 -52.47267 42.537506 -95.01017 95.01016 -95.01017c25.198273 0 49.36447 10.009972 67.18234 27.827835c17.817871 17.817863 27.82782 41.984062 27.82782 67.182335c0 52.472656 -42.53749 95.01015 -95.01016 95.01015c-52.472656 0 -95.01016 -42.53749 -95.01016 -95.01015zm11.425926 0c0 46.162292 37.421944 83.58424 83.584236 83.58424c46.162308 0 83.58426 -37.42195 83.58426 -83.58424c0 -46.162308 -37.42195 -83.58424 -83.58426 -83.58424c-46.162292 0 -83.584236 37.421936 -83.584236 83.58424z" fill-rule="evenodd"/><path fill="#ffffff" d="m170.89505 73.75426l10.210205 0l0 17.525764l-10.210205 0z" fill-rule="evenodd"/><path fill="#ffffff" d="m170.89505 260.71985l10.210205 0l0 17.525787l-10.210205 0z" fill-rule="evenodd"/><path fill="#ffffff" d="m278.24585 168.94534l0 10.210205l-17.525757 0l0 -10.210205z" fill-rule="evenodd"/><path fill="#ffffff" d="m91.28024 168.94534l0 10.210205l-17.525764 0l0 -10.210205z" fill-rule="evenodd"/></g></svg>