<svg version="1.1" width="352" height="352" viewBox="0.0 0.0 352.0 352.0" fill="none" stroke="none" stroke-linecap="square" stroke-miterlimit="10" xmlns:xlink="http://www.w3.org/1999/xlink" xmlns="http://www.w3.org/2000/svg"><clipPath id="p.0"><path d="m0 0l352.0 0l0 352.0l-352.0 0l0 -352.0z" clip-rule="nonzero"/></clipPath><g clip-path="url(#p.0)"><path fill="#000000" fill-opacity="0.0" d="m0 0l352.0 0l0 352.0l-352.0 0z" fill-rule="evenodd"/><defs><radialGradient id="p.1" gradientUnits="userSpaceOnUse" gradientTransform="matrix(14.62018897748038 0.01647898979667978 -0.01647898979667978 14.62018897748038 0.0 0.0)" spreadMethod="pad" cx="12.051696304366978" cy="12.024546034320045" fx="12.051696304366978" fy="12.024546034320045" r="14.62018871307373"><stop offset="0.0" stop-color="#000000"/><stop offset="0.99999994" stop-color="#000000" stop-opacity="0.0"/><stop offset="1.0" stop-color="#ffffff" stop-opacity="0.0"/></radialGradient></defs><path fill="url(#p.1)" d="m24.770445 175.82928l44.29409 -106.764725l106.93539 -44.123547l106.93538 44.364605l44.294098 106.86458l-44.294098 106.76471l-106.93538 44.123566l-106.93539 -44.364624z" fill-rule="evenodd"/><path stroke="#434343" stroke-width="11.272965879265092" stroke-miterlimit="8.0" stroke-linecap="butt" d="m24.770445 175.82928l44.29409 -106.764725l106.93539 -44.123547l106.93538 44.364605l44.294098 106.86458l-44.294098 106.76471l-106.93538 44.123566l-106.93539 -44.364624z" fill-rule="evenodd"/><path fill="#000000" fill-opacity="0.0" d="m29.525959 175.8293l42.90125 -103.41396l103.57278 -42.73561l103.57277 42.976677l42.901245 103.51381l-42.901245 103.413956l-103.57277 42.735596l-103.57278 -42.976654z" fill-rule="evenodd"/><path stroke="#2f2f2f" stroke-width="7.514435695538058" stroke-miterlimit="8.0" stroke-linecap="butt" d="m29.525959 175.8293l42.90125 -103.41396l103.57278 -42.73561l103.57277 42.976677l42.901245 103.51381l-42.901245 103.413956l-103.57277 42.735596l-103.57278 -42.976654z" fill-rule="evenodd"/><path fill="#ffffff" d="m87.6114 240.43791l35.967346 -29.134293l6.7052994 -0.65211487l5.19928 -4.9340515l11.547714 -15.679169l-0.9479675 -3.3153381l61.867416 -36.685028l62.03334 -38.06774l2.7504272 4.2050323l-58.858337 36.880028l-57.41678 42.1615l-44.32068 48.12065l-12.812332 11.259781l-6.224869 -7.993973z" fill-rule="evenodd"/><path fill="#ffffff" d="m84.287224 176.00188c0 -50.65071 41.060516 -91.711235 91.711235 -91.711235c24.323334 0 47.65045 9.662407 64.849655 26.861603c17.199188 17.199196 26.861603 40.5263 26.861603 64.84963c0 50.650726 -41.06053 91.71126 -91.71126 91.71126c-50.65072 0 -91.711235 -41.06053 -91.711235 -91.71126zm11.02919 0c0 44.55948 36.12258 80.68205 80.682045 80.68205c44.55948 0 80.68205 -36.122574 80.68205 -80.68205c0 -44.559464 -36.122574 -80.682045 -80.68205 -80.682045c-44.559464 0 -80.682045 36.12258 -80.682045 80.682045z" fill-rule="evenodd"/><path fill="#ffffff" d="m167.49849 238.53333l16.999939 0l0 39.706696l-16.999939 0z" fill-rule="evenodd"/><path fill="#ffffff" d="m103.54109 176.00523c0 -40.01895 32.441772 -72.460724 72.460724 -72.460724c19.217773 0 37.648453 7.6342316 51.237473 21.223251c13.58902 13.58902 21.223251 32.0197 21.223251 51.237473c0 40.01895 -32.441772 72.460724 -72.460724 72.460724c-40.01895 0 -72.460724 -32.441772 -72.460724 -72.460724zm8.714127 0c0 35.20627 28.540329 63.746597 63.746597 63.746597c35.20627 0 63.746597 -28.540329 63.746597 -63.746597c0 -35.20627 -28.540329 -63.746597 -63.746597 -63.746597c-35.20627 0 -63.746597 28.540329 -63.746597 63.746597z" fill-rule="evenodd"/><path fill="#ffffff" d="m167.49849 73.7844l16.999939 0l0 39.706703l-16.999939 0z" fill-rule="evenodd"/><path fill="#ffffff" d="m113.477356 167.50555l0 16.999924l-39.706703 0l0 -16.999924z" fill-rule="evenodd"/><path fill="#ffffff" d="m278.2263 167.50555l0 16.999924l-39.70671 0l0 -16.999924z" fill-rule="evenodd"/></g></svg>